%TF.GenerationSoftware,KiCad,Pcbnew,7.0.6-7.0.6~ubuntu22.04.1*%
%TF.CreationDate,2023-07-22T15:19:08-06:00*%
%TF.ProjectId,gps-tracker,6770732d-7472-4616-936b-65722e6b6963,rev?*%
%TF.SameCoordinates,Original*%
%TF.FileFunction,Drillmap*%
%TF.FilePolarity,Positive*%
%FSLAX45Y45*%
G04 Gerber Fmt 4.5, Leading zero omitted, Abs format (unit mm)*
G04 Created by KiCad (PCBNEW 7.0.6-7.0.6~ubuntu22.04.1) date 2023-07-22 15:19:08*
%MOMM*%
%LPD*%
G01*
G04 APERTURE LIST*
%ADD10C,0.100000*%
%ADD11C,0.200000*%
%ADD12C,0.040000*%
%ADD13C,0.050000*%
%ADD14C,0.060000*%
%ADD15C,0.070000*%
%ADD16C,0.090000*%
%ADD17C,0.120000*%
G04 APERTURE END LIST*
D10*
X15350000Y-9680000D02*
X14300000Y-12700000D01*
X8210000Y-5220000D02*
X6860000Y-9680000D01*
X6860000Y-9680000D02*
X7910000Y-12700000D01*
X14300000Y-12700000D02*
X7910000Y-12700000D01*
X14000000Y-5220000D02*
X8210000Y-5220000D01*
X14000000Y-5220000D02*
X15350000Y-9680000D01*
D11*
D12*
X7120000Y-9490000D02*
X7160000Y-9530000D01*
X7160000Y-9490000D02*
X7120000Y-9530000D01*
X7480000Y-10180000D02*
X7520000Y-10220000D01*
X7520000Y-10180000D02*
X7480000Y-10220000D01*
X7930000Y-10200000D02*
X7970000Y-10240000D01*
X7970000Y-10200000D02*
X7930000Y-10240000D01*
X7930000Y-10850000D02*
X7970000Y-10890000D01*
X7970000Y-10850000D02*
X7930000Y-10890000D01*
X8475050Y-6020000D02*
X8515050Y-6060000D01*
X8515050Y-6020000D02*
X8475050Y-6060000D01*
X8600000Y-9390000D02*
X8640000Y-9430000D01*
X8640000Y-9390000D02*
X8600000Y-9430000D01*
X8690000Y-7890000D02*
X8730000Y-7930000D01*
X8730000Y-7890000D02*
X8690000Y-7930000D01*
X8710000Y-6020000D02*
X8750000Y-6060000D01*
X8750000Y-6020000D02*
X8710000Y-6060000D01*
X8770000Y-9770000D02*
X8810000Y-9810000D01*
X8810000Y-9770000D02*
X8770000Y-9810000D01*
X8780000Y-8140000D02*
X8820000Y-8180000D01*
X8820000Y-8140000D02*
X8780000Y-8180000D01*
X8860000Y-7840000D02*
X8900000Y-7880000D01*
X8900000Y-7840000D02*
X8860000Y-7880000D01*
X8860000Y-8390000D02*
X8900000Y-8430000D01*
X8900000Y-8390000D02*
X8860000Y-8430000D01*
X8890000Y-6670000D02*
X8930000Y-6710000D01*
X8930000Y-6670000D02*
X8890000Y-6710000D01*
X8950000Y-7840000D02*
X8990000Y-7880000D01*
X8990000Y-7840000D02*
X8950000Y-7880000D01*
X9070000Y-7960000D02*
X9110000Y-8000000D01*
X9110000Y-7960000D02*
X9070000Y-8000000D01*
X9140000Y-12000000D02*
X9180000Y-12040000D01*
X9180000Y-12000000D02*
X9140000Y-12040000D01*
X9340000Y-7900000D02*
X9380000Y-7940000D01*
X9380000Y-7900000D02*
X9340000Y-7940000D01*
X9340000Y-9210000D02*
X9380000Y-9250000D01*
X9380000Y-9210000D02*
X9340000Y-9250000D01*
X9457310Y-9325000D02*
X9497310Y-9365000D01*
X9497310Y-9325000D02*
X9457310Y-9365000D01*
X9470000Y-8150000D02*
X9510000Y-8190000D01*
X9510000Y-8150000D02*
X9470000Y-8190000D01*
X9500000Y-9730000D02*
X9540000Y-9770000D01*
X9540000Y-9730000D02*
X9500000Y-9770000D01*
X9570000Y-11290000D02*
X9610000Y-11330000D01*
X9610000Y-11290000D02*
X9570000Y-11330000D01*
X9630000Y-11060000D02*
X9670000Y-11100000D01*
X9670000Y-11060000D02*
X9630000Y-11100000D01*
X9648561Y-10852550D02*
X9688561Y-10892550D01*
X9688561Y-10852550D02*
X9648561Y-10892550D01*
X9730000Y-11360000D02*
X9770000Y-11400000D01*
X9770000Y-11360000D02*
X9730000Y-11400000D01*
X10001351Y-9684378D02*
X10041351Y-9724378D01*
X10041351Y-9684378D02*
X10001351Y-9724378D01*
X10130000Y-10635000D02*
X10170000Y-10675000D01*
X10170000Y-10635000D02*
X10130000Y-10675000D01*
X10130000Y-9242550D02*
X10170000Y-9282550D01*
X10170000Y-9242550D02*
X10130000Y-9282550D01*
X10230000Y-12540000D02*
X10270000Y-12580000D01*
X10270000Y-12540000D02*
X10230000Y-12580000D01*
X10250000Y-10635000D02*
X10290000Y-10675000D01*
X10290000Y-10635000D02*
X10250000Y-10675000D01*
X10250000Y-10810000D02*
X10290000Y-10850000D01*
X10290000Y-10810000D02*
X10250000Y-10850000D01*
X10410000Y-8720000D02*
X10450000Y-8760000D01*
X10450000Y-8720000D02*
X10410000Y-8760000D01*
X10500000Y-7960000D02*
X10540000Y-8000000D01*
X10540000Y-7960000D02*
X10500000Y-8000000D01*
X10500000Y-10940000D02*
X10540000Y-10980000D01*
X10540000Y-10940000D02*
X10500000Y-10980000D01*
X10550000Y-9310000D02*
X10590000Y-9350000D01*
X10590000Y-9310000D02*
X10550000Y-9350000D01*
X10576622Y-9944414D02*
X10616622Y-9984414D01*
X10616622Y-9944414D02*
X10576622Y-9984414D01*
X10590000Y-6410000D02*
X10630000Y-6450000D01*
X10630000Y-6410000D02*
X10590000Y-6450000D01*
X10590000Y-11310000D02*
X10630000Y-11350000D01*
X10630000Y-11310000D02*
X10590000Y-11350000D01*
X10607500Y-9060000D02*
X10647500Y-9100000D01*
X10647500Y-9060000D02*
X10607500Y-9100000D01*
X10640000Y-9530000D02*
X10680000Y-9570000D01*
X10680000Y-9530000D02*
X10640000Y-9570000D01*
X10640000Y-10730000D02*
X10680000Y-10770000D01*
X10680000Y-10730000D02*
X10640000Y-10770000D01*
X10654341Y-6285659D02*
X10694341Y-6325659D01*
X10694341Y-6285659D02*
X10654341Y-6325659D01*
X10664804Y-10008386D02*
X10704804Y-10048386D01*
X10704804Y-10008386D02*
X10664804Y-10048386D01*
X10670000Y-8970000D02*
X10710000Y-9010000D01*
X10710000Y-8970000D02*
X10670000Y-9010000D01*
X10680000Y-12098764D02*
X10720000Y-12138764D01*
X10720000Y-12098764D02*
X10680000Y-12138764D01*
X10690000Y-11840000D02*
X10730000Y-11880000D01*
X10730000Y-11840000D02*
X10690000Y-11880000D01*
X10693928Y-8654417D02*
X10733928Y-8694417D01*
X10733928Y-8654417D02*
X10693928Y-8694417D01*
X10698770Y-9457377D02*
X10738770Y-9497377D01*
X10738770Y-9457377D02*
X10698770Y-9497377D01*
X10720000Y-11200000D02*
X10760000Y-11240000D01*
X10760000Y-11200000D02*
X10720000Y-11240000D01*
X10731128Y-6672374D02*
X10771128Y-6712374D01*
X10771128Y-6672374D02*
X10731128Y-6712374D01*
X10742550Y-8870000D02*
X10782550Y-8910000D01*
X10782550Y-8870000D02*
X10742550Y-8910000D01*
X10757450Y-9722367D02*
X10797450Y-9762367D01*
X10797450Y-9722367D02*
X10757450Y-9762367D01*
X10757450Y-9955322D02*
X10797450Y-9995322D01*
X10797450Y-9955322D02*
X10757450Y-9995322D01*
X10780000Y-10250000D02*
X10820000Y-10290000D01*
X10820000Y-10250000D02*
X10780000Y-10290000D01*
X10792500Y-8324734D02*
X10832500Y-8364734D01*
X10832500Y-8324734D02*
X10792500Y-8364734D01*
X10815141Y-8606355D02*
X10855141Y-8646355D01*
X10855141Y-8606355D02*
X10815141Y-8646355D01*
X10836006Y-9907450D02*
X10876006Y-9947450D01*
X10876006Y-9907450D02*
X10836006Y-9947450D01*
X10837500Y-11333576D02*
X10877500Y-11373576D01*
X10877500Y-11333576D02*
X10837500Y-11373576D01*
X10850000Y-8200000D02*
X10890000Y-8240000D01*
X10890000Y-8200000D02*
X10850000Y-8240000D01*
X10866453Y-9786368D02*
X10906453Y-9826368D01*
X10906453Y-9786368D02*
X10866453Y-9826368D01*
X10870000Y-11160000D02*
X10910000Y-11200000D01*
X10910000Y-11160000D02*
X10870000Y-11200000D01*
X10870000Y-11470000D02*
X10910000Y-11510000D01*
X10910000Y-11470000D02*
X10870000Y-11510000D01*
X10890000Y-9010000D02*
X10930000Y-9050000D01*
X10930000Y-9010000D02*
X10890000Y-9050000D01*
X10927485Y-8271298D02*
X10967485Y-8311298D01*
X10967485Y-8271298D02*
X10927485Y-8311298D01*
X10930000Y-8480000D02*
X10970000Y-8520000D01*
X10970000Y-8480000D02*
X10930000Y-8520000D01*
X10990000Y-12100000D02*
X11030000Y-12140000D01*
X11030000Y-12100000D02*
X10990000Y-12140000D01*
X11000000Y-8349552D02*
X11040000Y-8389552D01*
X11040000Y-8349552D02*
X11000000Y-8389552D01*
X11005960Y-9577450D02*
X11045960Y-9617450D01*
X11045960Y-9577450D02*
X11005960Y-9617450D01*
X11010000Y-10310000D02*
X11050000Y-10350000D01*
X11050000Y-10310000D02*
X11010000Y-10350000D01*
X11017721Y-8548935D02*
X11057721Y-8588935D01*
X11057721Y-8548935D02*
X11017721Y-8588935D01*
X11020000Y-9450000D02*
X11060000Y-9490000D01*
X11060000Y-9450000D02*
X11020000Y-9490000D01*
X11027550Y-11249708D02*
X11067550Y-11289708D01*
X11067550Y-11249708D02*
X11027550Y-11289708D01*
X11052500Y-11830000D02*
X11092500Y-11870000D01*
X11092500Y-11830000D02*
X11052500Y-11870000D01*
X11060000Y-10670000D02*
X11100000Y-10710000D01*
X11100000Y-10670000D02*
X11060000Y-10710000D01*
X11060000Y-10880000D02*
X11100000Y-10920000D01*
X11100000Y-10880000D02*
X11060000Y-10920000D01*
X11060000Y-11650000D02*
X11100000Y-11690000D01*
X11100000Y-11650000D02*
X11060000Y-11690000D01*
X11060428Y-8799401D02*
X11100428Y-8839401D01*
X11100428Y-8799401D02*
X11060428Y-8839401D01*
X11076622Y-12152450D02*
X11116622Y-12192450D01*
X11116622Y-12152450D02*
X11076622Y-12192450D01*
X11086681Y-8316821D02*
X11126681Y-8356821D01*
X11126681Y-8316821D02*
X11086681Y-8356821D01*
X11130000Y-10200000D02*
X11170000Y-10240000D01*
X11170000Y-10200000D02*
X11130000Y-10240000D01*
X11130000Y-10510000D02*
X11170000Y-10550000D01*
X11170000Y-10510000D02*
X11130000Y-10550000D01*
X11130000Y-10950000D02*
X11170000Y-10990000D01*
X11170000Y-10950000D02*
X11130000Y-10990000D01*
X11140000Y-12060000D02*
X11180000Y-12100000D01*
X11180000Y-12060000D02*
X11140000Y-12100000D01*
X11163464Y-9811918D02*
X11203463Y-9851918D01*
X11203463Y-9811918D02*
X11163464Y-9851918D01*
X11178125Y-9222500D02*
X11218125Y-9262500D01*
X11218125Y-9222500D02*
X11178125Y-9262500D01*
X11190000Y-8320000D02*
X11230000Y-8360000D01*
X11230000Y-8320000D02*
X11190000Y-8360000D01*
X11240000Y-9407400D02*
X11280000Y-9447400D01*
X11280000Y-9407400D02*
X11240000Y-9447400D01*
X11240000Y-12070000D02*
X11280000Y-12110000D01*
X11280000Y-12070000D02*
X11240000Y-12110000D01*
X11260000Y-11012500D02*
X11300000Y-11052500D01*
X11300000Y-11012500D02*
X11260000Y-11052500D01*
X11276225Y-10521799D02*
X11316225Y-10561799D01*
X11316225Y-10521799D02*
X11276225Y-10561799D01*
X11276908Y-8917450D02*
X11316908Y-8957450D01*
X11316908Y-8917450D02*
X11276908Y-8957450D01*
X11293659Y-11878390D02*
X11333659Y-11918390D01*
X11333659Y-11878390D02*
X11293659Y-11918390D01*
X11340000Y-10850000D02*
X11380000Y-10890000D01*
X11380000Y-10850000D02*
X11340000Y-10890000D01*
X11350000Y-12140000D02*
X11390000Y-12180000D01*
X11390000Y-12140000D02*
X11350000Y-12180000D01*
X11380000Y-11530000D02*
X11420000Y-11570000D01*
X11420000Y-11530000D02*
X11380000Y-11570000D01*
X11380000Y-11620000D02*
X11420000Y-11660000D01*
X11420000Y-11620000D02*
X11380000Y-11660000D01*
X11444973Y-8917450D02*
X11484973Y-8957450D01*
X11484973Y-8917450D02*
X11444973Y-8957450D01*
X11450000Y-9390000D02*
X11490000Y-9430000D01*
X11490000Y-9390000D02*
X11450000Y-9430000D01*
X11500000Y-10850000D02*
X11540000Y-10890000D01*
X11540000Y-10850000D02*
X11500000Y-10890000D01*
X11510000Y-9270000D02*
X11550000Y-9310000D01*
X11550000Y-9270000D02*
X11510000Y-9310000D01*
X11512500Y-9671277D02*
X11552500Y-9711277D01*
X11552500Y-9671277D02*
X11512500Y-9711277D01*
X11540000Y-10240000D02*
X11580000Y-10280000D01*
X11580000Y-10240000D02*
X11540000Y-10280000D01*
X11549305Y-8464552D02*
X11589305Y-8504552D01*
X11589305Y-8464552D02*
X11549305Y-8504552D01*
X11560000Y-8330000D02*
X11600000Y-8370000D01*
X11600000Y-8330000D02*
X11560000Y-8370000D01*
X11570000Y-8960000D02*
X11610000Y-9000000D01*
X11610000Y-8960000D02*
X11570000Y-9000000D01*
X11620000Y-10510000D02*
X11660000Y-10550000D01*
X11660000Y-10510000D02*
X11620000Y-10550000D01*
X11630000Y-8677500D02*
X11670000Y-8717500D01*
X11670000Y-8677500D02*
X11630000Y-8717500D01*
X11630000Y-10890000D02*
X11670000Y-10930000D01*
X11670000Y-10890000D02*
X11630000Y-10930000D01*
X11670000Y-6490000D02*
X11710000Y-6530000D01*
X11710000Y-6490000D02*
X11670000Y-6530000D01*
X11670000Y-6600000D02*
X11710000Y-6640000D01*
X11710000Y-6600000D02*
X11670000Y-6640000D01*
X11670000Y-11160000D02*
X11710000Y-11200000D01*
X11710000Y-11160000D02*
X11670000Y-11200000D01*
X11670000Y-11520000D02*
X11710000Y-11560000D01*
X11710000Y-11520000D02*
X11670000Y-11560000D01*
X11690000Y-6940000D02*
X11730000Y-6980000D01*
X11730000Y-6940000D02*
X11690000Y-6980000D01*
X11690000Y-8810000D02*
X11730000Y-8850000D01*
X11730000Y-8810000D02*
X11690000Y-8850000D01*
X11700000Y-9380000D02*
X11740000Y-9420000D01*
X11740000Y-9380000D02*
X11700000Y-9420000D01*
X11706689Y-9740000D02*
X11746689Y-9780000D01*
X11746689Y-9740000D02*
X11706689Y-9780000D01*
X11770000Y-5920000D02*
X11810000Y-5960000D01*
X11810000Y-5920000D02*
X11770000Y-5960000D01*
X11780000Y-6180000D02*
X11820000Y-6220000D01*
X11820000Y-6180000D02*
X11780000Y-6220000D01*
X11785968Y-11008468D02*
X11825968Y-11048468D01*
X11825968Y-11008468D02*
X11785968Y-11048468D01*
X11790000Y-11520000D02*
X11830000Y-11560000D01*
X11830000Y-11520000D02*
X11790000Y-11560000D01*
X11840000Y-8740000D02*
X11880000Y-8780000D01*
X11880000Y-8740000D02*
X11840000Y-8780000D01*
X11840000Y-9570000D02*
X11880000Y-9610000D01*
X11880000Y-9570000D02*
X11840000Y-9610000D01*
X11850000Y-11100000D02*
X11890000Y-11140000D01*
X11890000Y-11100000D02*
X11850000Y-11140000D01*
X11910000Y-10990000D02*
X11950000Y-11030000D01*
X11950000Y-10990000D02*
X11910000Y-11030000D01*
X11910000Y-11740000D02*
X11950000Y-11780000D01*
X11950000Y-11740000D02*
X11910000Y-11780000D01*
X11960000Y-12545000D02*
X12000000Y-12585000D01*
X12000000Y-12545000D02*
X11960000Y-12585000D01*
X12000000Y-11980000D02*
X12040000Y-12020000D01*
X12040000Y-11980000D02*
X12000000Y-12020000D01*
X12140000Y-8532550D02*
X12180000Y-8572550D01*
X12180000Y-8532550D02*
X12140000Y-8572550D01*
X12140000Y-10060000D02*
X12180000Y-10100000D01*
X12180000Y-10060000D02*
X12140000Y-10100000D01*
X12230000Y-8490000D02*
X12270000Y-8530000D01*
X12270000Y-8490000D02*
X12230000Y-8530000D01*
X12230000Y-10150000D02*
X12270000Y-10190000D01*
X12270000Y-10150000D02*
X12230000Y-10190000D01*
X14340000Y-9910000D02*
X14380000Y-9950000D01*
X14380000Y-9910000D02*
X14340000Y-9950000D01*
X14370000Y-10570000D02*
X14410000Y-10610000D01*
X14410000Y-10570000D02*
X14370000Y-10610000D01*
X14400000Y-8710000D02*
X14440000Y-8750000D01*
X14440000Y-8710000D02*
X14400000Y-8750000D01*
X14410000Y-8870000D02*
X14450000Y-8910000D01*
X14450000Y-8870000D02*
X14410000Y-8910000D01*
X14600000Y-10290000D02*
X14640000Y-10330000D01*
X14640000Y-10290000D02*
X14600000Y-10330000D01*
X14780000Y-10600000D02*
X14820000Y-10640000D01*
X14820000Y-10600000D02*
X14780000Y-10640000D01*
X14890000Y-10360000D02*
X14930000Y-10400000D01*
X14930000Y-10360000D02*
X14890000Y-10400000D01*
X15010000Y-10190000D02*
X15050000Y-10230000D01*
X15050000Y-10190000D02*
X15010000Y-10230000D01*
X15020000Y-8920000D02*
X15060000Y-8960000D01*
X15060000Y-8920000D02*
X15020000Y-8960000D01*
D13*
X7485000Y-10587500D02*
G75*
G03*
X7485000Y-10587500I-25000J0D01*
G01*
X7485000Y-10712500D02*
G75*
G03*
X7485000Y-10712500I-25000J0D01*
G01*
D14*
X8130000Y-6710000D02*
X8130000Y-6770000D01*
X8100000Y-6740000D02*
X8160000Y-6740000D01*
X8963232Y-10730000D02*
X8963232Y-10790000D01*
X8933232Y-10760000D02*
X8993232Y-10760000D01*
X8963232Y-10980000D02*
X8963232Y-11040000D01*
X8933232Y-11010000D02*
X8993232Y-11010000D01*
D15*
X8824749Y-12214749D02*
X8824749Y-12165251D01*
X8775251Y-12165251D01*
X8775251Y-12214749D01*
X8824749Y-12214749D01*
X9074749Y-12214749D02*
X9074749Y-12165251D01*
X9025251Y-12165251D01*
X9025251Y-12214749D01*
X9074749Y-12214749D01*
X9324749Y-12214749D02*
X9324749Y-12165251D01*
X9275251Y-12165251D01*
X9275251Y-12214749D01*
X9324749Y-12214749D01*
D16*
X10860000Y-12325000D02*
X10905000Y-12280000D01*
X10860000Y-12235000D01*
X10815000Y-12280000D01*
X10860000Y-12325000D01*
X11360000Y-12325000D02*
X11405000Y-12280000D01*
X11360000Y-12235000D01*
X11315000Y-12280000D01*
X11360000Y-12325000D01*
D10*
X7710000Y-8366768D02*
X7810000Y-8466768D01*
X7810000Y-8366768D02*
X7710000Y-8466768D01*
X7810000Y-8416768D02*
G75*
G03*
X7810000Y-8416768I-50000J0D01*
G01*
X7710000Y-8866768D02*
X7810000Y-8966768D01*
X7810000Y-8866768D02*
X7710000Y-8966768D01*
X7810000Y-8916768D02*
G75*
G03*
X7810000Y-8916768I-50000J0D01*
G01*
X7896768Y-7140000D02*
X7996768Y-7240000D01*
X7996768Y-7140000D02*
X7896768Y-7240000D01*
X7996768Y-7190000D02*
G75*
G03*
X7996768Y-7190000I-50000J0D01*
G01*
X7920000Y-11134500D02*
X8020000Y-11234500D01*
X8020000Y-11134500D02*
X7920000Y-11234500D01*
X8020000Y-11184500D02*
G75*
G03*
X8020000Y-11184500I-50000J0D01*
G01*
X7920000Y-11388500D02*
X8020000Y-11488500D01*
X8020000Y-11388500D02*
X7920000Y-11488500D01*
X8020000Y-11438500D02*
G75*
G03*
X8020000Y-11438500I-50000J0D01*
G01*
X7920000Y-11642500D02*
X8020000Y-11742500D01*
X8020000Y-11642500D02*
X7920000Y-11742500D01*
X8020000Y-11692500D02*
G75*
G03*
X8020000Y-11692500I-50000J0D01*
G01*
X8396768Y-7140000D02*
X8496768Y-7240000D01*
X8496768Y-7140000D02*
X8396768Y-7240000D01*
X8496768Y-7190000D02*
G75*
G03*
X8496768Y-7190000I-50000J0D01*
G01*
X8400000Y-8742500D02*
X8500000Y-8842500D01*
X8500000Y-8742500D02*
X8400000Y-8842500D01*
X8500000Y-8792500D02*
G75*
G03*
X8500000Y-8792500I-50000J0D01*
G01*
X8400000Y-8996500D02*
X8500000Y-9096500D01*
X8500000Y-8996500D02*
X8400000Y-9096500D01*
X8500000Y-9046500D02*
G75*
G03*
X8500000Y-9046500I-50000J0D01*
G01*
X8400000Y-9250500D02*
X8500000Y-9350500D01*
X8500000Y-9250500D02*
X8400000Y-9350500D01*
X8500000Y-9300500D02*
G75*
G03*
X8500000Y-9300500I-50000J0D01*
G01*
X8400000Y-9504500D02*
X8500000Y-9604500D01*
X8500000Y-9504500D02*
X8400000Y-9604500D01*
X8500000Y-9554500D02*
G75*
G03*
X8500000Y-9554500I-50000J0D01*
G01*
X8400000Y-9758500D02*
X8500000Y-9858500D01*
X8500000Y-9758500D02*
X8400000Y-9858500D01*
X8500000Y-9808500D02*
G75*
G03*
X8500000Y-9808500I-50000J0D01*
G01*
X8400000Y-10012500D02*
X8500000Y-10112500D01*
X8500000Y-10012500D02*
X8400000Y-10112500D01*
X8500000Y-10062500D02*
G75*
G03*
X8500000Y-10062500I-50000J0D01*
G01*
X8400000Y-10266500D02*
X8500000Y-10366500D01*
X8500000Y-10266500D02*
X8400000Y-10366500D01*
X8500000Y-10316500D02*
G75*
G03*
X8500000Y-10316500I-50000J0D01*
G01*
X8400000Y-10520500D02*
X8500000Y-10620500D01*
X8500000Y-10520500D02*
X8400000Y-10620500D01*
X8500000Y-10570500D02*
G75*
G03*
X8500000Y-10570500I-50000J0D01*
G01*
X8830000Y-9460000D02*
X8930000Y-9560000D01*
X8930000Y-9460000D02*
X8830000Y-9560000D01*
X8930000Y-9510000D02*
G75*
G03*
X8930000Y-9510000I-50000J0D01*
G01*
X8913232Y-10230000D02*
X9013232Y-10330000D01*
X9013232Y-10230000D02*
X8913232Y-10330000D01*
X9013232Y-10280000D02*
G75*
G03*
X9013232Y-10280000I-50000J0D01*
G01*
X9084000Y-9460000D02*
X9184000Y-9560000D01*
X9184000Y-9460000D02*
X9084000Y-9560000D01*
X9184000Y-9510000D02*
G75*
G03*
X9184000Y-9510000I-50000J0D01*
G01*
X9338000Y-9460000D02*
X9438000Y-9560000D01*
X9438000Y-9460000D02*
X9338000Y-9560000D01*
X9438000Y-9510000D02*
G75*
G03*
X9438000Y-9510000I-50000J0D01*
G01*
X9413232Y-10230000D02*
X9513232Y-10330000D01*
X9513232Y-10230000D02*
X9413232Y-10330000D01*
X9513232Y-10280000D02*
G75*
G03*
X9513232Y-10280000I-50000J0D01*
G01*
X9592000Y-9460000D02*
X9692000Y-9560000D01*
X9692000Y-9460000D02*
X9592000Y-9560000D01*
X9692000Y-9510000D02*
G75*
G03*
X9692000Y-9510000I-50000J0D01*
G01*
X9602000Y-8980000D02*
X9702000Y-9080000D01*
X9702000Y-8980000D02*
X9602000Y-9080000D01*
X9702000Y-9030000D02*
G75*
G03*
X9702000Y-9030000I-50000J0D01*
G01*
X9732000Y-8480000D02*
X9832000Y-8580000D01*
X9832000Y-8480000D02*
X9732000Y-8580000D01*
X9832000Y-8530000D02*
G75*
G03*
X9832000Y-8530000I-50000J0D01*
G01*
X9846000Y-9460000D02*
X9946000Y-9560000D01*
X9946000Y-9460000D02*
X9846000Y-9560000D01*
X9946000Y-9510000D02*
G75*
G03*
X9946000Y-9510000I-50000J0D01*
G01*
X9856000Y-8980000D02*
X9956000Y-9080000D01*
X9956000Y-8980000D02*
X9856000Y-9080000D01*
X9956000Y-9030000D02*
G75*
G03*
X9956000Y-9030000I-50000J0D01*
G01*
X9986000Y-8480000D02*
X10086000Y-8580000D01*
X10086000Y-8480000D02*
X9986000Y-8580000D01*
X10086000Y-8530000D02*
G75*
G03*
X10086000Y-8530000I-50000J0D01*
G01*
X10100000Y-9460000D02*
X10200000Y-9560000D01*
X10200000Y-9460000D02*
X10100000Y-9560000D01*
X10200000Y-9510000D02*
G75*
G03*
X10200000Y-9510000I-50000J0D01*
G01*
X10110000Y-8980000D02*
X10210000Y-9080000D01*
X10210000Y-8980000D02*
X10110000Y-9080000D01*
X10210000Y-9030000D02*
G75*
G03*
X10210000Y-9030000I-50000J0D01*
G01*
X10240000Y-8480000D02*
X10340000Y-8580000D01*
X10340000Y-8480000D02*
X10240000Y-8580000D01*
X10340000Y-8530000D02*
G75*
G03*
X10340000Y-8530000I-50000J0D01*
G01*
X10354000Y-9460000D02*
X10454000Y-9560000D01*
X10454000Y-9460000D02*
X10354000Y-9560000D01*
X10454000Y-9510000D02*
G75*
G03*
X10454000Y-9510000I-50000J0D01*
G01*
X10364000Y-8980000D02*
X10464000Y-9080000D01*
X10464000Y-8980000D02*
X10364000Y-9080000D01*
X10464000Y-9030000D02*
G75*
G03*
X10464000Y-9030000I-50000J0D01*
G01*
D17*
X10700000Y-12490000D02*
X10820000Y-12610000D01*
X10820000Y-12490000D02*
X10700000Y-12610000D01*
X10760000Y-12490000D02*
X10760000Y-12610000D01*
X10700000Y-12550000D02*
X10820000Y-12550000D01*
X11400000Y-12490000D02*
X11520000Y-12610000D01*
X11520000Y-12490000D02*
X11400000Y-12610000D01*
X11460000Y-12490000D02*
X11460000Y-12610000D01*
X11400000Y-12550000D02*
X11520000Y-12550000D01*
D11*
X7115777Y-13016484D02*
X7115777Y-12816484D01*
X7115777Y-12816484D02*
X7163396Y-12816484D01*
X7163396Y-12816484D02*
X7191967Y-12826008D01*
X7191967Y-12826008D02*
X7211015Y-12845055D01*
X7211015Y-12845055D02*
X7220539Y-12864103D01*
X7220539Y-12864103D02*
X7230062Y-12902198D01*
X7230062Y-12902198D02*
X7230062Y-12930769D01*
X7230062Y-12930769D02*
X7220539Y-12968865D01*
X7220539Y-12968865D02*
X7211015Y-12987912D01*
X7211015Y-12987912D02*
X7191967Y-13006960D01*
X7191967Y-13006960D02*
X7163396Y-13016484D01*
X7163396Y-13016484D02*
X7115777Y-13016484D01*
X7315777Y-13016484D02*
X7315777Y-12883150D01*
X7315777Y-12921246D02*
X7325301Y-12902198D01*
X7325301Y-12902198D02*
X7334824Y-12892674D01*
X7334824Y-12892674D02*
X7353872Y-12883150D01*
X7353872Y-12883150D02*
X7372920Y-12883150D01*
X7439586Y-13016484D02*
X7439586Y-12883150D01*
X7439586Y-12816484D02*
X7430062Y-12826008D01*
X7430062Y-12826008D02*
X7439586Y-12835531D01*
X7439586Y-12835531D02*
X7449110Y-12826008D01*
X7449110Y-12826008D02*
X7439586Y-12816484D01*
X7439586Y-12816484D02*
X7439586Y-12835531D01*
X7563396Y-13016484D02*
X7544348Y-13006960D01*
X7544348Y-13006960D02*
X7534824Y-12987912D01*
X7534824Y-12987912D02*
X7534824Y-12816484D01*
X7668158Y-13016484D02*
X7649110Y-13006960D01*
X7649110Y-13006960D02*
X7639586Y-12987912D01*
X7639586Y-12987912D02*
X7639586Y-12816484D01*
X7896729Y-13016484D02*
X7896729Y-12816484D01*
X7896729Y-12816484D02*
X7963396Y-12959341D01*
X7963396Y-12959341D02*
X8030062Y-12816484D01*
X8030062Y-12816484D02*
X8030062Y-13016484D01*
X8211015Y-13016484D02*
X8211015Y-12911722D01*
X8211015Y-12911722D02*
X8201491Y-12892674D01*
X8201491Y-12892674D02*
X8182443Y-12883150D01*
X8182443Y-12883150D02*
X8144348Y-12883150D01*
X8144348Y-12883150D02*
X8125301Y-12892674D01*
X8211015Y-13006960D02*
X8191967Y-13016484D01*
X8191967Y-13016484D02*
X8144348Y-13016484D01*
X8144348Y-13016484D02*
X8125301Y-13006960D01*
X8125301Y-13006960D02*
X8115777Y-12987912D01*
X8115777Y-12987912D02*
X8115777Y-12968865D01*
X8115777Y-12968865D02*
X8125301Y-12949817D01*
X8125301Y-12949817D02*
X8144348Y-12940293D01*
X8144348Y-12940293D02*
X8191967Y-12940293D01*
X8191967Y-12940293D02*
X8211015Y-12930769D01*
X8306253Y-12883150D02*
X8306253Y-13083150D01*
X8306253Y-12892674D02*
X8325301Y-12883150D01*
X8325301Y-12883150D02*
X8363396Y-12883150D01*
X8363396Y-12883150D02*
X8382443Y-12892674D01*
X8382443Y-12892674D02*
X8391967Y-12902198D01*
X8391967Y-12902198D02*
X8401491Y-12921246D01*
X8401491Y-12921246D02*
X8401491Y-12978388D01*
X8401491Y-12978388D02*
X8391967Y-12997436D01*
X8391967Y-12997436D02*
X8382443Y-13006960D01*
X8382443Y-13006960D02*
X8363396Y-13016484D01*
X8363396Y-13016484D02*
X8325301Y-13016484D01*
X8325301Y-13016484D02*
X8306253Y-13006960D01*
X8487205Y-12997436D02*
X8496729Y-13006960D01*
X8496729Y-13006960D02*
X8487205Y-13016484D01*
X8487205Y-13016484D02*
X8477682Y-13006960D01*
X8477682Y-13006960D02*
X8487205Y-12997436D01*
X8487205Y-12997436D02*
X8487205Y-13016484D01*
X8487205Y-12892674D02*
X8496729Y-12902198D01*
X8496729Y-12902198D02*
X8487205Y-12911722D01*
X8487205Y-12911722D02*
X8477682Y-12902198D01*
X8477682Y-12902198D02*
X8487205Y-12892674D01*
X8487205Y-12892674D02*
X8487205Y-12911722D01*
D12*
X6815000Y-13325000D02*
X6855000Y-13365000D01*
X6855000Y-13325000D02*
X6815000Y-13365000D01*
D11*
X7153872Y-13236484D02*
X7172920Y-13236484D01*
X7172920Y-13236484D02*
X7191967Y-13246008D01*
X7191967Y-13246008D02*
X7201491Y-13255531D01*
X7201491Y-13255531D02*
X7211015Y-13274579D01*
X7211015Y-13274579D02*
X7220539Y-13312674D01*
X7220539Y-13312674D02*
X7220539Y-13360293D01*
X7220539Y-13360293D02*
X7211015Y-13398388D01*
X7211015Y-13398388D02*
X7201491Y-13417436D01*
X7201491Y-13417436D02*
X7191967Y-13426960D01*
X7191967Y-13426960D02*
X7172920Y-13436484D01*
X7172920Y-13436484D02*
X7153872Y-13436484D01*
X7153872Y-13436484D02*
X7134824Y-13426960D01*
X7134824Y-13426960D02*
X7125301Y-13417436D01*
X7125301Y-13417436D02*
X7115777Y-13398388D01*
X7115777Y-13398388D02*
X7106253Y-13360293D01*
X7106253Y-13360293D02*
X7106253Y-13312674D01*
X7106253Y-13312674D02*
X7115777Y-13274579D01*
X7115777Y-13274579D02*
X7125301Y-13255531D01*
X7125301Y-13255531D02*
X7134824Y-13246008D01*
X7134824Y-13246008D02*
X7153872Y-13236484D01*
X7306253Y-13417436D02*
X7315777Y-13426960D01*
X7315777Y-13426960D02*
X7306253Y-13436484D01*
X7306253Y-13436484D02*
X7296729Y-13426960D01*
X7296729Y-13426960D02*
X7306253Y-13417436D01*
X7306253Y-13417436D02*
X7306253Y-13436484D01*
X7487205Y-13303150D02*
X7487205Y-13436484D01*
X7439586Y-13226960D02*
X7391967Y-13369817D01*
X7391967Y-13369817D02*
X7515777Y-13369817D01*
X7630062Y-13236484D02*
X7649110Y-13236484D01*
X7649110Y-13236484D02*
X7668158Y-13246008D01*
X7668158Y-13246008D02*
X7677682Y-13255531D01*
X7677682Y-13255531D02*
X7687205Y-13274579D01*
X7687205Y-13274579D02*
X7696729Y-13312674D01*
X7696729Y-13312674D02*
X7696729Y-13360293D01*
X7696729Y-13360293D02*
X7687205Y-13398388D01*
X7687205Y-13398388D02*
X7677682Y-13417436D01*
X7677682Y-13417436D02*
X7668158Y-13426960D01*
X7668158Y-13426960D02*
X7649110Y-13436484D01*
X7649110Y-13436484D02*
X7630062Y-13436484D01*
X7630062Y-13436484D02*
X7611015Y-13426960D01*
X7611015Y-13426960D02*
X7601491Y-13417436D01*
X7601491Y-13417436D02*
X7591967Y-13398388D01*
X7591967Y-13398388D02*
X7582443Y-13360293D01*
X7582443Y-13360293D02*
X7582443Y-13312674D01*
X7582443Y-13312674D02*
X7591967Y-13274579D01*
X7591967Y-13274579D02*
X7601491Y-13255531D01*
X7601491Y-13255531D02*
X7611015Y-13246008D01*
X7611015Y-13246008D02*
X7630062Y-13236484D01*
X7820539Y-13236484D02*
X7839586Y-13236484D01*
X7839586Y-13236484D02*
X7858634Y-13246008D01*
X7858634Y-13246008D02*
X7868158Y-13255531D01*
X7868158Y-13255531D02*
X7877682Y-13274579D01*
X7877682Y-13274579D02*
X7887205Y-13312674D01*
X7887205Y-13312674D02*
X7887205Y-13360293D01*
X7887205Y-13360293D02*
X7877682Y-13398388D01*
X7877682Y-13398388D02*
X7868158Y-13417436D01*
X7868158Y-13417436D02*
X7858634Y-13426960D01*
X7858634Y-13426960D02*
X7839586Y-13436484D01*
X7839586Y-13436484D02*
X7820539Y-13436484D01*
X7820539Y-13436484D02*
X7801491Y-13426960D01*
X7801491Y-13426960D02*
X7791967Y-13417436D01*
X7791967Y-13417436D02*
X7782443Y-13398388D01*
X7782443Y-13398388D02*
X7772920Y-13360293D01*
X7772920Y-13360293D02*
X7772920Y-13312674D01*
X7772920Y-13312674D02*
X7782443Y-13274579D01*
X7782443Y-13274579D02*
X7791967Y-13255531D01*
X7791967Y-13255531D02*
X7801491Y-13246008D01*
X7801491Y-13246008D02*
X7820539Y-13236484D01*
X7972920Y-13436484D02*
X7972920Y-13303150D01*
X7972920Y-13322198D02*
X7982443Y-13312674D01*
X7982443Y-13312674D02*
X8001491Y-13303150D01*
X8001491Y-13303150D02*
X8030063Y-13303150D01*
X8030063Y-13303150D02*
X8049110Y-13312674D01*
X8049110Y-13312674D02*
X8058634Y-13331722D01*
X8058634Y-13331722D02*
X8058634Y-13436484D01*
X8058634Y-13331722D02*
X8068158Y-13312674D01*
X8068158Y-13312674D02*
X8087205Y-13303150D01*
X8087205Y-13303150D02*
X8115777Y-13303150D01*
X8115777Y-13303150D02*
X8134824Y-13312674D01*
X8134824Y-13312674D02*
X8144348Y-13331722D01*
X8144348Y-13331722D02*
X8144348Y-13436484D01*
X8239586Y-13436484D02*
X8239586Y-13303150D01*
X8239586Y-13322198D02*
X8249110Y-13312674D01*
X8249110Y-13312674D02*
X8268158Y-13303150D01*
X8268158Y-13303150D02*
X8296729Y-13303150D01*
X8296729Y-13303150D02*
X8315777Y-13312674D01*
X8315777Y-13312674D02*
X8325301Y-13331722D01*
X8325301Y-13331722D02*
X8325301Y-13436484D01*
X8325301Y-13331722D02*
X8334824Y-13312674D01*
X8334824Y-13312674D02*
X8353872Y-13303150D01*
X8353872Y-13303150D02*
X8382443Y-13303150D01*
X8382443Y-13303150D02*
X8401491Y-13312674D01*
X8401491Y-13312674D02*
X8411015Y-13331722D01*
X8411015Y-13331722D02*
X8411015Y-13436484D01*
X8801491Y-13226960D02*
X8630063Y-13484103D01*
X9058634Y-13236484D02*
X9077682Y-13236484D01*
X9077682Y-13236484D02*
X9096729Y-13246008D01*
X9096729Y-13246008D02*
X9106253Y-13255531D01*
X9106253Y-13255531D02*
X9115777Y-13274579D01*
X9115777Y-13274579D02*
X9125301Y-13312674D01*
X9125301Y-13312674D02*
X9125301Y-13360293D01*
X9125301Y-13360293D02*
X9115777Y-13398388D01*
X9115777Y-13398388D02*
X9106253Y-13417436D01*
X9106253Y-13417436D02*
X9096729Y-13426960D01*
X9096729Y-13426960D02*
X9077682Y-13436484D01*
X9077682Y-13436484D02*
X9058634Y-13436484D01*
X9058634Y-13436484D02*
X9039587Y-13426960D01*
X9039587Y-13426960D02*
X9030063Y-13417436D01*
X9030063Y-13417436D02*
X9020539Y-13398388D01*
X9020539Y-13398388D02*
X9011015Y-13360293D01*
X9011015Y-13360293D02*
X9011015Y-13312674D01*
X9011015Y-13312674D02*
X9020539Y-13274579D01*
X9020539Y-13274579D02*
X9030063Y-13255531D01*
X9030063Y-13255531D02*
X9039587Y-13246008D01*
X9039587Y-13246008D02*
X9058634Y-13236484D01*
X9211015Y-13417436D02*
X9220539Y-13426960D01*
X9220539Y-13426960D02*
X9211015Y-13436484D01*
X9211015Y-13436484D02*
X9201491Y-13426960D01*
X9201491Y-13426960D02*
X9211015Y-13417436D01*
X9211015Y-13417436D02*
X9211015Y-13436484D01*
X9344348Y-13236484D02*
X9363396Y-13236484D01*
X9363396Y-13236484D02*
X9382444Y-13246008D01*
X9382444Y-13246008D02*
X9391968Y-13255531D01*
X9391968Y-13255531D02*
X9401491Y-13274579D01*
X9401491Y-13274579D02*
X9411015Y-13312674D01*
X9411015Y-13312674D02*
X9411015Y-13360293D01*
X9411015Y-13360293D02*
X9401491Y-13398388D01*
X9401491Y-13398388D02*
X9391968Y-13417436D01*
X9391968Y-13417436D02*
X9382444Y-13426960D01*
X9382444Y-13426960D02*
X9363396Y-13436484D01*
X9363396Y-13436484D02*
X9344348Y-13436484D01*
X9344348Y-13436484D02*
X9325301Y-13426960D01*
X9325301Y-13426960D02*
X9315777Y-13417436D01*
X9315777Y-13417436D02*
X9306253Y-13398388D01*
X9306253Y-13398388D02*
X9296729Y-13360293D01*
X9296729Y-13360293D02*
X9296729Y-13312674D01*
X9296729Y-13312674D02*
X9306253Y-13274579D01*
X9306253Y-13274579D02*
X9315777Y-13255531D01*
X9315777Y-13255531D02*
X9325301Y-13246008D01*
X9325301Y-13246008D02*
X9344348Y-13236484D01*
X9601491Y-13436484D02*
X9487206Y-13436484D01*
X9544348Y-13436484D02*
X9544348Y-13236484D01*
X9544348Y-13236484D02*
X9525301Y-13265055D01*
X9525301Y-13265055D02*
X9506253Y-13284103D01*
X9506253Y-13284103D02*
X9487206Y-13293627D01*
X9782444Y-13236484D02*
X9687206Y-13236484D01*
X9687206Y-13236484D02*
X9677682Y-13331722D01*
X9677682Y-13331722D02*
X9687206Y-13322198D01*
X9687206Y-13322198D02*
X9706253Y-13312674D01*
X9706253Y-13312674D02*
X9753872Y-13312674D01*
X9753872Y-13312674D02*
X9772920Y-13322198D01*
X9772920Y-13322198D02*
X9782444Y-13331722D01*
X9782444Y-13331722D02*
X9791968Y-13350769D01*
X9791968Y-13350769D02*
X9791968Y-13398388D01*
X9791968Y-13398388D02*
X9782444Y-13417436D01*
X9782444Y-13417436D02*
X9772920Y-13426960D01*
X9772920Y-13426960D02*
X9753872Y-13436484D01*
X9753872Y-13436484D02*
X9706253Y-13436484D01*
X9706253Y-13436484D02*
X9687206Y-13426960D01*
X9687206Y-13426960D02*
X9677682Y-13417436D01*
X9858634Y-13236484D02*
X9991968Y-13236484D01*
X9991968Y-13236484D02*
X9906253Y-13436484D01*
X10058634Y-13236484D02*
X10058634Y-13274579D01*
X10134825Y-13236484D02*
X10134825Y-13274579D01*
X10430063Y-13512674D02*
X10420539Y-13503150D01*
X10420539Y-13503150D02*
X10401491Y-13474579D01*
X10401491Y-13474579D02*
X10391968Y-13455531D01*
X10391968Y-13455531D02*
X10382444Y-13426960D01*
X10382444Y-13426960D02*
X10372920Y-13379341D01*
X10372920Y-13379341D02*
X10372920Y-13341246D01*
X10372920Y-13341246D02*
X10382444Y-13293627D01*
X10382444Y-13293627D02*
X10391968Y-13265055D01*
X10391968Y-13265055D02*
X10401491Y-13246008D01*
X10401491Y-13246008D02*
X10420539Y-13217436D01*
X10420539Y-13217436D02*
X10430063Y-13207912D01*
X10611015Y-13436484D02*
X10496730Y-13436484D01*
X10553872Y-13436484D02*
X10553872Y-13236484D01*
X10553872Y-13236484D02*
X10534825Y-13265055D01*
X10534825Y-13265055D02*
X10515777Y-13284103D01*
X10515777Y-13284103D02*
X10496730Y-13293627D01*
X10782444Y-13303150D02*
X10782444Y-13436484D01*
X10734825Y-13226960D02*
X10687206Y-13369817D01*
X10687206Y-13369817D02*
X10811015Y-13369817D01*
X10925301Y-13236484D02*
X10944349Y-13236484D01*
X10944349Y-13236484D02*
X10963396Y-13246008D01*
X10963396Y-13246008D02*
X10972920Y-13255531D01*
X10972920Y-13255531D02*
X10982444Y-13274579D01*
X10982444Y-13274579D02*
X10991968Y-13312674D01*
X10991968Y-13312674D02*
X10991968Y-13360293D01*
X10991968Y-13360293D02*
X10982444Y-13398388D01*
X10982444Y-13398388D02*
X10972920Y-13417436D01*
X10972920Y-13417436D02*
X10963396Y-13426960D01*
X10963396Y-13426960D02*
X10944349Y-13436484D01*
X10944349Y-13436484D02*
X10925301Y-13436484D01*
X10925301Y-13436484D02*
X10906253Y-13426960D01*
X10906253Y-13426960D02*
X10896730Y-13417436D01*
X10896730Y-13417436D02*
X10887206Y-13398388D01*
X10887206Y-13398388D02*
X10877682Y-13360293D01*
X10877682Y-13360293D02*
X10877682Y-13312674D01*
X10877682Y-13312674D02*
X10887206Y-13274579D01*
X10887206Y-13274579D02*
X10896730Y-13255531D01*
X10896730Y-13255531D02*
X10906253Y-13246008D01*
X10906253Y-13246008D02*
X10925301Y-13236484D01*
X11230063Y-13436484D02*
X11230063Y-13236484D01*
X11315777Y-13436484D02*
X11315777Y-13331722D01*
X11315777Y-13331722D02*
X11306253Y-13312674D01*
X11306253Y-13312674D02*
X11287206Y-13303150D01*
X11287206Y-13303150D02*
X11258634Y-13303150D01*
X11258634Y-13303150D02*
X11239587Y-13312674D01*
X11239587Y-13312674D02*
X11230063Y-13322198D01*
X11439587Y-13436484D02*
X11420539Y-13426960D01*
X11420539Y-13426960D02*
X11411015Y-13417436D01*
X11411015Y-13417436D02*
X11401491Y-13398388D01*
X11401491Y-13398388D02*
X11401491Y-13341246D01*
X11401491Y-13341246D02*
X11411015Y-13322198D01*
X11411015Y-13322198D02*
X11420539Y-13312674D01*
X11420539Y-13312674D02*
X11439587Y-13303150D01*
X11439587Y-13303150D02*
X11468158Y-13303150D01*
X11468158Y-13303150D02*
X11487206Y-13312674D01*
X11487206Y-13312674D02*
X11496730Y-13322198D01*
X11496730Y-13322198D02*
X11506253Y-13341246D01*
X11506253Y-13341246D02*
X11506253Y-13398388D01*
X11506253Y-13398388D02*
X11496730Y-13417436D01*
X11496730Y-13417436D02*
X11487206Y-13426960D01*
X11487206Y-13426960D02*
X11468158Y-13436484D01*
X11468158Y-13436484D02*
X11439587Y-13436484D01*
X11620539Y-13436484D02*
X11601491Y-13426960D01*
X11601491Y-13426960D02*
X11591968Y-13407912D01*
X11591968Y-13407912D02*
X11591968Y-13236484D01*
X11772920Y-13426960D02*
X11753872Y-13436484D01*
X11753872Y-13436484D02*
X11715777Y-13436484D01*
X11715777Y-13436484D02*
X11696730Y-13426960D01*
X11696730Y-13426960D02*
X11687206Y-13407912D01*
X11687206Y-13407912D02*
X11687206Y-13331722D01*
X11687206Y-13331722D02*
X11696730Y-13312674D01*
X11696730Y-13312674D02*
X11715777Y-13303150D01*
X11715777Y-13303150D02*
X11753872Y-13303150D01*
X11753872Y-13303150D02*
X11772920Y-13312674D01*
X11772920Y-13312674D02*
X11782444Y-13331722D01*
X11782444Y-13331722D02*
X11782444Y-13350769D01*
X11782444Y-13350769D02*
X11687206Y-13369817D01*
X11858634Y-13426960D02*
X11877682Y-13436484D01*
X11877682Y-13436484D02*
X11915777Y-13436484D01*
X11915777Y-13436484D02*
X11934825Y-13426960D01*
X11934825Y-13426960D02*
X11944349Y-13407912D01*
X11944349Y-13407912D02*
X11944349Y-13398388D01*
X11944349Y-13398388D02*
X11934825Y-13379341D01*
X11934825Y-13379341D02*
X11915777Y-13369817D01*
X11915777Y-13369817D02*
X11887206Y-13369817D01*
X11887206Y-13369817D02*
X11868158Y-13360293D01*
X11868158Y-13360293D02*
X11858634Y-13341246D01*
X11858634Y-13341246D02*
X11858634Y-13331722D01*
X11858634Y-13331722D02*
X11868158Y-13312674D01*
X11868158Y-13312674D02*
X11887206Y-13303150D01*
X11887206Y-13303150D02*
X11915777Y-13303150D01*
X11915777Y-13303150D02*
X11934825Y-13312674D01*
X12011015Y-13512674D02*
X12020539Y-13503150D01*
X12020539Y-13503150D02*
X12039587Y-13474579D01*
X12039587Y-13474579D02*
X12049111Y-13455531D01*
X12049111Y-13455531D02*
X12058634Y-13426960D01*
X12058634Y-13426960D02*
X12068158Y-13379341D01*
X12068158Y-13379341D02*
X12068158Y-13341246D01*
X12068158Y-13341246D02*
X12058634Y-13293627D01*
X12058634Y-13293627D02*
X12049111Y-13265055D01*
X12049111Y-13265055D02*
X12039587Y-13246008D01*
X12039587Y-13246008D02*
X12020539Y-13217436D01*
X12020539Y-13217436D02*
X12011015Y-13207912D01*
D13*
X6855000Y-13609000D02*
G75*
G03*
X6855000Y-13609000I-25000J0D01*
G01*
D11*
X7153872Y-13500484D02*
X7172920Y-13500484D01*
X7172920Y-13500484D02*
X7191967Y-13510008D01*
X7191967Y-13510008D02*
X7201491Y-13519531D01*
X7201491Y-13519531D02*
X7211015Y-13538579D01*
X7211015Y-13538579D02*
X7220539Y-13576674D01*
X7220539Y-13576674D02*
X7220539Y-13624293D01*
X7220539Y-13624293D02*
X7211015Y-13662388D01*
X7211015Y-13662388D02*
X7201491Y-13681436D01*
X7201491Y-13681436D02*
X7191967Y-13690960D01*
X7191967Y-13690960D02*
X7172920Y-13700484D01*
X7172920Y-13700484D02*
X7153872Y-13700484D01*
X7153872Y-13700484D02*
X7134824Y-13690960D01*
X7134824Y-13690960D02*
X7125301Y-13681436D01*
X7125301Y-13681436D02*
X7115777Y-13662388D01*
X7115777Y-13662388D02*
X7106253Y-13624293D01*
X7106253Y-13624293D02*
X7106253Y-13576674D01*
X7106253Y-13576674D02*
X7115777Y-13538579D01*
X7115777Y-13538579D02*
X7125301Y-13519531D01*
X7125301Y-13519531D02*
X7134824Y-13510008D01*
X7134824Y-13510008D02*
X7153872Y-13500484D01*
X7306253Y-13681436D02*
X7315777Y-13690960D01*
X7315777Y-13690960D02*
X7306253Y-13700484D01*
X7306253Y-13700484D02*
X7296729Y-13690960D01*
X7296729Y-13690960D02*
X7306253Y-13681436D01*
X7306253Y-13681436D02*
X7306253Y-13700484D01*
X7496729Y-13500484D02*
X7401491Y-13500484D01*
X7401491Y-13500484D02*
X7391967Y-13595722D01*
X7391967Y-13595722D02*
X7401491Y-13586198D01*
X7401491Y-13586198D02*
X7420539Y-13576674D01*
X7420539Y-13576674D02*
X7468158Y-13576674D01*
X7468158Y-13576674D02*
X7487205Y-13586198D01*
X7487205Y-13586198D02*
X7496729Y-13595722D01*
X7496729Y-13595722D02*
X7506253Y-13614769D01*
X7506253Y-13614769D02*
X7506253Y-13662388D01*
X7506253Y-13662388D02*
X7496729Y-13681436D01*
X7496729Y-13681436D02*
X7487205Y-13690960D01*
X7487205Y-13690960D02*
X7468158Y-13700484D01*
X7468158Y-13700484D02*
X7420539Y-13700484D01*
X7420539Y-13700484D02*
X7401491Y-13690960D01*
X7401491Y-13690960D02*
X7391967Y-13681436D01*
X7630062Y-13500484D02*
X7649110Y-13500484D01*
X7649110Y-13500484D02*
X7668158Y-13510008D01*
X7668158Y-13510008D02*
X7677682Y-13519531D01*
X7677682Y-13519531D02*
X7687205Y-13538579D01*
X7687205Y-13538579D02*
X7696729Y-13576674D01*
X7696729Y-13576674D02*
X7696729Y-13624293D01*
X7696729Y-13624293D02*
X7687205Y-13662388D01*
X7687205Y-13662388D02*
X7677682Y-13681436D01*
X7677682Y-13681436D02*
X7668158Y-13690960D01*
X7668158Y-13690960D02*
X7649110Y-13700484D01*
X7649110Y-13700484D02*
X7630062Y-13700484D01*
X7630062Y-13700484D02*
X7611015Y-13690960D01*
X7611015Y-13690960D02*
X7601491Y-13681436D01*
X7601491Y-13681436D02*
X7591967Y-13662388D01*
X7591967Y-13662388D02*
X7582443Y-13624293D01*
X7582443Y-13624293D02*
X7582443Y-13576674D01*
X7582443Y-13576674D02*
X7591967Y-13538579D01*
X7591967Y-13538579D02*
X7601491Y-13519531D01*
X7601491Y-13519531D02*
X7611015Y-13510008D01*
X7611015Y-13510008D02*
X7630062Y-13500484D01*
X7820539Y-13500484D02*
X7839586Y-13500484D01*
X7839586Y-13500484D02*
X7858634Y-13510008D01*
X7858634Y-13510008D02*
X7868158Y-13519531D01*
X7868158Y-13519531D02*
X7877682Y-13538579D01*
X7877682Y-13538579D02*
X7887205Y-13576674D01*
X7887205Y-13576674D02*
X7887205Y-13624293D01*
X7887205Y-13624293D02*
X7877682Y-13662388D01*
X7877682Y-13662388D02*
X7868158Y-13681436D01*
X7868158Y-13681436D02*
X7858634Y-13690960D01*
X7858634Y-13690960D02*
X7839586Y-13700484D01*
X7839586Y-13700484D02*
X7820539Y-13700484D01*
X7820539Y-13700484D02*
X7801491Y-13690960D01*
X7801491Y-13690960D02*
X7791967Y-13681436D01*
X7791967Y-13681436D02*
X7782443Y-13662388D01*
X7782443Y-13662388D02*
X7772920Y-13624293D01*
X7772920Y-13624293D02*
X7772920Y-13576674D01*
X7772920Y-13576674D02*
X7782443Y-13538579D01*
X7782443Y-13538579D02*
X7791967Y-13519531D01*
X7791967Y-13519531D02*
X7801491Y-13510008D01*
X7801491Y-13510008D02*
X7820539Y-13500484D01*
X7972920Y-13700484D02*
X7972920Y-13567150D01*
X7972920Y-13586198D02*
X7982443Y-13576674D01*
X7982443Y-13576674D02*
X8001491Y-13567150D01*
X8001491Y-13567150D02*
X8030063Y-13567150D01*
X8030063Y-13567150D02*
X8049110Y-13576674D01*
X8049110Y-13576674D02*
X8058634Y-13595722D01*
X8058634Y-13595722D02*
X8058634Y-13700484D01*
X8058634Y-13595722D02*
X8068158Y-13576674D01*
X8068158Y-13576674D02*
X8087205Y-13567150D01*
X8087205Y-13567150D02*
X8115777Y-13567150D01*
X8115777Y-13567150D02*
X8134824Y-13576674D01*
X8134824Y-13576674D02*
X8144348Y-13595722D01*
X8144348Y-13595722D02*
X8144348Y-13700484D01*
X8239586Y-13700484D02*
X8239586Y-13567150D01*
X8239586Y-13586198D02*
X8249110Y-13576674D01*
X8249110Y-13576674D02*
X8268158Y-13567150D01*
X8268158Y-13567150D02*
X8296729Y-13567150D01*
X8296729Y-13567150D02*
X8315777Y-13576674D01*
X8315777Y-13576674D02*
X8325301Y-13595722D01*
X8325301Y-13595722D02*
X8325301Y-13700484D01*
X8325301Y-13595722D02*
X8334824Y-13576674D01*
X8334824Y-13576674D02*
X8353872Y-13567150D01*
X8353872Y-13567150D02*
X8382443Y-13567150D01*
X8382443Y-13567150D02*
X8401491Y-13576674D01*
X8401491Y-13576674D02*
X8411015Y-13595722D01*
X8411015Y-13595722D02*
X8411015Y-13700484D01*
X8801491Y-13490960D02*
X8630063Y-13748103D01*
X9058634Y-13500484D02*
X9077682Y-13500484D01*
X9077682Y-13500484D02*
X9096729Y-13510008D01*
X9096729Y-13510008D02*
X9106253Y-13519531D01*
X9106253Y-13519531D02*
X9115777Y-13538579D01*
X9115777Y-13538579D02*
X9125301Y-13576674D01*
X9125301Y-13576674D02*
X9125301Y-13624293D01*
X9125301Y-13624293D02*
X9115777Y-13662388D01*
X9115777Y-13662388D02*
X9106253Y-13681436D01*
X9106253Y-13681436D02*
X9096729Y-13690960D01*
X9096729Y-13690960D02*
X9077682Y-13700484D01*
X9077682Y-13700484D02*
X9058634Y-13700484D01*
X9058634Y-13700484D02*
X9039587Y-13690960D01*
X9039587Y-13690960D02*
X9030063Y-13681436D01*
X9030063Y-13681436D02*
X9020539Y-13662388D01*
X9020539Y-13662388D02*
X9011015Y-13624293D01*
X9011015Y-13624293D02*
X9011015Y-13576674D01*
X9011015Y-13576674D02*
X9020539Y-13538579D01*
X9020539Y-13538579D02*
X9030063Y-13519531D01*
X9030063Y-13519531D02*
X9039587Y-13510008D01*
X9039587Y-13510008D02*
X9058634Y-13500484D01*
X9211015Y-13681436D02*
X9220539Y-13690960D01*
X9220539Y-13690960D02*
X9211015Y-13700484D01*
X9211015Y-13700484D02*
X9201491Y-13690960D01*
X9201491Y-13690960D02*
X9211015Y-13681436D01*
X9211015Y-13681436D02*
X9211015Y-13700484D01*
X9344348Y-13500484D02*
X9363396Y-13500484D01*
X9363396Y-13500484D02*
X9382444Y-13510008D01*
X9382444Y-13510008D02*
X9391968Y-13519531D01*
X9391968Y-13519531D02*
X9401491Y-13538579D01*
X9401491Y-13538579D02*
X9411015Y-13576674D01*
X9411015Y-13576674D02*
X9411015Y-13624293D01*
X9411015Y-13624293D02*
X9401491Y-13662388D01*
X9401491Y-13662388D02*
X9391968Y-13681436D01*
X9391968Y-13681436D02*
X9382444Y-13690960D01*
X9382444Y-13690960D02*
X9363396Y-13700484D01*
X9363396Y-13700484D02*
X9344348Y-13700484D01*
X9344348Y-13700484D02*
X9325301Y-13690960D01*
X9325301Y-13690960D02*
X9315777Y-13681436D01*
X9315777Y-13681436D02*
X9306253Y-13662388D01*
X9306253Y-13662388D02*
X9296729Y-13624293D01*
X9296729Y-13624293D02*
X9296729Y-13576674D01*
X9296729Y-13576674D02*
X9306253Y-13538579D01*
X9306253Y-13538579D02*
X9315777Y-13519531D01*
X9315777Y-13519531D02*
X9325301Y-13510008D01*
X9325301Y-13510008D02*
X9344348Y-13500484D01*
X9601491Y-13700484D02*
X9487206Y-13700484D01*
X9544348Y-13700484D02*
X9544348Y-13500484D01*
X9544348Y-13500484D02*
X9525301Y-13529055D01*
X9525301Y-13529055D02*
X9506253Y-13548103D01*
X9506253Y-13548103D02*
X9487206Y-13557627D01*
X9696729Y-13700484D02*
X9734825Y-13700484D01*
X9734825Y-13700484D02*
X9753872Y-13690960D01*
X9753872Y-13690960D02*
X9763396Y-13681436D01*
X9763396Y-13681436D02*
X9782444Y-13652865D01*
X9782444Y-13652865D02*
X9791968Y-13614769D01*
X9791968Y-13614769D02*
X9791968Y-13538579D01*
X9791968Y-13538579D02*
X9782444Y-13519531D01*
X9782444Y-13519531D02*
X9772920Y-13510008D01*
X9772920Y-13510008D02*
X9753872Y-13500484D01*
X9753872Y-13500484D02*
X9715777Y-13500484D01*
X9715777Y-13500484D02*
X9696729Y-13510008D01*
X9696729Y-13510008D02*
X9687206Y-13519531D01*
X9687206Y-13519531D02*
X9677682Y-13538579D01*
X9677682Y-13538579D02*
X9677682Y-13586198D01*
X9677682Y-13586198D02*
X9687206Y-13605246D01*
X9687206Y-13605246D02*
X9696729Y-13614769D01*
X9696729Y-13614769D02*
X9715777Y-13624293D01*
X9715777Y-13624293D02*
X9753872Y-13624293D01*
X9753872Y-13624293D02*
X9772920Y-13614769D01*
X9772920Y-13614769D02*
X9782444Y-13605246D01*
X9782444Y-13605246D02*
X9791968Y-13586198D01*
X9858634Y-13500484D02*
X9991968Y-13500484D01*
X9991968Y-13500484D02*
X9906253Y-13700484D01*
X10058634Y-13500484D02*
X10058634Y-13538579D01*
X10134825Y-13500484D02*
X10134825Y-13538579D01*
X10430063Y-13776674D02*
X10420539Y-13767150D01*
X10420539Y-13767150D02*
X10401491Y-13738579D01*
X10401491Y-13738579D02*
X10391968Y-13719531D01*
X10391968Y-13719531D02*
X10382444Y-13690960D01*
X10382444Y-13690960D02*
X10372920Y-13643341D01*
X10372920Y-13643341D02*
X10372920Y-13605246D01*
X10372920Y-13605246D02*
X10382444Y-13557627D01*
X10382444Y-13557627D02*
X10391968Y-13529055D01*
X10391968Y-13529055D02*
X10401491Y-13510008D01*
X10401491Y-13510008D02*
X10420539Y-13481436D01*
X10420539Y-13481436D02*
X10430063Y-13471912D01*
X10496730Y-13519531D02*
X10506253Y-13510008D01*
X10506253Y-13510008D02*
X10525301Y-13500484D01*
X10525301Y-13500484D02*
X10572920Y-13500484D01*
X10572920Y-13500484D02*
X10591968Y-13510008D01*
X10591968Y-13510008D02*
X10601491Y-13519531D01*
X10601491Y-13519531D02*
X10611015Y-13538579D01*
X10611015Y-13538579D02*
X10611015Y-13557627D01*
X10611015Y-13557627D02*
X10601491Y-13586198D01*
X10601491Y-13586198D02*
X10487206Y-13700484D01*
X10487206Y-13700484D02*
X10611015Y-13700484D01*
X10849111Y-13700484D02*
X10849111Y-13500484D01*
X10934825Y-13700484D02*
X10934825Y-13595722D01*
X10934825Y-13595722D02*
X10925301Y-13576674D01*
X10925301Y-13576674D02*
X10906253Y-13567150D01*
X10906253Y-13567150D02*
X10877682Y-13567150D01*
X10877682Y-13567150D02*
X10858634Y-13576674D01*
X10858634Y-13576674D02*
X10849111Y-13586198D01*
X11058634Y-13700484D02*
X11039587Y-13690960D01*
X11039587Y-13690960D02*
X11030063Y-13681436D01*
X11030063Y-13681436D02*
X11020539Y-13662388D01*
X11020539Y-13662388D02*
X11020539Y-13605246D01*
X11020539Y-13605246D02*
X11030063Y-13586198D01*
X11030063Y-13586198D02*
X11039587Y-13576674D01*
X11039587Y-13576674D02*
X11058634Y-13567150D01*
X11058634Y-13567150D02*
X11087206Y-13567150D01*
X11087206Y-13567150D02*
X11106253Y-13576674D01*
X11106253Y-13576674D02*
X11115777Y-13586198D01*
X11115777Y-13586198D02*
X11125301Y-13605246D01*
X11125301Y-13605246D02*
X11125301Y-13662388D01*
X11125301Y-13662388D02*
X11115777Y-13681436D01*
X11115777Y-13681436D02*
X11106253Y-13690960D01*
X11106253Y-13690960D02*
X11087206Y-13700484D01*
X11087206Y-13700484D02*
X11058634Y-13700484D01*
X11239587Y-13700484D02*
X11220539Y-13690960D01*
X11220539Y-13690960D02*
X11211015Y-13671912D01*
X11211015Y-13671912D02*
X11211015Y-13500484D01*
X11391968Y-13690960D02*
X11372920Y-13700484D01*
X11372920Y-13700484D02*
X11334825Y-13700484D01*
X11334825Y-13700484D02*
X11315777Y-13690960D01*
X11315777Y-13690960D02*
X11306253Y-13671912D01*
X11306253Y-13671912D02*
X11306253Y-13595722D01*
X11306253Y-13595722D02*
X11315777Y-13576674D01*
X11315777Y-13576674D02*
X11334825Y-13567150D01*
X11334825Y-13567150D02*
X11372920Y-13567150D01*
X11372920Y-13567150D02*
X11391968Y-13576674D01*
X11391968Y-13576674D02*
X11401491Y-13595722D01*
X11401491Y-13595722D02*
X11401491Y-13614769D01*
X11401491Y-13614769D02*
X11306253Y-13633817D01*
X11477682Y-13690960D02*
X11496730Y-13700484D01*
X11496730Y-13700484D02*
X11534825Y-13700484D01*
X11534825Y-13700484D02*
X11553872Y-13690960D01*
X11553872Y-13690960D02*
X11563396Y-13671912D01*
X11563396Y-13671912D02*
X11563396Y-13662388D01*
X11563396Y-13662388D02*
X11553872Y-13643341D01*
X11553872Y-13643341D02*
X11534825Y-13633817D01*
X11534825Y-13633817D02*
X11506253Y-13633817D01*
X11506253Y-13633817D02*
X11487206Y-13624293D01*
X11487206Y-13624293D02*
X11477682Y-13605246D01*
X11477682Y-13605246D02*
X11477682Y-13595722D01*
X11477682Y-13595722D02*
X11487206Y-13576674D01*
X11487206Y-13576674D02*
X11506253Y-13567150D01*
X11506253Y-13567150D02*
X11534825Y-13567150D01*
X11534825Y-13567150D02*
X11553872Y-13576674D01*
X11630063Y-13776674D02*
X11639587Y-13767150D01*
X11639587Y-13767150D02*
X11658634Y-13738579D01*
X11658634Y-13738579D02*
X11668158Y-13719531D01*
X11668158Y-13719531D02*
X11677682Y-13690960D01*
X11677682Y-13690960D02*
X11687206Y-13643341D01*
X11687206Y-13643341D02*
X11687206Y-13605246D01*
X11687206Y-13605246D02*
X11677682Y-13557627D01*
X11677682Y-13557627D02*
X11668158Y-13529055D01*
X11668158Y-13529055D02*
X11658634Y-13510008D01*
X11658634Y-13510008D02*
X11639587Y-13481436D01*
X11639587Y-13481436D02*
X11630063Y-13471912D01*
D14*
X6825000Y-13843000D02*
X6825000Y-13903000D01*
X6795000Y-13873000D02*
X6855000Y-13873000D01*
D11*
X7153872Y-13764484D02*
X7172920Y-13764484D01*
X7172920Y-13764484D02*
X7191967Y-13774008D01*
X7191967Y-13774008D02*
X7201491Y-13783531D01*
X7201491Y-13783531D02*
X7211015Y-13802579D01*
X7211015Y-13802579D02*
X7220539Y-13840674D01*
X7220539Y-13840674D02*
X7220539Y-13888293D01*
X7220539Y-13888293D02*
X7211015Y-13926388D01*
X7211015Y-13926388D02*
X7201491Y-13945436D01*
X7201491Y-13945436D02*
X7191967Y-13954960D01*
X7191967Y-13954960D02*
X7172920Y-13964484D01*
X7172920Y-13964484D02*
X7153872Y-13964484D01*
X7153872Y-13964484D02*
X7134824Y-13954960D01*
X7134824Y-13954960D02*
X7125301Y-13945436D01*
X7125301Y-13945436D02*
X7115777Y-13926388D01*
X7115777Y-13926388D02*
X7106253Y-13888293D01*
X7106253Y-13888293D02*
X7106253Y-13840674D01*
X7106253Y-13840674D02*
X7115777Y-13802579D01*
X7115777Y-13802579D02*
X7125301Y-13783531D01*
X7125301Y-13783531D02*
X7134824Y-13774008D01*
X7134824Y-13774008D02*
X7153872Y-13764484D01*
X7306253Y-13945436D02*
X7315777Y-13954960D01*
X7315777Y-13954960D02*
X7306253Y-13964484D01*
X7306253Y-13964484D02*
X7296729Y-13954960D01*
X7296729Y-13954960D02*
X7306253Y-13945436D01*
X7306253Y-13945436D02*
X7306253Y-13964484D01*
X7487205Y-13764484D02*
X7449110Y-13764484D01*
X7449110Y-13764484D02*
X7430062Y-13774008D01*
X7430062Y-13774008D02*
X7420539Y-13783531D01*
X7420539Y-13783531D02*
X7401491Y-13812103D01*
X7401491Y-13812103D02*
X7391967Y-13850198D01*
X7391967Y-13850198D02*
X7391967Y-13926388D01*
X7391967Y-13926388D02*
X7401491Y-13945436D01*
X7401491Y-13945436D02*
X7411015Y-13954960D01*
X7411015Y-13954960D02*
X7430062Y-13964484D01*
X7430062Y-13964484D02*
X7468158Y-13964484D01*
X7468158Y-13964484D02*
X7487205Y-13954960D01*
X7487205Y-13954960D02*
X7496729Y-13945436D01*
X7496729Y-13945436D02*
X7506253Y-13926388D01*
X7506253Y-13926388D02*
X7506253Y-13878769D01*
X7506253Y-13878769D02*
X7496729Y-13859722D01*
X7496729Y-13859722D02*
X7487205Y-13850198D01*
X7487205Y-13850198D02*
X7468158Y-13840674D01*
X7468158Y-13840674D02*
X7430062Y-13840674D01*
X7430062Y-13840674D02*
X7411015Y-13850198D01*
X7411015Y-13850198D02*
X7401491Y-13859722D01*
X7401491Y-13859722D02*
X7391967Y-13878769D01*
X7630062Y-13764484D02*
X7649110Y-13764484D01*
X7649110Y-13764484D02*
X7668158Y-13774008D01*
X7668158Y-13774008D02*
X7677682Y-13783531D01*
X7677682Y-13783531D02*
X7687205Y-13802579D01*
X7687205Y-13802579D02*
X7696729Y-13840674D01*
X7696729Y-13840674D02*
X7696729Y-13888293D01*
X7696729Y-13888293D02*
X7687205Y-13926388D01*
X7687205Y-13926388D02*
X7677682Y-13945436D01*
X7677682Y-13945436D02*
X7668158Y-13954960D01*
X7668158Y-13954960D02*
X7649110Y-13964484D01*
X7649110Y-13964484D02*
X7630062Y-13964484D01*
X7630062Y-13964484D02*
X7611015Y-13954960D01*
X7611015Y-13954960D02*
X7601491Y-13945436D01*
X7601491Y-13945436D02*
X7591967Y-13926388D01*
X7591967Y-13926388D02*
X7582443Y-13888293D01*
X7582443Y-13888293D02*
X7582443Y-13840674D01*
X7582443Y-13840674D02*
X7591967Y-13802579D01*
X7591967Y-13802579D02*
X7601491Y-13783531D01*
X7601491Y-13783531D02*
X7611015Y-13774008D01*
X7611015Y-13774008D02*
X7630062Y-13764484D01*
X7820539Y-13764484D02*
X7839586Y-13764484D01*
X7839586Y-13764484D02*
X7858634Y-13774008D01*
X7858634Y-13774008D02*
X7868158Y-13783531D01*
X7868158Y-13783531D02*
X7877682Y-13802579D01*
X7877682Y-13802579D02*
X7887205Y-13840674D01*
X7887205Y-13840674D02*
X7887205Y-13888293D01*
X7887205Y-13888293D02*
X7877682Y-13926388D01*
X7877682Y-13926388D02*
X7868158Y-13945436D01*
X7868158Y-13945436D02*
X7858634Y-13954960D01*
X7858634Y-13954960D02*
X7839586Y-13964484D01*
X7839586Y-13964484D02*
X7820539Y-13964484D01*
X7820539Y-13964484D02*
X7801491Y-13954960D01*
X7801491Y-13954960D02*
X7791967Y-13945436D01*
X7791967Y-13945436D02*
X7782443Y-13926388D01*
X7782443Y-13926388D02*
X7772920Y-13888293D01*
X7772920Y-13888293D02*
X7772920Y-13840674D01*
X7772920Y-13840674D02*
X7782443Y-13802579D01*
X7782443Y-13802579D02*
X7791967Y-13783531D01*
X7791967Y-13783531D02*
X7801491Y-13774008D01*
X7801491Y-13774008D02*
X7820539Y-13764484D01*
X7972920Y-13964484D02*
X7972920Y-13831150D01*
X7972920Y-13850198D02*
X7982443Y-13840674D01*
X7982443Y-13840674D02*
X8001491Y-13831150D01*
X8001491Y-13831150D02*
X8030063Y-13831150D01*
X8030063Y-13831150D02*
X8049110Y-13840674D01*
X8049110Y-13840674D02*
X8058634Y-13859722D01*
X8058634Y-13859722D02*
X8058634Y-13964484D01*
X8058634Y-13859722D02*
X8068158Y-13840674D01*
X8068158Y-13840674D02*
X8087205Y-13831150D01*
X8087205Y-13831150D02*
X8115777Y-13831150D01*
X8115777Y-13831150D02*
X8134824Y-13840674D01*
X8134824Y-13840674D02*
X8144348Y-13859722D01*
X8144348Y-13859722D02*
X8144348Y-13964484D01*
X8239586Y-13964484D02*
X8239586Y-13831150D01*
X8239586Y-13850198D02*
X8249110Y-13840674D01*
X8249110Y-13840674D02*
X8268158Y-13831150D01*
X8268158Y-13831150D02*
X8296729Y-13831150D01*
X8296729Y-13831150D02*
X8315777Y-13840674D01*
X8315777Y-13840674D02*
X8325301Y-13859722D01*
X8325301Y-13859722D02*
X8325301Y-13964484D01*
X8325301Y-13859722D02*
X8334824Y-13840674D01*
X8334824Y-13840674D02*
X8353872Y-13831150D01*
X8353872Y-13831150D02*
X8382443Y-13831150D01*
X8382443Y-13831150D02*
X8401491Y-13840674D01*
X8401491Y-13840674D02*
X8411015Y-13859722D01*
X8411015Y-13859722D02*
X8411015Y-13964484D01*
X8801491Y-13754960D02*
X8630063Y-14012103D01*
X9058634Y-13764484D02*
X9077682Y-13764484D01*
X9077682Y-13764484D02*
X9096729Y-13774008D01*
X9096729Y-13774008D02*
X9106253Y-13783531D01*
X9106253Y-13783531D02*
X9115777Y-13802579D01*
X9115777Y-13802579D02*
X9125301Y-13840674D01*
X9125301Y-13840674D02*
X9125301Y-13888293D01*
X9125301Y-13888293D02*
X9115777Y-13926388D01*
X9115777Y-13926388D02*
X9106253Y-13945436D01*
X9106253Y-13945436D02*
X9096729Y-13954960D01*
X9096729Y-13954960D02*
X9077682Y-13964484D01*
X9077682Y-13964484D02*
X9058634Y-13964484D01*
X9058634Y-13964484D02*
X9039587Y-13954960D01*
X9039587Y-13954960D02*
X9030063Y-13945436D01*
X9030063Y-13945436D02*
X9020539Y-13926388D01*
X9020539Y-13926388D02*
X9011015Y-13888293D01*
X9011015Y-13888293D02*
X9011015Y-13840674D01*
X9011015Y-13840674D02*
X9020539Y-13802579D01*
X9020539Y-13802579D02*
X9030063Y-13783531D01*
X9030063Y-13783531D02*
X9039587Y-13774008D01*
X9039587Y-13774008D02*
X9058634Y-13764484D01*
X9211015Y-13945436D02*
X9220539Y-13954960D01*
X9220539Y-13954960D02*
X9211015Y-13964484D01*
X9211015Y-13964484D02*
X9201491Y-13954960D01*
X9201491Y-13954960D02*
X9211015Y-13945436D01*
X9211015Y-13945436D02*
X9211015Y-13964484D01*
X9344348Y-13764484D02*
X9363396Y-13764484D01*
X9363396Y-13764484D02*
X9382444Y-13774008D01*
X9382444Y-13774008D02*
X9391968Y-13783531D01*
X9391968Y-13783531D02*
X9401491Y-13802579D01*
X9401491Y-13802579D02*
X9411015Y-13840674D01*
X9411015Y-13840674D02*
X9411015Y-13888293D01*
X9411015Y-13888293D02*
X9401491Y-13926388D01*
X9401491Y-13926388D02*
X9391968Y-13945436D01*
X9391968Y-13945436D02*
X9382444Y-13954960D01*
X9382444Y-13954960D02*
X9363396Y-13964484D01*
X9363396Y-13964484D02*
X9344348Y-13964484D01*
X9344348Y-13964484D02*
X9325301Y-13954960D01*
X9325301Y-13954960D02*
X9315777Y-13945436D01*
X9315777Y-13945436D02*
X9306253Y-13926388D01*
X9306253Y-13926388D02*
X9296729Y-13888293D01*
X9296729Y-13888293D02*
X9296729Y-13840674D01*
X9296729Y-13840674D02*
X9306253Y-13802579D01*
X9306253Y-13802579D02*
X9315777Y-13783531D01*
X9315777Y-13783531D02*
X9325301Y-13774008D01*
X9325301Y-13774008D02*
X9344348Y-13764484D01*
X9487206Y-13783531D02*
X9496729Y-13774008D01*
X9496729Y-13774008D02*
X9515777Y-13764484D01*
X9515777Y-13764484D02*
X9563396Y-13764484D01*
X9563396Y-13764484D02*
X9582444Y-13774008D01*
X9582444Y-13774008D02*
X9591968Y-13783531D01*
X9591968Y-13783531D02*
X9601491Y-13802579D01*
X9601491Y-13802579D02*
X9601491Y-13821627D01*
X9601491Y-13821627D02*
X9591968Y-13850198D01*
X9591968Y-13850198D02*
X9477682Y-13964484D01*
X9477682Y-13964484D02*
X9601491Y-13964484D01*
X9668158Y-13764484D02*
X9791968Y-13764484D01*
X9791968Y-13764484D02*
X9725301Y-13840674D01*
X9725301Y-13840674D02*
X9753872Y-13840674D01*
X9753872Y-13840674D02*
X9772920Y-13850198D01*
X9772920Y-13850198D02*
X9782444Y-13859722D01*
X9782444Y-13859722D02*
X9791968Y-13878769D01*
X9791968Y-13878769D02*
X9791968Y-13926388D01*
X9791968Y-13926388D02*
X9782444Y-13945436D01*
X9782444Y-13945436D02*
X9772920Y-13954960D01*
X9772920Y-13954960D02*
X9753872Y-13964484D01*
X9753872Y-13964484D02*
X9696729Y-13964484D01*
X9696729Y-13964484D02*
X9677682Y-13954960D01*
X9677682Y-13954960D02*
X9668158Y-13945436D01*
X9963396Y-13764484D02*
X9925301Y-13764484D01*
X9925301Y-13764484D02*
X9906253Y-13774008D01*
X9906253Y-13774008D02*
X9896729Y-13783531D01*
X9896729Y-13783531D02*
X9877682Y-13812103D01*
X9877682Y-13812103D02*
X9868158Y-13850198D01*
X9868158Y-13850198D02*
X9868158Y-13926388D01*
X9868158Y-13926388D02*
X9877682Y-13945436D01*
X9877682Y-13945436D02*
X9887206Y-13954960D01*
X9887206Y-13954960D02*
X9906253Y-13964484D01*
X9906253Y-13964484D02*
X9944349Y-13964484D01*
X9944349Y-13964484D02*
X9963396Y-13954960D01*
X9963396Y-13954960D02*
X9972920Y-13945436D01*
X9972920Y-13945436D02*
X9982444Y-13926388D01*
X9982444Y-13926388D02*
X9982444Y-13878769D01*
X9982444Y-13878769D02*
X9972920Y-13859722D01*
X9972920Y-13859722D02*
X9963396Y-13850198D01*
X9963396Y-13850198D02*
X9944349Y-13840674D01*
X9944349Y-13840674D02*
X9906253Y-13840674D01*
X9906253Y-13840674D02*
X9887206Y-13850198D01*
X9887206Y-13850198D02*
X9877682Y-13859722D01*
X9877682Y-13859722D02*
X9868158Y-13878769D01*
X10058634Y-13764484D02*
X10058634Y-13802579D01*
X10134825Y-13764484D02*
X10134825Y-13802579D01*
X10430063Y-14040674D02*
X10420539Y-14031150D01*
X10420539Y-14031150D02*
X10401491Y-14002579D01*
X10401491Y-14002579D02*
X10391968Y-13983531D01*
X10391968Y-13983531D02*
X10382444Y-13954960D01*
X10382444Y-13954960D02*
X10372920Y-13907341D01*
X10372920Y-13907341D02*
X10372920Y-13869246D01*
X10372920Y-13869246D02*
X10382444Y-13821627D01*
X10382444Y-13821627D02*
X10391968Y-13793055D01*
X10391968Y-13793055D02*
X10401491Y-13774008D01*
X10401491Y-13774008D02*
X10420539Y-13745436D01*
X10420539Y-13745436D02*
X10430063Y-13735912D01*
X10487206Y-13764484D02*
X10611015Y-13764484D01*
X10611015Y-13764484D02*
X10544349Y-13840674D01*
X10544349Y-13840674D02*
X10572920Y-13840674D01*
X10572920Y-13840674D02*
X10591968Y-13850198D01*
X10591968Y-13850198D02*
X10601491Y-13859722D01*
X10601491Y-13859722D02*
X10611015Y-13878769D01*
X10611015Y-13878769D02*
X10611015Y-13926388D01*
X10611015Y-13926388D02*
X10601491Y-13945436D01*
X10601491Y-13945436D02*
X10591968Y-13954960D01*
X10591968Y-13954960D02*
X10572920Y-13964484D01*
X10572920Y-13964484D02*
X10515777Y-13964484D01*
X10515777Y-13964484D02*
X10496730Y-13954960D01*
X10496730Y-13954960D02*
X10487206Y-13945436D01*
X10849111Y-13964484D02*
X10849111Y-13764484D01*
X10934825Y-13964484D02*
X10934825Y-13859722D01*
X10934825Y-13859722D02*
X10925301Y-13840674D01*
X10925301Y-13840674D02*
X10906253Y-13831150D01*
X10906253Y-13831150D02*
X10877682Y-13831150D01*
X10877682Y-13831150D02*
X10858634Y-13840674D01*
X10858634Y-13840674D02*
X10849111Y-13850198D01*
X11058634Y-13964484D02*
X11039587Y-13954960D01*
X11039587Y-13954960D02*
X11030063Y-13945436D01*
X11030063Y-13945436D02*
X11020539Y-13926388D01*
X11020539Y-13926388D02*
X11020539Y-13869246D01*
X11020539Y-13869246D02*
X11030063Y-13850198D01*
X11030063Y-13850198D02*
X11039587Y-13840674D01*
X11039587Y-13840674D02*
X11058634Y-13831150D01*
X11058634Y-13831150D02*
X11087206Y-13831150D01*
X11087206Y-13831150D02*
X11106253Y-13840674D01*
X11106253Y-13840674D02*
X11115777Y-13850198D01*
X11115777Y-13850198D02*
X11125301Y-13869246D01*
X11125301Y-13869246D02*
X11125301Y-13926388D01*
X11125301Y-13926388D02*
X11115777Y-13945436D01*
X11115777Y-13945436D02*
X11106253Y-13954960D01*
X11106253Y-13954960D02*
X11087206Y-13964484D01*
X11087206Y-13964484D02*
X11058634Y-13964484D01*
X11239587Y-13964484D02*
X11220539Y-13954960D01*
X11220539Y-13954960D02*
X11211015Y-13935912D01*
X11211015Y-13935912D02*
X11211015Y-13764484D01*
X11391968Y-13954960D02*
X11372920Y-13964484D01*
X11372920Y-13964484D02*
X11334825Y-13964484D01*
X11334825Y-13964484D02*
X11315777Y-13954960D01*
X11315777Y-13954960D02*
X11306253Y-13935912D01*
X11306253Y-13935912D02*
X11306253Y-13859722D01*
X11306253Y-13859722D02*
X11315777Y-13840674D01*
X11315777Y-13840674D02*
X11334825Y-13831150D01*
X11334825Y-13831150D02*
X11372920Y-13831150D01*
X11372920Y-13831150D02*
X11391968Y-13840674D01*
X11391968Y-13840674D02*
X11401491Y-13859722D01*
X11401491Y-13859722D02*
X11401491Y-13878769D01*
X11401491Y-13878769D02*
X11306253Y-13897817D01*
X11477682Y-13954960D02*
X11496730Y-13964484D01*
X11496730Y-13964484D02*
X11534825Y-13964484D01*
X11534825Y-13964484D02*
X11553872Y-13954960D01*
X11553872Y-13954960D02*
X11563396Y-13935912D01*
X11563396Y-13935912D02*
X11563396Y-13926388D01*
X11563396Y-13926388D02*
X11553872Y-13907341D01*
X11553872Y-13907341D02*
X11534825Y-13897817D01*
X11534825Y-13897817D02*
X11506253Y-13897817D01*
X11506253Y-13897817D02*
X11487206Y-13888293D01*
X11487206Y-13888293D02*
X11477682Y-13869246D01*
X11477682Y-13869246D02*
X11477682Y-13859722D01*
X11477682Y-13859722D02*
X11487206Y-13840674D01*
X11487206Y-13840674D02*
X11506253Y-13831150D01*
X11506253Y-13831150D02*
X11534825Y-13831150D01*
X11534825Y-13831150D02*
X11553872Y-13840674D01*
X11630063Y-14040674D02*
X11639587Y-14031150D01*
X11639587Y-14031150D02*
X11658634Y-14002579D01*
X11658634Y-14002579D02*
X11668158Y-13983531D01*
X11668158Y-13983531D02*
X11677682Y-13954960D01*
X11677682Y-13954960D02*
X11687206Y-13907341D01*
X11687206Y-13907341D02*
X11687206Y-13869246D01*
X11687206Y-13869246D02*
X11677682Y-13821627D01*
X11677682Y-13821627D02*
X11668158Y-13793055D01*
X11668158Y-13793055D02*
X11658634Y-13774008D01*
X11658634Y-13774008D02*
X11639587Y-13745436D01*
X11639587Y-13745436D02*
X11630063Y-13735912D01*
D15*
X6844749Y-14161749D02*
X6844749Y-14112251D01*
X6795251Y-14112251D01*
X6795251Y-14161749D01*
X6844749Y-14161749D01*
D11*
X7153872Y-14028484D02*
X7172920Y-14028484D01*
X7172920Y-14028484D02*
X7191967Y-14038008D01*
X7191967Y-14038008D02*
X7201491Y-14047531D01*
X7201491Y-14047531D02*
X7211015Y-14066579D01*
X7211015Y-14066579D02*
X7220539Y-14104674D01*
X7220539Y-14104674D02*
X7220539Y-14152293D01*
X7220539Y-14152293D02*
X7211015Y-14190388D01*
X7211015Y-14190388D02*
X7201491Y-14209436D01*
X7201491Y-14209436D02*
X7191967Y-14218960D01*
X7191967Y-14218960D02*
X7172920Y-14228484D01*
X7172920Y-14228484D02*
X7153872Y-14228484D01*
X7153872Y-14228484D02*
X7134824Y-14218960D01*
X7134824Y-14218960D02*
X7125301Y-14209436D01*
X7125301Y-14209436D02*
X7115777Y-14190388D01*
X7115777Y-14190388D02*
X7106253Y-14152293D01*
X7106253Y-14152293D02*
X7106253Y-14104674D01*
X7106253Y-14104674D02*
X7115777Y-14066579D01*
X7115777Y-14066579D02*
X7125301Y-14047531D01*
X7125301Y-14047531D02*
X7134824Y-14038008D01*
X7134824Y-14038008D02*
X7153872Y-14028484D01*
X7306253Y-14209436D02*
X7315777Y-14218960D01*
X7315777Y-14218960D02*
X7306253Y-14228484D01*
X7306253Y-14228484D02*
X7296729Y-14218960D01*
X7296729Y-14218960D02*
X7306253Y-14209436D01*
X7306253Y-14209436D02*
X7306253Y-14228484D01*
X7382443Y-14028484D02*
X7515777Y-14028484D01*
X7515777Y-14028484D02*
X7430062Y-14228484D01*
X7630062Y-14028484D02*
X7649110Y-14028484D01*
X7649110Y-14028484D02*
X7668158Y-14038008D01*
X7668158Y-14038008D02*
X7677682Y-14047531D01*
X7677682Y-14047531D02*
X7687205Y-14066579D01*
X7687205Y-14066579D02*
X7696729Y-14104674D01*
X7696729Y-14104674D02*
X7696729Y-14152293D01*
X7696729Y-14152293D02*
X7687205Y-14190388D01*
X7687205Y-14190388D02*
X7677682Y-14209436D01*
X7677682Y-14209436D02*
X7668158Y-14218960D01*
X7668158Y-14218960D02*
X7649110Y-14228484D01*
X7649110Y-14228484D02*
X7630062Y-14228484D01*
X7630062Y-14228484D02*
X7611015Y-14218960D01*
X7611015Y-14218960D02*
X7601491Y-14209436D01*
X7601491Y-14209436D02*
X7591967Y-14190388D01*
X7591967Y-14190388D02*
X7582443Y-14152293D01*
X7582443Y-14152293D02*
X7582443Y-14104674D01*
X7582443Y-14104674D02*
X7591967Y-14066579D01*
X7591967Y-14066579D02*
X7601491Y-14047531D01*
X7601491Y-14047531D02*
X7611015Y-14038008D01*
X7611015Y-14038008D02*
X7630062Y-14028484D01*
X7820539Y-14028484D02*
X7839586Y-14028484D01*
X7839586Y-14028484D02*
X7858634Y-14038008D01*
X7858634Y-14038008D02*
X7868158Y-14047531D01*
X7868158Y-14047531D02*
X7877682Y-14066579D01*
X7877682Y-14066579D02*
X7887205Y-14104674D01*
X7887205Y-14104674D02*
X7887205Y-14152293D01*
X7887205Y-14152293D02*
X7877682Y-14190388D01*
X7877682Y-14190388D02*
X7868158Y-14209436D01*
X7868158Y-14209436D02*
X7858634Y-14218960D01*
X7858634Y-14218960D02*
X7839586Y-14228484D01*
X7839586Y-14228484D02*
X7820539Y-14228484D01*
X7820539Y-14228484D02*
X7801491Y-14218960D01*
X7801491Y-14218960D02*
X7791967Y-14209436D01*
X7791967Y-14209436D02*
X7782443Y-14190388D01*
X7782443Y-14190388D02*
X7772920Y-14152293D01*
X7772920Y-14152293D02*
X7772920Y-14104674D01*
X7772920Y-14104674D02*
X7782443Y-14066579D01*
X7782443Y-14066579D02*
X7791967Y-14047531D01*
X7791967Y-14047531D02*
X7801491Y-14038008D01*
X7801491Y-14038008D02*
X7820539Y-14028484D01*
X7972920Y-14228484D02*
X7972920Y-14095150D01*
X7972920Y-14114198D02*
X7982443Y-14104674D01*
X7982443Y-14104674D02*
X8001491Y-14095150D01*
X8001491Y-14095150D02*
X8030063Y-14095150D01*
X8030063Y-14095150D02*
X8049110Y-14104674D01*
X8049110Y-14104674D02*
X8058634Y-14123722D01*
X8058634Y-14123722D02*
X8058634Y-14228484D01*
X8058634Y-14123722D02*
X8068158Y-14104674D01*
X8068158Y-14104674D02*
X8087205Y-14095150D01*
X8087205Y-14095150D02*
X8115777Y-14095150D01*
X8115777Y-14095150D02*
X8134824Y-14104674D01*
X8134824Y-14104674D02*
X8144348Y-14123722D01*
X8144348Y-14123722D02*
X8144348Y-14228484D01*
X8239586Y-14228484D02*
X8239586Y-14095150D01*
X8239586Y-14114198D02*
X8249110Y-14104674D01*
X8249110Y-14104674D02*
X8268158Y-14095150D01*
X8268158Y-14095150D02*
X8296729Y-14095150D01*
X8296729Y-14095150D02*
X8315777Y-14104674D01*
X8315777Y-14104674D02*
X8325301Y-14123722D01*
X8325301Y-14123722D02*
X8325301Y-14228484D01*
X8325301Y-14123722D02*
X8334824Y-14104674D01*
X8334824Y-14104674D02*
X8353872Y-14095150D01*
X8353872Y-14095150D02*
X8382443Y-14095150D01*
X8382443Y-14095150D02*
X8401491Y-14104674D01*
X8401491Y-14104674D02*
X8411015Y-14123722D01*
X8411015Y-14123722D02*
X8411015Y-14228484D01*
X8801491Y-14018960D02*
X8630063Y-14276103D01*
X9058634Y-14028484D02*
X9077682Y-14028484D01*
X9077682Y-14028484D02*
X9096729Y-14038008D01*
X9096729Y-14038008D02*
X9106253Y-14047531D01*
X9106253Y-14047531D02*
X9115777Y-14066579D01*
X9115777Y-14066579D02*
X9125301Y-14104674D01*
X9125301Y-14104674D02*
X9125301Y-14152293D01*
X9125301Y-14152293D02*
X9115777Y-14190388D01*
X9115777Y-14190388D02*
X9106253Y-14209436D01*
X9106253Y-14209436D02*
X9096729Y-14218960D01*
X9096729Y-14218960D02*
X9077682Y-14228484D01*
X9077682Y-14228484D02*
X9058634Y-14228484D01*
X9058634Y-14228484D02*
X9039587Y-14218960D01*
X9039587Y-14218960D02*
X9030063Y-14209436D01*
X9030063Y-14209436D02*
X9020539Y-14190388D01*
X9020539Y-14190388D02*
X9011015Y-14152293D01*
X9011015Y-14152293D02*
X9011015Y-14104674D01*
X9011015Y-14104674D02*
X9020539Y-14066579D01*
X9020539Y-14066579D02*
X9030063Y-14047531D01*
X9030063Y-14047531D02*
X9039587Y-14038008D01*
X9039587Y-14038008D02*
X9058634Y-14028484D01*
X9211015Y-14209436D02*
X9220539Y-14218960D01*
X9220539Y-14218960D02*
X9211015Y-14228484D01*
X9211015Y-14228484D02*
X9201491Y-14218960D01*
X9201491Y-14218960D02*
X9211015Y-14209436D01*
X9211015Y-14209436D02*
X9211015Y-14228484D01*
X9344348Y-14028484D02*
X9363396Y-14028484D01*
X9363396Y-14028484D02*
X9382444Y-14038008D01*
X9382444Y-14038008D02*
X9391968Y-14047531D01*
X9391968Y-14047531D02*
X9401491Y-14066579D01*
X9401491Y-14066579D02*
X9411015Y-14104674D01*
X9411015Y-14104674D02*
X9411015Y-14152293D01*
X9411015Y-14152293D02*
X9401491Y-14190388D01*
X9401491Y-14190388D02*
X9391968Y-14209436D01*
X9391968Y-14209436D02*
X9382444Y-14218960D01*
X9382444Y-14218960D02*
X9363396Y-14228484D01*
X9363396Y-14228484D02*
X9344348Y-14228484D01*
X9344348Y-14228484D02*
X9325301Y-14218960D01*
X9325301Y-14218960D02*
X9315777Y-14209436D01*
X9315777Y-14209436D02*
X9306253Y-14190388D01*
X9306253Y-14190388D02*
X9296729Y-14152293D01*
X9296729Y-14152293D02*
X9296729Y-14104674D01*
X9296729Y-14104674D02*
X9306253Y-14066579D01*
X9306253Y-14066579D02*
X9315777Y-14047531D01*
X9315777Y-14047531D02*
X9325301Y-14038008D01*
X9325301Y-14038008D02*
X9344348Y-14028484D01*
X9487206Y-14047531D02*
X9496729Y-14038008D01*
X9496729Y-14038008D02*
X9515777Y-14028484D01*
X9515777Y-14028484D02*
X9563396Y-14028484D01*
X9563396Y-14028484D02*
X9582444Y-14038008D01*
X9582444Y-14038008D02*
X9591968Y-14047531D01*
X9591968Y-14047531D02*
X9601491Y-14066579D01*
X9601491Y-14066579D02*
X9601491Y-14085627D01*
X9601491Y-14085627D02*
X9591968Y-14114198D01*
X9591968Y-14114198D02*
X9477682Y-14228484D01*
X9477682Y-14228484D02*
X9601491Y-14228484D01*
X9668158Y-14028484D02*
X9801491Y-14028484D01*
X9801491Y-14028484D02*
X9715777Y-14228484D01*
X9963396Y-14028484D02*
X9925301Y-14028484D01*
X9925301Y-14028484D02*
X9906253Y-14038008D01*
X9906253Y-14038008D02*
X9896729Y-14047531D01*
X9896729Y-14047531D02*
X9877682Y-14076103D01*
X9877682Y-14076103D02*
X9868158Y-14114198D01*
X9868158Y-14114198D02*
X9868158Y-14190388D01*
X9868158Y-14190388D02*
X9877682Y-14209436D01*
X9877682Y-14209436D02*
X9887206Y-14218960D01*
X9887206Y-14218960D02*
X9906253Y-14228484D01*
X9906253Y-14228484D02*
X9944349Y-14228484D01*
X9944349Y-14228484D02*
X9963396Y-14218960D01*
X9963396Y-14218960D02*
X9972920Y-14209436D01*
X9972920Y-14209436D02*
X9982444Y-14190388D01*
X9982444Y-14190388D02*
X9982444Y-14142769D01*
X9982444Y-14142769D02*
X9972920Y-14123722D01*
X9972920Y-14123722D02*
X9963396Y-14114198D01*
X9963396Y-14114198D02*
X9944349Y-14104674D01*
X9944349Y-14104674D02*
X9906253Y-14104674D01*
X9906253Y-14104674D02*
X9887206Y-14114198D01*
X9887206Y-14114198D02*
X9877682Y-14123722D01*
X9877682Y-14123722D02*
X9868158Y-14142769D01*
X10058634Y-14028484D02*
X10058634Y-14066579D01*
X10134825Y-14028484D02*
X10134825Y-14066579D01*
X10430063Y-14304674D02*
X10420539Y-14295150D01*
X10420539Y-14295150D02*
X10401491Y-14266579D01*
X10401491Y-14266579D02*
X10391968Y-14247531D01*
X10391968Y-14247531D02*
X10382444Y-14218960D01*
X10382444Y-14218960D02*
X10372920Y-14171341D01*
X10372920Y-14171341D02*
X10372920Y-14133246D01*
X10372920Y-14133246D02*
X10382444Y-14085627D01*
X10382444Y-14085627D02*
X10391968Y-14057055D01*
X10391968Y-14057055D02*
X10401491Y-14038008D01*
X10401491Y-14038008D02*
X10420539Y-14009436D01*
X10420539Y-14009436D02*
X10430063Y-13999912D01*
X10487206Y-14028484D02*
X10611015Y-14028484D01*
X10611015Y-14028484D02*
X10544349Y-14104674D01*
X10544349Y-14104674D02*
X10572920Y-14104674D01*
X10572920Y-14104674D02*
X10591968Y-14114198D01*
X10591968Y-14114198D02*
X10601491Y-14123722D01*
X10601491Y-14123722D02*
X10611015Y-14142769D01*
X10611015Y-14142769D02*
X10611015Y-14190388D01*
X10611015Y-14190388D02*
X10601491Y-14209436D01*
X10601491Y-14209436D02*
X10591968Y-14218960D01*
X10591968Y-14218960D02*
X10572920Y-14228484D01*
X10572920Y-14228484D02*
X10515777Y-14228484D01*
X10515777Y-14228484D02*
X10496730Y-14218960D01*
X10496730Y-14218960D02*
X10487206Y-14209436D01*
X10849111Y-14228484D02*
X10849111Y-14028484D01*
X10934825Y-14228484D02*
X10934825Y-14123722D01*
X10934825Y-14123722D02*
X10925301Y-14104674D01*
X10925301Y-14104674D02*
X10906253Y-14095150D01*
X10906253Y-14095150D02*
X10877682Y-14095150D01*
X10877682Y-14095150D02*
X10858634Y-14104674D01*
X10858634Y-14104674D02*
X10849111Y-14114198D01*
X11058634Y-14228484D02*
X11039587Y-14218960D01*
X11039587Y-14218960D02*
X11030063Y-14209436D01*
X11030063Y-14209436D02*
X11020539Y-14190388D01*
X11020539Y-14190388D02*
X11020539Y-14133246D01*
X11020539Y-14133246D02*
X11030063Y-14114198D01*
X11030063Y-14114198D02*
X11039587Y-14104674D01*
X11039587Y-14104674D02*
X11058634Y-14095150D01*
X11058634Y-14095150D02*
X11087206Y-14095150D01*
X11087206Y-14095150D02*
X11106253Y-14104674D01*
X11106253Y-14104674D02*
X11115777Y-14114198D01*
X11115777Y-14114198D02*
X11125301Y-14133246D01*
X11125301Y-14133246D02*
X11125301Y-14190388D01*
X11125301Y-14190388D02*
X11115777Y-14209436D01*
X11115777Y-14209436D02*
X11106253Y-14218960D01*
X11106253Y-14218960D02*
X11087206Y-14228484D01*
X11087206Y-14228484D02*
X11058634Y-14228484D01*
X11239587Y-14228484D02*
X11220539Y-14218960D01*
X11220539Y-14218960D02*
X11211015Y-14199912D01*
X11211015Y-14199912D02*
X11211015Y-14028484D01*
X11391968Y-14218960D02*
X11372920Y-14228484D01*
X11372920Y-14228484D02*
X11334825Y-14228484D01*
X11334825Y-14228484D02*
X11315777Y-14218960D01*
X11315777Y-14218960D02*
X11306253Y-14199912D01*
X11306253Y-14199912D02*
X11306253Y-14123722D01*
X11306253Y-14123722D02*
X11315777Y-14104674D01*
X11315777Y-14104674D02*
X11334825Y-14095150D01*
X11334825Y-14095150D02*
X11372920Y-14095150D01*
X11372920Y-14095150D02*
X11391968Y-14104674D01*
X11391968Y-14104674D02*
X11401491Y-14123722D01*
X11401491Y-14123722D02*
X11401491Y-14142769D01*
X11401491Y-14142769D02*
X11306253Y-14161817D01*
X11477682Y-14218960D02*
X11496730Y-14228484D01*
X11496730Y-14228484D02*
X11534825Y-14228484D01*
X11534825Y-14228484D02*
X11553872Y-14218960D01*
X11553872Y-14218960D02*
X11563396Y-14199912D01*
X11563396Y-14199912D02*
X11563396Y-14190388D01*
X11563396Y-14190388D02*
X11553872Y-14171341D01*
X11553872Y-14171341D02*
X11534825Y-14161817D01*
X11534825Y-14161817D02*
X11506253Y-14161817D01*
X11506253Y-14161817D02*
X11487206Y-14152293D01*
X11487206Y-14152293D02*
X11477682Y-14133246D01*
X11477682Y-14133246D02*
X11477682Y-14123722D01*
X11477682Y-14123722D02*
X11487206Y-14104674D01*
X11487206Y-14104674D02*
X11506253Y-14095150D01*
X11506253Y-14095150D02*
X11534825Y-14095150D01*
X11534825Y-14095150D02*
X11553872Y-14104674D01*
X11630063Y-14304674D02*
X11639587Y-14295150D01*
X11639587Y-14295150D02*
X11658634Y-14266579D01*
X11658634Y-14266579D02*
X11668158Y-14247531D01*
X11668158Y-14247531D02*
X11677682Y-14218960D01*
X11677682Y-14218960D02*
X11687206Y-14171341D01*
X11687206Y-14171341D02*
X11687206Y-14133246D01*
X11687206Y-14133246D02*
X11677682Y-14085627D01*
X11677682Y-14085627D02*
X11668158Y-14057055D01*
X11668158Y-14057055D02*
X11658634Y-14038008D01*
X11658634Y-14038008D02*
X11639587Y-14009436D01*
X11639587Y-14009436D02*
X11630063Y-13999912D01*
D16*
X6810000Y-14446000D02*
X6855000Y-14401000D01*
X6810000Y-14356000D01*
X6765000Y-14401000D01*
X6810000Y-14446000D01*
D11*
X7153872Y-14292484D02*
X7172920Y-14292484D01*
X7172920Y-14292484D02*
X7191967Y-14302008D01*
X7191967Y-14302008D02*
X7201491Y-14311531D01*
X7201491Y-14311531D02*
X7211015Y-14330579D01*
X7211015Y-14330579D02*
X7220539Y-14368674D01*
X7220539Y-14368674D02*
X7220539Y-14416293D01*
X7220539Y-14416293D02*
X7211015Y-14454388D01*
X7211015Y-14454388D02*
X7201491Y-14473436D01*
X7201491Y-14473436D02*
X7191967Y-14482960D01*
X7191967Y-14482960D02*
X7172920Y-14492484D01*
X7172920Y-14492484D02*
X7153872Y-14492484D01*
X7153872Y-14492484D02*
X7134824Y-14482960D01*
X7134824Y-14482960D02*
X7125301Y-14473436D01*
X7125301Y-14473436D02*
X7115777Y-14454388D01*
X7115777Y-14454388D02*
X7106253Y-14416293D01*
X7106253Y-14416293D02*
X7106253Y-14368674D01*
X7106253Y-14368674D02*
X7115777Y-14330579D01*
X7115777Y-14330579D02*
X7125301Y-14311531D01*
X7125301Y-14311531D02*
X7134824Y-14302008D01*
X7134824Y-14302008D02*
X7153872Y-14292484D01*
X7306253Y-14473436D02*
X7315777Y-14482960D01*
X7315777Y-14482960D02*
X7306253Y-14492484D01*
X7306253Y-14492484D02*
X7296729Y-14482960D01*
X7296729Y-14482960D02*
X7306253Y-14473436D01*
X7306253Y-14473436D02*
X7306253Y-14492484D01*
X7411015Y-14492484D02*
X7449110Y-14492484D01*
X7449110Y-14492484D02*
X7468158Y-14482960D01*
X7468158Y-14482960D02*
X7477682Y-14473436D01*
X7477682Y-14473436D02*
X7496729Y-14444865D01*
X7496729Y-14444865D02*
X7506253Y-14406769D01*
X7506253Y-14406769D02*
X7506253Y-14330579D01*
X7506253Y-14330579D02*
X7496729Y-14311531D01*
X7496729Y-14311531D02*
X7487205Y-14302008D01*
X7487205Y-14302008D02*
X7468158Y-14292484D01*
X7468158Y-14292484D02*
X7430062Y-14292484D01*
X7430062Y-14292484D02*
X7411015Y-14302008D01*
X7411015Y-14302008D02*
X7401491Y-14311531D01*
X7401491Y-14311531D02*
X7391967Y-14330579D01*
X7391967Y-14330579D02*
X7391967Y-14378198D01*
X7391967Y-14378198D02*
X7401491Y-14397246D01*
X7401491Y-14397246D02*
X7411015Y-14406769D01*
X7411015Y-14406769D02*
X7430062Y-14416293D01*
X7430062Y-14416293D02*
X7468158Y-14416293D01*
X7468158Y-14416293D02*
X7487205Y-14406769D01*
X7487205Y-14406769D02*
X7496729Y-14397246D01*
X7496729Y-14397246D02*
X7506253Y-14378198D01*
X7630062Y-14292484D02*
X7649110Y-14292484D01*
X7649110Y-14292484D02*
X7668158Y-14302008D01*
X7668158Y-14302008D02*
X7677682Y-14311531D01*
X7677682Y-14311531D02*
X7687205Y-14330579D01*
X7687205Y-14330579D02*
X7696729Y-14368674D01*
X7696729Y-14368674D02*
X7696729Y-14416293D01*
X7696729Y-14416293D02*
X7687205Y-14454388D01*
X7687205Y-14454388D02*
X7677682Y-14473436D01*
X7677682Y-14473436D02*
X7668158Y-14482960D01*
X7668158Y-14482960D02*
X7649110Y-14492484D01*
X7649110Y-14492484D02*
X7630062Y-14492484D01*
X7630062Y-14492484D02*
X7611015Y-14482960D01*
X7611015Y-14482960D02*
X7601491Y-14473436D01*
X7601491Y-14473436D02*
X7591967Y-14454388D01*
X7591967Y-14454388D02*
X7582443Y-14416293D01*
X7582443Y-14416293D02*
X7582443Y-14368674D01*
X7582443Y-14368674D02*
X7591967Y-14330579D01*
X7591967Y-14330579D02*
X7601491Y-14311531D01*
X7601491Y-14311531D02*
X7611015Y-14302008D01*
X7611015Y-14302008D02*
X7630062Y-14292484D01*
X7820539Y-14292484D02*
X7839586Y-14292484D01*
X7839586Y-14292484D02*
X7858634Y-14302008D01*
X7858634Y-14302008D02*
X7868158Y-14311531D01*
X7868158Y-14311531D02*
X7877682Y-14330579D01*
X7877682Y-14330579D02*
X7887205Y-14368674D01*
X7887205Y-14368674D02*
X7887205Y-14416293D01*
X7887205Y-14416293D02*
X7877682Y-14454388D01*
X7877682Y-14454388D02*
X7868158Y-14473436D01*
X7868158Y-14473436D02*
X7858634Y-14482960D01*
X7858634Y-14482960D02*
X7839586Y-14492484D01*
X7839586Y-14492484D02*
X7820539Y-14492484D01*
X7820539Y-14492484D02*
X7801491Y-14482960D01*
X7801491Y-14482960D02*
X7791967Y-14473436D01*
X7791967Y-14473436D02*
X7782443Y-14454388D01*
X7782443Y-14454388D02*
X7772920Y-14416293D01*
X7772920Y-14416293D02*
X7772920Y-14368674D01*
X7772920Y-14368674D02*
X7782443Y-14330579D01*
X7782443Y-14330579D02*
X7791967Y-14311531D01*
X7791967Y-14311531D02*
X7801491Y-14302008D01*
X7801491Y-14302008D02*
X7820539Y-14292484D01*
X7972920Y-14492484D02*
X7972920Y-14359150D01*
X7972920Y-14378198D02*
X7982443Y-14368674D01*
X7982443Y-14368674D02*
X8001491Y-14359150D01*
X8001491Y-14359150D02*
X8030063Y-14359150D01*
X8030063Y-14359150D02*
X8049110Y-14368674D01*
X8049110Y-14368674D02*
X8058634Y-14387722D01*
X8058634Y-14387722D02*
X8058634Y-14492484D01*
X8058634Y-14387722D02*
X8068158Y-14368674D01*
X8068158Y-14368674D02*
X8087205Y-14359150D01*
X8087205Y-14359150D02*
X8115777Y-14359150D01*
X8115777Y-14359150D02*
X8134824Y-14368674D01*
X8134824Y-14368674D02*
X8144348Y-14387722D01*
X8144348Y-14387722D02*
X8144348Y-14492484D01*
X8239586Y-14492484D02*
X8239586Y-14359150D01*
X8239586Y-14378198D02*
X8249110Y-14368674D01*
X8249110Y-14368674D02*
X8268158Y-14359150D01*
X8268158Y-14359150D02*
X8296729Y-14359150D01*
X8296729Y-14359150D02*
X8315777Y-14368674D01*
X8315777Y-14368674D02*
X8325301Y-14387722D01*
X8325301Y-14387722D02*
X8325301Y-14492484D01*
X8325301Y-14387722D02*
X8334824Y-14368674D01*
X8334824Y-14368674D02*
X8353872Y-14359150D01*
X8353872Y-14359150D02*
X8382443Y-14359150D01*
X8382443Y-14359150D02*
X8401491Y-14368674D01*
X8401491Y-14368674D02*
X8411015Y-14387722D01*
X8411015Y-14387722D02*
X8411015Y-14492484D01*
X8801491Y-14282960D02*
X8630063Y-14540103D01*
X9058634Y-14292484D02*
X9077682Y-14292484D01*
X9077682Y-14292484D02*
X9096729Y-14302008D01*
X9096729Y-14302008D02*
X9106253Y-14311531D01*
X9106253Y-14311531D02*
X9115777Y-14330579D01*
X9115777Y-14330579D02*
X9125301Y-14368674D01*
X9125301Y-14368674D02*
X9125301Y-14416293D01*
X9125301Y-14416293D02*
X9115777Y-14454388D01*
X9115777Y-14454388D02*
X9106253Y-14473436D01*
X9106253Y-14473436D02*
X9096729Y-14482960D01*
X9096729Y-14482960D02*
X9077682Y-14492484D01*
X9077682Y-14492484D02*
X9058634Y-14492484D01*
X9058634Y-14492484D02*
X9039587Y-14482960D01*
X9039587Y-14482960D02*
X9030063Y-14473436D01*
X9030063Y-14473436D02*
X9020539Y-14454388D01*
X9020539Y-14454388D02*
X9011015Y-14416293D01*
X9011015Y-14416293D02*
X9011015Y-14368674D01*
X9011015Y-14368674D02*
X9020539Y-14330579D01*
X9020539Y-14330579D02*
X9030063Y-14311531D01*
X9030063Y-14311531D02*
X9039587Y-14302008D01*
X9039587Y-14302008D02*
X9058634Y-14292484D01*
X9211015Y-14473436D02*
X9220539Y-14482960D01*
X9220539Y-14482960D02*
X9211015Y-14492484D01*
X9211015Y-14492484D02*
X9201491Y-14482960D01*
X9201491Y-14482960D02*
X9211015Y-14473436D01*
X9211015Y-14473436D02*
X9211015Y-14492484D01*
X9344348Y-14292484D02*
X9363396Y-14292484D01*
X9363396Y-14292484D02*
X9382444Y-14302008D01*
X9382444Y-14302008D02*
X9391968Y-14311531D01*
X9391968Y-14311531D02*
X9401491Y-14330579D01*
X9401491Y-14330579D02*
X9411015Y-14368674D01*
X9411015Y-14368674D02*
X9411015Y-14416293D01*
X9411015Y-14416293D02*
X9401491Y-14454388D01*
X9401491Y-14454388D02*
X9391968Y-14473436D01*
X9391968Y-14473436D02*
X9382444Y-14482960D01*
X9382444Y-14482960D02*
X9363396Y-14492484D01*
X9363396Y-14492484D02*
X9344348Y-14492484D01*
X9344348Y-14492484D02*
X9325301Y-14482960D01*
X9325301Y-14482960D02*
X9315777Y-14473436D01*
X9315777Y-14473436D02*
X9306253Y-14454388D01*
X9306253Y-14454388D02*
X9296729Y-14416293D01*
X9296729Y-14416293D02*
X9296729Y-14368674D01*
X9296729Y-14368674D02*
X9306253Y-14330579D01*
X9306253Y-14330579D02*
X9315777Y-14311531D01*
X9315777Y-14311531D02*
X9325301Y-14302008D01*
X9325301Y-14302008D02*
X9344348Y-14292484D01*
X9477682Y-14292484D02*
X9601491Y-14292484D01*
X9601491Y-14292484D02*
X9534825Y-14368674D01*
X9534825Y-14368674D02*
X9563396Y-14368674D01*
X9563396Y-14368674D02*
X9582444Y-14378198D01*
X9582444Y-14378198D02*
X9591968Y-14387722D01*
X9591968Y-14387722D02*
X9601491Y-14406769D01*
X9601491Y-14406769D02*
X9601491Y-14454388D01*
X9601491Y-14454388D02*
X9591968Y-14473436D01*
X9591968Y-14473436D02*
X9582444Y-14482960D01*
X9582444Y-14482960D02*
X9563396Y-14492484D01*
X9563396Y-14492484D02*
X9506253Y-14492484D01*
X9506253Y-14492484D02*
X9487206Y-14482960D01*
X9487206Y-14482960D02*
X9477682Y-14473436D01*
X9782444Y-14292484D02*
X9687206Y-14292484D01*
X9687206Y-14292484D02*
X9677682Y-14387722D01*
X9677682Y-14387722D02*
X9687206Y-14378198D01*
X9687206Y-14378198D02*
X9706253Y-14368674D01*
X9706253Y-14368674D02*
X9753872Y-14368674D01*
X9753872Y-14368674D02*
X9772920Y-14378198D01*
X9772920Y-14378198D02*
X9782444Y-14387722D01*
X9782444Y-14387722D02*
X9791968Y-14406769D01*
X9791968Y-14406769D02*
X9791968Y-14454388D01*
X9791968Y-14454388D02*
X9782444Y-14473436D01*
X9782444Y-14473436D02*
X9772920Y-14482960D01*
X9772920Y-14482960D02*
X9753872Y-14492484D01*
X9753872Y-14492484D02*
X9706253Y-14492484D01*
X9706253Y-14492484D02*
X9687206Y-14482960D01*
X9687206Y-14482960D02*
X9677682Y-14473436D01*
X9963396Y-14359150D02*
X9963396Y-14492484D01*
X9915777Y-14282960D02*
X9868158Y-14425817D01*
X9868158Y-14425817D02*
X9991968Y-14425817D01*
X10058634Y-14292484D02*
X10058634Y-14330579D01*
X10134825Y-14292484D02*
X10134825Y-14330579D01*
X10430063Y-14568674D02*
X10420539Y-14559150D01*
X10420539Y-14559150D02*
X10401491Y-14530579D01*
X10401491Y-14530579D02*
X10391968Y-14511531D01*
X10391968Y-14511531D02*
X10382444Y-14482960D01*
X10382444Y-14482960D02*
X10372920Y-14435341D01*
X10372920Y-14435341D02*
X10372920Y-14397246D01*
X10372920Y-14397246D02*
X10382444Y-14349627D01*
X10382444Y-14349627D02*
X10391968Y-14321055D01*
X10391968Y-14321055D02*
X10401491Y-14302008D01*
X10401491Y-14302008D02*
X10420539Y-14273436D01*
X10420539Y-14273436D02*
X10430063Y-14263912D01*
X10496730Y-14311531D02*
X10506253Y-14302008D01*
X10506253Y-14302008D02*
X10525301Y-14292484D01*
X10525301Y-14292484D02*
X10572920Y-14292484D01*
X10572920Y-14292484D02*
X10591968Y-14302008D01*
X10591968Y-14302008D02*
X10601491Y-14311531D01*
X10601491Y-14311531D02*
X10611015Y-14330579D01*
X10611015Y-14330579D02*
X10611015Y-14349627D01*
X10611015Y-14349627D02*
X10601491Y-14378198D01*
X10601491Y-14378198D02*
X10487206Y-14492484D01*
X10487206Y-14492484D02*
X10611015Y-14492484D01*
X10849111Y-14492484D02*
X10849111Y-14292484D01*
X10934825Y-14492484D02*
X10934825Y-14387722D01*
X10934825Y-14387722D02*
X10925301Y-14368674D01*
X10925301Y-14368674D02*
X10906253Y-14359150D01*
X10906253Y-14359150D02*
X10877682Y-14359150D01*
X10877682Y-14359150D02*
X10858634Y-14368674D01*
X10858634Y-14368674D02*
X10849111Y-14378198D01*
X11058634Y-14492484D02*
X11039587Y-14482960D01*
X11039587Y-14482960D02*
X11030063Y-14473436D01*
X11030063Y-14473436D02*
X11020539Y-14454388D01*
X11020539Y-14454388D02*
X11020539Y-14397246D01*
X11020539Y-14397246D02*
X11030063Y-14378198D01*
X11030063Y-14378198D02*
X11039587Y-14368674D01*
X11039587Y-14368674D02*
X11058634Y-14359150D01*
X11058634Y-14359150D02*
X11087206Y-14359150D01*
X11087206Y-14359150D02*
X11106253Y-14368674D01*
X11106253Y-14368674D02*
X11115777Y-14378198D01*
X11115777Y-14378198D02*
X11125301Y-14397246D01*
X11125301Y-14397246D02*
X11125301Y-14454388D01*
X11125301Y-14454388D02*
X11115777Y-14473436D01*
X11115777Y-14473436D02*
X11106253Y-14482960D01*
X11106253Y-14482960D02*
X11087206Y-14492484D01*
X11087206Y-14492484D02*
X11058634Y-14492484D01*
X11239587Y-14492484D02*
X11220539Y-14482960D01*
X11220539Y-14482960D02*
X11211015Y-14463912D01*
X11211015Y-14463912D02*
X11211015Y-14292484D01*
X11391968Y-14482960D02*
X11372920Y-14492484D01*
X11372920Y-14492484D02*
X11334825Y-14492484D01*
X11334825Y-14492484D02*
X11315777Y-14482960D01*
X11315777Y-14482960D02*
X11306253Y-14463912D01*
X11306253Y-14463912D02*
X11306253Y-14387722D01*
X11306253Y-14387722D02*
X11315777Y-14368674D01*
X11315777Y-14368674D02*
X11334825Y-14359150D01*
X11334825Y-14359150D02*
X11372920Y-14359150D01*
X11372920Y-14359150D02*
X11391968Y-14368674D01*
X11391968Y-14368674D02*
X11401491Y-14387722D01*
X11401491Y-14387722D02*
X11401491Y-14406769D01*
X11401491Y-14406769D02*
X11306253Y-14425817D01*
X11477682Y-14482960D02*
X11496730Y-14492484D01*
X11496730Y-14492484D02*
X11534825Y-14492484D01*
X11534825Y-14492484D02*
X11553872Y-14482960D01*
X11553872Y-14482960D02*
X11563396Y-14463912D01*
X11563396Y-14463912D02*
X11563396Y-14454388D01*
X11563396Y-14454388D02*
X11553872Y-14435341D01*
X11553872Y-14435341D02*
X11534825Y-14425817D01*
X11534825Y-14425817D02*
X11506253Y-14425817D01*
X11506253Y-14425817D02*
X11487206Y-14416293D01*
X11487206Y-14416293D02*
X11477682Y-14397246D01*
X11477682Y-14397246D02*
X11477682Y-14387722D01*
X11477682Y-14387722D02*
X11487206Y-14368674D01*
X11487206Y-14368674D02*
X11506253Y-14359150D01*
X11506253Y-14359150D02*
X11534825Y-14359150D01*
X11534825Y-14359150D02*
X11553872Y-14368674D01*
X11630063Y-14568674D02*
X11639587Y-14559150D01*
X11639587Y-14559150D02*
X11658634Y-14530579D01*
X11658634Y-14530579D02*
X11668158Y-14511531D01*
X11668158Y-14511531D02*
X11677682Y-14482960D01*
X11677682Y-14482960D02*
X11687206Y-14435341D01*
X11687206Y-14435341D02*
X11687206Y-14397246D01*
X11687206Y-14397246D02*
X11677682Y-14349627D01*
X11677682Y-14349627D02*
X11668158Y-14321055D01*
X11668158Y-14321055D02*
X11658634Y-14302008D01*
X11658634Y-14302008D02*
X11639587Y-14273436D01*
X11639587Y-14273436D02*
X11630063Y-14263912D01*
D10*
X6755000Y-14615000D02*
X6855000Y-14715000D01*
X6855000Y-14615000D02*
X6755000Y-14715000D01*
X6855000Y-14665000D02*
G75*
G03*
X6855000Y-14665000I-50000J0D01*
G01*
D11*
X7220539Y-14756484D02*
X7106253Y-14756484D01*
X7163396Y-14756484D02*
X7163396Y-14556484D01*
X7163396Y-14556484D02*
X7144348Y-14585055D01*
X7144348Y-14585055D02*
X7125301Y-14604103D01*
X7125301Y-14604103D02*
X7106253Y-14613627D01*
X7306253Y-14737436D02*
X7315777Y-14746960D01*
X7315777Y-14746960D02*
X7306253Y-14756484D01*
X7306253Y-14756484D02*
X7296729Y-14746960D01*
X7296729Y-14746960D02*
X7306253Y-14737436D01*
X7306253Y-14737436D02*
X7306253Y-14756484D01*
X7439586Y-14556484D02*
X7458634Y-14556484D01*
X7458634Y-14556484D02*
X7477682Y-14566008D01*
X7477682Y-14566008D02*
X7487205Y-14575531D01*
X7487205Y-14575531D02*
X7496729Y-14594579D01*
X7496729Y-14594579D02*
X7506253Y-14632674D01*
X7506253Y-14632674D02*
X7506253Y-14680293D01*
X7506253Y-14680293D02*
X7496729Y-14718388D01*
X7496729Y-14718388D02*
X7487205Y-14737436D01*
X7487205Y-14737436D02*
X7477682Y-14746960D01*
X7477682Y-14746960D02*
X7458634Y-14756484D01*
X7458634Y-14756484D02*
X7439586Y-14756484D01*
X7439586Y-14756484D02*
X7420539Y-14746960D01*
X7420539Y-14746960D02*
X7411015Y-14737436D01*
X7411015Y-14737436D02*
X7401491Y-14718388D01*
X7401491Y-14718388D02*
X7391967Y-14680293D01*
X7391967Y-14680293D02*
X7391967Y-14632674D01*
X7391967Y-14632674D02*
X7401491Y-14594579D01*
X7401491Y-14594579D02*
X7411015Y-14575531D01*
X7411015Y-14575531D02*
X7420539Y-14566008D01*
X7420539Y-14566008D02*
X7439586Y-14556484D01*
X7630062Y-14556484D02*
X7649110Y-14556484D01*
X7649110Y-14556484D02*
X7668158Y-14566008D01*
X7668158Y-14566008D02*
X7677682Y-14575531D01*
X7677682Y-14575531D02*
X7687205Y-14594579D01*
X7687205Y-14594579D02*
X7696729Y-14632674D01*
X7696729Y-14632674D02*
X7696729Y-14680293D01*
X7696729Y-14680293D02*
X7687205Y-14718388D01*
X7687205Y-14718388D02*
X7677682Y-14737436D01*
X7677682Y-14737436D02*
X7668158Y-14746960D01*
X7668158Y-14746960D02*
X7649110Y-14756484D01*
X7649110Y-14756484D02*
X7630062Y-14756484D01*
X7630062Y-14756484D02*
X7611015Y-14746960D01*
X7611015Y-14746960D02*
X7601491Y-14737436D01*
X7601491Y-14737436D02*
X7591967Y-14718388D01*
X7591967Y-14718388D02*
X7582443Y-14680293D01*
X7582443Y-14680293D02*
X7582443Y-14632674D01*
X7582443Y-14632674D02*
X7591967Y-14594579D01*
X7591967Y-14594579D02*
X7601491Y-14575531D01*
X7601491Y-14575531D02*
X7611015Y-14566008D01*
X7611015Y-14566008D02*
X7630062Y-14556484D01*
X7820539Y-14556484D02*
X7839586Y-14556484D01*
X7839586Y-14556484D02*
X7858634Y-14566008D01*
X7858634Y-14566008D02*
X7868158Y-14575531D01*
X7868158Y-14575531D02*
X7877682Y-14594579D01*
X7877682Y-14594579D02*
X7887205Y-14632674D01*
X7887205Y-14632674D02*
X7887205Y-14680293D01*
X7887205Y-14680293D02*
X7877682Y-14718388D01*
X7877682Y-14718388D02*
X7868158Y-14737436D01*
X7868158Y-14737436D02*
X7858634Y-14746960D01*
X7858634Y-14746960D02*
X7839586Y-14756484D01*
X7839586Y-14756484D02*
X7820539Y-14756484D01*
X7820539Y-14756484D02*
X7801491Y-14746960D01*
X7801491Y-14746960D02*
X7791967Y-14737436D01*
X7791967Y-14737436D02*
X7782443Y-14718388D01*
X7782443Y-14718388D02*
X7772920Y-14680293D01*
X7772920Y-14680293D02*
X7772920Y-14632674D01*
X7772920Y-14632674D02*
X7782443Y-14594579D01*
X7782443Y-14594579D02*
X7791967Y-14575531D01*
X7791967Y-14575531D02*
X7801491Y-14566008D01*
X7801491Y-14566008D02*
X7820539Y-14556484D01*
X7972920Y-14756484D02*
X7972920Y-14623150D01*
X7972920Y-14642198D02*
X7982443Y-14632674D01*
X7982443Y-14632674D02*
X8001491Y-14623150D01*
X8001491Y-14623150D02*
X8030063Y-14623150D01*
X8030063Y-14623150D02*
X8049110Y-14632674D01*
X8049110Y-14632674D02*
X8058634Y-14651722D01*
X8058634Y-14651722D02*
X8058634Y-14756484D01*
X8058634Y-14651722D02*
X8068158Y-14632674D01*
X8068158Y-14632674D02*
X8087205Y-14623150D01*
X8087205Y-14623150D02*
X8115777Y-14623150D01*
X8115777Y-14623150D02*
X8134824Y-14632674D01*
X8134824Y-14632674D02*
X8144348Y-14651722D01*
X8144348Y-14651722D02*
X8144348Y-14756484D01*
X8239586Y-14756484D02*
X8239586Y-14623150D01*
X8239586Y-14642198D02*
X8249110Y-14632674D01*
X8249110Y-14632674D02*
X8268158Y-14623150D01*
X8268158Y-14623150D02*
X8296729Y-14623150D01*
X8296729Y-14623150D02*
X8315777Y-14632674D01*
X8315777Y-14632674D02*
X8325301Y-14651722D01*
X8325301Y-14651722D02*
X8325301Y-14756484D01*
X8325301Y-14651722D02*
X8334824Y-14632674D01*
X8334824Y-14632674D02*
X8353872Y-14623150D01*
X8353872Y-14623150D02*
X8382443Y-14623150D01*
X8382443Y-14623150D02*
X8401491Y-14632674D01*
X8401491Y-14632674D02*
X8411015Y-14651722D01*
X8411015Y-14651722D02*
X8411015Y-14756484D01*
X8801491Y-14546960D02*
X8630063Y-14804103D01*
X9058634Y-14556484D02*
X9077682Y-14556484D01*
X9077682Y-14556484D02*
X9096729Y-14566008D01*
X9096729Y-14566008D02*
X9106253Y-14575531D01*
X9106253Y-14575531D02*
X9115777Y-14594579D01*
X9115777Y-14594579D02*
X9125301Y-14632674D01*
X9125301Y-14632674D02*
X9125301Y-14680293D01*
X9125301Y-14680293D02*
X9115777Y-14718388D01*
X9115777Y-14718388D02*
X9106253Y-14737436D01*
X9106253Y-14737436D02*
X9096729Y-14746960D01*
X9096729Y-14746960D02*
X9077682Y-14756484D01*
X9077682Y-14756484D02*
X9058634Y-14756484D01*
X9058634Y-14756484D02*
X9039587Y-14746960D01*
X9039587Y-14746960D02*
X9030063Y-14737436D01*
X9030063Y-14737436D02*
X9020539Y-14718388D01*
X9020539Y-14718388D02*
X9011015Y-14680293D01*
X9011015Y-14680293D02*
X9011015Y-14632674D01*
X9011015Y-14632674D02*
X9020539Y-14594579D01*
X9020539Y-14594579D02*
X9030063Y-14575531D01*
X9030063Y-14575531D02*
X9039587Y-14566008D01*
X9039587Y-14566008D02*
X9058634Y-14556484D01*
X9211015Y-14737436D02*
X9220539Y-14746960D01*
X9220539Y-14746960D02*
X9211015Y-14756484D01*
X9211015Y-14756484D02*
X9201491Y-14746960D01*
X9201491Y-14746960D02*
X9211015Y-14737436D01*
X9211015Y-14737436D02*
X9211015Y-14756484D01*
X9344348Y-14556484D02*
X9363396Y-14556484D01*
X9363396Y-14556484D02*
X9382444Y-14566008D01*
X9382444Y-14566008D02*
X9391968Y-14575531D01*
X9391968Y-14575531D02*
X9401491Y-14594579D01*
X9401491Y-14594579D02*
X9411015Y-14632674D01*
X9411015Y-14632674D02*
X9411015Y-14680293D01*
X9411015Y-14680293D02*
X9401491Y-14718388D01*
X9401491Y-14718388D02*
X9391968Y-14737436D01*
X9391968Y-14737436D02*
X9382444Y-14746960D01*
X9382444Y-14746960D02*
X9363396Y-14756484D01*
X9363396Y-14756484D02*
X9344348Y-14756484D01*
X9344348Y-14756484D02*
X9325301Y-14746960D01*
X9325301Y-14746960D02*
X9315777Y-14737436D01*
X9315777Y-14737436D02*
X9306253Y-14718388D01*
X9306253Y-14718388D02*
X9296729Y-14680293D01*
X9296729Y-14680293D02*
X9296729Y-14632674D01*
X9296729Y-14632674D02*
X9306253Y-14594579D01*
X9306253Y-14594579D02*
X9315777Y-14575531D01*
X9315777Y-14575531D02*
X9325301Y-14566008D01*
X9325301Y-14566008D02*
X9344348Y-14556484D01*
X9477682Y-14556484D02*
X9601491Y-14556484D01*
X9601491Y-14556484D02*
X9534825Y-14632674D01*
X9534825Y-14632674D02*
X9563396Y-14632674D01*
X9563396Y-14632674D02*
X9582444Y-14642198D01*
X9582444Y-14642198D02*
X9591968Y-14651722D01*
X9591968Y-14651722D02*
X9601491Y-14670769D01*
X9601491Y-14670769D02*
X9601491Y-14718388D01*
X9601491Y-14718388D02*
X9591968Y-14737436D01*
X9591968Y-14737436D02*
X9582444Y-14746960D01*
X9582444Y-14746960D02*
X9563396Y-14756484D01*
X9563396Y-14756484D02*
X9506253Y-14756484D01*
X9506253Y-14756484D02*
X9487206Y-14746960D01*
X9487206Y-14746960D02*
X9477682Y-14737436D01*
X9696729Y-14756484D02*
X9734825Y-14756484D01*
X9734825Y-14756484D02*
X9753872Y-14746960D01*
X9753872Y-14746960D02*
X9763396Y-14737436D01*
X9763396Y-14737436D02*
X9782444Y-14708865D01*
X9782444Y-14708865D02*
X9791968Y-14670769D01*
X9791968Y-14670769D02*
X9791968Y-14594579D01*
X9791968Y-14594579D02*
X9782444Y-14575531D01*
X9782444Y-14575531D02*
X9772920Y-14566008D01*
X9772920Y-14566008D02*
X9753872Y-14556484D01*
X9753872Y-14556484D02*
X9715777Y-14556484D01*
X9715777Y-14556484D02*
X9696729Y-14566008D01*
X9696729Y-14566008D02*
X9687206Y-14575531D01*
X9687206Y-14575531D02*
X9677682Y-14594579D01*
X9677682Y-14594579D02*
X9677682Y-14642198D01*
X9677682Y-14642198D02*
X9687206Y-14661246D01*
X9687206Y-14661246D02*
X9696729Y-14670769D01*
X9696729Y-14670769D02*
X9715777Y-14680293D01*
X9715777Y-14680293D02*
X9753872Y-14680293D01*
X9753872Y-14680293D02*
X9772920Y-14670769D01*
X9772920Y-14670769D02*
X9782444Y-14661246D01*
X9782444Y-14661246D02*
X9791968Y-14642198D01*
X9963396Y-14623150D02*
X9963396Y-14756484D01*
X9915777Y-14546960D02*
X9868158Y-14689817D01*
X9868158Y-14689817D02*
X9991968Y-14689817D01*
X10058634Y-14556484D02*
X10058634Y-14594579D01*
X10134825Y-14556484D02*
X10134825Y-14594579D01*
X10430063Y-14832674D02*
X10420539Y-14823150D01*
X10420539Y-14823150D02*
X10401491Y-14794579D01*
X10401491Y-14794579D02*
X10391968Y-14775531D01*
X10391968Y-14775531D02*
X10382444Y-14746960D01*
X10382444Y-14746960D02*
X10372920Y-14699341D01*
X10372920Y-14699341D02*
X10372920Y-14661246D01*
X10372920Y-14661246D02*
X10382444Y-14613627D01*
X10382444Y-14613627D02*
X10391968Y-14585055D01*
X10391968Y-14585055D02*
X10401491Y-14566008D01*
X10401491Y-14566008D02*
X10420539Y-14537436D01*
X10420539Y-14537436D02*
X10430063Y-14527912D01*
X10487206Y-14556484D02*
X10611015Y-14556484D01*
X10611015Y-14556484D02*
X10544349Y-14632674D01*
X10544349Y-14632674D02*
X10572920Y-14632674D01*
X10572920Y-14632674D02*
X10591968Y-14642198D01*
X10591968Y-14642198D02*
X10601491Y-14651722D01*
X10601491Y-14651722D02*
X10611015Y-14670769D01*
X10611015Y-14670769D02*
X10611015Y-14718388D01*
X10611015Y-14718388D02*
X10601491Y-14737436D01*
X10601491Y-14737436D02*
X10591968Y-14746960D01*
X10591968Y-14746960D02*
X10572920Y-14756484D01*
X10572920Y-14756484D02*
X10515777Y-14756484D01*
X10515777Y-14756484D02*
X10496730Y-14746960D01*
X10496730Y-14746960D02*
X10487206Y-14737436D01*
X10801491Y-14756484D02*
X10687206Y-14756484D01*
X10744349Y-14756484D02*
X10744349Y-14556484D01*
X10744349Y-14556484D02*
X10725301Y-14585055D01*
X10725301Y-14585055D02*
X10706253Y-14604103D01*
X10706253Y-14604103D02*
X10687206Y-14613627D01*
X11039587Y-14756484D02*
X11039587Y-14556484D01*
X11125301Y-14756484D02*
X11125301Y-14651722D01*
X11125301Y-14651722D02*
X11115777Y-14632674D01*
X11115777Y-14632674D02*
X11096730Y-14623150D01*
X11096730Y-14623150D02*
X11068158Y-14623150D01*
X11068158Y-14623150D02*
X11049111Y-14632674D01*
X11049111Y-14632674D02*
X11039587Y-14642198D01*
X11249110Y-14756484D02*
X11230063Y-14746960D01*
X11230063Y-14746960D02*
X11220539Y-14737436D01*
X11220539Y-14737436D02*
X11211015Y-14718388D01*
X11211015Y-14718388D02*
X11211015Y-14661246D01*
X11211015Y-14661246D02*
X11220539Y-14642198D01*
X11220539Y-14642198D02*
X11230063Y-14632674D01*
X11230063Y-14632674D02*
X11249110Y-14623150D01*
X11249110Y-14623150D02*
X11277682Y-14623150D01*
X11277682Y-14623150D02*
X11296730Y-14632674D01*
X11296730Y-14632674D02*
X11306253Y-14642198D01*
X11306253Y-14642198D02*
X11315777Y-14661246D01*
X11315777Y-14661246D02*
X11315777Y-14718388D01*
X11315777Y-14718388D02*
X11306253Y-14737436D01*
X11306253Y-14737436D02*
X11296730Y-14746960D01*
X11296730Y-14746960D02*
X11277682Y-14756484D01*
X11277682Y-14756484D02*
X11249110Y-14756484D01*
X11430063Y-14756484D02*
X11411015Y-14746960D01*
X11411015Y-14746960D02*
X11401491Y-14727912D01*
X11401491Y-14727912D02*
X11401491Y-14556484D01*
X11582444Y-14746960D02*
X11563396Y-14756484D01*
X11563396Y-14756484D02*
X11525301Y-14756484D01*
X11525301Y-14756484D02*
X11506253Y-14746960D01*
X11506253Y-14746960D02*
X11496730Y-14727912D01*
X11496730Y-14727912D02*
X11496730Y-14651722D01*
X11496730Y-14651722D02*
X11506253Y-14632674D01*
X11506253Y-14632674D02*
X11525301Y-14623150D01*
X11525301Y-14623150D02*
X11563396Y-14623150D01*
X11563396Y-14623150D02*
X11582444Y-14632674D01*
X11582444Y-14632674D02*
X11591968Y-14651722D01*
X11591968Y-14651722D02*
X11591968Y-14670769D01*
X11591968Y-14670769D02*
X11496730Y-14689817D01*
X11668158Y-14746960D02*
X11687206Y-14756484D01*
X11687206Y-14756484D02*
X11725301Y-14756484D01*
X11725301Y-14756484D02*
X11744349Y-14746960D01*
X11744349Y-14746960D02*
X11753872Y-14727912D01*
X11753872Y-14727912D02*
X11753872Y-14718388D01*
X11753872Y-14718388D02*
X11744349Y-14699341D01*
X11744349Y-14699341D02*
X11725301Y-14689817D01*
X11725301Y-14689817D02*
X11696730Y-14689817D01*
X11696730Y-14689817D02*
X11677682Y-14680293D01*
X11677682Y-14680293D02*
X11668158Y-14661246D01*
X11668158Y-14661246D02*
X11668158Y-14651722D01*
X11668158Y-14651722D02*
X11677682Y-14632674D01*
X11677682Y-14632674D02*
X11696730Y-14623150D01*
X11696730Y-14623150D02*
X11725301Y-14623150D01*
X11725301Y-14623150D02*
X11744349Y-14632674D01*
X11820539Y-14832674D02*
X11830063Y-14823150D01*
X11830063Y-14823150D02*
X11849111Y-14794579D01*
X11849111Y-14794579D02*
X11858634Y-14775531D01*
X11858634Y-14775531D02*
X11868158Y-14746960D01*
X11868158Y-14746960D02*
X11877682Y-14699341D01*
X11877682Y-14699341D02*
X11877682Y-14661246D01*
X11877682Y-14661246D02*
X11868158Y-14613627D01*
X11868158Y-14613627D02*
X11858634Y-14585055D01*
X11858634Y-14585055D02*
X11849111Y-14566008D01*
X11849111Y-14566008D02*
X11830063Y-14537436D01*
X11830063Y-14537436D02*
X11820539Y-14527912D01*
D17*
X6735000Y-14869000D02*
X6855000Y-14989000D01*
X6855000Y-14869000D02*
X6735000Y-14989000D01*
X6795000Y-14869000D02*
X6795000Y-14989000D01*
X6735000Y-14929000D02*
X6855000Y-14929000D01*
D11*
X7220539Y-15020484D02*
X7106253Y-15020484D01*
X7163396Y-15020484D02*
X7163396Y-14820484D01*
X7163396Y-14820484D02*
X7144348Y-14849055D01*
X7144348Y-14849055D02*
X7125301Y-14868103D01*
X7125301Y-14868103D02*
X7106253Y-14877627D01*
X7306253Y-15001436D02*
X7315777Y-15010960D01*
X7315777Y-15010960D02*
X7306253Y-15020484D01*
X7306253Y-15020484D02*
X7296729Y-15010960D01*
X7296729Y-15010960D02*
X7306253Y-15001436D01*
X7306253Y-15001436D02*
X7306253Y-15020484D01*
X7391967Y-14839531D02*
X7401491Y-14830008D01*
X7401491Y-14830008D02*
X7420539Y-14820484D01*
X7420539Y-14820484D02*
X7468158Y-14820484D01*
X7468158Y-14820484D02*
X7487205Y-14830008D01*
X7487205Y-14830008D02*
X7496729Y-14839531D01*
X7496729Y-14839531D02*
X7506253Y-14858579D01*
X7506253Y-14858579D02*
X7506253Y-14877627D01*
X7506253Y-14877627D02*
X7496729Y-14906198D01*
X7496729Y-14906198D02*
X7382443Y-15020484D01*
X7382443Y-15020484D02*
X7506253Y-15020484D01*
X7630062Y-14820484D02*
X7649110Y-14820484D01*
X7649110Y-14820484D02*
X7668158Y-14830008D01*
X7668158Y-14830008D02*
X7677682Y-14839531D01*
X7677682Y-14839531D02*
X7687205Y-14858579D01*
X7687205Y-14858579D02*
X7696729Y-14896674D01*
X7696729Y-14896674D02*
X7696729Y-14944293D01*
X7696729Y-14944293D02*
X7687205Y-14982388D01*
X7687205Y-14982388D02*
X7677682Y-15001436D01*
X7677682Y-15001436D02*
X7668158Y-15010960D01*
X7668158Y-15010960D02*
X7649110Y-15020484D01*
X7649110Y-15020484D02*
X7630062Y-15020484D01*
X7630062Y-15020484D02*
X7611015Y-15010960D01*
X7611015Y-15010960D02*
X7601491Y-15001436D01*
X7601491Y-15001436D02*
X7591967Y-14982388D01*
X7591967Y-14982388D02*
X7582443Y-14944293D01*
X7582443Y-14944293D02*
X7582443Y-14896674D01*
X7582443Y-14896674D02*
X7591967Y-14858579D01*
X7591967Y-14858579D02*
X7601491Y-14839531D01*
X7601491Y-14839531D02*
X7611015Y-14830008D01*
X7611015Y-14830008D02*
X7630062Y-14820484D01*
X7820539Y-14820484D02*
X7839586Y-14820484D01*
X7839586Y-14820484D02*
X7858634Y-14830008D01*
X7858634Y-14830008D02*
X7868158Y-14839531D01*
X7868158Y-14839531D02*
X7877682Y-14858579D01*
X7877682Y-14858579D02*
X7887205Y-14896674D01*
X7887205Y-14896674D02*
X7887205Y-14944293D01*
X7887205Y-14944293D02*
X7877682Y-14982388D01*
X7877682Y-14982388D02*
X7868158Y-15001436D01*
X7868158Y-15001436D02*
X7858634Y-15010960D01*
X7858634Y-15010960D02*
X7839586Y-15020484D01*
X7839586Y-15020484D02*
X7820539Y-15020484D01*
X7820539Y-15020484D02*
X7801491Y-15010960D01*
X7801491Y-15010960D02*
X7791967Y-15001436D01*
X7791967Y-15001436D02*
X7782443Y-14982388D01*
X7782443Y-14982388D02*
X7772920Y-14944293D01*
X7772920Y-14944293D02*
X7772920Y-14896674D01*
X7772920Y-14896674D02*
X7782443Y-14858579D01*
X7782443Y-14858579D02*
X7791967Y-14839531D01*
X7791967Y-14839531D02*
X7801491Y-14830008D01*
X7801491Y-14830008D02*
X7820539Y-14820484D01*
X7972920Y-15020484D02*
X7972920Y-14887150D01*
X7972920Y-14906198D02*
X7982443Y-14896674D01*
X7982443Y-14896674D02*
X8001491Y-14887150D01*
X8001491Y-14887150D02*
X8030063Y-14887150D01*
X8030063Y-14887150D02*
X8049110Y-14896674D01*
X8049110Y-14896674D02*
X8058634Y-14915722D01*
X8058634Y-14915722D02*
X8058634Y-15020484D01*
X8058634Y-14915722D02*
X8068158Y-14896674D01*
X8068158Y-14896674D02*
X8087205Y-14887150D01*
X8087205Y-14887150D02*
X8115777Y-14887150D01*
X8115777Y-14887150D02*
X8134824Y-14896674D01*
X8134824Y-14896674D02*
X8144348Y-14915722D01*
X8144348Y-14915722D02*
X8144348Y-15020484D01*
X8239586Y-15020484D02*
X8239586Y-14887150D01*
X8239586Y-14906198D02*
X8249110Y-14896674D01*
X8249110Y-14896674D02*
X8268158Y-14887150D01*
X8268158Y-14887150D02*
X8296729Y-14887150D01*
X8296729Y-14887150D02*
X8315777Y-14896674D01*
X8315777Y-14896674D02*
X8325301Y-14915722D01*
X8325301Y-14915722D02*
X8325301Y-15020484D01*
X8325301Y-14915722D02*
X8334824Y-14896674D01*
X8334824Y-14896674D02*
X8353872Y-14887150D01*
X8353872Y-14887150D02*
X8382443Y-14887150D01*
X8382443Y-14887150D02*
X8401491Y-14896674D01*
X8401491Y-14896674D02*
X8411015Y-14915722D01*
X8411015Y-14915722D02*
X8411015Y-15020484D01*
X8801491Y-14810960D02*
X8630063Y-15068103D01*
X9058634Y-14820484D02*
X9077682Y-14820484D01*
X9077682Y-14820484D02*
X9096729Y-14830008D01*
X9096729Y-14830008D02*
X9106253Y-14839531D01*
X9106253Y-14839531D02*
X9115777Y-14858579D01*
X9115777Y-14858579D02*
X9125301Y-14896674D01*
X9125301Y-14896674D02*
X9125301Y-14944293D01*
X9125301Y-14944293D02*
X9115777Y-14982388D01*
X9115777Y-14982388D02*
X9106253Y-15001436D01*
X9106253Y-15001436D02*
X9096729Y-15010960D01*
X9096729Y-15010960D02*
X9077682Y-15020484D01*
X9077682Y-15020484D02*
X9058634Y-15020484D01*
X9058634Y-15020484D02*
X9039587Y-15010960D01*
X9039587Y-15010960D02*
X9030063Y-15001436D01*
X9030063Y-15001436D02*
X9020539Y-14982388D01*
X9020539Y-14982388D02*
X9011015Y-14944293D01*
X9011015Y-14944293D02*
X9011015Y-14896674D01*
X9011015Y-14896674D02*
X9020539Y-14858579D01*
X9020539Y-14858579D02*
X9030063Y-14839531D01*
X9030063Y-14839531D02*
X9039587Y-14830008D01*
X9039587Y-14830008D02*
X9058634Y-14820484D01*
X9211015Y-15001436D02*
X9220539Y-15010960D01*
X9220539Y-15010960D02*
X9211015Y-15020484D01*
X9211015Y-15020484D02*
X9201491Y-15010960D01*
X9201491Y-15010960D02*
X9211015Y-15001436D01*
X9211015Y-15001436D02*
X9211015Y-15020484D01*
X9344348Y-14820484D02*
X9363396Y-14820484D01*
X9363396Y-14820484D02*
X9382444Y-14830008D01*
X9382444Y-14830008D02*
X9391968Y-14839531D01*
X9391968Y-14839531D02*
X9401491Y-14858579D01*
X9401491Y-14858579D02*
X9411015Y-14896674D01*
X9411015Y-14896674D02*
X9411015Y-14944293D01*
X9411015Y-14944293D02*
X9401491Y-14982388D01*
X9401491Y-14982388D02*
X9391968Y-15001436D01*
X9391968Y-15001436D02*
X9382444Y-15010960D01*
X9382444Y-15010960D02*
X9363396Y-15020484D01*
X9363396Y-15020484D02*
X9344348Y-15020484D01*
X9344348Y-15020484D02*
X9325301Y-15010960D01*
X9325301Y-15010960D02*
X9315777Y-15001436D01*
X9315777Y-15001436D02*
X9306253Y-14982388D01*
X9306253Y-14982388D02*
X9296729Y-14944293D01*
X9296729Y-14944293D02*
X9296729Y-14896674D01*
X9296729Y-14896674D02*
X9306253Y-14858579D01*
X9306253Y-14858579D02*
X9315777Y-14839531D01*
X9315777Y-14839531D02*
X9325301Y-14830008D01*
X9325301Y-14830008D02*
X9344348Y-14820484D01*
X9582444Y-14887150D02*
X9582444Y-15020484D01*
X9534825Y-14810960D02*
X9487206Y-14953817D01*
X9487206Y-14953817D02*
X9611015Y-14953817D01*
X9668158Y-14820484D02*
X9801491Y-14820484D01*
X9801491Y-14820484D02*
X9715777Y-15020484D01*
X9868158Y-14839531D02*
X9877682Y-14830008D01*
X9877682Y-14830008D02*
X9896729Y-14820484D01*
X9896729Y-14820484D02*
X9944349Y-14820484D01*
X9944349Y-14820484D02*
X9963396Y-14830008D01*
X9963396Y-14830008D02*
X9972920Y-14839531D01*
X9972920Y-14839531D02*
X9982444Y-14858579D01*
X9982444Y-14858579D02*
X9982444Y-14877627D01*
X9982444Y-14877627D02*
X9972920Y-14906198D01*
X9972920Y-14906198D02*
X9858634Y-15020484D01*
X9858634Y-15020484D02*
X9982444Y-15020484D01*
X10058634Y-14820484D02*
X10058634Y-14858579D01*
X10134825Y-14820484D02*
X10134825Y-14858579D01*
X10430063Y-15096674D02*
X10420539Y-15087150D01*
X10420539Y-15087150D02*
X10401491Y-15058579D01*
X10401491Y-15058579D02*
X10391968Y-15039531D01*
X10391968Y-15039531D02*
X10382444Y-15010960D01*
X10382444Y-15010960D02*
X10372920Y-14963341D01*
X10372920Y-14963341D02*
X10372920Y-14925246D01*
X10372920Y-14925246D02*
X10382444Y-14877627D01*
X10382444Y-14877627D02*
X10391968Y-14849055D01*
X10391968Y-14849055D02*
X10401491Y-14830008D01*
X10401491Y-14830008D02*
X10420539Y-14801436D01*
X10420539Y-14801436D02*
X10430063Y-14791912D01*
X10496730Y-14839531D02*
X10506253Y-14830008D01*
X10506253Y-14830008D02*
X10525301Y-14820484D01*
X10525301Y-14820484D02*
X10572920Y-14820484D01*
X10572920Y-14820484D02*
X10591968Y-14830008D01*
X10591968Y-14830008D02*
X10601491Y-14839531D01*
X10601491Y-14839531D02*
X10611015Y-14858579D01*
X10611015Y-14858579D02*
X10611015Y-14877627D01*
X10611015Y-14877627D02*
X10601491Y-14906198D01*
X10601491Y-14906198D02*
X10487206Y-15020484D01*
X10487206Y-15020484D02*
X10611015Y-15020484D01*
X10849111Y-15020484D02*
X10849111Y-14820484D01*
X10934825Y-15020484D02*
X10934825Y-14915722D01*
X10934825Y-14915722D02*
X10925301Y-14896674D01*
X10925301Y-14896674D02*
X10906253Y-14887150D01*
X10906253Y-14887150D02*
X10877682Y-14887150D01*
X10877682Y-14887150D02*
X10858634Y-14896674D01*
X10858634Y-14896674D02*
X10849111Y-14906198D01*
X11058634Y-15020484D02*
X11039587Y-15010960D01*
X11039587Y-15010960D02*
X11030063Y-15001436D01*
X11030063Y-15001436D02*
X11020539Y-14982388D01*
X11020539Y-14982388D02*
X11020539Y-14925246D01*
X11020539Y-14925246D02*
X11030063Y-14906198D01*
X11030063Y-14906198D02*
X11039587Y-14896674D01*
X11039587Y-14896674D02*
X11058634Y-14887150D01*
X11058634Y-14887150D02*
X11087206Y-14887150D01*
X11087206Y-14887150D02*
X11106253Y-14896674D01*
X11106253Y-14896674D02*
X11115777Y-14906198D01*
X11115777Y-14906198D02*
X11125301Y-14925246D01*
X11125301Y-14925246D02*
X11125301Y-14982388D01*
X11125301Y-14982388D02*
X11115777Y-15001436D01*
X11115777Y-15001436D02*
X11106253Y-15010960D01*
X11106253Y-15010960D02*
X11087206Y-15020484D01*
X11087206Y-15020484D02*
X11058634Y-15020484D01*
X11239587Y-15020484D02*
X11220539Y-15010960D01*
X11220539Y-15010960D02*
X11211015Y-14991912D01*
X11211015Y-14991912D02*
X11211015Y-14820484D01*
X11391968Y-15010960D02*
X11372920Y-15020484D01*
X11372920Y-15020484D02*
X11334825Y-15020484D01*
X11334825Y-15020484D02*
X11315777Y-15010960D01*
X11315777Y-15010960D02*
X11306253Y-14991912D01*
X11306253Y-14991912D02*
X11306253Y-14915722D01*
X11306253Y-14915722D02*
X11315777Y-14896674D01*
X11315777Y-14896674D02*
X11334825Y-14887150D01*
X11334825Y-14887150D02*
X11372920Y-14887150D01*
X11372920Y-14887150D02*
X11391968Y-14896674D01*
X11391968Y-14896674D02*
X11401491Y-14915722D01*
X11401491Y-14915722D02*
X11401491Y-14934769D01*
X11401491Y-14934769D02*
X11306253Y-14953817D01*
X11477682Y-15010960D02*
X11496730Y-15020484D01*
X11496730Y-15020484D02*
X11534825Y-15020484D01*
X11534825Y-15020484D02*
X11553872Y-15010960D01*
X11553872Y-15010960D02*
X11563396Y-14991912D01*
X11563396Y-14991912D02*
X11563396Y-14982388D01*
X11563396Y-14982388D02*
X11553872Y-14963341D01*
X11553872Y-14963341D02*
X11534825Y-14953817D01*
X11534825Y-14953817D02*
X11506253Y-14953817D01*
X11506253Y-14953817D02*
X11487206Y-14944293D01*
X11487206Y-14944293D02*
X11477682Y-14925246D01*
X11477682Y-14925246D02*
X11477682Y-14915722D01*
X11477682Y-14915722D02*
X11487206Y-14896674D01*
X11487206Y-14896674D02*
X11506253Y-14887150D01*
X11506253Y-14887150D02*
X11534825Y-14887150D01*
X11534825Y-14887150D02*
X11553872Y-14896674D01*
X11630063Y-15096674D02*
X11639587Y-15087150D01*
X11639587Y-15087150D02*
X11658634Y-15058579D01*
X11658634Y-15058579D02*
X11668158Y-15039531D01*
X11668158Y-15039531D02*
X11677682Y-15010960D01*
X11677682Y-15010960D02*
X11687206Y-14963341D01*
X11687206Y-14963341D02*
X11687206Y-14925246D01*
X11687206Y-14925246D02*
X11677682Y-14877627D01*
X11677682Y-14877627D02*
X11668158Y-14849055D01*
X11668158Y-14849055D02*
X11658634Y-14830008D01*
X11658634Y-14830008D02*
X11639587Y-14801436D01*
X11639587Y-14801436D02*
X11630063Y-14791912D01*
M02*
