M48
; DRILL file {KiCad 7.0.1-3b83917a11~172~ubuntu22.04.1} date Thu 06 Apr 2023 09:49:15 PM MDT
; FORMAT={-:-/ absolute / metric / decimal}
; #@! TF.CreationDate,2023-04-06T21:49:15-06:00
; #@! TF.GenerationSoftware,Kicad,Pcbnew,7.0.1-3b83917a11~172~ubuntu22.04.1
; #@! TF.FileFunction,Plated,1,4,PTH
FMAT,2
METRIC
; #@! TA.AperFunction,Plated,PTH,ViaDrill
T1C0.400
; #@! TA.AperFunction,Plated,PTH,ComponentDrill
T2C0.500
; #@! TA.AperFunction,Plated,PTH,ViaDrill
T3C0.600
; #@! TA.AperFunction,Plated,PTH,ComponentDrill
T4C0.700
; #@! TA.AperFunction,Plated,PTH,ComponentDrill
T5C0.900
; #@! TA.AperFunction,Plated,PTH,ComponentDrill
T6C1.000
; #@! TA.AperFunction,Plated,PTH,ComponentDrill
T7C1.200
%
G90
G05
T1
X71.4Y-95.1
X75.0Y-102.0
X79.5Y-102.2
X79.5Y-108.7
X84.0Y-81.9
X84.95Y-60.4
X85.4Y-74.3
X85.7Y-77.8
X86.1Y-84.2
X86.2Y-94.1
X86.3Y-75.1
X87.3Y-60.4
X87.9Y-97.9
X88.0Y-81.6
X89.08Y-82.275
X89.1Y-66.9
X89.1Y-74.4
X89.1Y-86.6
X89.9Y-87.9
X91.6Y-120.2
X94.9Y-81.7
X94.9Y-93.2
X95.2Y-97.5
X95.9Y-113.1
X96.5Y-110.8
X96.686Y-108.725
X97.5Y-113.8
X100.214Y-97.044
X101.5Y-106.55
X101.5Y-92.626
X102.5Y-125.6
X102.7Y-106.55
X102.7Y-108.3
X104.1Y-92.2
X105.1Y-86.9
X105.2Y-109.6
X106.051Y-90.8
X106.051Y-99.7
X106.1Y-64.3
X106.1Y-113.3
X106.6Y-107.5
X106.625Y-95.413
X106.8Y-100.4
X106.9Y-62.9
X106.9Y-89.9
X107.0Y-121.188
X107.1Y-118.6
X107.2Y-94.7
X107.4Y-112.2
X107.511Y-66.924
X107.6Y-86.6
X107.625Y-88.9
X107.774Y-97.424
X107.774Y-99.753
X108.0Y-102.7
X108.1Y-113.7
X108.2Y-83.4
X108.458Y-86.3
X108.56Y-99.274
X108.865Y-98.064
X108.9Y-111.8
X108.9Y-114.9
X109.1Y-85.6
X109.174Y-82.673
X109.674Y-83.455
X110.1Y-121.2
X110.23Y-85.626
X110.26Y-95.974
X110.3Y-103.3
X110.4Y-94.7
X110.475Y-112.697
X110.6Y-83.6
X110.8Y-106.9
X110.8Y-109.0
X110.9Y-88.225
X110.966Y-121.724
X111.0Y-117.3
X111.5Y-102.2
X111.5Y-105.3
X111.5Y-109.7
X111.6Y-120.8
X111.835Y-98.319
X111.9Y-83.4
X112.0Y-92.6
X112.6Y-94.274
X112.6Y-120.9
X112.8Y-110.4
X112.962Y-105.418
X112.969Y-89.374
X113.137Y-118.984
X113.6Y-108.7
X113.7Y-121.6
X114.0Y-97.474
X114.0Y-115.5
X114.0Y-116.4
X114.65Y-89.374
X114.7Y-94.1
X115.2Y-108.7
X115.7Y-84.8
X115.7Y-92.2
X115.8Y-83.5
X116.3Y-96.9
X116.4Y-105.3
X116.5Y-86.874
X116.5Y-109.1
X116.9Y-65.1
X116.9Y-66.2
X116.9Y-111.8
X116.9Y-115.4
X117.0Y-97.9
X117.1Y-69.6
X117.1Y-88.3
X117.2Y-94.0
X117.9Y-59.4
X118.0Y-62.0
X118.1Y-110.4
X118.1Y-115.4
X118.6Y-87.6
X118.6Y-95.9
X119.3Y-110.1
X119.3Y-117.6
X119.8Y-125.65
X120.2Y-120.0
X121.6Y-85.525
X121.6Y-100.8
X122.5Y-85.1
X122.5Y-101.7
X143.6Y-99.3
X143.9Y-105.9
X144.2Y-87.3
X144.3Y-88.9
X146.2Y-103.1
X148.0Y-106.2
X149.1Y-103.8
X150.3Y-102.1
X150.4Y-89.4
T2
X74.6Y-105.875
X74.6Y-107.125
T3
X81.3Y-67.4
X89.632Y-107.6
X89.632Y-110.1
T4
X88.0Y-121.9
X90.5Y-121.9
X93.0Y-121.9
T5
X108.6Y-122.8
X113.6Y-122.8
T6
X77.6Y-84.168
X77.6Y-89.168
X79.468Y-71.9
X79.7Y-111.845
X79.7Y-114.385
X79.7Y-116.925
X84.468Y-71.9
X84.5Y-87.925
X84.5Y-90.465
X84.5Y-93.005
X84.5Y-95.545
X84.5Y-98.085
X84.5Y-100.625
X84.5Y-103.165
X84.5Y-105.705
X88.8Y-95.1
X89.632Y-102.8
X91.34Y-95.1
X93.88Y-95.1
X94.632Y-102.8
X96.42Y-95.1
X96.52Y-90.3
X97.82Y-85.3
X98.96Y-95.1
X99.06Y-90.3
X100.36Y-85.3
X101.5Y-95.1
X101.6Y-90.3
X102.9Y-85.3
X104.04Y-95.1
X104.14Y-90.3
T7
X107.6Y-125.5
X114.6Y-125.5
T0
M30
