%TF.GenerationSoftware,KiCad,Pcbnew,7.0.1-3b83917a11~172~ubuntu22.04.1*%
%TF.CreationDate,2023-04-06T21:51:21-06:00*%
%TF.ProjectId,gps-tracker,6770732d-7472-4616-936b-65722e6b6963,rev?*%
%TF.SameCoordinates,Original*%
%TF.FileFunction,Soldermask,Top*%
%TF.FilePolarity,Negative*%
%FSLAX46Y46*%
G04 Gerber Fmt 4.6, Leading zero omitted, Abs format (unit mm)*
G04 Created by KiCad (PCBNEW 7.0.1-3b83917a11~172~ubuntu22.04.1) date 2023-04-06 21:51:21*
%MOMM*%
%LPD*%
G01*
G04 APERTURE LIST*
G04 Aperture macros list*
%AMRoundRect*
0 Rectangle with rounded corners*
0 $1 Rounding radius*
0 $2 $3 $4 $5 $6 $7 $8 $9 X,Y pos of 4 corners*
0 Add a 4 corners polygon primitive as box body*
4,1,4,$2,$3,$4,$5,$6,$7,$8,$9,$2,$3,0*
0 Add four circle primitives for the rounded corners*
1,1,$1+$1,$2,$3*
1,1,$1+$1,$4,$5*
1,1,$1+$1,$6,$7*
1,1,$1+$1,$8,$9*
0 Add four rect primitives between the rounded corners*
20,1,$1+$1,$2,$3,$4,$5,0*
20,1,$1+$1,$4,$5,$6,$7,0*
20,1,$1+$1,$6,$7,$8,$9,0*
20,1,$1+$1,$8,$9,$2,$3,0*%
G04 Aperture macros list end*
%ADD10C,1.508000*%
%ADD11C,1.900000*%
%ADD12C,1.800000*%
%ADD13RoundRect,0.050000X-0.850000X-0.850000X0.850000X-0.850000X0.850000X0.850000X-0.850000X0.850000X0*%
%ADD14RoundRect,0.050000X0.850000X-0.850000X0.850000X0.850000X-0.850000X0.850000X-0.850000X-0.850000X0*%
%ADD15O,1.800000X1.800000*%
%ADD16RoundRect,0.050000X0.500000X-0.500000X0.500000X0.500000X-0.500000X0.500000X-0.500000X-0.500000X0*%
%ADD17C,1.100000*%
%ADD18RoundRect,0.125000X0.250000X0.075000X-0.250000X0.075000X-0.250000X-0.075000X0.250000X-0.075000X0*%
%ADD19RoundRect,0.050000X0.750000X-1.000000X0.750000X1.000000X-0.750000X1.000000X-0.750000X-1.000000X0*%
%ADD20RoundRect,0.050000X-1.000000X-0.750000X1.000000X-0.750000X1.000000X0.750000X-1.000000X0.750000X0*%
%ADD21C,3.300000*%
%ADD22RoundRect,0.050000X-0.750000X1.000000X-0.750000X-1.000000X0.750000X-1.000000X0.750000X1.000000X0*%
%ADD23RoundRect,0.190000X0.170000X-0.140000X0.170000X0.140000X-0.170000X0.140000X-0.170000X-0.140000X0*%
%ADD24O,2.600000X1.100000*%
%ADD25RoundRect,0.050000X-1.250000X-1.125000X1.250000X-1.125000X1.250000X1.125000X-1.250000X1.125000X0*%
%ADD26RoundRect,0.050000X-1.000000X-1.000000X1.000000X-1.000000X1.000000X1.000000X-1.000000X1.000000X0*%
%ADD27C,2.100000*%
%ADD28RoundRect,0.050000X-0.850000X0.850000X-0.850000X-0.850000X0.850000X-0.850000X0.850000X0.850000X0*%
%ADD29C,1.600000*%
%ADD30RoundRect,0.050000X1.000000X-1.000000X1.000000X1.000000X-1.000000X1.000000X-1.000000X-1.000000X0*%
%ADD31RoundRect,0.050000X1.000000X1.000000X-1.000000X1.000000X-1.000000X-1.000000X1.000000X-1.000000X0*%
G04 APERTURE END LIST*
D10*
%TO.C,J1*%
X113600000Y-122800000D03*
X108600000Y-122800000D03*
D11*
X114600000Y-125500000D03*
X107600000Y-125500000D03*
%TD*%
D12*
%TO.C,J4*%
X79700000Y-111845000D03*
X79700000Y-114385000D03*
D13*
X79700000Y-116925000D03*
%TD*%
D14*
%TO.C,J6*%
X102900000Y-85300000D03*
D15*
X100360000Y-85300000D03*
X97820000Y-85300000D03*
%TD*%
D16*
%TO.C,J7*%
X74600000Y-107125000D03*
D17*
X74600000Y-105875000D03*
%TD*%
D13*
%TO.C,J3*%
X84500000Y-87925000D03*
D15*
X84500000Y-90465000D03*
X84500000Y-93005000D03*
X84500000Y-95545000D03*
X84500000Y-98085000D03*
X84500000Y-100625000D03*
X84500000Y-103165000D03*
X84500000Y-105705000D03*
%TD*%
D18*
%TO.C,U3*%
X85600000Y-77040000D03*
X85600000Y-76390000D03*
X85600000Y-75740000D03*
X83800000Y-75740000D03*
X83800000Y-76390000D03*
X83800000Y-77040000D03*
%TD*%
D19*
%TO.C,SW3*%
X146150000Y-100300000D03*
X146150000Y-93300000D03*
X150650000Y-100300000D03*
X150650000Y-93300000D03*
%TD*%
D20*
%TO.C,SW5*%
X97230000Y-121150000D03*
X104230000Y-121150000D03*
X97230000Y-125650000D03*
X104230000Y-125650000D03*
%TD*%
D21*
%TO.C,H3*%
X140300000Y-123300000D03*
%TD*%
D22*
%TO.C,SW1*%
X75950000Y-93300000D03*
X75950000Y-100300000D03*
X71450000Y-93300000D03*
X71450000Y-100300000D03*
%TD*%
D21*
%TO.C,H2*%
X81700000Y-123300000D03*
%TD*%
%TO.C,H1*%
X84900000Y-56000000D03*
%TD*%
D23*
%TO.C,C31*%
X117800000Y-66160000D03*
X117800000Y-65200000D03*
%TD*%
D24*
%TO.C,U6*%
X119900000Y-59400000D03*
X119900000Y-61940000D03*
X119900000Y-64480000D03*
X119900000Y-67020000D03*
X119900000Y-69560000D03*
X119900000Y-72100000D03*
X135400000Y-72100000D03*
X135400000Y-69560000D03*
X135400000Y-67020000D03*
X135400000Y-64480000D03*
X135400000Y-61940000D03*
D25*
X135400000Y-58775000D03*
%TD*%
D20*
%TO.C,SW4*%
X117870000Y-121150000D03*
X124870000Y-121150000D03*
X117870000Y-125650000D03*
X124870000Y-125650000D03*
%TD*%
D26*
%TO.C,C16*%
X89632323Y-102800000D03*
D27*
X94632323Y-102800000D03*
%TD*%
D28*
%TO.C,J5*%
X96520000Y-90300000D03*
D15*
X99060000Y-90300000D03*
X101600000Y-90300000D03*
X104140000Y-90300000D03*
%TD*%
D29*
%TO.C,SW6*%
X88000000Y-121900000D03*
X90500000Y-121900000D03*
X93000000Y-121900000D03*
%TD*%
D28*
%TO.C,J2*%
X88800000Y-95100000D03*
D15*
X91340000Y-95100000D03*
X93880000Y-95100000D03*
X96420000Y-95100000D03*
X98960000Y-95100000D03*
X101500000Y-95100000D03*
X104040000Y-95100000D03*
%TD*%
D30*
%TO.C,C19*%
X77600000Y-89167677D03*
D27*
X77600000Y-84167677D03*
%TD*%
D31*
%TO.C,C3*%
X84467677Y-71900000D03*
D27*
X79467677Y-71900000D03*
%TD*%
G36*
X74458172Y-106404310D02*
G01*
X74600000Y-106422982D01*
X74741827Y-106404310D01*
X74830404Y-106367620D01*
X74832338Y-106367845D01*
X74833164Y-106369609D01*
X74832098Y-106371239D01*
X74731751Y-106423906D01*
X74768874Y-106574521D01*
X74768506Y-106576233D01*
X74766932Y-106577000D01*
X74433069Y-106577000D01*
X74431495Y-106576233D01*
X74431127Y-106574521D01*
X74468248Y-106423906D01*
X74367898Y-106371238D01*
X74366832Y-106369608D01*
X74367658Y-106367844D01*
X74369592Y-106367619D01*
X74458172Y-106404310D01*
G37*
M02*
