%TF.GenerationSoftware,KiCad,Pcbnew,7.0.1-3b83917a11~172~ubuntu22.04.1*%
%TF.CreationDate,2023-04-06T21:51:21-06:00*%
%TF.ProjectId,gps-tracker,6770732d-7472-4616-936b-65722e6b6963,rev?*%
%TF.SameCoordinates,Original*%
%TF.FileFunction,Copper,L3,Inr*%
%TF.FilePolarity,Positive*%
%FSLAX46Y46*%
G04 Gerber Fmt 4.6, Leading zero omitted, Abs format (unit mm)*
G04 Created by KiCad (PCBNEW 7.0.1-3b83917a11~172~ubuntu22.04.1) date 2023-04-06 21:51:21*
%MOMM*%
%LPD*%
G01*
G04 APERTURE LIST*
%TA.AperFunction,ComponentPad*%
%ADD10C,1.408000*%
%TD*%
%TA.AperFunction,ComponentPad*%
%ADD11C,1.800000*%
%TD*%
%TA.AperFunction,ComponentPad*%
%ADD12C,1.700000*%
%TD*%
%TA.AperFunction,ComponentPad*%
%ADD13R,1.700000X1.700000*%
%TD*%
%TA.AperFunction,ComponentPad*%
%ADD14O,1.700000X1.700000*%
%TD*%
%TA.AperFunction,ComponentPad*%
%ADD15R,1.000000X1.000000*%
%TD*%
%TA.AperFunction,ComponentPad*%
%ADD16C,1.000000*%
%TD*%
%TA.AperFunction,ComponentPad*%
%ADD17R,2.000000X2.000000*%
%TD*%
%TA.AperFunction,ComponentPad*%
%ADD18C,2.000000*%
%TD*%
%TA.AperFunction,ComponentPad*%
%ADD19C,1.500000*%
%TD*%
%TA.AperFunction,ViaPad*%
%ADD20C,0.700000*%
%TD*%
%TA.AperFunction,ViaPad*%
%ADD21C,0.600000*%
%TD*%
%TA.AperFunction,ViaPad*%
%ADD22C,1.000000*%
%TD*%
G04 APERTURE END LIST*
D10*
%TO.N,N/C*%
%TO.C,J1*%
X113600000Y-122800000D03*
X108600000Y-122800000D03*
D11*
X114600000Y-125500000D03*
X107600000Y-125500000D03*
%TD*%
D12*
%TO.N,unconnected-(J4-Pin_3-Pad3)*%
%TO.C,J4*%
X79700000Y-111845000D03*
%TO.N,GND*%
X79700000Y-114385000D03*
D13*
%TO.N,Net-(J4-Pin_1)*%
X79700000Y-116925000D03*
%TD*%
%TO.N,VCC*%
%TO.C,J6*%
X102900000Y-85300000D03*
D14*
%TO.N,Net-(J6-Pin_2)*%
X100360000Y-85300000D03*
%TO.N,/BATT_DIRECT*%
X97820000Y-85300000D03*
%TD*%
D15*
%TO.N,GND*%
%TO.C,J7*%
X74600000Y-107125000D03*
D16*
%TO.N,Net-(J4-Pin_1)*%
X74600000Y-105875000D03*
%TD*%
D13*
%TO.N,GND*%
%TO.C,J3*%
X84500000Y-87925000D03*
D14*
%TO.N,VCC*%
X84500000Y-90465000D03*
%TO.N,/SCREEN_DC*%
X84500000Y-93005000D03*
%TO.N,/SCREEN_CS*%
X84500000Y-95545000D03*
%TO.N,/SCK*%
X84500000Y-98085000D03*
%TO.N,/MOSI*%
X84500000Y-100625000D03*
%TO.N,/SCREEN_RESETN*%
X84500000Y-103165000D03*
%TO.N,/SCREEN_BLK*%
X84500000Y-105705000D03*
%TD*%
D17*
%TO.N,+BATT*%
%TO.C,C16*%
X89632323Y-102800000D03*
D18*
%TO.N,GND*%
X94632323Y-102800000D03*
%TD*%
D13*
%TO.N,VCC*%
%TO.C,J5*%
X96520000Y-90300000D03*
D14*
%TO.N,GND*%
X99060000Y-90300000D03*
%TO.N,/SWDIO*%
X101600000Y-90300000D03*
%TO.N,/BOOT0*%
X104140000Y-90300000D03*
%TD*%
D19*
%TO.N,/BATT_DIRECT*%
%TO.C,SW6*%
X88000000Y-121900000D03*
%TO.N,+BATT*%
X90500000Y-121900000D03*
%TO.N,unconnected-(SW6-A-Pad1)*%
X93000000Y-121900000D03*
%TD*%
D13*
%TO.N,GND*%
%TO.C,J2*%
X88800000Y-95100000D03*
D14*
%TO.N,VCC*%
X91340000Y-95100000D03*
%TO.N,+BATT*%
X93880000Y-95100000D03*
%TO.N,Net-(J2-Pin_4)*%
X96420000Y-95100000D03*
%TO.N,Net-(J2-Pin_5)*%
X98960000Y-95100000D03*
%TO.N,/SCL*%
X101500000Y-95100000D03*
%TO.N,/SDA*%
X104040000Y-95100000D03*
%TD*%
D17*
%TO.N,VCC*%
%TO.C,C19*%
X77600000Y-89167677D03*
D18*
%TO.N,GND*%
X77600000Y-84167677D03*
%TD*%
D17*
%TO.N,/RADIO_PWR*%
%TO.C,C3*%
X84467677Y-71900000D03*
D18*
%TO.N,GND*%
X79467677Y-71900000D03*
%TD*%
D20*
%TO.N,/SCK*%
X108457868Y-86300000D03*
%TO.N,/MOSI*%
X106051000Y-90800000D03*
%TO.N,/MISO*%
X106900000Y-89900000D03*
%TO.N,/SCK*%
X108200000Y-83400000D03*
%TO.N,/RADIO_BUSY*%
X109174500Y-82673452D03*
X109100000Y-85600000D03*
X122500000Y-101700000D03*
X122500000Y-85100000D03*
%TO.N,/RADIO_DIO1*%
X109674500Y-83455300D03*
X110230202Y-85625500D03*
X121600000Y-100800000D03*
X121600000Y-85525500D03*
%TO.N,/GPS_TX*%
X106800000Y-100400000D03*
X117900000Y-59400000D03*
X107200000Y-94700000D03*
X110400000Y-94700000D03*
X110600000Y-83600000D03*
%TO.N,/GPS_RX*%
X107625500Y-88900000D03*
X111900000Y-83400000D03*
X118000000Y-62000000D03*
X110899834Y-88225500D03*
X107774500Y-97423665D03*
%TO.N,VCC*%
X115800000Y-83500000D03*
X115700000Y-84800000D03*
%TO.N,/RADIO_RXEN*%
X89100000Y-66900000D03*
%TO.N,/SCL*%
X89100000Y-74400000D03*
X85400000Y-74300000D03*
%TO.N,/RADIO_RXEN*%
X94900000Y-81700000D03*
X94900000Y-93200000D03*
X88000000Y-81600000D03*
%TO.N,VCC*%
X86100000Y-84200000D03*
%TO.N,/SDA*%
X84000000Y-81900000D03*
X89080149Y-82274500D03*
%TO.N,/SW1*%
X79500000Y-102200000D03*
X79500000Y-108700000D03*
X110800000Y-109000000D03*
X110800000Y-106900000D03*
%TO.N,GND*%
X102700000Y-106550000D03*
X101500000Y-106550000D03*
%TO.N,/SW4*%
X116500000Y-109100000D03*
X116400000Y-105300000D03*
X96500000Y-110800000D03*
X96685611Y-108725500D03*
%TO.N,/RADIO_CS*%
X116500000Y-86874500D03*
X117000000Y-97900000D03*
X107600000Y-86600000D03*
X107511276Y-66923743D03*
%TO.N,/MISO*%
X106625500Y-95412669D03*
X106900000Y-62900000D03*
%TO.N,/MOSI*%
X106051000Y-99700000D03*
X106100000Y-64300000D03*
%TO.N,/COMPASS_CS*%
X149100000Y-103800000D03*
X150400000Y-89400000D03*
%TO.N,/SW3*%
X111500000Y-105300000D03*
X111500000Y-109700000D03*
%TO.N,Net-(U1-NRST)*%
X112800000Y-110400000D03*
X112962254Y-105417989D03*
X118100000Y-115400000D03*
X118100000Y-110400000D03*
%TO.N,Net-(R7-Pad2)*%
X97500000Y-113800000D03*
%TO.N,/BOOT0*%
X118600000Y-95900000D03*
X118600000Y-87600000D03*
X105100000Y-86900000D03*
%TO.N,/SWDIO*%
X117100000Y-88300000D03*
X117200000Y-94000000D03*
%TO.N,/BATT_DIRECT*%
X95900000Y-113100000D03*
%TO.N,Net-(R1-Pad2)*%
X75000000Y-102000000D03*
%TO.N,GND*%
X71400000Y-95100000D03*
%TO.N,/SCREEN_BLK*%
X87900000Y-97900000D03*
%TO.N,/SCREEN_RESETN*%
X86200000Y-94100000D03*
%TO.N,/SCK*%
X108560064Y-99274500D03*
X111500000Y-102200000D03*
%TO.N,/SCREEN_CS*%
X110259600Y-95974500D03*
X116300000Y-96900000D03*
%TO.N,Net-(J2-Pin_5)*%
X100213508Y-97043780D03*
%TO.N,Net-(J2-Pin_4)*%
X95200000Y-97500000D03*
%TO.N,/SDA*%
X89100000Y-86600000D03*
%TO.N,/SCL*%
X89900000Y-87900000D03*
X112000000Y-92600000D03*
X112600000Y-94274000D03*
%TO.N,/SDA*%
X114700000Y-94100000D03*
X115700000Y-92200000D03*
%TO.N,/SCL*%
X101500001Y-92625500D03*
%TO.N,Net-(R3-Pad2)*%
X146200000Y-103100000D03*
%TO.N,GND*%
X150300000Y-102100000D03*
X148000000Y-106200000D03*
%TO.N,/LED*%
X143600000Y-99300000D03*
X143900000Y-105900000D03*
%TO.N,/SW3*%
X119300000Y-117600000D03*
X119300000Y-110100000D03*
%TO.N,/BOOT0*%
X114000000Y-97474500D03*
%TO.N,/AUX1*%
X111834635Y-98319184D03*
%TO.N,/BOOT0*%
X111000000Y-117300000D03*
%TO.N,GND*%
X119800000Y-125650000D03*
X102500000Y-125600000D03*
%TO.N,Net-(R5-Pad2)*%
X120200000Y-120000000D03*
%TO.N,/~{DTR}*%
X116900000Y-115400000D03*
X108900000Y-111800000D03*
X116900000Y-111800000D03*
X108900000Y-114900000D03*
%TO.N,GND*%
X105200000Y-109600000D03*
%TO.N,Net-(U2-TXD)*%
X108000000Y-102700000D03*
X108100000Y-113700000D03*
D21*
%TO.N,/USART_TX*%
X110475500Y-112697080D03*
D20*
X110300000Y-103300000D03*
%TO.N,VBUS*%
X113700000Y-121600000D03*
%TO.N,/VBATT_DIV*%
X107400000Y-112200000D03*
X107774500Y-99753215D03*
%TO.N,VBUS*%
X106100000Y-113300000D03*
%TO.N,/SDA*%
X104100000Y-92200000D03*
%TO.N,VCC*%
X112969085Y-89374500D03*
X114649728Y-89374500D03*
%TO.N,/AUX1*%
X108864526Y-98063677D03*
%TO.N,GND*%
X144300000Y-88900000D03*
%TO.N,VCC*%
X144200000Y-87300000D03*
%TO.N,GND*%
X114000000Y-116400000D03*
%TO.N,VCC*%
X114000000Y-115500000D03*
X115200000Y-108700000D03*
%TO.N,GND*%
X113600000Y-108700000D03*
%TO.N,VCC*%
X102700000Y-108300000D03*
X106600000Y-107500000D03*
D22*
%TO.N,+BATT*%
X89632323Y-110100000D03*
X89632323Y-107600000D03*
X81300000Y-67400000D03*
D20*
%TO.N,GND*%
X86300000Y-75100000D03*
%TO.N,VCC*%
X85700000Y-77800000D03*
%TO.N,/RADIO_PWR*%
X84950500Y-60400000D03*
X87300000Y-60400000D03*
%TO.N,Net-(U6-V_BCKP)*%
X117100000Y-69600000D03*
%TO.N,VCC*%
X116900000Y-66200000D03*
%TO.N,GND*%
X116900000Y-65100000D03*
X107100000Y-118600000D03*
X91600000Y-120200000D03*
%TO.N,VBUS*%
X107000000Y-121187636D03*
X113136589Y-118983905D03*
D21*
%TO.N,/USB-*%
X111600000Y-120800000D03*
X110100000Y-121200000D03*
%TO.N,/USB+*%
X110966223Y-121724500D03*
X112600000Y-120900000D03*
%TD*%
%TA.AperFunction,Conductor*%
%TO.N,GND*%
G36*
X139810382Y-52411563D02*
G01*
X139852445Y-52442778D01*
X139877865Y-52488575D01*
X143835816Y-65564472D01*
X150753262Y-88417666D01*
X150755465Y-88481209D01*
X150725886Y-88537490D01*
X150672301Y-88571713D01*
X150608799Y-88574880D01*
X150489393Y-88549500D01*
X150489391Y-88549500D01*
X150310609Y-88549500D01*
X150310607Y-88549500D01*
X150135735Y-88586669D01*
X149972408Y-88659387D01*
X149827768Y-88764474D01*
X149708140Y-88897334D01*
X149618749Y-89052164D01*
X149563503Y-89222195D01*
X149544815Y-89400000D01*
X149563503Y-89577804D01*
X149618749Y-89747835D01*
X149708140Y-89902665D01*
X149827771Y-90035527D01*
X149972403Y-90140610D01*
X149972406Y-90140611D01*
X149972407Y-90140612D01*
X150078459Y-90187829D01*
X150135735Y-90213330D01*
X150310607Y-90250500D01*
X150310609Y-90250500D01*
X150489391Y-90250500D01*
X150489393Y-90250500D01*
X150664264Y-90213330D01*
X150664265Y-90213329D01*
X150664267Y-90213329D01*
X150827593Y-90140612D01*
X150972230Y-90035526D01*
X151027727Y-89973890D01*
X151082155Y-89938740D01*
X151146883Y-89935840D01*
X151204237Y-89965983D01*
X151238558Y-90020939D01*
X152633062Y-94627967D01*
X152981894Y-95780408D01*
X152994682Y-95822654D01*
X153000000Y-95858578D01*
X153000000Y-97606612D01*
X152993123Y-97647333D01*
X151722172Y-101302830D01*
X142886391Y-126716222D01*
X142860278Y-126759721D01*
X142818930Y-126789121D01*
X142769268Y-126799500D01*
X115571757Y-126799500D01*
X115512739Y-126784555D01*
X115467948Y-126743322D01*
X115448181Y-126685740D01*
X115458201Y-126625690D01*
X115495594Y-126577647D01*
X115551784Y-126533913D01*
X115708979Y-126363153D01*
X115835924Y-126168849D01*
X115929157Y-125956300D01*
X115986134Y-125731305D01*
X116005300Y-125500000D01*
X115986134Y-125268695D01*
X115929157Y-125043700D01*
X115835924Y-124831151D01*
X115708979Y-124636847D01*
X115551784Y-124466087D01*
X115368626Y-124323530D01*
X115164503Y-124213064D01*
X115164499Y-124213062D01*
X115164498Y-124213062D01*
X114944984Y-124137702D01*
X114773282Y-124109050D01*
X114716049Y-124099500D01*
X114483951Y-124099500D01*
X114438164Y-124107140D01*
X114255015Y-124137702D01*
X114035501Y-124213062D01*
X113831372Y-124323531D01*
X113648215Y-124466087D01*
X113491020Y-124636848D01*
X113364076Y-124831150D01*
X113270844Y-125043696D01*
X113270842Y-125043700D01*
X113270843Y-125043700D01*
X113253786Y-125111058D01*
X113213865Y-125268700D01*
X113194699Y-125500000D01*
X113213865Y-125731299D01*
X113213865Y-125731301D01*
X113213866Y-125731305D01*
X113270843Y-125956300D01*
X113364076Y-126168849D01*
X113491021Y-126363153D01*
X113648216Y-126533913D01*
X113704405Y-126577647D01*
X113741799Y-126625690D01*
X113751819Y-126685740D01*
X113732052Y-126743322D01*
X113687261Y-126784555D01*
X113628243Y-126799500D01*
X108571757Y-126799500D01*
X108512739Y-126784555D01*
X108467948Y-126743322D01*
X108448181Y-126685740D01*
X108458201Y-126625690D01*
X108495594Y-126577647D01*
X108551784Y-126533913D01*
X108708979Y-126363153D01*
X108835924Y-126168849D01*
X108929157Y-125956300D01*
X108986134Y-125731305D01*
X109005300Y-125500000D01*
X108986134Y-125268695D01*
X108929157Y-125043700D01*
X108835924Y-124831151D01*
X108708979Y-124636847D01*
X108551784Y-124466087D01*
X108368626Y-124323530D01*
X108164503Y-124213064D01*
X108164499Y-124213062D01*
X108164498Y-124213062D01*
X107944984Y-124137702D01*
X107773282Y-124109050D01*
X107716049Y-124099500D01*
X107483951Y-124099500D01*
X107438164Y-124107140D01*
X107255015Y-124137702D01*
X107035501Y-124213062D01*
X106831372Y-124323531D01*
X106648215Y-124466087D01*
X106491020Y-124636848D01*
X106364076Y-124831150D01*
X106270844Y-125043696D01*
X106270842Y-125043700D01*
X106270843Y-125043700D01*
X106253786Y-125111058D01*
X106213865Y-125268700D01*
X106194699Y-125500000D01*
X106213865Y-125731299D01*
X106213865Y-125731301D01*
X106213866Y-125731305D01*
X106270843Y-125956300D01*
X106364076Y-126168849D01*
X106491021Y-126363153D01*
X106648216Y-126533913D01*
X106704405Y-126577647D01*
X106741799Y-126625690D01*
X106751819Y-126685740D01*
X106732052Y-126743322D01*
X106687261Y-126784555D01*
X106628243Y-126799500D01*
X79330732Y-126799500D01*
X79281070Y-126789121D01*
X79239722Y-126759721D01*
X79213609Y-126716222D01*
X78049410Y-123367764D01*
X79845787Y-123367764D01*
X79875413Y-123637016D01*
X79875414Y-123637018D01*
X79943928Y-123899088D01*
X79997720Y-124025670D01*
X80049871Y-124148392D01*
X80190982Y-124379611D01*
X80280253Y-124486881D01*
X80364255Y-124587820D01*
X80565998Y-124768582D01*
X80791910Y-124918044D01*
X80898211Y-124967875D01*
X81037177Y-125033021D01*
X81296562Y-125111058D01*
X81296569Y-125111060D01*
X81564561Y-125150500D01*
X81767631Y-125150500D01*
X81767634Y-125150500D01*
X81970156Y-125135677D01*
X81970155Y-125135677D01*
X82234553Y-125076780D01*
X82487558Y-124980014D01*
X82723777Y-124847441D01*
X82938177Y-124681888D01*
X83126186Y-124486881D01*
X83283799Y-124266579D01*
X83407656Y-124025675D01*
X83495118Y-123769305D01*
X83544319Y-123502933D01*
X83554212Y-123232235D01*
X83524586Y-122962982D01*
X83456072Y-122700912D01*
X83350130Y-122451610D01*
X83209018Y-122220390D01*
X83209017Y-122220388D01*
X83035746Y-122012181D01*
X83014269Y-121992938D01*
X82910543Y-121899999D01*
X86744722Y-121899999D01*
X86763792Y-122117974D01*
X86820425Y-122329331D01*
X86832075Y-122354314D01*
X86912898Y-122527639D01*
X87038402Y-122706877D01*
X87193123Y-122861598D01*
X87372361Y-122987102D01*
X87570670Y-123079575D01*
X87782023Y-123136207D01*
X88000000Y-123155277D01*
X88217977Y-123136207D01*
X88429330Y-123079575D01*
X88627639Y-122987102D01*
X88806877Y-122861598D01*
X88961598Y-122706877D01*
X89087102Y-122527639D01*
X89137618Y-122419306D01*
X89183375Y-122367131D01*
X89250000Y-122347712D01*
X89316625Y-122367131D01*
X89362381Y-122419306D01*
X89412898Y-122527639D01*
X89538402Y-122706877D01*
X89693123Y-122861598D01*
X89872361Y-122987102D01*
X90070670Y-123079575D01*
X90282023Y-123136207D01*
X90500000Y-123155277D01*
X90717977Y-123136207D01*
X90929330Y-123079575D01*
X91127639Y-122987102D01*
X91306877Y-122861598D01*
X91461598Y-122706877D01*
X91587102Y-122527639D01*
X91637618Y-122419306D01*
X91683375Y-122367131D01*
X91750000Y-122347712D01*
X91816625Y-122367131D01*
X91862381Y-122419306D01*
X91912898Y-122527639D01*
X92038402Y-122706877D01*
X92193123Y-122861598D01*
X92372361Y-122987102D01*
X92570670Y-123079575D01*
X92782023Y-123136207D01*
X93000000Y-123155277D01*
X93217977Y-123136207D01*
X93429330Y-123079575D01*
X93627639Y-122987102D01*
X93806877Y-122861598D01*
X93961598Y-122706877D01*
X94087102Y-122527639D01*
X94179575Y-122329330D01*
X94236207Y-122117977D01*
X94255277Y-121900000D01*
X94254616Y-121892450D01*
X94246435Y-121798933D01*
X94236207Y-121682023D01*
X94179575Y-121470670D01*
X94087102Y-121272362D01*
X94027776Y-121187636D01*
X106144815Y-121187636D01*
X106163503Y-121365440D01*
X106218749Y-121535471D01*
X106308140Y-121690301D01*
X106427771Y-121823163D01*
X106572403Y-121928246D01*
X106572406Y-121928247D01*
X106572407Y-121928248D01*
X106644438Y-121960318D01*
X106735735Y-122000966D01*
X106910607Y-122038136D01*
X106910609Y-122038136D01*
X107089391Y-122038136D01*
X107089393Y-122038136D01*
X107264264Y-122000966D01*
X107264265Y-122000965D01*
X107264267Y-122000965D01*
X107427593Y-121928248D01*
X107465987Y-121900352D01*
X107531543Y-121876886D01*
X107599411Y-121892450D01*
X107648191Y-121942138D01*
X107662501Y-122010282D01*
X107637829Y-122075395D01*
X107571523Y-122163198D01*
X107472025Y-122363019D01*
X107410936Y-122577723D01*
X107390340Y-122800000D01*
X107410936Y-123022276D01*
X107472025Y-123236980D01*
X107571523Y-123436801D01*
X107706050Y-123614944D01*
X107857620Y-123753117D01*
X107871017Y-123765330D01*
X107877437Y-123769305D01*
X108060804Y-123882841D01*
X108060806Y-123882841D01*
X108060808Y-123882843D01*
X108268961Y-123963482D01*
X108488387Y-124004500D01*
X108711611Y-124004500D01*
X108711613Y-124004500D01*
X108931039Y-123963482D01*
X109139192Y-123882843D01*
X109328983Y-123765330D01*
X109493950Y-123614943D01*
X109628474Y-123436804D01*
X109628474Y-123436802D01*
X109628476Y-123436801D01*
X109727974Y-123236980D01*
X109789063Y-123022276D01*
X109794557Y-122962982D01*
X109809660Y-122800000D01*
X109789063Y-122577726D01*
X109789063Y-122577723D01*
X109727974Y-122363019D01*
X109628476Y-122163198D01*
X109584333Y-122104744D01*
X109559801Y-122041296D01*
X109572433Y-121974453D01*
X109618427Y-121924333D01*
X109683940Y-121906019D01*
X109737174Y-121921506D01*
X109737291Y-121921174D01*
X109743503Y-121923347D01*
X109749256Y-121925021D01*
X109750478Y-121925789D01*
X109920745Y-121985368D01*
X109980496Y-121992100D01*
X110099994Y-122005565D01*
X110099996Y-122005564D01*
X110100000Y-122005565D01*
X110113795Y-122004010D01*
X110168625Y-122010185D01*
X110215350Y-122039538D01*
X110230555Y-122063728D01*
X110233001Y-122062192D01*
X110336408Y-122226764D01*
X110463958Y-122354314D01*
X110463960Y-122354315D01*
X110463961Y-122354316D01*
X110616701Y-122450289D01*
X110786968Y-122509868D01*
X110966223Y-122530065D01*
X111145478Y-122509868D01*
X111315745Y-122450289D01*
X111468485Y-122354316D01*
X111596039Y-122226762D01*
X111692012Y-122074022D01*
X111751591Y-121903755D01*
X111771788Y-121724500D01*
X111768061Y-121691424D01*
X111774239Y-121636587D01*
X111803599Y-121589859D01*
X111850324Y-121560499D01*
X111949522Y-121525789D01*
X111954450Y-121522692D01*
X112020421Y-121503684D01*
X112086396Y-121522690D01*
X112129101Y-121549523D01*
X112250478Y-121625789D01*
X112420745Y-121685368D01*
X112555186Y-121700515D01*
X112599999Y-121705565D01*
X112599999Y-121705564D01*
X112600000Y-121705565D01*
X112629315Y-121702262D01*
X112690744Y-121695341D01*
X112751854Y-121703906D01*
X112801268Y-121740865D01*
X112826750Y-121797064D01*
X112821990Y-121858587D01*
X112788166Y-121910198D01*
X112706050Y-121985055D01*
X112571523Y-122163198D01*
X112472025Y-122363019D01*
X112410936Y-122577723D01*
X112390340Y-122800000D01*
X112410936Y-123022276D01*
X112472025Y-123236980D01*
X112571523Y-123436801D01*
X112706050Y-123614944D01*
X112857620Y-123753117D01*
X112871017Y-123765330D01*
X112877437Y-123769305D01*
X113060804Y-123882841D01*
X113060806Y-123882841D01*
X113060808Y-123882843D01*
X113268961Y-123963482D01*
X113488387Y-124004500D01*
X113711611Y-124004500D01*
X113711613Y-124004500D01*
X113931039Y-123963482D01*
X114139192Y-123882843D01*
X114328983Y-123765330D01*
X114493950Y-123614943D01*
X114628474Y-123436804D01*
X114628474Y-123436802D01*
X114628476Y-123436801D01*
X114662852Y-123367764D01*
X138445787Y-123367764D01*
X138475413Y-123637016D01*
X138475414Y-123637018D01*
X138543928Y-123899088D01*
X138597720Y-124025670D01*
X138649871Y-124148392D01*
X138790982Y-124379611D01*
X138880253Y-124486881D01*
X138964255Y-124587820D01*
X139165998Y-124768582D01*
X139391910Y-124918044D01*
X139498211Y-124967875D01*
X139637177Y-125033021D01*
X139896562Y-125111058D01*
X139896569Y-125111060D01*
X140164561Y-125150500D01*
X140367631Y-125150500D01*
X140367634Y-125150500D01*
X140570156Y-125135677D01*
X140570155Y-125135677D01*
X140834553Y-125076780D01*
X141087558Y-124980014D01*
X141323777Y-124847441D01*
X141538177Y-124681888D01*
X141726186Y-124486881D01*
X141883799Y-124266579D01*
X142007656Y-124025675D01*
X142095118Y-123769305D01*
X142144319Y-123502933D01*
X142154212Y-123232235D01*
X142124586Y-122962982D01*
X142056072Y-122700912D01*
X141950130Y-122451610D01*
X141809018Y-122220390D01*
X141809017Y-122220388D01*
X141635746Y-122012181D01*
X141614269Y-121992938D01*
X141434002Y-121831418D01*
X141208090Y-121681956D01*
X141208086Y-121681954D01*
X140962822Y-121566978D01*
X140703437Y-121488941D01*
X140703431Y-121488940D01*
X140435439Y-121449500D01*
X140232369Y-121449500D01*
X140232366Y-121449500D01*
X140029843Y-121464322D01*
X139765449Y-121523219D01*
X139512441Y-121619986D01*
X139276223Y-121752559D01*
X139061825Y-121918109D01*
X138873813Y-122113120D01*
X138716201Y-122333420D01*
X138592342Y-122574329D01*
X138504881Y-122830695D01*
X138455680Y-123097066D01*
X138445787Y-123367764D01*
X114662852Y-123367764D01*
X114727974Y-123236980D01*
X114789063Y-123022276D01*
X114794557Y-122962982D01*
X114809660Y-122800000D01*
X114789063Y-122577726D01*
X114789063Y-122577723D01*
X114727974Y-122363019D01*
X114628476Y-122163198D01*
X114553359Y-122063728D01*
X114515562Y-122013676D01*
X114492228Y-121959479D01*
X114496585Y-121900637D01*
X114536497Y-121777803D01*
X114555185Y-121600000D01*
X114536497Y-121422197D01*
X114507840Y-121334001D01*
X114481250Y-121252164D01*
X114391859Y-121097334D01*
X114272228Y-120964472D01*
X114127596Y-120859389D01*
X113964264Y-120786669D01*
X113789393Y-120749500D01*
X113789391Y-120749500D01*
X113610609Y-120749500D01*
X113610607Y-120749500D01*
X113517096Y-120769376D01*
X113458028Y-120767535D01*
X113406521Y-120738562D01*
X113374275Y-120689043D01*
X113325789Y-120550478D01*
X113229816Y-120397738D01*
X113229815Y-120397737D01*
X113229814Y-120397735D01*
X113102264Y-120270185D01*
X112955240Y-120177804D01*
X112949522Y-120174211D01*
X112779255Y-120114632D01*
X112779253Y-120114631D01*
X112779251Y-120114631D01*
X112599999Y-120094434D01*
X112420748Y-120114631D01*
X112420745Y-120114631D01*
X112420745Y-120114632D01*
X112250478Y-120174211D01*
X112250477Y-120174211D01*
X112250470Y-120174214D01*
X112245540Y-120177312D01*
X112179571Y-120196315D01*
X112113602Y-120177309D01*
X112028399Y-120123772D01*
X111949522Y-120074211D01*
X111779255Y-120014632D01*
X111779253Y-120014631D01*
X111779251Y-120014631D01*
X111649390Y-119999999D01*
X119344815Y-119999999D01*
X119363503Y-120177804D01*
X119418749Y-120347835D01*
X119508140Y-120502665D01*
X119568936Y-120570185D01*
X119626644Y-120634276D01*
X119627771Y-120635527D01*
X119772403Y-120740610D01*
X119772406Y-120740611D01*
X119772407Y-120740612D01*
X119875853Y-120786669D01*
X119935735Y-120813330D01*
X120110607Y-120850500D01*
X120110609Y-120850500D01*
X120289391Y-120850500D01*
X120289393Y-120850500D01*
X120464264Y-120813330D01*
X120464265Y-120813329D01*
X120464267Y-120813329D01*
X120627593Y-120740612D01*
X120772230Y-120635526D01*
X120891859Y-120502665D01*
X120981250Y-120347835D01*
X121036497Y-120177803D01*
X121055185Y-120000000D01*
X121036497Y-119822197D01*
X120981250Y-119652165D01*
X120981250Y-119652164D01*
X120891859Y-119497334D01*
X120772228Y-119364472D01*
X120627596Y-119259389D01*
X120464264Y-119186669D01*
X120289393Y-119149500D01*
X120289391Y-119149500D01*
X120110609Y-119149500D01*
X120110607Y-119149500D01*
X119935735Y-119186669D01*
X119772408Y-119259387D01*
X119627768Y-119364474D01*
X119508140Y-119497334D01*
X119418749Y-119652164D01*
X119363503Y-119822195D01*
X119344815Y-119999999D01*
X111649390Y-119999999D01*
X111600000Y-119994434D01*
X111420748Y-120014631D01*
X111420745Y-120014631D01*
X111420745Y-120014632D01*
X111250478Y-120074211D01*
X111250476Y-120074211D01*
X111250476Y-120074212D01*
X111097735Y-120170185D01*
X110970185Y-120297735D01*
X110874209Y-120450480D01*
X110837867Y-120554340D01*
X110803453Y-120605845D01*
X110748418Y-120634276D01*
X110686498Y-120632539D01*
X110633145Y-120601066D01*
X110602264Y-120570185D01*
X110494806Y-120502665D01*
X110449522Y-120474211D01*
X110279255Y-120414632D01*
X110279253Y-120414631D01*
X110279251Y-120414631D01*
X110100000Y-120394434D01*
X109920748Y-120414631D01*
X109920745Y-120414631D01*
X109920745Y-120414632D01*
X109750478Y-120474211D01*
X109750476Y-120474211D01*
X109750476Y-120474212D01*
X109597735Y-120570185D01*
X109470185Y-120697735D01*
X109380920Y-120839800D01*
X109374211Y-120850478D01*
X109371093Y-120859389D01*
X109314631Y-121020748D01*
X109294434Y-121199999D01*
X109314631Y-121379251D01*
X109314631Y-121379253D01*
X109314632Y-121379255D01*
X109374211Y-121549522D01*
X109411571Y-121608980D01*
X109430542Y-121672004D01*
X109414586Y-121735860D01*
X109368199Y-121782555D01*
X109304450Y-121798933D01*
X109241300Y-121780378D01*
X109139195Y-121717158D01*
X109048328Y-121681956D01*
X108931039Y-121636518D01*
X108711613Y-121595500D01*
X108488387Y-121595500D01*
X108326367Y-121625787D01*
X108268961Y-121636518D01*
X108060804Y-121717158D01*
X107881630Y-121828098D01*
X107819408Y-121846633D01*
X107756348Y-121831185D01*
X107709738Y-121785989D01*
X107692355Y-121723435D01*
X107708966Y-121660671D01*
X107781250Y-121535471D01*
X107791578Y-121503684D01*
X107836497Y-121365439D01*
X107855185Y-121187636D01*
X107836497Y-121009833D01*
X107787614Y-120859388D01*
X107781250Y-120839800D01*
X107691859Y-120684970D01*
X107572228Y-120552108D01*
X107427596Y-120447025D01*
X107264264Y-120374305D01*
X107089393Y-120337136D01*
X107089391Y-120337136D01*
X106910609Y-120337136D01*
X106910607Y-120337136D01*
X106735735Y-120374305D01*
X106572408Y-120447023D01*
X106427768Y-120552110D01*
X106308140Y-120684970D01*
X106218749Y-120839800D01*
X106163503Y-121009831D01*
X106144815Y-121187636D01*
X94027776Y-121187636D01*
X93961598Y-121093123D01*
X93806877Y-120938402D01*
X93627639Y-120812898D01*
X93491682Y-120749500D01*
X93429331Y-120720425D01*
X93217974Y-120663792D01*
X93000000Y-120644722D01*
X92782025Y-120663792D01*
X92570668Y-120720425D01*
X92372361Y-120812898D01*
X92193122Y-120938402D01*
X92038402Y-121093122D01*
X91912898Y-121272361D01*
X91862382Y-121380693D01*
X91816625Y-121432869D01*
X91750000Y-121452288D01*
X91683375Y-121432869D01*
X91637618Y-121380693D01*
X91625235Y-121354139D01*
X91587102Y-121272362D01*
X91461598Y-121093123D01*
X91306877Y-120938402D01*
X91127639Y-120812898D01*
X90991682Y-120749500D01*
X90929331Y-120720425D01*
X90717974Y-120663792D01*
X90500000Y-120644722D01*
X90282025Y-120663792D01*
X90070668Y-120720425D01*
X89872361Y-120812898D01*
X89693122Y-120938402D01*
X89538402Y-121093122D01*
X89412898Y-121272361D01*
X89362382Y-121380693D01*
X89316625Y-121432869D01*
X89250000Y-121452288D01*
X89183375Y-121432869D01*
X89137618Y-121380693D01*
X89125235Y-121354139D01*
X89087102Y-121272362D01*
X88961598Y-121093123D01*
X88806877Y-120938402D01*
X88627639Y-120812898D01*
X88491682Y-120749500D01*
X88429331Y-120720425D01*
X88217974Y-120663792D01*
X88000000Y-120644722D01*
X87782025Y-120663792D01*
X87570668Y-120720425D01*
X87372361Y-120812898D01*
X87193122Y-120938402D01*
X87038402Y-121093122D01*
X86912898Y-121272361D01*
X86820425Y-121470668D01*
X86763792Y-121682025D01*
X86744722Y-121899999D01*
X82910543Y-121899999D01*
X82834002Y-121831418D01*
X82608090Y-121681956D01*
X82608086Y-121681954D01*
X82362822Y-121566978D01*
X82103437Y-121488941D01*
X82103431Y-121488940D01*
X81835439Y-121449500D01*
X81632369Y-121449500D01*
X81632366Y-121449500D01*
X81429843Y-121464322D01*
X81165449Y-121523219D01*
X80912441Y-121619986D01*
X80676223Y-121752559D01*
X80461825Y-121918109D01*
X80273813Y-122113120D01*
X80116201Y-122333420D01*
X79992342Y-122574329D01*
X79904881Y-122830695D01*
X79855680Y-123097066D01*
X79845787Y-123367764D01*
X78049410Y-123367764D01*
X76525220Y-118983904D01*
X112281404Y-118983904D01*
X112300092Y-119161709D01*
X112355338Y-119331740D01*
X112444729Y-119486570D01*
X112564360Y-119619432D01*
X112708992Y-119724515D01*
X112872324Y-119797235D01*
X113047196Y-119834405D01*
X113047198Y-119834405D01*
X113225980Y-119834405D01*
X113225982Y-119834405D01*
X113400853Y-119797235D01*
X113400854Y-119797234D01*
X113400856Y-119797234D01*
X113564182Y-119724517D01*
X113708819Y-119619431D01*
X113828448Y-119486570D01*
X113917839Y-119331740D01*
X113973086Y-119161708D01*
X113991774Y-118983905D01*
X113973086Y-118806102D01*
X113917839Y-118636070D01*
X113917839Y-118636069D01*
X113828448Y-118481239D01*
X113708817Y-118348377D01*
X113564185Y-118243294D01*
X113400853Y-118170574D01*
X113225982Y-118133405D01*
X113225980Y-118133405D01*
X113047198Y-118133405D01*
X113047196Y-118133405D01*
X112872324Y-118170574D01*
X112708997Y-118243292D01*
X112564357Y-118348379D01*
X112444729Y-118481239D01*
X112355338Y-118636069D01*
X112300092Y-118806100D01*
X112281404Y-118983904D01*
X76525220Y-118983904D01*
X76121549Y-117822869D01*
X78349500Y-117822869D01*
X78355909Y-117882483D01*
X78406204Y-118017331D01*
X78492454Y-118132546D01*
X78607669Y-118218796D01*
X78742517Y-118269091D01*
X78802127Y-118275500D01*
X80597872Y-118275499D01*
X80657483Y-118269091D01*
X80792331Y-118218796D01*
X80907546Y-118132546D01*
X80993796Y-118017331D01*
X81044091Y-117882483D01*
X81050500Y-117822873D01*
X81050500Y-117299999D01*
X110144815Y-117299999D01*
X110163503Y-117477804D01*
X110218749Y-117647835D01*
X110308140Y-117802665D01*
X110427771Y-117935527D01*
X110572403Y-118040610D01*
X110735735Y-118113330D01*
X110910607Y-118150500D01*
X110910609Y-118150500D01*
X111089391Y-118150500D01*
X111089393Y-118150500D01*
X111264264Y-118113330D01*
X111264265Y-118113329D01*
X111264267Y-118113329D01*
X111427593Y-118040612D01*
X111572230Y-117935526D01*
X111691859Y-117802665D01*
X111781250Y-117647835D01*
X111796793Y-117599999D01*
X118444815Y-117599999D01*
X118463503Y-117777804D01*
X118518749Y-117947835D01*
X118608140Y-118102665D01*
X118727771Y-118235527D01*
X118872403Y-118340610D01*
X119035735Y-118413330D01*
X119210607Y-118450500D01*
X119210609Y-118450500D01*
X119389391Y-118450500D01*
X119389393Y-118450500D01*
X119564264Y-118413330D01*
X119564265Y-118413329D01*
X119564267Y-118413329D01*
X119727593Y-118340612D01*
X119872230Y-118235526D01*
X119991859Y-118102665D01*
X120081250Y-117947835D01*
X120136497Y-117777803D01*
X120155185Y-117600000D01*
X120136497Y-117422197D01*
X120081250Y-117252165D01*
X120081250Y-117252164D01*
X119991859Y-117097334D01*
X119872228Y-116964472D01*
X119727596Y-116859389D01*
X119564264Y-116786669D01*
X119389393Y-116749500D01*
X119389391Y-116749500D01*
X119210609Y-116749500D01*
X119210607Y-116749500D01*
X119035735Y-116786669D01*
X118872408Y-116859387D01*
X118727768Y-116964474D01*
X118608140Y-117097334D01*
X118518749Y-117252164D01*
X118463503Y-117422195D01*
X118444815Y-117599999D01*
X111796793Y-117599999D01*
X111836497Y-117477803D01*
X111855185Y-117300000D01*
X111836497Y-117122197D01*
X111807840Y-117034001D01*
X111781250Y-116952164D01*
X111691859Y-116797334D01*
X111572228Y-116664472D01*
X111427596Y-116559389D01*
X111264264Y-116486669D01*
X111089393Y-116449500D01*
X111089391Y-116449500D01*
X110910609Y-116449500D01*
X110910607Y-116449500D01*
X110735735Y-116486669D01*
X110572408Y-116559387D01*
X110427768Y-116664474D01*
X110308140Y-116797334D01*
X110218749Y-116952164D01*
X110163503Y-117122195D01*
X110144815Y-117299999D01*
X81050500Y-117299999D01*
X81050499Y-116027128D01*
X81044091Y-115967517D01*
X80993796Y-115832669D01*
X80907546Y-115717454D01*
X80792331Y-115631204D01*
X80657483Y-115580909D01*
X80597873Y-115574500D01*
X80597869Y-115574500D01*
X80587310Y-115574500D01*
X80539857Y-115565061D01*
X80499629Y-115538181D01*
X79700000Y-114738553D01*
X78900369Y-115538181D01*
X78860144Y-115565060D01*
X78812695Y-115574500D01*
X78802133Y-115574500D01*
X78742515Y-115580909D01*
X78607669Y-115631204D01*
X78492454Y-115717454D01*
X78406204Y-115832668D01*
X78355909Y-115967516D01*
X78349500Y-116027130D01*
X78349500Y-117822869D01*
X76121549Y-117822869D01*
X75644053Y-116449500D01*
X74926263Y-114385000D01*
X78344842Y-114385000D01*
X78365430Y-114620318D01*
X78426569Y-114848492D01*
X78526400Y-115062580D01*
X78585073Y-115146373D01*
X79346447Y-114385001D01*
X80053553Y-114385001D01*
X80814925Y-115146373D01*
X80873600Y-115062576D01*
X80973430Y-114848492D01*
X81034569Y-114620318D01*
X81055157Y-114385000D01*
X81034569Y-114149681D01*
X80973430Y-113921507D01*
X80873599Y-113707421D01*
X80814926Y-113623626D01*
X80814925Y-113623625D01*
X80053553Y-114385000D01*
X80053553Y-114385001D01*
X79346447Y-114385001D01*
X79346447Y-114385000D01*
X78585072Y-113623625D01*
X78526399Y-113707422D01*
X78426569Y-113921507D01*
X78365430Y-114149681D01*
X78344842Y-114385000D01*
X74926263Y-114385000D01*
X74043150Y-111845000D01*
X78344340Y-111845000D01*
X78364936Y-112080407D01*
X78396981Y-112200000D01*
X78426097Y-112308663D01*
X78525965Y-112522830D01*
X78661505Y-112716401D01*
X78828599Y-112883495D01*
X79014597Y-113013732D01*
X79053460Y-113058048D01*
X79067471Y-113115306D01*
X79053460Y-113172563D01*
X79014594Y-113216881D01*
X78938626Y-113270073D01*
X79700000Y-114031447D01*
X79700001Y-114031447D01*
X80461373Y-113270073D01*
X80461373Y-113270072D01*
X80385405Y-113216880D01*
X80346539Y-113172562D01*
X80332528Y-113115305D01*
X80336273Y-113100000D01*
X95044815Y-113100000D01*
X95063503Y-113277804D01*
X95118749Y-113447835D01*
X95208140Y-113602665D01*
X95327771Y-113735527D01*
X95472403Y-113840610D01*
X95635735Y-113913330D01*
X95810607Y-113950500D01*
X95810609Y-113950500D01*
X95989391Y-113950500D01*
X95989393Y-113950500D01*
X96164264Y-113913330D01*
X96164265Y-113913329D01*
X96164267Y-113913329D01*
X96327593Y-113840612D01*
X96452521Y-113749845D01*
X96512441Y-113726843D01*
X96575838Y-113736884D01*
X96625721Y-113777278D01*
X96648725Y-113837202D01*
X96663503Y-113977804D01*
X96718749Y-114147835D01*
X96808140Y-114302665D01*
X96927771Y-114435527D01*
X97072403Y-114540610D01*
X97072406Y-114540611D01*
X97072407Y-114540612D01*
X97098356Y-114552165D01*
X97235735Y-114613330D01*
X97410607Y-114650500D01*
X97410609Y-114650500D01*
X97589391Y-114650500D01*
X97589393Y-114650500D01*
X97764264Y-114613330D01*
X97764265Y-114613329D01*
X97764267Y-114613329D01*
X97927593Y-114540612D01*
X98072230Y-114435526D01*
X98191859Y-114302665D01*
X98281250Y-114147835D01*
X98336497Y-113977803D01*
X98355185Y-113800000D01*
X98336497Y-113622197D01*
X98289581Y-113477804D01*
X98281250Y-113452164D01*
X98193398Y-113299999D01*
X105244815Y-113299999D01*
X105263503Y-113477804D01*
X105318749Y-113647835D01*
X105408140Y-113802665D01*
X105527771Y-113935527D01*
X105672403Y-114040610D01*
X105672406Y-114040611D01*
X105672407Y-114040612D01*
X105692370Y-114049500D01*
X105835735Y-114113330D01*
X106010607Y-114150500D01*
X106010609Y-114150500D01*
X106189391Y-114150500D01*
X106189393Y-114150500D01*
X106364264Y-114113330D01*
X106364265Y-114113329D01*
X106364267Y-114113329D01*
X106527593Y-114040612D01*
X106540208Y-114031447D01*
X106651620Y-113950500D01*
X106672230Y-113935526D01*
X106791859Y-113802665D01*
X106881250Y-113647835D01*
X106936497Y-113477803D01*
X106955185Y-113300000D01*
X106937161Y-113128519D01*
X106947202Y-113065125D01*
X106987597Y-113015242D01*
X107047521Y-112992239D01*
X107110918Y-113002281D01*
X107135733Y-113013329D01*
X107292270Y-113046602D01*
X107306046Y-113049530D01*
X107358300Y-113074453D01*
X107393544Y-113120384D01*
X107404095Y-113177309D01*
X107387653Y-113232819D01*
X107318749Y-113352165D01*
X107263503Y-113522195D01*
X107244815Y-113700000D01*
X107263503Y-113877804D01*
X107318749Y-114047835D01*
X107408140Y-114202665D01*
X107527771Y-114335527D01*
X107672403Y-114440610D01*
X107835735Y-114513330D01*
X107977563Y-114543476D01*
X108037919Y-114575567D01*
X108072098Y-114634766D01*
X108069714Y-114703082D01*
X108063503Y-114722196D01*
X108044815Y-114899999D01*
X108063503Y-115077804D01*
X108118749Y-115247835D01*
X108208140Y-115402665D01*
X108327771Y-115535527D01*
X108472403Y-115640610D01*
X108635735Y-115713330D01*
X108810607Y-115750500D01*
X108810609Y-115750500D01*
X108989391Y-115750500D01*
X108989393Y-115750500D01*
X109164264Y-115713330D01*
X109164265Y-115713329D01*
X109164267Y-115713329D01*
X109327593Y-115640612D01*
X109472230Y-115535526D01*
X109504218Y-115500000D01*
X113144815Y-115500000D01*
X113152993Y-115577804D01*
X113163503Y-115677804D01*
X113218749Y-115847835D01*
X113308140Y-116002665D01*
X113427771Y-116135527D01*
X113572403Y-116240610D01*
X113735735Y-116313330D01*
X113910607Y-116350500D01*
X113910609Y-116350500D01*
X114089391Y-116350500D01*
X114089393Y-116350500D01*
X114264264Y-116313330D01*
X114264265Y-116313329D01*
X114264267Y-116313329D01*
X114427593Y-116240612D01*
X114572230Y-116135526D01*
X114691859Y-116002665D01*
X114781250Y-115847835D01*
X114836497Y-115677803D01*
X114855185Y-115500000D01*
X114844674Y-115399999D01*
X116044815Y-115399999D01*
X116063503Y-115577804D01*
X116118749Y-115747835D01*
X116208140Y-115902665D01*
X116316935Y-116023493D01*
X116320207Y-116027127D01*
X116327771Y-116035527D01*
X116472403Y-116140610D01*
X116635735Y-116213330D01*
X116810607Y-116250500D01*
X116810609Y-116250500D01*
X116989391Y-116250500D01*
X116989393Y-116250500D01*
X117164264Y-116213330D01*
X117164265Y-116213329D01*
X117164267Y-116213329D01*
X117327593Y-116140612D01*
X117427115Y-116068303D01*
X117474218Y-116047332D01*
X117525782Y-116047332D01*
X117572884Y-116068303D01*
X117623519Y-116105092D01*
X117672406Y-116140612D01*
X117835735Y-116213330D01*
X118010607Y-116250500D01*
X118010609Y-116250500D01*
X118189391Y-116250500D01*
X118189393Y-116250500D01*
X118364264Y-116213330D01*
X118364265Y-116213329D01*
X118364267Y-116213329D01*
X118527593Y-116140612D01*
X118672230Y-116035526D01*
X118791859Y-115902665D01*
X118881250Y-115747835D01*
X118936497Y-115577803D01*
X118955185Y-115400000D01*
X118936497Y-115222197D01*
X118889581Y-115077804D01*
X118881250Y-115052164D01*
X118791859Y-114897334D01*
X118672228Y-114764472D01*
X118527596Y-114659389D01*
X118364264Y-114586669D01*
X118189393Y-114549500D01*
X118189391Y-114549500D01*
X118010609Y-114549500D01*
X118010607Y-114549500D01*
X117835735Y-114586669D01*
X117672405Y-114659388D01*
X117572885Y-114731694D01*
X117525781Y-114752666D01*
X117474219Y-114752666D01*
X117427115Y-114731694D01*
X117327595Y-114659388D01*
X117164264Y-114586669D01*
X116989393Y-114549500D01*
X116989391Y-114549500D01*
X116810609Y-114549500D01*
X116810607Y-114549500D01*
X116635735Y-114586669D01*
X116472408Y-114659387D01*
X116327768Y-114764474D01*
X116208140Y-114897334D01*
X116118749Y-115052164D01*
X116063503Y-115222195D01*
X116044815Y-115399999D01*
X114844674Y-115399999D01*
X114836497Y-115322197D01*
X114781250Y-115152165D01*
X114781250Y-115152164D01*
X114691859Y-114997334D01*
X114572228Y-114864472D01*
X114427596Y-114759389D01*
X114264264Y-114686669D01*
X114089393Y-114649500D01*
X114089391Y-114649500D01*
X113910609Y-114649500D01*
X113910607Y-114649500D01*
X113735735Y-114686669D01*
X113572408Y-114759387D01*
X113427768Y-114864474D01*
X113308140Y-114997334D01*
X113218749Y-115152164D01*
X113163503Y-115322195D01*
X113155045Y-115402665D01*
X113144815Y-115500000D01*
X109504218Y-115500000D01*
X109591859Y-115402665D01*
X109681250Y-115247835D01*
X109736497Y-115077803D01*
X109755185Y-114900000D01*
X109736497Y-114722197D01*
X109701124Y-114613330D01*
X109681250Y-114552164D01*
X109591859Y-114397334D01*
X109472228Y-114264472D01*
X109327596Y-114159389D01*
X109164264Y-114086669D01*
X109022436Y-114056523D01*
X108962079Y-114024430D01*
X108927900Y-113965230D01*
X108930286Y-113896915D01*
X108936497Y-113877803D01*
X108955185Y-113700000D01*
X108936497Y-113522197D01*
X108881250Y-113352165D01*
X108881250Y-113352164D01*
X108791859Y-113197334D01*
X108672228Y-113064472D01*
X108527596Y-112959389D01*
X108364264Y-112886669D01*
X108193953Y-112850469D01*
X108141698Y-112825545D01*
X108106454Y-112779614D01*
X108095904Y-112722689D01*
X108112347Y-112667179D01*
X108122903Y-112648894D01*
X108181250Y-112547835D01*
X108186013Y-112533173D01*
X108216262Y-112483810D01*
X108265625Y-112453558D01*
X108323343Y-112449016D01*
X108376830Y-112471170D01*
X108459520Y-112531249D01*
X108472407Y-112540612D01*
X108635735Y-112613330D01*
X108810607Y-112650500D01*
X108810609Y-112650500D01*
X108989391Y-112650500D01*
X108989393Y-112650500D01*
X109164264Y-112613330D01*
X109164265Y-112613329D01*
X109164267Y-112613329D01*
X109327593Y-112540612D01*
X109472230Y-112435526D01*
X109473250Y-112434392D01*
X109479452Y-112430278D01*
X109482773Y-112427866D01*
X109482875Y-112428007D01*
X109524792Y-112400202D01*
X109586442Y-112395164D01*
X109642856Y-112420533D01*
X109679995Y-112469997D01*
X109688619Y-112531249D01*
X109669934Y-112697079D01*
X109690131Y-112876331D01*
X109690131Y-112876333D01*
X109690132Y-112876335D01*
X109749711Y-113046602D01*
X109760941Y-113064474D01*
X109845685Y-113199344D01*
X109973235Y-113326894D01*
X109973237Y-113326895D01*
X109973238Y-113326896D01*
X110125978Y-113422869D01*
X110296245Y-113482448D01*
X110475500Y-113502645D01*
X110654755Y-113482448D01*
X110825022Y-113422869D01*
X110977762Y-113326896D01*
X111105316Y-113199342D01*
X111201289Y-113046602D01*
X111260868Y-112876335D01*
X111281065Y-112697080D01*
X111260868Y-112517825D01*
X111201289Y-112347558D01*
X111105316Y-112194818D01*
X111105315Y-112194817D01*
X111105314Y-112194815D01*
X110977764Y-112067265D01*
X110835387Y-111977804D01*
X110825022Y-111971291D01*
X110654755Y-111911712D01*
X110654753Y-111911711D01*
X110654751Y-111911711D01*
X110475500Y-111891514D01*
X110296248Y-111911711D01*
X110296245Y-111911711D01*
X110296245Y-111911712D01*
X110125978Y-111971291D01*
X110125976Y-111971291D01*
X110125976Y-111971292D01*
X109973235Y-112067265D01*
X109944711Y-112095789D01*
X109887865Y-112128212D01*
X109822430Y-112127182D01*
X109766633Y-112092984D01*
X109736015Y-112035146D01*
X109738097Y-111991075D01*
X109735134Y-111990764D01*
X109736495Y-111977806D01*
X109736497Y-111977803D01*
X109755185Y-111800000D01*
X109755185Y-111799999D01*
X116044815Y-111799999D01*
X116063503Y-111977804D01*
X116118749Y-112147835D01*
X116208140Y-112302665D01*
X116327771Y-112435527D01*
X116472403Y-112540610D01*
X116472406Y-112540611D01*
X116472407Y-112540612D01*
X116514577Y-112559387D01*
X116635735Y-112613330D01*
X116810607Y-112650500D01*
X116810609Y-112650500D01*
X116989391Y-112650500D01*
X116989393Y-112650500D01*
X117164264Y-112613330D01*
X117164265Y-112613329D01*
X117164267Y-112613329D01*
X117327593Y-112540612D01*
X117472230Y-112435526D01*
X117591859Y-112302665D01*
X117681250Y-112147835D01*
X117736497Y-111977803D01*
X117755185Y-111800000D01*
X117736497Y-111622197D01*
X117681250Y-111452165D01*
X117681250Y-111452164D01*
X117633016Y-111368620D01*
X117616430Y-111309216D01*
X117630514Y-111249171D01*
X117671783Y-111203337D01*
X117730028Y-111183055D01*
X117790839Y-111193341D01*
X117835733Y-111213329D01*
X118010607Y-111250500D01*
X118010609Y-111250500D01*
X118189391Y-111250500D01*
X118189393Y-111250500D01*
X118364264Y-111213330D01*
X118364265Y-111213329D01*
X118364267Y-111213329D01*
X118527593Y-111140612D01*
X118672230Y-111035526D01*
X118791859Y-110902665D01*
X118791860Y-110902662D01*
X118794510Y-110899720D01*
X118836225Y-110869412D01*
X118886660Y-110858692D01*
X118937095Y-110869412D01*
X118985094Y-110890783D01*
X119035733Y-110913329D01*
X119210607Y-110950500D01*
X119210609Y-110950500D01*
X119389391Y-110950500D01*
X119389393Y-110950500D01*
X119564264Y-110913330D01*
X119564265Y-110913329D01*
X119564267Y-110913329D01*
X119727593Y-110840612D01*
X119872230Y-110735526D01*
X119991859Y-110602665D01*
X120081250Y-110447835D01*
X120136497Y-110277803D01*
X120155185Y-110100000D01*
X120136497Y-109922197D01*
X120104212Y-109822833D01*
X120081250Y-109752164D01*
X119991859Y-109597334D01*
X119872228Y-109464472D01*
X119727596Y-109359389D01*
X119564264Y-109286669D01*
X119389393Y-109249500D01*
X119389391Y-109249500D01*
X119210609Y-109249500D01*
X119210607Y-109249500D01*
X119035735Y-109286669D01*
X118872408Y-109359387D01*
X118727768Y-109464474D01*
X118605490Y-109600279D01*
X118563775Y-109630587D01*
X118513340Y-109641307D01*
X118462905Y-109630587D01*
X118364264Y-109586669D01*
X118189393Y-109549500D01*
X118189391Y-109549500D01*
X118010609Y-109549500D01*
X118010607Y-109549500D01*
X117835735Y-109586669D01*
X117672408Y-109659387D01*
X117527768Y-109764474D01*
X117408140Y-109897334D01*
X117318749Y-110052164D01*
X117263503Y-110222195D01*
X117244815Y-110400000D01*
X117263503Y-110577804D01*
X117318750Y-110747838D01*
X117366983Y-110831380D01*
X117383569Y-110890783D01*
X117369485Y-110950828D01*
X117328216Y-110996661D01*
X117269972Y-111016944D01*
X117209161Y-111006659D01*
X117164264Y-110986669D01*
X116989393Y-110949500D01*
X116989391Y-110949500D01*
X116810609Y-110949500D01*
X116810607Y-110949500D01*
X116635735Y-110986669D01*
X116472408Y-111059387D01*
X116327768Y-111164474D01*
X116208140Y-111297334D01*
X116118749Y-111452164D01*
X116063503Y-111622195D01*
X116044815Y-111799999D01*
X109755185Y-111799999D01*
X109736497Y-111622197D01*
X109681250Y-111452165D01*
X109681250Y-111452164D01*
X109591859Y-111297334D01*
X109472228Y-111164472D01*
X109327596Y-111059389D01*
X109164264Y-110986669D01*
X108989393Y-110949500D01*
X108989391Y-110949500D01*
X108810609Y-110949500D01*
X108810607Y-110949500D01*
X108635735Y-110986669D01*
X108472408Y-111059387D01*
X108327768Y-111164474D01*
X108208140Y-111297334D01*
X108118750Y-111452163D01*
X108113985Y-111466829D01*
X108083734Y-111516192D01*
X108034371Y-111546441D01*
X107976655Y-111550983D01*
X107923168Y-111528828D01*
X107827592Y-111459387D01*
X107664264Y-111386669D01*
X107489393Y-111349500D01*
X107489391Y-111349500D01*
X107310609Y-111349500D01*
X107310607Y-111349500D01*
X107135735Y-111386669D01*
X106972408Y-111459387D01*
X106827768Y-111564474D01*
X106708140Y-111697334D01*
X106618749Y-111852164D01*
X106563503Y-112022195D01*
X106544815Y-112200000D01*
X106562838Y-112371478D01*
X106552797Y-112434874D01*
X106512403Y-112484757D01*
X106452479Y-112507760D01*
X106389082Y-112497719D01*
X106364265Y-112486669D01*
X106189393Y-112449500D01*
X106189391Y-112449500D01*
X106010609Y-112449500D01*
X106010607Y-112449500D01*
X105835735Y-112486669D01*
X105672408Y-112559387D01*
X105527768Y-112664474D01*
X105408140Y-112797334D01*
X105318749Y-112952164D01*
X105263503Y-113122195D01*
X105244815Y-113299999D01*
X98193398Y-113299999D01*
X98191859Y-113297334D01*
X98072228Y-113164472D01*
X97927596Y-113059389D01*
X97764264Y-112986669D01*
X97589393Y-112949500D01*
X97589391Y-112949500D01*
X97410609Y-112949500D01*
X97410607Y-112949500D01*
X97235735Y-112986669D01*
X97072405Y-113059388D01*
X96947480Y-113150152D01*
X96887556Y-113173155D01*
X96824160Y-113163114D01*
X96774277Y-113122719D01*
X96751274Y-113062798D01*
X96736497Y-112922197D01*
X96695927Y-112797335D01*
X96681250Y-112752164D01*
X96591859Y-112597334D01*
X96472228Y-112464472D01*
X96327596Y-112359389D01*
X96164264Y-112286669D01*
X95989393Y-112249500D01*
X95989391Y-112249500D01*
X95810609Y-112249500D01*
X95810607Y-112249500D01*
X95635735Y-112286669D01*
X95472408Y-112359387D01*
X95327768Y-112464474D01*
X95208140Y-112597334D01*
X95118749Y-112752164D01*
X95063503Y-112922195D01*
X95044815Y-113100000D01*
X80336273Y-113100000D01*
X80346539Y-113058048D01*
X80385402Y-113013732D01*
X80571401Y-112883495D01*
X80738495Y-112716401D01*
X80874035Y-112522830D01*
X80973903Y-112308663D01*
X81035063Y-112080408D01*
X81055659Y-111845000D01*
X81035063Y-111609592D01*
X80973903Y-111381337D01*
X80874035Y-111167171D01*
X80738495Y-110973599D01*
X80571401Y-110806505D01*
X80377830Y-110670965D01*
X80163663Y-110571097D01*
X80086793Y-110550500D01*
X79935407Y-110509936D01*
X79700000Y-110489340D01*
X79464592Y-110509936D01*
X79236336Y-110571097D01*
X79022170Y-110670965D01*
X78828598Y-110806505D01*
X78661505Y-110973598D01*
X78525965Y-111167170D01*
X78426097Y-111381336D01*
X78364936Y-111609592D01*
X78344340Y-111845000D01*
X74043150Y-111845000D01*
X73436444Y-110100000D01*
X88626982Y-110100000D01*
X88646299Y-110296133D01*
X88703508Y-110484726D01*
X88753259Y-110577803D01*
X88796413Y-110658538D01*
X88921440Y-110810883D01*
X89073785Y-110935910D01*
X89247596Y-111028814D01*
X89436191Y-111086024D01*
X89632323Y-111105341D01*
X89828455Y-111086024D01*
X90017050Y-111028814D01*
X90190861Y-110935910D01*
X90343206Y-110810883D01*
X90352138Y-110799999D01*
X95644815Y-110799999D01*
X95663503Y-110977804D01*
X95718749Y-111147835D01*
X95808140Y-111302665D01*
X95927771Y-111435527D01*
X96072403Y-111540610D01*
X96072406Y-111540611D01*
X96072407Y-111540612D01*
X96095701Y-111550983D01*
X96235735Y-111613330D01*
X96410607Y-111650500D01*
X96410609Y-111650500D01*
X96589391Y-111650500D01*
X96589393Y-111650500D01*
X96764264Y-111613330D01*
X96764265Y-111613329D01*
X96764267Y-111613329D01*
X96927593Y-111540612D01*
X97072230Y-111435526D01*
X97191859Y-111302665D01*
X97281250Y-111147835D01*
X97336497Y-110977803D01*
X97355185Y-110800000D01*
X97336497Y-110622197D01*
X97301124Y-110513330D01*
X97281250Y-110452164D01*
X97191859Y-110297334D01*
X97072228Y-110164472D01*
X96927596Y-110059389D01*
X96764264Y-109986669D01*
X96589393Y-109949500D01*
X96589391Y-109949500D01*
X96410609Y-109949500D01*
X96410607Y-109949500D01*
X96235735Y-109986669D01*
X96072408Y-110059387D01*
X95927768Y-110164474D01*
X95808140Y-110297334D01*
X95718749Y-110452164D01*
X95663503Y-110622195D01*
X95644815Y-110799999D01*
X90352138Y-110799999D01*
X90468233Y-110658538D01*
X90561137Y-110484727D01*
X90618347Y-110296132D01*
X90637664Y-110100000D01*
X90618347Y-109903868D01*
X90561137Y-109715273D01*
X90468233Y-109541462D01*
X90343206Y-109389117D01*
X90190861Y-109264090D01*
X90123650Y-109228165D01*
X90017049Y-109171185D01*
X89828456Y-109113976D01*
X89632323Y-109094659D01*
X89436189Y-109113976D01*
X89247596Y-109171185D01*
X89073786Y-109264089D01*
X88921440Y-109389117D01*
X88796412Y-109541463D01*
X88703508Y-109715273D01*
X88646299Y-109903866D01*
X88626982Y-110100000D01*
X73436444Y-110100000D01*
X72949689Y-108699999D01*
X78644815Y-108699999D01*
X78663503Y-108877804D01*
X78718749Y-109047835D01*
X78808140Y-109202665D01*
X78927771Y-109335527D01*
X79072403Y-109440610D01*
X79072406Y-109440611D01*
X79072407Y-109440612D01*
X79181291Y-109489090D01*
X79235735Y-109513330D01*
X79410607Y-109550500D01*
X79410609Y-109550500D01*
X79589391Y-109550500D01*
X79589393Y-109550500D01*
X79764264Y-109513330D01*
X79764265Y-109513329D01*
X79764267Y-109513329D01*
X79927593Y-109440612D01*
X80072230Y-109335526D01*
X80191859Y-109202665D01*
X80281250Y-109047835D01*
X80336497Y-108877803D01*
X80352505Y-108725499D01*
X95830426Y-108725499D01*
X95849114Y-108903304D01*
X95904360Y-109073335D01*
X95993751Y-109228165D01*
X96101504Y-109347835D01*
X96105402Y-109352165D01*
X96113382Y-109361027D01*
X96258014Y-109466110D01*
X96421346Y-109538830D01*
X96596218Y-109576000D01*
X96596220Y-109576000D01*
X96775002Y-109576000D01*
X96775004Y-109576000D01*
X96949875Y-109538830D01*
X96949876Y-109538829D01*
X96949878Y-109538829D01*
X97113204Y-109466112D01*
X97115459Y-109464474D01*
X97219177Y-109389117D01*
X97257841Y-109361026D01*
X97377470Y-109228165D01*
X97466861Y-109073335D01*
X97522108Y-108903303D01*
X97540796Y-108725500D01*
X97522108Y-108547697D01*
X97466861Y-108377665D01*
X97466861Y-108377664D01*
X97422022Y-108300000D01*
X101844815Y-108300000D01*
X101863503Y-108477804D01*
X101918749Y-108647835D01*
X102008140Y-108802665D01*
X102127771Y-108935527D01*
X102272403Y-109040610D01*
X102272406Y-109040611D01*
X102272407Y-109040612D01*
X102381291Y-109089090D01*
X102435735Y-109113330D01*
X102610607Y-109150500D01*
X102610609Y-109150500D01*
X102789391Y-109150500D01*
X102789393Y-109150500D01*
X102964264Y-109113330D01*
X102964265Y-109113329D01*
X102964267Y-109113329D01*
X103127593Y-109040612D01*
X103183491Y-108999999D01*
X109944815Y-108999999D01*
X109963503Y-109177804D01*
X110018749Y-109347835D01*
X110108140Y-109502665D01*
X110227771Y-109635527D01*
X110372403Y-109740610D01*
X110372406Y-109740611D01*
X110372407Y-109740612D01*
X110535733Y-109813329D01*
X110580450Y-109822833D01*
X110637641Y-109851973D01*
X110672601Y-109905805D01*
X110718750Y-110047836D01*
X110808140Y-110202665D01*
X110927771Y-110335527D01*
X111072403Y-110440610D01*
X111072406Y-110440611D01*
X111072407Y-110440612D01*
X111181291Y-110489090D01*
X111235735Y-110513330D01*
X111410607Y-110550500D01*
X111410609Y-110550500D01*
X111589391Y-110550500D01*
X111589393Y-110550500D01*
X111740946Y-110518286D01*
X111764267Y-110513329D01*
X111782255Y-110505320D01*
X111794212Y-110499997D01*
X111861905Y-110490483D01*
X111924354Y-110518286D01*
X111962579Y-110574958D01*
X111963502Y-110577801D01*
X111963503Y-110577803D01*
X111971581Y-110602665D01*
X112018749Y-110747835D01*
X112108140Y-110902665D01*
X112201778Y-111006659D01*
X112221726Y-111028814D01*
X112227771Y-111035527D01*
X112372403Y-111140610D01*
X112372406Y-111140611D01*
X112372407Y-111140612D01*
X112425998Y-111164472D01*
X112535735Y-111213330D01*
X112710607Y-111250500D01*
X112710609Y-111250500D01*
X112889391Y-111250500D01*
X112889393Y-111250500D01*
X113064264Y-111213330D01*
X113064265Y-111213329D01*
X113064267Y-111213329D01*
X113227593Y-111140612D01*
X113372230Y-111035526D01*
X113491859Y-110902665D01*
X113581250Y-110747835D01*
X113636497Y-110577803D01*
X113655185Y-110400000D01*
X113636497Y-110222197D01*
X113596793Y-110100000D01*
X113581250Y-110052164D01*
X113491859Y-109897334D01*
X113372228Y-109764472D01*
X113227596Y-109659389D01*
X113064264Y-109586669D01*
X112889393Y-109549500D01*
X112889391Y-109549500D01*
X112710609Y-109549500D01*
X112710607Y-109549500D01*
X112535734Y-109586670D01*
X112505784Y-109600004D01*
X112438091Y-109609516D01*
X112375644Y-109581712D01*
X112337420Y-109525040D01*
X112336497Y-109522200D01*
X112336497Y-109522197D01*
X112281250Y-109352165D01*
X112271644Y-109335527D01*
X112191859Y-109197334D01*
X112093898Y-109088539D01*
X112072230Y-109064474D01*
X112072229Y-109064473D01*
X112072228Y-109064472D01*
X111927596Y-108959389D01*
X111764264Y-108886669D01*
X111719548Y-108877165D01*
X111662357Y-108848025D01*
X111627398Y-108794193D01*
X111596793Y-108699999D01*
X114344815Y-108699999D01*
X114363503Y-108877804D01*
X114418749Y-109047835D01*
X114508140Y-109202665D01*
X114627771Y-109335527D01*
X114772403Y-109440610D01*
X114772406Y-109440611D01*
X114772407Y-109440612D01*
X114881291Y-109489090D01*
X114935735Y-109513330D01*
X115110607Y-109550500D01*
X115110609Y-109550500D01*
X115289391Y-109550500D01*
X115289393Y-109550500D01*
X115422546Y-109522197D01*
X115464267Y-109513329D01*
X115594794Y-109455214D01*
X115653878Y-109444796D01*
X115710939Y-109463336D01*
X115752616Y-109506494D01*
X115808140Y-109602665D01*
X115927771Y-109735527D01*
X116072403Y-109840610D01*
X116072406Y-109840611D01*
X116072407Y-109840612D01*
X116155940Y-109877803D01*
X116235735Y-109913330D01*
X116410607Y-109950500D01*
X116410609Y-109950500D01*
X116589391Y-109950500D01*
X116589393Y-109950500D01*
X116764264Y-109913330D01*
X116764265Y-109913329D01*
X116764267Y-109913329D01*
X116927593Y-109840612D01*
X116952064Y-109822833D01*
X117032387Y-109764474D01*
X117072230Y-109735526D01*
X117191859Y-109602665D01*
X117281250Y-109447835D01*
X117336497Y-109277803D01*
X117355185Y-109100000D01*
X117336497Y-108922197D01*
X117281250Y-108752165D01*
X117281250Y-108752164D01*
X117191859Y-108597334D01*
X117084232Y-108477804D01*
X117072230Y-108464474D01*
X117072229Y-108464473D01*
X117072228Y-108464472D01*
X116927596Y-108359389D01*
X116764264Y-108286669D01*
X116589393Y-108249500D01*
X116589391Y-108249500D01*
X116410609Y-108249500D01*
X116410607Y-108249500D01*
X116235735Y-108286669D01*
X116105205Y-108344785D01*
X116046120Y-108355203D01*
X115989060Y-108336663D01*
X115947383Y-108293505D01*
X115891859Y-108197334D01*
X115772228Y-108064472D01*
X115627596Y-107959389D01*
X115464264Y-107886669D01*
X115289393Y-107849500D01*
X115289391Y-107849500D01*
X115110609Y-107849500D01*
X115110607Y-107849500D01*
X114935735Y-107886669D01*
X114772408Y-107959387D01*
X114627768Y-108064474D01*
X114508140Y-108197334D01*
X114418749Y-108352164D01*
X114363503Y-108522195D01*
X114344815Y-108699999D01*
X111596793Y-108699999D01*
X111581250Y-108652164D01*
X111491859Y-108497334D01*
X111372228Y-108364472D01*
X111227596Y-108259389D01*
X111064264Y-108186669D01*
X110889393Y-108149500D01*
X110889391Y-108149500D01*
X110710609Y-108149500D01*
X110710607Y-108149500D01*
X110535735Y-108186669D01*
X110372408Y-108259387D01*
X110227768Y-108364474D01*
X110108140Y-108497334D01*
X110018749Y-108652164D01*
X109963503Y-108822195D01*
X109944815Y-108999999D01*
X103183491Y-108999999D01*
X103272230Y-108935526D01*
X103391859Y-108802665D01*
X103481250Y-108647835D01*
X103536497Y-108477803D01*
X103555185Y-108300000D01*
X103536497Y-108122197D01*
X103491883Y-107984889D01*
X103481250Y-107952164D01*
X103391859Y-107797334D01*
X103284232Y-107677804D01*
X103272230Y-107664474D01*
X103272229Y-107664473D01*
X103272228Y-107664472D01*
X103127596Y-107559389D01*
X102994204Y-107499999D01*
X105744815Y-107499999D01*
X105763503Y-107677804D01*
X105818749Y-107847835D01*
X105908140Y-108002665D01*
X106027771Y-108135527D01*
X106172403Y-108240610D01*
X106335735Y-108313330D01*
X106510607Y-108350500D01*
X106510609Y-108350500D01*
X106689391Y-108350500D01*
X106689393Y-108350500D01*
X106864264Y-108313330D01*
X106864265Y-108313329D01*
X106864267Y-108313329D01*
X107027593Y-108240612D01*
X107172230Y-108135526D01*
X107291859Y-108002665D01*
X107381250Y-107847835D01*
X107436497Y-107677803D01*
X107455185Y-107500000D01*
X107436497Y-107322197D01*
X107381250Y-107152165D01*
X107381250Y-107152164D01*
X107291859Y-106997334D01*
X107204217Y-106899999D01*
X109944815Y-106899999D01*
X109963503Y-107077804D01*
X110018749Y-107247835D01*
X110108140Y-107402665D01*
X110227771Y-107535527D01*
X110372403Y-107640610D01*
X110535735Y-107713330D01*
X110710607Y-107750500D01*
X110710609Y-107750500D01*
X110889391Y-107750500D01*
X110889393Y-107750500D01*
X111064264Y-107713330D01*
X111064265Y-107713329D01*
X111064267Y-107713329D01*
X111227593Y-107640612D01*
X111372230Y-107535526D01*
X111491859Y-107402665D01*
X111581250Y-107247835D01*
X111636497Y-107077803D01*
X111655185Y-106900000D01*
X111636497Y-106722197D01*
X111581250Y-106552165D01*
X111581250Y-106552164D01*
X111491859Y-106397335D01*
X111455967Y-106357473D01*
X111428684Y-106307847D01*
X111426312Y-106251265D01*
X111449346Y-106199530D01*
X111492981Y-106163432D01*
X111548116Y-106150500D01*
X111589393Y-106150500D01*
X111764264Y-106113330D01*
X111764265Y-106113329D01*
X111764267Y-106113329D01*
X111927593Y-106040612D01*
X112072230Y-105935526D01*
X112085859Y-105920389D01*
X112143826Y-105884166D01*
X112212185Y-105884165D01*
X112270157Y-105920389D01*
X112270393Y-105920652D01*
X112270395Y-105920654D01*
X112390024Y-106053515D01*
X112390027Y-106053517D01*
X112390028Y-106053518D01*
X112534657Y-106158599D01*
X112534660Y-106158600D01*
X112534661Y-106158601D01*
X112536429Y-106159388D01*
X112697989Y-106231319D01*
X112872861Y-106268489D01*
X112872863Y-106268489D01*
X113051645Y-106268489D01*
X113051647Y-106268489D01*
X113226518Y-106231319D01*
X113226519Y-106231318D01*
X113226521Y-106231318D01*
X113389847Y-106158601D01*
X113534484Y-106053515D01*
X113654113Y-105920654D01*
X113743504Y-105765824D01*
X113798751Y-105595792D01*
X113817439Y-105417989D01*
X113805038Y-105299999D01*
X115544815Y-105299999D01*
X115563503Y-105477804D01*
X115618749Y-105647835D01*
X115708140Y-105802665D01*
X115827771Y-105935527D01*
X115972403Y-106040610D01*
X115972406Y-106040611D01*
X115972407Y-106040612D01*
X116055940Y-106077803D01*
X116135735Y-106113330D01*
X116310607Y-106150500D01*
X116310609Y-106150500D01*
X116489391Y-106150500D01*
X116489393Y-106150500D01*
X116664264Y-106113330D01*
X116664265Y-106113329D01*
X116664267Y-106113329D01*
X116827593Y-106040612D01*
X116972230Y-105935526D01*
X117004218Y-105900000D01*
X143044815Y-105900000D01*
X143063503Y-106077804D01*
X143118749Y-106247835D01*
X143208140Y-106402665D01*
X143327771Y-106535527D01*
X143472403Y-106640610D01*
X143472406Y-106640611D01*
X143472407Y-106640612D01*
X143541078Y-106671186D01*
X143635735Y-106713330D01*
X143810607Y-106750500D01*
X143810609Y-106750500D01*
X143989391Y-106750500D01*
X143989393Y-106750500D01*
X144164264Y-106713330D01*
X144164265Y-106713329D01*
X144164267Y-106713329D01*
X144327593Y-106640612D01*
X144472230Y-106535526D01*
X144591859Y-106402665D01*
X144681250Y-106247835D01*
X144736497Y-106077803D01*
X144755185Y-105900000D01*
X144736497Y-105722197D01*
X144681250Y-105552165D01*
X144681250Y-105552164D01*
X144591859Y-105397334D01*
X144472228Y-105264472D01*
X144327596Y-105159389D01*
X144164264Y-105086669D01*
X143989393Y-105049500D01*
X143989391Y-105049500D01*
X143810609Y-105049500D01*
X143810607Y-105049500D01*
X143635735Y-105086669D01*
X143472408Y-105159387D01*
X143327768Y-105264474D01*
X143208140Y-105397334D01*
X143118749Y-105552164D01*
X143063503Y-105722195D01*
X143044815Y-105900000D01*
X117004218Y-105900000D01*
X117091859Y-105802665D01*
X117181250Y-105647835D01*
X117236497Y-105477803D01*
X117255185Y-105300000D01*
X117236497Y-105122197D01*
X117181250Y-104952165D01*
X117181250Y-104952164D01*
X117091859Y-104797334D01*
X116972228Y-104664472D01*
X116827596Y-104559389D01*
X116664264Y-104486669D01*
X116489393Y-104449500D01*
X116489391Y-104449500D01*
X116310609Y-104449500D01*
X116310607Y-104449500D01*
X116135735Y-104486669D01*
X115972408Y-104559387D01*
X115827768Y-104664474D01*
X115708140Y-104797334D01*
X115618749Y-104952164D01*
X115563503Y-105122195D01*
X115544815Y-105299999D01*
X113805038Y-105299999D01*
X113798751Y-105240186D01*
X113743504Y-105070154D01*
X113743504Y-105070153D01*
X113654113Y-104915323D01*
X113556152Y-104806528D01*
X113534484Y-104782463D01*
X113534483Y-104782462D01*
X113534482Y-104782461D01*
X113389850Y-104677378D01*
X113226518Y-104604658D01*
X113051647Y-104567489D01*
X113051645Y-104567489D01*
X112872863Y-104567489D01*
X112872861Y-104567489D01*
X112697989Y-104604658D01*
X112534662Y-104677376D01*
X112390021Y-104782464D01*
X112376394Y-104797599D01*
X112318424Y-104833822D01*
X112250067Y-104833821D01*
X112192097Y-104797598D01*
X112129722Y-104728326D01*
X112072230Y-104664474D01*
X112032091Y-104635311D01*
X111927596Y-104559389D01*
X111764264Y-104486669D01*
X111589393Y-104449500D01*
X111589391Y-104449500D01*
X111410609Y-104449500D01*
X111410607Y-104449500D01*
X111235735Y-104486669D01*
X111072408Y-104559387D01*
X110927768Y-104664474D01*
X110808140Y-104797334D01*
X110718749Y-104952164D01*
X110663503Y-105122195D01*
X110644815Y-105299999D01*
X110663503Y-105477804D01*
X110718749Y-105647835D01*
X110808140Y-105802664D01*
X110844033Y-105842527D01*
X110871316Y-105892153D01*
X110873688Y-105948735D01*
X110850654Y-106000470D01*
X110807019Y-106036568D01*
X110751884Y-106049500D01*
X110710607Y-106049500D01*
X110535735Y-106086669D01*
X110372408Y-106159387D01*
X110227768Y-106264474D01*
X110108140Y-106397334D01*
X110018749Y-106552164D01*
X109963503Y-106722195D01*
X109944815Y-106899999D01*
X107204217Y-106899999D01*
X107172228Y-106864472D01*
X107027596Y-106759389D01*
X106864264Y-106686669D01*
X106689393Y-106649500D01*
X106689391Y-106649500D01*
X106510609Y-106649500D01*
X106510607Y-106649500D01*
X106335735Y-106686669D01*
X106172408Y-106759387D01*
X106027768Y-106864474D01*
X105908140Y-106997334D01*
X105818749Y-107152164D01*
X105763503Y-107322195D01*
X105744815Y-107499999D01*
X102994204Y-107499999D01*
X102964264Y-107486669D01*
X102789393Y-107449500D01*
X102789391Y-107449500D01*
X102610609Y-107449500D01*
X102610607Y-107449500D01*
X102435735Y-107486669D01*
X102272408Y-107559387D01*
X102127768Y-107664474D01*
X102008140Y-107797334D01*
X101918749Y-107952164D01*
X101863503Y-108122195D01*
X101844815Y-108300000D01*
X97422022Y-108300000D01*
X97377470Y-108222834D01*
X97257839Y-108089972D01*
X97113207Y-107984889D01*
X96949875Y-107912169D01*
X96775004Y-107875000D01*
X96775002Y-107875000D01*
X96596220Y-107875000D01*
X96596218Y-107875000D01*
X96421346Y-107912169D01*
X96258019Y-107984887D01*
X96113379Y-108089974D01*
X95993751Y-108222834D01*
X95904360Y-108377664D01*
X95849114Y-108547695D01*
X95830426Y-108725499D01*
X80352505Y-108725499D01*
X80355185Y-108700000D01*
X80336497Y-108522197D01*
X80300558Y-108411589D01*
X80281250Y-108352164D01*
X80191859Y-108197334D01*
X80072228Y-108064472D01*
X79927596Y-107959389D01*
X79764264Y-107886669D01*
X79589393Y-107849500D01*
X79589391Y-107849500D01*
X79410609Y-107849500D01*
X79410607Y-107849500D01*
X79235735Y-107886669D01*
X79072408Y-107959387D01*
X78927768Y-108064474D01*
X78808140Y-108197334D01*
X78718749Y-108352164D01*
X78663503Y-108522195D01*
X78644815Y-108699999D01*
X72949689Y-108699999D01*
X72489011Y-107375000D01*
X73600000Y-107375000D01*
X73600000Y-107672824D01*
X73606402Y-107732375D01*
X73656647Y-107867089D01*
X73742811Y-107982188D01*
X73857910Y-108068352D01*
X73992624Y-108118597D01*
X74052176Y-108125000D01*
X74350000Y-108125000D01*
X74350000Y-107375000D01*
X74850000Y-107375000D01*
X74850000Y-108125000D01*
X75147824Y-108125000D01*
X75207375Y-108118597D01*
X75342089Y-108068352D01*
X75457188Y-107982188D01*
X75543352Y-107867089D01*
X75593597Y-107732375D01*
X75600000Y-107672824D01*
X75600000Y-107599999D01*
X88626982Y-107599999D01*
X88646299Y-107796133D01*
X88703508Y-107984726D01*
X88759764Y-108089972D01*
X88796413Y-108158538D01*
X88921440Y-108310883D01*
X89073785Y-108435910D01*
X89247596Y-108528814D01*
X89436191Y-108586024D01*
X89632323Y-108605341D01*
X89828455Y-108586024D01*
X90017050Y-108528814D01*
X90190861Y-108435910D01*
X90343206Y-108310883D01*
X90468233Y-108158538D01*
X90561137Y-107984727D01*
X90618347Y-107796132D01*
X90637664Y-107600000D01*
X90618347Y-107403868D01*
X90561137Y-107215273D01*
X90468233Y-107041462D01*
X90343206Y-106889117D01*
X90190861Y-106764090D01*
X90095894Y-106713329D01*
X90017049Y-106671185D01*
X89828456Y-106613976D01*
X89632323Y-106594659D01*
X89436189Y-106613976D01*
X89247596Y-106671185D01*
X89073786Y-106764089D01*
X88921440Y-106889117D01*
X88796412Y-107041463D01*
X88703508Y-107215273D01*
X88646299Y-107403866D01*
X88626982Y-107599999D01*
X75600000Y-107599999D01*
X75600000Y-107375000D01*
X74850000Y-107375000D01*
X74350000Y-107375000D01*
X73600000Y-107375000D01*
X72489011Y-107375000D01*
X71967488Y-105875000D01*
X73594659Y-105875000D01*
X73613975Y-106071129D01*
X73613976Y-106071132D01*
X73671186Y-106259727D01*
X73671187Y-106259730D01*
X73674732Y-106271414D01*
X73670955Y-106272559D01*
X73680630Y-106318522D01*
X73662743Y-106366156D01*
X73662878Y-106366207D01*
X73606402Y-106517624D01*
X73600000Y-106577176D01*
X73600000Y-106875000D01*
X74539679Y-106875000D01*
X74551832Y-106875596D01*
X74600000Y-106880341D01*
X74648167Y-106875596D01*
X74660321Y-106875000D01*
X75600000Y-106875000D01*
X75600000Y-106577176D01*
X75593597Y-106517624D01*
X75537122Y-106366207D01*
X75537257Y-106366156D01*
X75519368Y-106318515D01*
X75529047Y-106272560D01*
X75525268Y-106271414D01*
X75528812Y-106259730D01*
X75528814Y-106259727D01*
X75586024Y-106071132D01*
X75605341Y-105875000D01*
X75588598Y-105705000D01*
X83144340Y-105705000D01*
X83164936Y-105940407D01*
X83209709Y-106107502D01*
X83226097Y-106168663D01*
X83325965Y-106382830D01*
X83461505Y-106576401D01*
X83628599Y-106743495D01*
X83822170Y-106879035D01*
X84036337Y-106978903D01*
X84264592Y-107040063D01*
X84500000Y-107060659D01*
X84735408Y-107040063D01*
X84963663Y-106978903D01*
X85177830Y-106879035D01*
X85371401Y-106743495D01*
X85538495Y-106576401D01*
X85674035Y-106382830D01*
X85773903Y-106168663D01*
X85835063Y-105940408D01*
X85855659Y-105705000D01*
X85835063Y-105469592D01*
X85773903Y-105241337D01*
X85674035Y-105027171D01*
X85538495Y-104833599D01*
X85371401Y-104666505D01*
X85185839Y-104536573D01*
X85146975Y-104492257D01*
X85132964Y-104435000D01*
X85146975Y-104377743D01*
X85185839Y-104333426D01*
X85371401Y-104203495D01*
X85538495Y-104036401D01*
X85670507Y-103847869D01*
X88131823Y-103847869D01*
X88138232Y-103907484D01*
X88148691Y-103935526D01*
X88188527Y-104042331D01*
X88274777Y-104157546D01*
X88389992Y-104243796D01*
X88524840Y-104294091D01*
X88584450Y-104300500D01*
X90680195Y-104300499D01*
X90739806Y-104294091D01*
X90874654Y-104243796D01*
X90989869Y-104157546D01*
X91076119Y-104042331D01*
X91083101Y-104023610D01*
X93762265Y-104023610D01*
X93809089Y-104060055D01*
X94027716Y-104178368D01*
X94262829Y-104259083D01*
X94508030Y-104300000D01*
X94756616Y-104300000D01*
X95001816Y-104259083D01*
X95236929Y-104178368D01*
X95455556Y-104060053D01*
X95502379Y-104023609D01*
X94632323Y-103153553D01*
X93762265Y-104023609D01*
X93762265Y-104023610D01*
X91083101Y-104023610D01*
X91126414Y-103907483D01*
X91132823Y-103847873D01*
X91132822Y-102800000D01*
X93127181Y-102800000D01*
X93147709Y-103047732D01*
X93208736Y-103288721D01*
X93308591Y-103516370D01*
X93408886Y-103669882D01*
X93408887Y-103669882D01*
X94278770Y-102800001D01*
X94278770Y-102800000D01*
X94985876Y-102800000D01*
X95855757Y-103669882D01*
X95956053Y-103516369D01*
X96055909Y-103288721D01*
X96116936Y-103047732D01*
X96137464Y-102800000D01*
X96129178Y-102700000D01*
X107144815Y-102700000D01*
X107163503Y-102877804D01*
X107218749Y-103047835D01*
X107308140Y-103202665D01*
X107427771Y-103335527D01*
X107572403Y-103440610D01*
X107572406Y-103440611D01*
X107572407Y-103440612D01*
X107598356Y-103452165D01*
X107735735Y-103513330D01*
X107910607Y-103550500D01*
X107910609Y-103550500D01*
X108089391Y-103550500D01*
X108089393Y-103550500D01*
X108264264Y-103513330D01*
X108264265Y-103513329D01*
X108264267Y-103513329D01*
X108427593Y-103440612D01*
X108572230Y-103335526D01*
X108604218Y-103300000D01*
X109444815Y-103300000D01*
X109463503Y-103477804D01*
X109518749Y-103647835D01*
X109608140Y-103802665D01*
X109727771Y-103935527D01*
X109872403Y-104040610D01*
X109872406Y-104040611D01*
X109872407Y-104040612D01*
X109916077Y-104060055D01*
X110035735Y-104113330D01*
X110210607Y-104150500D01*
X110210609Y-104150500D01*
X110389391Y-104150500D01*
X110389393Y-104150500D01*
X110564264Y-104113330D01*
X110564265Y-104113329D01*
X110564267Y-104113329D01*
X110727593Y-104040612D01*
X110872230Y-103935526D01*
X110991859Y-103802665D01*
X111081250Y-103647835D01*
X111136497Y-103477803D01*
X111155185Y-103300000D01*
X111140364Y-103158997D01*
X111147921Y-103101604D01*
X111149024Y-103099999D01*
X145344815Y-103099999D01*
X145363503Y-103277804D01*
X145418749Y-103447835D01*
X145508140Y-103602665D01*
X145627771Y-103735527D01*
X145772403Y-103840610D01*
X145772406Y-103840611D01*
X145772407Y-103840612D01*
X145788716Y-103847873D01*
X145935735Y-103913330D01*
X146110607Y-103950500D01*
X146110609Y-103950500D01*
X146289391Y-103950500D01*
X146289393Y-103950500D01*
X146464264Y-103913330D01*
X146464265Y-103913329D01*
X146464267Y-103913329D01*
X146627593Y-103840612D01*
X146683491Y-103799999D01*
X148244815Y-103799999D01*
X148263503Y-103977804D01*
X148318749Y-104147835D01*
X148408140Y-104302665D01*
X148527771Y-104435527D01*
X148672403Y-104540610D01*
X148835735Y-104613330D01*
X149010607Y-104650500D01*
X149010609Y-104650500D01*
X149189391Y-104650500D01*
X149189393Y-104650500D01*
X149364264Y-104613330D01*
X149364265Y-104613329D01*
X149364267Y-104613329D01*
X149527593Y-104540612D01*
X149533150Y-104536575D01*
X149594147Y-104492257D01*
X149672230Y-104435526D01*
X149791859Y-104302665D01*
X149881250Y-104147835D01*
X149936497Y-103977803D01*
X149955185Y-103800000D01*
X149936497Y-103622197D01*
X149901124Y-103513330D01*
X149881250Y-103452164D01*
X149791859Y-103297334D01*
X149693898Y-103188539D01*
X149672230Y-103164474D01*
X149672229Y-103164473D01*
X149672228Y-103164472D01*
X149527596Y-103059389D01*
X149364264Y-102986669D01*
X149189393Y-102949500D01*
X149189391Y-102949500D01*
X149010609Y-102949500D01*
X149010607Y-102949500D01*
X148835735Y-102986669D01*
X148672408Y-103059387D01*
X148527768Y-103164474D01*
X148408140Y-103297334D01*
X148318749Y-103452164D01*
X148263503Y-103622195D01*
X148244815Y-103799999D01*
X146683491Y-103799999D01*
X146772230Y-103735526D01*
X146891859Y-103602665D01*
X146981250Y-103447835D01*
X147036497Y-103277803D01*
X147055185Y-103100000D01*
X147036497Y-102922197D01*
X147001124Y-102813330D01*
X146981250Y-102752164D01*
X146891859Y-102597334D01*
X146772228Y-102464472D01*
X146627596Y-102359389D01*
X146464264Y-102286669D01*
X146289393Y-102249500D01*
X146289391Y-102249500D01*
X146110609Y-102249500D01*
X146110607Y-102249500D01*
X145935735Y-102286669D01*
X145772408Y-102359387D01*
X145627768Y-102464474D01*
X145508140Y-102597334D01*
X145418749Y-102752164D01*
X145363503Y-102922195D01*
X145344815Y-103099999D01*
X111149024Y-103099999D01*
X111180712Y-103053891D01*
X111231591Y-103026266D01*
X111289466Y-103024751D01*
X111410607Y-103050500D01*
X111410609Y-103050500D01*
X111589391Y-103050500D01*
X111589393Y-103050500D01*
X111764264Y-103013330D01*
X111764265Y-103013329D01*
X111764267Y-103013329D01*
X111927593Y-102940612D01*
X112072230Y-102835526D01*
X112191859Y-102702665D01*
X112281250Y-102547835D01*
X112336497Y-102377803D01*
X112355185Y-102200000D01*
X112336497Y-102022197D01*
X112289581Y-101877804D01*
X112281250Y-101852164D01*
X112191859Y-101697334D01*
X112072228Y-101564472D01*
X111927596Y-101459389D01*
X111764264Y-101386669D01*
X111589393Y-101349500D01*
X111589391Y-101349500D01*
X111410609Y-101349500D01*
X111410607Y-101349500D01*
X111235735Y-101386669D01*
X111072408Y-101459387D01*
X110927768Y-101564474D01*
X110808140Y-101697334D01*
X110718749Y-101852164D01*
X110663503Y-102022195D01*
X110663502Y-102022197D01*
X110663503Y-102022197D01*
X110644815Y-102200000D01*
X110659634Y-102340998D01*
X110652078Y-102398395D01*
X110619287Y-102446108D01*
X110568408Y-102473733D01*
X110510534Y-102475249D01*
X110434721Y-102459135D01*
X110389391Y-102449500D01*
X110210609Y-102449500D01*
X110210607Y-102449500D01*
X110035735Y-102486669D01*
X109872408Y-102559387D01*
X109727768Y-102664474D01*
X109608140Y-102797334D01*
X109518749Y-102952164D01*
X109463503Y-103122195D01*
X109444815Y-103300000D01*
X108604218Y-103300000D01*
X108691859Y-103202665D01*
X108781250Y-103047835D01*
X108836497Y-102877803D01*
X108855185Y-102700000D01*
X108836497Y-102522197D01*
X108789581Y-102377804D01*
X108781250Y-102352164D01*
X108691859Y-102197334D01*
X108572228Y-102064472D01*
X108427596Y-101959389D01*
X108264264Y-101886669D01*
X108089393Y-101849500D01*
X108089391Y-101849500D01*
X107910609Y-101849500D01*
X107910607Y-101849500D01*
X107735735Y-101886669D01*
X107572408Y-101959387D01*
X107427768Y-102064474D01*
X107308140Y-102197334D01*
X107218749Y-102352164D01*
X107163503Y-102522195D01*
X107144815Y-102700000D01*
X96129178Y-102700000D01*
X96116936Y-102552267D01*
X96055909Y-102311278D01*
X95956053Y-102083630D01*
X95855757Y-101930116D01*
X94985876Y-102800000D01*
X94278770Y-102800000D01*
X93408887Y-101930116D01*
X93308589Y-102083634D01*
X93208736Y-102311278D01*
X93147709Y-102552267D01*
X93127181Y-102800000D01*
X91132822Y-102800000D01*
X91132822Y-101752128D01*
X91126414Y-101692517D01*
X91083101Y-101576390D01*
X93762265Y-101576390D01*
X94632323Y-102446447D01*
X94632324Y-102446447D01*
X95502380Y-101576390D01*
X95502379Y-101576388D01*
X95455558Y-101539947D01*
X95236929Y-101421631D01*
X95001816Y-101340916D01*
X94756616Y-101300000D01*
X94508030Y-101300000D01*
X94262829Y-101340916D01*
X94027716Y-101421631D01*
X93809087Y-101539946D01*
X93762265Y-101576388D01*
X93762265Y-101576390D01*
X91083101Y-101576390D01*
X91076119Y-101557669D01*
X90989869Y-101442454D01*
X90874654Y-101356204D01*
X90739806Y-101305909D01*
X90680196Y-101299500D01*
X90680192Y-101299500D01*
X88584453Y-101299500D01*
X88524838Y-101305909D01*
X88389992Y-101356204D01*
X88274777Y-101442454D01*
X88188527Y-101557668D01*
X88138232Y-101692516D01*
X88131823Y-101752130D01*
X88131823Y-103847869D01*
X85670507Y-103847869D01*
X85674035Y-103842830D01*
X85773903Y-103628663D01*
X85835063Y-103400408D01*
X85855659Y-103165000D01*
X85854657Y-103153553D01*
X85835063Y-102929592D01*
X85833081Y-102922195D01*
X85773903Y-102701337D01*
X85674035Y-102487171D01*
X85538495Y-102293599D01*
X85371401Y-102126505D01*
X85185839Y-101996573D01*
X85146975Y-101952257D01*
X85132964Y-101895000D01*
X85146975Y-101837743D01*
X85185839Y-101793426D01*
X85371401Y-101663495D01*
X85538495Y-101496401D01*
X85674035Y-101302830D01*
X85773903Y-101088663D01*
X85835063Y-100860408D01*
X85855659Y-100625000D01*
X85835063Y-100389592D01*
X85773903Y-100161337D01*
X85674035Y-99947171D01*
X85538495Y-99753599D01*
X85484896Y-99700000D01*
X105195815Y-99700000D01*
X105214503Y-99877804D01*
X105269749Y-100047835D01*
X105359140Y-100202665D01*
X105478771Y-100335527D01*
X105623403Y-100440610D01*
X105623406Y-100440611D01*
X105623407Y-100440612D01*
X105786733Y-100513329D01*
X105884089Y-100534022D01*
X105941278Y-100563160D01*
X105976236Y-100616991D01*
X105985253Y-100644743D01*
X106018749Y-100747835D01*
X106108140Y-100902665D01*
X106227771Y-101035527D01*
X106372403Y-101140610D01*
X106372406Y-101140611D01*
X106372407Y-101140612D01*
X106392370Y-101149500D01*
X106535735Y-101213330D01*
X106710607Y-101250500D01*
X106710609Y-101250500D01*
X106889391Y-101250500D01*
X106889393Y-101250500D01*
X107064264Y-101213330D01*
X107064265Y-101213329D01*
X107064267Y-101213329D01*
X107227593Y-101140612D01*
X107372230Y-101035526D01*
X107491859Y-100902665D01*
X107551133Y-100800000D01*
X120744815Y-100800000D01*
X120763503Y-100977804D01*
X120818749Y-101147835D01*
X120908140Y-101302665D01*
X121027771Y-101435527D01*
X121172403Y-101540610D01*
X121335735Y-101613330D01*
X121510607Y-101650500D01*
X121510609Y-101650500D01*
X121527962Y-101650500D01*
X121586176Y-101665014D01*
X121630762Y-101705160D01*
X121651283Y-101761538D01*
X121663503Y-101877804D01*
X121718749Y-102047835D01*
X121808140Y-102202665D01*
X121927771Y-102335527D01*
X122072403Y-102440610D01*
X122072406Y-102440611D01*
X122072407Y-102440612D01*
X122175853Y-102486669D01*
X122235735Y-102513330D01*
X122410607Y-102550500D01*
X122410609Y-102550500D01*
X122589391Y-102550500D01*
X122589393Y-102550500D01*
X122764264Y-102513330D01*
X122764265Y-102513329D01*
X122764267Y-102513329D01*
X122927593Y-102440612D01*
X123072230Y-102335526D01*
X123191859Y-102202665D01*
X123281250Y-102047835D01*
X123336497Y-101877803D01*
X123355185Y-101700000D01*
X123336497Y-101522197D01*
X123292461Y-101386669D01*
X123281250Y-101352164D01*
X123191859Y-101197334D01*
X123072228Y-101064472D01*
X122927596Y-100959389D01*
X122764264Y-100886669D01*
X122589393Y-100849500D01*
X122589391Y-100849500D01*
X122572038Y-100849500D01*
X122513824Y-100834986D01*
X122469238Y-100794840D01*
X122448717Y-100738462D01*
X122443560Y-100689397D01*
X122436497Y-100622197D01*
X122407840Y-100534001D01*
X122381250Y-100452164D01*
X122291859Y-100297334D01*
X122172228Y-100164472D01*
X122027596Y-100059389D01*
X121864264Y-99986669D01*
X121689393Y-99949500D01*
X121689391Y-99949500D01*
X121510609Y-99949500D01*
X121510607Y-99949500D01*
X121335735Y-99986669D01*
X121172408Y-100059387D01*
X121027768Y-100164474D01*
X120908140Y-100297334D01*
X120818749Y-100452164D01*
X120763503Y-100622195D01*
X120744815Y-100800000D01*
X107551133Y-100800000D01*
X107581250Y-100747835D01*
X107581249Y-100747835D01*
X107600238Y-100689397D01*
X107626019Y-100644743D01*
X107667734Y-100614435D01*
X107718169Y-100603715D01*
X107863893Y-100603715D01*
X108038764Y-100566545D01*
X108038765Y-100566544D01*
X108038767Y-100566544D01*
X108202093Y-100493827D01*
X108346730Y-100388741D01*
X108466359Y-100255880D01*
X108466358Y-100255880D01*
X108506127Y-100187000D01*
X108551514Y-100141613D01*
X108613514Y-100125000D01*
X108649457Y-100125000D01*
X108824328Y-100087830D01*
X108824329Y-100087829D01*
X108824331Y-100087829D01*
X108987657Y-100015112D01*
X109132294Y-99910026D01*
X109251923Y-99777165D01*
X109341314Y-99622335D01*
X109396561Y-99452303D01*
X109412569Y-99300000D01*
X142744815Y-99300000D01*
X142763503Y-99477804D01*
X142818749Y-99647835D01*
X142908140Y-99802665D01*
X143027771Y-99935527D01*
X143172403Y-100040610D01*
X143172406Y-100040611D01*
X143172407Y-100040612D01*
X143214577Y-100059387D01*
X143335735Y-100113330D01*
X143510607Y-100150500D01*
X143510609Y-100150500D01*
X143689391Y-100150500D01*
X143689393Y-100150500D01*
X143864264Y-100113330D01*
X143864265Y-100113329D01*
X143864267Y-100113329D01*
X144027593Y-100040612D01*
X144172230Y-99935526D01*
X144291859Y-99802665D01*
X144381250Y-99647835D01*
X144436497Y-99477803D01*
X144455185Y-99300000D01*
X144436497Y-99122197D01*
X144400887Y-99012602D01*
X144381250Y-98952164D01*
X144291859Y-98797334D01*
X144193898Y-98688539D01*
X144172230Y-98664474D01*
X144172229Y-98664473D01*
X144172228Y-98664472D01*
X144027596Y-98559389D01*
X143864264Y-98486669D01*
X143689393Y-98449500D01*
X143689391Y-98449500D01*
X143510609Y-98449500D01*
X143510607Y-98449500D01*
X143335735Y-98486669D01*
X143172408Y-98559387D01*
X143027768Y-98664474D01*
X142908140Y-98797334D01*
X142818749Y-98952164D01*
X142763503Y-99122195D01*
X142744815Y-99300000D01*
X109412569Y-99300000D01*
X109415249Y-99274500D01*
X109396561Y-99096697D01*
X109351947Y-98959389D01*
X109341315Y-98926667D01*
X109332826Y-98911964D01*
X109316289Y-98854291D01*
X109328762Y-98795605D01*
X109367326Y-98749647D01*
X109436756Y-98699203D01*
X109556385Y-98566342D01*
X109645776Y-98411512D01*
X109675775Y-98319184D01*
X110979450Y-98319184D01*
X110988224Y-98402665D01*
X110998138Y-98496988D01*
X111053384Y-98667019D01*
X111142775Y-98821849D01*
X111201140Y-98886669D01*
X111260113Y-98952165D01*
X111262406Y-98954711D01*
X111407038Y-99059794D01*
X111407041Y-99059795D01*
X111407042Y-99059796D01*
X111515925Y-99108273D01*
X111570370Y-99132514D01*
X111745242Y-99169684D01*
X111745244Y-99169684D01*
X111924026Y-99169684D01*
X111924028Y-99169684D01*
X112098899Y-99132514D01*
X112098900Y-99132513D01*
X112098902Y-99132513D01*
X112262228Y-99059796D01*
X112406865Y-98954710D01*
X112526494Y-98821849D01*
X112615885Y-98667019D01*
X112671132Y-98496987D01*
X112689820Y-98319184D01*
X112671132Y-98141381D01*
X112615885Y-97971349D01*
X112615885Y-97971348D01*
X112526494Y-97816518D01*
X112406863Y-97683656D01*
X112262231Y-97578573D01*
X112098899Y-97505853D01*
X111951391Y-97474500D01*
X113144815Y-97474500D01*
X113163503Y-97652304D01*
X113218749Y-97822335D01*
X113308140Y-97977165D01*
X113427771Y-98110027D01*
X113572403Y-98215110D01*
X113572406Y-98215111D01*
X113572407Y-98215112D01*
X113679139Y-98262632D01*
X113735735Y-98287830D01*
X113910607Y-98325000D01*
X113910609Y-98325000D01*
X114089391Y-98325000D01*
X114089393Y-98325000D01*
X114264264Y-98287830D01*
X114264265Y-98287829D01*
X114264267Y-98287829D01*
X114427593Y-98215112D01*
X114572230Y-98110026D01*
X114691859Y-97977165D01*
X114781250Y-97822335D01*
X114836497Y-97652303D01*
X114855185Y-97474500D01*
X114836497Y-97296697D01*
X114791883Y-97159389D01*
X114781250Y-97126664D01*
X114691859Y-96971834D01*
X114627179Y-96900000D01*
X115444815Y-96900000D01*
X115463503Y-97077804D01*
X115518749Y-97247835D01*
X115608140Y-97402665D01*
X115727771Y-97535527D01*
X115872403Y-97640610D01*
X115872406Y-97640611D01*
X115872407Y-97640612D01*
X116035733Y-97713329D01*
X116052409Y-97716873D01*
X116106334Y-97743173D01*
X116141600Y-97791710D01*
X116149951Y-97851123D01*
X116145416Y-97894280D01*
X116144815Y-97900000D01*
X116155606Y-98002665D01*
X116163503Y-98077804D01*
X116218749Y-98247835D01*
X116308140Y-98402665D01*
X116427771Y-98535527D01*
X116572403Y-98640610D01*
X116572406Y-98640611D01*
X116572407Y-98640612D01*
X116681291Y-98689090D01*
X116735735Y-98713330D01*
X116910607Y-98750500D01*
X116910609Y-98750500D01*
X117089391Y-98750500D01*
X117089393Y-98750500D01*
X117264264Y-98713330D01*
X117264265Y-98713329D01*
X117264267Y-98713329D01*
X117427593Y-98640612D01*
X117429848Y-98638974D01*
X117468659Y-98610774D01*
X117572230Y-98535526D01*
X117691859Y-98402665D01*
X117781250Y-98247835D01*
X117836497Y-98077803D01*
X117855185Y-97900000D01*
X117836497Y-97722197D01*
X117784125Y-97561012D01*
X117781250Y-97552164D01*
X117691859Y-97397334D01*
X117572228Y-97264472D01*
X117427596Y-97159389D01*
X117264264Y-97086669D01*
X117247587Y-97083125D01*
X117193662Y-97056824D01*
X117158397Y-97008285D01*
X117150047Y-96948876D01*
X117155185Y-96900000D01*
X117136497Y-96722197D01*
X117091430Y-96583495D01*
X117081250Y-96552164D01*
X116991859Y-96397334D01*
X116872228Y-96264472D01*
X116727596Y-96159389D01*
X116564264Y-96086669D01*
X116389393Y-96049500D01*
X116389391Y-96049500D01*
X116210609Y-96049500D01*
X116210607Y-96049500D01*
X116035735Y-96086669D01*
X115872408Y-96159387D01*
X115727768Y-96264474D01*
X115608140Y-96397334D01*
X115518749Y-96552164D01*
X115463503Y-96722195D01*
X115444815Y-96900000D01*
X114627179Y-96900000D01*
X114572228Y-96838972D01*
X114427596Y-96733889D01*
X114264264Y-96661169D01*
X114089393Y-96624000D01*
X114089391Y-96624000D01*
X113910609Y-96624000D01*
X113910607Y-96624000D01*
X113735735Y-96661169D01*
X113572408Y-96733887D01*
X113427768Y-96838974D01*
X113308140Y-96971834D01*
X113218749Y-97126664D01*
X113163503Y-97296695D01*
X113144815Y-97474500D01*
X111951391Y-97474500D01*
X111924028Y-97468684D01*
X111924026Y-97468684D01*
X111745244Y-97468684D01*
X111745242Y-97468684D01*
X111570370Y-97505853D01*
X111407043Y-97578571D01*
X111262403Y-97683658D01*
X111142775Y-97816518D01*
X111053384Y-97971348D01*
X110998138Y-98141379D01*
X110982745Y-98287830D01*
X110979450Y-98319184D01*
X109675775Y-98319184D01*
X109701023Y-98241480D01*
X109719711Y-98063677D01*
X109701023Y-97885874D01*
X109668049Y-97784390D01*
X109645776Y-97715841D01*
X109556385Y-97561011D01*
X109436754Y-97428149D01*
X109292122Y-97323066D01*
X109128790Y-97250346D01*
X108953919Y-97213177D01*
X108953917Y-97213177D01*
X108775135Y-97213177D01*
X108741464Y-97220333D01*
X108720875Y-97224710D01*
X108660915Y-97222615D01*
X108608956Y-97192616D01*
X108577164Y-97141736D01*
X108555750Y-97075830D01*
X108466359Y-96920999D01*
X108346728Y-96788137D01*
X108202096Y-96683054D01*
X108038764Y-96610334D01*
X107863893Y-96573165D01*
X107863891Y-96573165D01*
X107685109Y-96573165D01*
X107685107Y-96573165D01*
X107510235Y-96610334D01*
X107346908Y-96683052D01*
X107202268Y-96788139D01*
X107082640Y-96920999D01*
X106993249Y-97075829D01*
X106938003Y-97245860D01*
X106919315Y-97423664D01*
X106938003Y-97601469D01*
X106993249Y-97771500D01*
X107082640Y-97926330D01*
X107202271Y-98059192D01*
X107346903Y-98164275D01*
X107510235Y-98236995D01*
X107685107Y-98274165D01*
X107685109Y-98274165D01*
X107863891Y-98274165D01*
X107918148Y-98262632D01*
X107978107Y-98264725D01*
X108030066Y-98294723D01*
X108061860Y-98345603D01*
X108083276Y-98411515D01*
X108091763Y-98426214D01*
X108108300Y-98483886D01*
X108095827Y-98542571D01*
X108057262Y-98588531D01*
X107987833Y-98638974D01*
X107868204Y-98771834D01*
X107828437Y-98840715D01*
X107783050Y-98886102D01*
X107721050Y-98902715D01*
X107685107Y-98902715D01*
X107510235Y-98939884D01*
X107346908Y-99012602D01*
X107202268Y-99117689D01*
X107082641Y-99250548D01*
X107035498Y-99332203D01*
X106990110Y-99377589D01*
X106928110Y-99394202D01*
X106866110Y-99377589D01*
X106820724Y-99332201D01*
X106742860Y-99197336D01*
X106623228Y-99064472D01*
X106478596Y-98959389D01*
X106315264Y-98886669D01*
X106140393Y-98849500D01*
X106140391Y-98849500D01*
X105961609Y-98849500D01*
X105961607Y-98849500D01*
X105786735Y-98886669D01*
X105623408Y-98959387D01*
X105478768Y-99064474D01*
X105359140Y-99197334D01*
X105269749Y-99352164D01*
X105214503Y-99522195D01*
X105195815Y-99700000D01*
X85484896Y-99700000D01*
X85371401Y-99586505D01*
X85185839Y-99456573D01*
X85146974Y-99412255D01*
X85132964Y-99354999D01*
X85146975Y-99297742D01*
X85185837Y-99253428D01*
X85371401Y-99123495D01*
X85538495Y-98956401D01*
X85674035Y-98762830D01*
X85773903Y-98548663D01*
X85835063Y-98320408D01*
X85855659Y-98085000D01*
X85855029Y-98077804D01*
X85839473Y-97899999D01*
X87044815Y-97899999D01*
X87063503Y-98077804D01*
X87118749Y-98247835D01*
X87208140Y-98402665D01*
X87327771Y-98535527D01*
X87472403Y-98640610D01*
X87472406Y-98640611D01*
X87472407Y-98640612D01*
X87581291Y-98689090D01*
X87635735Y-98713330D01*
X87810607Y-98750500D01*
X87810609Y-98750500D01*
X87989391Y-98750500D01*
X87989393Y-98750500D01*
X88164264Y-98713330D01*
X88164265Y-98713329D01*
X88164267Y-98713329D01*
X88327593Y-98640612D01*
X88329848Y-98638974D01*
X88368659Y-98610774D01*
X88472230Y-98535526D01*
X88591859Y-98402665D01*
X88681250Y-98247835D01*
X88736497Y-98077803D01*
X88755185Y-97900000D01*
X88736497Y-97722197D01*
X88684125Y-97561012D01*
X88681250Y-97552164D01*
X88651133Y-97500000D01*
X94344815Y-97500000D01*
X94363503Y-97677804D01*
X94418749Y-97847835D01*
X94508140Y-98002665D01*
X94627771Y-98135527D01*
X94772403Y-98240610D01*
X94772406Y-98240611D01*
X94772407Y-98240612D01*
X94821865Y-98262632D01*
X94935735Y-98313330D01*
X95110607Y-98350500D01*
X95110609Y-98350500D01*
X95289391Y-98350500D01*
X95289393Y-98350500D01*
X95464264Y-98313330D01*
X95464265Y-98313329D01*
X95464267Y-98313329D01*
X95627593Y-98240612D01*
X95632572Y-98236995D01*
X95732658Y-98164277D01*
X95772230Y-98135526D01*
X95891859Y-98002665D01*
X95981250Y-97847835D01*
X96036497Y-97677803D01*
X96055185Y-97500000D01*
X96036497Y-97322197D01*
X96001074Y-97213177D01*
X95981250Y-97152164D01*
X95891859Y-96997334D01*
X95773583Y-96865977D01*
X95772230Y-96864474D01*
X95772229Y-96864473D01*
X95772228Y-96864472D01*
X95627596Y-96759389D01*
X95464264Y-96686669D01*
X95289393Y-96649500D01*
X95289391Y-96649500D01*
X95110609Y-96649500D01*
X95110607Y-96649500D01*
X94935735Y-96686669D01*
X94772408Y-96759387D01*
X94627768Y-96864474D01*
X94508140Y-96997334D01*
X94418749Y-97152164D01*
X94363503Y-97322195D01*
X94344815Y-97500000D01*
X88651133Y-97500000D01*
X88591859Y-97397334D01*
X88472228Y-97264472D01*
X88327596Y-97159389D01*
X88164264Y-97086669D01*
X87989393Y-97049500D01*
X87989391Y-97049500D01*
X87810609Y-97049500D01*
X87810607Y-97049500D01*
X87635735Y-97086669D01*
X87472408Y-97159387D01*
X87327768Y-97264474D01*
X87208140Y-97397334D01*
X87118749Y-97552164D01*
X87063503Y-97722195D01*
X87044815Y-97899999D01*
X85839473Y-97899999D01*
X85835063Y-97849592D01*
X85817592Y-97784390D01*
X85773903Y-97621337D01*
X85674035Y-97407171D01*
X85538495Y-97213599D01*
X85371401Y-97046505D01*
X85185839Y-96916573D01*
X85146975Y-96872257D01*
X85132964Y-96815000D01*
X85146975Y-96757743D01*
X85185839Y-96713426D01*
X85371401Y-96583495D01*
X85538495Y-96416401D01*
X85674035Y-96222830D01*
X85773903Y-96008663D01*
X85835063Y-95780408D01*
X85855659Y-95545000D01*
X85838598Y-95350000D01*
X87450000Y-95350000D01*
X87450000Y-95997824D01*
X87456402Y-96057375D01*
X87506647Y-96192089D01*
X87592811Y-96307188D01*
X87707910Y-96393352D01*
X87842624Y-96443597D01*
X87902176Y-96450000D01*
X88550000Y-96450000D01*
X89050000Y-96450000D01*
X89697824Y-96450000D01*
X89757375Y-96443597D01*
X89892089Y-96393352D01*
X90007188Y-96307188D01*
X90093352Y-96192089D01*
X90142422Y-96060528D01*
X90177401Y-96010149D01*
X90232246Y-95982696D01*
X90293539Y-95984885D01*
X90346285Y-96016181D01*
X90468599Y-96138495D01*
X90662170Y-96274035D01*
X90876337Y-96373903D01*
X91104592Y-96435063D01*
X91340000Y-96455659D01*
X91575408Y-96435063D01*
X91803663Y-96373903D01*
X92017830Y-96274035D01*
X92211401Y-96138495D01*
X92378495Y-95971401D01*
X92508426Y-95785839D01*
X92552743Y-95746975D01*
X92610000Y-95732964D01*
X92667257Y-95746975D01*
X92711573Y-95785839D01*
X92841505Y-95971401D01*
X93008599Y-96138495D01*
X93202170Y-96274035D01*
X93416337Y-96373903D01*
X93644592Y-96435063D01*
X93880000Y-96455659D01*
X94115408Y-96435063D01*
X94343663Y-96373903D01*
X94557830Y-96274035D01*
X94751401Y-96138495D01*
X94918495Y-95971401D01*
X95048426Y-95785839D01*
X95092743Y-95746975D01*
X95150000Y-95732964D01*
X95207257Y-95746975D01*
X95251573Y-95785839D01*
X95381505Y-95971401D01*
X95548599Y-96138495D01*
X95742170Y-96274035D01*
X95956337Y-96373903D01*
X96184592Y-96435063D01*
X96420000Y-96455659D01*
X96655408Y-96435063D01*
X96883663Y-96373903D01*
X97097830Y-96274035D01*
X97291401Y-96138495D01*
X97458495Y-95971401D01*
X97588426Y-95785839D01*
X97632743Y-95746975D01*
X97690000Y-95732964D01*
X97747257Y-95746975D01*
X97791573Y-95785839D01*
X97921505Y-95971401D01*
X98088599Y-96138495D01*
X98282170Y-96274035D01*
X98496337Y-96373903D01*
X98724592Y-96435063D01*
X98960000Y-96455659D01*
X99195408Y-96435063D01*
X99364628Y-96389720D01*
X99422501Y-96388206D01*
X99474755Y-96413130D01*
X99509999Y-96459060D01*
X99520550Y-96515985D01*
X99504108Y-96571495D01*
X99432257Y-96695945D01*
X99377011Y-96865975D01*
X99362054Y-97008285D01*
X99358323Y-97043780D01*
X99358610Y-97046508D01*
X99377011Y-97221584D01*
X99432257Y-97391615D01*
X99521648Y-97546445D01*
X99641279Y-97679307D01*
X99785911Y-97784390D01*
X99949243Y-97857110D01*
X100124115Y-97894280D01*
X100124117Y-97894280D01*
X100302899Y-97894280D01*
X100302901Y-97894280D01*
X100477772Y-97857110D01*
X100477773Y-97857109D01*
X100477775Y-97857109D01*
X100641101Y-97784392D01*
X100785738Y-97679306D01*
X100905367Y-97546445D01*
X100994758Y-97391615D01*
X101050005Y-97221583D01*
X101068693Y-97043780D01*
X101050005Y-96865977D01*
X101015372Y-96759387D01*
X100994758Y-96695944D01*
X100916871Y-96561040D01*
X100900428Y-96505530D01*
X100910978Y-96448605D01*
X100946222Y-96402674D01*
X100998477Y-96377750D01*
X101056348Y-96379264D01*
X101264592Y-96435063D01*
X101500000Y-96455659D01*
X101735408Y-96435063D01*
X101963663Y-96373903D01*
X102177830Y-96274035D01*
X102371401Y-96138495D01*
X102538495Y-95971401D01*
X102668426Y-95785839D01*
X102712743Y-95746975D01*
X102770000Y-95732964D01*
X102827257Y-95746975D01*
X102871573Y-95785839D01*
X103001505Y-95971401D01*
X103168599Y-96138495D01*
X103362170Y-96274035D01*
X103576337Y-96373903D01*
X103804592Y-96435063D01*
X104040000Y-96455659D01*
X104275408Y-96435063D01*
X104503663Y-96373903D01*
X104717830Y-96274035D01*
X104911401Y-96138495D01*
X105078495Y-95971401D01*
X105214035Y-95777830D01*
X105313903Y-95563663D01*
X105354361Y-95412668D01*
X105770315Y-95412668D01*
X105789003Y-95590473D01*
X105844249Y-95760504D01*
X105933640Y-95915334D01*
X106053271Y-96048196D01*
X106197903Y-96153279D01*
X106197906Y-96153280D01*
X106197907Y-96153281D01*
X106285072Y-96192089D01*
X106361235Y-96225999D01*
X106536107Y-96263169D01*
X106536109Y-96263169D01*
X106714891Y-96263169D01*
X106714893Y-96263169D01*
X106889764Y-96225999D01*
X106889765Y-96225998D01*
X106889767Y-96225998D01*
X107053093Y-96153281D01*
X107073450Y-96138491D01*
X107144773Y-96086671D01*
X107197730Y-96048195D01*
X107264086Y-95974500D01*
X109404415Y-95974500D01*
X109407093Y-95999978D01*
X109423103Y-96152304D01*
X109478349Y-96322335D01*
X109567740Y-96477165D01*
X109687371Y-96610027D01*
X109832003Y-96715110D01*
X109832006Y-96715111D01*
X109832007Y-96715112D01*
X109874177Y-96733887D01*
X109995335Y-96787830D01*
X110170207Y-96825000D01*
X110170209Y-96825000D01*
X110348991Y-96825000D01*
X110348993Y-96825000D01*
X110523864Y-96787830D01*
X110523865Y-96787829D01*
X110523867Y-96787829D01*
X110687193Y-96715112D01*
X110831830Y-96610026D01*
X110951459Y-96477165D01*
X111040850Y-96322335D01*
X111096097Y-96152303D01*
X111114785Y-95974500D01*
X111106955Y-95900000D01*
X117744815Y-95900000D01*
X117763503Y-96077804D01*
X117818749Y-96247835D01*
X117908140Y-96402665D01*
X118027771Y-96535527D01*
X118172403Y-96640610D01*
X118335735Y-96713330D01*
X118510607Y-96750500D01*
X118510609Y-96750500D01*
X118689391Y-96750500D01*
X118689393Y-96750500D01*
X118864264Y-96713330D01*
X118864265Y-96713329D01*
X118864267Y-96713329D01*
X119027593Y-96640612D01*
X119172230Y-96535526D01*
X119291859Y-96402665D01*
X119381250Y-96247835D01*
X119436497Y-96077803D01*
X119455185Y-95900000D01*
X119436497Y-95722197D01*
X119381250Y-95552165D01*
X119381250Y-95552164D01*
X119291859Y-95397334D01*
X119172228Y-95264472D01*
X119027596Y-95159389D01*
X118864264Y-95086669D01*
X118689393Y-95049500D01*
X118689391Y-95049500D01*
X118510609Y-95049500D01*
X118510607Y-95049500D01*
X118335735Y-95086669D01*
X118172408Y-95159387D01*
X118027768Y-95264474D01*
X117908140Y-95397334D01*
X117818749Y-95552164D01*
X117763503Y-95722195D01*
X117744815Y-95900000D01*
X111106955Y-95900000D01*
X111096097Y-95796697D01*
X111040850Y-95626665D01*
X111040850Y-95626664D01*
X110956669Y-95480858D01*
X110940735Y-95431819D01*
X110946125Y-95380540D01*
X110971906Y-95335885D01*
X110972227Y-95335527D01*
X110972230Y-95335526D01*
X111091859Y-95202665D01*
X111097069Y-95193642D01*
X111181250Y-95047835D01*
X111192045Y-95014612D01*
X111236497Y-94877803D01*
X111255185Y-94700000D01*
X111236497Y-94522197D01*
X111201393Y-94414159D01*
X111181250Y-94352164D01*
X111091859Y-94197334D01*
X110972228Y-94064472D01*
X110827596Y-93959389D01*
X110664264Y-93886669D01*
X110489393Y-93849500D01*
X110489391Y-93849500D01*
X110310609Y-93849500D01*
X110310607Y-93849500D01*
X110135735Y-93886669D01*
X109972408Y-93959387D01*
X109827768Y-94064474D01*
X109708140Y-94197334D01*
X109618749Y-94352164D01*
X109563503Y-94522195D01*
X109544815Y-94700000D01*
X109563503Y-94877804D01*
X109618749Y-95047835D01*
X109702931Y-95193642D01*
X109718865Y-95242681D01*
X109713475Y-95293960D01*
X109687694Y-95338615D01*
X109687372Y-95338972D01*
X109687370Y-95338974D01*
X109649944Y-95380540D01*
X109567738Y-95471837D01*
X109478349Y-95626664D01*
X109423103Y-95796695D01*
X109423102Y-95796697D01*
X109423103Y-95796697D01*
X109404415Y-95974500D01*
X107264086Y-95974500D01*
X107317359Y-95915334D01*
X107406750Y-95760504D01*
X107450237Y-95626665D01*
X107461997Y-95590473D01*
X107462908Y-95581805D01*
X107485910Y-95521879D01*
X107535794Y-95481483D01*
X107537198Y-95480858D01*
X107627593Y-95440612D01*
X107639696Y-95431819D01*
X107767978Y-95338615D01*
X107772230Y-95335526D01*
X107891859Y-95202665D01*
X107981250Y-95047835D01*
X108036497Y-94877803D01*
X108055185Y-94700000D01*
X108036497Y-94522197D01*
X108001393Y-94414159D01*
X107981250Y-94352164D01*
X107891859Y-94197334D01*
X107772228Y-94064472D01*
X107627596Y-93959389D01*
X107464264Y-93886669D01*
X107289393Y-93849500D01*
X107289391Y-93849500D01*
X107110609Y-93849500D01*
X107110607Y-93849500D01*
X106935735Y-93886669D01*
X106772408Y-93959387D01*
X106627768Y-94064474D01*
X106508140Y-94197334D01*
X106418749Y-94352164D01*
X106363502Y-94522200D01*
X106362591Y-94530869D01*
X106339589Y-94590791D01*
X106289708Y-94631184D01*
X106197906Y-94672058D01*
X106053270Y-94777141D01*
X105933640Y-94910003D01*
X105844249Y-95064833D01*
X105789003Y-95234864D01*
X105770315Y-95412668D01*
X105354361Y-95412668D01*
X105375063Y-95335408D01*
X105395659Y-95100000D01*
X105375063Y-94864592D01*
X105313903Y-94636337D01*
X105214035Y-94422171D01*
X105078495Y-94228599D01*
X104911401Y-94061505D01*
X104717830Y-93925965D01*
X104503663Y-93826097D01*
X104431074Y-93806647D01*
X104275407Y-93764936D01*
X104040000Y-93744340D01*
X103804592Y-93764936D01*
X103576336Y-93826097D01*
X103362170Y-93925965D01*
X103168598Y-94061505D01*
X103001505Y-94228598D01*
X102871575Y-94414159D01*
X102827257Y-94453025D01*
X102770000Y-94467036D01*
X102712743Y-94453025D01*
X102668425Y-94414159D01*
X102611077Y-94332257D01*
X102538495Y-94228599D01*
X102371401Y-94061505D01*
X102177830Y-93925965D01*
X101963663Y-93826097D01*
X101891074Y-93806647D01*
X101735407Y-93764936D01*
X101500000Y-93744340D01*
X101264592Y-93764936D01*
X101036336Y-93826097D01*
X100822170Y-93925965D01*
X100628598Y-94061505D01*
X100461505Y-94228598D01*
X100331575Y-94414159D01*
X100287257Y-94453025D01*
X100230000Y-94467036D01*
X100172743Y-94453025D01*
X100128425Y-94414159D01*
X100071077Y-94332257D01*
X99998495Y-94228599D01*
X99831401Y-94061505D01*
X99637830Y-93925965D01*
X99423663Y-93826097D01*
X99351074Y-93806647D01*
X99195407Y-93764936D01*
X98960000Y-93744340D01*
X98724592Y-93764936D01*
X98496336Y-93826097D01*
X98282170Y-93925965D01*
X98088598Y-94061505D01*
X97921505Y-94228598D01*
X97791575Y-94414159D01*
X97747257Y-94453025D01*
X97690000Y-94467036D01*
X97632743Y-94453025D01*
X97588425Y-94414159D01*
X97531077Y-94332257D01*
X97458495Y-94228599D01*
X97291401Y-94061505D01*
X97097830Y-93925965D01*
X96883663Y-93826097D01*
X96811074Y-93806647D01*
X96655407Y-93764936D01*
X96420000Y-93744340D01*
X96184592Y-93764936D01*
X95956336Y-93826097D01*
X95742170Y-93925965D01*
X95682818Y-93967524D01*
X95627164Y-93988980D01*
X95567931Y-93981969D01*
X95518824Y-93948113D01*
X95491206Y-93895246D01*
X95491466Y-93835600D01*
X95519546Y-93782976D01*
X95535790Y-93764936D01*
X95591859Y-93702665D01*
X95681250Y-93547835D01*
X95736497Y-93377803D01*
X95755185Y-93200000D01*
X95736497Y-93022197D01*
X95681250Y-92852165D01*
X95681250Y-92852164D01*
X95591859Y-92697334D01*
X95472228Y-92564472D01*
X95327596Y-92459389D01*
X95164264Y-92386669D01*
X94989393Y-92349500D01*
X94989391Y-92349500D01*
X94810609Y-92349500D01*
X94810607Y-92349500D01*
X94635735Y-92386669D01*
X94472408Y-92459387D01*
X94327768Y-92564474D01*
X94208140Y-92697334D01*
X94118749Y-92852164D01*
X94063503Y-93022195D01*
X94044815Y-93200000D01*
X94063503Y-93377804D01*
X94118749Y-93547835D01*
X94131838Y-93570505D01*
X94148421Y-93635210D01*
X94129031Y-93699130D01*
X94079295Y-93743717D01*
X94013644Y-93756033D01*
X93880000Y-93744340D01*
X93644592Y-93764936D01*
X93416336Y-93826097D01*
X93202170Y-93925965D01*
X93008598Y-94061505D01*
X92841505Y-94228598D01*
X92711575Y-94414159D01*
X92667257Y-94453025D01*
X92610000Y-94467036D01*
X92552743Y-94453025D01*
X92508425Y-94414159D01*
X92451077Y-94332257D01*
X92378495Y-94228599D01*
X92211401Y-94061505D01*
X92017830Y-93925965D01*
X91803663Y-93826097D01*
X91731074Y-93806647D01*
X91575407Y-93764936D01*
X91340000Y-93744340D01*
X91104592Y-93764936D01*
X90876336Y-93826097D01*
X90662170Y-93925965D01*
X90468601Y-94061503D01*
X90346285Y-94183819D01*
X90293539Y-94215114D01*
X90232246Y-94217303D01*
X90177401Y-94189850D01*
X90142422Y-94139471D01*
X90093352Y-94007911D01*
X90007188Y-93892811D01*
X89892089Y-93806647D01*
X89757375Y-93756402D01*
X89697824Y-93750000D01*
X89050000Y-93750000D01*
X89050000Y-96450000D01*
X88550000Y-96450000D01*
X88550000Y-95350000D01*
X87450000Y-95350000D01*
X85838598Y-95350000D01*
X85835063Y-95309592D01*
X85773903Y-95081337D01*
X85772796Y-95078964D01*
X85771508Y-95072399D01*
X85771095Y-95070857D01*
X85771200Y-95070828D01*
X85761324Y-95020504D01*
X85778441Y-94963438D01*
X85820198Y-94920943D01*
X85876955Y-94902828D01*
X85922901Y-94911011D01*
X85922985Y-94910620D01*
X85934782Y-94913127D01*
X85935610Y-94913275D01*
X85935732Y-94913329D01*
X86110607Y-94950500D01*
X86110609Y-94950500D01*
X86289391Y-94950500D01*
X86289393Y-94950500D01*
X86464264Y-94913330D01*
X86464265Y-94913329D01*
X86464267Y-94913329D01*
X86606507Y-94850000D01*
X87450000Y-94850000D01*
X88550000Y-94850000D01*
X88550000Y-93750000D01*
X87902176Y-93750000D01*
X87842624Y-93756402D01*
X87707910Y-93806647D01*
X87592811Y-93892811D01*
X87506647Y-94007910D01*
X87456402Y-94142624D01*
X87450000Y-94202176D01*
X87450000Y-94850000D01*
X86606507Y-94850000D01*
X86627593Y-94840612D01*
X86772230Y-94735526D01*
X86891859Y-94602665D01*
X86981250Y-94447835D01*
X87036497Y-94277803D01*
X87055185Y-94100000D01*
X87036497Y-93922197D01*
X86991261Y-93782976D01*
X86981250Y-93752164D01*
X86891859Y-93597334D01*
X86772228Y-93464472D01*
X86627596Y-93359389D01*
X86464264Y-93286669D01*
X86289393Y-93249500D01*
X86289391Y-93249500D01*
X86110609Y-93249500D01*
X86110606Y-93249500D01*
X85992945Y-93274509D01*
X85935594Y-93273133D01*
X85885000Y-93246089D01*
X85851992Y-93199168D01*
X85843637Y-93142411D01*
X85855659Y-93004999D01*
X85835063Y-92769592D01*
X85796454Y-92625500D01*
X85773903Y-92541337D01*
X85674035Y-92327171D01*
X85538495Y-92133599D01*
X85371401Y-91966505D01*
X85185839Y-91836573D01*
X85146975Y-91792257D01*
X85132964Y-91735000D01*
X85146975Y-91677743D01*
X85185839Y-91633426D01*
X85371401Y-91503495D01*
X85538495Y-91336401D01*
X85635496Y-91197869D01*
X95169500Y-91197869D01*
X95174553Y-91244871D01*
X95175909Y-91257483D01*
X95226204Y-91392331D01*
X95312454Y-91507546D01*
X95427669Y-91593796D01*
X95562517Y-91644091D01*
X95622127Y-91650500D01*
X97417872Y-91650499D01*
X97477483Y-91644091D01*
X97612331Y-91593796D01*
X97727546Y-91507546D01*
X97813796Y-91392331D01*
X97863003Y-91260398D01*
X97897981Y-91210021D01*
X97952826Y-91182568D01*
X98014119Y-91184757D01*
X98066865Y-91216053D01*
X98188918Y-91338106D01*
X98382423Y-91473600D01*
X98596507Y-91573430D01*
X98809999Y-91630635D01*
X98810000Y-91630636D01*
X98810000Y-91630635D01*
X99310000Y-91630635D01*
X99523492Y-91573430D01*
X99737576Y-91473600D01*
X99931081Y-91338106D01*
X100098109Y-91171078D01*
X100228119Y-90985405D01*
X100272437Y-90946539D01*
X100329694Y-90932528D01*
X100386951Y-90946539D01*
X100431267Y-90985402D01*
X100561505Y-91171401D01*
X100728599Y-91338495D01*
X100922170Y-91474035D01*
X101136337Y-91573903D01*
X101194248Y-91589420D01*
X101247039Y-91618803D01*
X101279678Y-91669644D01*
X101284419Y-91729874D01*
X101260134Y-91785195D01*
X101212590Y-91822475D01*
X101072409Y-91884887D01*
X100927769Y-91989974D01*
X100808141Y-92122834D01*
X100718750Y-92277664D01*
X100663504Y-92447695D01*
X100644816Y-92625500D01*
X100663504Y-92803304D01*
X100718750Y-92973335D01*
X100808141Y-93128165D01*
X100927772Y-93261027D01*
X101072404Y-93366110D01*
X101072407Y-93366111D01*
X101072408Y-93366112D01*
X101098667Y-93377803D01*
X101235736Y-93438830D01*
X101410608Y-93476000D01*
X101410610Y-93476000D01*
X101589392Y-93476000D01*
X101589394Y-93476000D01*
X101764265Y-93438830D01*
X101764266Y-93438829D01*
X101764268Y-93438829D01*
X101927594Y-93366112D01*
X101929849Y-93364474D01*
X102036934Y-93286671D01*
X102072231Y-93261026D01*
X102191860Y-93128165D01*
X102281251Y-92973335D01*
X102336498Y-92803303D01*
X102355186Y-92625500D01*
X102336498Y-92447697D01*
X102281251Y-92277665D01*
X102281251Y-92277664D01*
X102191860Y-92122834D01*
X102072229Y-91989972D01*
X101927597Y-91884889D01*
X101862553Y-91855930D01*
X101815009Y-91818651D01*
X101790725Y-91763330D01*
X101795465Y-91703099D01*
X101828104Y-91652258D01*
X101880895Y-91622875D01*
X101896092Y-91618803D01*
X102063663Y-91573903D01*
X102277830Y-91474035D01*
X102471401Y-91338495D01*
X102638495Y-91171401D01*
X102768426Y-90985839D01*
X102812743Y-90946975D01*
X102870000Y-90932964D01*
X102927257Y-90946975D01*
X102971573Y-90985839D01*
X103101505Y-91171401D01*
X103268599Y-91338495D01*
X103437538Y-91456788D01*
X103480837Y-91510576D01*
X103488653Y-91579184D01*
X103458564Y-91641334D01*
X103408140Y-91697334D01*
X103318749Y-91852164D01*
X103263503Y-92022195D01*
X103244815Y-92199999D01*
X103263503Y-92377804D01*
X103318749Y-92547835D01*
X103408140Y-92702665D01*
X103527771Y-92835527D01*
X103672403Y-92940610D01*
X103672406Y-92940611D01*
X103672407Y-92940612D01*
X103781290Y-92989089D01*
X103835735Y-93013330D01*
X104010607Y-93050500D01*
X104010609Y-93050500D01*
X104189391Y-93050500D01*
X104189393Y-93050500D01*
X104364264Y-93013330D01*
X104364265Y-93013329D01*
X104364267Y-93013329D01*
X104527593Y-92940612D01*
X104672230Y-92835526D01*
X104791859Y-92702665D01*
X104851133Y-92600000D01*
X111144815Y-92600000D01*
X111163503Y-92777804D01*
X111218749Y-92947835D01*
X111308140Y-93102665D01*
X111427771Y-93235527D01*
X111572403Y-93340610D01*
X111572406Y-93340611D01*
X111572407Y-93340612D01*
X111648454Y-93374470D01*
X111735735Y-93413330D01*
X111910607Y-93450500D01*
X111918514Y-93450500D01*
X111973649Y-93463432D01*
X112017284Y-93499530D01*
X112040318Y-93551265D01*
X112037946Y-93607846D01*
X112010665Y-93657470D01*
X111987832Y-93682830D01*
X111908138Y-93771337D01*
X111818749Y-93926164D01*
X111763503Y-94096195D01*
X111744815Y-94273999D01*
X111763503Y-94451804D01*
X111818749Y-94621835D01*
X111908140Y-94776665D01*
X112027771Y-94909527D01*
X112172403Y-95014610D01*
X112335735Y-95087330D01*
X112510607Y-95124500D01*
X112510609Y-95124500D01*
X112689391Y-95124500D01*
X112689393Y-95124500D01*
X112864264Y-95087330D01*
X112864265Y-95087329D01*
X112864267Y-95087329D01*
X113027593Y-95014612D01*
X113172230Y-94909526D01*
X113291859Y-94776665D01*
X113381250Y-94621835D01*
X113436497Y-94451803D01*
X113455185Y-94274000D01*
X113436897Y-94100000D01*
X113844815Y-94100000D01*
X113863503Y-94277804D01*
X113918749Y-94447835D01*
X114008140Y-94602665D01*
X114127771Y-94735527D01*
X114272403Y-94840610D01*
X114272406Y-94840611D01*
X114272407Y-94840612D01*
X114332058Y-94867170D01*
X114435735Y-94913330D01*
X114610607Y-94950500D01*
X114610609Y-94950500D01*
X114789391Y-94950500D01*
X114789393Y-94950500D01*
X114964264Y-94913330D01*
X114964265Y-94913329D01*
X114964267Y-94913329D01*
X115127593Y-94840612D01*
X115272230Y-94735526D01*
X115391859Y-94602665D01*
X115481250Y-94447835D01*
X115536497Y-94277803D01*
X115555185Y-94100000D01*
X115544674Y-94000000D01*
X116344815Y-94000000D01*
X116351280Y-94061508D01*
X116363503Y-94177804D01*
X116418749Y-94347835D01*
X116508140Y-94502665D01*
X116627771Y-94635527D01*
X116772403Y-94740610D01*
X116772406Y-94740611D01*
X116772407Y-94740612D01*
X116881290Y-94789089D01*
X116935735Y-94813330D01*
X117110607Y-94850500D01*
X117110609Y-94850500D01*
X117289391Y-94850500D01*
X117289393Y-94850500D01*
X117464264Y-94813330D01*
X117464265Y-94813329D01*
X117464267Y-94813329D01*
X117627593Y-94740612D01*
X117772230Y-94635526D01*
X117891859Y-94502665D01*
X117981250Y-94347835D01*
X118036497Y-94177803D01*
X118055185Y-94000000D01*
X118036497Y-93822197D01*
X117981250Y-93652165D01*
X117981250Y-93652164D01*
X117891859Y-93497334D01*
X117784232Y-93377804D01*
X117772230Y-93364474D01*
X117772229Y-93364473D01*
X117772228Y-93364472D01*
X117627596Y-93259389D01*
X117464264Y-93186669D01*
X117289393Y-93149500D01*
X117289391Y-93149500D01*
X117110609Y-93149500D01*
X117110607Y-93149500D01*
X116935735Y-93186669D01*
X116772408Y-93259387D01*
X116627768Y-93364474D01*
X116508140Y-93497334D01*
X116418749Y-93652164D01*
X116363503Y-93822195D01*
X116349083Y-93959389D01*
X116344815Y-94000000D01*
X115544674Y-94000000D01*
X115536497Y-93922197D01*
X115491261Y-93782976D01*
X115481250Y-93752164D01*
X115391859Y-93597334D01*
X115272228Y-93464472D01*
X115127596Y-93359389D01*
X114964264Y-93286669D01*
X114789393Y-93249500D01*
X114789391Y-93249500D01*
X114610609Y-93249500D01*
X114610607Y-93249500D01*
X114435735Y-93286669D01*
X114272408Y-93359387D01*
X114127768Y-93464474D01*
X114008140Y-93597334D01*
X113918749Y-93752164D01*
X113863503Y-93922195D01*
X113844815Y-94100000D01*
X113436897Y-94100000D01*
X113436497Y-94096197D01*
X113399382Y-93981969D01*
X113381250Y-93926164D01*
X113291859Y-93771334D01*
X113184557Y-93652165D01*
X113172230Y-93638474D01*
X113172229Y-93638473D01*
X113172228Y-93638472D01*
X113027596Y-93533389D01*
X112864264Y-93460669D01*
X112689393Y-93423500D01*
X112689391Y-93423500D01*
X112681486Y-93423500D01*
X112626351Y-93410568D01*
X112582716Y-93374470D01*
X112559682Y-93322735D01*
X112562054Y-93266154D01*
X112589334Y-93216529D01*
X112691859Y-93102665D01*
X112721977Y-93050500D01*
X112781250Y-92947835D01*
X112812335Y-92852165D01*
X112836497Y-92777803D01*
X112855185Y-92600000D01*
X112836497Y-92422197D01*
X112805621Y-92327170D01*
X112781250Y-92252164D01*
X112751133Y-92199999D01*
X114844815Y-92199999D01*
X114863503Y-92377804D01*
X114918749Y-92547835D01*
X115008140Y-92702665D01*
X115127771Y-92835527D01*
X115272403Y-92940610D01*
X115272406Y-92940611D01*
X115272407Y-92940612D01*
X115381290Y-92989089D01*
X115435735Y-93013330D01*
X115610607Y-93050500D01*
X115610609Y-93050500D01*
X115789391Y-93050500D01*
X115789393Y-93050500D01*
X115964264Y-93013330D01*
X115964265Y-93013329D01*
X115964267Y-93013329D01*
X116127593Y-92940612D01*
X116272230Y-92835526D01*
X116391859Y-92702665D01*
X116481250Y-92547835D01*
X116536497Y-92377803D01*
X116555185Y-92200000D01*
X116536497Y-92022197D01*
X116491883Y-91884889D01*
X116481250Y-91852164D01*
X116391859Y-91697334D01*
X116280294Y-91573430D01*
X116272230Y-91564474D01*
X116272229Y-91564473D01*
X116272228Y-91564472D01*
X116127596Y-91459389D01*
X115964264Y-91386669D01*
X115789393Y-91349500D01*
X115789391Y-91349500D01*
X115610609Y-91349500D01*
X115610607Y-91349500D01*
X115435735Y-91386669D01*
X115272408Y-91459387D01*
X115127768Y-91564474D01*
X115008140Y-91697334D01*
X114918749Y-91852164D01*
X114863503Y-92022195D01*
X114844815Y-92199999D01*
X112751133Y-92199999D01*
X112691859Y-92097334D01*
X112572228Y-91964472D01*
X112427596Y-91859389D01*
X112264264Y-91786669D01*
X112089393Y-91749500D01*
X112089391Y-91749500D01*
X111910609Y-91749500D01*
X111910607Y-91749500D01*
X111735735Y-91786669D01*
X111572408Y-91859387D01*
X111427768Y-91964474D01*
X111308140Y-92097334D01*
X111218749Y-92252164D01*
X111163503Y-92422195D01*
X111144815Y-92600000D01*
X104851133Y-92600000D01*
X104881250Y-92547835D01*
X104936497Y-92377803D01*
X104955185Y-92200000D01*
X104936497Y-92022197D01*
X104891883Y-91884889D01*
X104881250Y-91852164D01*
X104791859Y-91697334D01*
X104770063Y-91673127D01*
X104742580Y-91622770D01*
X104740704Y-91565431D01*
X104764837Y-91513385D01*
X104809808Y-91477775D01*
X104817830Y-91474035D01*
X105011401Y-91338495D01*
X105130709Y-91219186D01*
X105178527Y-91189452D01*
X105234571Y-91183932D01*
X105287277Y-91203769D01*
X105325773Y-91244871D01*
X105359140Y-91302665D01*
X105478771Y-91435527D01*
X105623403Y-91540610D01*
X105623406Y-91540611D01*
X105623407Y-91540612D01*
X105676998Y-91564472D01*
X105786735Y-91613330D01*
X105961607Y-91650500D01*
X105961609Y-91650500D01*
X106140391Y-91650500D01*
X106140393Y-91650500D01*
X106315264Y-91613330D01*
X106315265Y-91613329D01*
X106315267Y-91613329D01*
X106478593Y-91540612D01*
X106623230Y-91435526D01*
X106742859Y-91302665D01*
X106832250Y-91147835D01*
X106887497Y-90977803D01*
X106900188Y-90857052D01*
X106916121Y-90808018D01*
X106950623Y-90769700D01*
X106997726Y-90748728D01*
X107028531Y-90742180D01*
X107164265Y-90713330D01*
X107193290Y-90700407D01*
X107327593Y-90640612D01*
X107472230Y-90535526D01*
X107591859Y-90402665D01*
X107681250Y-90247835D01*
X107736497Y-90077803D01*
X107755185Y-89900000D01*
X107750605Y-89856428D01*
X107758954Y-89797016D01*
X107794220Y-89748476D01*
X107848143Y-89722176D01*
X107889767Y-89713329D01*
X108053093Y-89640612D01*
X108197730Y-89535526D01*
X108317359Y-89402665D01*
X108333620Y-89374500D01*
X112113900Y-89374500D01*
X112132588Y-89552304D01*
X112187834Y-89722335D01*
X112277225Y-89877165D01*
X112396856Y-90010027D01*
X112541488Y-90115110D01*
X112541491Y-90115111D01*
X112541492Y-90115112D01*
X112644640Y-90161036D01*
X112704820Y-90187830D01*
X112879692Y-90225000D01*
X112879694Y-90225000D01*
X113058476Y-90225000D01*
X113058478Y-90225000D01*
X113233349Y-90187830D01*
X113233350Y-90187829D01*
X113233352Y-90187829D01*
X113396678Y-90115112D01*
X113541315Y-90010026D01*
X113660944Y-89877165D01*
X113702020Y-89806018D01*
X113747405Y-89760633D01*
X113809405Y-89744020D01*
X113871406Y-89760633D01*
X113916793Y-89806020D01*
X113957868Y-89877165D01*
X114077499Y-90010027D01*
X114222131Y-90115110D01*
X114222134Y-90115111D01*
X114222135Y-90115112D01*
X114325283Y-90161036D01*
X114385463Y-90187830D01*
X114560335Y-90225000D01*
X114560337Y-90225000D01*
X114739119Y-90225000D01*
X114739121Y-90225000D01*
X114913992Y-90187830D01*
X114913993Y-90187829D01*
X114913995Y-90187829D01*
X115077321Y-90115112D01*
X115221958Y-90010026D01*
X115341587Y-89877165D01*
X115430978Y-89722335D01*
X115486225Y-89552303D01*
X115504913Y-89374500D01*
X115486225Y-89196697D01*
X115440058Y-89054610D01*
X115430978Y-89026664D01*
X115341587Y-88871834D01*
X115221956Y-88738972D01*
X115077324Y-88633889D01*
X114913992Y-88561169D01*
X114739121Y-88524000D01*
X114739119Y-88524000D01*
X114560337Y-88524000D01*
X114560335Y-88524000D01*
X114385463Y-88561169D01*
X114222136Y-88633887D01*
X114077496Y-88738974D01*
X113957868Y-88871835D01*
X113916793Y-88942979D01*
X113871406Y-88988366D01*
X113809405Y-89004979D01*
X113747405Y-88988366D01*
X113702019Y-88942978D01*
X113660945Y-88871836D01*
X113541313Y-88738972D01*
X113396681Y-88633889D01*
X113233349Y-88561169D01*
X113058478Y-88524000D01*
X113058476Y-88524000D01*
X112879694Y-88524000D01*
X112879692Y-88524000D01*
X112704820Y-88561169D01*
X112541493Y-88633887D01*
X112396853Y-88738974D01*
X112277225Y-88871834D01*
X112187834Y-89026664D01*
X112132588Y-89196695D01*
X112113900Y-89374500D01*
X108333620Y-89374500D01*
X108406750Y-89247835D01*
X108461997Y-89077803D01*
X108480685Y-88900000D01*
X108461997Y-88722197D01*
X108413102Y-88571713D01*
X108406750Y-88552164D01*
X108317359Y-88397334D01*
X108197728Y-88264472D01*
X108144087Y-88225499D01*
X110044649Y-88225499D01*
X110063337Y-88403304D01*
X110118583Y-88573335D01*
X110207974Y-88728165D01*
X110327605Y-88861027D01*
X110472237Y-88966110D01*
X110472240Y-88966111D01*
X110472241Y-88966112D01*
X110522225Y-88988366D01*
X110635569Y-89038830D01*
X110810441Y-89076000D01*
X110810443Y-89076000D01*
X110989225Y-89076000D01*
X110989227Y-89076000D01*
X111164098Y-89038830D01*
X111164099Y-89038829D01*
X111164101Y-89038829D01*
X111327427Y-88966112D01*
X111472064Y-88861026D01*
X111591693Y-88728165D01*
X111681084Y-88573335D01*
X111736331Y-88403303D01*
X111755019Y-88225500D01*
X111736331Y-88047697D01*
X111681084Y-87877665D01*
X111681084Y-87877664D01*
X111591693Y-87722834D01*
X111472062Y-87589972D01*
X111327430Y-87484889D01*
X111164098Y-87412169D01*
X110989227Y-87375000D01*
X110989225Y-87375000D01*
X110810443Y-87375000D01*
X110810441Y-87375000D01*
X110635569Y-87412169D01*
X110472242Y-87484887D01*
X110327602Y-87589974D01*
X110207974Y-87722834D01*
X110118583Y-87877664D01*
X110063337Y-88047695D01*
X110044649Y-88225499D01*
X108144087Y-88225499D01*
X108053096Y-88159389D01*
X107889764Y-88086669D01*
X107714893Y-88049500D01*
X107714891Y-88049500D01*
X107536109Y-88049500D01*
X107536107Y-88049500D01*
X107361235Y-88086669D01*
X107197908Y-88159387D01*
X107053268Y-88264474D01*
X106933640Y-88397334D01*
X106844249Y-88552164D01*
X106789003Y-88722195D01*
X106770315Y-88900000D01*
X106774894Y-88943573D01*
X106766544Y-89002984D01*
X106731280Y-89051521D01*
X106677357Y-89077823D01*
X106635733Y-89086671D01*
X106472407Y-89159387D01*
X106327768Y-89264474D01*
X106208140Y-89397334D01*
X106118749Y-89552164D01*
X106063503Y-89722195D01*
X106050812Y-89842943D01*
X106034878Y-89891981D01*
X106000376Y-89930299D01*
X105953272Y-89951271D01*
X105786735Y-89986669D01*
X105622261Y-90059898D01*
X105570202Y-90070607D01*
X105518442Y-90058538D01*
X105476489Y-90025908D01*
X105452052Y-89978713D01*
X105413903Y-89836337D01*
X105314035Y-89622171D01*
X105178495Y-89428599D01*
X105011401Y-89261505D01*
X104817830Y-89125965D01*
X104603663Y-89026097D01*
X104542501Y-89009709D01*
X104375407Y-88964936D01*
X104139999Y-88944340D01*
X103904592Y-88964936D01*
X103676336Y-89026097D01*
X103462170Y-89125965D01*
X103268598Y-89261505D01*
X103101505Y-89428598D01*
X102971575Y-89614159D01*
X102927257Y-89653025D01*
X102870000Y-89667036D01*
X102812743Y-89653025D01*
X102768425Y-89614159D01*
X102638494Y-89428598D01*
X102471404Y-89261508D01*
X102471403Y-89261507D01*
X102471401Y-89261505D01*
X102277830Y-89125965D01*
X102063663Y-89026097D01*
X102002501Y-89009709D01*
X101835407Y-88964936D01*
X101599999Y-88944340D01*
X101364592Y-88964936D01*
X101136336Y-89026097D01*
X100922170Y-89125965D01*
X100728598Y-89261505D01*
X100561508Y-89428595D01*
X100431269Y-89614596D01*
X100386951Y-89653461D01*
X100329694Y-89667472D01*
X100272437Y-89653461D01*
X100228119Y-89614595D01*
X100098109Y-89428921D01*
X99931081Y-89261893D01*
X99737576Y-89126399D01*
X99523492Y-89026569D01*
X99310000Y-88969364D01*
X99310000Y-91630635D01*
X98810000Y-91630635D01*
X98810000Y-88969364D01*
X98809999Y-88969364D01*
X98596507Y-89026569D01*
X98382421Y-89126400D01*
X98188924Y-89261888D01*
X98066865Y-89383947D01*
X98014118Y-89415242D01*
X97952825Y-89417431D01*
X97897981Y-89389978D01*
X97863002Y-89339598D01*
X97813796Y-89207669D01*
X97727546Y-89092454D01*
X97612331Y-89006204D01*
X97477483Y-88955909D01*
X97417873Y-88949500D01*
X97417869Y-88949500D01*
X95622130Y-88949500D01*
X95562515Y-88955909D01*
X95427669Y-89006204D01*
X95312454Y-89092454D01*
X95226204Y-89207668D01*
X95176997Y-89339598D01*
X95175909Y-89342517D01*
X95170016Y-89397335D01*
X95169500Y-89402130D01*
X95169500Y-91197869D01*
X85635496Y-91197869D01*
X85674035Y-91142830D01*
X85773903Y-90928663D01*
X85835063Y-90700408D01*
X85855659Y-90465000D01*
X85835063Y-90229592D01*
X85773903Y-90001337D01*
X85674035Y-89787171D01*
X85538495Y-89593599D01*
X85416181Y-89471285D01*
X85384885Y-89418539D01*
X85382696Y-89357246D01*
X85410149Y-89302401D01*
X85460528Y-89267422D01*
X85592089Y-89218352D01*
X85707188Y-89132188D01*
X85793352Y-89017089D01*
X85843597Y-88882375D01*
X85850000Y-88822824D01*
X85850000Y-88175000D01*
X83150000Y-88175000D01*
X83150000Y-88822824D01*
X83156402Y-88882375D01*
X83206647Y-89017089D01*
X83292811Y-89132188D01*
X83407911Y-89218352D01*
X83539471Y-89267422D01*
X83589850Y-89302401D01*
X83617303Y-89357246D01*
X83615114Y-89418539D01*
X83583819Y-89471285D01*
X83461503Y-89593601D01*
X83325965Y-89787170D01*
X83226097Y-90001336D01*
X83164936Y-90229592D01*
X83144340Y-90465000D01*
X83164936Y-90700407D01*
X83206910Y-90857057D01*
X83226097Y-90928663D01*
X83325965Y-91142830D01*
X83461505Y-91336401D01*
X83628599Y-91503495D01*
X83814160Y-91633426D01*
X83853024Y-91677743D01*
X83867035Y-91735000D01*
X83853024Y-91792257D01*
X83814158Y-91836575D01*
X83631503Y-91964472D01*
X83628595Y-91966508D01*
X83461505Y-92133598D01*
X83325965Y-92327170D01*
X83226097Y-92541336D01*
X83164936Y-92769592D01*
X83144340Y-93005000D01*
X83164936Y-93240407D01*
X83196817Y-93359387D01*
X83226097Y-93468663D01*
X83325965Y-93682830D01*
X83461505Y-93876401D01*
X83628599Y-94043495D01*
X83814160Y-94173426D01*
X83853024Y-94217743D01*
X83867035Y-94275000D01*
X83853024Y-94332257D01*
X83814158Y-94376575D01*
X83706721Y-94451804D01*
X83628595Y-94506508D01*
X83461505Y-94673598D01*
X83325965Y-94867170D01*
X83226097Y-95081336D01*
X83164936Y-95309592D01*
X83144340Y-95545000D01*
X83164936Y-95780407D01*
X83185882Y-95858578D01*
X83226097Y-96008663D01*
X83325965Y-96222830D01*
X83461505Y-96416401D01*
X83628599Y-96583495D01*
X83814160Y-96713426D01*
X83853024Y-96757743D01*
X83867035Y-96815000D01*
X83853024Y-96872257D01*
X83814159Y-96916575D01*
X83628595Y-97046508D01*
X83461505Y-97213598D01*
X83325965Y-97407170D01*
X83226097Y-97621336D01*
X83164936Y-97849592D01*
X83144340Y-98084999D01*
X83164936Y-98320407D01*
X83193287Y-98426214D01*
X83226097Y-98548663D01*
X83325965Y-98762830D01*
X83461505Y-98956401D01*
X83628599Y-99123495D01*
X83814160Y-99253426D01*
X83853024Y-99297743D01*
X83867035Y-99355000D01*
X83853024Y-99412257D01*
X83814159Y-99456575D01*
X83628595Y-99586508D01*
X83461505Y-99753598D01*
X83325965Y-99947170D01*
X83226097Y-100161336D01*
X83164936Y-100389592D01*
X83144340Y-100625000D01*
X83164936Y-100860407D01*
X83196393Y-100977804D01*
X83226097Y-101088663D01*
X83325965Y-101302830D01*
X83461505Y-101496401D01*
X83628599Y-101663495D01*
X83814160Y-101793426D01*
X83853024Y-101837743D01*
X83867035Y-101895000D01*
X83853024Y-101952257D01*
X83814158Y-101996575D01*
X83689826Y-102083634D01*
X83628595Y-102126508D01*
X83461505Y-102293598D01*
X83325965Y-102487170D01*
X83226097Y-102701336D01*
X83164936Y-102929592D01*
X83144340Y-103164999D01*
X83164936Y-103400407D01*
X83209709Y-103567502D01*
X83226097Y-103628663D01*
X83325965Y-103842830D01*
X83461505Y-104036401D01*
X83628599Y-104203495D01*
X83814160Y-104333426D01*
X83853024Y-104377743D01*
X83867035Y-104435000D01*
X83853024Y-104492257D01*
X83814158Y-104536575D01*
X83631503Y-104664472D01*
X83628595Y-104666508D01*
X83461505Y-104833598D01*
X83325965Y-105027170D01*
X83226097Y-105241336D01*
X83164936Y-105469592D01*
X83144340Y-105705000D01*
X75588598Y-105705000D01*
X75586024Y-105678868D01*
X75528814Y-105490273D01*
X75435910Y-105316462D01*
X75310883Y-105164117D01*
X75158538Y-105039090D01*
X75136091Y-105027091D01*
X74984726Y-104946185D01*
X74796133Y-104888976D01*
X74600000Y-104869659D01*
X74403866Y-104888976D01*
X74215273Y-104946185D01*
X74041463Y-105039089D01*
X73889117Y-105164117D01*
X73764089Y-105316463D01*
X73671185Y-105490273D01*
X73613976Y-105678866D01*
X73594659Y-105875000D01*
X71967488Y-105875000D01*
X70620220Y-101999999D01*
X74144815Y-101999999D01*
X74163503Y-102177804D01*
X74218749Y-102347835D01*
X74308140Y-102502665D01*
X74427771Y-102635527D01*
X74572403Y-102740610D01*
X74572406Y-102740611D01*
X74572407Y-102740612D01*
X74598356Y-102752165D01*
X74735735Y-102813330D01*
X74910607Y-102850500D01*
X74910609Y-102850500D01*
X75089391Y-102850500D01*
X75089393Y-102850500D01*
X75264264Y-102813330D01*
X75264265Y-102813329D01*
X75264267Y-102813329D01*
X75427593Y-102740612D01*
X75572230Y-102635526D01*
X75691859Y-102502665D01*
X75781250Y-102347835D01*
X75829285Y-102199999D01*
X78644815Y-102199999D01*
X78663503Y-102377804D01*
X78718749Y-102547835D01*
X78808140Y-102702665D01*
X78927771Y-102835527D01*
X79072403Y-102940610D01*
X79072406Y-102940611D01*
X79072407Y-102940612D01*
X79098356Y-102952165D01*
X79235735Y-103013330D01*
X79410607Y-103050500D01*
X79410609Y-103050500D01*
X79589391Y-103050500D01*
X79589393Y-103050500D01*
X79764264Y-103013330D01*
X79764265Y-103013329D01*
X79764267Y-103013329D01*
X79927593Y-102940612D01*
X80072230Y-102835526D01*
X80191859Y-102702665D01*
X80281250Y-102547835D01*
X80336497Y-102377803D01*
X80355185Y-102200000D01*
X80336497Y-102022197D01*
X80289581Y-101877804D01*
X80281250Y-101852164D01*
X80191859Y-101697334D01*
X80072228Y-101564472D01*
X79927596Y-101459389D01*
X79764264Y-101386669D01*
X79589393Y-101349500D01*
X79589391Y-101349500D01*
X79410609Y-101349500D01*
X79410607Y-101349500D01*
X79235735Y-101386669D01*
X79072408Y-101459387D01*
X78927768Y-101564474D01*
X78808140Y-101697334D01*
X78718749Y-101852164D01*
X78663503Y-102022195D01*
X78644815Y-102199999D01*
X75829285Y-102199999D01*
X75836497Y-102177803D01*
X75855185Y-102000000D01*
X75836497Y-101822197D01*
X75795927Y-101697335D01*
X75781250Y-101652164D01*
X75691859Y-101497334D01*
X75572228Y-101364472D01*
X75427596Y-101259389D01*
X75264264Y-101186669D01*
X75089393Y-101149500D01*
X75089391Y-101149500D01*
X74910609Y-101149500D01*
X74910607Y-101149500D01*
X74735735Y-101186669D01*
X74572408Y-101259387D01*
X74427768Y-101364474D01*
X74308140Y-101497334D01*
X74218749Y-101652164D01*
X74163503Y-101822195D01*
X74144815Y-101999999D01*
X70620220Y-101999999D01*
X68824016Y-96833775D01*
X68817166Y-96795579D01*
X68822457Y-96757140D01*
X70802536Y-90215546D01*
X76099500Y-90215546D01*
X76105909Y-90275161D01*
X76131056Y-90342584D01*
X76156204Y-90410008D01*
X76242454Y-90525223D01*
X76357669Y-90611473D01*
X76492517Y-90661768D01*
X76552127Y-90668177D01*
X78647872Y-90668176D01*
X78707483Y-90661768D01*
X78842331Y-90611473D01*
X78957546Y-90525223D01*
X79043796Y-90410008D01*
X79094091Y-90275160D01*
X79100500Y-90215550D01*
X79100499Y-88119805D01*
X79094091Y-88060194D01*
X79043796Y-87925346D01*
X78957546Y-87810131D01*
X78842331Y-87723881D01*
X78711274Y-87675000D01*
X83150000Y-87675000D01*
X84250000Y-87675000D01*
X84250000Y-86575000D01*
X84750000Y-86575000D01*
X84750000Y-87675000D01*
X85850000Y-87675000D01*
X85850000Y-87027176D01*
X85843597Y-86967624D01*
X85793352Y-86832910D01*
X85707188Y-86717811D01*
X85592089Y-86631647D01*
X85507239Y-86600000D01*
X88244815Y-86600000D01*
X88251591Y-86664472D01*
X88263503Y-86777804D01*
X88318749Y-86947835D01*
X88408140Y-87102665D01*
X88527771Y-87235527D01*
X88672403Y-87340610D01*
X88835735Y-87413330D01*
X88985077Y-87445073D01*
X89005904Y-87449500D01*
X89007956Y-87449936D01*
X89068312Y-87482028D01*
X89102492Y-87541227D01*
X89100106Y-87609544D01*
X89063503Y-87722195D01*
X89046891Y-87880244D01*
X89044815Y-87900000D01*
X89050298Y-87952165D01*
X89063503Y-88077804D01*
X89118749Y-88247835D01*
X89208140Y-88402665D01*
X89327771Y-88535527D01*
X89472403Y-88640610D01*
X89472406Y-88640611D01*
X89472407Y-88640612D01*
X89514577Y-88659387D01*
X89635735Y-88713330D01*
X89810607Y-88750500D01*
X89810609Y-88750500D01*
X89989391Y-88750500D01*
X89989393Y-88750500D01*
X90164264Y-88713330D01*
X90164265Y-88713329D01*
X90164267Y-88713329D01*
X90327593Y-88640612D01*
X90336847Y-88633889D01*
X90368659Y-88610774D01*
X90472230Y-88535526D01*
X90591859Y-88402665D01*
X90681250Y-88247835D01*
X90736497Y-88077803D01*
X90755185Y-87900000D01*
X90736497Y-87722197D01*
X90681250Y-87552165D01*
X90681250Y-87552164D01*
X90591859Y-87397334D01*
X90472228Y-87264472D01*
X90327596Y-87159389D01*
X90164264Y-87086669D01*
X89992043Y-87050063D01*
X89931686Y-87017971D01*
X89897507Y-86958771D01*
X89899892Y-86890458D01*
X89936497Y-86777803D01*
X89955185Y-86600000D01*
X89936497Y-86422197D01*
X89885250Y-86264475D01*
X89881250Y-86252164D01*
X89791859Y-86097334D01*
X89684253Y-85977827D01*
X89672230Y-85964474D01*
X89672229Y-85964473D01*
X89672228Y-85964472D01*
X89527596Y-85859389D01*
X89364264Y-85786669D01*
X89189393Y-85749500D01*
X89189391Y-85749500D01*
X89010609Y-85749500D01*
X89010607Y-85749500D01*
X88835735Y-85786669D01*
X88672408Y-85859387D01*
X88527768Y-85964474D01*
X88408140Y-86097334D01*
X88318749Y-86252164D01*
X88263503Y-86422195D01*
X88249083Y-86559389D01*
X88244815Y-86600000D01*
X85507239Y-86600000D01*
X85457375Y-86581402D01*
X85397824Y-86575000D01*
X84750000Y-86575000D01*
X84250000Y-86575000D01*
X83602176Y-86575000D01*
X83542624Y-86581402D01*
X83407910Y-86631647D01*
X83292811Y-86717811D01*
X83206647Y-86832910D01*
X83156402Y-86967624D01*
X83150000Y-87027176D01*
X83150000Y-87675000D01*
X78711274Y-87675000D01*
X78707483Y-87673586D01*
X78647873Y-87667177D01*
X78647869Y-87667177D01*
X76552130Y-87667177D01*
X76492515Y-87673586D01*
X76357669Y-87723881D01*
X76242454Y-87810131D01*
X76156204Y-87925345D01*
X76105909Y-88060193D01*
X76099500Y-88119807D01*
X76099500Y-90215546D01*
X70802536Y-90215546D01*
X72262794Y-85391287D01*
X76729942Y-85391287D01*
X76776766Y-85427732D01*
X76995393Y-85546045D01*
X77230506Y-85626760D01*
X77475707Y-85667677D01*
X77724293Y-85667677D01*
X77969493Y-85626760D01*
X78204606Y-85546045D01*
X78423233Y-85427730D01*
X78470056Y-85391286D01*
X78378770Y-85300000D01*
X96464340Y-85300000D01*
X96484936Y-85535407D01*
X96509414Y-85626760D01*
X96546097Y-85763663D01*
X96645965Y-85977830D01*
X96781505Y-86171401D01*
X96948599Y-86338495D01*
X97142170Y-86474035D01*
X97356337Y-86573903D01*
X97584592Y-86635063D01*
X97820000Y-86655659D01*
X98055408Y-86635063D01*
X98283663Y-86573903D01*
X98497830Y-86474035D01*
X98691401Y-86338495D01*
X98858495Y-86171401D01*
X98988426Y-85985839D01*
X99032743Y-85946975D01*
X99090000Y-85932964D01*
X99147257Y-85946975D01*
X99191573Y-85985839D01*
X99321505Y-86171401D01*
X99488599Y-86338495D01*
X99682170Y-86474035D01*
X99896337Y-86573903D01*
X100124592Y-86635063D01*
X100360000Y-86655659D01*
X100595408Y-86635063D01*
X100823663Y-86573903D01*
X101037830Y-86474035D01*
X101231401Y-86338495D01*
X101353329Y-86216566D01*
X101406072Y-86185273D01*
X101467365Y-86183084D01*
X101522209Y-86210537D01*
X101557189Y-86260916D01*
X101574158Y-86306411D01*
X101606204Y-86392331D01*
X101692454Y-86507546D01*
X101807669Y-86593796D01*
X101942517Y-86644091D01*
X102002127Y-86650500D01*
X103797872Y-86650499D01*
X103857483Y-86644091D01*
X103992331Y-86593796D01*
X104092688Y-86518668D01*
X104150052Y-86495099D01*
X104211655Y-86502257D01*
X104262088Y-86538350D01*
X104288735Y-86594352D01*
X104284929Y-86656253D01*
X104282259Y-86664472D01*
X104263503Y-86722197D01*
X104251867Y-86832910D01*
X104244815Y-86899999D01*
X104263503Y-87077804D01*
X104318749Y-87247835D01*
X104408140Y-87402665D01*
X104527771Y-87535527D01*
X104672403Y-87640610D01*
X104672406Y-87640611D01*
X104672407Y-87640612D01*
X104732076Y-87667178D01*
X104835735Y-87713330D01*
X105010607Y-87750500D01*
X105010609Y-87750500D01*
X105189391Y-87750500D01*
X105189393Y-87750500D01*
X105364264Y-87713330D01*
X105364265Y-87713329D01*
X105364267Y-87713329D01*
X105527593Y-87640612D01*
X105672230Y-87535526D01*
X105791859Y-87402665D01*
X105881250Y-87247835D01*
X105936497Y-87077803D01*
X105955185Y-86900000D01*
X105936497Y-86722197D01*
X105896792Y-86600000D01*
X106744815Y-86600000D01*
X106751591Y-86664472D01*
X106763503Y-86777804D01*
X106818749Y-86947835D01*
X106908140Y-87102665D01*
X107027771Y-87235527D01*
X107172403Y-87340610D01*
X107335735Y-87413330D01*
X107510607Y-87450500D01*
X107510609Y-87450500D01*
X107689391Y-87450500D01*
X107689393Y-87450500D01*
X107864264Y-87413330D01*
X107864265Y-87413329D01*
X107864267Y-87413329D01*
X108027593Y-87340612D01*
X108172230Y-87235526D01*
X108220113Y-87182346D01*
X108273943Y-87147389D01*
X108338039Y-87144030D01*
X108368477Y-87150500D01*
X108547259Y-87150500D01*
X108547261Y-87150500D01*
X108722132Y-87113330D01*
X108722133Y-87113329D01*
X108722135Y-87113329D01*
X108885461Y-87040612D01*
X109030098Y-86935526D01*
X109085046Y-86874500D01*
X115644815Y-86874500D01*
X115663503Y-87052304D01*
X115718749Y-87222335D01*
X115808140Y-87377165D01*
X115927771Y-87510027D01*
X116072403Y-87615110D01*
X116072406Y-87615111D01*
X116072407Y-87615112D01*
X116181290Y-87663589D01*
X116235735Y-87687830D01*
X116278665Y-87696955D01*
X116330920Y-87721878D01*
X116366164Y-87767809D01*
X116376715Y-87824734D01*
X116360272Y-87880244D01*
X116318750Y-87952162D01*
X116263503Y-88122195D01*
X116244815Y-88300000D01*
X116263503Y-88477804D01*
X116318749Y-88647835D01*
X116408140Y-88802665D01*
X116527771Y-88935527D01*
X116672403Y-89040610D01*
X116672406Y-89040611D01*
X116672407Y-89040612D01*
X116751890Y-89076000D01*
X116835735Y-89113330D01*
X117010607Y-89150500D01*
X117010609Y-89150500D01*
X117189391Y-89150500D01*
X117189393Y-89150500D01*
X117364264Y-89113330D01*
X117364265Y-89113329D01*
X117364267Y-89113329D01*
X117527593Y-89040612D01*
X117672230Y-88935526D01*
X117791859Y-88802665D01*
X117881250Y-88647835D01*
X117936497Y-88477803D01*
X117944180Y-88404700D01*
X117967182Y-88344780D01*
X118017065Y-88304385D01*
X118080462Y-88294344D01*
X118140386Y-88317348D01*
X118172403Y-88340610D01*
X118335735Y-88413330D01*
X118510607Y-88450500D01*
X118510609Y-88450500D01*
X118689391Y-88450500D01*
X118689393Y-88450500D01*
X118864264Y-88413330D01*
X118864265Y-88413329D01*
X118864267Y-88413329D01*
X119027593Y-88340612D01*
X119172230Y-88235526D01*
X119291859Y-88102665D01*
X119381250Y-87947835D01*
X119436497Y-87777803D01*
X119455185Y-87600000D01*
X119436497Y-87422197D01*
X119396792Y-87299999D01*
X143344815Y-87299999D01*
X143363503Y-87477804D01*
X143418749Y-87647835D01*
X143508140Y-87802665D01*
X143627771Y-87935527D01*
X143772403Y-88040610D01*
X143772406Y-88040611D01*
X143772407Y-88040612D01*
X143792370Y-88049500D01*
X143935735Y-88113330D01*
X144110607Y-88150500D01*
X144110609Y-88150500D01*
X144289391Y-88150500D01*
X144289393Y-88150500D01*
X144464264Y-88113330D01*
X144464265Y-88113329D01*
X144464267Y-88113329D01*
X144627593Y-88040612D01*
X144772230Y-87935526D01*
X144891859Y-87802665D01*
X144981250Y-87647835D01*
X145036497Y-87477803D01*
X145055185Y-87300000D01*
X145036497Y-87122197D01*
X144986273Y-86967624D01*
X144981250Y-86952164D01*
X144891859Y-86797334D01*
X144772228Y-86664472D01*
X144627596Y-86559389D01*
X144464264Y-86486669D01*
X144289393Y-86449500D01*
X144289391Y-86449500D01*
X144110609Y-86449500D01*
X144110607Y-86449500D01*
X143935735Y-86486669D01*
X143772408Y-86559387D01*
X143627768Y-86664474D01*
X143508140Y-86797334D01*
X143418749Y-86952164D01*
X143363503Y-87122195D01*
X143344815Y-87299999D01*
X119396792Y-87299999D01*
X119394925Y-87294253D01*
X119381250Y-87252164D01*
X119291859Y-87097334D01*
X119172228Y-86964472D01*
X119027596Y-86859389D01*
X118864264Y-86786669D01*
X118689393Y-86749500D01*
X118689391Y-86749500D01*
X118510609Y-86749500D01*
X118510607Y-86749500D01*
X118335735Y-86786669D01*
X118172408Y-86859387D01*
X118027768Y-86964474D01*
X117908140Y-87097334D01*
X117818749Y-87252164D01*
X117763503Y-87422195D01*
X117763502Y-87422197D01*
X117763503Y-87422197D01*
X117756727Y-87486671D01*
X117755820Y-87495297D01*
X117732817Y-87555220D01*
X117682933Y-87595614D01*
X117619537Y-87605655D01*
X117559613Y-87582652D01*
X117527592Y-87559387D01*
X117364265Y-87486670D01*
X117321332Y-87477544D01*
X117269078Y-87452619D01*
X117233834Y-87406688D01*
X117223284Y-87349763D01*
X117239725Y-87294257D01*
X117281250Y-87222335D01*
X117336497Y-87052303D01*
X117355185Y-86874500D01*
X117336497Y-86696697D01*
X117291883Y-86559389D01*
X117281250Y-86526664D01*
X117191859Y-86371834D01*
X117072228Y-86238972D01*
X116927596Y-86133889D01*
X116764264Y-86061169D01*
X116589393Y-86024000D01*
X116589391Y-86024000D01*
X116410609Y-86024000D01*
X116410607Y-86024000D01*
X116235735Y-86061169D01*
X116072408Y-86133887D01*
X115927768Y-86238974D01*
X115808140Y-86371834D01*
X115718749Y-86526664D01*
X115663503Y-86696695D01*
X115644815Y-86874500D01*
X109085046Y-86874500D01*
X109149727Y-86802665D01*
X109239118Y-86647835D01*
X109289974Y-86491315D01*
X109315754Y-86446663D01*
X109357469Y-86416355D01*
X109364264Y-86413329D01*
X109364267Y-86413329D01*
X109527593Y-86340612D01*
X109574667Y-86306409D01*
X109621769Y-86285438D01*
X109673332Y-86285438D01*
X109720437Y-86306410D01*
X109802609Y-86366112D01*
X109965937Y-86438830D01*
X110140809Y-86476000D01*
X110140811Y-86476000D01*
X110319593Y-86476000D01*
X110319595Y-86476000D01*
X110494466Y-86438830D01*
X110494467Y-86438829D01*
X110494469Y-86438829D01*
X110657795Y-86366112D01*
X110676488Y-86352531D01*
X110698861Y-86336274D01*
X110802432Y-86261026D01*
X110922061Y-86128165D01*
X111011452Y-85973335D01*
X111066699Y-85803303D01*
X111085387Y-85625500D01*
X111066699Y-85447697D01*
X111011452Y-85277665D01*
X111011452Y-85277664D01*
X110922061Y-85122834D01*
X110802430Y-84989972D01*
X110657798Y-84884889D01*
X110494466Y-84812169D01*
X110437214Y-84800000D01*
X114844815Y-84800000D01*
X114848549Y-84835526D01*
X114863503Y-84977804D01*
X114918749Y-85147835D01*
X115008140Y-85302665D01*
X115127771Y-85435527D01*
X115272403Y-85540610D01*
X115435735Y-85613330D01*
X115610607Y-85650500D01*
X115610609Y-85650500D01*
X115789391Y-85650500D01*
X115789393Y-85650500D01*
X115964264Y-85613330D01*
X115964265Y-85613329D01*
X115964267Y-85613329D01*
X116127593Y-85540612D01*
X116148394Y-85525499D01*
X120744815Y-85525499D01*
X120763503Y-85703304D01*
X120818749Y-85873335D01*
X120908140Y-86028165D01*
X121027771Y-86161027D01*
X121172403Y-86266110D01*
X121335735Y-86338830D01*
X121510607Y-86376000D01*
X121510609Y-86376000D01*
X121689391Y-86376000D01*
X121689393Y-86376000D01*
X121864264Y-86338830D01*
X121864265Y-86338829D01*
X121864267Y-86338829D01*
X122027593Y-86266112D01*
X122029848Y-86264474D01*
X122095782Y-86216569D01*
X122172230Y-86161026D01*
X122291859Y-86028165D01*
X122300903Y-86012499D01*
X122346291Y-85967113D01*
X122408291Y-85950500D01*
X122589393Y-85950500D01*
X122764264Y-85913330D01*
X122764265Y-85913329D01*
X122764267Y-85913329D01*
X122927593Y-85840612D01*
X123072230Y-85735526D01*
X123191859Y-85602665D01*
X123281250Y-85447835D01*
X123336497Y-85277803D01*
X123355185Y-85100000D01*
X123336497Y-84922197D01*
X123292461Y-84786669D01*
X123281250Y-84752164D01*
X123191859Y-84597334D01*
X123072228Y-84464472D01*
X122927596Y-84359389D01*
X122764264Y-84286669D01*
X122589393Y-84249500D01*
X122589391Y-84249500D01*
X122410609Y-84249500D01*
X122410607Y-84249500D01*
X122235735Y-84286669D01*
X122072408Y-84359387D01*
X121927769Y-84464474D01*
X121808142Y-84597333D01*
X121808140Y-84597335D01*
X121808141Y-84597335D01*
X121799094Y-84613003D01*
X121753710Y-84658387D01*
X121691710Y-84675000D01*
X121510607Y-84675000D01*
X121335735Y-84712169D01*
X121172408Y-84784887D01*
X121027768Y-84889974D01*
X120908140Y-85022834D01*
X120818749Y-85177664D01*
X120763503Y-85347695D01*
X120744815Y-85525499D01*
X116148394Y-85525499D01*
X116272230Y-85435526D01*
X116391859Y-85302665D01*
X116481250Y-85147835D01*
X116536497Y-84977803D01*
X116555185Y-84800000D01*
X116536497Y-84622197D01*
X116503691Y-84521230D01*
X116481250Y-84452164D01*
X116391859Y-84297335D01*
X116383907Y-84288503D01*
X116355739Y-84235529D01*
X116355739Y-84175532D01*
X116383907Y-84122557D01*
X116396021Y-84109104D01*
X116491859Y-84002665D01*
X116581250Y-83847835D01*
X116636497Y-83677803D01*
X116655185Y-83500000D01*
X116636497Y-83322197D01*
X116581250Y-83152165D01*
X116581250Y-83152164D01*
X116491859Y-82997334D01*
X116372228Y-82864472D01*
X116227596Y-82759389D01*
X116064264Y-82686669D01*
X115889393Y-82649500D01*
X115889391Y-82649500D01*
X115710609Y-82649500D01*
X115710607Y-82649500D01*
X115535735Y-82686669D01*
X115372408Y-82759387D01*
X115227768Y-82864474D01*
X115108140Y-82997334D01*
X115018749Y-83152164D01*
X114963503Y-83322195D01*
X114949083Y-83459389D01*
X114944815Y-83500000D01*
X114952993Y-83577804D01*
X114963503Y-83677804D01*
X115018749Y-83847835D01*
X115108140Y-84002665D01*
X115116095Y-84011500D01*
X115144260Y-84064473D01*
X115144259Y-84124469D01*
X115116093Y-84177442D01*
X115008140Y-84297334D01*
X114918749Y-84452164D01*
X114863503Y-84622195D01*
X114855045Y-84702665D01*
X114844815Y-84800000D01*
X110437214Y-84800000D01*
X110319595Y-84775000D01*
X110319593Y-84775000D01*
X110140811Y-84775000D01*
X110140809Y-84775000D01*
X109965937Y-84812169D01*
X109802611Y-84884887D01*
X109755535Y-84919090D01*
X109708430Y-84940061D01*
X109656868Y-84940061D01*
X109609764Y-84919089D01*
X109527592Y-84859387D01*
X109364264Y-84786669D01*
X109189393Y-84749500D01*
X109189391Y-84749500D01*
X109010609Y-84749500D01*
X109010607Y-84749500D01*
X108835735Y-84786669D01*
X108672408Y-84859387D01*
X108527768Y-84964474D01*
X108408140Y-85097334D01*
X108318750Y-85252163D01*
X108267893Y-85408684D01*
X108242112Y-85453337D01*
X108200397Y-85483645D01*
X108030276Y-85559387D01*
X107885638Y-85664473D01*
X107837755Y-85717652D01*
X107783924Y-85752609D01*
X107719827Y-85755969D01*
X107689391Y-85749500D01*
X107510609Y-85749500D01*
X107510607Y-85749500D01*
X107335735Y-85786669D01*
X107172408Y-85859387D01*
X107027768Y-85964474D01*
X106908140Y-86097334D01*
X106818749Y-86252164D01*
X106763503Y-86422195D01*
X106749083Y-86559389D01*
X106744815Y-86600000D01*
X105896792Y-86600000D01*
X105896792Y-86599999D01*
X105881250Y-86552164D01*
X105791859Y-86397334D01*
X105672228Y-86264472D01*
X105527596Y-86159389D01*
X105364264Y-86086669D01*
X105189393Y-86049500D01*
X105189391Y-86049500D01*
X105010609Y-86049500D01*
X105010607Y-86049500D01*
X104835735Y-86086669D01*
X104672408Y-86159387D01*
X104527768Y-86264475D01*
X104461171Y-86338437D01*
X104409744Y-86372587D01*
X104348224Y-86377707D01*
X104291859Y-86352531D01*
X104254619Y-86303296D01*
X104245733Y-86242207D01*
X104246081Y-86238972D01*
X104250500Y-86197873D01*
X104250499Y-84402128D01*
X104244091Y-84342517D01*
X104193796Y-84207669D01*
X104107546Y-84092454D01*
X103992331Y-84006204D01*
X103857483Y-83955909D01*
X103797873Y-83949500D01*
X103797869Y-83949500D01*
X102002130Y-83949500D01*
X101942515Y-83955909D01*
X101807669Y-84006204D01*
X101692454Y-84092454D01*
X101606204Y-84207669D01*
X101557189Y-84339083D01*
X101522209Y-84389462D01*
X101467365Y-84416915D01*
X101406072Y-84414726D01*
X101353326Y-84383430D01*
X101231404Y-84261508D01*
X101231401Y-84261505D01*
X101037830Y-84125965D01*
X100823663Y-84026097D01*
X100762502Y-84009709D01*
X100595407Y-83964936D01*
X100360000Y-83944340D01*
X100124592Y-83964936D01*
X99896336Y-84026097D01*
X99682170Y-84125965D01*
X99488598Y-84261505D01*
X99321505Y-84428598D01*
X99191575Y-84614159D01*
X99147257Y-84653025D01*
X99090000Y-84667036D01*
X99032743Y-84653025D01*
X98988425Y-84614159D01*
X98858494Y-84428598D01*
X98691404Y-84261508D01*
X98691401Y-84261505D01*
X98497830Y-84125965D01*
X98283663Y-84026097D01*
X98222502Y-84009709D01*
X98055407Y-83964936D01*
X97820000Y-83944340D01*
X97584592Y-83964936D01*
X97356336Y-84026097D01*
X97142170Y-84125965D01*
X96948598Y-84261505D01*
X96781505Y-84428598D01*
X96645965Y-84622170D01*
X96546097Y-84836336D01*
X96484936Y-85064592D01*
X96464340Y-85300000D01*
X78378770Y-85300000D01*
X77600000Y-84521230D01*
X76729942Y-85391286D01*
X76729942Y-85391287D01*
X72262794Y-85391287D01*
X72633169Y-84167677D01*
X76094858Y-84167677D01*
X76115386Y-84415409D01*
X76176413Y-84656398D01*
X76276268Y-84884047D01*
X76376563Y-85037559D01*
X76376564Y-85037559D01*
X77246447Y-84167678D01*
X77953553Y-84167678D01*
X78823434Y-85037559D01*
X78923730Y-84884046D01*
X79023586Y-84656398D01*
X79084613Y-84415409D01*
X79102463Y-84200000D01*
X85244815Y-84200000D01*
X85251280Y-84261508D01*
X85263503Y-84377804D01*
X85318749Y-84547835D01*
X85408140Y-84702665D01*
X85527771Y-84835527D01*
X85672403Y-84940610D01*
X85835735Y-85013330D01*
X86010607Y-85050500D01*
X86010609Y-85050500D01*
X86189391Y-85050500D01*
X86189393Y-85050500D01*
X86364264Y-85013330D01*
X86364265Y-85013329D01*
X86364267Y-85013329D01*
X86527593Y-84940612D01*
X86528352Y-84940061D01*
X86568659Y-84910774D01*
X86672230Y-84835526D01*
X86791859Y-84702665D01*
X86881250Y-84547835D01*
X86936497Y-84377803D01*
X86955185Y-84200000D01*
X86936497Y-84022197D01*
X86881250Y-83852165D01*
X86881250Y-83852164D01*
X86791859Y-83697334D01*
X86684232Y-83577804D01*
X86672230Y-83564474D01*
X86672229Y-83564473D01*
X86672228Y-83564472D01*
X86527596Y-83459389D01*
X86394206Y-83400000D01*
X107344815Y-83400000D01*
X107363503Y-83577804D01*
X107418749Y-83747835D01*
X107508140Y-83902665D01*
X107627771Y-84035527D01*
X107772403Y-84140610D01*
X107772406Y-84140611D01*
X107772407Y-84140612D01*
X107833199Y-84167678D01*
X107935735Y-84213330D01*
X108110607Y-84250500D01*
X108110609Y-84250500D01*
X108289391Y-84250500D01*
X108289393Y-84250500D01*
X108464264Y-84213330D01*
X108464265Y-84213329D01*
X108464267Y-84213329D01*
X108627593Y-84140612D01*
X108772230Y-84035526D01*
X108820204Y-83982245D01*
X108878174Y-83946022D01*
X108946531Y-83946021D01*
X109004502Y-83982245D01*
X109092397Y-84079861D01*
X109101036Y-84089456D01*
X109102271Y-84090827D01*
X109246903Y-84195910D01*
X109246906Y-84195911D01*
X109246907Y-84195912D01*
X109286029Y-84213330D01*
X109410235Y-84268630D01*
X109585107Y-84305800D01*
X109585109Y-84305800D01*
X109763891Y-84305800D01*
X109763893Y-84305800D01*
X109880474Y-84281019D01*
X109938767Y-84268629D01*
X109948302Y-84264383D01*
X109956799Y-84260601D01*
X110020196Y-84250559D01*
X110080121Y-84273562D01*
X110172407Y-84340612D01*
X110335735Y-84413330D01*
X110510607Y-84450500D01*
X110510609Y-84450500D01*
X110689391Y-84450500D01*
X110689393Y-84450500D01*
X110864264Y-84413330D01*
X110864265Y-84413329D01*
X110864267Y-84413329D01*
X111027593Y-84340612D01*
X111029698Y-84339083D01*
X111087159Y-84297334D01*
X111172230Y-84235526D01*
X111267899Y-84129274D01*
X111317636Y-84095727D01*
X111377305Y-84089456D01*
X111432933Y-84111932D01*
X111472406Y-84140612D01*
X111635735Y-84213330D01*
X111810607Y-84250500D01*
X111810609Y-84250500D01*
X111989391Y-84250500D01*
X111989393Y-84250500D01*
X112164264Y-84213330D01*
X112164265Y-84213329D01*
X112164267Y-84213329D01*
X112327593Y-84140612D01*
X112472230Y-84035526D01*
X112591859Y-83902665D01*
X112681250Y-83747835D01*
X112736497Y-83577803D01*
X112755185Y-83400000D01*
X112736497Y-83222197D01*
X112681250Y-83052165D01*
X112681250Y-83052164D01*
X112591859Y-82897334D01*
X112472228Y-82764472D01*
X112327596Y-82659389D01*
X112164264Y-82586669D01*
X111989393Y-82549500D01*
X111989391Y-82549500D01*
X111810609Y-82549500D01*
X111810607Y-82549500D01*
X111635735Y-82586669D01*
X111472408Y-82659387D01*
X111327768Y-82764475D01*
X111232102Y-82870722D01*
X111182363Y-82904271D01*
X111122695Y-82910542D01*
X111067068Y-82888067D01*
X111027595Y-82859388D01*
X110864264Y-82786669D01*
X110689393Y-82749500D01*
X110689391Y-82749500D01*
X110510609Y-82749500D01*
X110510607Y-82749500D01*
X110335730Y-82786670D01*
X110317696Y-82794700D01*
X110254300Y-82804741D01*
X110194380Y-82781739D01*
X110102093Y-82714688D01*
X110096075Y-82712008D01*
X110046196Y-82671616D01*
X110023194Y-82611695D01*
X110010997Y-82495649D01*
X109955750Y-82325617D01*
X109955750Y-82325616D01*
X109866359Y-82170786D01*
X109746728Y-82037924D01*
X109602096Y-81932841D01*
X109438764Y-81860121D01*
X109263893Y-81822952D01*
X109263891Y-81822952D01*
X109085109Y-81822952D01*
X109085107Y-81822952D01*
X108910235Y-81860121D01*
X108746908Y-81932839D01*
X108602268Y-82037926D01*
X108482640Y-82170786D01*
X108393249Y-82325616D01*
X108364750Y-82413330D01*
X108354379Y-82445251D01*
X108348346Y-82463818D01*
X108322565Y-82508472D01*
X108280850Y-82538780D01*
X108230415Y-82549500D01*
X108110607Y-82549500D01*
X107935735Y-82586669D01*
X107772408Y-82659387D01*
X107627768Y-82764474D01*
X107508140Y-82897334D01*
X107418749Y-83052164D01*
X107363503Y-83222195D01*
X107344815Y-83400000D01*
X86394206Y-83400000D01*
X86364264Y-83386669D01*
X86189393Y-83349500D01*
X86189391Y-83349500D01*
X86010609Y-83349500D01*
X86010607Y-83349500D01*
X85835735Y-83386669D01*
X85672408Y-83459387D01*
X85527768Y-83564474D01*
X85408140Y-83697334D01*
X85318749Y-83852164D01*
X85263503Y-84022195D01*
X85251057Y-84140610D01*
X85244815Y-84200000D01*
X79102463Y-84200000D01*
X79105141Y-84167677D01*
X79084613Y-83919944D01*
X79023586Y-83678955D01*
X78923730Y-83451307D01*
X78823434Y-83297793D01*
X77953553Y-84167677D01*
X77953553Y-84167678D01*
X77246447Y-84167678D01*
X77246447Y-84167676D01*
X76376564Y-83297793D01*
X76276266Y-83451311D01*
X76176413Y-83678955D01*
X76115386Y-83919944D01*
X76094858Y-84167677D01*
X72633169Y-84167677D01*
X73003544Y-82944067D01*
X76729942Y-82944067D01*
X77600000Y-83814124D01*
X77600001Y-83814124D01*
X78470057Y-82944067D01*
X78470056Y-82944065D01*
X78423235Y-82907624D01*
X78204606Y-82789308D01*
X77969493Y-82708593D01*
X77724293Y-82667677D01*
X77475707Y-82667677D01*
X77230506Y-82708593D01*
X76995393Y-82789308D01*
X76776764Y-82907623D01*
X76729942Y-82944065D01*
X76729942Y-82944067D01*
X73003544Y-82944067D01*
X73319573Y-81900000D01*
X83144815Y-81900000D01*
X83163503Y-82077804D01*
X83218749Y-82247835D01*
X83308140Y-82402665D01*
X83427771Y-82535527D01*
X83572403Y-82640610D01*
X83572406Y-82640611D01*
X83572407Y-82640612D01*
X83642044Y-82671616D01*
X83735735Y-82713330D01*
X83910607Y-82750500D01*
X83910609Y-82750500D01*
X84089391Y-82750500D01*
X84089393Y-82750500D01*
X84264264Y-82713330D01*
X84264265Y-82713329D01*
X84264267Y-82713329D01*
X84427593Y-82640612D01*
X84572230Y-82535526D01*
X84691859Y-82402665D01*
X84781250Y-82247835D01*
X84836497Y-82077803D01*
X84855185Y-81900000D01*
X84836497Y-81722197D01*
X84796793Y-81600000D01*
X87144815Y-81600000D01*
X87163503Y-81777804D01*
X87218749Y-81947835D01*
X87308140Y-82102665D01*
X87427771Y-82235527D01*
X87572403Y-82340610D01*
X87735735Y-82413330D01*
X87910607Y-82450500D01*
X87910609Y-82450500D01*
X88089388Y-82450500D01*
X88089391Y-82450500D01*
X88123930Y-82443158D01*
X88183886Y-82445251D01*
X88235846Y-82475249D01*
X88267640Y-82526130D01*
X88298898Y-82622335D01*
X88388289Y-82777165D01*
X88507920Y-82910027D01*
X88652552Y-83015110D01*
X88815884Y-83087830D01*
X88990756Y-83125000D01*
X88990758Y-83125000D01*
X89169540Y-83125000D01*
X89169542Y-83125000D01*
X89344413Y-83087830D01*
X89344414Y-83087829D01*
X89344416Y-83087829D01*
X89507742Y-83015112D01*
X89652379Y-82910026D01*
X89772008Y-82777165D01*
X89861399Y-82622335D01*
X89916646Y-82452303D01*
X89935334Y-82274500D01*
X89916646Y-82096697D01*
X89863406Y-81932841D01*
X89861399Y-81926664D01*
X89772008Y-81771834D01*
X89707328Y-81700000D01*
X94044815Y-81700000D01*
X94052993Y-81777804D01*
X94063503Y-81877804D01*
X94118749Y-82047835D01*
X94208140Y-82202665D01*
X94327771Y-82335527D01*
X94472403Y-82440610D01*
X94472406Y-82440611D01*
X94472407Y-82440612D01*
X94581291Y-82489090D01*
X94635735Y-82513330D01*
X94810607Y-82550500D01*
X94810609Y-82550500D01*
X94989391Y-82550500D01*
X94989393Y-82550500D01*
X95164264Y-82513330D01*
X95164265Y-82513329D01*
X95164267Y-82513329D01*
X95327593Y-82440612D01*
X95472230Y-82335526D01*
X95591859Y-82202665D01*
X95681250Y-82047835D01*
X95736497Y-81877803D01*
X95755185Y-81700000D01*
X95736497Y-81522197D01*
X95695927Y-81397335D01*
X95681250Y-81352164D01*
X95591859Y-81197334D01*
X95472228Y-81064472D01*
X95327596Y-80959389D01*
X95164264Y-80886669D01*
X94989393Y-80849500D01*
X94989391Y-80849500D01*
X94810609Y-80849500D01*
X94810607Y-80849500D01*
X94635735Y-80886669D01*
X94472408Y-80959387D01*
X94327768Y-81064474D01*
X94208140Y-81197334D01*
X94118749Y-81352164D01*
X94063503Y-81522195D01*
X94051229Y-81638972D01*
X94044815Y-81700000D01*
X89707328Y-81700000D01*
X89652377Y-81638972D01*
X89507745Y-81533889D01*
X89344413Y-81461169D01*
X89169542Y-81424000D01*
X89169540Y-81424000D01*
X88990758Y-81424000D01*
X88956219Y-81431341D01*
X88896260Y-81429246D01*
X88844302Y-81399248D01*
X88812509Y-81348368D01*
X88781250Y-81252164D01*
X88691859Y-81097334D01*
X88572228Y-80964472D01*
X88427596Y-80859389D01*
X88264264Y-80786669D01*
X88089393Y-80749500D01*
X88089391Y-80749500D01*
X87910609Y-80749500D01*
X87910607Y-80749500D01*
X87735735Y-80786669D01*
X87572408Y-80859387D01*
X87427768Y-80964474D01*
X87308140Y-81097334D01*
X87218749Y-81252164D01*
X87163503Y-81422195D01*
X87144815Y-81600000D01*
X84796793Y-81600000D01*
X84781250Y-81552165D01*
X84781250Y-81552164D01*
X84691859Y-81397334D01*
X84572228Y-81264472D01*
X84427596Y-81159389D01*
X84264264Y-81086669D01*
X84089393Y-81049500D01*
X84089391Y-81049500D01*
X83910609Y-81049500D01*
X83910607Y-81049500D01*
X83735735Y-81086669D01*
X83572408Y-81159387D01*
X83427768Y-81264474D01*
X83308140Y-81397334D01*
X83218749Y-81552164D01*
X83163503Y-81722195D01*
X83144815Y-81900000D01*
X73319573Y-81900000D01*
X74560605Y-77800000D01*
X84844815Y-77800000D01*
X84863503Y-77977804D01*
X84918749Y-78147835D01*
X85008140Y-78302665D01*
X85127771Y-78435527D01*
X85272403Y-78540610D01*
X85435735Y-78613330D01*
X85610607Y-78650500D01*
X85610609Y-78650500D01*
X85789391Y-78650500D01*
X85789393Y-78650500D01*
X85964264Y-78613330D01*
X85964265Y-78613329D01*
X85964267Y-78613329D01*
X86127593Y-78540612D01*
X86272230Y-78435526D01*
X86391859Y-78302665D01*
X86481250Y-78147835D01*
X86536497Y-77977803D01*
X86555185Y-77800000D01*
X86536497Y-77622197D01*
X86481250Y-77452165D01*
X86481250Y-77452164D01*
X86391859Y-77297334D01*
X86272228Y-77164472D01*
X86127596Y-77059389D01*
X85964264Y-76986669D01*
X85789393Y-76949500D01*
X85789391Y-76949500D01*
X85610609Y-76949500D01*
X85610607Y-76949500D01*
X85435735Y-76986669D01*
X85272408Y-77059387D01*
X85127768Y-77164474D01*
X85008140Y-77297334D01*
X84918749Y-77452164D01*
X84863503Y-77622195D01*
X84844815Y-77800000D01*
X74560605Y-77800000D01*
X75976104Y-73123610D01*
X78597619Y-73123610D01*
X78644443Y-73160055D01*
X78863070Y-73278368D01*
X79098183Y-73359083D01*
X79343384Y-73400000D01*
X79591970Y-73400000D01*
X79837170Y-73359083D01*
X80072283Y-73278368D01*
X80290910Y-73160053D01*
X80337733Y-73123609D01*
X80161993Y-72947869D01*
X82967177Y-72947869D01*
X82973586Y-73007483D01*
X83023881Y-73142331D01*
X83110131Y-73257546D01*
X83225346Y-73343796D01*
X83360194Y-73394091D01*
X83419804Y-73400500D01*
X84809467Y-73400499D01*
X84869203Y-73415837D01*
X84914162Y-73458056D01*
X84933221Y-73516712D01*
X84921665Y-73577295D01*
X84882352Y-73624816D01*
X84827771Y-73664471D01*
X84708140Y-73797334D01*
X84618749Y-73952164D01*
X84563503Y-74122195D01*
X84544815Y-74299999D01*
X84563503Y-74477804D01*
X84618749Y-74647835D01*
X84708140Y-74802665D01*
X84827771Y-74935527D01*
X84972403Y-75040610D01*
X85135735Y-75113330D01*
X85310607Y-75150500D01*
X85310609Y-75150500D01*
X85489391Y-75150500D01*
X85489393Y-75150500D01*
X85664264Y-75113330D01*
X85664265Y-75113329D01*
X85664267Y-75113329D01*
X85827593Y-75040612D01*
X85972230Y-74935526D01*
X86091859Y-74802665D01*
X86181250Y-74647835D01*
X86236497Y-74477803D01*
X86244674Y-74400000D01*
X88244815Y-74400000D01*
X88252993Y-74477804D01*
X88263503Y-74577804D01*
X88318749Y-74747835D01*
X88408140Y-74902665D01*
X88527771Y-75035527D01*
X88672403Y-75140610D01*
X88835735Y-75213330D01*
X89010607Y-75250500D01*
X89010609Y-75250500D01*
X89189391Y-75250500D01*
X89189393Y-75250500D01*
X89364264Y-75213330D01*
X89364265Y-75213329D01*
X89364267Y-75213329D01*
X89527593Y-75140612D01*
X89672230Y-75035526D01*
X89791859Y-74902665D01*
X89881250Y-74747835D01*
X89936497Y-74577803D01*
X89955185Y-74400000D01*
X89936497Y-74222197D01*
X89881250Y-74052165D01*
X89881250Y-74052164D01*
X89791859Y-73897334D01*
X89672228Y-73764472D01*
X89527596Y-73659389D01*
X89364264Y-73586669D01*
X89189393Y-73549500D01*
X89189391Y-73549500D01*
X89010609Y-73549500D01*
X89010607Y-73549500D01*
X88835735Y-73586669D01*
X88672408Y-73659387D01*
X88527768Y-73764474D01*
X88408140Y-73897334D01*
X88318749Y-74052164D01*
X88263503Y-74222195D01*
X88244815Y-74399999D01*
X88244815Y-74400000D01*
X86244674Y-74400000D01*
X86255185Y-74300000D01*
X86236497Y-74122197D01*
X86181250Y-73952165D01*
X86181250Y-73952164D01*
X86091859Y-73797334D01*
X85972228Y-73664472D01*
X85827596Y-73559389D01*
X85766281Y-73532090D01*
X85716659Y-73492053D01*
X85693491Y-73432652D01*
X85702903Y-73369591D01*
X85742403Y-73319544D01*
X85825223Y-73257546D01*
X85911473Y-73142331D01*
X85961768Y-73007483D01*
X85968177Y-72947873D01*
X85968176Y-70852128D01*
X85961768Y-70792517D01*
X85911473Y-70657669D01*
X85825223Y-70542454D01*
X85710008Y-70456204D01*
X85575160Y-70405909D01*
X85515550Y-70399500D01*
X85515546Y-70399500D01*
X83419807Y-70399500D01*
X83360192Y-70405909D01*
X83225346Y-70456204D01*
X83110131Y-70542454D01*
X83023881Y-70657668D01*
X82973586Y-70792516D01*
X82967177Y-70852130D01*
X82967177Y-72947869D01*
X80161993Y-72947869D01*
X79467677Y-72253553D01*
X78597619Y-73123609D01*
X78597619Y-73123610D01*
X75976104Y-73123610D01*
X76346479Y-71899999D01*
X77962535Y-71899999D01*
X77983063Y-72147732D01*
X78044090Y-72388721D01*
X78143945Y-72616370D01*
X78244240Y-72769882D01*
X78244241Y-72769882D01*
X79114124Y-71900001D01*
X79821230Y-71900001D01*
X80691111Y-72769882D01*
X80791407Y-72616369D01*
X80891263Y-72388721D01*
X80952290Y-72147732D01*
X80972818Y-71899999D01*
X80952290Y-71652267D01*
X80891263Y-71411278D01*
X80791407Y-71183630D01*
X80691111Y-71030116D01*
X79821230Y-71900000D01*
X79821230Y-71900001D01*
X79114124Y-71900001D01*
X79114124Y-71899999D01*
X78244241Y-71030116D01*
X78143943Y-71183634D01*
X78044090Y-71411278D01*
X77983063Y-71652267D01*
X77962535Y-71899999D01*
X76346479Y-71899999D01*
X76716854Y-70676390D01*
X78597619Y-70676390D01*
X79467677Y-71546447D01*
X79467678Y-71546447D01*
X80337734Y-70676390D01*
X80337733Y-70676388D01*
X80290912Y-70639947D01*
X80072283Y-70521631D01*
X79837170Y-70440916D01*
X79591970Y-70400000D01*
X79343384Y-70400000D01*
X79098183Y-70440916D01*
X78863070Y-70521631D01*
X78644441Y-70639946D01*
X78597619Y-70676388D01*
X78597619Y-70676390D01*
X76716854Y-70676390D01*
X77042667Y-69600000D01*
X116244815Y-69600000D01*
X116263503Y-69777804D01*
X116318749Y-69947835D01*
X116408140Y-70102665D01*
X116527771Y-70235527D01*
X116672403Y-70340610D01*
X116835735Y-70413330D01*
X117010607Y-70450500D01*
X117010609Y-70450500D01*
X117189391Y-70450500D01*
X117189393Y-70450500D01*
X117364264Y-70413330D01*
X117364265Y-70413329D01*
X117364267Y-70413329D01*
X117527593Y-70340612D01*
X117672230Y-70235526D01*
X117791859Y-70102665D01*
X117881250Y-69947835D01*
X117936497Y-69777803D01*
X117955185Y-69600000D01*
X117936497Y-69422197D01*
X117881250Y-69252165D01*
X117881250Y-69252164D01*
X117791859Y-69097334D01*
X117672228Y-68964472D01*
X117527596Y-68859389D01*
X117364264Y-68786669D01*
X117189393Y-68749500D01*
X117189391Y-68749500D01*
X117010609Y-68749500D01*
X117010607Y-68749500D01*
X116835735Y-68786669D01*
X116672408Y-68859387D01*
X116527768Y-68964474D01*
X116408140Y-69097334D01*
X116318749Y-69252164D01*
X116263503Y-69422195D01*
X116244815Y-69600000D01*
X77042667Y-69600000D01*
X77708586Y-67400000D01*
X80294659Y-67400000D01*
X80313976Y-67596133D01*
X80371185Y-67784726D01*
X80371186Y-67784727D01*
X80464090Y-67958538D01*
X80589117Y-68110883D01*
X80741462Y-68235910D01*
X80915273Y-68328814D01*
X81103868Y-68386024D01*
X81300000Y-68405341D01*
X81496132Y-68386024D01*
X81684727Y-68328814D01*
X81858538Y-68235910D01*
X82010883Y-68110883D01*
X82135910Y-67958538D01*
X82228814Y-67784727D01*
X82286024Y-67596132D01*
X82305341Y-67400000D01*
X82286024Y-67203868D01*
X82228814Y-67015273D01*
X82167199Y-66899999D01*
X88244815Y-66899999D01*
X88263503Y-67077804D01*
X88318749Y-67247835D01*
X88408140Y-67402665D01*
X88527771Y-67535527D01*
X88672403Y-67640610D01*
X88672406Y-67640611D01*
X88672407Y-67640612D01*
X88725735Y-67664355D01*
X88835735Y-67713330D01*
X89010607Y-67750500D01*
X89010609Y-67750500D01*
X89189391Y-67750500D01*
X89189393Y-67750500D01*
X89364264Y-67713330D01*
X89364265Y-67713329D01*
X89364267Y-67713329D01*
X89527593Y-67640612D01*
X89672230Y-67535526D01*
X89791859Y-67402665D01*
X89881250Y-67247835D01*
X89936497Y-67077803D01*
X89952689Y-66923743D01*
X106656091Y-66923743D01*
X106674779Y-67101547D01*
X106730025Y-67271578D01*
X106819416Y-67426408D01*
X106939047Y-67559270D01*
X107083679Y-67664353D01*
X107247011Y-67737073D01*
X107421883Y-67774243D01*
X107421885Y-67774243D01*
X107600667Y-67774243D01*
X107600669Y-67774243D01*
X107775540Y-67737073D01*
X107775541Y-67737072D01*
X107775543Y-67737072D01*
X107938869Y-67664355D01*
X108083506Y-67559269D01*
X108203135Y-67426408D01*
X108292526Y-67271578D01*
X108347773Y-67101546D01*
X108366461Y-66923743D01*
X108347773Y-66745940D01*
X108292526Y-66575908D01*
X108292526Y-66575907D01*
X108203135Y-66421077D01*
X108083504Y-66288215D01*
X107962088Y-66200000D01*
X116044815Y-66200000D01*
X116063503Y-66377804D01*
X116118749Y-66547835D01*
X116208140Y-66702665D01*
X116327771Y-66835527D01*
X116472403Y-66940610D01*
X116635735Y-67013330D01*
X116810607Y-67050500D01*
X116810609Y-67050500D01*
X116989391Y-67050500D01*
X116989393Y-67050500D01*
X117164264Y-67013330D01*
X117164265Y-67013329D01*
X117164267Y-67013329D01*
X117327593Y-66940612D01*
X117472230Y-66835526D01*
X117591859Y-66702665D01*
X117681250Y-66547835D01*
X117736497Y-66377803D01*
X117755185Y-66200000D01*
X117736497Y-66022197D01*
X117681250Y-65852165D01*
X117681250Y-65852164D01*
X117591859Y-65697334D01*
X117472228Y-65564472D01*
X117327596Y-65459389D01*
X117164264Y-65386669D01*
X116989393Y-65349500D01*
X116989391Y-65349500D01*
X116810609Y-65349500D01*
X116810607Y-65349500D01*
X116635735Y-65386669D01*
X116472408Y-65459387D01*
X116327768Y-65564474D01*
X116208140Y-65697334D01*
X116118749Y-65852164D01*
X116063503Y-66022195D01*
X116044815Y-66200000D01*
X107962088Y-66200000D01*
X107938872Y-66183132D01*
X107775540Y-66110412D01*
X107600669Y-66073243D01*
X107600667Y-66073243D01*
X107421885Y-66073243D01*
X107421883Y-66073243D01*
X107247011Y-66110412D01*
X107083684Y-66183130D01*
X106939044Y-66288217D01*
X106819416Y-66421077D01*
X106730025Y-66575907D01*
X106674779Y-66745938D01*
X106656091Y-66923743D01*
X89952689Y-66923743D01*
X89955185Y-66900000D01*
X89936497Y-66722197D01*
X89888965Y-66575908D01*
X89881250Y-66552164D01*
X89791859Y-66397334D01*
X89672228Y-66264472D01*
X89527596Y-66159389D01*
X89364264Y-66086669D01*
X89189393Y-66049500D01*
X89189391Y-66049500D01*
X89010609Y-66049500D01*
X89010607Y-66049500D01*
X88835735Y-66086669D01*
X88672408Y-66159387D01*
X88527768Y-66264474D01*
X88408140Y-66397334D01*
X88318749Y-66552164D01*
X88263503Y-66722195D01*
X88244815Y-66899999D01*
X82167199Y-66899999D01*
X82135910Y-66841462D01*
X82010883Y-66689117D01*
X81858538Y-66564090D01*
X81828127Y-66547835D01*
X81684726Y-66471185D01*
X81496133Y-66413976D01*
X81300000Y-66394659D01*
X81103866Y-66413976D01*
X80915273Y-66471185D01*
X80741463Y-66564089D01*
X80589117Y-66689117D01*
X80464089Y-66841463D01*
X80371185Y-67015273D01*
X80313976Y-67203866D01*
X80294659Y-67400000D01*
X77708586Y-67400000D01*
X78646927Y-64300000D01*
X105244815Y-64300000D01*
X105263503Y-64477804D01*
X105318749Y-64647835D01*
X105408140Y-64802665D01*
X105527771Y-64935527D01*
X105672403Y-65040610D01*
X105835735Y-65113330D01*
X106010607Y-65150500D01*
X106010609Y-65150500D01*
X106189391Y-65150500D01*
X106189393Y-65150500D01*
X106364264Y-65113330D01*
X106364265Y-65113329D01*
X106364267Y-65113329D01*
X106527593Y-65040612D01*
X106672230Y-64935526D01*
X106791859Y-64802665D01*
X106881250Y-64647835D01*
X106936497Y-64477803D01*
X106955185Y-64300000D01*
X106936497Y-64122197D01*
X106881250Y-63952165D01*
X106872205Y-63936499D01*
X106855593Y-63874501D01*
X106872206Y-63812500D01*
X106917593Y-63767113D01*
X106979593Y-63750500D01*
X106989393Y-63750500D01*
X107164264Y-63713330D01*
X107164265Y-63713329D01*
X107164267Y-63713329D01*
X107327593Y-63640612D01*
X107472230Y-63535526D01*
X107591859Y-63402665D01*
X107681250Y-63247835D01*
X107736497Y-63077803D01*
X107755185Y-62900000D01*
X107736497Y-62722197D01*
X107681250Y-62552165D01*
X107681250Y-62552164D01*
X107591859Y-62397334D01*
X107472228Y-62264472D01*
X107327596Y-62159389D01*
X107164264Y-62086669D01*
X106989393Y-62049500D01*
X106989391Y-62049500D01*
X106810609Y-62049500D01*
X106810607Y-62049500D01*
X106635735Y-62086669D01*
X106472408Y-62159387D01*
X106327768Y-62264474D01*
X106208140Y-62397334D01*
X106118749Y-62552164D01*
X106063503Y-62722195D01*
X106044815Y-62899999D01*
X106063503Y-63077804D01*
X106118748Y-63247832D01*
X106127794Y-63263499D01*
X106144407Y-63325499D01*
X106127794Y-63387500D01*
X106082407Y-63432887D01*
X106020407Y-63449500D01*
X106010607Y-63449500D01*
X105835735Y-63486669D01*
X105672408Y-63559387D01*
X105527768Y-63664474D01*
X105408140Y-63797334D01*
X105318749Y-63952164D01*
X105263503Y-64122195D01*
X105244815Y-64300000D01*
X78646927Y-64300000D01*
X79343115Y-61999999D01*
X117144815Y-61999999D01*
X117163503Y-62177804D01*
X117218749Y-62347835D01*
X117308140Y-62502665D01*
X117427771Y-62635527D01*
X117572403Y-62740610D01*
X117735735Y-62813330D01*
X117910607Y-62850500D01*
X117910609Y-62850500D01*
X118089391Y-62850500D01*
X118089393Y-62850500D01*
X118264264Y-62813330D01*
X118264265Y-62813329D01*
X118264267Y-62813329D01*
X118427593Y-62740612D01*
X118572230Y-62635526D01*
X118691859Y-62502665D01*
X118781250Y-62347835D01*
X118836497Y-62177803D01*
X118855185Y-62000000D01*
X118836497Y-61822197D01*
X118781250Y-61652165D01*
X118781250Y-61652164D01*
X118691859Y-61497334D01*
X118572228Y-61364472D01*
X118427596Y-61259389D01*
X118264264Y-61186669D01*
X118089393Y-61149500D01*
X118089391Y-61149500D01*
X117910609Y-61149500D01*
X117910607Y-61149500D01*
X117735735Y-61186669D01*
X117572408Y-61259387D01*
X117427768Y-61364474D01*
X117308140Y-61497334D01*
X117218749Y-61652164D01*
X117163503Y-61822195D01*
X117144815Y-61999999D01*
X79343115Y-61999999D01*
X79827420Y-60400000D01*
X84095315Y-60400000D01*
X84114003Y-60577804D01*
X84169249Y-60747835D01*
X84258640Y-60902665D01*
X84378271Y-61035527D01*
X84522903Y-61140610D01*
X84686235Y-61213330D01*
X84861107Y-61250500D01*
X84861109Y-61250500D01*
X85039891Y-61250500D01*
X85039893Y-61250500D01*
X85214764Y-61213330D01*
X85214765Y-61213329D01*
X85214767Y-61213329D01*
X85378093Y-61140612D01*
X85522730Y-61035526D01*
X85642359Y-60902665D01*
X85731750Y-60747835D01*
X85786997Y-60577803D01*
X85805685Y-60400000D01*
X86444815Y-60400000D01*
X86463503Y-60577804D01*
X86518749Y-60747835D01*
X86608140Y-60902665D01*
X86727771Y-61035527D01*
X86872403Y-61140610D01*
X87035735Y-61213330D01*
X87210607Y-61250500D01*
X87210609Y-61250500D01*
X87389391Y-61250500D01*
X87389393Y-61250500D01*
X87564264Y-61213330D01*
X87564265Y-61213329D01*
X87564267Y-61213329D01*
X87727593Y-61140612D01*
X87872230Y-61035526D01*
X87991859Y-60902665D01*
X88081250Y-60747835D01*
X88136497Y-60577803D01*
X88155185Y-60400000D01*
X88136497Y-60222197D01*
X88081250Y-60052165D01*
X88081250Y-60052164D01*
X87991859Y-59897334D01*
X87872228Y-59764472D01*
X87727596Y-59659389D01*
X87564264Y-59586669D01*
X87389393Y-59549500D01*
X87389391Y-59549500D01*
X87210609Y-59549500D01*
X87210607Y-59549500D01*
X87035735Y-59586669D01*
X86872408Y-59659387D01*
X86727768Y-59764474D01*
X86608140Y-59897334D01*
X86518749Y-60052164D01*
X86463503Y-60222195D01*
X86444815Y-60400000D01*
X85805685Y-60400000D01*
X85786997Y-60222197D01*
X85731750Y-60052165D01*
X85731750Y-60052164D01*
X85642359Y-59897334D01*
X85522728Y-59764472D01*
X85378096Y-59659389D01*
X85214764Y-59586669D01*
X85039893Y-59549500D01*
X85039891Y-59549500D01*
X84861109Y-59549500D01*
X84861107Y-59549500D01*
X84686235Y-59586669D01*
X84522908Y-59659387D01*
X84378268Y-59764474D01*
X84258640Y-59897334D01*
X84169249Y-60052164D01*
X84114003Y-60222195D01*
X84095315Y-60400000D01*
X79827420Y-60400000D01*
X80130111Y-59400000D01*
X117044815Y-59400000D01*
X117063503Y-59577804D01*
X117118749Y-59747835D01*
X117208140Y-59902665D01*
X117327771Y-60035527D01*
X117472403Y-60140610D01*
X117635735Y-60213330D01*
X117810607Y-60250500D01*
X117810609Y-60250500D01*
X117989391Y-60250500D01*
X117989393Y-60250500D01*
X118164264Y-60213330D01*
X118164265Y-60213329D01*
X118164267Y-60213329D01*
X118327593Y-60140612D01*
X118472230Y-60035526D01*
X118591859Y-59902665D01*
X118681250Y-59747835D01*
X118736497Y-59577803D01*
X118755185Y-59400000D01*
X118736497Y-59222197D01*
X118681250Y-59052165D01*
X118681250Y-59052164D01*
X118591859Y-58897334D01*
X118472228Y-58764472D01*
X118327596Y-58659389D01*
X118164264Y-58586669D01*
X117989393Y-58549500D01*
X117989391Y-58549500D01*
X117810609Y-58549500D01*
X117810607Y-58549500D01*
X117635735Y-58586669D01*
X117472408Y-58659387D01*
X117327768Y-58764474D01*
X117208140Y-58897334D01*
X117118749Y-59052164D01*
X117063503Y-59222195D01*
X117044815Y-59400000D01*
X80130111Y-59400000D01*
X81138747Y-56067764D01*
X83045787Y-56067764D01*
X83075413Y-56337016D01*
X83143928Y-56599087D01*
X83249871Y-56848392D01*
X83390982Y-57079611D01*
X83480253Y-57186881D01*
X83564255Y-57287820D01*
X83765998Y-57468582D01*
X83991910Y-57618044D01*
X84098211Y-57667876D01*
X84237177Y-57733021D01*
X84496562Y-57811058D01*
X84496569Y-57811060D01*
X84764561Y-57850500D01*
X84967631Y-57850500D01*
X84967634Y-57850500D01*
X85170156Y-57835677D01*
X85170156Y-57835676D01*
X85434553Y-57776780D01*
X85687558Y-57680014D01*
X85923777Y-57547441D01*
X86138177Y-57381888D01*
X86326186Y-57186881D01*
X86483799Y-56966579D01*
X86607656Y-56725675D01*
X86695118Y-56469305D01*
X86744319Y-56202933D01*
X86754212Y-55932235D01*
X86724586Y-55662982D01*
X86656072Y-55400912D01*
X86550130Y-55151610D01*
X86409018Y-54920390D01*
X86409017Y-54920388D01*
X86235746Y-54712181D01*
X86130758Y-54618112D01*
X86034002Y-54531418D01*
X85808090Y-54381956D01*
X85808086Y-54381954D01*
X85562822Y-54266978D01*
X85303437Y-54188941D01*
X85303431Y-54188940D01*
X85035439Y-54149500D01*
X84832369Y-54149500D01*
X84832366Y-54149500D01*
X84629843Y-54164322D01*
X84365449Y-54223219D01*
X84112441Y-54319986D01*
X83876223Y-54452559D01*
X83661825Y-54618109D01*
X83473813Y-54813120D01*
X83316201Y-55033420D01*
X83192342Y-55274329D01*
X83104881Y-55530695D01*
X83055680Y-55797066D01*
X83045787Y-56067764D01*
X81138747Y-56067764D01*
X82222134Y-52488575D01*
X82247555Y-52442778D01*
X82289618Y-52411563D01*
X82340816Y-52400500D01*
X139759184Y-52400500D01*
X139810382Y-52411563D01*
G37*
%TD.AperFunction*%
%TD*%
M02*
