%TF.GenerationSoftware,KiCad,Pcbnew,7.0.1-3b83917a11~172~ubuntu22.04.1*%
%TF.CreationDate,2023-04-06T21:51:21-06:00*%
%TF.ProjectId,gps-tracker,6770732d-7472-4616-936b-65722e6b6963,rev?*%
%TF.SameCoordinates,Original*%
%TF.FileFunction,Legend,Bot*%
%TF.FilePolarity,Positive*%
%FSLAX46Y46*%
G04 Gerber Fmt 4.6, Leading zero omitted, Abs format (unit mm)*
G04 Created by KiCad (PCBNEW 7.0.1-3b83917a11~172~ubuntu22.04.1) date 2023-04-06 21:51:21*
%MOMM*%
%LPD*%
G01*
G04 APERTURE LIST*
G04 Aperture macros list*
%AMRoundRect*
0 Rectangle with rounded corners*
0 $1 Rounding radius*
0 $2 $3 $4 $5 $6 $7 $8 $9 X,Y pos of 4 corners*
0 Add a 4 corners polygon primitive as box body*
4,1,4,$2,$3,$4,$5,$6,$7,$8,$9,$2,$3,0*
0 Add four circle primitives for the rounded corners*
1,1,$1+$1,$2,$3*
1,1,$1+$1,$4,$5*
1,1,$1+$1,$6,$7*
1,1,$1+$1,$8,$9*
0 Add four rect primitives between the rounded corners*
20,1,$1+$1,$2,$3,$4,$5,0*
20,1,$1+$1,$4,$5,$6,$7,0*
20,1,$1+$1,$6,$7,$8,$9,0*
20,1,$1+$1,$8,$9,$2,$3,0*%
G04 Aperture macros list end*
%ADD10C,0.150000*%
%ADD11C,0.200000*%
%ADD12C,0.250000*%
%ADD13C,0.127000*%
%ADD14C,0.120000*%
%ADD15C,0.100000*%
%ADD16C,0.010000*%
%ADD17C,1.408000*%
%ADD18C,1.800000*%
%ADD19RoundRect,0.050000X-0.200000X-0.675000X0.200000X-0.675000X0.200000X0.675000X-0.200000X0.675000X0*%
%ADD20C,1.508000*%
%ADD21RoundRect,0.050000X0.750000X0.775000X-0.750000X0.775000X-0.750000X-0.775000X0.750000X-0.775000X0*%
%ADD22C,1.900000*%
%ADD23RoundRect,0.300000X-0.650000X1.000000X-0.650000X-1.000000X0.650000X-1.000000X0.650000X1.000000X0*%
%ADD24RoundRect,0.050000X-0.850000X-0.850000X0.850000X-0.850000X0.850000X0.850000X-0.850000X0.850000X0*%
%ADD25RoundRect,0.050000X0.850000X-0.850000X0.850000X0.850000X-0.850000X0.850000X-0.850000X-0.850000X0*%
%ADD26O,1.800000X1.800000*%
%ADD27RoundRect,0.050000X0.500000X-0.500000X0.500000X0.500000X-0.500000X0.500000X-0.500000X-0.500000X0*%
%ADD28C,1.100000*%
%ADD29C,3.300000*%
%ADD30RoundRect,0.250000X-0.275000X0.200000X-0.275000X-0.200000X0.275000X-0.200000X0.275000X0.200000X0*%
%ADD31RoundRect,0.050000X-1.000000X-1.000000X1.000000X-1.000000X1.000000X1.000000X-1.000000X1.000000X0*%
%ADD32C,2.100000*%
%ADD33RoundRect,0.275000X0.225000X0.250000X-0.225000X0.250000X-0.225000X-0.250000X0.225000X-0.250000X0*%
%ADD34RoundRect,0.190000X-0.140000X-0.170000X0.140000X-0.170000X0.140000X0.170000X-0.140000X0.170000X0*%
%ADD35RoundRect,0.190000X0.170000X-0.140000X0.170000X0.140000X-0.170000X0.140000X-0.170000X-0.140000X0*%
%ADD36RoundRect,0.268750X0.256250X-0.218750X0.256250X0.218750X-0.256250X0.218750X-0.256250X-0.218750X0*%
%ADD37RoundRect,0.050000X-0.850000X0.850000X-0.850000X-0.850000X0.850000X-0.850000X0.850000X0.850000X0*%
%ADD38C,1.600000*%
%ADD39RoundRect,0.185000X0.185000X-0.135000X0.185000X0.135000X-0.185000X0.135000X-0.185000X-0.135000X0*%
%ADD40RoundRect,0.275000X-0.250000X0.225000X-0.250000X-0.225000X0.250000X-0.225000X0.250000X0.225000X0*%
%ADD41RoundRect,0.300000X-0.650000X0.325000X-0.650000X-0.325000X0.650000X-0.325000X0.650000X0.325000X0*%
%ADD42RoundRect,0.200000X-0.512500X-0.150000X0.512500X-0.150000X0.512500X0.150000X-0.512500X0.150000X0*%
%ADD43RoundRect,0.050000X-1.000000X-0.750000X1.000000X-0.750000X1.000000X0.750000X-1.000000X0.750000X0*%
%ADD44RoundRect,0.293750X0.243750X0.456250X-0.243750X0.456250X-0.243750X-0.456250X0.243750X-0.456250X0*%
%ADD45RoundRect,0.190000X0.140000X0.170000X-0.140000X0.170000X-0.140000X-0.170000X0.140000X-0.170000X0*%
%ADD46RoundRect,0.250000X0.275000X-0.200000X0.275000X0.200000X-0.275000X0.200000X-0.275000X-0.200000X0*%
%ADD47RoundRect,0.250000X0.200000X0.275000X-0.200000X0.275000X-0.200000X-0.275000X0.200000X-0.275000X0*%
%ADD48RoundRect,0.200000X0.675000X0.150000X-0.675000X0.150000X-0.675000X-0.150000X0.675000X-0.150000X0*%
%ADD49RoundRect,0.050000X1.350000X1.900000X-1.350000X1.900000X-1.350000X-1.900000X1.350000X-1.900000X0*%
%ADD50RoundRect,0.081500X0.143500X-0.173500X0.143500X0.173500X-0.143500X0.173500X-0.143500X-0.173500X0*%
%ADD51RoundRect,0.081500X0.173500X0.143500X-0.173500X0.143500X-0.173500X-0.143500X0.173500X-0.143500X0*%
%ADD52RoundRect,0.185000X-0.135000X-0.185000X0.135000X-0.185000X0.135000X0.185000X-0.135000X0.185000X0*%
%ADD53RoundRect,0.185000X-0.185000X0.135000X-0.185000X-0.135000X0.185000X-0.135000X0.185000X0.135000X0*%
%ADD54RoundRect,0.268750X0.218750X0.256250X-0.218750X0.256250X-0.218750X-0.256250X0.218750X-0.256250X0*%
%ADD55RoundRect,0.050000X-0.838200X-0.406400X0.838200X-0.406400X0.838200X0.406400X-0.838200X0.406400X0*%
%ADD56RoundRect,0.190000X-0.170000X0.140000X-0.170000X-0.140000X0.170000X-0.140000X0.170000X0.140000X0*%
%ADD57RoundRect,0.050000X1.000000X-1.000000X1.000000X1.000000X-1.000000X1.000000X-1.000000X-1.000000X0*%
%ADD58RoundRect,0.300000X-0.325000X-0.650000X0.325000X-0.650000X0.325000X0.650000X-0.325000X0.650000X0*%
%ADD59RoundRect,0.185000X0.135000X0.185000X-0.135000X0.185000X-0.135000X-0.185000X0.135000X-0.185000X0*%
%ADD60RoundRect,0.275000X-0.225000X-0.250000X0.225000X-0.250000X0.225000X0.250000X-0.225000X0.250000X0*%
%ADD61RoundRect,0.300000X0.300000X0.300000X-0.300000X0.300000X-0.300000X-0.300000X0.300000X-0.300000X0*%
%ADD62RoundRect,0.300000X-0.300000X0.300000X-0.300000X-0.300000X0.300000X-0.300000X0.300000X0.300000X0*%
%ADD63RoundRect,0.275000X0.250000X-0.225000X0.250000X0.225000X-0.250000X0.225000X-0.250000X-0.225000X0*%
%ADD64RoundRect,0.175000X0.125000X-0.625000X0.125000X0.625000X-0.125000X0.625000X-0.125000X-0.625000X0*%
%ADD65RoundRect,0.175000X0.625000X-0.125000X0.625000X0.125000X-0.625000X0.125000X-0.625000X-0.125000X0*%
%ADD66RoundRect,0.050000X1.000000X1.000000X-1.000000X1.000000X-1.000000X-1.000000X1.000000X-1.000000X0*%
%ADD67RoundRect,0.300000X0.300000X-0.300000X0.300000X0.300000X-0.300000X0.300000X-0.300000X-0.300000X0*%
%ADD68RoundRect,0.050000X0.150000X-0.700000X0.150000X0.700000X-0.150000X0.700000X-0.150000X-0.700000X0*%
%ADD69RoundRect,0.250000X-0.200000X-0.275000X0.200000X-0.275000X0.200000X0.275000X-0.200000X0.275000X0*%
%ADD70RoundRect,0.200000X0.150000X-0.512500X0.150000X0.512500X-0.150000X0.512500X-0.150000X-0.512500X0*%
%ADD71RoundRect,0.300000X0.325000X0.650000X-0.325000X0.650000X-0.325000X-0.650000X0.325000X-0.650000X0*%
G04 APERTURE END LIST*
D10*
X101390476Y-110382380D02*
X101438095Y-110430000D01*
X101438095Y-110430000D02*
X101580952Y-110477619D01*
X101580952Y-110477619D02*
X101676190Y-110477619D01*
X101676190Y-110477619D02*
X101819047Y-110430000D01*
X101819047Y-110430000D02*
X101914285Y-110334761D01*
X101914285Y-110334761D02*
X101961904Y-110239523D01*
X101961904Y-110239523D02*
X102009523Y-110049047D01*
X102009523Y-110049047D02*
X102009523Y-109906190D01*
X102009523Y-109906190D02*
X101961904Y-109715714D01*
X101961904Y-109715714D02*
X101914285Y-109620476D01*
X101914285Y-109620476D02*
X101819047Y-109525238D01*
X101819047Y-109525238D02*
X101676190Y-109477619D01*
X101676190Y-109477619D02*
X101580952Y-109477619D01*
X101580952Y-109477619D02*
X101438095Y-109525238D01*
X101438095Y-109525238D02*
X101390476Y-109572857D01*
X100961904Y-110477619D02*
X100961904Y-109477619D01*
X100961904Y-109953809D02*
X100390476Y-109953809D01*
X100390476Y-110477619D02*
X100390476Y-109477619D01*
X99961904Y-110191904D02*
X99485714Y-110191904D01*
X100057142Y-110477619D02*
X99723809Y-109477619D01*
X99723809Y-109477619D02*
X99390476Y-110477619D01*
X98485714Y-110477619D02*
X98819047Y-110001428D01*
X99057142Y-110477619D02*
X99057142Y-109477619D01*
X99057142Y-109477619D02*
X98676190Y-109477619D01*
X98676190Y-109477619D02*
X98580952Y-109525238D01*
X98580952Y-109525238D02*
X98533333Y-109572857D01*
X98533333Y-109572857D02*
X98485714Y-109668095D01*
X98485714Y-109668095D02*
X98485714Y-109810952D01*
X98485714Y-109810952D02*
X98533333Y-109906190D01*
X98533333Y-109906190D02*
X98580952Y-109953809D01*
X98580952Y-109953809D02*
X98676190Y-110001428D01*
X98676190Y-110001428D02*
X99057142Y-110001428D01*
X97533333Y-109525238D02*
X97628571Y-109477619D01*
X97628571Y-109477619D02*
X97771428Y-109477619D01*
X97771428Y-109477619D02*
X97914285Y-109525238D01*
X97914285Y-109525238D02*
X98009523Y-109620476D01*
X98009523Y-109620476D02*
X98057142Y-109715714D01*
X98057142Y-109715714D02*
X98104761Y-109906190D01*
X98104761Y-109906190D02*
X98104761Y-110049047D01*
X98104761Y-110049047D02*
X98057142Y-110239523D01*
X98057142Y-110239523D02*
X98009523Y-110334761D01*
X98009523Y-110334761D02*
X97914285Y-110430000D01*
X97914285Y-110430000D02*
X97771428Y-110477619D01*
X97771428Y-110477619D02*
X97676190Y-110477619D01*
X97676190Y-110477619D02*
X97533333Y-110430000D01*
X97533333Y-110430000D02*
X97485714Y-110382380D01*
X97485714Y-110382380D02*
X97485714Y-110049047D01*
X97485714Y-110049047D02*
X97676190Y-110049047D01*
X97057142Y-109953809D02*
X96723809Y-109953809D01*
X96580952Y-110477619D02*
X97057142Y-110477619D01*
X97057142Y-110477619D02*
X97057142Y-109477619D01*
X97057142Y-109477619D02*
X96580952Y-109477619D01*
X103870000Y-99709523D02*
X103822380Y-99566666D01*
X103822380Y-99566666D02*
X103822380Y-99328571D01*
X103822380Y-99328571D02*
X103870000Y-99233333D01*
X103870000Y-99233333D02*
X103917619Y-99185714D01*
X103917619Y-99185714D02*
X104012857Y-99138095D01*
X104012857Y-99138095D02*
X104108095Y-99138095D01*
X104108095Y-99138095D02*
X104203333Y-99185714D01*
X104203333Y-99185714D02*
X104250952Y-99233333D01*
X104250952Y-99233333D02*
X104298571Y-99328571D01*
X104298571Y-99328571D02*
X104346190Y-99519047D01*
X104346190Y-99519047D02*
X104393809Y-99614285D01*
X104393809Y-99614285D02*
X104441428Y-99661904D01*
X104441428Y-99661904D02*
X104536666Y-99709523D01*
X104536666Y-99709523D02*
X104631904Y-99709523D01*
X104631904Y-99709523D02*
X104727142Y-99661904D01*
X104727142Y-99661904D02*
X104774761Y-99614285D01*
X104774761Y-99614285D02*
X104822380Y-99519047D01*
X104822380Y-99519047D02*
X104822380Y-99280952D01*
X104822380Y-99280952D02*
X104774761Y-99138095D01*
X103822380Y-98709523D02*
X104822380Y-98709523D01*
X104822380Y-98709523D02*
X104822380Y-98471428D01*
X104822380Y-98471428D02*
X104774761Y-98328571D01*
X104774761Y-98328571D02*
X104679523Y-98233333D01*
X104679523Y-98233333D02*
X104584285Y-98185714D01*
X104584285Y-98185714D02*
X104393809Y-98138095D01*
X104393809Y-98138095D02*
X104250952Y-98138095D01*
X104250952Y-98138095D02*
X104060476Y-98185714D01*
X104060476Y-98185714D02*
X103965238Y-98233333D01*
X103965238Y-98233333D02*
X103870000Y-98328571D01*
X103870000Y-98328571D02*
X103822380Y-98471428D01*
X103822380Y-98471428D02*
X103822380Y-98709523D01*
X104108095Y-97757142D02*
X104108095Y-97280952D01*
X103822380Y-97852380D02*
X104822380Y-97519047D01*
X104822380Y-97519047D02*
X103822380Y-97185714D01*
X101870000Y-99609523D02*
X101822380Y-99466666D01*
X101822380Y-99466666D02*
X101822380Y-99228571D01*
X101822380Y-99228571D02*
X101870000Y-99133333D01*
X101870000Y-99133333D02*
X101917619Y-99085714D01*
X101917619Y-99085714D02*
X102012857Y-99038095D01*
X102012857Y-99038095D02*
X102108095Y-99038095D01*
X102108095Y-99038095D02*
X102203333Y-99085714D01*
X102203333Y-99085714D02*
X102250952Y-99133333D01*
X102250952Y-99133333D02*
X102298571Y-99228571D01*
X102298571Y-99228571D02*
X102346190Y-99419047D01*
X102346190Y-99419047D02*
X102393809Y-99514285D01*
X102393809Y-99514285D02*
X102441428Y-99561904D01*
X102441428Y-99561904D02*
X102536666Y-99609523D01*
X102536666Y-99609523D02*
X102631904Y-99609523D01*
X102631904Y-99609523D02*
X102727142Y-99561904D01*
X102727142Y-99561904D02*
X102774761Y-99514285D01*
X102774761Y-99514285D02*
X102822380Y-99419047D01*
X102822380Y-99419047D02*
X102822380Y-99180952D01*
X102822380Y-99180952D02*
X102774761Y-99038095D01*
X101917619Y-98038095D02*
X101870000Y-98085714D01*
X101870000Y-98085714D02*
X101822380Y-98228571D01*
X101822380Y-98228571D02*
X101822380Y-98323809D01*
X101822380Y-98323809D02*
X101870000Y-98466666D01*
X101870000Y-98466666D02*
X101965238Y-98561904D01*
X101965238Y-98561904D02*
X102060476Y-98609523D01*
X102060476Y-98609523D02*
X102250952Y-98657142D01*
X102250952Y-98657142D02*
X102393809Y-98657142D01*
X102393809Y-98657142D02*
X102584285Y-98609523D01*
X102584285Y-98609523D02*
X102679523Y-98561904D01*
X102679523Y-98561904D02*
X102774761Y-98466666D01*
X102774761Y-98466666D02*
X102822380Y-98323809D01*
X102822380Y-98323809D02*
X102822380Y-98228571D01*
X102822380Y-98228571D02*
X102774761Y-98085714D01*
X102774761Y-98085714D02*
X102727142Y-98038095D01*
X101822380Y-97133333D02*
X101822380Y-97609523D01*
X101822380Y-97609523D02*
X102822380Y-97609523D01*
X98808095Y-93409523D02*
X98808095Y-92933333D01*
X98522380Y-93504761D02*
X99522380Y-93171428D01*
X99522380Y-93171428D02*
X98522380Y-92838095D01*
X99427142Y-92552380D02*
X99474761Y-92504761D01*
X99474761Y-92504761D02*
X99522380Y-92409523D01*
X99522380Y-92409523D02*
X99522380Y-92171428D01*
X99522380Y-92171428D02*
X99474761Y-92076190D01*
X99474761Y-92076190D02*
X99427142Y-92028571D01*
X99427142Y-92028571D02*
X99331904Y-91980952D01*
X99331904Y-91980952D02*
X99236666Y-91980952D01*
X99236666Y-91980952D02*
X99093809Y-92028571D01*
X99093809Y-92028571D02*
X98522380Y-92599999D01*
X98522380Y-92599999D02*
X98522380Y-91980952D01*
X96308095Y-93409523D02*
X96308095Y-92933333D01*
X96022380Y-93504761D02*
X97022380Y-93171428D01*
X97022380Y-93171428D02*
X96022380Y-92838095D01*
X96022380Y-91980952D02*
X96022380Y-92552380D01*
X96022380Y-92266666D02*
X97022380Y-92266666D01*
X97022380Y-92266666D02*
X96879523Y-92361904D01*
X96879523Y-92361904D02*
X96784285Y-92457142D01*
X96784285Y-92457142D02*
X96736666Y-92552380D01*
X93846190Y-92728571D02*
X93798571Y-92585714D01*
X93798571Y-92585714D02*
X93750952Y-92538095D01*
X93750952Y-92538095D02*
X93655714Y-92490476D01*
X93655714Y-92490476D02*
X93512857Y-92490476D01*
X93512857Y-92490476D02*
X93417619Y-92538095D01*
X93417619Y-92538095D02*
X93370000Y-92585714D01*
X93370000Y-92585714D02*
X93322380Y-92680952D01*
X93322380Y-92680952D02*
X93322380Y-93061904D01*
X93322380Y-93061904D02*
X94322380Y-93061904D01*
X94322380Y-93061904D02*
X94322380Y-92728571D01*
X94322380Y-92728571D02*
X94274761Y-92633333D01*
X94274761Y-92633333D02*
X94227142Y-92585714D01*
X94227142Y-92585714D02*
X94131904Y-92538095D01*
X94131904Y-92538095D02*
X94036666Y-92538095D01*
X94036666Y-92538095D02*
X93941428Y-92585714D01*
X93941428Y-92585714D02*
X93893809Y-92633333D01*
X93893809Y-92633333D02*
X93846190Y-92728571D01*
X93846190Y-92728571D02*
X93846190Y-93061904D01*
X93608095Y-92109523D02*
X93608095Y-91633333D01*
X93322380Y-92204761D02*
X94322380Y-91871428D01*
X94322380Y-91871428D02*
X93322380Y-91538095D01*
X94322380Y-91347618D02*
X94322380Y-90776190D01*
X93322380Y-91061904D02*
X94322380Y-91061904D01*
X91822380Y-93057142D02*
X91822380Y-92438095D01*
X91822380Y-92438095D02*
X91441428Y-92771428D01*
X91441428Y-92771428D02*
X91441428Y-92628571D01*
X91441428Y-92628571D02*
X91393809Y-92533333D01*
X91393809Y-92533333D02*
X91346190Y-92485714D01*
X91346190Y-92485714D02*
X91250952Y-92438095D01*
X91250952Y-92438095D02*
X91012857Y-92438095D01*
X91012857Y-92438095D02*
X90917619Y-92485714D01*
X90917619Y-92485714D02*
X90870000Y-92533333D01*
X90870000Y-92533333D02*
X90822380Y-92628571D01*
X90822380Y-92628571D02*
X90822380Y-92914285D01*
X90822380Y-92914285D02*
X90870000Y-93009523D01*
X90870000Y-93009523D02*
X90917619Y-93057142D01*
X91822380Y-92152380D02*
X90822380Y-91819047D01*
X90822380Y-91819047D02*
X91822380Y-91485714D01*
X91822380Y-91247618D02*
X91822380Y-90628571D01*
X91822380Y-90628571D02*
X91441428Y-90961904D01*
X91441428Y-90961904D02*
X91441428Y-90819047D01*
X91441428Y-90819047D02*
X91393809Y-90723809D01*
X91393809Y-90723809D02*
X91346190Y-90676190D01*
X91346190Y-90676190D02*
X91250952Y-90628571D01*
X91250952Y-90628571D02*
X91012857Y-90628571D01*
X91012857Y-90628571D02*
X90917619Y-90676190D01*
X90917619Y-90676190D02*
X90870000Y-90723809D01*
X90870000Y-90723809D02*
X90822380Y-90819047D01*
X90822380Y-90819047D02*
X90822380Y-91104761D01*
X90822380Y-91104761D02*
X90870000Y-91199999D01*
X90870000Y-91199999D02*
X90917619Y-91247618D01*
X90074761Y-92538095D02*
X90122380Y-92633333D01*
X90122380Y-92633333D02*
X90122380Y-92776190D01*
X90122380Y-92776190D02*
X90074761Y-92919047D01*
X90074761Y-92919047D02*
X89979523Y-93014285D01*
X89979523Y-93014285D02*
X89884285Y-93061904D01*
X89884285Y-93061904D02*
X89693809Y-93109523D01*
X89693809Y-93109523D02*
X89550952Y-93109523D01*
X89550952Y-93109523D02*
X89360476Y-93061904D01*
X89360476Y-93061904D02*
X89265238Y-93014285D01*
X89265238Y-93014285D02*
X89170000Y-92919047D01*
X89170000Y-92919047D02*
X89122380Y-92776190D01*
X89122380Y-92776190D02*
X89122380Y-92680952D01*
X89122380Y-92680952D02*
X89170000Y-92538095D01*
X89170000Y-92538095D02*
X89217619Y-92490476D01*
X89217619Y-92490476D02*
X89550952Y-92490476D01*
X89550952Y-92490476D02*
X89550952Y-92680952D01*
X89122380Y-92061904D02*
X90122380Y-92061904D01*
X90122380Y-92061904D02*
X89122380Y-91490476D01*
X89122380Y-91490476D02*
X90122380Y-91490476D01*
X89122380Y-91014285D02*
X90122380Y-91014285D01*
X90122380Y-91014285D02*
X90122380Y-90776190D01*
X90122380Y-90776190D02*
X90074761Y-90633333D01*
X90074761Y-90633333D02*
X89979523Y-90538095D01*
X89979523Y-90538095D02*
X89884285Y-90490476D01*
X89884285Y-90490476D02*
X89693809Y-90442857D01*
X89693809Y-90442857D02*
X89550952Y-90442857D01*
X89550952Y-90442857D02*
X89360476Y-90490476D01*
X89360476Y-90490476D02*
X89265238Y-90538095D01*
X89265238Y-90538095D02*
X89170000Y-90633333D01*
X89170000Y-90633333D02*
X89122380Y-90776190D01*
X89122380Y-90776190D02*
X89122380Y-91014285D01*
X100874761Y-82638095D02*
X100922380Y-82733333D01*
X100922380Y-82733333D02*
X100922380Y-82876190D01*
X100922380Y-82876190D02*
X100874761Y-83019047D01*
X100874761Y-83019047D02*
X100779523Y-83114285D01*
X100779523Y-83114285D02*
X100684285Y-83161904D01*
X100684285Y-83161904D02*
X100493809Y-83209523D01*
X100493809Y-83209523D02*
X100350952Y-83209523D01*
X100350952Y-83209523D02*
X100160476Y-83161904D01*
X100160476Y-83161904D02*
X100065238Y-83114285D01*
X100065238Y-83114285D02*
X99970000Y-83019047D01*
X99970000Y-83019047D02*
X99922380Y-82876190D01*
X99922380Y-82876190D02*
X99922380Y-82780952D01*
X99922380Y-82780952D02*
X99970000Y-82638095D01*
X99970000Y-82638095D02*
X100017619Y-82590476D01*
X100017619Y-82590476D02*
X100350952Y-82590476D01*
X100350952Y-82590476D02*
X100350952Y-82780952D01*
X99922380Y-82161904D02*
X100922380Y-82161904D01*
X100922380Y-82161904D02*
X100922380Y-81780952D01*
X100922380Y-81780952D02*
X100874761Y-81685714D01*
X100874761Y-81685714D02*
X100827142Y-81638095D01*
X100827142Y-81638095D02*
X100731904Y-81590476D01*
X100731904Y-81590476D02*
X100589047Y-81590476D01*
X100589047Y-81590476D02*
X100493809Y-81638095D01*
X100493809Y-81638095D02*
X100446190Y-81685714D01*
X100446190Y-81685714D02*
X100398571Y-81780952D01*
X100398571Y-81780952D02*
X100398571Y-82161904D01*
X99970000Y-81209523D02*
X99922380Y-81066666D01*
X99922380Y-81066666D02*
X99922380Y-80828571D01*
X99922380Y-80828571D02*
X99970000Y-80733333D01*
X99970000Y-80733333D02*
X100017619Y-80685714D01*
X100017619Y-80685714D02*
X100112857Y-80638095D01*
X100112857Y-80638095D02*
X100208095Y-80638095D01*
X100208095Y-80638095D02*
X100303333Y-80685714D01*
X100303333Y-80685714D02*
X100350952Y-80733333D01*
X100350952Y-80733333D02*
X100398571Y-80828571D01*
X100398571Y-80828571D02*
X100446190Y-81019047D01*
X100446190Y-81019047D02*
X100493809Y-81114285D01*
X100493809Y-81114285D02*
X100541428Y-81161904D01*
X100541428Y-81161904D02*
X100636666Y-81209523D01*
X100636666Y-81209523D02*
X100731904Y-81209523D01*
X100731904Y-81209523D02*
X100827142Y-81161904D01*
X100827142Y-81161904D02*
X100874761Y-81114285D01*
X100874761Y-81114285D02*
X100922380Y-81019047D01*
X100922380Y-81019047D02*
X100922380Y-80780952D01*
X100922380Y-80780952D02*
X100874761Y-80638095D01*
X99827142Y-80447619D02*
X99827142Y-79685714D01*
X100017619Y-78876190D02*
X99970000Y-78923809D01*
X99970000Y-78923809D02*
X99922380Y-79066666D01*
X99922380Y-79066666D02*
X99922380Y-79161904D01*
X99922380Y-79161904D02*
X99970000Y-79304761D01*
X99970000Y-79304761D02*
X100065238Y-79399999D01*
X100065238Y-79399999D02*
X100160476Y-79447618D01*
X100160476Y-79447618D02*
X100350952Y-79495237D01*
X100350952Y-79495237D02*
X100493809Y-79495237D01*
X100493809Y-79495237D02*
X100684285Y-79447618D01*
X100684285Y-79447618D02*
X100779523Y-79399999D01*
X100779523Y-79399999D02*
X100874761Y-79304761D01*
X100874761Y-79304761D02*
X100922380Y-79161904D01*
X100922380Y-79161904D02*
X100922380Y-79066666D01*
X100922380Y-79066666D02*
X100874761Y-78923809D01*
X100874761Y-78923809D02*
X100827142Y-78876190D01*
X99922380Y-77971428D02*
X99922380Y-78447618D01*
X99922380Y-78447618D02*
X100922380Y-78447618D01*
X99922380Y-77638094D02*
X100922380Y-77638094D01*
X99922380Y-77066666D02*
X100493809Y-77495237D01*
X100922380Y-77066666D02*
X100350952Y-77638094D01*
X98028571Y-82753809D02*
X97885714Y-82801428D01*
X97885714Y-82801428D02*
X97838095Y-82849047D01*
X97838095Y-82849047D02*
X97790476Y-82944285D01*
X97790476Y-82944285D02*
X97790476Y-83087142D01*
X97790476Y-83087142D02*
X97838095Y-83182380D01*
X97838095Y-83182380D02*
X97885714Y-83230000D01*
X97885714Y-83230000D02*
X97980952Y-83277619D01*
X97980952Y-83277619D02*
X98361904Y-83277619D01*
X98361904Y-83277619D02*
X98361904Y-82277619D01*
X98361904Y-82277619D02*
X98028571Y-82277619D01*
X98028571Y-82277619D02*
X97933333Y-82325238D01*
X97933333Y-82325238D02*
X97885714Y-82372857D01*
X97885714Y-82372857D02*
X97838095Y-82468095D01*
X97838095Y-82468095D02*
X97838095Y-82563333D01*
X97838095Y-82563333D02*
X97885714Y-82658571D01*
X97885714Y-82658571D02*
X97933333Y-82706190D01*
X97933333Y-82706190D02*
X98028571Y-82753809D01*
X98028571Y-82753809D02*
X98361904Y-82753809D01*
X97409523Y-82991904D02*
X96933333Y-82991904D01*
X97504761Y-83277619D02*
X97171428Y-82277619D01*
X97171428Y-82277619D02*
X96838095Y-83277619D01*
X96647618Y-82277619D02*
X96076190Y-82277619D01*
X96361904Y-83277619D02*
X96361904Y-82277619D01*
X104190476Y-83277619D02*
X104523809Y-82801428D01*
X104761904Y-83277619D02*
X104761904Y-82277619D01*
X104761904Y-82277619D02*
X104380952Y-82277619D01*
X104380952Y-82277619D02*
X104285714Y-82325238D01*
X104285714Y-82325238D02*
X104238095Y-82372857D01*
X104238095Y-82372857D02*
X104190476Y-82468095D01*
X104190476Y-82468095D02*
X104190476Y-82610952D01*
X104190476Y-82610952D02*
X104238095Y-82706190D01*
X104238095Y-82706190D02*
X104285714Y-82753809D01*
X104285714Y-82753809D02*
X104380952Y-82801428D01*
X104380952Y-82801428D02*
X104761904Y-82801428D01*
X103761904Y-82753809D02*
X103428571Y-82753809D01*
X103285714Y-83277619D02*
X103761904Y-83277619D01*
X103761904Y-83277619D02*
X103761904Y-82277619D01*
X103761904Y-82277619D02*
X103285714Y-82277619D01*
X102333333Y-82325238D02*
X102428571Y-82277619D01*
X102428571Y-82277619D02*
X102571428Y-82277619D01*
X102571428Y-82277619D02*
X102714285Y-82325238D01*
X102714285Y-82325238D02*
X102809523Y-82420476D01*
X102809523Y-82420476D02*
X102857142Y-82515714D01*
X102857142Y-82515714D02*
X102904761Y-82706190D01*
X102904761Y-82706190D02*
X102904761Y-82849047D01*
X102904761Y-82849047D02*
X102857142Y-83039523D01*
X102857142Y-83039523D02*
X102809523Y-83134761D01*
X102809523Y-83134761D02*
X102714285Y-83230000D01*
X102714285Y-83230000D02*
X102571428Y-83277619D01*
X102571428Y-83277619D02*
X102476190Y-83277619D01*
X102476190Y-83277619D02*
X102333333Y-83230000D01*
X102333333Y-83230000D02*
X102285714Y-83182380D01*
X102285714Y-83182380D02*
X102285714Y-82849047D01*
X102285714Y-82849047D02*
X102476190Y-82849047D01*
X104790476Y-88282380D02*
X104838095Y-88330000D01*
X104838095Y-88330000D02*
X104980952Y-88377619D01*
X104980952Y-88377619D02*
X105076190Y-88377619D01*
X105076190Y-88377619D02*
X105219047Y-88330000D01*
X105219047Y-88330000D02*
X105314285Y-88234761D01*
X105314285Y-88234761D02*
X105361904Y-88139523D01*
X105361904Y-88139523D02*
X105409523Y-87949047D01*
X105409523Y-87949047D02*
X105409523Y-87806190D01*
X105409523Y-87806190D02*
X105361904Y-87615714D01*
X105361904Y-87615714D02*
X105314285Y-87520476D01*
X105314285Y-87520476D02*
X105219047Y-87425238D01*
X105219047Y-87425238D02*
X105076190Y-87377619D01*
X105076190Y-87377619D02*
X104980952Y-87377619D01*
X104980952Y-87377619D02*
X104838095Y-87425238D01*
X104838095Y-87425238D02*
X104790476Y-87472857D01*
X103885714Y-88377619D02*
X104361904Y-88377619D01*
X104361904Y-88377619D02*
X104361904Y-87377619D01*
X103552380Y-88377619D02*
X103552380Y-87377619D01*
X102980952Y-88377619D02*
X103409523Y-87806190D01*
X102980952Y-87377619D02*
X103552380Y-87949047D01*
X101961904Y-88377619D02*
X101961904Y-87377619D01*
X101295238Y-87377619D02*
X101104762Y-87377619D01*
X101104762Y-87377619D02*
X101009524Y-87425238D01*
X101009524Y-87425238D02*
X100914286Y-87520476D01*
X100914286Y-87520476D02*
X100866667Y-87710952D01*
X100866667Y-87710952D02*
X100866667Y-88044285D01*
X100866667Y-88044285D02*
X100914286Y-88234761D01*
X100914286Y-88234761D02*
X101009524Y-88330000D01*
X101009524Y-88330000D02*
X101104762Y-88377619D01*
X101104762Y-88377619D02*
X101295238Y-88377619D01*
X101295238Y-88377619D02*
X101390476Y-88330000D01*
X101390476Y-88330000D02*
X101485714Y-88234761D01*
X101485714Y-88234761D02*
X101533333Y-88044285D01*
X101533333Y-88044285D02*
X101533333Y-87710952D01*
X101533333Y-87710952D02*
X101485714Y-87520476D01*
X101485714Y-87520476D02*
X101390476Y-87425238D01*
X101390476Y-87425238D02*
X101295238Y-87377619D01*
X99361904Y-87996666D02*
X98600000Y-87996666D01*
X96961904Y-87996666D02*
X96200000Y-87996666D01*
X96580952Y-88377619D02*
X96580952Y-87615714D01*
X81928571Y-105753809D02*
X81785714Y-105801428D01*
X81785714Y-105801428D02*
X81738095Y-105849047D01*
X81738095Y-105849047D02*
X81690476Y-105944285D01*
X81690476Y-105944285D02*
X81690476Y-106087142D01*
X81690476Y-106087142D02*
X81738095Y-106182380D01*
X81738095Y-106182380D02*
X81785714Y-106230000D01*
X81785714Y-106230000D02*
X81880952Y-106277619D01*
X81880952Y-106277619D02*
X82261904Y-106277619D01*
X82261904Y-106277619D02*
X82261904Y-105277619D01*
X82261904Y-105277619D02*
X81928571Y-105277619D01*
X81928571Y-105277619D02*
X81833333Y-105325238D01*
X81833333Y-105325238D02*
X81785714Y-105372857D01*
X81785714Y-105372857D02*
X81738095Y-105468095D01*
X81738095Y-105468095D02*
X81738095Y-105563333D01*
X81738095Y-105563333D02*
X81785714Y-105658571D01*
X81785714Y-105658571D02*
X81833333Y-105706190D01*
X81833333Y-105706190D02*
X81928571Y-105753809D01*
X81928571Y-105753809D02*
X82261904Y-105753809D01*
X80785714Y-106277619D02*
X81261904Y-106277619D01*
X81261904Y-106277619D02*
X81261904Y-105277619D01*
X80452380Y-106277619D02*
X80452380Y-105277619D01*
X79880952Y-106277619D02*
X80309523Y-105706190D01*
X79880952Y-105277619D02*
X80452380Y-105849047D01*
X81590476Y-103877619D02*
X81923809Y-103401428D01*
X82161904Y-103877619D02*
X82161904Y-102877619D01*
X82161904Y-102877619D02*
X81780952Y-102877619D01*
X81780952Y-102877619D02*
X81685714Y-102925238D01*
X81685714Y-102925238D02*
X81638095Y-102972857D01*
X81638095Y-102972857D02*
X81590476Y-103068095D01*
X81590476Y-103068095D02*
X81590476Y-103210952D01*
X81590476Y-103210952D02*
X81638095Y-103306190D01*
X81638095Y-103306190D02*
X81685714Y-103353809D01*
X81685714Y-103353809D02*
X81780952Y-103401428D01*
X81780952Y-103401428D02*
X82161904Y-103401428D01*
X81209523Y-103830000D02*
X81066666Y-103877619D01*
X81066666Y-103877619D02*
X80828571Y-103877619D01*
X80828571Y-103877619D02*
X80733333Y-103830000D01*
X80733333Y-103830000D02*
X80685714Y-103782380D01*
X80685714Y-103782380D02*
X80638095Y-103687142D01*
X80638095Y-103687142D02*
X80638095Y-103591904D01*
X80638095Y-103591904D02*
X80685714Y-103496666D01*
X80685714Y-103496666D02*
X80733333Y-103449047D01*
X80733333Y-103449047D02*
X80828571Y-103401428D01*
X80828571Y-103401428D02*
X81019047Y-103353809D01*
X81019047Y-103353809D02*
X81114285Y-103306190D01*
X81114285Y-103306190D02*
X81161904Y-103258571D01*
X81161904Y-103258571D02*
X81209523Y-103163333D01*
X81209523Y-103163333D02*
X81209523Y-103068095D01*
X81209523Y-103068095D02*
X81161904Y-102972857D01*
X81161904Y-102972857D02*
X81114285Y-102925238D01*
X81114285Y-102925238D02*
X81019047Y-102877619D01*
X81019047Y-102877619D02*
X80780952Y-102877619D01*
X80780952Y-102877619D02*
X80638095Y-102925238D01*
X80352380Y-102877619D02*
X79780952Y-102877619D01*
X80066666Y-103877619D02*
X80066666Y-102877619D01*
X82300000Y-102430000D02*
X79785714Y-102430000D01*
X82261904Y-101177619D02*
X82261904Y-100177619D01*
X82261904Y-100177619D02*
X81928571Y-100891904D01*
X81928571Y-100891904D02*
X81595238Y-100177619D01*
X81595238Y-100177619D02*
X81595238Y-101177619D01*
X80928571Y-100177619D02*
X80738095Y-100177619D01*
X80738095Y-100177619D02*
X80642857Y-100225238D01*
X80642857Y-100225238D02*
X80547619Y-100320476D01*
X80547619Y-100320476D02*
X80500000Y-100510952D01*
X80500000Y-100510952D02*
X80500000Y-100844285D01*
X80500000Y-100844285D02*
X80547619Y-101034761D01*
X80547619Y-101034761D02*
X80642857Y-101130000D01*
X80642857Y-101130000D02*
X80738095Y-101177619D01*
X80738095Y-101177619D02*
X80928571Y-101177619D01*
X80928571Y-101177619D02*
X81023809Y-101130000D01*
X81023809Y-101130000D02*
X81119047Y-101034761D01*
X81119047Y-101034761D02*
X81166666Y-100844285D01*
X81166666Y-100844285D02*
X81166666Y-100510952D01*
X81166666Y-100510952D02*
X81119047Y-100320476D01*
X81119047Y-100320476D02*
X81023809Y-100225238D01*
X81023809Y-100225238D02*
X80928571Y-100177619D01*
X80119047Y-101130000D02*
X79976190Y-101177619D01*
X79976190Y-101177619D02*
X79738095Y-101177619D01*
X79738095Y-101177619D02*
X79642857Y-101130000D01*
X79642857Y-101130000D02*
X79595238Y-101082380D01*
X79595238Y-101082380D02*
X79547619Y-100987142D01*
X79547619Y-100987142D02*
X79547619Y-100891904D01*
X79547619Y-100891904D02*
X79595238Y-100796666D01*
X79595238Y-100796666D02*
X79642857Y-100749047D01*
X79642857Y-100749047D02*
X79738095Y-100701428D01*
X79738095Y-100701428D02*
X79928571Y-100653809D01*
X79928571Y-100653809D02*
X80023809Y-100606190D01*
X80023809Y-100606190D02*
X80071428Y-100558571D01*
X80071428Y-100558571D02*
X80119047Y-100463333D01*
X80119047Y-100463333D02*
X80119047Y-100368095D01*
X80119047Y-100368095D02*
X80071428Y-100272857D01*
X80071428Y-100272857D02*
X80023809Y-100225238D01*
X80023809Y-100225238D02*
X79928571Y-100177619D01*
X79928571Y-100177619D02*
X79690476Y-100177619D01*
X79690476Y-100177619D02*
X79547619Y-100225238D01*
X79119047Y-101177619D02*
X79119047Y-100177619D01*
X82209523Y-98530000D02*
X82066666Y-98577619D01*
X82066666Y-98577619D02*
X81828571Y-98577619D01*
X81828571Y-98577619D02*
X81733333Y-98530000D01*
X81733333Y-98530000D02*
X81685714Y-98482380D01*
X81685714Y-98482380D02*
X81638095Y-98387142D01*
X81638095Y-98387142D02*
X81638095Y-98291904D01*
X81638095Y-98291904D02*
X81685714Y-98196666D01*
X81685714Y-98196666D02*
X81733333Y-98149047D01*
X81733333Y-98149047D02*
X81828571Y-98101428D01*
X81828571Y-98101428D02*
X82019047Y-98053809D01*
X82019047Y-98053809D02*
X82114285Y-98006190D01*
X82114285Y-98006190D02*
X82161904Y-97958571D01*
X82161904Y-97958571D02*
X82209523Y-97863333D01*
X82209523Y-97863333D02*
X82209523Y-97768095D01*
X82209523Y-97768095D02*
X82161904Y-97672857D01*
X82161904Y-97672857D02*
X82114285Y-97625238D01*
X82114285Y-97625238D02*
X82019047Y-97577619D01*
X82019047Y-97577619D02*
X81780952Y-97577619D01*
X81780952Y-97577619D02*
X81638095Y-97625238D01*
X80638095Y-98482380D02*
X80685714Y-98530000D01*
X80685714Y-98530000D02*
X80828571Y-98577619D01*
X80828571Y-98577619D02*
X80923809Y-98577619D01*
X80923809Y-98577619D02*
X81066666Y-98530000D01*
X81066666Y-98530000D02*
X81161904Y-98434761D01*
X81161904Y-98434761D02*
X81209523Y-98339523D01*
X81209523Y-98339523D02*
X81257142Y-98149047D01*
X81257142Y-98149047D02*
X81257142Y-98006190D01*
X81257142Y-98006190D02*
X81209523Y-97815714D01*
X81209523Y-97815714D02*
X81161904Y-97720476D01*
X81161904Y-97720476D02*
X81066666Y-97625238D01*
X81066666Y-97625238D02*
X80923809Y-97577619D01*
X80923809Y-97577619D02*
X80828571Y-97577619D01*
X80828571Y-97577619D02*
X80685714Y-97625238D01*
X80685714Y-97625238D02*
X80638095Y-97672857D01*
X80209523Y-98577619D02*
X80209523Y-97577619D01*
X79638095Y-98577619D02*
X80066666Y-98006190D01*
X79638095Y-97577619D02*
X80209523Y-98149047D01*
X81690476Y-95882380D02*
X81738095Y-95930000D01*
X81738095Y-95930000D02*
X81880952Y-95977619D01*
X81880952Y-95977619D02*
X81976190Y-95977619D01*
X81976190Y-95977619D02*
X82119047Y-95930000D01*
X82119047Y-95930000D02*
X82214285Y-95834761D01*
X82214285Y-95834761D02*
X82261904Y-95739523D01*
X82261904Y-95739523D02*
X82309523Y-95549047D01*
X82309523Y-95549047D02*
X82309523Y-95406190D01*
X82309523Y-95406190D02*
X82261904Y-95215714D01*
X82261904Y-95215714D02*
X82214285Y-95120476D01*
X82214285Y-95120476D02*
X82119047Y-95025238D01*
X82119047Y-95025238D02*
X81976190Y-94977619D01*
X81976190Y-94977619D02*
X81880952Y-94977619D01*
X81880952Y-94977619D02*
X81738095Y-95025238D01*
X81738095Y-95025238D02*
X81690476Y-95072857D01*
X81309523Y-95930000D02*
X81166666Y-95977619D01*
X81166666Y-95977619D02*
X80928571Y-95977619D01*
X80928571Y-95977619D02*
X80833333Y-95930000D01*
X80833333Y-95930000D02*
X80785714Y-95882380D01*
X80785714Y-95882380D02*
X80738095Y-95787142D01*
X80738095Y-95787142D02*
X80738095Y-95691904D01*
X80738095Y-95691904D02*
X80785714Y-95596666D01*
X80785714Y-95596666D02*
X80833333Y-95549047D01*
X80833333Y-95549047D02*
X80928571Y-95501428D01*
X80928571Y-95501428D02*
X81119047Y-95453809D01*
X81119047Y-95453809D02*
X81214285Y-95406190D01*
X81214285Y-95406190D02*
X81261904Y-95358571D01*
X81261904Y-95358571D02*
X81309523Y-95263333D01*
X81309523Y-95263333D02*
X81309523Y-95168095D01*
X81309523Y-95168095D02*
X81261904Y-95072857D01*
X81261904Y-95072857D02*
X81214285Y-95025238D01*
X81214285Y-95025238D02*
X81119047Y-94977619D01*
X81119047Y-94977619D02*
X80880952Y-94977619D01*
X80880952Y-94977619D02*
X80738095Y-95025238D01*
X82161904Y-93577619D02*
X82161904Y-92577619D01*
X82161904Y-92577619D02*
X81923809Y-92577619D01*
X81923809Y-92577619D02*
X81780952Y-92625238D01*
X81780952Y-92625238D02*
X81685714Y-92720476D01*
X81685714Y-92720476D02*
X81638095Y-92815714D01*
X81638095Y-92815714D02*
X81590476Y-93006190D01*
X81590476Y-93006190D02*
X81590476Y-93149047D01*
X81590476Y-93149047D02*
X81638095Y-93339523D01*
X81638095Y-93339523D02*
X81685714Y-93434761D01*
X81685714Y-93434761D02*
X81780952Y-93530000D01*
X81780952Y-93530000D02*
X81923809Y-93577619D01*
X81923809Y-93577619D02*
X82161904Y-93577619D01*
X80590476Y-93482380D02*
X80638095Y-93530000D01*
X80638095Y-93530000D02*
X80780952Y-93577619D01*
X80780952Y-93577619D02*
X80876190Y-93577619D01*
X80876190Y-93577619D02*
X81019047Y-93530000D01*
X81019047Y-93530000D02*
X81114285Y-93434761D01*
X81114285Y-93434761D02*
X81161904Y-93339523D01*
X81161904Y-93339523D02*
X81209523Y-93149047D01*
X81209523Y-93149047D02*
X81209523Y-93006190D01*
X81209523Y-93006190D02*
X81161904Y-92815714D01*
X81161904Y-92815714D02*
X81114285Y-92720476D01*
X81114285Y-92720476D02*
X81019047Y-92625238D01*
X81019047Y-92625238D02*
X80876190Y-92577619D01*
X80876190Y-92577619D02*
X80780952Y-92577619D01*
X80780952Y-92577619D02*
X80638095Y-92625238D01*
X80638095Y-92625238D02*
X80590476Y-92672857D01*
X86242857Y-92122380D02*
X86861904Y-92122380D01*
X86861904Y-92122380D02*
X86528571Y-91741428D01*
X86528571Y-91741428D02*
X86671428Y-91741428D01*
X86671428Y-91741428D02*
X86766666Y-91693809D01*
X86766666Y-91693809D02*
X86814285Y-91646190D01*
X86814285Y-91646190D02*
X86861904Y-91550952D01*
X86861904Y-91550952D02*
X86861904Y-91312857D01*
X86861904Y-91312857D02*
X86814285Y-91217619D01*
X86814285Y-91217619D02*
X86766666Y-91170000D01*
X86766666Y-91170000D02*
X86671428Y-91122380D01*
X86671428Y-91122380D02*
X86385714Y-91122380D01*
X86385714Y-91122380D02*
X86290476Y-91170000D01*
X86290476Y-91170000D02*
X86242857Y-91217619D01*
X87147619Y-92122380D02*
X87480952Y-91122380D01*
X87480952Y-91122380D02*
X87814285Y-92122380D01*
X88052381Y-92122380D02*
X88671428Y-92122380D01*
X88671428Y-92122380D02*
X88338095Y-91741428D01*
X88338095Y-91741428D02*
X88480952Y-91741428D01*
X88480952Y-91741428D02*
X88576190Y-91693809D01*
X88576190Y-91693809D02*
X88623809Y-91646190D01*
X88623809Y-91646190D02*
X88671428Y-91550952D01*
X88671428Y-91550952D02*
X88671428Y-91312857D01*
X88671428Y-91312857D02*
X88623809Y-91217619D01*
X88623809Y-91217619D02*
X88576190Y-91170000D01*
X88576190Y-91170000D02*
X88480952Y-91122380D01*
X88480952Y-91122380D02*
X88195238Y-91122380D01*
X88195238Y-91122380D02*
X88100000Y-91170000D01*
X88100000Y-91170000D02*
X88052381Y-91217619D01*
X88638095Y-86325238D02*
X88733333Y-86277619D01*
X88733333Y-86277619D02*
X88876190Y-86277619D01*
X88876190Y-86277619D02*
X89019047Y-86325238D01*
X89019047Y-86325238D02*
X89114285Y-86420476D01*
X89114285Y-86420476D02*
X89161904Y-86515714D01*
X89161904Y-86515714D02*
X89209523Y-86706190D01*
X89209523Y-86706190D02*
X89209523Y-86849047D01*
X89209523Y-86849047D02*
X89161904Y-87039523D01*
X89161904Y-87039523D02*
X89114285Y-87134761D01*
X89114285Y-87134761D02*
X89019047Y-87230000D01*
X89019047Y-87230000D02*
X88876190Y-87277619D01*
X88876190Y-87277619D02*
X88780952Y-87277619D01*
X88780952Y-87277619D02*
X88638095Y-87230000D01*
X88638095Y-87230000D02*
X88590476Y-87182380D01*
X88590476Y-87182380D02*
X88590476Y-86849047D01*
X88590476Y-86849047D02*
X88780952Y-86849047D01*
X88161904Y-87277619D02*
X88161904Y-86277619D01*
X88161904Y-86277619D02*
X87590476Y-87277619D01*
X87590476Y-87277619D02*
X87590476Y-86277619D01*
X87114285Y-87277619D02*
X87114285Y-86277619D01*
X87114285Y-86277619D02*
X86876190Y-86277619D01*
X86876190Y-86277619D02*
X86733333Y-86325238D01*
X86733333Y-86325238D02*
X86638095Y-86420476D01*
X86638095Y-86420476D02*
X86590476Y-86515714D01*
X86590476Y-86515714D02*
X86542857Y-86706190D01*
X86542857Y-86706190D02*
X86542857Y-86849047D01*
X86542857Y-86849047D02*
X86590476Y-87039523D01*
X86590476Y-87039523D02*
X86638095Y-87134761D01*
X86638095Y-87134761D02*
X86733333Y-87230000D01*
X86733333Y-87230000D02*
X86876190Y-87277619D01*
X86876190Y-87277619D02*
X87114285Y-87277619D01*
X78042857Y-116820000D02*
X76900000Y-116820000D01*
X77471428Y-117391428D02*
X77471428Y-116248571D01*
X78042857Y-114445000D02*
X76900000Y-114445000D01*
D11*
X126483571Y-125585714D02*
X127197857Y-126085714D01*
X126483571Y-126442857D02*
X127983571Y-126442857D01*
X127983571Y-126442857D02*
X127983571Y-125871428D01*
X127983571Y-125871428D02*
X127912142Y-125728571D01*
X127912142Y-125728571D02*
X127840714Y-125657142D01*
X127840714Y-125657142D02*
X127697857Y-125585714D01*
X127697857Y-125585714D02*
X127483571Y-125585714D01*
X127483571Y-125585714D02*
X127340714Y-125657142D01*
X127340714Y-125657142D02*
X127269285Y-125728571D01*
X127269285Y-125728571D02*
X127197857Y-125871428D01*
X127197857Y-125871428D02*
X127197857Y-126442857D01*
X127269285Y-124942857D02*
X127269285Y-124442857D01*
X126483571Y-124228571D02*
X126483571Y-124942857D01*
X126483571Y-124942857D02*
X127983571Y-124942857D01*
X127983571Y-124942857D02*
X127983571Y-124228571D01*
X126555000Y-123657142D02*
X126483571Y-123442857D01*
X126483571Y-123442857D02*
X126483571Y-123085714D01*
X126483571Y-123085714D02*
X126555000Y-122942857D01*
X126555000Y-122942857D02*
X126626428Y-122871428D01*
X126626428Y-122871428D02*
X126769285Y-122799999D01*
X126769285Y-122799999D02*
X126912142Y-122799999D01*
X126912142Y-122799999D02*
X127055000Y-122871428D01*
X127055000Y-122871428D02*
X127126428Y-122942857D01*
X127126428Y-122942857D02*
X127197857Y-123085714D01*
X127197857Y-123085714D02*
X127269285Y-123371428D01*
X127269285Y-123371428D02*
X127340714Y-123514285D01*
X127340714Y-123514285D02*
X127412142Y-123585714D01*
X127412142Y-123585714D02*
X127555000Y-123657142D01*
X127555000Y-123657142D02*
X127697857Y-123657142D01*
X127697857Y-123657142D02*
X127840714Y-123585714D01*
X127840714Y-123585714D02*
X127912142Y-123514285D01*
X127912142Y-123514285D02*
X127983571Y-123371428D01*
X127983571Y-123371428D02*
X127983571Y-123014285D01*
X127983571Y-123014285D02*
X127912142Y-122799999D01*
X127269285Y-122157143D02*
X127269285Y-121657143D01*
X126483571Y-121442857D02*
X126483571Y-122157143D01*
X126483571Y-122157143D02*
X127983571Y-122157143D01*
X127983571Y-122157143D02*
X127983571Y-121442857D01*
X127983571Y-121014285D02*
X127983571Y-120157143D01*
X126483571Y-120585714D02*
X127983571Y-120585714D01*
D12*
X140381428Y-116228571D02*
X140524285Y-116085714D01*
X140524285Y-116085714D02*
X140667142Y-115800000D01*
X140667142Y-115800000D02*
X140667142Y-115085714D01*
X140667142Y-115085714D02*
X140524285Y-114800000D01*
X140524285Y-114800000D02*
X140381428Y-114657142D01*
X140381428Y-114657142D02*
X140095714Y-114514285D01*
X140095714Y-114514285D02*
X139810000Y-114514285D01*
X139810000Y-114514285D02*
X139381428Y-114657142D01*
X139381428Y-114657142D02*
X137667142Y-116371428D01*
X137667142Y-116371428D02*
X137667142Y-114514285D01*
X138524285Y-113371428D02*
X138524285Y-111942857D01*
X137667142Y-113657142D02*
X140667142Y-112657142D01*
X140667142Y-112657142D02*
X137667142Y-111657142D01*
X137667142Y-110657142D02*
X140667142Y-110657142D01*
X137667142Y-109371428D02*
X139238571Y-109371428D01*
X139238571Y-109371428D02*
X139524285Y-109514285D01*
X139524285Y-109514285D02*
X139667142Y-109799999D01*
X139667142Y-109799999D02*
X139667142Y-110228570D01*
X139667142Y-110228570D02*
X139524285Y-110514285D01*
X139524285Y-110514285D02*
X139381428Y-110657142D01*
X139238571Y-104657142D02*
X139095714Y-104228570D01*
X139095714Y-104228570D02*
X138952857Y-104085713D01*
X138952857Y-104085713D02*
X138667142Y-103942856D01*
X138667142Y-103942856D02*
X138238571Y-103942856D01*
X138238571Y-103942856D02*
X137952857Y-104085713D01*
X137952857Y-104085713D02*
X137810000Y-104228570D01*
X137810000Y-104228570D02*
X137667142Y-104514285D01*
X137667142Y-104514285D02*
X137667142Y-105657142D01*
X137667142Y-105657142D02*
X140667142Y-105657142D01*
X140667142Y-105657142D02*
X140667142Y-104657142D01*
X140667142Y-104657142D02*
X140524285Y-104371428D01*
X140524285Y-104371428D02*
X140381428Y-104228570D01*
X140381428Y-104228570D02*
X140095714Y-104085713D01*
X140095714Y-104085713D02*
X139810000Y-104085713D01*
X139810000Y-104085713D02*
X139524285Y-104228570D01*
X139524285Y-104228570D02*
X139381428Y-104371428D01*
X139381428Y-104371428D02*
X139238571Y-104657142D01*
X139238571Y-104657142D02*
X139238571Y-105657142D01*
X138524285Y-102799999D02*
X138524285Y-101371428D01*
X137667142Y-103085713D02*
X140667142Y-102085713D01*
X140667142Y-102085713D02*
X137667142Y-101085713D01*
X140667142Y-100514284D02*
X140667142Y-98799999D01*
X137667142Y-99657141D02*
X140667142Y-99657141D01*
X140667142Y-98228570D02*
X140667142Y-96514285D01*
X137667142Y-97371427D02*
X140667142Y-97371427D01*
X139238571Y-95514285D02*
X139238571Y-94514285D01*
X137667142Y-94085713D02*
X137667142Y-95514285D01*
X137667142Y-95514285D02*
X140667142Y-95514285D01*
X140667142Y-95514285D02*
X140667142Y-94085713D01*
X137667142Y-91085713D02*
X139095714Y-92085713D01*
X137667142Y-92799999D02*
X140667142Y-92799999D01*
X140667142Y-92799999D02*
X140667142Y-91657142D01*
X140667142Y-91657142D02*
X140524285Y-91371427D01*
X140524285Y-91371427D02*
X140381428Y-91228570D01*
X140381428Y-91228570D02*
X140095714Y-91085713D01*
X140095714Y-91085713D02*
X139667142Y-91085713D01*
X139667142Y-91085713D02*
X139381428Y-91228570D01*
X139381428Y-91228570D02*
X139238571Y-91371427D01*
X139238571Y-91371427D02*
X139095714Y-91657142D01*
X139095714Y-91657142D02*
X139095714Y-92799999D01*
X139095714Y-89228570D02*
X137667142Y-89228570D01*
X140667142Y-90228570D02*
X139095714Y-89228570D01*
X139095714Y-89228570D02*
X140667142Y-88228570D01*
D10*
X106600000Y-117000000D02*
X141600000Y-117000000D01*
X141600000Y-67000000D01*
X106600000Y-67000000D01*
X106600000Y-117000000D01*
%TO.C,J7*%
X72903333Y-107461904D02*
X72903333Y-106700000D01*
X72903333Y-106261904D02*
X72903333Y-105500000D01*
X72522380Y-105880952D02*
X73284285Y-105880952D01*
D13*
%TO.C,J1*%
X116350000Y-126950000D02*
X106600000Y-126950000D01*
X114600000Y-126750000D02*
X114600000Y-127600000D01*
X114600000Y-127600000D02*
X114600000Y-127650000D01*
X114200000Y-127300000D02*
X113900000Y-127300000D01*
X114200000Y-127600000D02*
X114200000Y-127300000D01*
X113500000Y-127700000D02*
X108800000Y-127700000D01*
X108000000Y-127300000D02*
X108300000Y-127300000D01*
X108000000Y-127600000D02*
X108000000Y-127300000D01*
X107600000Y-126750000D02*
X107600000Y-127600000D01*
X107600000Y-126750000D02*
X107600000Y-127650000D01*
X107600000Y-127600000D02*
X107600000Y-127650000D01*
X114600000Y-127600000D02*
G75*
G03*
X115100000Y-128100000I500001J1D01*
G01*
X114200000Y-127600000D02*
G75*
G03*
X115000000Y-128400000I800001J1D01*
G01*
X113500000Y-127700000D02*
G75*
G03*
X113900000Y-127300000I1J399999D01*
G01*
X108300000Y-127300000D02*
G75*
G03*
X108700000Y-127700000I400000J0D01*
G01*
X107200000Y-128400000D02*
G75*
G03*
X108000000Y-127600000I0J800000D01*
G01*
X107100000Y-128100000D02*
G75*
G03*
X107600000Y-127600000I0J500000D01*
G01*
D14*
%TO.C,D9*%
X97650000Y-113590000D02*
X97650000Y-119100000D01*
X94350000Y-113590000D02*
X97650000Y-113590000D01*
X94350000Y-113590000D02*
X94350000Y-119100000D01*
%TO.C,J4*%
X81230000Y-118295000D02*
X91230000Y-118295000D01*
X91230000Y-118295000D02*
X91230000Y-110475000D01*
X91230000Y-110475000D02*
X81230000Y-110475000D01*
X81230000Y-110475000D02*
X81230000Y-118295000D01*
D10*
X81200000Y-117340000D02*
X80700000Y-117340000D01*
X81200000Y-116510000D02*
X80700000Y-116510000D01*
X81200000Y-114800000D02*
X80600000Y-114800000D01*
X81200000Y-113970000D02*
X80600000Y-113970000D01*
X81200000Y-112260000D02*
X80600000Y-112260000D01*
X81200000Y-111430000D02*
X80600000Y-111430000D01*
X78400000Y-118225000D02*
X79700000Y-118225000D01*
X78400000Y-116925000D02*
X78400000Y-118225000D01*
D14*
%TO.C,J6*%
X96490000Y-86630000D02*
X96490000Y-83970000D01*
X101630000Y-86630000D02*
X96490000Y-86630000D01*
X102900000Y-86630000D02*
X104230000Y-86630000D01*
X101630000Y-83970000D02*
X96490000Y-83970000D01*
X104230000Y-86630000D02*
X104230000Y-85300000D01*
X101630000Y-86630000D02*
X101630000Y-83970000D01*
%TO.C,J7*%
X78600000Y-109000000D02*
X73600000Y-109000000D01*
X73600000Y-109000000D02*
X73600000Y-104000000D01*
X73600000Y-104000000D02*
X78600000Y-104000000D01*
X78600000Y-104000000D02*
X78600000Y-109000000D01*
%TO.C,R13*%
X115222500Y-90937742D02*
X115222500Y-91412258D01*
X114177500Y-90937742D02*
X114177500Y-91412258D01*
%TO.C,C16*%
X86652677Y-105675000D02*
X87652677Y-105675000D01*
X87152677Y-106175000D02*
X87152677Y-105175000D01*
X92132323Y-107880000D02*
X92132323Y-97720000D01*
X92172323Y-107880000D02*
X92172323Y-97720000D01*
X92212323Y-107880000D02*
X92212323Y-97720000D01*
X92252323Y-107879000D02*
X92252323Y-97721000D01*
X92292323Y-107878000D02*
X92292323Y-97722000D01*
X92332323Y-107877000D02*
X92332323Y-97723000D01*
X92372323Y-107875000D02*
X92372323Y-97725000D01*
X92412323Y-107873000D02*
X92412323Y-97727000D01*
X92452323Y-107870000D02*
X92452323Y-97730000D01*
X92492323Y-107868000D02*
X92492323Y-97732000D01*
X92532323Y-107865000D02*
X92532323Y-97735000D01*
X92572323Y-107862000D02*
X92572323Y-97738000D01*
X92612323Y-107858000D02*
X92612323Y-97742000D01*
X92652323Y-107854000D02*
X92652323Y-97746000D01*
X92692323Y-107850000D02*
X92692323Y-97750000D01*
X92732323Y-107845000D02*
X92732323Y-97755000D01*
X92772323Y-107840000D02*
X92772323Y-97760000D01*
X92812323Y-107835000D02*
X92812323Y-97765000D01*
X92853323Y-107830000D02*
X92853323Y-97770000D01*
X92893323Y-107824000D02*
X92893323Y-97776000D01*
X92933323Y-107818000D02*
X92933323Y-97782000D01*
X92973323Y-107811000D02*
X92973323Y-97789000D01*
X93013323Y-107804000D02*
X93013323Y-97796000D01*
X93053323Y-107797000D02*
X93053323Y-97803000D01*
X93093323Y-107790000D02*
X93093323Y-97810000D01*
X93133323Y-107782000D02*
X93133323Y-97818000D01*
X93173323Y-107774000D02*
X93173323Y-97826000D01*
X93213323Y-107765000D02*
X93213323Y-97835000D01*
X93253323Y-107756000D02*
X93253323Y-97844000D01*
X93293323Y-107747000D02*
X93293323Y-97853000D01*
X93333323Y-107738000D02*
X93333323Y-97862000D01*
X93373323Y-107728000D02*
X93373323Y-97872000D01*
X93413323Y-101559000D02*
X93413323Y-97882000D01*
X93413323Y-107718000D02*
X93413323Y-104041000D01*
X93453323Y-101559000D02*
X93453323Y-97893000D01*
X93453323Y-107707000D02*
X93453323Y-104041000D01*
X93493323Y-101559000D02*
X93493323Y-97903000D01*
X93493323Y-107697000D02*
X93493323Y-104041000D01*
X93533323Y-101559000D02*
X93533323Y-97915000D01*
X93533323Y-107685000D02*
X93533323Y-104041000D01*
X93573323Y-101559000D02*
X93573323Y-97926000D01*
X93573323Y-107674000D02*
X93573323Y-104041000D01*
X93613323Y-101559000D02*
X93613323Y-97938000D01*
X93613323Y-107662000D02*
X93613323Y-104041000D01*
X93653323Y-101559000D02*
X93653323Y-97950000D01*
X93653323Y-107650000D02*
X93653323Y-104041000D01*
X93693323Y-101559000D02*
X93693323Y-97963000D01*
X93693323Y-107637000D02*
X93693323Y-104041000D01*
X93733323Y-101559000D02*
X93733323Y-97976000D01*
X93733323Y-107624000D02*
X93733323Y-104041000D01*
X93773323Y-101559000D02*
X93773323Y-97989000D01*
X93773323Y-107611000D02*
X93773323Y-104041000D01*
X93813323Y-101559000D02*
X93813323Y-98003000D01*
X93813323Y-107597000D02*
X93813323Y-104041000D01*
X93853323Y-101559000D02*
X93853323Y-98017000D01*
X93853323Y-107583000D02*
X93853323Y-104041000D01*
X93893323Y-101559000D02*
X93893323Y-98032000D01*
X93893323Y-107568000D02*
X93893323Y-104041000D01*
X93933323Y-101559000D02*
X93933323Y-98046000D01*
X93933323Y-107554000D02*
X93933323Y-104041000D01*
X93973323Y-101559000D02*
X93973323Y-98062000D01*
X93973323Y-107538000D02*
X93973323Y-104041000D01*
X94013323Y-101559000D02*
X94013323Y-98077000D01*
X94013323Y-107523000D02*
X94013323Y-104041000D01*
X94053323Y-101559000D02*
X94053323Y-98093000D01*
X94053323Y-107507000D02*
X94053323Y-104041000D01*
X94093323Y-101559000D02*
X94093323Y-98110000D01*
X94093323Y-107490000D02*
X94093323Y-104041000D01*
X94133323Y-101559000D02*
X94133323Y-98126000D01*
X94133323Y-107474000D02*
X94133323Y-104041000D01*
X94173323Y-101559000D02*
X94173323Y-98143000D01*
X94173323Y-107457000D02*
X94173323Y-104041000D01*
X94213323Y-101559000D02*
X94213323Y-98161000D01*
X94213323Y-107439000D02*
X94213323Y-104041000D01*
X94253323Y-101559000D02*
X94253323Y-98179000D01*
X94253323Y-107421000D02*
X94253323Y-104041000D01*
X94293323Y-101559000D02*
X94293323Y-98197000D01*
X94293323Y-107403000D02*
X94293323Y-104041000D01*
X94333323Y-101559000D02*
X94333323Y-98216000D01*
X94333323Y-107384000D02*
X94333323Y-104041000D01*
X94373323Y-101559000D02*
X94373323Y-98236000D01*
X94373323Y-107364000D02*
X94373323Y-104041000D01*
X94413323Y-101559000D02*
X94413323Y-98255000D01*
X94413323Y-107345000D02*
X94413323Y-104041000D01*
X94453323Y-101559000D02*
X94453323Y-98275000D01*
X94453323Y-107325000D02*
X94453323Y-104041000D01*
X94493323Y-101559000D02*
X94493323Y-98296000D01*
X94493323Y-107304000D02*
X94493323Y-104041000D01*
X94533323Y-101559000D02*
X94533323Y-98317000D01*
X94533323Y-107283000D02*
X94533323Y-104041000D01*
X94573323Y-101559000D02*
X94573323Y-98338000D01*
X94573323Y-107262000D02*
X94573323Y-104041000D01*
X94613323Y-101559000D02*
X94613323Y-98360000D01*
X94613323Y-107240000D02*
X94613323Y-104041000D01*
X94653323Y-101559000D02*
X94653323Y-98383000D01*
X94653323Y-107217000D02*
X94653323Y-104041000D01*
X94693323Y-101559000D02*
X94693323Y-98405000D01*
X94693323Y-107195000D02*
X94693323Y-104041000D01*
X94733323Y-101559000D02*
X94733323Y-98429000D01*
X94733323Y-107171000D02*
X94733323Y-104041000D01*
X94773323Y-101559000D02*
X94773323Y-98453000D01*
X94773323Y-107147000D02*
X94773323Y-104041000D01*
X94813323Y-101559000D02*
X94813323Y-98477000D01*
X94813323Y-107123000D02*
X94813323Y-104041000D01*
X94853323Y-101559000D02*
X94853323Y-98502000D01*
X94853323Y-107098000D02*
X94853323Y-104041000D01*
X94893323Y-101559000D02*
X94893323Y-98527000D01*
X94893323Y-107073000D02*
X94893323Y-104041000D01*
X94933323Y-101559000D02*
X94933323Y-98553000D01*
X94933323Y-107047000D02*
X94933323Y-104041000D01*
X94973323Y-101559000D02*
X94973323Y-98579000D01*
X94973323Y-107021000D02*
X94973323Y-104041000D01*
X95013323Y-101559000D02*
X95013323Y-98606000D01*
X95013323Y-106994000D02*
X95013323Y-104041000D01*
X95053323Y-101559000D02*
X95053323Y-98634000D01*
X95053323Y-106966000D02*
X95053323Y-104041000D01*
X95093323Y-101559000D02*
X95093323Y-98662000D01*
X95093323Y-106938000D02*
X95093323Y-104041000D01*
X95133323Y-101559000D02*
X95133323Y-98690000D01*
X95133323Y-106910000D02*
X95133323Y-104041000D01*
X95173323Y-101559000D02*
X95173323Y-98720000D01*
X95173323Y-106880000D02*
X95173323Y-104041000D01*
X95213323Y-101559000D02*
X95213323Y-98750000D01*
X95213323Y-106850000D02*
X95213323Y-104041000D01*
X95253323Y-101559000D02*
X95253323Y-98780000D01*
X95253323Y-106820000D02*
X95253323Y-104041000D01*
X95293323Y-101559000D02*
X95293323Y-98811000D01*
X95293323Y-106789000D02*
X95293323Y-104041000D01*
X95333323Y-101559000D02*
X95333323Y-98843000D01*
X95333323Y-106757000D02*
X95333323Y-104041000D01*
X95373323Y-101559000D02*
X95373323Y-98875000D01*
X95373323Y-106725000D02*
X95373323Y-104041000D01*
X95413323Y-101559000D02*
X95413323Y-98908000D01*
X95413323Y-106692000D02*
X95413323Y-104041000D01*
X95453323Y-101559000D02*
X95453323Y-98942000D01*
X95453323Y-106658000D02*
X95453323Y-104041000D01*
X95493323Y-101559000D02*
X95493323Y-98976000D01*
X95493323Y-106624000D02*
X95493323Y-104041000D01*
X95533323Y-101559000D02*
X95533323Y-99011000D01*
X95533323Y-106589000D02*
X95533323Y-104041000D01*
X95573323Y-101559000D02*
X95573323Y-99047000D01*
X95573323Y-106553000D02*
X95573323Y-104041000D01*
X95613323Y-101559000D02*
X95613323Y-99084000D01*
X95613323Y-106516000D02*
X95613323Y-104041000D01*
X95653323Y-101559000D02*
X95653323Y-99121000D01*
X95653323Y-106479000D02*
X95653323Y-104041000D01*
X95693323Y-101559000D02*
X95693323Y-99160000D01*
X95693323Y-106440000D02*
X95693323Y-104041000D01*
X95733323Y-101559000D02*
X95733323Y-99199000D01*
X95733323Y-106401000D02*
X95733323Y-104041000D01*
X95773323Y-101559000D02*
X95773323Y-99239000D01*
X95773323Y-106361000D02*
X95773323Y-104041000D01*
X95813323Y-101559000D02*
X95813323Y-99280000D01*
X95813323Y-106320000D02*
X95813323Y-104041000D01*
X95853323Y-101559000D02*
X95853323Y-99322000D01*
X95853323Y-106278000D02*
X95853323Y-104041000D01*
X95893323Y-106236000D02*
X95893323Y-99364000D01*
X95933323Y-106192000D02*
X95933323Y-99408000D01*
X95973323Y-106147000D02*
X95973323Y-99453000D01*
X96013323Y-106101000D02*
X96013323Y-99499000D01*
X96053323Y-106054000D02*
X96053323Y-99546000D01*
X96093323Y-106006000D02*
X96093323Y-99594000D01*
X96133323Y-105956000D02*
X96133323Y-99644000D01*
X96173323Y-105906000D02*
X96173323Y-99694000D01*
X96213323Y-105854000D02*
X96213323Y-99746000D01*
X96253323Y-105800000D02*
X96253323Y-99800000D01*
X96293323Y-105745000D02*
X96293323Y-99855000D01*
X96333323Y-105689000D02*
X96333323Y-99911000D01*
X96373323Y-105630000D02*
X96373323Y-99970000D01*
X96413323Y-105570000D02*
X96413323Y-100030000D01*
X96453323Y-105509000D02*
X96453323Y-100091000D01*
X96493323Y-105445000D02*
X96493323Y-100155000D01*
X96533323Y-105379000D02*
X96533323Y-100221000D01*
X96573323Y-105310000D02*
X96573323Y-100290000D01*
X96613323Y-105239000D02*
X96613323Y-100361000D01*
X96653323Y-105165000D02*
X96653323Y-100435000D01*
X96693323Y-105089000D02*
X96693323Y-100511000D01*
X96733323Y-105009000D02*
X96733323Y-100591000D01*
X96773323Y-104925000D02*
X96773323Y-100675000D01*
X96813323Y-104837000D02*
X96813323Y-100763000D01*
X96853323Y-104744000D02*
X96853323Y-100856000D01*
X96893323Y-104646000D02*
X96893323Y-100954000D01*
X96933323Y-104542000D02*
X96933323Y-101058000D01*
X96973323Y-104430000D02*
X96973323Y-101170000D01*
X97013323Y-104310000D02*
X97013323Y-101290000D01*
X97053323Y-104178000D02*
X97053323Y-101422000D01*
X97093323Y-104030000D02*
X97093323Y-101570000D01*
X97133323Y-103862000D02*
X97133323Y-101738000D01*
X97173323Y-103662000D02*
X97173323Y-101938000D01*
X97213323Y-103399000D02*
X97213323Y-102201000D01*
X97252323Y-102800000D02*
G75*
G03*
X97252323Y-102800000I-5120000J0D01*
G01*
%TO.C,C34*%
X82315580Y-66210000D02*
X82034420Y-66210000D01*
X82315580Y-65190000D02*
X82034420Y-65190000D01*
%TO.C,C4*%
X114297164Y-105040000D02*
X114512836Y-105040000D01*
X114297164Y-105760000D02*
X114512836Y-105760000D01*
%TO.C,C30*%
X88840000Y-59907836D02*
X88840000Y-59692164D01*
X89560000Y-59907836D02*
X89560000Y-59692164D01*
%TO.C,D6*%
X97965000Y-113585000D02*
X97965000Y-111300000D01*
X99435000Y-113585000D02*
X97965000Y-113585000D01*
X99435000Y-111300000D02*
X99435000Y-113585000D01*
%TO.C,J5*%
X105470000Y-88970000D02*
X105470000Y-91630000D01*
X97790000Y-88970000D02*
X105470000Y-88970000D01*
X97790000Y-88970000D02*
X97790000Y-91630000D01*
X96520000Y-88970000D02*
X95190000Y-88970000D01*
X95190000Y-88970000D02*
X95190000Y-90300000D01*
X97790000Y-91630000D02*
X105470000Y-91630000D01*
D10*
%TO.C,SW6*%
X95000000Y-121000000D02*
X86000000Y-121000000D01*
X86000000Y-121000000D02*
X86000000Y-127000000D01*
X86000000Y-127000000D02*
X95000000Y-127000000D01*
X95000000Y-127000000D02*
X95000000Y-121000000D01*
D14*
%TO.C,C29*%
X117440000Y-65827836D02*
X117440000Y-65612164D01*
X118160000Y-65827836D02*
X118160000Y-65612164D01*
%TO.C,R4*%
X107920000Y-117543641D02*
X107920000Y-117236359D01*
X108680000Y-117543641D02*
X108680000Y-117236359D01*
%TO.C,C1*%
X117472164Y-116040000D02*
X117687836Y-116040000D01*
X117472164Y-116760000D02*
X117687836Y-116760000D01*
%TO.C,C12*%
X106710000Y-111284420D02*
X106710000Y-111565580D01*
X105690000Y-111284420D02*
X105690000Y-111565580D01*
%TO.C,C15*%
X99910000Y-123388748D02*
X99910000Y-124811252D01*
X98090000Y-123388748D02*
X98090000Y-124811252D01*
%TO.C,C5*%
X114565580Y-108210000D02*
X114284420Y-108210000D01*
X114565580Y-107190000D02*
X114284420Y-107190000D01*
%TO.C,C25*%
X87740000Y-59907836D02*
X87740000Y-59692164D01*
X88460000Y-59907836D02*
X88460000Y-59692164D01*
%TO.C,R2*%
X111020000Y-113343641D02*
X111020000Y-113036359D01*
X111780000Y-113343641D02*
X111780000Y-113036359D01*
%TO.C,C24*%
X117440000Y-65827836D02*
X117440000Y-65612164D01*
X118160000Y-65827836D02*
X118160000Y-65612164D01*
%TO.C,R24*%
X88620000Y-63563641D02*
X88620000Y-63256359D01*
X89380000Y-63563641D02*
X89380000Y-63256359D01*
%TO.C,C32*%
X114297164Y-106040000D02*
X114512836Y-106040000D01*
X114297164Y-106760000D02*
X114512836Y-106760000D01*
%TO.C,U9*%
X82762500Y-61590000D02*
X81962500Y-61590000D01*
X82762500Y-61590000D02*
X83562500Y-61590000D01*
X82762500Y-64710000D02*
X80962500Y-64710000D01*
X82762500Y-64710000D02*
X83562500Y-64710000D01*
D10*
%TO.C,SW2*%
X119000000Y-122000000D02*
X119000000Y-124800000D01*
X119200000Y-126000000D02*
X124000000Y-126000000D01*
X124000000Y-120800000D02*
X119200000Y-120800000D01*
X124200000Y-124800000D02*
X124200000Y-122000000D01*
D14*
%TO.C,C7*%
X88710000Y-89184420D02*
X88710000Y-89465580D01*
X87690000Y-89184420D02*
X87690000Y-89465580D01*
%TO.C,TH1*%
X86621078Y-120510000D02*
X86103922Y-120510000D01*
X86621078Y-119090000D02*
X86103922Y-119090000D01*
%TO.C,C20*%
X147367836Y-85540000D02*
X147152164Y-85540000D01*
X147367836Y-86260000D02*
X147152164Y-86260000D01*
%TO.C,U4*%
X101362500Y-104990000D02*
X100562500Y-104990000D01*
X101362500Y-104990000D02*
X102162500Y-104990000D01*
X101362500Y-108110000D02*
X99562500Y-108110000D01*
X101362500Y-108110000D02*
X102162500Y-108110000D01*
%TO.C,C14*%
X103640000Y-107107836D02*
X103640000Y-106892164D01*
X104360000Y-107107836D02*
X104360000Y-106892164D01*
%TO.C,R17*%
X104077500Y-111662258D02*
X104077500Y-111187742D01*
X105122500Y-111662258D02*
X105122500Y-111187742D01*
%TO.C,J2*%
X105370000Y-93770000D02*
X105370000Y-96430000D01*
X90070000Y-93770000D02*
X105370000Y-93770000D01*
X90070000Y-93770000D02*
X90070000Y-96430000D01*
X88800000Y-93770000D02*
X87470000Y-93770000D01*
X87470000Y-93770000D02*
X87470000Y-95100000D01*
X90070000Y-96430000D02*
X105370000Y-96430000D01*
%TO.C,R12*%
X97337258Y-98222500D02*
X96862742Y-98222500D01*
X97337258Y-97177500D02*
X96862742Y-97177500D01*
%TO.C,R16*%
X103522500Y-111137742D02*
X103522500Y-111612258D01*
X102477500Y-111137742D02*
X102477500Y-111612258D01*
%TO.C,U8*%
X103225000Y-121055000D02*
X105175000Y-121055000D01*
X103225000Y-121055000D02*
X101275000Y-121055000D01*
X103225000Y-115935000D02*
X106675000Y-115935000D01*
X103225000Y-115935000D02*
X101275000Y-115935000D01*
D15*
%TO.C,U5*%
X150190000Y-86900000D02*
G75*
G03*
X150190000Y-86900000I-50000J0D01*
G01*
D13*
X147490000Y-89200000D02*
X149590000Y-89200000D01*
X149590000Y-86600000D02*
X147490000Y-86600000D01*
D14*
%TO.C,R11*%
X147446359Y-106820000D02*
X147753641Y-106820000D01*
X147446359Y-107580000D02*
X147753641Y-107580000D01*
%TO.C,R18*%
X99280000Y-114446359D02*
X99280000Y-114753641D01*
X98520000Y-114446359D02*
X98520000Y-114753641D01*
%TO.C,D2*%
X146497500Y-107935000D02*
X144212500Y-107935000D01*
X146497500Y-106465000D02*
X146497500Y-107935000D01*
X144212500Y-106465000D02*
X146497500Y-106465000D01*
D13*
%TO.C,U7*%
X90700000Y-55858000D02*
X104670000Y-55858000D01*
X90700000Y-57128000D02*
X90700000Y-55858000D01*
X90700000Y-71606000D02*
X90700000Y-67542000D01*
X90700000Y-75924000D02*
X90700000Y-75670000D01*
X90700000Y-75924000D02*
X104670000Y-75924000D01*
X104670000Y-55858000D02*
X104670000Y-57128000D01*
X104670000Y-71606000D02*
X104670000Y-67542000D01*
X104670000Y-75924000D02*
X104670000Y-75670000D01*
D16*
X102892000Y-74908000D02*
X100352000Y-74908000D01*
X100352000Y-72368000D01*
X102892000Y-72368000D01*
X102892000Y-74908000D01*
G36*
X102892000Y-74908000D02*
G01*
X100352000Y-74908000D01*
X100352000Y-72368000D01*
X102892000Y-72368000D01*
X102892000Y-74908000D01*
G37*
D14*
%TO.C,C17*%
X146280000Y-87472164D02*
X146280000Y-87687836D01*
X147000000Y-87472164D02*
X147000000Y-87687836D01*
%TO.C,C19*%
X80475000Y-92147323D02*
X80475000Y-91147323D01*
X80975000Y-91647323D02*
X79975000Y-91647323D01*
X82680000Y-86667677D02*
X72520000Y-86667677D01*
X82680000Y-86627677D02*
X72520000Y-86627677D01*
X82680000Y-86587677D02*
X72520000Y-86587677D01*
X82679000Y-86547677D02*
X72521000Y-86547677D01*
X82678000Y-86507677D02*
X72522000Y-86507677D01*
X82677000Y-86467677D02*
X72523000Y-86467677D01*
X82675000Y-86427677D02*
X72525000Y-86427677D01*
X82673000Y-86387677D02*
X72527000Y-86387677D01*
X82670000Y-86347677D02*
X72530000Y-86347677D01*
X82668000Y-86307677D02*
X72532000Y-86307677D01*
X82665000Y-86267677D02*
X72535000Y-86267677D01*
X82662000Y-86227677D02*
X72538000Y-86227677D01*
X82658000Y-86187677D02*
X72542000Y-86187677D01*
X82654000Y-86147677D02*
X72546000Y-86147677D01*
X82650000Y-86107677D02*
X72550000Y-86107677D01*
X82645000Y-86067677D02*
X72555000Y-86067677D01*
X82640000Y-86027677D02*
X72560000Y-86027677D01*
X82635000Y-85987677D02*
X72565000Y-85987677D01*
X82630000Y-85946677D02*
X72570000Y-85946677D01*
X82624000Y-85906677D02*
X72576000Y-85906677D01*
X82618000Y-85866677D02*
X72582000Y-85866677D01*
X82611000Y-85826677D02*
X72589000Y-85826677D01*
X82604000Y-85786677D02*
X72596000Y-85786677D01*
X82597000Y-85746677D02*
X72603000Y-85746677D01*
X82590000Y-85706677D02*
X72610000Y-85706677D01*
X82582000Y-85666677D02*
X72618000Y-85666677D01*
X82574000Y-85626677D02*
X72626000Y-85626677D01*
X82565000Y-85586677D02*
X72635000Y-85586677D01*
X82556000Y-85546677D02*
X72644000Y-85546677D01*
X82547000Y-85506677D02*
X72653000Y-85506677D01*
X82538000Y-85466677D02*
X72662000Y-85466677D01*
X82528000Y-85426677D02*
X72672000Y-85426677D01*
X76359000Y-85386677D02*
X72682000Y-85386677D01*
X82518000Y-85386677D02*
X78841000Y-85386677D01*
X76359000Y-85346677D02*
X72693000Y-85346677D01*
X82507000Y-85346677D02*
X78841000Y-85346677D01*
X76359000Y-85306677D02*
X72703000Y-85306677D01*
X82497000Y-85306677D02*
X78841000Y-85306677D01*
X76359000Y-85266677D02*
X72715000Y-85266677D01*
X82485000Y-85266677D02*
X78841000Y-85266677D01*
X76359000Y-85226677D02*
X72726000Y-85226677D01*
X82474000Y-85226677D02*
X78841000Y-85226677D01*
X76359000Y-85186677D02*
X72738000Y-85186677D01*
X82462000Y-85186677D02*
X78841000Y-85186677D01*
X76359000Y-85146677D02*
X72750000Y-85146677D01*
X82450000Y-85146677D02*
X78841000Y-85146677D01*
X76359000Y-85106677D02*
X72763000Y-85106677D01*
X82437000Y-85106677D02*
X78841000Y-85106677D01*
X76359000Y-85066677D02*
X72776000Y-85066677D01*
X82424000Y-85066677D02*
X78841000Y-85066677D01*
X76359000Y-85026677D02*
X72789000Y-85026677D01*
X82411000Y-85026677D02*
X78841000Y-85026677D01*
X76359000Y-84986677D02*
X72803000Y-84986677D01*
X82397000Y-84986677D02*
X78841000Y-84986677D01*
X76359000Y-84946677D02*
X72817000Y-84946677D01*
X82383000Y-84946677D02*
X78841000Y-84946677D01*
X76359000Y-84906677D02*
X72832000Y-84906677D01*
X82368000Y-84906677D02*
X78841000Y-84906677D01*
X76359000Y-84866677D02*
X72846000Y-84866677D01*
X82354000Y-84866677D02*
X78841000Y-84866677D01*
X76359000Y-84826677D02*
X72862000Y-84826677D01*
X82338000Y-84826677D02*
X78841000Y-84826677D01*
X76359000Y-84786677D02*
X72877000Y-84786677D01*
X82323000Y-84786677D02*
X78841000Y-84786677D01*
X76359000Y-84746677D02*
X72893000Y-84746677D01*
X82307000Y-84746677D02*
X78841000Y-84746677D01*
X76359000Y-84706677D02*
X72910000Y-84706677D01*
X82290000Y-84706677D02*
X78841000Y-84706677D01*
X76359000Y-84666677D02*
X72926000Y-84666677D01*
X82274000Y-84666677D02*
X78841000Y-84666677D01*
X76359000Y-84626677D02*
X72943000Y-84626677D01*
X82257000Y-84626677D02*
X78841000Y-84626677D01*
X76359000Y-84586677D02*
X72961000Y-84586677D01*
X82239000Y-84586677D02*
X78841000Y-84586677D01*
X76359000Y-84546677D02*
X72979000Y-84546677D01*
X82221000Y-84546677D02*
X78841000Y-84546677D01*
X76359000Y-84506677D02*
X72997000Y-84506677D01*
X82203000Y-84506677D02*
X78841000Y-84506677D01*
X76359000Y-84466677D02*
X73016000Y-84466677D01*
X82184000Y-84466677D02*
X78841000Y-84466677D01*
X76359000Y-84426677D02*
X73036000Y-84426677D01*
X82164000Y-84426677D02*
X78841000Y-84426677D01*
X76359000Y-84386677D02*
X73055000Y-84386677D01*
X82145000Y-84386677D02*
X78841000Y-84386677D01*
X76359000Y-84346677D02*
X73075000Y-84346677D01*
X82125000Y-84346677D02*
X78841000Y-84346677D01*
X76359000Y-84306677D02*
X73096000Y-84306677D01*
X82104000Y-84306677D02*
X78841000Y-84306677D01*
X76359000Y-84266677D02*
X73117000Y-84266677D01*
X82083000Y-84266677D02*
X78841000Y-84266677D01*
X76359000Y-84226677D02*
X73138000Y-84226677D01*
X82062000Y-84226677D02*
X78841000Y-84226677D01*
X76359000Y-84186677D02*
X73160000Y-84186677D01*
X82040000Y-84186677D02*
X78841000Y-84186677D01*
X76359000Y-84146677D02*
X73183000Y-84146677D01*
X82017000Y-84146677D02*
X78841000Y-84146677D01*
X76359000Y-84106677D02*
X73205000Y-84106677D01*
X81995000Y-84106677D02*
X78841000Y-84106677D01*
X76359000Y-84066677D02*
X73229000Y-84066677D01*
X81971000Y-84066677D02*
X78841000Y-84066677D01*
X76359000Y-84026677D02*
X73253000Y-84026677D01*
X81947000Y-84026677D02*
X78841000Y-84026677D01*
X76359000Y-83986677D02*
X73277000Y-83986677D01*
X81923000Y-83986677D02*
X78841000Y-83986677D01*
X76359000Y-83946677D02*
X73302000Y-83946677D01*
X81898000Y-83946677D02*
X78841000Y-83946677D01*
X76359000Y-83906677D02*
X73327000Y-83906677D01*
X81873000Y-83906677D02*
X78841000Y-83906677D01*
X76359000Y-83866677D02*
X73353000Y-83866677D01*
X81847000Y-83866677D02*
X78841000Y-83866677D01*
X76359000Y-83826677D02*
X73379000Y-83826677D01*
X81821000Y-83826677D02*
X78841000Y-83826677D01*
X76359000Y-83786677D02*
X73406000Y-83786677D01*
X81794000Y-83786677D02*
X78841000Y-83786677D01*
X76359000Y-83746677D02*
X73434000Y-83746677D01*
X81766000Y-83746677D02*
X78841000Y-83746677D01*
X76359000Y-83706677D02*
X73462000Y-83706677D01*
X81738000Y-83706677D02*
X78841000Y-83706677D01*
X76359000Y-83666677D02*
X73490000Y-83666677D01*
X81710000Y-83666677D02*
X78841000Y-83666677D01*
X76359000Y-83626677D02*
X73520000Y-83626677D01*
X81680000Y-83626677D02*
X78841000Y-83626677D01*
X76359000Y-83586677D02*
X73550000Y-83586677D01*
X81650000Y-83586677D02*
X78841000Y-83586677D01*
X76359000Y-83546677D02*
X73580000Y-83546677D01*
X81620000Y-83546677D02*
X78841000Y-83546677D01*
X76359000Y-83506677D02*
X73611000Y-83506677D01*
X81589000Y-83506677D02*
X78841000Y-83506677D01*
X76359000Y-83466677D02*
X73643000Y-83466677D01*
X81557000Y-83466677D02*
X78841000Y-83466677D01*
X76359000Y-83426677D02*
X73675000Y-83426677D01*
X81525000Y-83426677D02*
X78841000Y-83426677D01*
X76359000Y-83386677D02*
X73708000Y-83386677D01*
X81492000Y-83386677D02*
X78841000Y-83386677D01*
X76359000Y-83346677D02*
X73742000Y-83346677D01*
X81458000Y-83346677D02*
X78841000Y-83346677D01*
X76359000Y-83306677D02*
X73776000Y-83306677D01*
X81424000Y-83306677D02*
X78841000Y-83306677D01*
X76359000Y-83266677D02*
X73811000Y-83266677D01*
X81389000Y-83266677D02*
X78841000Y-83266677D01*
X76359000Y-83226677D02*
X73847000Y-83226677D01*
X81353000Y-83226677D02*
X78841000Y-83226677D01*
X76359000Y-83186677D02*
X73884000Y-83186677D01*
X81316000Y-83186677D02*
X78841000Y-83186677D01*
X76359000Y-83146677D02*
X73921000Y-83146677D01*
X81279000Y-83146677D02*
X78841000Y-83146677D01*
X76359000Y-83106677D02*
X73960000Y-83106677D01*
X81240000Y-83106677D02*
X78841000Y-83106677D01*
X76359000Y-83066677D02*
X73999000Y-83066677D01*
X81201000Y-83066677D02*
X78841000Y-83066677D01*
X76359000Y-83026677D02*
X74039000Y-83026677D01*
X81161000Y-83026677D02*
X78841000Y-83026677D01*
X76359000Y-82986677D02*
X74080000Y-82986677D01*
X81120000Y-82986677D02*
X78841000Y-82986677D01*
X76359000Y-82946677D02*
X74122000Y-82946677D01*
X81078000Y-82946677D02*
X78841000Y-82946677D01*
X81036000Y-82906677D02*
X74164000Y-82906677D01*
X80992000Y-82866677D02*
X74208000Y-82866677D01*
X80947000Y-82826677D02*
X74253000Y-82826677D01*
X80901000Y-82786677D02*
X74299000Y-82786677D01*
X80854000Y-82746677D02*
X74346000Y-82746677D01*
X80806000Y-82706677D02*
X74394000Y-82706677D01*
X80756000Y-82666677D02*
X74444000Y-82666677D01*
X80706000Y-82626677D02*
X74494000Y-82626677D01*
X80654000Y-82586677D02*
X74546000Y-82586677D01*
X80600000Y-82546677D02*
X74600000Y-82546677D01*
X80545000Y-82506677D02*
X74655000Y-82506677D01*
X80489000Y-82466677D02*
X74711000Y-82466677D01*
X80430000Y-82426677D02*
X74770000Y-82426677D01*
X80370000Y-82386677D02*
X74830000Y-82386677D01*
X80309000Y-82346677D02*
X74891000Y-82346677D01*
X80245000Y-82306677D02*
X74955000Y-82306677D01*
X80179000Y-82266677D02*
X75021000Y-82266677D01*
X80110000Y-82226677D02*
X75090000Y-82226677D01*
X80039000Y-82186677D02*
X75161000Y-82186677D01*
X79965000Y-82146677D02*
X75235000Y-82146677D01*
X79889000Y-82106677D02*
X75311000Y-82106677D01*
X79809000Y-82066677D02*
X75391000Y-82066677D01*
X79725000Y-82026677D02*
X75475000Y-82026677D01*
X79637000Y-81986677D02*
X75563000Y-81986677D01*
X79544000Y-81946677D02*
X75656000Y-81946677D01*
X79446000Y-81906677D02*
X75754000Y-81906677D01*
X79342000Y-81866677D02*
X75858000Y-81866677D01*
X79230000Y-81826677D02*
X75970000Y-81826677D01*
X79110000Y-81786677D02*
X76090000Y-81786677D01*
X78978000Y-81746677D02*
X76222000Y-81746677D01*
X78830000Y-81706677D02*
X76370000Y-81706677D01*
X78662000Y-81666677D02*
X76538000Y-81666677D01*
X78462000Y-81626677D02*
X76738000Y-81626677D01*
X78199000Y-81586677D02*
X77001000Y-81586677D01*
X82720000Y-86667677D02*
G75*
G03*
X82720000Y-86667677I-5120000J0D01*
G01*
%TO.C,C22*%
X119610000Y-65634420D02*
X119610000Y-65915580D01*
X118590000Y-65634420D02*
X118590000Y-65915580D01*
%TO.C,C18*%
X148567836Y-89440000D02*
X148352164Y-89440000D01*
X148567836Y-90160000D02*
X148352164Y-90160000D01*
%TO.C,C26*%
X103188748Y-102690000D02*
X104611252Y-102690000D01*
X103188748Y-104510000D02*
X104611252Y-104510000D01*
%TO.C,C33*%
X107860000Y-119772164D02*
X107860000Y-119987836D01*
X107140000Y-119772164D02*
X107140000Y-119987836D01*
%TO.C,R1*%
X76643641Y-102480000D02*
X76336359Y-102480000D01*
X76643641Y-101720000D02*
X76336359Y-101720000D01*
%TO.C,R25*%
X117720000Y-119343641D02*
X117720000Y-119036359D01*
X118480000Y-119343641D02*
X118480000Y-119036359D01*
%TO.C,C23*%
X87659420Y-61090000D02*
X87940580Y-61090000D01*
X87659420Y-62110000D02*
X87940580Y-62110000D01*
%TO.C,R15*%
X100653641Y-104580000D02*
X100346359Y-104580000D01*
X100653641Y-103820000D02*
X100346359Y-103820000D01*
%TO.C,D8*%
X84310000Y-79500000D02*
X80450000Y-79500000D01*
X84310000Y-77500000D02*
X84310000Y-79500000D01*
X84310000Y-77500000D02*
X80450000Y-77500000D01*
%TO.C,D3*%
X94000000Y-116190000D02*
X94000000Y-120050000D01*
X92000000Y-116190000D02*
X94000000Y-116190000D01*
X92000000Y-116190000D02*
X92000000Y-120050000D01*
%TO.C,C2*%
X98090000Y-120340580D02*
X98090000Y-120059420D01*
X99110000Y-120340580D02*
X99110000Y-120059420D01*
%TO.C,C6*%
X112740000Y-116087836D02*
X112740000Y-115872164D01*
X113460000Y-116087836D02*
X113460000Y-115872164D01*
%TO.C,C36*%
X85040000Y-63807836D02*
X85040000Y-63592164D01*
X85760000Y-63807836D02*
X85760000Y-63592164D01*
%TO.C,D5*%
X106010000Y-102100000D02*
X102150000Y-102100000D01*
X106010000Y-100100000D02*
X106010000Y-102100000D01*
X106010000Y-100100000D02*
X102150000Y-100100000D01*
%TO.C,R8*%
X107946359Y-101320000D02*
X108253641Y-101320000D01*
X107946359Y-102080000D02*
X108253641Y-102080000D01*
%TO.C,C21*%
X105715580Y-122610000D02*
X105434420Y-122610000D01*
X105715580Y-121590000D02*
X105434420Y-121590000D01*
%TO.C,R21*%
X117922500Y-71837742D02*
X117922500Y-72312258D01*
X116877500Y-71837742D02*
X116877500Y-72312258D01*
%TO.C,R3*%
X145536359Y-101620000D02*
X145843641Y-101620000D01*
X145536359Y-102380000D02*
X145843641Y-102380000D01*
%TO.C,C11*%
X105810000Y-106559420D02*
X105810000Y-106840580D01*
X104790000Y-106559420D02*
X104790000Y-106840580D01*
%TO.C,C9*%
X86440000Y-76527836D02*
X86440000Y-76312164D01*
X87160000Y-76527836D02*
X87160000Y-76312164D01*
%TO.C,R19*%
X100580000Y-114446359D02*
X100580000Y-114753641D01*
X99820000Y-114446359D02*
X99820000Y-114753641D01*
%TO.C,R5*%
X119680000Y-119056359D02*
X119680000Y-119363641D01*
X118920000Y-119056359D02*
X118920000Y-119363641D01*
%TO.C,C10*%
X97890000Y-106634420D02*
X97890000Y-106915580D01*
X98910000Y-106634420D02*
X98910000Y-106915580D01*
%TO.C,C27*%
X117540000Y-69227836D02*
X117540000Y-69012164D01*
X118260000Y-69227836D02*
X118260000Y-69012164D01*
%TO.C,D7*%
X101135000Y-111300000D02*
X101135000Y-113585000D01*
X101135000Y-113585000D02*
X99665000Y-113585000D01*
X99665000Y-113585000D02*
X99665000Y-111300000D01*
%TO.C,U1*%
X110790000Y-103310000D02*
X111090000Y-103310000D01*
X117710000Y-103310000D02*
X117710000Y-104625000D01*
X118010000Y-103310000D02*
X117710000Y-103310000D01*
X110790000Y-103010000D02*
X110790000Y-103310000D01*
X118010000Y-103010000D02*
X118010000Y-103310000D01*
X110790000Y-96390000D02*
X110790000Y-96090000D01*
X118010000Y-96390000D02*
X118010000Y-96090000D01*
X110790000Y-96090000D02*
X111090000Y-96090000D01*
X118010000Y-96090000D02*
X117710000Y-96090000D01*
%TO.C,R6*%
X103143641Y-122180000D02*
X102836359Y-122180000D01*
X103143641Y-121420000D02*
X102836359Y-121420000D01*
%TO.C,R22*%
X79420000Y-63343641D02*
X79420000Y-63036359D01*
X80180000Y-63343641D02*
X80180000Y-63036359D01*
%TO.C,R7*%
X97580000Y-112036359D02*
X97580000Y-112343641D01*
X96820000Y-112036359D02*
X96820000Y-112343641D01*
%TO.C,C8*%
X86540000Y-89427836D02*
X86540000Y-89212164D01*
X87260000Y-89427836D02*
X87260000Y-89212164D01*
%TO.C,C35*%
X145850000Y-88265580D02*
X145850000Y-87984420D01*
X144830000Y-88265580D02*
X144830000Y-87984420D01*
%TO.C,C3*%
X87447323Y-69025000D02*
X86447323Y-69025000D01*
X86947323Y-68525000D02*
X86947323Y-69525000D01*
X81967677Y-66820000D02*
X81967677Y-76980000D01*
X81927677Y-66820000D02*
X81927677Y-76980000D01*
X81887677Y-66820000D02*
X81887677Y-76980000D01*
X81847677Y-66821000D02*
X81847677Y-76979000D01*
X81807677Y-66822000D02*
X81807677Y-76978000D01*
X81767677Y-66823000D02*
X81767677Y-76977000D01*
X81727677Y-66825000D02*
X81727677Y-76975000D01*
X81687677Y-66827000D02*
X81687677Y-76973000D01*
X81647677Y-66830000D02*
X81647677Y-76970000D01*
X81607677Y-66832000D02*
X81607677Y-76968000D01*
X81567677Y-66835000D02*
X81567677Y-76965000D01*
X81527677Y-66838000D02*
X81527677Y-76962000D01*
X81487677Y-66842000D02*
X81487677Y-76958000D01*
X81447677Y-66846000D02*
X81447677Y-76954000D01*
X81407677Y-66850000D02*
X81407677Y-76950000D01*
X81367677Y-66855000D02*
X81367677Y-76945000D01*
X81327677Y-66860000D02*
X81327677Y-76940000D01*
X81287677Y-66865000D02*
X81287677Y-76935000D01*
X81246677Y-66870000D02*
X81246677Y-76930000D01*
X81206677Y-66876000D02*
X81206677Y-76924000D01*
X81166677Y-66882000D02*
X81166677Y-76918000D01*
X81126677Y-66889000D02*
X81126677Y-76911000D01*
X81086677Y-66896000D02*
X81086677Y-76904000D01*
X81046677Y-66903000D02*
X81046677Y-76897000D01*
X81006677Y-66910000D02*
X81006677Y-76890000D01*
X80966677Y-66918000D02*
X80966677Y-76882000D01*
X80926677Y-66926000D02*
X80926677Y-76874000D01*
X80886677Y-66935000D02*
X80886677Y-76865000D01*
X80846677Y-66944000D02*
X80846677Y-76856000D01*
X80806677Y-66953000D02*
X80806677Y-76847000D01*
X80766677Y-66962000D02*
X80766677Y-76838000D01*
X80726677Y-66972000D02*
X80726677Y-76828000D01*
X80686677Y-73141000D02*
X80686677Y-76818000D01*
X80686677Y-66982000D02*
X80686677Y-70659000D01*
X80646677Y-73141000D02*
X80646677Y-76807000D01*
X80646677Y-66993000D02*
X80646677Y-70659000D01*
X80606677Y-73141000D02*
X80606677Y-76797000D01*
X80606677Y-67003000D02*
X80606677Y-70659000D01*
X80566677Y-73141000D02*
X80566677Y-76785000D01*
X80566677Y-67015000D02*
X80566677Y-70659000D01*
X80526677Y-73141000D02*
X80526677Y-76774000D01*
X80526677Y-67026000D02*
X80526677Y-70659000D01*
X80486677Y-73141000D02*
X80486677Y-76762000D01*
X80486677Y-67038000D02*
X80486677Y-70659000D01*
X80446677Y-73141000D02*
X80446677Y-76750000D01*
X80446677Y-67050000D02*
X80446677Y-70659000D01*
X80406677Y-73141000D02*
X80406677Y-76737000D01*
X80406677Y-67063000D02*
X80406677Y-70659000D01*
X80366677Y-73141000D02*
X80366677Y-76724000D01*
X80366677Y-67076000D02*
X80366677Y-70659000D01*
X80326677Y-73141000D02*
X80326677Y-76711000D01*
X80326677Y-67089000D02*
X80326677Y-70659000D01*
X80286677Y-73141000D02*
X80286677Y-76697000D01*
X80286677Y-67103000D02*
X80286677Y-70659000D01*
X80246677Y-73141000D02*
X80246677Y-76683000D01*
X80246677Y-67117000D02*
X80246677Y-70659000D01*
X80206677Y-73141000D02*
X80206677Y-76668000D01*
X80206677Y-67132000D02*
X80206677Y-70659000D01*
X80166677Y-73141000D02*
X80166677Y-76654000D01*
X80166677Y-67146000D02*
X80166677Y-70659000D01*
X80126677Y-73141000D02*
X80126677Y-76638000D01*
X80126677Y-67162000D02*
X80126677Y-70659000D01*
X80086677Y-73141000D02*
X80086677Y-76623000D01*
X80086677Y-67177000D02*
X80086677Y-70659000D01*
X80046677Y-73141000D02*
X80046677Y-76607000D01*
X80046677Y-67193000D02*
X80046677Y-70659000D01*
X80006677Y-73141000D02*
X80006677Y-76590000D01*
X80006677Y-67210000D02*
X80006677Y-70659000D01*
X79966677Y-73141000D02*
X79966677Y-76574000D01*
X79966677Y-67226000D02*
X79966677Y-70659000D01*
X79926677Y-73141000D02*
X79926677Y-76557000D01*
X79926677Y-67243000D02*
X79926677Y-70659000D01*
X79886677Y-73141000D02*
X79886677Y-76539000D01*
X79886677Y-67261000D02*
X79886677Y-70659000D01*
X79846677Y-73141000D02*
X79846677Y-76521000D01*
X79846677Y-67279000D02*
X79846677Y-70659000D01*
X79806677Y-73141000D02*
X79806677Y-76503000D01*
X79806677Y-67297000D02*
X79806677Y-70659000D01*
X79766677Y-73141000D02*
X79766677Y-76484000D01*
X79766677Y-67316000D02*
X79766677Y-70659000D01*
X79726677Y-73141000D02*
X79726677Y-76464000D01*
X79726677Y-67336000D02*
X79726677Y-70659000D01*
X79686677Y-73141000D02*
X79686677Y-76445000D01*
X79686677Y-67355000D02*
X79686677Y-70659000D01*
X79646677Y-73141000D02*
X79646677Y-76425000D01*
X79646677Y-67375000D02*
X79646677Y-70659000D01*
X79606677Y-73141000D02*
X79606677Y-76404000D01*
X79606677Y-67396000D02*
X79606677Y-70659000D01*
X79566677Y-73141000D02*
X79566677Y-76383000D01*
X79566677Y-67417000D02*
X79566677Y-70659000D01*
X79526677Y-73141000D02*
X79526677Y-76362000D01*
X79526677Y-67438000D02*
X79526677Y-70659000D01*
X79486677Y-73141000D02*
X79486677Y-76340000D01*
X79486677Y-67460000D02*
X79486677Y-70659000D01*
X79446677Y-73141000D02*
X79446677Y-76317000D01*
X79446677Y-67483000D02*
X79446677Y-70659000D01*
X79406677Y-73141000D02*
X79406677Y-76295000D01*
X79406677Y-67505000D02*
X79406677Y-70659000D01*
X79366677Y-73141000D02*
X79366677Y-76271000D01*
X79366677Y-67529000D02*
X79366677Y-70659000D01*
X79326677Y-73141000D02*
X79326677Y-76247000D01*
X79326677Y-67553000D02*
X79326677Y-70659000D01*
X79286677Y-73141000D02*
X79286677Y-76223000D01*
X79286677Y-67577000D02*
X79286677Y-70659000D01*
X79246677Y-73141000D02*
X79246677Y-76198000D01*
X79246677Y-67602000D02*
X79246677Y-70659000D01*
X79206677Y-73141000D02*
X79206677Y-76173000D01*
X79206677Y-67627000D02*
X79206677Y-70659000D01*
X79166677Y-73141000D02*
X79166677Y-76147000D01*
X79166677Y-67653000D02*
X79166677Y-70659000D01*
X79126677Y-73141000D02*
X79126677Y-76121000D01*
X79126677Y-67679000D02*
X79126677Y-70659000D01*
X79086677Y-73141000D02*
X79086677Y-76094000D01*
X79086677Y-67706000D02*
X79086677Y-70659000D01*
X79046677Y-73141000D02*
X79046677Y-76066000D01*
X79046677Y-67734000D02*
X79046677Y-70659000D01*
X79006677Y-73141000D02*
X79006677Y-76038000D01*
X79006677Y-67762000D02*
X79006677Y-70659000D01*
X78966677Y-73141000D02*
X78966677Y-76010000D01*
X78966677Y-67790000D02*
X78966677Y-70659000D01*
X78926677Y-73141000D02*
X78926677Y-75980000D01*
X78926677Y-67820000D02*
X78926677Y-70659000D01*
X78886677Y-73141000D02*
X78886677Y-75950000D01*
X78886677Y-67850000D02*
X78886677Y-70659000D01*
X78846677Y-73141000D02*
X78846677Y-75920000D01*
X78846677Y-67880000D02*
X78846677Y-70659000D01*
X78806677Y-73141000D02*
X78806677Y-75889000D01*
X78806677Y-67911000D02*
X78806677Y-70659000D01*
X78766677Y-73141000D02*
X78766677Y-75857000D01*
X78766677Y-67943000D02*
X78766677Y-70659000D01*
X78726677Y-73141000D02*
X78726677Y-75825000D01*
X78726677Y-67975000D02*
X78726677Y-70659000D01*
X78686677Y-73141000D02*
X78686677Y-75792000D01*
X78686677Y-68008000D02*
X78686677Y-70659000D01*
X78646677Y-73141000D02*
X78646677Y-75758000D01*
X78646677Y-68042000D02*
X78646677Y-70659000D01*
X78606677Y-73141000D02*
X78606677Y-75724000D01*
X78606677Y-68076000D02*
X78606677Y-70659000D01*
X78566677Y-73141000D02*
X78566677Y-75689000D01*
X78566677Y-68111000D02*
X78566677Y-70659000D01*
X78526677Y-73141000D02*
X78526677Y-75653000D01*
X78526677Y-68147000D02*
X78526677Y-70659000D01*
X78486677Y-73141000D02*
X78486677Y-75616000D01*
X78486677Y-68184000D02*
X78486677Y-70659000D01*
X78446677Y-73141000D02*
X78446677Y-75579000D01*
X78446677Y-68221000D02*
X78446677Y-70659000D01*
X78406677Y-73141000D02*
X78406677Y-75540000D01*
X78406677Y-68260000D02*
X78406677Y-70659000D01*
X78366677Y-73141000D02*
X78366677Y-75501000D01*
X78366677Y-68299000D02*
X78366677Y-70659000D01*
X78326677Y-73141000D02*
X78326677Y-75461000D01*
X78326677Y-68339000D02*
X78326677Y-70659000D01*
X78286677Y-73141000D02*
X78286677Y-75420000D01*
X78286677Y-68380000D02*
X78286677Y-70659000D01*
X78246677Y-73141000D02*
X78246677Y-75378000D01*
X78246677Y-68422000D02*
X78246677Y-70659000D01*
X78206677Y-68464000D02*
X78206677Y-75336000D01*
X78166677Y-68508000D02*
X78166677Y-75292000D01*
X78126677Y-68553000D02*
X78126677Y-75247000D01*
X78086677Y-68599000D02*
X78086677Y-75201000D01*
X78046677Y-68646000D02*
X78046677Y-75154000D01*
X78006677Y-68694000D02*
X78006677Y-75106000D01*
X77966677Y-68744000D02*
X77966677Y-75056000D01*
X77926677Y-68794000D02*
X77926677Y-75006000D01*
X77886677Y-68846000D02*
X77886677Y-74954000D01*
X77846677Y-68900000D02*
X77846677Y-74900000D01*
X77806677Y-68955000D02*
X77806677Y-74845000D01*
X77766677Y-69011000D02*
X77766677Y-74789000D01*
X77726677Y-69070000D02*
X77726677Y-74730000D01*
X77686677Y-69130000D02*
X77686677Y-74670000D01*
X77646677Y-69191000D02*
X77646677Y-74609000D01*
X77606677Y-69255000D02*
X77606677Y-74545000D01*
X77566677Y-69321000D02*
X77566677Y-74479000D01*
X77526677Y-69390000D02*
X77526677Y-74410000D01*
X77486677Y-69461000D02*
X77486677Y-74339000D01*
X77446677Y-69535000D02*
X77446677Y-74265000D01*
X77406677Y-69611000D02*
X77406677Y-74189000D01*
X77366677Y-69691000D02*
X77366677Y-74109000D01*
X77326677Y-69775000D02*
X77326677Y-74025000D01*
X77286677Y-69863000D02*
X77286677Y-73937000D01*
X77246677Y-69956000D02*
X77246677Y-73844000D01*
X77206677Y-70054000D02*
X77206677Y-73746000D01*
X77166677Y-70158000D02*
X77166677Y-73642000D01*
X77126677Y-70270000D02*
X77126677Y-73530000D01*
X77086677Y-70390000D02*
X77086677Y-73410000D01*
X77046677Y-70522000D02*
X77046677Y-73278000D01*
X77006677Y-70670000D02*
X77006677Y-73130000D01*
X76966677Y-70838000D02*
X76966677Y-72962000D01*
X76926677Y-71038000D02*
X76926677Y-72762000D01*
X76886677Y-71301000D02*
X76886677Y-72499000D01*
X87087677Y-71900000D02*
G75*
G03*
X87087677Y-71900000I-5120000J0D01*
G01*
%TO.C,D4*%
X95500000Y-125210000D02*
X95500000Y-121350000D01*
X97500000Y-125210000D02*
X95500000Y-125210000D01*
X97500000Y-125210000D02*
X97500000Y-121350000D01*
%TO.C,C37*%
X88110000Y-64088748D02*
X88110000Y-65511252D01*
X86290000Y-64088748D02*
X86290000Y-65511252D01*
D10*
%TO.C,U2*%
X109025000Y-119075000D02*
X109325000Y-119075000D01*
X109025000Y-119075000D02*
X109025000Y-115725000D01*
X112150000Y-119075000D02*
X112150000Y-120300000D01*
X112375000Y-119075000D02*
X112150000Y-119075000D01*
X112375000Y-119075000D02*
X112375000Y-115725000D01*
X109025000Y-115725000D02*
X109325000Y-115725000D01*
X112375000Y-115725000D02*
X112075000Y-115725000D01*
D14*
%TO.C,R20*%
X105462742Y-114377500D02*
X105937258Y-114377500D01*
X105462742Y-115422500D02*
X105937258Y-115422500D01*
%TO.C,D1*%
X113390000Y-119262500D02*
X113390000Y-120062500D01*
X113390000Y-119262500D02*
X113390000Y-118462500D01*
X116510000Y-119262500D02*
X116510000Y-121062500D01*
X116510000Y-119262500D02*
X116510000Y-118462500D01*
%TO.C,R14*%
X100412258Y-98222500D02*
X99937742Y-98222500D01*
X100412258Y-97177500D02*
X99937742Y-97177500D01*
%TO.C,C28*%
X121611252Y-70510000D02*
X120188748Y-70510000D01*
X121611252Y-68690000D02*
X120188748Y-68690000D01*
%TO.C,R23*%
X88620000Y-65553641D02*
X88620000Y-65246359D01*
X89380000Y-65553641D02*
X89380000Y-65246359D01*
%TO.C,R10*%
X112477500Y-90987742D02*
X112477500Y-91462258D01*
X113522500Y-90987742D02*
X113522500Y-91462258D01*
%TD*%
D17*
%TO.C,J1*%
X113600000Y-122800000D03*
X108600000Y-122800000D03*
D18*
X114600000Y-125500000D03*
X107600000Y-125500000D03*
%TD*%
%LPC*%
D19*
%TO.C,J1*%
X112400000Y-122825000D03*
X111750000Y-122825000D03*
X111100000Y-122825000D03*
X110450000Y-122825000D03*
X109800000Y-122825000D03*
D20*
X113600000Y-122800000D03*
X108600000Y-122800000D03*
D21*
X112100000Y-125500000D03*
X110100000Y-125500000D03*
D22*
X114600000Y-125500000D03*
D21*
X114150000Y-125500000D03*
X108050000Y-125500000D03*
D22*
X107600000Y-125500000D03*
%TD*%
D23*
%TO.C,D9*%
X96000000Y-115100000D03*
X96000000Y-119100000D03*
%TD*%
D18*
%TO.C,J4*%
X79700000Y-111845000D03*
X79700000Y-114385000D03*
D24*
X79700000Y-116925000D03*
%TD*%
D25*
%TO.C,J6*%
X102900000Y-85300000D03*
D26*
X100360000Y-85300000D03*
X97820000Y-85300000D03*
%TD*%
D27*
%TO.C,J7*%
X74600000Y-107125000D03*
D28*
X74600000Y-105875000D03*
%TD*%
D24*
%TO.C,J3*%
X84500000Y-87925000D03*
D26*
X84500000Y-90465000D03*
X84500000Y-93005000D03*
X84500000Y-95545000D03*
X84500000Y-98085000D03*
X84500000Y-100625000D03*
X84500000Y-103165000D03*
X84500000Y-105705000D03*
%TD*%
D29*
%TO.C,H3*%
X140300000Y-123300000D03*
%TD*%
%TO.C,H2*%
X81700000Y-123300000D03*
%TD*%
%TO.C,H1*%
X84900000Y-56000000D03*
%TD*%
D30*
%TO.C,R13*%
X114700000Y-90350000D03*
X114700000Y-92000000D03*
%TD*%
D31*
%TO.C,C16*%
X89632323Y-102800000D03*
D32*
X94632323Y-102800000D03*
%TD*%
D33*
%TO.C,C34*%
X82950000Y-65700000D03*
X81400000Y-65700000D03*
%TD*%
D34*
%TO.C,C4*%
X113925000Y-105400000D03*
X114885000Y-105400000D03*
%TD*%
D35*
%TO.C,C30*%
X89200000Y-60280000D03*
X89200000Y-59320000D03*
%TD*%
D36*
%TO.C,D6*%
X98700000Y-112887500D03*
X98700000Y-111312500D03*
%TD*%
D37*
%TO.C,J5*%
X96520000Y-90300000D03*
D26*
X99060000Y-90300000D03*
X101600000Y-90300000D03*
X104140000Y-90300000D03*
%TD*%
D38*
%TO.C,SW6*%
X88000000Y-121900000D03*
X90500000Y-121900000D03*
X93000000Y-121900000D03*
%TD*%
D35*
%TO.C,C29*%
X117800000Y-66200000D03*
X117800000Y-65240000D03*
%TD*%
D39*
%TO.C,R4*%
X108300000Y-117900000D03*
X108300000Y-116880000D03*
%TD*%
D34*
%TO.C,C1*%
X117100000Y-116400000D03*
X118060000Y-116400000D03*
%TD*%
D40*
%TO.C,C12*%
X106200000Y-110650000D03*
X106200000Y-112200000D03*
%TD*%
D41*
%TO.C,C15*%
X99000000Y-122625000D03*
X99000000Y-125575000D03*
%TD*%
D33*
%TO.C,C5*%
X115200000Y-107700000D03*
X113650000Y-107700000D03*
%TD*%
D35*
%TO.C,C25*%
X88100000Y-60280000D03*
X88100000Y-59320000D03*
%TD*%
D39*
%TO.C,R2*%
X111400000Y-113700000D03*
X111400000Y-112680000D03*
%TD*%
D35*
%TO.C,C24*%
X117800000Y-66200000D03*
X117800000Y-65240000D03*
%TD*%
D39*
%TO.C,R24*%
X89000000Y-63920000D03*
X89000000Y-62900000D03*
%TD*%
D34*
%TO.C,C32*%
X113925000Y-106400000D03*
X114885000Y-106400000D03*
%TD*%
D42*
%TO.C,U9*%
X81625000Y-64100000D03*
X81625000Y-63150000D03*
X81625000Y-62200000D03*
X83900000Y-62200000D03*
X83900000Y-64100000D03*
%TD*%
D43*
%TO.C,SW2*%
X118100000Y-125650000D03*
X125100000Y-125650000D03*
X118100000Y-121150000D03*
X125100000Y-121150000D03*
%TD*%
D40*
%TO.C,C7*%
X88200000Y-88550000D03*
X88200000Y-90100000D03*
%TD*%
D44*
%TO.C,TH1*%
X87300000Y-119800000D03*
X85425000Y-119800000D03*
%TD*%
D45*
%TO.C,C20*%
X146780000Y-85900000D03*
X147740000Y-85900000D03*
%TD*%
D42*
%TO.C,U4*%
X100225000Y-107500000D03*
X100225000Y-106550000D03*
X100225000Y-105600000D03*
X102500000Y-105600000D03*
X102500000Y-107500000D03*
%TD*%
D35*
%TO.C,C14*%
X104000000Y-107480000D03*
X104000000Y-106520000D03*
%TD*%
D46*
%TO.C,R17*%
X104600000Y-112250000D03*
X104600000Y-110600000D03*
%TD*%
D37*
%TO.C,J2*%
X88800000Y-95100000D03*
D26*
X91340000Y-95100000D03*
X93880000Y-95100000D03*
X96420000Y-95100000D03*
X98960000Y-95100000D03*
X101500000Y-95100000D03*
X104040000Y-95100000D03*
%TD*%
D47*
%TO.C,R12*%
X97925000Y-97700000D03*
X96275000Y-97700000D03*
%TD*%
D30*
%TO.C,R16*%
X103000000Y-110550000D03*
X103000000Y-112200000D03*
%TD*%
D48*
%TO.C,U8*%
X105850000Y-116590000D03*
X105850000Y-117860000D03*
X105850000Y-119130000D03*
X105850000Y-120400000D03*
X100600000Y-120400000D03*
X100600000Y-119130000D03*
X100600000Y-117860000D03*
X100600000Y-116590000D03*
D49*
X103225000Y-118495000D03*
%TD*%
D50*
%TO.C,U5*%
X148790000Y-87140000D03*
X148290000Y-87140000D03*
D51*
X147780000Y-87150000D03*
X147780000Y-87650000D03*
X147780000Y-88150000D03*
X147780000Y-88650000D03*
D50*
X148290000Y-88660000D03*
X148790000Y-88660000D03*
D51*
X149300000Y-88650000D03*
X149300000Y-88150000D03*
X149300000Y-87650000D03*
X149300000Y-87150000D03*
%TD*%
D52*
%TO.C,R11*%
X147090000Y-107200000D03*
X148110000Y-107200000D03*
%TD*%
D53*
%TO.C,R18*%
X98900000Y-114090000D03*
X98900000Y-115110000D03*
%TD*%
D54*
%TO.C,D2*%
X145800000Y-107200000D03*
X144225000Y-107200000D03*
%TD*%
D55*
%TO.C,U7*%
X90700000Y-74908000D03*
X90700000Y-73638000D03*
X90700000Y-72368000D03*
X90700000Y-66780000D03*
X90700000Y-65510000D03*
X90700000Y-64240000D03*
X90700000Y-62970000D03*
X90700000Y-61700000D03*
X90700000Y-60430000D03*
X90700000Y-59160000D03*
X90700000Y-57890000D03*
X104670000Y-57890000D03*
X104670000Y-59160000D03*
X104670000Y-60430000D03*
X104670000Y-61700000D03*
X104670000Y-62970000D03*
X104670000Y-64240000D03*
X104670000Y-65510000D03*
X104670000Y-66780000D03*
X104670000Y-72368000D03*
X104670000Y-73638000D03*
X104670000Y-74908000D03*
%TD*%
D56*
%TO.C,C17*%
X146640000Y-88060000D03*
X146640000Y-87100000D03*
%TD*%
D57*
%TO.C,C19*%
X77600000Y-89167677D03*
D32*
X77600000Y-84167677D03*
%TD*%
D40*
%TO.C,C22*%
X119100000Y-65000000D03*
X119100000Y-66550000D03*
%TD*%
D45*
%TO.C,C18*%
X147980000Y-89800000D03*
X148940000Y-89800000D03*
%TD*%
D58*
%TO.C,C26*%
X102425000Y-103600000D03*
X105375000Y-103600000D03*
%TD*%
D56*
%TO.C,C33*%
X107500000Y-119400000D03*
X107500000Y-120360000D03*
%TD*%
D59*
%TO.C,R1*%
X77000000Y-102100000D03*
X75980000Y-102100000D03*
%TD*%
D39*
%TO.C,R25*%
X118100000Y-119700000D03*
X118100000Y-118680000D03*
%TD*%
D60*
%TO.C,C23*%
X87025000Y-61600000D03*
X88575000Y-61600000D03*
%TD*%
D59*
%TO.C,R15*%
X101010000Y-104200000D03*
X99990000Y-104200000D03*
%TD*%
D61*
%TO.C,D8*%
X83500000Y-78500000D03*
X80700000Y-78500000D03*
%TD*%
D62*
%TO.C,D3*%
X93000000Y-117000000D03*
X93000000Y-119800000D03*
%TD*%
D63*
%TO.C,C2*%
X98600000Y-120975000D03*
X98600000Y-119425000D03*
%TD*%
D35*
%TO.C,C6*%
X113100000Y-116460000D03*
X113100000Y-115500000D03*
%TD*%
%TO.C,C36*%
X85400000Y-64180000D03*
X85400000Y-63220000D03*
%TD*%
D61*
%TO.C,D5*%
X105200000Y-101100000D03*
X102400000Y-101100000D03*
%TD*%
D52*
%TO.C,R8*%
X107590000Y-101700000D03*
X108610000Y-101700000D03*
%TD*%
D33*
%TO.C,C21*%
X106350000Y-122100000D03*
X104800000Y-122100000D03*
%TD*%
D30*
%TO.C,R21*%
X117400000Y-71250000D03*
X117400000Y-72900000D03*
%TD*%
D52*
%TO.C,R3*%
X145180000Y-102000000D03*
X146200000Y-102000000D03*
%TD*%
D40*
%TO.C,C11*%
X105300000Y-105925000D03*
X105300000Y-107475000D03*
%TD*%
D35*
%TO.C,C9*%
X86800000Y-76900000D03*
X86800000Y-75940000D03*
%TD*%
D53*
%TO.C,R19*%
X100200000Y-114090000D03*
X100200000Y-115110000D03*
%TD*%
%TO.C,R5*%
X119300000Y-118700000D03*
X119300000Y-119720000D03*
%TD*%
D40*
%TO.C,C10*%
X98400000Y-107550000D03*
X98400000Y-106000000D03*
%TD*%
D35*
%TO.C,C27*%
X117900000Y-69600000D03*
X117900000Y-68640000D03*
%TD*%
D36*
%TO.C,D7*%
X100400000Y-111312500D03*
X100400000Y-112887500D03*
%TD*%
D64*
%TO.C,U1*%
X117200000Y-103875000D03*
X116400000Y-103875000D03*
X115600000Y-103875000D03*
X114800000Y-103875000D03*
X114000000Y-103875000D03*
X113200000Y-103875000D03*
X112400000Y-103875000D03*
X111600000Y-103875000D03*
D65*
X110225000Y-102500000D03*
X110225000Y-101700000D03*
X110225000Y-100900000D03*
X110225000Y-100100000D03*
X110225000Y-99300000D03*
X110225000Y-98500000D03*
X110225000Y-97700000D03*
X110225000Y-96900000D03*
D64*
X111600000Y-95525000D03*
X112400000Y-95525000D03*
X113200000Y-95525000D03*
X114000000Y-95525000D03*
X114800000Y-95525000D03*
X115600000Y-95525000D03*
X116400000Y-95525000D03*
X117200000Y-95525000D03*
D65*
X118575000Y-96900000D03*
X118575000Y-97700000D03*
X118575000Y-98500000D03*
X118575000Y-99300000D03*
X118575000Y-100100000D03*
X118575000Y-100900000D03*
X118575000Y-101700000D03*
X118575000Y-102500000D03*
%TD*%
D59*
%TO.C,R6*%
X103500000Y-121800000D03*
X102480000Y-121800000D03*
%TD*%
D39*
%TO.C,R22*%
X79800000Y-63700000D03*
X79800000Y-62680000D03*
%TD*%
D53*
%TO.C,R7*%
X97200000Y-111680000D03*
X97200000Y-112700000D03*
%TD*%
D35*
%TO.C,C8*%
X86900000Y-89800000D03*
X86900000Y-88840000D03*
%TD*%
D63*
%TO.C,C35*%
X145340000Y-87350000D03*
X145340000Y-88900000D03*
%TD*%
D66*
%TO.C,C3*%
X84467677Y-71900000D03*
D32*
X79467677Y-71900000D03*
%TD*%
D67*
%TO.C,D4*%
X96500000Y-124400000D03*
X96500000Y-121600000D03*
%TD*%
D41*
%TO.C,C37*%
X87200000Y-63325000D03*
X87200000Y-66275000D03*
%TD*%
D68*
%TO.C,U2*%
X111700000Y-119600000D03*
X111200000Y-119600000D03*
X110700000Y-119600000D03*
X110200000Y-119600000D03*
X109700000Y-119600000D03*
X109700000Y-115200000D03*
X110200000Y-115200000D03*
X110700000Y-115200000D03*
X111200000Y-115200000D03*
X111700000Y-115200000D03*
%TD*%
D69*
%TO.C,R20*%
X104875000Y-114900000D03*
X106525000Y-114900000D03*
%TD*%
D70*
%TO.C,D1*%
X115900000Y-120400000D03*
X114950000Y-120400000D03*
X114000000Y-120400000D03*
X114000000Y-118125000D03*
X114950000Y-118125000D03*
X115900000Y-118125000D03*
%TD*%
D47*
%TO.C,R14*%
X101000000Y-97700000D03*
X99350000Y-97700000D03*
%TD*%
D71*
%TO.C,C28*%
X122375000Y-69600000D03*
X119425000Y-69600000D03*
%TD*%
D39*
%TO.C,R23*%
X89000000Y-65910000D03*
X89000000Y-64890000D03*
%TD*%
D30*
%TO.C,R10*%
X113000000Y-92050000D03*
X113000000Y-90400000D03*
%TD*%
M02*
