%TF.GenerationSoftware,KiCad,Pcbnew,7.0.1-3b83917a11~172~ubuntu22.04.1*%
%TF.CreationDate,2023-04-06T21:51:21-06:00*%
%TF.ProjectId,gps-tracker,6770732d-7472-4616-936b-65722e6b6963,rev?*%
%TF.SameCoordinates,Original*%
%TF.FileFunction,Copper,L4,Bot*%
%TF.FilePolarity,Positive*%
%FSLAX46Y46*%
G04 Gerber Fmt 4.6, Leading zero omitted, Abs format (unit mm)*
G04 Created by KiCad (PCBNEW 7.0.1-3b83917a11~172~ubuntu22.04.1) date 2023-04-06 21:51:21*
%MOMM*%
%LPD*%
G01*
G04 APERTURE LIST*
G04 Aperture macros list*
%AMRoundRect*
0 Rectangle with rounded corners*
0 $1 Rounding radius*
0 $2 $3 $4 $5 $6 $7 $8 $9 X,Y pos of 4 corners*
0 Add a 4 corners polygon primitive as box body*
4,1,4,$2,$3,$4,$5,$6,$7,$8,$9,$2,$3,0*
0 Add four circle primitives for the rounded corners*
1,1,$1+$1,$2,$3*
1,1,$1+$1,$4,$5*
1,1,$1+$1,$6,$7*
1,1,$1+$1,$8,$9*
0 Add four rect primitives between the rounded corners*
20,1,$1+$1,$2,$3,$4,$5,0*
20,1,$1+$1,$4,$5,$6,$7,0*
20,1,$1+$1,$6,$7,$8,$9,0*
20,1,$1+$1,$8,$9,$2,$3,0*%
G04 Aperture macros list end*
%TA.AperFunction,SMDPad,CuDef*%
%ADD10R,0.400000X1.350000*%
%TD*%
%TA.AperFunction,ComponentPad*%
%ADD11C,1.408000*%
%TD*%
%TA.AperFunction,SMDPad,CuDef*%
%ADD12R,1.500000X1.550000*%
%TD*%
%TA.AperFunction,ComponentPad*%
%ADD13C,1.800000*%
%TD*%
%TA.AperFunction,SMDPad,CuDef*%
%ADD14RoundRect,0.250000X-0.650000X1.000000X-0.650000X-1.000000X0.650000X-1.000000X0.650000X1.000000X0*%
%TD*%
%TA.AperFunction,ComponentPad*%
%ADD15C,1.700000*%
%TD*%
%TA.AperFunction,ComponentPad*%
%ADD16R,1.700000X1.700000*%
%TD*%
%TA.AperFunction,ComponentPad*%
%ADD17O,1.700000X1.700000*%
%TD*%
%TA.AperFunction,ComponentPad*%
%ADD18R,1.000000X1.000000*%
%TD*%
%TA.AperFunction,ComponentPad*%
%ADD19C,1.000000*%
%TD*%
%TA.AperFunction,SMDPad,CuDef*%
%ADD20RoundRect,0.200000X-0.275000X0.200000X-0.275000X-0.200000X0.275000X-0.200000X0.275000X0.200000X0*%
%TD*%
%TA.AperFunction,ComponentPad*%
%ADD21R,2.000000X2.000000*%
%TD*%
%TA.AperFunction,ComponentPad*%
%ADD22C,2.000000*%
%TD*%
%TA.AperFunction,SMDPad,CuDef*%
%ADD23RoundRect,0.225000X0.225000X0.250000X-0.225000X0.250000X-0.225000X-0.250000X0.225000X-0.250000X0*%
%TD*%
%TA.AperFunction,SMDPad,CuDef*%
%ADD24RoundRect,0.140000X-0.140000X-0.170000X0.140000X-0.170000X0.140000X0.170000X-0.140000X0.170000X0*%
%TD*%
%TA.AperFunction,SMDPad,CuDef*%
%ADD25RoundRect,0.140000X0.170000X-0.140000X0.170000X0.140000X-0.170000X0.140000X-0.170000X-0.140000X0*%
%TD*%
%TA.AperFunction,SMDPad,CuDef*%
%ADD26RoundRect,0.218750X0.256250X-0.218750X0.256250X0.218750X-0.256250X0.218750X-0.256250X-0.218750X0*%
%TD*%
%TA.AperFunction,ComponentPad*%
%ADD27C,1.500000*%
%TD*%
%TA.AperFunction,SMDPad,CuDef*%
%ADD28RoundRect,0.135000X0.185000X-0.135000X0.185000X0.135000X-0.185000X0.135000X-0.185000X-0.135000X0*%
%TD*%
%TA.AperFunction,SMDPad,CuDef*%
%ADD29RoundRect,0.225000X-0.250000X0.225000X-0.250000X-0.225000X0.250000X-0.225000X0.250000X0.225000X0*%
%TD*%
%TA.AperFunction,SMDPad,CuDef*%
%ADD30RoundRect,0.250000X-0.650000X0.325000X-0.650000X-0.325000X0.650000X-0.325000X0.650000X0.325000X0*%
%TD*%
%TA.AperFunction,SMDPad,CuDef*%
%ADD31RoundRect,0.150000X-0.512500X-0.150000X0.512500X-0.150000X0.512500X0.150000X-0.512500X0.150000X0*%
%TD*%
%TA.AperFunction,SMDPad,CuDef*%
%ADD32R,2.000000X1.500000*%
%TD*%
%TA.AperFunction,SMDPad,CuDef*%
%ADD33RoundRect,0.243750X0.243750X0.456250X-0.243750X0.456250X-0.243750X-0.456250X0.243750X-0.456250X0*%
%TD*%
%TA.AperFunction,SMDPad,CuDef*%
%ADD34RoundRect,0.140000X0.140000X0.170000X-0.140000X0.170000X-0.140000X-0.170000X0.140000X-0.170000X0*%
%TD*%
%TA.AperFunction,SMDPad,CuDef*%
%ADD35RoundRect,0.200000X0.275000X-0.200000X0.275000X0.200000X-0.275000X0.200000X-0.275000X-0.200000X0*%
%TD*%
%TA.AperFunction,SMDPad,CuDef*%
%ADD36RoundRect,0.200000X0.200000X0.275000X-0.200000X0.275000X-0.200000X-0.275000X0.200000X-0.275000X0*%
%TD*%
%TA.AperFunction,SMDPad,CuDef*%
%ADD37RoundRect,0.150000X0.675000X0.150000X-0.675000X0.150000X-0.675000X-0.150000X0.675000X-0.150000X0*%
%TD*%
%TA.AperFunction,SMDPad,CuDef*%
%ADD38R,2.700000X3.800000*%
%TD*%
%TA.AperFunction,SMDPad,CuDef*%
%ADD39RoundRect,0.031500X0.143500X-0.173500X0.143500X0.173500X-0.143500X0.173500X-0.143500X-0.173500X0*%
%TD*%
%TA.AperFunction,SMDPad,CuDef*%
%ADD40RoundRect,0.031500X0.173500X0.143500X-0.173500X0.143500X-0.173500X-0.143500X0.173500X-0.143500X0*%
%TD*%
%TA.AperFunction,SMDPad,CuDef*%
%ADD41RoundRect,0.135000X-0.135000X-0.185000X0.135000X-0.185000X0.135000X0.185000X-0.135000X0.185000X0*%
%TD*%
%TA.AperFunction,SMDPad,CuDef*%
%ADD42RoundRect,0.135000X-0.185000X0.135000X-0.185000X-0.135000X0.185000X-0.135000X0.185000X0.135000X0*%
%TD*%
%TA.AperFunction,SMDPad,CuDef*%
%ADD43RoundRect,0.218750X0.218750X0.256250X-0.218750X0.256250X-0.218750X-0.256250X0.218750X-0.256250X0*%
%TD*%
%TA.AperFunction,SMDPad,CuDef*%
%ADD44R,1.676400X0.812800*%
%TD*%
%TA.AperFunction,SMDPad,CuDef*%
%ADD45RoundRect,0.140000X-0.170000X0.140000X-0.170000X-0.140000X0.170000X-0.140000X0.170000X0.140000X0*%
%TD*%
%TA.AperFunction,SMDPad,CuDef*%
%ADD46RoundRect,0.250000X-0.325000X-0.650000X0.325000X-0.650000X0.325000X0.650000X-0.325000X0.650000X0*%
%TD*%
%TA.AperFunction,SMDPad,CuDef*%
%ADD47RoundRect,0.135000X0.135000X0.185000X-0.135000X0.185000X-0.135000X-0.185000X0.135000X-0.185000X0*%
%TD*%
%TA.AperFunction,SMDPad,CuDef*%
%ADD48RoundRect,0.225000X-0.225000X-0.250000X0.225000X-0.250000X0.225000X0.250000X-0.225000X0.250000X0*%
%TD*%
%TA.AperFunction,SMDPad,CuDef*%
%ADD49RoundRect,0.250000X0.300000X0.300000X-0.300000X0.300000X-0.300000X-0.300000X0.300000X-0.300000X0*%
%TD*%
%TA.AperFunction,SMDPad,CuDef*%
%ADD50RoundRect,0.250000X-0.300000X0.300000X-0.300000X-0.300000X0.300000X-0.300000X0.300000X0.300000X0*%
%TD*%
%TA.AperFunction,SMDPad,CuDef*%
%ADD51RoundRect,0.225000X0.250000X-0.225000X0.250000X0.225000X-0.250000X0.225000X-0.250000X-0.225000X0*%
%TD*%
%TA.AperFunction,SMDPad,CuDef*%
%ADD52RoundRect,0.125000X0.125000X-0.625000X0.125000X0.625000X-0.125000X0.625000X-0.125000X-0.625000X0*%
%TD*%
%TA.AperFunction,SMDPad,CuDef*%
%ADD53RoundRect,0.125000X0.625000X-0.125000X0.625000X0.125000X-0.625000X0.125000X-0.625000X-0.125000X0*%
%TD*%
%TA.AperFunction,SMDPad,CuDef*%
%ADD54RoundRect,0.250000X0.300000X-0.300000X0.300000X0.300000X-0.300000X0.300000X-0.300000X-0.300000X0*%
%TD*%
%TA.AperFunction,SMDPad,CuDef*%
%ADD55R,0.300000X1.400000*%
%TD*%
%TA.AperFunction,SMDPad,CuDef*%
%ADD56RoundRect,0.200000X-0.200000X-0.275000X0.200000X-0.275000X0.200000X0.275000X-0.200000X0.275000X0*%
%TD*%
%TA.AperFunction,SMDPad,CuDef*%
%ADD57RoundRect,0.150000X0.150000X-0.512500X0.150000X0.512500X-0.150000X0.512500X-0.150000X-0.512500X0*%
%TD*%
%TA.AperFunction,SMDPad,CuDef*%
%ADD58RoundRect,0.250000X0.325000X0.650000X-0.325000X0.650000X-0.325000X-0.650000X0.325000X-0.650000X0*%
%TD*%
%TA.AperFunction,ViaPad*%
%ADD59C,0.700000*%
%TD*%
%TA.AperFunction,ViaPad*%
%ADD60C,0.600000*%
%TD*%
%TA.AperFunction,ViaPad*%
%ADD61C,1.000000*%
%TD*%
%TA.AperFunction,Conductor*%
%ADD62C,0.150000*%
%TD*%
%TA.AperFunction,Conductor*%
%ADD63C,0.500000*%
%TD*%
%TA.AperFunction,Conductor*%
%ADD64C,0.250000*%
%TD*%
%TA.AperFunction,Conductor*%
%ADD65C,1.000000*%
%TD*%
G04 APERTURE END LIST*
D10*
%TO.P,J1,1,VBUS*%
%TO.N,VBUS*%
X112400000Y-122825000D03*
%TO.P,J1,2,D-*%
%TO.N,/USB-*%
X111750000Y-122825000D03*
%TO.P,J1,3,D+*%
%TO.N,/USB+*%
X111100000Y-122825000D03*
%TO.P,J1,4,ID*%
%TO.N,unconnected-(J1-ID-Pad4)*%
X110450000Y-122825000D03*
%TO.P,J1,5,GND*%
%TO.N,GND*%
X109800000Y-122825000D03*
D11*
%TO.P,J1,P$6*%
%TO.N,N/C*%
X113600000Y-122800000D03*
%TO.P,J1,P$7*%
X108600000Y-122800000D03*
D12*
%TO.P,J1,P$10*%
X112100000Y-125500000D03*
%TO.P,J1,P$11*%
X110100000Y-125500000D03*
D13*
%TO.P,J1,P$12*%
X114600000Y-125500000D03*
D12*
X114150000Y-125500000D03*
%TO.P,J1,P$13*%
X108050000Y-125500000D03*
D13*
X107600000Y-125500000D03*
%TD*%
D14*
%TO.P,D9,1,K*%
%TO.N,/BATT_DIRECT*%
X96000000Y-115100000D03*
%TO.P,D9,2,A*%
%TO.N,GND*%
X96000000Y-119100000D03*
%TD*%
D15*
%TO.P,J4,3,Pin_3*%
%TO.N,unconnected-(J4-Pin_3-Pad3)*%
X79700000Y-111845000D03*
%TO.P,J4,2,Pin_2*%
%TO.N,GND*%
X79700000Y-114385000D03*
D16*
%TO.P,J4,1,Pin_1*%
%TO.N,Net-(J4-Pin_1)*%
X79700000Y-116925000D03*
%TD*%
%TO.P,J6,1,Pin_1*%
%TO.N,VCC*%
X102900000Y-85300000D03*
D17*
%TO.P,J6,2,Pin_2*%
%TO.N,Net-(J6-Pin_2)*%
X100360000Y-85300000D03*
%TO.P,J6,3,Pin_3*%
%TO.N,/BATT_DIRECT*%
X97820000Y-85300000D03*
%TD*%
D18*
%TO.P,J7,1,Pin_1*%
%TO.N,GND*%
X74600000Y-107125000D03*
D19*
%TO.P,J7,2,Pin_2*%
%TO.N,Net-(J4-Pin_1)*%
X74600000Y-105875000D03*
%TD*%
D16*
%TO.P,J3,1,Pin_1*%
%TO.N,GND*%
X84500000Y-87925000D03*
D17*
%TO.P,J3,2,Pin_2*%
%TO.N,VCC*%
X84500000Y-90465000D03*
%TO.P,J3,3,Pin_3*%
%TO.N,/SCREEN_DC*%
X84500000Y-93005000D03*
%TO.P,J3,4,Pin_4*%
%TO.N,/SCREEN_CS*%
X84500000Y-95545000D03*
%TO.P,J3,5,Pin_5*%
%TO.N,/SCK*%
X84500000Y-98085000D03*
%TO.P,J3,6,Pin_6*%
%TO.N,/MOSI*%
X84500000Y-100625000D03*
%TO.P,J3,7,Pin_7*%
%TO.N,/SCREEN_RESETN*%
X84500000Y-103165000D03*
%TO.P,J3,8,Pin_8*%
%TO.N,/SCREEN_BLK*%
X84500000Y-105705000D03*
%TD*%
D20*
%TO.P,R13,1*%
%TO.N,VCC*%
X114700000Y-90350000D03*
%TO.P,R13,2*%
%TO.N,/SDA*%
X114700000Y-92000000D03*
%TD*%
D21*
%TO.P,C16,1*%
%TO.N,+BATT*%
X89632323Y-102800000D03*
D22*
%TO.P,C16,2*%
%TO.N,GND*%
X94632323Y-102800000D03*
%TD*%
D23*
%TO.P,C34,1*%
%TO.N,GND*%
X82950000Y-65700000D03*
%TO.P,C34,2*%
%TO.N,+BATT*%
X81400000Y-65700000D03*
%TD*%
D24*
%TO.P,C4,1*%
%TO.N,GND*%
X113925000Y-105400000D03*
%TO.P,C4,2*%
%TO.N,VCC*%
X114885000Y-105400000D03*
%TD*%
D25*
%TO.P,C30,1*%
%TO.N,/RADIO_PWR*%
X89200000Y-60280000D03*
%TO.P,C30,2*%
%TO.N,GND*%
X89200000Y-59320000D03*
%TD*%
D26*
%TO.P,D6,1,K*%
%TO.N,Net-(D6-K)*%
X98700000Y-112887500D03*
%TO.P,D6,2,A*%
%TO.N,VBUS*%
X98700000Y-111312500D03*
%TD*%
D16*
%TO.P,J5,1,Pin_1*%
%TO.N,VCC*%
X96520000Y-90300000D03*
D17*
%TO.P,J5,2,Pin_2*%
%TO.N,GND*%
X99060000Y-90300000D03*
%TO.P,J5,3,Pin_3*%
%TO.N,/SWDIO*%
X101600000Y-90300000D03*
%TO.P,J5,4,Pin_4*%
%TO.N,/BOOT0*%
X104140000Y-90300000D03*
%TD*%
D27*
%TO.P,SW6,3,C*%
%TO.N,/BATT_DIRECT*%
X88000000Y-121900000D03*
%TO.P,SW6,2,B*%
%TO.N,+BATT*%
X90500000Y-121900000D03*
%TO.P,SW6,1,A*%
%TO.N,unconnected-(SW6-A-Pad1)*%
X93000000Y-121900000D03*
%TD*%
D25*
%TO.P,C29,1*%
%TO.N,VCC*%
X117800000Y-66200000D03*
%TO.P,C29,2*%
%TO.N,GND*%
X117800000Y-65240000D03*
%TD*%
D28*
%TO.P,R4,1*%
%TO.N,Net-(U2-~{CTS})*%
X108300000Y-117900000D03*
%TO.P,R4,2*%
%TO.N,/~{DTR}*%
X108300000Y-116880000D03*
%TD*%
D24*
%TO.P,C1,1*%
%TO.N,/~{DTR}*%
X117100000Y-116400000D03*
%TO.P,C1,2*%
%TO.N,Net-(U1-NRST)*%
X118060000Y-116400000D03*
%TD*%
D29*
%TO.P,C12,1*%
%TO.N,GND*%
X106200000Y-110650000D03*
%TO.P,C12,2*%
%TO.N,/VBATT_DIV*%
X106200000Y-112200000D03*
%TD*%
D30*
%TO.P,C15,1*%
%TO.N,GND*%
X99000000Y-122625000D03*
%TO.P,C15,2*%
%TO.N,+BATT*%
X99000000Y-125575000D03*
%TD*%
D23*
%TO.P,C5,1*%
%TO.N,VCC*%
X115200000Y-107700000D03*
%TO.P,C5,2*%
%TO.N,GND*%
X113650000Y-107700000D03*
%TD*%
D25*
%TO.P,C25,1*%
%TO.N,/RADIO_PWR*%
X88100000Y-60280000D03*
%TO.P,C25,2*%
%TO.N,GND*%
X88100000Y-59320000D03*
%TD*%
D28*
%TO.P,R2,1*%
%TO.N,Net-(U2-RXD)*%
X111400000Y-113700000D03*
%TO.P,R2,2*%
%TO.N,/USART_TX*%
X111400000Y-112680000D03*
%TD*%
D25*
%TO.P,C24,1*%
%TO.N,VCC*%
X117800000Y-66200000D03*
%TO.P,C24,2*%
%TO.N,GND*%
X117800000Y-65240000D03*
%TD*%
D28*
%TO.P,R24,1*%
%TO.N,Net-(U7-TXEN)*%
X89000000Y-63920000D03*
%TO.P,R24,2*%
%TO.N,Net-(U7-DIO2)*%
X89000000Y-62900000D03*
%TD*%
D24*
%TO.P,C32,1*%
%TO.N,GND*%
X113925000Y-106400000D03*
%TO.P,C32,2*%
%TO.N,VCC*%
X114885000Y-106400000D03*
%TD*%
D31*
%TO.P,U9,1,VIN*%
%TO.N,+BATT*%
X81625000Y-64100000D03*
%TO.P,U9,2,GND*%
%TO.N,GND*%
X81625000Y-63150000D03*
%TO.P,U9,3,EN*%
%TO.N,Net-(U9-EN)*%
X81625000Y-62200000D03*
%TO.P,U9,4,NC*%
%TO.N,unconnected-(U9-NC-Pad4)*%
X83900000Y-62200000D03*
%TO.P,U9,5,VOUT*%
%TO.N,/RADIO_PWR*%
X83900000Y-64100000D03*
%TD*%
D32*
%TO.P,SW2,1,1*%
%TO.N,GND*%
X118100000Y-125650000D03*
X125100000Y-125650000D03*
%TO.P,SW2,2,2*%
%TO.N,Net-(R25-Pad1)*%
X118100000Y-121150000D03*
X125100000Y-121150000D03*
%TD*%
D29*
%TO.P,C7,1*%
%TO.N,GND*%
X88200000Y-88550000D03*
%TO.P,C7,2*%
%TO.N,VCC*%
X88200000Y-90100000D03*
%TD*%
D33*
%TO.P,TH1,1*%
%TO.N,/BATT_DIRECT*%
X87300000Y-119800000D03*
%TO.P,TH1,2*%
%TO.N,Net-(J4-Pin_1)*%
X85425000Y-119800000D03*
%TD*%
D34*
%TO.P,C20,2*%
%TO.N,GND*%
X146780000Y-85900000D03*
%TO.P,C20,1*%
%TO.N,VCC*%
X147740000Y-85900000D03*
%TD*%
D31*
%TO.P,U4,1,VIN*%
%TO.N,+BATT*%
X100225000Y-107500000D03*
%TO.P,U4,2,GND*%
%TO.N,GND*%
X100225000Y-106550000D03*
%TO.P,U4,3,EN*%
%TO.N,Net-(U4-EN)*%
X100225000Y-105600000D03*
%TO.P,U4,4,NC*%
%TO.N,unconnected-(U4-NC-Pad4)*%
X102500000Y-105600000D03*
%TO.P,U4,5,VOUT*%
%TO.N,VCC*%
X102500000Y-107500000D03*
%TD*%
D25*
%TO.P,C14,1*%
%TO.N,VCC*%
X104000000Y-107480000D03*
%TO.P,C14,2*%
%TO.N,GND*%
X104000000Y-106520000D03*
%TD*%
D35*
%TO.P,R17,1*%
%TO.N,/VBATT_DIV*%
X104600000Y-112250000D03*
%TO.P,R17,2*%
%TO.N,GND*%
X104600000Y-110600000D03*
%TD*%
D16*
%TO.P,J2,1,Pin_1*%
%TO.N,GND*%
X88800000Y-95100000D03*
D17*
%TO.P,J2,2,Pin_2*%
%TO.N,VCC*%
X91340000Y-95100000D03*
%TO.P,J2,3,Pin_3*%
%TO.N,+BATT*%
X93880000Y-95100000D03*
%TO.P,J2,4,Pin_4*%
%TO.N,Net-(J2-Pin_4)*%
X96420000Y-95100000D03*
%TO.P,J2,5,Pin_5*%
%TO.N,Net-(J2-Pin_5)*%
X98960000Y-95100000D03*
%TO.P,J2,6,Pin_6*%
%TO.N,/SCL*%
X101500000Y-95100000D03*
%TO.P,J2,7,Pin_7*%
%TO.N,/SDA*%
X104040000Y-95100000D03*
%TD*%
D36*
%TO.P,R12,1*%
%TO.N,/AUX1*%
X97925000Y-97700000D03*
%TO.P,R12,2*%
%TO.N,Net-(J2-Pin_4)*%
X96275000Y-97700000D03*
%TD*%
D20*
%TO.P,R16,1*%
%TO.N,+BATT*%
X103000000Y-110550000D03*
%TO.P,R16,2*%
%TO.N,/VBATT_DIV*%
X103000000Y-112200000D03*
%TD*%
D37*
%TO.P,U8,1,TEMP*%
%TO.N,GND*%
X105850000Y-116590000D03*
%TO.P,U8,2,PROG*%
%TO.N,Net-(U8-PROG)*%
X105850000Y-117860000D03*
%TO.P,U8,3,GND*%
%TO.N,GND*%
X105850000Y-119130000D03*
%TO.P,U8,4,VCC*%
%TO.N,VBUS*%
X105850000Y-120400000D03*
%TO.P,U8,5,BAT*%
%TO.N,/BATT_DIRECT*%
X100600000Y-120400000D03*
%TO.P,U8,6,~{STDBY}*%
%TO.N,/~{STDBY}*%
X100600000Y-119130000D03*
%TO.P,U8,7,~{CHRG}*%
%TO.N,/~{CHRG}*%
X100600000Y-117860000D03*
%TO.P,U8,8,CE*%
%TO.N,Net-(U8-CE)*%
X100600000Y-116590000D03*
D38*
%TO.P,U8,~*%
%TO.N,N/C*%
X103225000Y-118495000D03*
%TD*%
D39*
%TO.P,U5,12,NC3*%
%TO.N,unconnected-(U5-NC3-Pad12)*%
X148790000Y-87140000D03*
%TO.P,U5,11,NC2*%
%TO.N,unconnected-(U5-NC2-Pad11)*%
X148290000Y-87140000D03*
D40*
%TO.P,U5,10,VDD_IO*%
%TO.N,VCC*%
X147780000Y-87150000D03*
%TO.P,U5,9,VDD*%
X147780000Y-87650000D03*
%TO.P,U5,8,GND*%
%TO.N,GND*%
X147780000Y-88150000D03*
%TO.P,U5,7,INT/DRDY/SDO*%
%TO.N,/MISO*%
X147780000Y-88650000D03*
D39*
%TO.P,U5,6,GND*%
%TO.N,GND*%
X148290000Y-88660000D03*
%TO.P,U5,5,C1*%
%TO.N,Net-(U5-C1)*%
X148790000Y-88660000D03*
D40*
%TO.P,U5,4,SDA/SDI/SDO*%
%TO.N,/MOSI*%
X149300000Y-88650000D03*
%TO.P,U5,3,CS*%
%TO.N,/COMPASS_CS*%
X149300000Y-88150000D03*
%TO.P,U5,2,NC1*%
%TO.N,unconnected-(U5-NC1-Pad2)*%
X149300000Y-87650000D03*
%TO.P,U5,1,SCL/SPC*%
%TO.N,/SCK*%
X149300000Y-87150000D03*
%TD*%
D41*
%TO.P,R11,1*%
%TO.N,Net-(D2-K)*%
X147090000Y-107200000D03*
%TO.P,R11,2*%
%TO.N,GND*%
X148110000Y-107200000D03*
%TD*%
D42*
%TO.P,R18,1*%
%TO.N,Net-(D6-K)*%
X98900000Y-114090000D03*
%TO.P,R18,2*%
%TO.N,/~{STDBY}*%
X98900000Y-115110000D03*
%TD*%
D43*
%TO.P,D2,1,K*%
%TO.N,Net-(D2-K)*%
X145800000Y-107200000D03*
%TO.P,D2,2,A*%
%TO.N,/LED*%
X144225000Y-107200000D03*
%TD*%
D44*
%TO.P,U7,1,GND*%
%TO.N,GND*%
X90700000Y-74908000D03*
%TO.P,U7,2,GND*%
X90700000Y-73638000D03*
%TO.P,U7,3,GND*%
X90700000Y-72368000D03*
%TO.P,U7,4,GND*%
X90700000Y-66780000D03*
%TO.P,U7,5,GND*%
X90700000Y-65510000D03*
%TO.P,U7,6,RXEN*%
%TO.N,Net-(U7-RXEN)*%
X90700000Y-64240000D03*
%TO.P,U7,7,TXEN*%
%TO.N,Net-(U7-TXEN)*%
X90700000Y-62970000D03*
%TO.P,U7,8,DIO2*%
%TO.N,Net-(U7-DIO2)*%
X90700000Y-61700000D03*
%TO.P,U7,9,VCC*%
%TO.N,/RADIO_PWR*%
X90700000Y-60430000D03*
%TO.P,U7,10,GND*%
%TO.N,GND*%
X90700000Y-59160000D03*
%TO.P,U7,11,GND*%
X90700000Y-57890000D03*
%TO.P,U7,12,GND*%
X104670000Y-57890000D03*
%TO.P,U7,13,DIO1*%
%TO.N,/RADIO_DIO1*%
X104670000Y-59160000D03*
%TO.P,U7,14,BUSY*%
%TO.N,/RADIO_BUSY*%
X104670000Y-60430000D03*
%TO.P,U7,15,NRST*%
%TO.N,unconnected-(U7-NRST-Pad15)*%
X104670000Y-61700000D03*
%TO.P,U7,16,MISO*%
%TO.N,/MISO*%
X104670000Y-62970000D03*
%TO.P,U7,17,MOSI*%
%TO.N,/MOSI*%
X104670000Y-64240000D03*
%TO.P,U7,18,SCK*%
%TO.N,/SCK*%
X104670000Y-65510000D03*
%TO.P,U7,19,NSS*%
%TO.N,/RADIO_CS*%
X104670000Y-66780000D03*
%TO.P,U7,20,GND*%
%TO.N,GND*%
X104670000Y-72368000D03*
%TO.P,U7,21,ANT*%
%TO.N,unconnected-(U7-ANT-Pad21)*%
X104670000Y-73638000D03*
%TO.P,U7,22,GND*%
%TO.N,GND*%
X104670000Y-74908000D03*
%TD*%
D45*
%TO.P,C17,2*%
%TO.N,GND*%
X146640000Y-88060000D03*
%TO.P,C17,1*%
%TO.N,VCC*%
X146640000Y-87100000D03*
%TD*%
D21*
%TO.P,C19,1*%
%TO.N,VCC*%
X77600000Y-89167677D03*
D22*
%TO.P,C19,2*%
%TO.N,GND*%
X77600000Y-84167677D03*
%TD*%
D29*
%TO.P,C22,1*%
%TO.N,GND*%
X119100000Y-65000000D03*
%TO.P,C22,2*%
%TO.N,VCC*%
X119100000Y-66550000D03*
%TD*%
D34*
%TO.P,C18,2*%
%TO.N,GND*%
X147980000Y-89800000D03*
%TO.P,C18,1*%
%TO.N,Net-(U5-C1)*%
X148940000Y-89800000D03*
%TD*%
D46*
%TO.P,C26,1*%
%TO.N,GND*%
X102425000Y-103600000D03*
%TO.P,C26,2*%
%TO.N,VCC*%
X105375000Y-103600000D03*
%TD*%
D45*
%TO.P,C33,1*%
%TO.N,GND*%
X107500000Y-119400000D03*
%TO.P,C33,2*%
%TO.N,VBUS*%
X107500000Y-120360000D03*
%TD*%
D47*
%TO.P,R1,1*%
%TO.N,/SW1*%
X77000000Y-102100000D03*
%TO.P,R1,2*%
%TO.N,Net-(R1-Pad2)*%
X75980000Y-102100000D03*
%TD*%
D28*
%TO.P,R25,1*%
%TO.N,Net-(R25-Pad1)*%
X118100000Y-119700000D03*
%TO.P,R25,2*%
%TO.N,Net-(U1-NRST)*%
X118100000Y-118680000D03*
%TD*%
D48*
%TO.P,C23,1*%
%TO.N,GND*%
X87025000Y-61600000D03*
%TO.P,C23,2*%
%TO.N,/RADIO_PWR*%
X88575000Y-61600000D03*
%TD*%
D47*
%TO.P,R15,1*%
%TO.N,+BATT*%
X101010000Y-104200000D03*
%TO.P,R15,2*%
%TO.N,Net-(U4-EN)*%
X99990000Y-104200000D03*
%TD*%
D49*
%TO.P,D8,1,A1*%
%TO.N,/RADIO_PWR*%
X83500000Y-78500000D03*
%TO.P,D8,2,A2*%
%TO.N,GND*%
X80700000Y-78500000D03*
%TD*%
D50*
%TO.P,D3,1,A1*%
%TO.N,/BATT_DIRECT*%
X93000000Y-117000000D03*
%TO.P,D3,2,A2*%
%TO.N,GND*%
X93000000Y-119800000D03*
%TD*%
D51*
%TO.P,C2,1*%
%TO.N,GND*%
X98600000Y-120975000D03*
%TO.P,C2,2*%
%TO.N,/BATT_DIRECT*%
X98600000Y-119425000D03*
%TD*%
D25*
%TO.P,C6,1*%
%TO.N,GND*%
X113100000Y-116460000D03*
%TO.P,C6,2*%
%TO.N,VCC*%
X113100000Y-115500000D03*
%TD*%
%TO.P,C36,1*%
%TO.N,/RADIO_PWR*%
X85400000Y-64180000D03*
%TO.P,C36,2*%
%TO.N,GND*%
X85400000Y-63220000D03*
%TD*%
D49*
%TO.P,D5,1,A1*%
%TO.N,VCC*%
X105200000Y-101100000D03*
%TO.P,D5,2,A2*%
%TO.N,GND*%
X102400000Y-101100000D03*
%TD*%
D41*
%TO.P,R8,1*%
%TO.N,Net-(U2-TXD)*%
X107590000Y-101700000D03*
%TO.P,R8,2*%
%TO.N,/USART_RX*%
X108610000Y-101700000D03*
%TD*%
D23*
%TO.P,C21,1*%
%TO.N,GND*%
X106350000Y-122100000D03*
%TO.P,C21,2*%
%TO.N,VBUS*%
X104800000Y-122100000D03*
%TD*%
D20*
%TO.P,R21,1*%
%TO.N,Net-(U6-V_BCKP)*%
X117400000Y-71250000D03*
%TO.P,R21,2*%
%TO.N,Net-(J6-Pin_2)*%
X117400000Y-72900000D03*
%TD*%
D41*
%TO.P,R3,1*%
%TO.N,/SW2*%
X145180000Y-102000000D03*
%TO.P,R3,2*%
%TO.N,Net-(R3-Pad2)*%
X146200000Y-102000000D03*
%TD*%
D29*
%TO.P,C11,1*%
%TO.N,GND*%
X105300000Y-105925000D03*
%TO.P,C11,2*%
%TO.N,VCC*%
X105300000Y-107475000D03*
%TD*%
D25*
%TO.P,C9,1*%
%TO.N,VCC*%
X86800000Y-76900000D03*
%TO.P,C9,2*%
%TO.N,GND*%
X86800000Y-75940000D03*
%TD*%
D42*
%TO.P,R19,1*%
%TO.N,Net-(D7-K)*%
X100200000Y-114090000D03*
%TO.P,R19,2*%
%TO.N,/~{CHRG}*%
X100200000Y-115110000D03*
%TD*%
%TO.P,R5,1*%
%TO.N,/SW3*%
X119300000Y-118700000D03*
%TO.P,R5,2*%
%TO.N,Net-(R5-Pad2)*%
X119300000Y-119720000D03*
%TD*%
D29*
%TO.P,C10,2*%
%TO.N,+BATT*%
X98400000Y-107550000D03*
%TO.P,C10,1*%
%TO.N,GND*%
X98400000Y-106000000D03*
%TD*%
D25*
%TO.P,C27,1*%
%TO.N,Net-(U6-V_BCKP)*%
X117900000Y-69600000D03*
%TO.P,C27,2*%
%TO.N,GND*%
X117900000Y-68640000D03*
%TD*%
D26*
%TO.P,D7,2,A*%
%TO.N,VBUS*%
X100400000Y-111312500D03*
%TO.P,D7,1,K*%
%TO.N,Net-(D7-K)*%
X100400000Y-112887500D03*
%TD*%
D52*
%TO.P,U1,1,PB9*%
%TO.N,/COMPASS_CS*%
X117200000Y-103875000D03*
%TO.P,U1,2,PC14*%
%TO.N,/SW4*%
X116400000Y-103875000D03*
%TO.P,U1,3,PC15*%
%TO.N,unconnected-(U1-PC15-Pad3)*%
X115600000Y-103875000D03*
%TO.P,U1,4,VDD*%
%TO.N,VCC*%
X114800000Y-103875000D03*
%TO.P,U1,5,VSS*%
%TO.N,GND*%
X114000000Y-103875000D03*
%TO.P,U1,6,NRST*%
%TO.N,Net-(U1-NRST)*%
X113200000Y-103875000D03*
%TO.P,U1,7,PA0*%
%TO.N,/SW1*%
X112400000Y-103875000D03*
%TO.P,U1,8,PA1*%
%TO.N,/SW3*%
X111600000Y-103875000D03*
D53*
%TO.P,U1,9,PA2*%
%TO.N,/USART_TX*%
X110225000Y-102500000D03*
%TO.P,U1,10,PA3*%
%TO.N,/USART_RX*%
X110225000Y-101700000D03*
%TO.P,U1,11,PA4*%
%TO.N,/MOSI*%
X110225000Y-100900000D03*
%TO.P,U1,12,PA5*%
%TO.N,/GPS_TX*%
X110225000Y-100100000D03*
%TO.P,U1,13,PA6*%
%TO.N,/VBATT_DIV*%
X110225000Y-99300000D03*
%TO.P,U1,14,PA7*%
%TO.N,/SCREEN_BLK*%
X110225000Y-98500000D03*
%TO.P,U1,15,PB0*%
%TO.N,/GPS_RX*%
X110225000Y-97700000D03*
%TO.P,U1,16,PB1*%
%TO.N,/AUX2*%
X110225000Y-96900000D03*
D52*
%TO.P,U1,17,PB2*%
%TO.N,/MISO*%
X111600000Y-95525000D03*
%TO.P,U1,18,PA8*%
%TO.N,/SCREEN_RESETN*%
X112400000Y-95525000D03*
%TO.P,U1,19,PA9/NC*%
%TO.N,/SCL*%
X113200000Y-95525000D03*
%TO.P,U1,20,PC6*%
%TO.N,/RADIO_RXEN*%
X114000000Y-95525000D03*
%TO.P,U1,21,PA10/NC*%
%TO.N,/SDA*%
X114800000Y-95525000D03*
%TO.P,U1,22,PA11/PA9*%
%TO.N,/SCREEN_DC*%
X115600000Y-95525000D03*
%TO.P,U1,23,PA12/PA10*%
%TO.N,/SCREEN_CS*%
X116400000Y-95525000D03*
%TO.P,U1,24,PA13*%
%TO.N,/SWDIO*%
X117200000Y-95525000D03*
D53*
%TO.P,U1,25,PA14*%
%TO.N,/BOOT0*%
X118575000Y-96900000D03*
%TO.P,U1,26,PA15*%
%TO.N,/RADIO_CS*%
X118575000Y-97700000D03*
%TO.P,U1,27,PB3*%
%TO.N,/AUX1*%
X118575000Y-98500000D03*
%TO.P,U1,28,PB4*%
%TO.N,/LED*%
X118575000Y-99300000D03*
%TO.P,U1,29,PB5*%
%TO.N,/SW2*%
X118575000Y-100100000D03*
%TO.P,U1,30,PB6*%
%TO.N,/RADIO_DIO1*%
X118575000Y-100900000D03*
%TO.P,U1,31,PB7*%
%TO.N,/RADIO_BUSY*%
X118575000Y-101700000D03*
%TO.P,U1,32,PB8*%
%TO.N,/SCK*%
X118575000Y-102500000D03*
%TD*%
D47*
%TO.P,R6,1*%
%TO.N,VBUS*%
X103500000Y-121800000D03*
%TO.P,R6,2*%
%TO.N,Net-(U8-CE)*%
X102480000Y-121800000D03*
%TD*%
D28*
%TO.P,R22,1*%
%TO.N,+BATT*%
X79800000Y-63700000D03*
%TO.P,R22,2*%
%TO.N,Net-(U9-EN)*%
X79800000Y-62680000D03*
%TD*%
D42*
%TO.P,R7,1*%
%TO.N,/SW4*%
X97200000Y-111680000D03*
%TO.P,R7,2*%
%TO.N,Net-(R7-Pad2)*%
X97200000Y-112700000D03*
%TD*%
D25*
%TO.P,C8,1*%
%TO.N,VCC*%
X86900000Y-89800000D03*
%TO.P,C8,2*%
%TO.N,GND*%
X86900000Y-88840000D03*
%TD*%
D51*
%TO.P,C35,2*%
%TO.N,VCC*%
X145340000Y-87350000D03*
%TO.P,C35,1*%
%TO.N,GND*%
X145340000Y-88900000D03*
%TD*%
D21*
%TO.P,C3,1*%
%TO.N,/RADIO_PWR*%
X84467677Y-71900000D03*
D22*
%TO.P,C3,2*%
%TO.N,GND*%
X79467677Y-71900000D03*
%TD*%
D54*
%TO.P,D4,1,A1*%
%TO.N,+BATT*%
X96500000Y-124400000D03*
%TO.P,D4,2,A2*%
%TO.N,GND*%
X96500000Y-121600000D03*
%TD*%
D30*
%TO.P,C37,1*%
%TO.N,GND*%
X87200000Y-63325000D03*
%TO.P,C37,2*%
%TO.N,/RADIO_PWR*%
X87200000Y-66275000D03*
%TD*%
D55*
%TO.P,U2,1,UD+*%
%TO.N,/USB+*%
X111700000Y-119600000D03*
%TO.P,U2,2,UD-*%
%TO.N,/USB-*%
X111200000Y-119600000D03*
%TO.P,U2,3,GND*%
%TO.N,GND*%
X110700000Y-119600000D03*
%TO.P,U2,4,~{RTS}*%
%TO.N,/BOOT0*%
X110200000Y-119600000D03*
%TO.P,U2,5,~{CTS}*%
%TO.N,Net-(U2-~{CTS})*%
X109700000Y-119600000D03*
%TO.P,U2,6,TNOW*%
%TO.N,/~{DTR}*%
X109700000Y-115200000D03*
%TO.P,U2,7,VCC*%
%TO.N,VCC*%
X110200000Y-115200000D03*
%TO.P,U2,8,TXD*%
%TO.N,Net-(U2-TXD)*%
X110700000Y-115200000D03*
%TO.P,U2,9,RXD*%
%TO.N,Net-(U2-RXD)*%
X111200000Y-115200000D03*
%TO.P,U2,10,V3*%
%TO.N,VCC*%
X111700000Y-115200000D03*
%TD*%
D56*
%TO.P,R20,1*%
%TO.N,Net-(U8-PROG)*%
X104875000Y-114900000D03*
%TO.P,R20,2*%
%TO.N,GND*%
X106525000Y-114900000D03*
%TD*%
D57*
%TO.P,D1,1,IO1*%
%TO.N,/USB+*%
X115900000Y-120400000D03*
%TO.P,D1,2,GND*%
%TO.N,GND*%
X114950000Y-120400000D03*
%TO.P,D1,3,IO2*%
%TO.N,/USB-*%
X114000000Y-120400000D03*
%TO.P,D1,4,IO3*%
%TO.N,unconnected-(D1-IO3-Pad4)*%
X114000000Y-118125000D03*
%TO.P,D1,5,REF*%
%TO.N,VBUS*%
X114950000Y-118125000D03*
%TO.P,D1,6,IO4*%
%TO.N,unconnected-(D1-IO4-Pad6)*%
X115900000Y-118125000D03*
%TD*%
D36*
%TO.P,R14,1*%
%TO.N,/AUX2*%
X101000000Y-97700000D03*
%TO.P,R14,2*%
%TO.N,Net-(J2-Pin_5)*%
X99350000Y-97700000D03*
%TD*%
D58*
%TO.P,C28,1*%
%TO.N,GND*%
X122375000Y-69600000D03*
%TO.P,C28,2*%
%TO.N,Net-(U6-V_BCKP)*%
X119425000Y-69600000D03*
%TD*%
D28*
%TO.P,R23,1*%
%TO.N,/RADIO_RXEN*%
X89000000Y-65910000D03*
%TO.P,R23,2*%
%TO.N,Net-(U7-RXEN)*%
X89000000Y-64890000D03*
%TD*%
D20*
%TO.P,R10,2*%
%TO.N,/SCL*%
X113000000Y-92050000D03*
%TO.P,R10,1*%
%TO.N,VCC*%
X113000000Y-90400000D03*
%TD*%
D59*
%TO.N,/SCK*%
X108457868Y-86300000D03*
%TO.N,/MOSI*%
X106051000Y-90800000D03*
%TO.N,/MISO*%
X106900000Y-89900000D03*
%TO.N,/SCK*%
X108200000Y-83400000D03*
%TO.N,/RADIO_BUSY*%
X109174500Y-82673452D03*
X109100000Y-85600000D03*
X122500000Y-101700000D03*
X122500000Y-85100000D03*
%TO.N,/RADIO_DIO1*%
X109674500Y-83455300D03*
X110230202Y-85625500D03*
X121600000Y-100800000D03*
X121600000Y-85525500D03*
%TO.N,/GPS_TX*%
X106800000Y-100400000D03*
X117900000Y-59400000D03*
X107200000Y-94700000D03*
X110400000Y-94700000D03*
X110600000Y-83600000D03*
%TO.N,/GPS_RX*%
X107625500Y-88900000D03*
X111900000Y-83400000D03*
X118000000Y-62000000D03*
X110899834Y-88225500D03*
X107774500Y-97423665D03*
%TO.N,VCC*%
X115800000Y-83500000D03*
X115700000Y-84800000D03*
%TO.N,/RADIO_RXEN*%
X89100000Y-66900000D03*
%TO.N,/SCL*%
X89100000Y-74400000D03*
X85400000Y-74300000D03*
%TO.N,/RADIO_RXEN*%
X94900000Y-81700000D03*
X94900000Y-93200000D03*
X88000000Y-81600000D03*
%TO.N,VCC*%
X86100000Y-84200000D03*
%TO.N,/SDA*%
X84000000Y-81900000D03*
X89080149Y-82274500D03*
%TO.N,/SW1*%
X79500000Y-102200000D03*
X79500000Y-108700000D03*
X110800000Y-109000000D03*
X110800000Y-106900000D03*
%TO.N,GND*%
X102700000Y-106550000D03*
X101500000Y-106550000D03*
%TO.N,/SW4*%
X116500000Y-109100000D03*
X116400000Y-105300000D03*
X96500000Y-110800000D03*
X96685611Y-108725500D03*
%TO.N,/RADIO_CS*%
X116500000Y-86874500D03*
X117000000Y-97900000D03*
X107600000Y-86600000D03*
X107511276Y-66923743D03*
%TO.N,/MISO*%
X106625500Y-95412669D03*
X106900000Y-62900000D03*
%TO.N,/MOSI*%
X106051000Y-99700000D03*
X106100000Y-64300000D03*
%TO.N,/COMPASS_CS*%
X149100000Y-103800000D03*
X150400000Y-89400000D03*
%TO.N,/SW3*%
X111500000Y-105300000D03*
X111500000Y-109700000D03*
%TO.N,Net-(U1-NRST)*%
X112800000Y-110400000D03*
X112962254Y-105417989D03*
X118100000Y-115400000D03*
X118100000Y-110400000D03*
%TO.N,Net-(R7-Pad2)*%
X97500000Y-113800000D03*
%TO.N,/BOOT0*%
X118600000Y-95900000D03*
X118600000Y-87600000D03*
X105100000Y-86900000D03*
%TO.N,/SWDIO*%
X117100000Y-88300000D03*
X117200000Y-94000000D03*
%TO.N,/BATT_DIRECT*%
X95900000Y-113100000D03*
%TO.N,Net-(R1-Pad2)*%
X75000000Y-102000000D03*
%TO.N,GND*%
X71400000Y-95100000D03*
%TO.N,/SCREEN_BLK*%
X87900000Y-97900000D03*
%TO.N,/SCREEN_RESETN*%
X86200000Y-94100000D03*
%TO.N,/SCK*%
X108560064Y-99274500D03*
X111500000Y-102200000D03*
%TO.N,/SCREEN_CS*%
X110259600Y-95974500D03*
X116300000Y-96900000D03*
%TO.N,Net-(J2-Pin_5)*%
X100213508Y-97043780D03*
%TO.N,Net-(J2-Pin_4)*%
X95200000Y-97500000D03*
%TO.N,/SDA*%
X89100000Y-86600000D03*
%TO.N,/SCL*%
X89900000Y-87900000D03*
X112000000Y-92600000D03*
X112600000Y-94274000D03*
%TO.N,/SDA*%
X114700000Y-94100000D03*
X115700000Y-92200000D03*
%TO.N,/SCL*%
X101500001Y-92625500D03*
%TO.N,Net-(R3-Pad2)*%
X146200000Y-103100000D03*
%TO.N,GND*%
X150300000Y-102100000D03*
X148000000Y-106200000D03*
%TO.N,/LED*%
X143600000Y-99300000D03*
X143900000Y-105900000D03*
%TO.N,/SW3*%
X119300000Y-117600000D03*
X119300000Y-110100000D03*
%TO.N,/BOOT0*%
X114000000Y-97474500D03*
%TO.N,/AUX1*%
X111834635Y-98319184D03*
%TO.N,/BOOT0*%
X111000000Y-117300000D03*
%TO.N,GND*%
X119800000Y-125650000D03*
X102500000Y-125600000D03*
%TO.N,Net-(R5-Pad2)*%
X120200000Y-120000000D03*
%TO.N,/~{DTR}*%
X116900000Y-115400000D03*
X108900000Y-111800000D03*
X116900000Y-111800000D03*
X108900000Y-114900000D03*
%TO.N,GND*%
X105200000Y-109600000D03*
%TO.N,Net-(U2-TXD)*%
X108000000Y-102700000D03*
X108100000Y-113700000D03*
D60*
%TO.N,/USART_TX*%
X110475500Y-112697080D03*
D59*
X110300000Y-103300000D03*
%TO.N,VBUS*%
X113700000Y-121600000D03*
%TO.N,/VBATT_DIV*%
X107400000Y-112200000D03*
X107774500Y-99753215D03*
%TO.N,VBUS*%
X106100000Y-113300000D03*
%TO.N,/SDA*%
X104100000Y-92200000D03*
%TO.N,VCC*%
X112969085Y-89374500D03*
X114649728Y-89374500D03*
%TO.N,/AUX1*%
X108864526Y-98063677D03*
%TO.N,GND*%
X144300000Y-88900000D03*
%TO.N,VCC*%
X144200000Y-87300000D03*
%TO.N,GND*%
X114000000Y-116400000D03*
%TO.N,VCC*%
X114000000Y-115500000D03*
X115200000Y-108700000D03*
%TO.N,GND*%
X113600000Y-108700000D03*
%TO.N,VCC*%
X102700000Y-108300000D03*
X106600000Y-107500000D03*
D61*
%TO.N,+BATT*%
X89632323Y-110100000D03*
X89632323Y-107600000D03*
X81300000Y-67400000D03*
D59*
%TO.N,GND*%
X86300000Y-75100000D03*
%TO.N,VCC*%
X85700000Y-77800000D03*
%TO.N,/RADIO_PWR*%
X84950500Y-60400000D03*
X87300000Y-60400000D03*
%TO.N,Net-(U6-V_BCKP)*%
X117100000Y-69600000D03*
%TO.N,VCC*%
X116900000Y-66200000D03*
%TO.N,GND*%
X116900000Y-65100000D03*
X107100000Y-118600000D03*
X91600000Y-120200000D03*
%TO.N,VBUS*%
X107000000Y-121187636D03*
X113136589Y-118983905D03*
D60*
%TO.N,/USB-*%
X111600000Y-120800000D03*
X110100000Y-121200000D03*
%TO.N,/USB+*%
X110966223Y-121724500D03*
X112600000Y-120900000D03*
%TD*%
D62*
%TO.N,/BOOT0*%
X116164533Y-87351499D02*
X105551499Y-87351499D01*
X116413034Y-87600000D02*
X116164533Y-87351499D01*
X118600000Y-87600000D02*
X116413034Y-87600000D01*
X105551499Y-87351499D02*
X105100000Y-86900000D01*
%TO.N,Net-(J6-Pin_2)*%
X115937966Y-84174500D02*
X101485500Y-84174500D01*
X117400000Y-72900000D02*
X117400000Y-82712466D01*
X117400000Y-82712466D02*
X115937966Y-84174500D01*
X101485500Y-84174500D02*
X100360000Y-85300000D01*
%TO.N,/MOSI*%
X106051000Y-100679249D02*
X106051000Y-99700000D01*
X106271751Y-100900000D02*
X106051000Y-100679249D01*
%TO.N,/SCK*%
X123600000Y-86300000D02*
X108457868Y-86300000D01*
X147966188Y-85300000D02*
X124600000Y-85300000D01*
X149300000Y-86633812D02*
X147966188Y-85300000D01*
X124600000Y-85300000D02*
X123600000Y-86300000D01*
X149300000Y-87150000D02*
X149300000Y-86633812D01*
%TO.N,+BATT*%
X89682323Y-110050000D02*
X102500000Y-110050000D01*
X103000000Y-110550000D02*
X102500000Y-110050000D01*
%TO.N,GND*%
X118100000Y-125650000D02*
X125100000Y-125650000D01*
%TO.N,/RADIO_BUSY*%
X116549000Y-84951000D02*
X116125000Y-85375000D01*
X110468168Y-85051000D02*
X109824000Y-85051000D01*
X116125000Y-85375000D02*
X110792168Y-85375000D01*
%TO.N,/SWDIO*%
X110190411Y-88122457D02*
X110661868Y-87651000D01*
%TO.N,/RADIO_BUSY*%
X109824000Y-85051000D02*
X109500000Y-85375000D01*
%TO.N,/SWDIO*%
X101600000Y-90300000D02*
X103777543Y-88122457D01*
X103777543Y-88122457D02*
X110190411Y-88122457D01*
%TO.N,/RADIO_CS*%
X107600000Y-86600000D02*
X107874500Y-86874500D01*
%TO.N,/SWDIO*%
X110661868Y-87651000D02*
X116040476Y-87651000D01*
%TO.N,/RADIO_CS*%
X107874500Y-86874500D02*
X116500000Y-86874500D01*
%TO.N,/RADIO_BUSY*%
X110792168Y-85375000D02*
X110468168Y-85051000D01*
X122500000Y-85100000D02*
X122351000Y-84951000D01*
%TO.N,/SWDIO*%
X116040476Y-87651000D02*
X116689476Y-88300000D01*
%TO.N,/RADIO_BUSY*%
X122351000Y-84951000D02*
X116549000Y-84951000D01*
%TO.N,/RADIO_DIO1*%
X110400000Y-85800000D02*
X121325500Y-85800000D01*
X121325500Y-85800000D02*
X121600000Y-85525500D01*
%TO.N,/SWDIO*%
X116689476Y-88300000D02*
X117100000Y-88300000D01*
%TO.N,/MOSI*%
X149300000Y-88650000D02*
X149445000Y-88795000D01*
X149445000Y-88795000D02*
X149445000Y-90121188D01*
X149445000Y-90121188D02*
X148541188Y-91025000D01*
X148541188Y-91025000D02*
X106276000Y-91025000D01*
X106276000Y-91025000D02*
X106051000Y-90800000D01*
%TO.N,VCC*%
X113000000Y-89405415D02*
X112969085Y-89374500D01*
%TO.N,/MISO*%
X109700000Y-89900000D02*
X106900000Y-89900000D01*
X115800000Y-88800000D02*
X110800000Y-88800000D01*
X116575000Y-89575000D02*
X115800000Y-88800000D01*
X146855000Y-89575000D02*
X116575000Y-89575000D01*
%TO.N,/GPS_RX*%
X107625500Y-88900000D02*
X110225334Y-88900000D01*
%TO.N,VCC*%
X114700000Y-90350000D02*
X114700000Y-89424772D01*
%TO.N,/MISO*%
X147780000Y-88650000D02*
X146855000Y-89575000D01*
%TO.N,/GPS_RX*%
X110225334Y-88900000D02*
X110899834Y-88225500D01*
%TO.N,VCC*%
X113000000Y-90400000D02*
X113000000Y-89405415D01*
X114700000Y-89424772D02*
X114649728Y-89374500D01*
%TO.N,/MISO*%
X110800000Y-88800000D02*
X109700000Y-89900000D01*
%TO.N,/SCK*%
X107800000Y-65510000D02*
X108600000Y-66310000D01*
%TO.N,/RADIO_DIO1*%
X109800000Y-83329800D02*
X109674500Y-83455300D01*
%TO.N,/RADIO_BUSY*%
X104670000Y-60430000D02*
X105730000Y-60430000D01*
%TO.N,/SCK*%
X108600000Y-83000000D02*
X108200000Y-83400000D01*
%TO.N,/RADIO_CS*%
X107367533Y-66780000D02*
X107511276Y-66923743D01*
%TO.N,/AUX1*%
X108528203Y-98400000D02*
X108864526Y-98063677D01*
%TO.N,/RADIO_CS*%
X104670000Y-66780000D02*
X107367533Y-66780000D01*
%TO.N,/RADIO_DIO1*%
X109800000Y-63858200D02*
X109800000Y-83329800D01*
%TO.N,/SCK*%
X107800000Y-65510000D02*
X104670000Y-65510000D01*
%TO.N,/AUX1*%
X98625000Y-98400000D02*
X108528203Y-98400000D01*
%TO.N,/SCK*%
X108600000Y-66310000D02*
X108600000Y-83000000D01*
%TO.N,/AUX1*%
X97925000Y-97700000D02*
X98625000Y-98400000D01*
%TO.N,/RADIO_DIO1*%
X105101800Y-59160000D02*
X109800000Y-63858200D01*
%TO.N,/RADIO_BUSY*%
X105730000Y-60430000D02*
X109174500Y-63874500D01*
X109174500Y-63874500D02*
X109174500Y-82673452D01*
X109325000Y-85375000D02*
X109500000Y-85375000D01*
X109325000Y-85375000D02*
X109100000Y-85600000D01*
X118575000Y-101700000D02*
X122500000Y-101700000D01*
%TO.N,/RADIO_DIO1*%
X121600000Y-100800000D02*
X118675000Y-100800000D01*
%TO.N,/VBATT_DIV*%
X109347030Y-99300000D02*
X108798030Y-99849000D01*
%TO.N,/GPS_TX*%
X110700000Y-83500000D02*
X110600000Y-83600000D01*
%TO.N,/MOSI*%
X110150500Y-100974500D02*
X106346251Y-100974500D01*
%TO.N,/GPS_TX*%
X110400000Y-94700000D02*
X107200000Y-94700000D01*
%TO.N,/MISO*%
X111475000Y-95400000D02*
X106638169Y-95400000D01*
%TO.N,/MOSI*%
X106346251Y-100974500D02*
X106271751Y-100900000D01*
%TO.N,/GPS_RX*%
X107898165Y-97300000D02*
X107774500Y-97423665D01*
%TO.N,/VBATT_DIV*%
X107870285Y-99849000D02*
X107774500Y-99753215D01*
%TO.N,/GPS_TX*%
X106800000Y-100400000D02*
X109925000Y-100400000D01*
%TO.N,/VBATT_DIV*%
X110200000Y-99300000D02*
X109347030Y-99300000D01*
%TO.N,/GPS_TX*%
X117900000Y-59400000D02*
X112800000Y-59400000D01*
X110700000Y-61500000D02*
X110700000Y-83500000D01*
%TO.N,/GPS_RX*%
X109380025Y-97300000D02*
X107898165Y-97300000D01*
X109780025Y-97700000D02*
X109380025Y-97300000D01*
%TO.N,/MISO*%
X106638169Y-95400000D02*
X106625500Y-95412669D01*
%TO.N,/VBATT_DIV*%
X108798030Y-99849000D02*
X107870285Y-99849000D01*
%TO.N,/GPS_TX*%
X112800000Y-59400000D02*
X110700000Y-61500000D01*
X109925000Y-100400000D02*
X110225000Y-100100000D01*
%TO.N,/GPS_RX*%
X113500000Y-62000000D02*
X118000000Y-62000000D01*
X111900000Y-83400000D02*
X111900000Y-63600000D01*
X111900000Y-63600000D02*
X113500000Y-62000000D01*
%TO.N,/AUX2*%
X101000000Y-97400000D02*
X101574500Y-96825500D01*
X101574500Y-96825500D02*
X110150500Y-96825500D01*
D63*
%TO.N,VCC*%
X116000000Y-67100000D02*
X116000000Y-83300000D01*
X116000000Y-83300000D02*
X115800000Y-83500000D01*
X116900000Y-66200000D02*
X116000000Y-67100000D01*
D62*
%TO.N,/RADIO_RXEN*%
X89000000Y-65910000D02*
X89000000Y-66800000D01*
X89000000Y-66800000D02*
X89100000Y-66900000D01*
%TO.N,/SCL*%
X89100000Y-74400000D02*
X85500000Y-74400000D01*
X85500000Y-74400000D02*
X85400000Y-74300000D01*
%TO.N,/RADIO_RXEN*%
X114000000Y-95525000D02*
X114000000Y-93900000D01*
%TO.N,/SCREEN_RESETN*%
X94312534Y-94025000D02*
X94462034Y-94174500D01*
%TO.N,/SCL*%
X89900000Y-87900000D02*
X90836024Y-87900000D01*
%TO.N,/SCREEN_RESETN*%
X94462034Y-94174500D02*
X95537966Y-94174500D01*
%TO.N,/SCL*%
X90836024Y-87900000D02*
X95561524Y-92625500D01*
%TO.N,/RADIO_RXEN*%
X113799500Y-93699500D02*
X95399500Y-93699500D01*
%TO.N,/SCREEN_DC*%
X84500000Y-93005000D02*
X85350000Y-92155000D01*
%TO.N,/SDA*%
X84000000Y-81900000D02*
X84374500Y-82274500D01*
%TO.N,/SCREEN_DC*%
X85350000Y-92155000D02*
X94667466Y-92155000D01*
X95712466Y-93200000D02*
X114612466Y-93200000D01*
%TO.N,/SCREEN_RESETN*%
X86275000Y-94025000D02*
X94312534Y-94025000D01*
%TO.N,/RADIO_RXEN*%
X114000000Y-93900000D02*
X113799500Y-93699500D01*
%TO.N,/SCREEN_DC*%
X94667466Y-92155000D02*
X95712466Y-93200000D01*
%TO.N,/SCREEN_RESETN*%
X111344975Y-94025000D02*
X112400000Y-95080025D01*
%TO.N,/SCL*%
X113200000Y-94874000D02*
X112600000Y-94274000D01*
%TO.N,/SCREEN_DC*%
X114612466Y-93200000D02*
X115600000Y-94187534D01*
%TO.N,/RADIO_RXEN*%
X95399500Y-93699500D02*
X94900000Y-93200000D01*
%TO.N,/SCREEN_DC*%
X115600000Y-94187534D02*
X115600000Y-95525000D01*
%TO.N,/SDA*%
X84374500Y-82274500D02*
X89080149Y-82274500D01*
%TO.N,/SCREEN_RESETN*%
X95537966Y-94174500D02*
X95687466Y-94025000D01*
X86200000Y-94100000D02*
X86275000Y-94025000D01*
X95687466Y-94025000D02*
X111344975Y-94025000D01*
%TO.N,/SCL*%
X95561524Y-92625500D02*
X101500001Y-92625500D01*
%TO.N,/RADIO_RXEN*%
X94900000Y-81700000D02*
X88100000Y-81700000D01*
X88100000Y-81700000D02*
X88000000Y-81600000D01*
%TO.N,VCC*%
X86100000Y-84200000D02*
X85600000Y-84200000D01*
X85600000Y-84200000D02*
X83100000Y-86700000D01*
X83100000Y-86700000D02*
X83100000Y-89065000D01*
X83100000Y-89065000D02*
X84500000Y-90465000D01*
%TO.N,/SW1*%
X110800000Y-109000000D02*
X104600000Y-109000000D01*
%TO.N,/SW4*%
X116500000Y-109100000D02*
X116200000Y-109400000D01*
%TO.N,/SW1*%
X104300000Y-109300000D02*
X80100000Y-109300000D01*
%TO.N,/SW4*%
X96860111Y-108900000D02*
X96685611Y-108725500D01*
%TO.N,/SW1*%
X104600000Y-109000000D02*
X104300000Y-109300000D01*
X80100000Y-109300000D02*
X79500000Y-108700000D01*
X79500000Y-102200000D02*
X77100000Y-102200000D01*
%TO.N,/SW4*%
X116200000Y-109400000D02*
X112600000Y-109400000D01*
X112600000Y-109400000D02*
X111600000Y-108400000D01*
X111600000Y-108400000D02*
X104776442Y-108400000D01*
X104776442Y-108400000D02*
X104276442Y-108900000D01*
X104276442Y-108900000D02*
X96860111Y-108900000D01*
%TO.N,/SW1*%
X110800000Y-106900000D02*
X112400000Y-105300000D01*
%TO.N,Net-(U1-NRST)*%
X112962254Y-104112746D02*
X112962254Y-105417989D01*
X113200000Y-103875000D02*
X112962254Y-104112746D01*
%TO.N,/SW1*%
X112400000Y-103875000D02*
X112400000Y-105300000D01*
%TO.N,/SW2*%
X145180000Y-102000000D02*
X145180000Y-100880000D01*
X145180000Y-100880000D02*
X144400000Y-100100000D01*
X144400000Y-100100000D02*
X118575000Y-100100000D01*
%TO.N,Net-(U4-EN)*%
X99990000Y-104200000D02*
X99990000Y-105365000D01*
X99990000Y-105365000D02*
X100225000Y-105600000D01*
%TO.N,+BATT*%
X101010000Y-104200000D02*
X100465000Y-103655000D01*
X99545000Y-103655000D02*
X97500000Y-105700000D01*
X100465000Y-103655000D02*
X99545000Y-103655000D01*
X97500000Y-106650000D02*
X98400000Y-107550000D01*
X97500000Y-105700000D02*
X97500000Y-106650000D01*
D63*
%TO.N,GND*%
X100225000Y-106550000D02*
X98950000Y-106550000D01*
X98950000Y-106550000D02*
X98400000Y-106000000D01*
X101500000Y-106550000D02*
X103970000Y-106550000D01*
X100225000Y-106550000D02*
X101500000Y-106550000D01*
D62*
%TO.N,/SW4*%
X116400000Y-105300000D02*
X116400000Y-103875000D01*
%TO.N,/SW3*%
X118900000Y-109700000D02*
X119300000Y-110100000D01*
X111500000Y-109700000D02*
X118900000Y-109700000D01*
%TO.N,Net-(U1-NRST)*%
X112800000Y-110400000D02*
X118100000Y-110400000D01*
%TO.N,/SW4*%
X97200000Y-111500000D02*
X96500000Y-110800000D01*
%TO.N,/RADIO_CS*%
X118575000Y-97700000D02*
X117200000Y-97700000D01*
X117200000Y-97700000D02*
X117000000Y-97900000D01*
%TO.N,/MISO*%
X106830000Y-62970000D02*
X106900000Y-62900000D01*
%TO.N,/SCREEN_CS*%
X84500000Y-95545000D02*
X85423780Y-96468780D01*
%TO.N,/MISO*%
X104670000Y-62970000D02*
X106830000Y-62970000D01*
%TO.N,/SCREEN_CS*%
X85423780Y-96468780D02*
X108131220Y-96468780D01*
X108131220Y-96468780D02*
X108625500Y-95974500D01*
X108625500Y-95974500D02*
X110259600Y-95974500D01*
%TO.N,/MOSI*%
X106100000Y-64300000D02*
X104730000Y-64300000D01*
%TO.N,/COMPASS_CS*%
X117200000Y-103875000D02*
X149025000Y-103875000D01*
X149025000Y-103875000D02*
X149100000Y-103800000D01*
X150400000Y-89400000D02*
X150400000Y-89070254D01*
X150400000Y-89070254D02*
X149479746Y-88150000D01*
X149479746Y-88150000D02*
X149300000Y-88150000D01*
%TO.N,/SW3*%
X111500000Y-105300000D02*
X111500000Y-103975000D01*
%TO.N,Net-(U1-NRST)*%
X118060000Y-116400000D02*
X118060000Y-115440000D01*
X118060000Y-115440000D02*
X118100000Y-115400000D01*
%TO.N,Net-(R7-Pad2)*%
X97500000Y-113000000D02*
X97200000Y-112700000D01*
X97500000Y-113800000D02*
X97500000Y-113000000D01*
%TO.N,/BOOT0*%
X118575000Y-96900000D02*
X118575000Y-95925000D01*
X118575000Y-95925000D02*
X118600000Y-95900000D01*
%TO.N,/SWDIO*%
X117200000Y-94000000D02*
X117200000Y-95525000D01*
%TO.N,/BATT_DIRECT*%
X96000000Y-115100000D02*
X96000000Y-113200000D01*
X96000000Y-113200000D02*
X95900000Y-113100000D01*
%TO.N,Net-(R1-Pad2)*%
X75000000Y-102000000D02*
X75880000Y-102000000D01*
%TO.N,/SCREEN_BLK*%
X87900000Y-97900000D02*
X88400000Y-97900000D01*
%TO.N,/SCK*%
X108560064Y-99160064D02*
X108560064Y-99274500D01*
%TO.N,/SCREEN_BLK*%
X89200000Y-98700000D02*
X110025000Y-98700000D01*
X110025000Y-98700000D02*
X110225000Y-98500000D01*
%TO.N,/SCK*%
X108500000Y-99100000D02*
X108560064Y-99160064D01*
%TO.N,/SCREEN_BLK*%
X88400000Y-97900000D02*
X89200000Y-98700000D01*
%TO.N,/SCK*%
X85515000Y-99100000D02*
X108500000Y-99100000D01*
X84500000Y-98085000D02*
X85515000Y-99100000D01*
%TO.N,/SCL*%
X112000000Y-92600000D02*
X111699501Y-92900499D01*
X111699501Y-92900499D02*
X101775000Y-92900499D01*
%TO.N,/SDA*%
X95900000Y-92200000D02*
X101113035Y-92200000D01*
X101737967Y-92051000D02*
X101886967Y-92200000D01*
X89100000Y-86600000D02*
X90300000Y-86600000D01*
X90300000Y-86600000D02*
X95900000Y-92200000D01*
X101113035Y-92200000D02*
X101262035Y-92051000D01*
X101262035Y-92051000D02*
X101737967Y-92051000D01*
%TO.N,/SCL*%
X101775000Y-92900499D02*
X101500001Y-92625500D01*
%TO.N,/SDA*%
X101886967Y-92200000D02*
X104100000Y-92200000D01*
%TO.N,/SCK*%
X111500000Y-102200000D02*
X118275000Y-102200000D01*
X118275000Y-102200000D02*
X118575000Y-102500000D01*
%TO.N,/AUX1*%
X112015451Y-98500000D02*
X111834635Y-98319184D01*
X118575000Y-98500000D02*
X112015451Y-98500000D01*
%TO.N,/MOSI*%
X106271751Y-100900000D02*
X105696751Y-100325000D01*
X105696751Y-100325000D02*
X84800000Y-100325000D01*
%TO.N,/BOOT0*%
X118575000Y-96900000D02*
X117112466Y-96900000D01*
X116537966Y-97474500D02*
X114000000Y-97474500D01*
%TO.N,/SCREEN_CS*%
X116300000Y-96900000D02*
X116300000Y-95625000D01*
%TO.N,/BOOT0*%
X117112466Y-96900000D02*
X116537966Y-97474500D01*
%TO.N,Net-(J2-Pin_5)*%
X99557288Y-97700000D02*
X100213508Y-97043780D01*
%TO.N,Net-(J2-Pin_4)*%
X96275000Y-97700000D02*
X95400000Y-97700000D01*
X95400000Y-97700000D02*
X95200000Y-97500000D01*
%TO.N,/SDA*%
X114700000Y-92000000D02*
X114125000Y-91425000D01*
X114125000Y-91425000D02*
X104875000Y-91425000D01*
X104875000Y-91425000D02*
X104100000Y-92200000D01*
%TO.N,/SCL*%
X113000000Y-92050000D02*
X112550000Y-92050000D01*
X112550000Y-92050000D02*
X112000000Y-92600000D01*
%TO.N,/SDA*%
X114800000Y-95525000D02*
X114800000Y-94200000D01*
X114800000Y-94200000D02*
X114700000Y-94100000D01*
X115700000Y-92200000D02*
X114900000Y-92200000D01*
%TO.N,Net-(R3-Pad2)*%
X146200000Y-103100000D02*
X146200000Y-102000000D01*
%TO.N,GND*%
X148110000Y-107200000D02*
X148110000Y-106310000D01*
X148110000Y-106310000D02*
X148000000Y-106200000D01*
%TO.N,Net-(D2-K)*%
X147090000Y-107200000D02*
X145800000Y-107200000D01*
%TO.N,/LED*%
X118575000Y-99300000D02*
X143600000Y-99300000D01*
X143900000Y-105900000D02*
X143900000Y-106875000D01*
%TO.N,/SW3*%
X119300000Y-118700000D02*
X119300000Y-117600000D01*
%TO.N,/USART_TX*%
X111400000Y-112680000D02*
X110492580Y-112680000D01*
X110492580Y-112680000D02*
X110475500Y-112697080D01*
%TO.N,/BOOT0*%
X110200000Y-118100000D02*
X111000000Y-117300000D01*
X110200000Y-119600000D02*
X110200000Y-118100000D01*
%TO.N,Net-(R5-Pad2)*%
X119300000Y-119720000D02*
X119920000Y-119720000D01*
X119920000Y-119720000D02*
X120200000Y-120000000D01*
%TO.N,Net-(R25-Pad1)*%
X118100000Y-121150000D02*
X125100000Y-121150000D01*
X118100000Y-119700000D02*
X118100000Y-121150000D01*
%TO.N,Net-(U1-NRST)*%
X118060000Y-116400000D02*
X118060000Y-118640000D01*
%TO.N,/~{DTR}*%
X117100000Y-116400000D02*
X117100000Y-115600000D01*
X117100000Y-115600000D02*
X116900000Y-115400000D01*
X108900000Y-111800000D02*
X116900000Y-111800000D01*
X109700000Y-115200000D02*
X109200000Y-115200000D01*
X109200000Y-115200000D02*
X108900000Y-114900000D01*
X108300000Y-116880000D02*
X108300000Y-116600000D01*
X108300000Y-116600000D02*
X109700000Y-115200000D01*
%TO.N,Net-(U2-~{CTS})*%
X109700000Y-119300000D02*
X108300000Y-117900000D01*
%TO.N,GND*%
X104600000Y-110600000D02*
X104600000Y-110200000D01*
X104600000Y-110200000D02*
X105200000Y-109600000D01*
%TO.N,Net-(U2-TXD)*%
X107590000Y-101700000D02*
X107590000Y-102290000D01*
X107590000Y-102290000D02*
X108000000Y-102700000D01*
X108100000Y-113700000D02*
X110050000Y-113700000D01*
X110050000Y-113700000D02*
X110700000Y-114350000D01*
X110700000Y-114350000D02*
X110700000Y-115200000D01*
%TO.N,/USART_RX*%
X110225000Y-101700000D02*
X108610000Y-101700000D01*
%TO.N,/USART_TX*%
X110300000Y-103300000D02*
X110300000Y-102575000D01*
%TO.N,Net-(U2-RXD)*%
X111200000Y-115200000D02*
X111200000Y-113900000D01*
X111200000Y-113900000D02*
X111400000Y-113700000D01*
D63*
%TO.N,VBUS*%
X106969986Y-121157622D02*
X107000000Y-121187636D01*
X106702378Y-121157622D02*
X106969986Y-121157622D01*
X106637636Y-121187636D02*
X107000000Y-121187636D01*
%TO.N,GND*%
X106350000Y-122100000D02*
X107147590Y-122100000D01*
%TO.N,VBUS*%
X105850000Y-120400000D02*
X106637636Y-121187636D01*
%TO.N,GND*%
X107147590Y-122100000D02*
X108300000Y-120947590D01*
X108300000Y-120947590D02*
X108300000Y-120086325D01*
X87025000Y-61600000D02*
X87025000Y-61225000D01*
X87025000Y-61225000D02*
X86200000Y-60400000D01*
X86200000Y-60400000D02*
X86200000Y-59900000D01*
X86200000Y-59900000D02*
X86780000Y-59320000D01*
X86780000Y-59320000D02*
X88100000Y-59320000D01*
%TO.N,/RADIO_PWR*%
X84950500Y-61825500D02*
X84950500Y-60400000D01*
X84962500Y-62577817D02*
X84962500Y-61837500D01*
X83900000Y-64100000D02*
X83900000Y-63640317D01*
X84962500Y-61837500D02*
X84950500Y-61825500D01*
X83900000Y-63640317D02*
X84962500Y-62577817D01*
X87980000Y-60400000D02*
X87300000Y-60400000D01*
X88100000Y-60280000D02*
X87980000Y-60400000D01*
D62*
%TO.N,VBUS*%
X112400000Y-122825000D02*
X112671000Y-122554000D01*
X112671000Y-122554000D02*
X112671000Y-122415195D01*
X112671000Y-122415195D02*
X113486195Y-121600000D01*
X113486195Y-121600000D02*
X113700000Y-121600000D01*
X114281802Y-119036028D02*
X113188712Y-119036028D01*
X114950000Y-118367830D02*
X114281802Y-119036028D01*
%TO.N,/USB+*%
X115900000Y-120157170D02*
X115255330Y-119512500D01*
%TO.N,VBUS*%
X113188712Y-119036028D02*
X113136589Y-118983905D01*
%TO.N,/USB+*%
X112600000Y-120288972D02*
X112600000Y-120900000D01*
X115255330Y-119512500D02*
X113376472Y-119512500D01*
X113376472Y-119512500D02*
X112600000Y-120288972D01*
%TO.N,/USB-*%
X110659856Y-121200000D02*
X110100000Y-121200000D01*
D63*
%TO.N,GND*%
X108300000Y-120850000D02*
X108300000Y-120086325D01*
D62*
%TO.N,/USB-*%
X111200000Y-120659856D02*
X110659856Y-121200000D01*
X111200000Y-119600000D02*
X111200000Y-120659856D01*
%TO.N,GND*%
X109800000Y-122825000D02*
X109575500Y-122600500D01*
X110033244Y-120525000D02*
X110625000Y-120525000D01*
X109575500Y-122600500D02*
X109575500Y-120982744D01*
X109575500Y-120982744D02*
X110033244Y-120525000D01*
X110625000Y-120525000D02*
X110700000Y-120450000D01*
X110700000Y-120450000D02*
X110700000Y-119600000D01*
D63*
X109800000Y-122350000D02*
X108300000Y-120850000D01*
D62*
%TO.N,/USB+*%
X111100000Y-122825000D02*
X111100000Y-121858277D01*
X111100000Y-121858277D02*
X110966223Y-121724500D01*
D63*
%TO.N,GND*%
X109800000Y-122825000D02*
X109800000Y-122350000D01*
D62*
%TO.N,/USB-*%
X112817256Y-121424500D02*
X113841756Y-120400000D01*
X112325500Y-121424500D02*
X112817256Y-121424500D01*
%TO.N,/USB+*%
X111700000Y-119600000D02*
X112600000Y-120500000D01*
%TO.N,/USB-*%
X111750000Y-122000000D02*
X112325500Y-121424500D01*
X111750000Y-122825000D02*
X111750000Y-122000000D01*
%TO.N,/USB+*%
X112600000Y-120500000D02*
X112600000Y-120900000D01*
%TO.N,/VBATT_DIV*%
X106200000Y-112200000D02*
X107400000Y-112200000D01*
%TO.N,VBUS*%
X100400000Y-111312500D02*
X98700000Y-111312500D01*
X106100000Y-113300000D02*
X102387500Y-113300000D01*
X102387500Y-113300000D02*
X100400000Y-111312500D01*
%TO.N,Net-(U8-PROG)*%
X104800000Y-114975000D02*
X104800000Y-117100000D01*
X104800000Y-117100000D02*
X105560000Y-117860000D01*
%TO.N,GND*%
X105850000Y-116590000D02*
X106525000Y-115915000D01*
X106525000Y-115915000D02*
X106525000Y-114900000D01*
X104600000Y-110600000D02*
X106150000Y-110600000D01*
%TO.N,/VBATT_DIV*%
X103000000Y-112200000D02*
X106200000Y-112200000D01*
%TO.N,Net-(U7-RXEN)*%
X90700000Y-64240000D02*
X89650000Y-64240000D01*
X89650000Y-64240000D02*
X89000000Y-64890000D01*
%TO.N,Net-(U7-TXEN)*%
X89000000Y-63920000D02*
X89950000Y-62970000D01*
%TO.N,Net-(U7-DIO2)*%
X90200000Y-61700000D02*
X89000000Y-62900000D01*
%TO.N,+BATT*%
X81625000Y-64100000D02*
X80200000Y-64100000D01*
X80200000Y-64100000D02*
X79800000Y-63700000D01*
%TO.N,Net-(U9-EN)*%
X79800000Y-62680000D02*
X80280000Y-62200000D01*
X80280000Y-62200000D02*
X81625000Y-62200000D01*
D63*
%TO.N,GND*%
X144300000Y-88900000D02*
X143400000Y-88000000D01*
X143400000Y-88000000D02*
X143400000Y-86800000D01*
X143400000Y-86800000D02*
X144100000Y-86100000D01*
X144100000Y-86100000D02*
X146580000Y-86100000D01*
X146580000Y-86100000D02*
X146780000Y-85900000D01*
X145340000Y-88900000D02*
X144300000Y-88900000D01*
%TO.N,VCC*%
X145340000Y-87350000D02*
X144250000Y-87350000D01*
X144250000Y-87350000D02*
X144200000Y-87300000D01*
D64*
%TO.N,GND*%
X147980000Y-89800000D02*
X148290000Y-89490000D01*
X148290000Y-89490000D02*
X148290000Y-88660000D01*
%TO.N,Net-(U5-C1)*%
X148790000Y-89650000D02*
X148790000Y-88660000D01*
%TO.N,GND*%
X147780000Y-88150000D02*
X148030456Y-88150000D01*
X148030456Y-88150000D02*
X148290000Y-88409544D01*
X148290000Y-88409544D02*
X148290000Y-88660000D01*
X146730000Y-88150000D02*
X147780000Y-88150000D01*
D63*
X145340000Y-88900000D02*
X145800000Y-88900000D01*
X145800000Y-88900000D02*
X146640000Y-88060000D01*
%TO.N,VCC*%
X147740000Y-85900000D02*
X147705000Y-85935000D01*
X147705000Y-85935000D02*
X147705000Y-87575000D01*
X145340000Y-87350000D02*
X147550000Y-87350000D01*
X147550000Y-87350000D02*
X147550000Y-87420000D01*
X147550000Y-87420000D02*
X147705000Y-87575000D01*
X147705000Y-87575000D02*
X147780000Y-87575000D01*
%TO.N,GND*%
X113100000Y-116460000D02*
X113940000Y-116460000D01*
X113940000Y-116460000D02*
X114000000Y-116400000D01*
%TO.N,VCC*%
X113100000Y-115500000D02*
X114000000Y-115500000D01*
X115200000Y-107700000D02*
X115200000Y-108700000D01*
%TO.N,GND*%
X113650000Y-107700000D02*
X113650000Y-108650000D01*
X113650000Y-108650000D02*
X113600000Y-108700000D01*
X113650000Y-107700000D02*
X114000000Y-107350000D01*
X114000000Y-107350000D02*
X114000000Y-103875000D01*
%TO.N,VCC*%
X115200000Y-107700000D02*
X114800000Y-107300000D01*
X114800000Y-107300000D02*
X114800000Y-103875000D01*
%TO.N,GND*%
X84625000Y-87925000D02*
X85250000Y-88550000D01*
X85250000Y-88550000D02*
X88200000Y-88550000D01*
%TO.N,VCC*%
X84500000Y-90465000D02*
X85265000Y-89700000D01*
X87800000Y-89700000D02*
X88200000Y-90100000D01*
X85265000Y-89700000D02*
X87800000Y-89700000D01*
X102500000Y-107500000D02*
X102500000Y-108100000D01*
X102500000Y-108100000D02*
X102700000Y-108300000D01*
X105300000Y-107475000D02*
X106575000Y-107475000D01*
X106575000Y-107475000D02*
X106600000Y-107500000D01*
%TO.N,GND*%
X102425000Y-103600000D02*
X102425000Y-101125000D01*
%TO.N,VCC*%
X105375000Y-103600000D02*
X105375000Y-101275000D01*
X105300000Y-107475000D02*
X106175000Y-106600000D01*
X106175000Y-106600000D02*
X106175000Y-104400000D01*
X106175000Y-104400000D02*
X105375000Y-103600000D01*
%TO.N,GND*%
X100225000Y-106550000D02*
X100715317Y-106550000D01*
X100715317Y-106550000D02*
X101437500Y-105827817D01*
X101437500Y-105827817D02*
X101437500Y-105222183D01*
X101437500Y-105222183D02*
X102425000Y-104234683D01*
X104000000Y-106520000D02*
X104705000Y-106520000D01*
X104705000Y-106520000D02*
X105300000Y-105925000D01*
%TO.N,VCC*%
X102500000Y-107500000D02*
X105275000Y-107500000D01*
D62*
%TO.N,+BATT*%
X89682323Y-110050000D02*
X89632323Y-110100000D01*
D63*
X98400000Y-107550000D02*
X100175000Y-107550000D01*
X98350000Y-107600000D02*
X89632323Y-107600000D01*
D65*
X81300000Y-67400000D02*
X81300000Y-65800000D01*
X81300000Y-65800000D02*
X81400000Y-65700000D01*
D64*
%TO.N,GND*%
X86800000Y-75940000D02*
X86800000Y-75600000D01*
X86800000Y-75600000D02*
X86300000Y-75100000D01*
%TO.N,VCC*%
X86800000Y-76900000D02*
X86600000Y-76900000D01*
X86600000Y-76900000D02*
X85700000Y-77800000D01*
D63*
%TO.N,GND*%
X79467677Y-71900000D02*
X79467677Y-77267677D01*
X79467677Y-77267677D02*
X80700000Y-78500000D01*
%TO.N,/RADIO_PWR*%
X84467677Y-71900000D02*
X84467677Y-77532323D01*
X84467677Y-77532323D02*
X83500000Y-78500000D01*
%TO.N,GND*%
X82950000Y-65700000D02*
X82950000Y-68417677D01*
X82950000Y-68417677D02*
X79467677Y-71900000D01*
%TO.N,/RADIO_PWR*%
X84467677Y-71900000D02*
X84467677Y-64667677D01*
X84467677Y-64667677D02*
X83900000Y-64100000D01*
%TO.N,GND*%
X87025000Y-61600000D02*
X87025000Y-63150000D01*
X90700000Y-59160000D02*
X88260000Y-59160000D01*
X88260000Y-59160000D02*
X88100000Y-59320000D01*
X87200000Y-63325000D02*
X85505000Y-63325000D01*
X85505000Y-63325000D02*
X85400000Y-63220000D01*
X82950000Y-65700000D02*
X82687500Y-65437500D01*
X82687500Y-65437500D02*
X82687500Y-63722183D01*
X82687500Y-63722183D02*
X82115317Y-63150000D01*
X82115317Y-63150000D02*
X81625000Y-63150000D01*
%TO.N,+BATT*%
X81625000Y-64100000D02*
X81625000Y-65475000D01*
X81625000Y-65475000D02*
X81400000Y-65700000D01*
%TO.N,/RADIO_PWR*%
X85400000Y-64180000D02*
X85400000Y-64475000D01*
X85400000Y-64475000D02*
X87200000Y-66275000D01*
X83900000Y-64100000D02*
X85320000Y-64100000D01*
X85320000Y-64100000D02*
X85400000Y-64180000D01*
X90700000Y-60430000D02*
X89745000Y-60430000D01*
X89745000Y-60430000D02*
X88575000Y-61600000D01*
X90700000Y-60430000D02*
X88250000Y-60430000D01*
X88250000Y-60430000D02*
X88100000Y-60280000D01*
%TO.N,Net-(U6-V_BCKP)*%
X117900000Y-69600000D02*
X117900000Y-70750000D01*
X117900000Y-70750000D02*
X117400000Y-71250000D01*
X117900000Y-69600000D02*
X117100000Y-69600000D01*
X119425000Y-69600000D02*
X117900000Y-69600000D01*
%TO.N,VCC*%
X117800000Y-66200000D02*
X118750000Y-66200000D01*
X118750000Y-66200000D02*
X119100000Y-66550000D01*
%TO.N,GND*%
X117800000Y-65240000D02*
X118860000Y-65240000D01*
X118860000Y-65240000D02*
X119100000Y-65000000D01*
%TO.N,VCC*%
X117800000Y-66200000D02*
X116900000Y-66200000D01*
%TO.N,GND*%
X117800000Y-65240000D02*
X117040000Y-65240000D01*
X117040000Y-65240000D02*
X116900000Y-65100000D01*
D62*
%TO.N,VCC*%
X113100000Y-115500000D02*
X112475000Y-116125000D01*
X112475000Y-116125000D02*
X110325000Y-116125000D01*
X110325000Y-116125000D02*
X110200000Y-116000000D01*
X110200000Y-116000000D02*
X110200000Y-115200000D01*
%TO.N,Net-(D6-K)*%
X98900000Y-114090000D02*
X98900000Y-113087500D01*
%TO.N,Net-(D7-K)*%
X100200000Y-114090000D02*
X100200000Y-113087500D01*
D63*
%TO.N,/BATT_DIRECT*%
X98425499Y-117525499D02*
X96000000Y-115100000D01*
X98425499Y-119250499D02*
X98425499Y-117525499D01*
D62*
%TO.N,/~{STDBY}*%
X100514670Y-119130000D02*
X98900000Y-117515330D01*
X98900000Y-117515330D02*
X98900000Y-115110000D01*
%TO.N,/~{CHRG}*%
X100514670Y-117860000D02*
X99550000Y-116895330D01*
X99550000Y-116895330D02*
X99550000Y-115760000D01*
X99550000Y-115760000D02*
X100200000Y-115110000D01*
%TO.N,Net-(U8-CE)*%
X102480000Y-121800000D02*
X101650000Y-120970000D01*
X101650000Y-120970000D02*
X101650000Y-117554670D01*
X101650000Y-117554670D02*
X100685330Y-116590000D01*
%TO.N,VBUS*%
X104800000Y-122100000D02*
X103800000Y-122100000D01*
X103800000Y-122100000D02*
X103500000Y-121800000D01*
D63*
%TO.N,+BATT*%
X96500000Y-124400000D02*
X97825000Y-124400000D01*
X97825000Y-124400000D02*
X99000000Y-125575000D01*
X90500000Y-121900000D02*
X93000000Y-124400000D01*
X93000000Y-124400000D02*
X96500000Y-124400000D01*
%TO.N,GND*%
X98600000Y-120975000D02*
X98600000Y-122225000D01*
X98600000Y-122225000D02*
X99000000Y-122625000D01*
X98600000Y-120975000D02*
X97875000Y-120975000D01*
X97875000Y-120975000D02*
X96000000Y-119100000D01*
%TO.N,/BATT_DIRECT*%
X100600000Y-120400000D02*
X99575000Y-120400000D01*
X99575000Y-120400000D02*
X98600000Y-119425000D01*
D62*
%TO.N,GND*%
X105935330Y-116590000D02*
X107100000Y-117754670D01*
X107100000Y-117754670D02*
X107100000Y-118600000D01*
D63*
X105850000Y-119130000D02*
X106570000Y-119130000D01*
X106570000Y-119130000D02*
X107100000Y-118600000D01*
D65*
X96000000Y-119100000D02*
X96000000Y-121100000D01*
X96000000Y-121100000D02*
X96500000Y-121600000D01*
X93000000Y-119800000D02*
X95300000Y-119800000D01*
X95300000Y-119800000D02*
X96000000Y-119100000D01*
X91600000Y-120200000D02*
X92600000Y-120200000D01*
X92600000Y-120200000D02*
X93000000Y-119800000D01*
%TO.N,/BATT_DIRECT*%
X93000000Y-117000000D02*
X94100000Y-117000000D01*
X94100000Y-117000000D02*
X96000000Y-115100000D01*
X87300000Y-119800000D02*
X87300000Y-121200000D01*
X87300000Y-121200000D02*
X88000000Y-121900000D01*
X87300000Y-119800000D02*
X90200000Y-119800000D01*
X90200000Y-119800000D02*
X93000000Y-117000000D01*
%TO.N,Net-(J4-Pin_1)*%
X79700000Y-116925000D02*
X82550000Y-116925000D01*
X82550000Y-116925000D02*
X85425000Y-119800000D01*
X79700000Y-116925000D02*
X78200000Y-115425000D01*
X78200000Y-115425000D02*
X78200000Y-108425000D01*
X78200000Y-108425000D02*
X75650000Y-105875000D01*
X75650000Y-105875000D02*
X74600000Y-105875000D01*
D63*
%TO.N,GND*%
X107500000Y-119400000D02*
X106120000Y-119400000D01*
X106120000Y-119400000D02*
X105850000Y-119130000D01*
X108300000Y-120086325D02*
X107613675Y-119400000D01*
X107613675Y-119400000D02*
X107500000Y-119400000D01*
%TO.N,VBUS*%
X105850000Y-120400000D02*
X105850000Y-121050000D01*
X105850000Y-121050000D02*
X104800000Y-122100000D01*
X105850000Y-120400000D02*
X107460000Y-120400000D01*
X107460000Y-120400000D02*
X107500000Y-120360000D01*
D62*
%TO.N,GND*%
X113100000Y-116460000D02*
X110700000Y-118860000D01*
X110700000Y-118860000D02*
X110700000Y-119600000D01*
%TO.N,VCC*%
X112800000Y-115200000D02*
X111700000Y-115200000D01*
%TO.N,/USB-*%
X111750000Y-122825000D02*
X111750000Y-120950000D01*
X111750000Y-120950000D02*
X111600000Y-120800000D01*
%TO.N,GND*%
X109800000Y-122825000D02*
X109800000Y-123500000D01*
X110100000Y-123800000D02*
X113913805Y-123800000D01*
X109800000Y-123500000D02*
X110100000Y-123800000D01*
X113913805Y-123800000D02*
X114950000Y-122763805D01*
X114950000Y-122763805D02*
X114950000Y-120400000D01*
%TD*%
%TA.AperFunction,Conductor*%
%TO.N,GND*%
G36*
X139810382Y-52411563D02*
G01*
X139852445Y-52442778D01*
X139877865Y-52488575D01*
X148966076Y-82513330D01*
X149031490Y-82729439D01*
X149036116Y-82778440D01*
X149021315Y-82825381D01*
X148989418Y-82862866D01*
X148916150Y-82920434D01*
X148887780Y-82937163D01*
X148796051Y-82975900D01*
X148764279Y-82984570D01*
X148689572Y-82994580D01*
X148657314Y-82998902D01*
X148640849Y-83000000D01*
X118084006Y-83000000D01*
X118017381Y-82980581D01*
X117971624Y-82928405D01*
X117961067Y-82859815D01*
X117965823Y-82823689D01*
X117965823Y-82823688D01*
X117976561Y-82742128D01*
X117976561Y-82742121D01*
X117980465Y-82712466D01*
X117976561Y-82682811D01*
X117975500Y-82666626D01*
X117975500Y-73806828D01*
X117991494Y-73745912D01*
X118035351Y-73700711D01*
X118110185Y-73655472D01*
X118230471Y-73535186D01*
X118256546Y-73492053D01*
X118318478Y-73389606D01*
X118369086Y-73227196D01*
X118373896Y-73174261D01*
X118375500Y-73156617D01*
X118375500Y-72643383D01*
X118369086Y-72572806D01*
X118369086Y-72572804D01*
X118318478Y-72410394D01*
X118230472Y-72264815D01*
X118230471Y-72264813D01*
X118128339Y-72162681D01*
X118096245Y-72107094D01*
X118096245Y-72042906D01*
X118128339Y-71987319D01*
X118230471Y-71885186D01*
X118230472Y-71885185D01*
X118318478Y-71739606D01*
X118369086Y-71577196D01*
X118375500Y-71506616D01*
X118375500Y-71393920D01*
X118388691Y-71338267D01*
X118410736Y-71311995D01*
X118409211Y-71310716D01*
X118418530Y-71299610D01*
X118450376Y-71261656D01*
X118457662Y-71253704D01*
X118461591Y-71249777D01*
X118480833Y-71225439D01*
X118483090Y-71222670D01*
X118515845Y-71183634D01*
X118531302Y-71165214D01*
X118531303Y-71165211D01*
X118532115Y-71164244D01*
X118542573Y-71147827D01*
X118543106Y-71146682D01*
X118543111Y-71146677D01*
X118574833Y-71078646D01*
X118576362Y-71075488D01*
X118610040Y-71008433D01*
X118610039Y-71008433D01*
X118616547Y-70995477D01*
X118619871Y-70997146D01*
X118640405Y-70960348D01*
X118699493Y-70927366D01*
X118767098Y-70930317D01*
X118780662Y-70934811D01*
X118780666Y-70934814D01*
X118947203Y-70989999D01*
X119049991Y-71000500D01*
X119800008Y-71000499D01*
X119902797Y-70989999D01*
X120069334Y-70934814D01*
X120218656Y-70842712D01*
X120342712Y-70718656D01*
X120434814Y-70569334D01*
X120489999Y-70402797D01*
X120500500Y-70300009D01*
X120500499Y-68899992D01*
X120489999Y-68797203D01*
X120434814Y-68630666D01*
X120342712Y-68481344D01*
X120342711Y-68481342D01*
X120218657Y-68357288D01*
X120069334Y-68265186D01*
X119902797Y-68210000D01*
X119800009Y-68199500D01*
X119049991Y-68199500D01*
X118947203Y-68210000D01*
X118780665Y-68265186D01*
X118631342Y-68357288D01*
X118507288Y-68481342D01*
X118415187Y-68630664D01*
X118373377Y-68756836D01*
X118339248Y-68809432D01*
X118283752Y-68838610D01*
X118221076Y-68836907D01*
X118170996Y-68822357D01*
X118149211Y-68820642D01*
X118134690Y-68819500D01*
X117665310Y-68819500D01*
X117653208Y-68820452D01*
X117629003Y-68822357D01*
X117560884Y-68842148D01*
X117517855Y-68846785D01*
X117475854Y-68836352D01*
X117364264Y-68786669D01*
X117189393Y-68749500D01*
X117189391Y-68749500D01*
X117010609Y-68749500D01*
X117010606Y-68749500D01*
X116900280Y-68772950D01*
X116845552Y-68772234D01*
X116796464Y-68748026D01*
X116762579Y-68705043D01*
X116750500Y-68651660D01*
X116750500Y-67462230D01*
X116759939Y-67414778D01*
X116786816Y-67374551D01*
X117118764Y-67042601D01*
X117156005Y-67017007D01*
X117164265Y-67013329D01*
X117164267Y-67013329D01*
X117281306Y-66961219D01*
X117331741Y-66950500D01*
X117417934Y-66950500D01*
X117452528Y-66955423D01*
X117529007Y-66977643D01*
X117565310Y-66980500D01*
X118034690Y-66980500D01*
X118034695Y-66980500D01*
X118047484Y-66979493D01*
X118053900Y-66978988D01*
X118107843Y-66986754D01*
X118153246Y-67016900D01*
X118181338Y-67063601D01*
X118187997Y-67083699D01*
X118277031Y-67228044D01*
X118396955Y-67347968D01*
X118541300Y-67437002D01*
X118541302Y-67437002D01*
X118541303Y-67437003D01*
X118702292Y-67490349D01*
X118801655Y-67500500D01*
X119398344Y-67500499D01*
X119497708Y-67490349D01*
X119658697Y-67437003D01*
X119690320Y-67417498D01*
X119803044Y-67347968D01*
X119922968Y-67228044D01*
X120012002Y-67083699D01*
X120013956Y-67077804D01*
X120065349Y-66922708D01*
X120075500Y-66823345D01*
X120075499Y-66276656D01*
X120074422Y-66266117D01*
X120065349Y-66177292D01*
X120012002Y-66016300D01*
X119922968Y-65871955D01*
X119803044Y-65752031D01*
X119658699Y-65662997D01*
X119497707Y-65609650D01*
X119398345Y-65599500D01*
X119247055Y-65599500D01*
X119204643Y-65592021D01*
X119167347Y-65570488D01*
X119164251Y-65567890D01*
X119147820Y-65557422D01*
X119078691Y-65525186D01*
X119075447Y-65523615D01*
X119007306Y-65489394D01*
X118988903Y-65482997D01*
X118938900Y-65472672D01*
X118914206Y-65467572D01*
X118910692Y-65466794D01*
X118836490Y-65449208D01*
X118817121Y-65447229D01*
X118740869Y-65449448D01*
X118737263Y-65449500D01*
X118182066Y-65449500D01*
X118147471Y-65444576D01*
X118117929Y-65435993D01*
X118070994Y-65422357D01*
X118058891Y-65421404D01*
X118034690Y-65419500D01*
X117565310Y-65419500D01*
X117547158Y-65420928D01*
X117529005Y-65422357D01*
X117472479Y-65438780D01*
X117452528Y-65444576D01*
X117417934Y-65449500D01*
X117331741Y-65449500D01*
X117281306Y-65438780D01*
X117164264Y-65386669D01*
X116989393Y-65349500D01*
X116989391Y-65349500D01*
X116810609Y-65349500D01*
X116810607Y-65349500D01*
X116635735Y-65386669D01*
X116472408Y-65459387D01*
X116327768Y-65564474D01*
X116208139Y-65697336D01*
X116118750Y-65852164D01*
X116095355Y-65924163D01*
X116065106Y-65973524D01*
X115514358Y-66524272D01*
X115500727Y-66536053D01*
X115481467Y-66550392D01*
X115449633Y-66588329D01*
X115442341Y-66596289D01*
X115438408Y-66600222D01*
X115419176Y-66624545D01*
X115416902Y-66627337D01*
X115367894Y-66685744D01*
X115357418Y-66702187D01*
X115325192Y-66771294D01*
X115323622Y-66774536D01*
X115289393Y-66842692D01*
X115282996Y-66861098D01*
X115267573Y-66935788D01*
X115266793Y-66939305D01*
X115249208Y-67013505D01*
X115247229Y-67032878D01*
X115249448Y-67109131D01*
X115249500Y-67112737D01*
X115249500Y-82792742D01*
X115241264Y-82837180D01*
X115217649Y-82875715D01*
X115142682Y-82958973D01*
X115100968Y-82989280D01*
X115050533Y-83000000D01*
X112722724Y-83000000D01*
X112660724Y-82983387D01*
X112615337Y-82938001D01*
X112615336Y-82937999D01*
X112591859Y-82897335D01*
X112507349Y-82803478D01*
X112483736Y-82764945D01*
X112475500Y-82720507D01*
X112475500Y-64789999D01*
X125859999Y-64789999D01*
X125865778Y-64907621D01*
X125883058Y-65024111D01*
X125911672Y-65138344D01*
X125943571Y-65227494D01*
X125951345Y-65249220D01*
X126001694Y-65355676D01*
X126020271Y-65386669D01*
X126062234Y-65456682D01*
X126132390Y-65551276D01*
X126211471Y-65638528D01*
X126298723Y-65717609D01*
X126393317Y-65787765D01*
X126418618Y-65802929D01*
X126494324Y-65848306D01*
X126600780Y-65898655D01*
X126711658Y-65938328D01*
X126825892Y-65966942D01*
X126942379Y-65984222D01*
X127060000Y-65990000D01*
X127177621Y-65984222D01*
X127294108Y-65966942D01*
X127408342Y-65938328D01*
X127519220Y-65898655D01*
X127625676Y-65848306D01*
X127726684Y-65787764D01*
X127821272Y-65717613D01*
X127908528Y-65638528D01*
X127987613Y-65551272D01*
X128057764Y-65456684D01*
X128118306Y-65355676D01*
X128168655Y-65249220D01*
X128208328Y-65138342D01*
X128236942Y-65024108D01*
X128254222Y-64907621D01*
X128260000Y-64790000D01*
X128254222Y-64672379D01*
X128236942Y-64555892D01*
X128208328Y-64441658D01*
X128168655Y-64330780D01*
X128118306Y-64224324D01*
X128057764Y-64123316D01*
X127987613Y-64028728D01*
X127987611Y-64028726D01*
X127987609Y-64028723D01*
X127908528Y-63941471D01*
X127821276Y-63862390D01*
X127726682Y-63792234D01*
X127676079Y-63761904D01*
X127625676Y-63731694D01*
X127519220Y-63681345D01*
X127519218Y-63681344D01*
X127408344Y-63641672D01*
X127294111Y-63613058D01*
X127177621Y-63595778D01*
X127060000Y-63589999D01*
X126942378Y-63595778D01*
X126825888Y-63613058D01*
X126711655Y-63641672D01*
X126600781Y-63681344D01*
X126494326Y-63731693D01*
X126393317Y-63792234D01*
X126298723Y-63862390D01*
X126211471Y-63941471D01*
X126132390Y-64028723D01*
X126062234Y-64123317D01*
X126001693Y-64224326D01*
X125951344Y-64330781D01*
X125911672Y-64441655D01*
X125883058Y-64555888D01*
X125865778Y-64672378D01*
X125859999Y-64789999D01*
X112475500Y-64789999D01*
X112475500Y-63889742D01*
X112484939Y-63842289D01*
X112511819Y-63802061D01*
X113702061Y-62611819D01*
X113742289Y-62584939D01*
X113789742Y-62575500D01*
X117318514Y-62575500D01*
X117368949Y-62586220D01*
X117410663Y-62616527D01*
X117427770Y-62635526D01*
X117572403Y-62740610D01*
X117572406Y-62740611D01*
X117572407Y-62740612D01*
X117597682Y-62751865D01*
X117735735Y-62813330D01*
X117910607Y-62850500D01*
X117910609Y-62850500D01*
X118089391Y-62850500D01*
X118089393Y-62850500D01*
X118264264Y-62813330D01*
X118264265Y-62813329D01*
X118264267Y-62813329D01*
X118427593Y-62740612D01*
X118572230Y-62635526D01*
X118691859Y-62502665D01*
X118781250Y-62347835D01*
X118836497Y-62177803D01*
X118855185Y-62000000D01*
X118836497Y-61822197D01*
X118795915Y-61697300D01*
X118781250Y-61652164D01*
X118691859Y-61497334D01*
X118572228Y-61364472D01*
X118427596Y-61259389D01*
X118264264Y-61186669D01*
X118089393Y-61149500D01*
X118089391Y-61149500D01*
X117910609Y-61149500D01*
X117910607Y-61149500D01*
X117735735Y-61186669D01*
X117572408Y-61259387D01*
X117427769Y-61364474D01*
X117410664Y-61383472D01*
X117368950Y-61413780D01*
X117318514Y-61424500D01*
X113545846Y-61424500D01*
X113529662Y-61423439D01*
X113500000Y-61419534D01*
X113499999Y-61419534D01*
X113481139Y-61422017D01*
X113462280Y-61424500D01*
X113349764Y-61439313D01*
X113328174Y-61448256D01*
X113209768Y-61497300D01*
X113123010Y-61563872D01*
X113122965Y-61563905D01*
X113089549Y-61589547D01*
X113071334Y-61613285D01*
X113060641Y-61625477D01*
X111525477Y-63160641D01*
X111513285Y-63171334D01*
X111476600Y-63199485D01*
X111474680Y-63196983D01*
X111449925Y-63216494D01*
X111389763Y-63226827D01*
X111331960Y-63207202D01*
X111290525Y-63162375D01*
X111275500Y-63103210D01*
X111275500Y-61789742D01*
X111284939Y-61742289D01*
X111311819Y-61702061D01*
X113002061Y-60011819D01*
X113042289Y-59984939D01*
X113089742Y-59975500D01*
X117218514Y-59975500D01*
X117268949Y-59986220D01*
X117310663Y-60016527D01*
X117327770Y-60035526D01*
X117472403Y-60140610D01*
X117635735Y-60213330D01*
X117810607Y-60250500D01*
X117810609Y-60250500D01*
X117989391Y-60250500D01*
X117989393Y-60250500D01*
X118164264Y-60213330D01*
X118164265Y-60213329D01*
X118164267Y-60213329D01*
X118327593Y-60140612D01*
X118472230Y-60035526D01*
X118591859Y-59902665D01*
X118681250Y-59747835D01*
X118736497Y-59577803D01*
X118755185Y-59400000D01*
X118736497Y-59222197D01*
X118681250Y-59052165D01*
X118681250Y-59052164D01*
X118591859Y-58897334D01*
X118472228Y-58764472D01*
X118327596Y-58659389D01*
X118164264Y-58586669D01*
X117989393Y-58549500D01*
X117989391Y-58549500D01*
X117810609Y-58549500D01*
X117810607Y-58549500D01*
X117635735Y-58586669D01*
X117472408Y-58659387D01*
X117327769Y-58764474D01*
X117310664Y-58783472D01*
X117268950Y-58813780D01*
X117218514Y-58824500D01*
X112845840Y-58824500D01*
X112829655Y-58823439D01*
X112799999Y-58819534D01*
X112770345Y-58823439D01*
X112770329Y-58823440D01*
X112635957Y-58841129D01*
X112623050Y-58850378D01*
X112509766Y-58897302D01*
X112423010Y-58963872D01*
X112422965Y-58963905D01*
X112389549Y-58989547D01*
X112371334Y-59013285D01*
X112360641Y-59025477D01*
X110325477Y-61060641D01*
X110313285Y-61071334D01*
X110289547Y-61089549D01*
X110263914Y-61122953D01*
X110263873Y-61123009D01*
X110231468Y-61165241D01*
X110215026Y-61186669D01*
X110197301Y-61209768D01*
X110139312Y-61349764D01*
X110123439Y-61470338D01*
X110123439Y-61470345D01*
X110119534Y-61499999D01*
X110123439Y-61529655D01*
X110124500Y-61545840D01*
X110124500Y-63069458D01*
X110110985Y-63125753D01*
X110073385Y-63169776D01*
X110019898Y-63191931D01*
X109962182Y-63187389D01*
X109912819Y-63157139D01*
X106045018Y-59289338D01*
X106018138Y-59249110D01*
X106008699Y-59201657D01*
X106008699Y-58705730D01*
X106008699Y-58705727D01*
X106002291Y-58646117D01*
X105951996Y-58511269D01*
X105865746Y-58396054D01*
X105750531Y-58309804D01*
X105615683Y-58259509D01*
X105556073Y-58253100D01*
X105556069Y-58253100D01*
X103783930Y-58253100D01*
X103724315Y-58259509D01*
X103589469Y-58309804D01*
X103474254Y-58396054D01*
X103388004Y-58511268D01*
X103337709Y-58646116D01*
X103331300Y-58705730D01*
X103331300Y-59614269D01*
X103337709Y-59673883D01*
X103366720Y-59751666D01*
X103374538Y-59794999D01*
X103366720Y-59838331D01*
X103337709Y-59916113D01*
X103337709Y-59916117D01*
X103331325Y-59975500D01*
X103331300Y-59975730D01*
X103331300Y-60884269D01*
X103337709Y-60943883D01*
X103366720Y-61021666D01*
X103374538Y-61064999D01*
X103366720Y-61108331D01*
X103337709Y-61186113D01*
X103331300Y-61245730D01*
X103331300Y-62154269D01*
X103337708Y-62213882D01*
X103337709Y-62213883D01*
X103364589Y-62285954D01*
X103366720Y-62291666D01*
X103374538Y-62334999D01*
X103366720Y-62378331D01*
X103337709Y-62456113D01*
X103337709Y-62456117D01*
X103331701Y-62512003D01*
X103331300Y-62515730D01*
X103331300Y-63424269D01*
X103334041Y-63449764D01*
X103337709Y-63483883D01*
X103365804Y-63559212D01*
X103366720Y-63561666D01*
X103374538Y-63604999D01*
X103366720Y-63648331D01*
X103337709Y-63726113D01*
X103331300Y-63785730D01*
X103331300Y-64694269D01*
X103333187Y-64711819D01*
X103337709Y-64753883D01*
X103364169Y-64824828D01*
X103366720Y-64831666D01*
X103374538Y-64874999D01*
X103366720Y-64918331D01*
X103337709Y-64996113D01*
X103331300Y-65055730D01*
X103331300Y-65964269D01*
X103336623Y-66013781D01*
X103337709Y-66023883D01*
X103360690Y-66085500D01*
X103366720Y-66101666D01*
X103374538Y-66144999D01*
X103366720Y-66188331D01*
X103337709Y-66266113D01*
X103331300Y-66325730D01*
X103331300Y-67234269D01*
X103337709Y-67293884D01*
X103360691Y-67355500D01*
X103388004Y-67428731D01*
X103474254Y-67543946D01*
X103589469Y-67630196D01*
X103724317Y-67680491D01*
X103783927Y-67686900D01*
X105556072Y-67686899D01*
X105615683Y-67680491D01*
X105750531Y-67630196D01*
X105865746Y-67543946D01*
X105951996Y-67428731D01*
X105951995Y-67428731D01*
X105962681Y-67414458D01*
X105962770Y-67414524D01*
X105975661Y-67393931D01*
X106016592Y-67365512D01*
X106065405Y-67355500D01*
X106706886Y-67355500D01*
X106768885Y-67372112D01*
X106814272Y-67417498D01*
X106819416Y-67426407D01*
X106845381Y-67455244D01*
X106936637Y-67556594D01*
X106939047Y-67559270D01*
X107083679Y-67664353D01*
X107083682Y-67664354D01*
X107083683Y-67664355D01*
X107134318Y-67686899D01*
X107247011Y-67737073D01*
X107421883Y-67774243D01*
X107421885Y-67774243D01*
X107600667Y-67774243D01*
X107600669Y-67774243D01*
X107775540Y-67737073D01*
X107775541Y-67737072D01*
X107775543Y-67737072D01*
X107850064Y-67703893D01*
X107910229Y-67693555D01*
X107968035Y-67713178D01*
X108009473Y-67758005D01*
X108024500Y-67817173D01*
X108024500Y-82467389D01*
X108011953Y-82521743D01*
X107976850Y-82565096D01*
X107946662Y-82579176D01*
X107947639Y-82581370D01*
X107772408Y-82659387D01*
X107627768Y-82764474D01*
X107508141Y-82897333D01*
X107490203Y-82928405D01*
X107485147Y-82937163D01*
X107484664Y-82937999D01*
X107439276Y-82983387D01*
X107377276Y-83000000D01*
X89849875Y-83000000D01*
X89794740Y-82987068D01*
X89751105Y-82950970D01*
X89728071Y-82899235D01*
X89730443Y-82842653D01*
X89757726Y-82793027D01*
X89761074Y-82789308D01*
X89772008Y-82777165D01*
X89861399Y-82622335D01*
X89916646Y-82452303D01*
X89923558Y-82386536D01*
X89944079Y-82330160D01*
X89988665Y-82290014D01*
X90046879Y-82275500D01*
X94218514Y-82275500D01*
X94268949Y-82286220D01*
X94310663Y-82316527D01*
X94327770Y-82335526D01*
X94472403Y-82440610D01*
X94472406Y-82440611D01*
X94472407Y-82440612D01*
X94547591Y-82474086D01*
X94635735Y-82513330D01*
X94810607Y-82550500D01*
X94810609Y-82550500D01*
X94989391Y-82550500D01*
X94989393Y-82550500D01*
X95164264Y-82513330D01*
X95164265Y-82513329D01*
X95164267Y-82513329D01*
X95327593Y-82440612D01*
X95472230Y-82335526D01*
X95591859Y-82202665D01*
X95681250Y-82047835D01*
X95736497Y-81877803D01*
X95755185Y-81700000D01*
X95736497Y-81522197D01*
X95695927Y-81397335D01*
X95681250Y-81352164D01*
X95591859Y-81197334D01*
X95472228Y-81064472D01*
X95327596Y-80959389D01*
X95164264Y-80886669D01*
X94989393Y-80849500D01*
X94989391Y-80849500D01*
X94810609Y-80849500D01*
X94810607Y-80849500D01*
X94635735Y-80886669D01*
X94472408Y-80959387D01*
X94327769Y-81064474D01*
X94310664Y-81083472D01*
X94268950Y-81113780D01*
X94218514Y-81124500D01*
X88771526Y-81124500D01*
X88721091Y-81113780D01*
X88679377Y-81083473D01*
X88572230Y-80964474D01*
X88572229Y-80964473D01*
X88572228Y-80964472D01*
X88427596Y-80859389D01*
X88264264Y-80786669D01*
X88089393Y-80749500D01*
X88089391Y-80749500D01*
X87910609Y-80749500D01*
X87910607Y-80749500D01*
X87735735Y-80786669D01*
X87572408Y-80859387D01*
X87427768Y-80964474D01*
X87308140Y-81097334D01*
X87218749Y-81252164D01*
X87163503Y-81422195D01*
X87163502Y-81422197D01*
X87163503Y-81422197D01*
X87146079Y-81587964D01*
X87125561Y-81644340D01*
X87080974Y-81684486D01*
X87022760Y-81699000D01*
X84919051Y-81699000D01*
X84868616Y-81688280D01*
X84826901Y-81657972D01*
X84801120Y-81613318D01*
X84781250Y-81552164D01*
X84691859Y-81397334D01*
X84572228Y-81264472D01*
X84427596Y-81159389D01*
X84264264Y-81086669D01*
X84089393Y-81049500D01*
X84089391Y-81049500D01*
X83910609Y-81049500D01*
X83910607Y-81049500D01*
X83735735Y-81086669D01*
X83572408Y-81159387D01*
X83427768Y-81264474D01*
X83308140Y-81397334D01*
X83218749Y-81552164D01*
X83163503Y-81722195D01*
X83144815Y-81900000D01*
X83163503Y-82077804D01*
X83218749Y-82247835D01*
X83308140Y-82402665D01*
X83427771Y-82535527D01*
X83572403Y-82640610D01*
X83572406Y-82640611D01*
X83572407Y-82640612D01*
X83649087Y-82674752D01*
X83735735Y-82713330D01*
X83910607Y-82750500D01*
X83910609Y-82750500D01*
X84007381Y-82750500D01*
X84047237Y-82757080D01*
X84082863Y-82776121D01*
X84084818Y-82777621D01*
X84122614Y-82825561D01*
X84132954Y-82885726D01*
X84113332Y-82943534D01*
X84068505Y-82984973D01*
X84009336Y-83000000D01*
X78584488Y-83000000D01*
X78544225Y-82993281D01*
X78508325Y-82973853D01*
X78423233Y-82907623D01*
X78204606Y-82789308D01*
X77969493Y-82708593D01*
X77724293Y-82667677D01*
X77475707Y-82667677D01*
X77230506Y-82708593D01*
X76995393Y-82789308D01*
X76776766Y-82907623D01*
X76691675Y-82973853D01*
X76655775Y-82993281D01*
X76615512Y-83000000D01*
X73459151Y-83000000D01*
X73442685Y-82998902D01*
X73399057Y-82993056D01*
X73335720Y-82984570D01*
X73303948Y-82975900D01*
X73236926Y-82947597D01*
X73212218Y-82937162D01*
X73183849Y-82920434D01*
X73110580Y-82862865D01*
X73078683Y-82825380D01*
X73063882Y-82778439D01*
X73068507Y-82729447D01*
X75976103Y-73123610D01*
X78597619Y-73123610D01*
X78644443Y-73160055D01*
X78863070Y-73278368D01*
X79098183Y-73359083D01*
X79343384Y-73400000D01*
X79591970Y-73400000D01*
X79837170Y-73359083D01*
X80072283Y-73278368D01*
X80290910Y-73160053D01*
X80337733Y-73123609D01*
X79467677Y-72253553D01*
X78597619Y-73123609D01*
X78597619Y-73123610D01*
X75976103Y-73123610D01*
X76346478Y-71899999D01*
X77962535Y-71899999D01*
X77983063Y-72147732D01*
X78044090Y-72388721D01*
X78143945Y-72616370D01*
X78244240Y-72769882D01*
X78244241Y-72769882D01*
X79114124Y-71900001D01*
X79821230Y-71900001D01*
X80691111Y-72769882D01*
X80791407Y-72616369D01*
X80891263Y-72388721D01*
X80952290Y-72147732D01*
X80972818Y-71899999D01*
X80952290Y-71652267D01*
X80891263Y-71411278D01*
X80791407Y-71183630D01*
X80691111Y-71030116D01*
X79821230Y-71900000D01*
X79821230Y-71900001D01*
X79114124Y-71900001D01*
X79114124Y-71899999D01*
X78244241Y-71030116D01*
X78143943Y-71183634D01*
X78044090Y-71411278D01*
X77983063Y-71652267D01*
X77962535Y-71899999D01*
X76346478Y-71899999D01*
X76716853Y-70676390D01*
X78597619Y-70676390D01*
X79467677Y-71546447D01*
X79467678Y-71546447D01*
X80337734Y-70676390D01*
X80337733Y-70676388D01*
X80290912Y-70639947D01*
X80072283Y-70521631D01*
X79837170Y-70440916D01*
X79591970Y-70400000D01*
X79343384Y-70400000D01*
X79098183Y-70440916D01*
X78863070Y-70521631D01*
X78644441Y-70639946D01*
X78597619Y-70676388D01*
X78597619Y-70676390D01*
X76716853Y-70676390D01*
X78751029Y-63956075D01*
X78783934Y-63902456D01*
X78838922Y-63871886D01*
X78901836Y-63872237D01*
X78956480Y-63903420D01*
X78988785Y-63957408D01*
X79027130Y-64089392D01*
X79066051Y-64155204D01*
X79108865Y-64227598D01*
X79222402Y-64341135D01*
X79360607Y-64422869D01*
X79514796Y-64467665D01*
X79550819Y-64470500D01*
X79697742Y-64470499D01*
X79752582Y-64483285D01*
X79775431Y-64502034D01*
X79776598Y-64500514D01*
X79819729Y-64533610D01*
X79848768Y-64555892D01*
X79893522Y-64590233D01*
X79909767Y-64602698D01*
X80028466Y-64651865D01*
X80049764Y-64660687D01*
X80170331Y-64676560D01*
X80170345Y-64676561D01*
X80199999Y-64680465D01*
X80199999Y-64680464D01*
X80200000Y-64680465D01*
X80229654Y-64676561D01*
X80245840Y-64675500D01*
X80566692Y-64675500D01*
X80614145Y-64684939D01*
X80654373Y-64711819D01*
X80683089Y-64740535D01*
X80715183Y-64796122D01*
X80715183Y-64860309D01*
X80683090Y-64915897D01*
X80602029Y-64996958D01*
X80512998Y-65141300D01*
X80497476Y-65188141D01*
X80475874Y-65227494D01*
X80460300Y-65246594D01*
X80446209Y-65273568D01*
X80438082Y-65286983D01*
X80420705Y-65311950D01*
X80397439Y-65366165D01*
X80393399Y-65374671D01*
X80366090Y-65426952D01*
X80357720Y-65456201D01*
X80352459Y-65470978D01*
X80340460Y-65498942D01*
X80328587Y-65556713D01*
X80326342Y-65565860D01*
X80310113Y-65622580D01*
X80307802Y-65652925D01*
X80305622Y-65668466D01*
X80299500Y-65698259D01*
X80299500Y-65757242D01*
X80299142Y-65766656D01*
X80294663Y-65825477D01*
X80298506Y-65855651D01*
X80299500Y-65871317D01*
X80299500Y-67344756D01*
X80298903Y-67356909D01*
X80294659Y-67400000D01*
X80296114Y-67414778D01*
X80298903Y-67443090D01*
X80299072Y-67446537D01*
X80304434Y-67499276D01*
X80304338Y-67499285D01*
X80304474Y-67499663D01*
X80308819Y-67543780D01*
X80314447Y-67600911D01*
X80314925Y-67602437D01*
X80314926Y-67602438D01*
X80328729Y-67646430D01*
X80343762Y-67694345D01*
X80344109Y-67695470D01*
X80372981Y-67790647D01*
X80374340Y-67793883D01*
X80375840Y-67796586D01*
X80375841Y-67796588D01*
X80393942Y-67829200D01*
X80420912Y-67877792D01*
X80421849Y-67879513D01*
X80465388Y-67960967D01*
X80474579Y-67974489D01*
X80532778Y-68042282D01*
X80534536Y-68044376D01*
X80589117Y-68110883D01*
X80589396Y-68111112D01*
X80604814Y-68126192D01*
X80607133Y-68128894D01*
X80674941Y-68181382D01*
X80677704Y-68183585D01*
X80741462Y-68235910D01*
X80744942Y-68237770D01*
X80762383Y-68249068D01*
X80768042Y-68253448D01*
X80841049Y-68289258D01*
X80841808Y-68289631D01*
X80845654Y-68291601D01*
X80915273Y-68328814D01*
X80922477Y-68330999D01*
X80941093Y-68338333D01*
X80950731Y-68343061D01*
X81026819Y-68362762D01*
X81031733Y-68364142D01*
X81103868Y-68386024D01*
X81114929Y-68387113D01*
X81133857Y-68390474D01*
X81147715Y-68394063D01*
X81222676Y-68397864D01*
X81228484Y-68398297D01*
X81300000Y-68405341D01*
X81314631Y-68403899D01*
X81333056Y-68403462D01*
X81350936Y-68404369D01*
X81421596Y-68393543D01*
X81428180Y-68392716D01*
X81496132Y-68386024D01*
X81513632Y-68380714D01*
X81530834Y-68376809D01*
X81552071Y-68373556D01*
X81615760Y-68349967D01*
X81622798Y-68347598D01*
X81684727Y-68328814D01*
X81704011Y-68318505D01*
X81719379Y-68311591D01*
X81742887Y-68302886D01*
X81797488Y-68268853D01*
X81804628Y-68264725D01*
X81858538Y-68235910D01*
X81878197Y-68219775D01*
X81891267Y-68210400D01*
X81915571Y-68195252D01*
X81959651Y-68153348D01*
X81966373Y-68147409D01*
X82010883Y-68110883D01*
X82029286Y-68088457D01*
X82039698Y-68077259D01*
X82063053Y-68055059D01*
X82095735Y-68008101D01*
X82101650Y-68000282D01*
X82135910Y-67958538D01*
X82137571Y-67955429D01*
X82151270Y-67929801D01*
X82158852Y-67917418D01*
X82179295Y-67888049D01*
X82200456Y-67838735D01*
X82205031Y-67829220D01*
X82228814Y-67784727D01*
X82239313Y-67750113D01*
X82244011Y-67737240D01*
X82259540Y-67701058D01*
X82269621Y-67651998D01*
X82272414Y-67640996D01*
X82286024Y-67596132D01*
X82289918Y-67556583D01*
X82291855Y-67543803D01*
X82300500Y-67501741D01*
X82300500Y-67455244D01*
X82301097Y-67443090D01*
X82305341Y-67400000D01*
X82301096Y-67356909D01*
X82300500Y-67344756D01*
X82300500Y-66237975D01*
X82306794Y-66198971D01*
X82324678Y-66144999D01*
X82340349Y-66097708D01*
X82346725Y-66035288D01*
X82350867Y-66013781D01*
X82357672Y-65990000D01*
X82389886Y-65877418D01*
X82405337Y-65674524D01*
X82379630Y-65472672D01*
X82379629Y-65472671D01*
X82378037Y-65460164D01*
X82378837Y-65460062D01*
X82375500Y-65439984D01*
X82375500Y-64935718D01*
X82391790Y-64874281D01*
X82436377Y-64828987D01*
X82539365Y-64768081D01*
X82655581Y-64651865D01*
X82655767Y-64651549D01*
X82664066Y-64643379D01*
X82666658Y-64640788D01*
X82666678Y-64640808D01*
X82701062Y-64606959D01*
X82762500Y-64590669D01*
X82823938Y-64606959D01*
X82858321Y-64640808D01*
X82858342Y-64640788D01*
X82860933Y-64643379D01*
X82869232Y-64651549D01*
X82869419Y-64651865D01*
X82985635Y-64768081D01*
X83088620Y-64828986D01*
X83127102Y-64851744D01*
X83284927Y-64897597D01*
X83284931Y-64897598D01*
X83321806Y-64900500D01*
X83587771Y-64900500D01*
X83635224Y-64909939D01*
X83675452Y-64936819D01*
X83680858Y-64942225D01*
X83707738Y-64982453D01*
X83717177Y-65029906D01*
X83717177Y-70275501D01*
X83700564Y-70337501D01*
X83655177Y-70382888D01*
X83593177Y-70399501D01*
X83419805Y-70399501D01*
X83389999Y-70402704D01*
X83360192Y-70405909D01*
X83225346Y-70456204D01*
X83110131Y-70542454D01*
X83023881Y-70657668D01*
X82973586Y-70792515D01*
X82973586Y-70792517D01*
X82968190Y-70842712D01*
X82967177Y-70852130D01*
X82967177Y-72947869D01*
X82971628Y-72989268D01*
X82973586Y-73007483D01*
X83023881Y-73142331D01*
X83110131Y-73257546D01*
X83225346Y-73343796D01*
X83360194Y-73394091D01*
X83419804Y-73400500D01*
X83593177Y-73400500D01*
X83655177Y-73417113D01*
X83700564Y-73462500D01*
X83717177Y-73524500D01*
X83717177Y-77170094D01*
X83707738Y-77217547D01*
X83680860Y-77257772D01*
X83525448Y-77413183D01*
X83485223Y-77440061D01*
X83437770Y-77449500D01*
X83149991Y-77449500D01*
X83047203Y-77460000D01*
X82880665Y-77515186D01*
X82731342Y-77607288D01*
X82607288Y-77731342D01*
X82515186Y-77880665D01*
X82460000Y-78047202D01*
X82449500Y-78149991D01*
X82449500Y-78850008D01*
X82460000Y-78952796D01*
X82515186Y-79119334D01*
X82607288Y-79268657D01*
X82731342Y-79392711D01*
X82731344Y-79392712D01*
X82880666Y-79484814D01*
X82992016Y-79521712D01*
X83047202Y-79539999D01*
X83056729Y-79540972D01*
X83149991Y-79550500D01*
X83850008Y-79550499D01*
X83952797Y-79539999D01*
X84119334Y-79484814D01*
X84268656Y-79392712D01*
X84392712Y-79268656D01*
X84484814Y-79119334D01*
X84539999Y-78952797D01*
X84550500Y-78850009D01*
X84550499Y-78562228D01*
X84559938Y-78514776D01*
X84586815Y-78474551D01*
X84802573Y-78258793D01*
X84850393Y-78229057D01*
X84906437Y-78223537D01*
X84959143Y-78243374D01*
X84997639Y-78284476D01*
X85008140Y-78302665D01*
X85127771Y-78435527D01*
X85272403Y-78540610D01*
X85435735Y-78613330D01*
X85610607Y-78650500D01*
X85610609Y-78650500D01*
X85789391Y-78650500D01*
X85789393Y-78650500D01*
X85964264Y-78613330D01*
X85964265Y-78613329D01*
X85964267Y-78613329D01*
X86127593Y-78540612D01*
X86272230Y-78435526D01*
X86391859Y-78302665D01*
X86481250Y-78147835D01*
X86536497Y-77977803D01*
X86547141Y-77876523D01*
X86558541Y-77836107D01*
X86582781Y-77801809D01*
X86667774Y-77716818D01*
X86708002Y-77689939D01*
X86755454Y-77680500D01*
X87034688Y-77680500D01*
X87034690Y-77680500D01*
X87070993Y-77677643D01*
X87226395Y-77632494D01*
X87365687Y-77550117D01*
X87480117Y-77435687D01*
X87562494Y-77296395D01*
X87607643Y-77140993D01*
X87610500Y-77104690D01*
X87610500Y-76695310D01*
X87607643Y-76659007D01*
X87562494Y-76503605D01*
X87480117Y-76364313D01*
X87480116Y-76364311D01*
X87365688Y-76249883D01*
X87226394Y-76167505D01*
X87070996Y-76122357D01*
X87049211Y-76120642D01*
X87034690Y-76119500D01*
X86565310Y-76119500D01*
X86553209Y-76120452D01*
X86529003Y-76122357D01*
X86373605Y-76167505D01*
X86234311Y-76249883D01*
X86119883Y-76364311D01*
X86037506Y-76503604D01*
X86015962Y-76577756D01*
X85984567Y-76630840D01*
X85702225Y-76913183D01*
X85662000Y-76940061D01*
X85614547Y-76949500D01*
X85610607Y-76949500D01*
X85435733Y-76986670D01*
X85392613Y-77005869D01*
X85332449Y-77016208D01*
X85274642Y-76996585D01*
X85233204Y-76951758D01*
X85218177Y-76892590D01*
X85218177Y-75274500D01*
X85234790Y-75212500D01*
X85280177Y-75167113D01*
X85342177Y-75150500D01*
X85489393Y-75150500D01*
X85664264Y-75113330D01*
X85664265Y-75113329D01*
X85664267Y-75113329D01*
X85827593Y-75040612D01*
X85884615Y-74999182D01*
X85919183Y-74981569D01*
X85957502Y-74975500D01*
X88418514Y-74975500D01*
X88468949Y-74986220D01*
X88510663Y-75016527D01*
X88527770Y-75035526D01*
X88672403Y-75140610D01*
X88835735Y-75213330D01*
X89010607Y-75250500D01*
X89010609Y-75250500D01*
X89189391Y-75250500D01*
X89189393Y-75250500D01*
X89364264Y-75213330D01*
X89364265Y-75213329D01*
X89364267Y-75213329D01*
X89527593Y-75140612D01*
X89672230Y-75035526D01*
X89791859Y-74902665D01*
X89881250Y-74747835D01*
X89936497Y-74577803D01*
X89955185Y-74400000D01*
X89936497Y-74222197D01*
X89894281Y-74092269D01*
X103331300Y-74092269D01*
X103337709Y-74151883D01*
X103388004Y-74286731D01*
X103474254Y-74401946D01*
X103589469Y-74488196D01*
X103724317Y-74538491D01*
X103783927Y-74544900D01*
X105556072Y-74544899D01*
X105615683Y-74538491D01*
X105750531Y-74488196D01*
X105865746Y-74401946D01*
X105951996Y-74286731D01*
X106002291Y-74151883D01*
X106008700Y-74092273D01*
X106008699Y-73183728D01*
X106002291Y-73124117D01*
X105951996Y-72989269D01*
X105865746Y-72874054D01*
X105750531Y-72787804D01*
X105615683Y-72737509D01*
X105556073Y-72731100D01*
X105556069Y-72731100D01*
X103783930Y-72731100D01*
X103724315Y-72737509D01*
X103589469Y-72787804D01*
X103474254Y-72874054D01*
X103388004Y-72989268D01*
X103337709Y-73124116D01*
X103331300Y-73183730D01*
X103331300Y-74092269D01*
X89894281Y-74092269D01*
X89881250Y-74052165D01*
X89881250Y-74052164D01*
X89791859Y-73897334D01*
X89672228Y-73764472D01*
X89527596Y-73659389D01*
X89364264Y-73586669D01*
X89189393Y-73549500D01*
X89189391Y-73549500D01*
X89010609Y-73549500D01*
X89010607Y-73549500D01*
X88835735Y-73586669D01*
X88672408Y-73659387D01*
X88527769Y-73764474D01*
X88510664Y-73783472D01*
X88468950Y-73813780D01*
X88418514Y-73824500D01*
X86171526Y-73824500D01*
X86121091Y-73813780D01*
X86079377Y-73783473D01*
X85972230Y-73664474D01*
X85972229Y-73664473D01*
X85972228Y-73664472D01*
X85827596Y-73559389D01*
X85766281Y-73532090D01*
X85716659Y-73492053D01*
X85693491Y-73432652D01*
X85702903Y-73369591D01*
X85742403Y-73319544D01*
X85825223Y-73257546D01*
X85911473Y-73142331D01*
X85961768Y-73007483D01*
X85968177Y-72947873D01*
X85968176Y-70852128D01*
X85961768Y-70792517D01*
X85911473Y-70657669D01*
X85825223Y-70542454D01*
X85710008Y-70456204D01*
X85575160Y-70405909D01*
X85515550Y-70399500D01*
X85515546Y-70399500D01*
X85342177Y-70399500D01*
X85280177Y-70382887D01*
X85234790Y-70337500D01*
X85218177Y-70275500D01*
X85218177Y-65653907D01*
X85231692Y-65597612D01*
X85269292Y-65553589D01*
X85322779Y-65531434D01*
X85380495Y-65535976D01*
X85429858Y-65566226D01*
X85763181Y-65899548D01*
X85790061Y-65939776D01*
X85799500Y-65987229D01*
X85799500Y-66650008D01*
X85810000Y-66752796D01*
X85865186Y-66919334D01*
X85957288Y-67068657D01*
X86081342Y-67192711D01*
X86081344Y-67192712D01*
X86230666Y-67284814D01*
X86329909Y-67317700D01*
X86397202Y-67339999D01*
X86407702Y-67341071D01*
X86499991Y-67350500D01*
X87900008Y-67350499D01*
X88002797Y-67339999D01*
X88169334Y-67284814D01*
X88186602Y-67274162D01*
X88249291Y-67255723D01*
X88312654Y-67271716D01*
X88359086Y-67317700D01*
X88408140Y-67402665D01*
X88527771Y-67535527D01*
X88672403Y-67640610D01*
X88672406Y-67640611D01*
X88672407Y-67640612D01*
X88725735Y-67664355D01*
X88835735Y-67713330D01*
X89010607Y-67750500D01*
X89010609Y-67750500D01*
X89189391Y-67750500D01*
X89189393Y-67750500D01*
X89364264Y-67713330D01*
X89364265Y-67713329D01*
X89364267Y-67713329D01*
X89527593Y-67640612D01*
X89672230Y-67535526D01*
X89791859Y-67402665D01*
X89881250Y-67247835D01*
X89936497Y-67077803D01*
X89955185Y-66900000D01*
X89936497Y-66722197D01*
X89894349Y-66592478D01*
X89881251Y-66552167D01*
X89880225Y-66550390D01*
X89791859Y-66397335D01*
X89791854Y-66397330D01*
X89786741Y-66388473D01*
X89771026Y-66341369D01*
X89775051Y-66291879D01*
X89817665Y-66145204D01*
X89820500Y-66109181D01*
X89820499Y-65710820D01*
X89817665Y-65674796D01*
X89776015Y-65531434D01*
X89772870Y-65520609D01*
X89754744Y-65489960D01*
X89738870Y-65463118D01*
X89721603Y-65399998D01*
X89738870Y-65336880D01*
X89772869Y-65279393D01*
X89785387Y-65236303D01*
X89810595Y-65189876D01*
X89852844Y-65158154D01*
X89904458Y-65146899D01*
X91586072Y-65146899D01*
X91645683Y-65140491D01*
X91780531Y-65090196D01*
X91895746Y-65003946D01*
X91981996Y-64888731D01*
X92032291Y-64753883D01*
X92038700Y-64694273D01*
X92038699Y-63785728D01*
X92032291Y-63726117D01*
X92003278Y-63648330D01*
X91995461Y-63605000D01*
X92003278Y-63561669D01*
X92032291Y-63483883D01*
X92038700Y-63424273D01*
X92038699Y-62515728D01*
X92032291Y-62456117D01*
X92003278Y-62378330D01*
X91995461Y-62335000D01*
X92003278Y-62291669D01*
X92032291Y-62213883D01*
X92038700Y-62154273D01*
X92038699Y-61245728D01*
X92032291Y-61186117D01*
X92003278Y-61108330D01*
X91995461Y-61065000D01*
X92003278Y-61021669D01*
X92032291Y-60943883D01*
X92038700Y-60884273D01*
X92038699Y-59975728D01*
X92032291Y-59916117D01*
X91981996Y-59781269D01*
X91895746Y-59666054D01*
X91780531Y-59579804D01*
X91645683Y-59529509D01*
X91586073Y-59523100D01*
X91586069Y-59523100D01*
X89813930Y-59523100D01*
X89754314Y-59529509D01*
X89709663Y-59546163D01*
X89670933Y-59553896D01*
X89631736Y-59549057D01*
X89470996Y-59502357D01*
X89449211Y-59500642D01*
X89434690Y-59499500D01*
X88965310Y-59499500D01*
X88953208Y-59500452D01*
X88929003Y-59502357D01*
X88773606Y-59547505D01*
X88713120Y-59583276D01*
X88650000Y-59600543D01*
X88586880Y-59583276D01*
X88537200Y-59553896D01*
X88526395Y-59547506D01*
X88526394Y-59547505D01*
X88526393Y-59547505D01*
X88370996Y-59502357D01*
X88349211Y-59500642D01*
X88334690Y-59499500D01*
X87865310Y-59499500D01*
X87847158Y-59500928D01*
X87829005Y-59502357D01*
X87673604Y-59547506D01*
X87637592Y-59568803D01*
X87594511Y-59584440D01*
X87548692Y-59583360D01*
X87389393Y-59549500D01*
X87389391Y-59549500D01*
X87210609Y-59549500D01*
X87210607Y-59549500D01*
X87035735Y-59586669D01*
X86872408Y-59659387D01*
X86727768Y-59764474D01*
X86608140Y-59897334D01*
X86518749Y-60052164D01*
X86463503Y-60222195D01*
X86444815Y-60400000D01*
X86463503Y-60577804D01*
X86518749Y-60747835D01*
X86608140Y-60902665D01*
X86727771Y-61035527D01*
X86872403Y-61140610D01*
X86872406Y-61140611D01*
X86872407Y-61140612D01*
X86975853Y-61186669D01*
X87035735Y-61213330D01*
X87210607Y-61250500D01*
X87210609Y-61250500D01*
X87389391Y-61250500D01*
X87389392Y-61250500D01*
X87474719Y-61232363D01*
X87529447Y-61233079D01*
X87578535Y-61257287D01*
X87612420Y-61300269D01*
X87624500Y-61353653D01*
X87624500Y-61898344D01*
X87634650Y-61997707D01*
X87687997Y-62158699D01*
X87777031Y-62303044D01*
X87896955Y-62422968D01*
X88041301Y-62512002D01*
X88041303Y-62512003D01*
X88085646Y-62526696D01*
X88098231Y-62530867D01*
X88144932Y-62558958D01*
X88175078Y-62604359D01*
X88182846Y-62658301D01*
X88179500Y-62700820D01*
X88179500Y-63099179D01*
X88182335Y-63135205D01*
X88227130Y-63289392D01*
X88261128Y-63346881D01*
X88278395Y-63410000D01*
X88261128Y-63473119D01*
X88227130Y-63530607D01*
X88182335Y-63684793D01*
X88182335Y-63684796D01*
X88180090Y-63713329D01*
X88179500Y-63720821D01*
X88179500Y-64119179D01*
X88182335Y-64155205D01*
X88187438Y-64172770D01*
X88227131Y-64309393D01*
X88246344Y-64341881D01*
X88263611Y-64405000D01*
X88246344Y-64468118D01*
X88239158Y-64480270D01*
X88227130Y-64500609D01*
X88182335Y-64654793D01*
X88179500Y-64690821D01*
X88179501Y-65094050D01*
X88178189Y-65094050D01*
X88169247Y-65146797D01*
X88132191Y-65194525D01*
X88076979Y-65219074D01*
X88016720Y-65214614D01*
X88002799Y-65210000D01*
X87900009Y-65199500D01*
X87237229Y-65199500D01*
X87189776Y-65190061D01*
X87149548Y-65163181D01*
X86246819Y-64260451D01*
X86219939Y-64220223D01*
X86210500Y-64172770D01*
X86210500Y-63975312D01*
X86209091Y-63957408D01*
X86207643Y-63939007D01*
X86185383Y-63862390D01*
X86162494Y-63783605D01*
X86080116Y-63644311D01*
X85965688Y-63529883D01*
X85826394Y-63447505D01*
X85670996Y-63402357D01*
X85649211Y-63400642D01*
X85634690Y-63399500D01*
X85634688Y-63399500D01*
X85626817Y-63399500D01*
X85592963Y-63391476D01*
X85592531Y-63393302D01*
X85580007Y-63390333D01*
X85558903Y-63382997D01*
X85502132Y-63371274D01*
X85443435Y-63341257D01*
X85408418Y-63285399D01*
X85406980Y-63219487D01*
X85439526Y-63162157D01*
X85448142Y-63153541D01*
X85461760Y-63141771D01*
X85481030Y-63127427D01*
X85512876Y-63089473D01*
X85520162Y-63081521D01*
X85524091Y-63077594D01*
X85543333Y-63053256D01*
X85545590Y-63050487D01*
X85560353Y-63032892D01*
X85593802Y-62993031D01*
X85593803Y-62993028D01*
X85594615Y-62992061D01*
X85605073Y-62975644D01*
X85605606Y-62974499D01*
X85605611Y-62974494D01*
X85637333Y-62906463D01*
X85638862Y-62903305D01*
X85672540Y-62836250D01*
X85672540Y-62836249D01*
X85673112Y-62835111D01*
X85679500Y-62816731D01*
X85679755Y-62815492D01*
X85679757Y-62815490D01*
X85694947Y-62741920D01*
X85695686Y-62738587D01*
X85713000Y-62665538D01*
X85713000Y-62665534D01*
X85713291Y-62664306D01*
X85715270Y-62644938D01*
X85715233Y-62643676D01*
X85715234Y-62643673D01*
X85713052Y-62568686D01*
X85713000Y-62565080D01*
X85713000Y-61901206D01*
X85714309Y-61883236D01*
X85714838Y-61879618D01*
X85717789Y-61859477D01*
X85713472Y-61810131D01*
X85713000Y-61799324D01*
X85713000Y-61793789D01*
X85709506Y-61763905D01*
X85709402Y-61763016D01*
X85709036Y-61759429D01*
X85701472Y-61672963D01*
X85701000Y-61662157D01*
X85701000Y-60834322D01*
X85717613Y-60772322D01*
X85731750Y-60747835D01*
X85731750Y-60747834D01*
X85786997Y-60577803D01*
X85805685Y-60400000D01*
X85786997Y-60222197D01*
X85731750Y-60052165D01*
X85731750Y-60052164D01*
X85642359Y-59897334D01*
X85522728Y-59764472D01*
X85378096Y-59659389D01*
X85214764Y-59586669D01*
X85039893Y-59549500D01*
X85039891Y-59549500D01*
X84861109Y-59549500D01*
X84861107Y-59549500D01*
X84686235Y-59586669D01*
X84522908Y-59659387D01*
X84378268Y-59764474D01*
X84258640Y-59897334D01*
X84169249Y-60052164D01*
X84114003Y-60222195D01*
X84095315Y-60400000D01*
X84114003Y-60577804D01*
X84169249Y-60747835D01*
X84183387Y-60772322D01*
X84200000Y-60834322D01*
X84200000Y-61275500D01*
X84183387Y-61337500D01*
X84138000Y-61382887D01*
X84076000Y-61399500D01*
X83321806Y-61399500D01*
X83309514Y-61400467D01*
X83284927Y-61402402D01*
X83127102Y-61448255D01*
X82985634Y-61531919D01*
X82869419Y-61648134D01*
X82869231Y-61648453D01*
X82860902Y-61656651D01*
X82858342Y-61659212D01*
X82858321Y-61659191D01*
X82823936Y-61693041D01*
X82762500Y-61709330D01*
X82701064Y-61693041D01*
X82666678Y-61659191D01*
X82666658Y-61659212D01*
X82664097Y-61656651D01*
X82655769Y-61648453D01*
X82655580Y-61648134D01*
X82539365Y-61531919D01*
X82397897Y-61448255D01*
X82240072Y-61402402D01*
X82217943Y-61400660D01*
X82203194Y-61399500D01*
X81046806Y-61399500D01*
X81034514Y-61400467D01*
X81009927Y-61402402D01*
X80852102Y-61448255D01*
X80710634Y-61531919D01*
X80654373Y-61588181D01*
X80614145Y-61615061D01*
X80566692Y-61624500D01*
X80325846Y-61624500D01*
X80309662Y-61623439D01*
X80280000Y-61619534D01*
X80279999Y-61619534D01*
X80261140Y-61622016D01*
X80242280Y-61624500D01*
X80129764Y-61639313D01*
X80098737Y-61652165D01*
X79989768Y-61697300D01*
X79903010Y-61763872D01*
X79902965Y-61763905D01*
X79869549Y-61789547D01*
X79851334Y-61813285D01*
X79840641Y-61825477D01*
X79792937Y-61873181D01*
X79752709Y-61900061D01*
X79705257Y-61909500D01*
X79550817Y-61909500D01*
X79547118Y-61909792D01*
X79488273Y-61900030D01*
X79440795Y-61863921D01*
X79415670Y-61809821D01*
X79418712Y-61750250D01*
X79432709Y-61704010D01*
X81138747Y-56067764D01*
X83045787Y-56067764D01*
X83075413Y-56337016D01*
X83143928Y-56599087D01*
X83249871Y-56848392D01*
X83390982Y-57079611D01*
X83480253Y-57186881D01*
X83564255Y-57287820D01*
X83765998Y-57468582D01*
X83991910Y-57618044D01*
X84098211Y-57667876D01*
X84237177Y-57733021D01*
X84496562Y-57811058D01*
X84496569Y-57811060D01*
X84764561Y-57850500D01*
X84967631Y-57850500D01*
X84967634Y-57850500D01*
X85170156Y-57835677D01*
X85170156Y-57835676D01*
X85434553Y-57776780D01*
X85687558Y-57680014D01*
X85923777Y-57547441D01*
X86138177Y-57381888D01*
X86326186Y-57186881D01*
X86483799Y-56966579D01*
X86607656Y-56725675D01*
X86695118Y-56469305D01*
X86744319Y-56202933D01*
X86754212Y-55932235D01*
X86724586Y-55662982D01*
X86656072Y-55400912D01*
X86550130Y-55151610D01*
X86409018Y-54920390D01*
X86409017Y-54920388D01*
X86235746Y-54712181D01*
X86130758Y-54618112D01*
X86034002Y-54531418D01*
X85808090Y-54381956D01*
X85808086Y-54381954D01*
X85562822Y-54266978D01*
X85303437Y-54188941D01*
X85303431Y-54188940D01*
X85035439Y-54149500D01*
X84832369Y-54149500D01*
X84832366Y-54149500D01*
X84629843Y-54164322D01*
X84365449Y-54223219D01*
X84112441Y-54319986D01*
X83876223Y-54452559D01*
X83661825Y-54618109D01*
X83473813Y-54813120D01*
X83316201Y-55033420D01*
X83192342Y-55274329D01*
X83104881Y-55530695D01*
X83055680Y-55797066D01*
X83045787Y-56067764D01*
X81138747Y-56067764D01*
X82222134Y-52488575D01*
X82247555Y-52442778D01*
X82289618Y-52411563D01*
X82340816Y-52400500D01*
X139759184Y-52400500D01*
X139810382Y-52411563D01*
G37*
%TD.AperFunction*%
%TA.AperFunction,Conductor*%
G36*
X82823938Y-62706959D02*
G01*
X82858321Y-62740808D01*
X82858342Y-62740788D01*
X82860933Y-62743379D01*
X82869232Y-62751549D01*
X82869419Y-62751865D01*
X82985635Y-62868081D01*
X83065316Y-62915204D01*
X83127102Y-62951744D01*
X83242699Y-62985329D01*
X83295248Y-63016190D01*
X83326749Y-63068357D01*
X83329593Y-63129231D01*
X83303095Y-63184109D01*
X83267894Y-63226061D01*
X83257417Y-63242506D01*
X83244568Y-63270059D01*
X83212883Y-63311800D01*
X83166785Y-63336726D01*
X83127101Y-63348255D01*
X82985634Y-63431919D01*
X82869419Y-63548134D01*
X82869231Y-63548453D01*
X82860902Y-63556651D01*
X82858342Y-63559212D01*
X82858321Y-63559191D01*
X82823936Y-63593041D01*
X82762500Y-63609330D01*
X82701064Y-63593041D01*
X82666678Y-63559191D01*
X82666658Y-63559212D01*
X82664097Y-63556651D01*
X82655769Y-63548453D01*
X82655580Y-63548134D01*
X82539365Y-63431919D01*
X82397897Y-63348255D01*
X82240072Y-63302402D01*
X82217944Y-63300660D01*
X82203194Y-63299500D01*
X81046806Y-63299500D01*
X81034514Y-63300467D01*
X81009927Y-63302402D01*
X80852102Y-63348255D01*
X80760743Y-63402285D01*
X80707350Y-63419171D01*
X80651974Y-63410845D01*
X80605907Y-63379005D01*
X80578546Y-63330148D01*
X80572869Y-63310607D01*
X80572868Y-63310606D01*
X80572868Y-63310604D01*
X80538872Y-63253122D01*
X80521603Y-63190000D01*
X80538872Y-63126878D01*
X80572869Y-63069393D01*
X80598381Y-62981576D01*
X80625741Y-62932723D01*
X80671808Y-62900884D01*
X80727185Y-62892558D01*
X80780574Y-62909442D01*
X80852102Y-62951744D01*
X80852104Y-62951744D01*
X80852105Y-62951745D01*
X81009927Y-62997597D01*
X81009931Y-62997598D01*
X81046806Y-63000500D01*
X82203192Y-63000500D01*
X82203194Y-63000500D01*
X82240069Y-62997598D01*
X82397898Y-62951744D01*
X82539365Y-62868081D01*
X82655581Y-62751865D01*
X82655767Y-62751549D01*
X82664066Y-62743379D01*
X82666658Y-62740788D01*
X82666678Y-62740808D01*
X82701062Y-62706959D01*
X82762500Y-62690669D01*
X82823938Y-62706959D01*
G37*
%TD.AperFunction*%
%TD*%
M02*
