%TF.GenerationSoftware,KiCad,Pcbnew,7.0.1-3b83917a11~172~ubuntu22.04.1*%
%TF.CreationDate,2023-04-06T21:49:17-06:00*%
%TF.ProjectId,gps-tracker,6770732d-7472-4616-936b-65722e6b6963,rev?*%
%TF.SameCoordinates,Original*%
%TF.FileFunction,Drillmap*%
%TF.FilePolarity,Positive*%
%FSLAX45Y45*%
G04 Gerber Fmt 4.5, Leading zero omitted, Abs format (unit mm)*
G04 Created by KiCad (PCBNEW 7.0.1-3b83917a11~172~ubuntu22.04.1) date 2023-04-06 21:49:17*
%MOMM*%
%LPD*%
G01*
G04 APERTURE LIST*
%ADD10C,0.100000*%
%ADD11C,0.200000*%
%ADD12C,0.040000*%
%ADD13C,0.050000*%
%ADD14C,0.060000*%
%ADD15C,0.070000*%
%ADD16C,0.090000*%
%ADD17C,0.120000*%
G04 APERTURE END LIST*
D10*
X15350000Y-9680000D02*
X14300000Y-12700000D01*
X8210000Y-5220000D02*
X6860000Y-9680000D01*
X6860000Y-9680000D02*
X7910000Y-12700000D01*
X14300000Y-12700000D02*
X7910000Y-12700000D01*
X14000000Y-5220000D02*
X8210000Y-5220000D01*
X14000000Y-5220000D02*
X15350000Y-9680000D01*
D11*
D12*
X7120000Y-9490000D02*
X7160000Y-9530000D01*
X7160000Y-9490000D02*
X7120000Y-9530000D01*
X7480000Y-10180000D02*
X7520000Y-10220000D01*
X7520000Y-10180000D02*
X7480000Y-10220000D01*
X7930000Y-10200000D02*
X7970000Y-10240000D01*
X7970000Y-10200000D02*
X7930000Y-10240000D01*
X7930000Y-10850000D02*
X7970000Y-10890000D01*
X7970000Y-10850000D02*
X7930000Y-10890000D01*
X8380000Y-8170000D02*
X8420000Y-8210000D01*
X8420000Y-8170000D02*
X8380000Y-8210000D01*
X8475050Y-6020000D02*
X8515050Y-6060000D01*
X8515050Y-6020000D02*
X8475050Y-6060000D01*
X8520000Y-7410000D02*
X8560000Y-7450000D01*
X8560000Y-7410000D02*
X8520000Y-7450000D01*
X8550000Y-7760000D02*
X8590000Y-7800000D01*
X8590000Y-7760000D02*
X8550000Y-7800000D01*
X8590000Y-8400000D02*
X8630000Y-8440000D01*
X8630000Y-8400000D02*
X8590000Y-8440000D01*
X8600000Y-9390000D02*
X8640000Y-9430000D01*
X8640000Y-9390000D02*
X8600000Y-9430000D01*
X8610000Y-7490000D02*
X8650000Y-7530000D01*
X8650000Y-7490000D02*
X8610000Y-7530000D01*
X8710000Y-6020000D02*
X8750000Y-6060000D01*
X8750000Y-6020000D02*
X8710000Y-6060000D01*
X8770000Y-9770000D02*
X8810000Y-9810000D01*
X8810000Y-9770000D02*
X8770000Y-9810000D01*
X8780000Y-8140000D02*
X8820000Y-8180000D01*
X8820000Y-8140000D02*
X8780000Y-8180000D01*
X8888015Y-8207450D02*
X8928015Y-8247450D01*
X8928015Y-8207450D02*
X8888015Y-8247450D01*
X8890000Y-6670000D02*
X8930000Y-6710000D01*
X8930000Y-6670000D02*
X8890000Y-6710000D01*
X8890000Y-7420000D02*
X8930000Y-7460000D01*
X8930000Y-7420000D02*
X8890000Y-7460000D01*
X8890000Y-8640000D02*
X8930000Y-8680000D01*
X8930000Y-8640000D02*
X8890000Y-8680000D01*
X8970000Y-8770000D02*
X9010000Y-8810000D01*
X9010000Y-8770000D02*
X8970000Y-8810000D01*
X9140000Y-12000000D02*
X9180000Y-12040000D01*
X9180000Y-12000000D02*
X9140000Y-12040000D01*
X9470000Y-8150000D02*
X9510000Y-8190000D01*
X9510000Y-8150000D02*
X9470000Y-8190000D01*
X9470000Y-9300000D02*
X9510000Y-9340000D01*
X9510000Y-9300000D02*
X9470000Y-9340000D01*
X9500000Y-9730000D02*
X9540000Y-9770000D01*
X9540000Y-9730000D02*
X9500000Y-9770000D01*
X9570000Y-11290000D02*
X9610000Y-11330000D01*
X9610000Y-11290000D02*
X9570000Y-11330000D01*
X9630000Y-11060000D02*
X9670000Y-11100000D01*
X9670000Y-11060000D02*
X9630000Y-11100000D01*
X9648561Y-10852550D02*
X9688561Y-10892550D01*
X9688561Y-10852550D02*
X9648561Y-10892550D01*
X9730000Y-11360000D02*
X9770000Y-11400000D01*
X9770000Y-11360000D02*
X9730000Y-11400000D01*
X10001351Y-9684378D02*
X10041351Y-9724378D01*
X10041351Y-9684378D02*
X10001351Y-9724378D01*
X10130000Y-10635000D02*
X10170000Y-10675000D01*
X10170000Y-10635000D02*
X10130000Y-10675000D01*
X10130000Y-9242550D02*
X10170000Y-9282550D01*
X10170000Y-9242550D02*
X10130000Y-9282550D01*
X10230000Y-12540000D02*
X10270000Y-12580000D01*
X10270000Y-12540000D02*
X10230000Y-12580000D01*
X10250000Y-10635000D02*
X10290000Y-10675000D01*
X10290000Y-10635000D02*
X10250000Y-10675000D01*
X10250000Y-10810000D02*
X10290000Y-10850000D01*
X10290000Y-10810000D02*
X10250000Y-10850000D01*
X10390000Y-9200000D02*
X10430000Y-9240000D01*
X10430000Y-9200000D02*
X10390000Y-9240000D01*
X10490000Y-8670000D02*
X10530000Y-8710000D01*
X10530000Y-8670000D02*
X10490000Y-8710000D01*
X10500000Y-10940000D02*
X10540000Y-10980000D01*
X10540000Y-10940000D02*
X10500000Y-10980000D01*
X10585100Y-9060000D02*
X10625100Y-9100000D01*
X10625100Y-9060000D02*
X10585100Y-9100000D01*
X10585100Y-9950000D02*
X10625100Y-9990000D01*
X10625100Y-9950000D02*
X10585100Y-9990000D01*
X10590000Y-6410000D02*
X10630000Y-6450000D01*
X10630000Y-6410000D02*
X10590000Y-6450000D01*
X10590000Y-11310000D02*
X10630000Y-11350000D01*
X10630000Y-11310000D02*
X10590000Y-11350000D01*
X10640000Y-10730000D02*
X10680000Y-10770000D01*
X10680000Y-10730000D02*
X10640000Y-10770000D01*
X10642550Y-9521267D02*
X10682550Y-9561267D01*
X10682550Y-9521267D02*
X10642550Y-9561267D01*
X10660000Y-10020000D02*
X10700000Y-10060000D01*
X10700000Y-10020000D02*
X10660000Y-10060000D01*
X10670000Y-6270000D02*
X10710000Y-6310000D01*
X10710000Y-6270000D02*
X10670000Y-6310000D01*
X10670000Y-8970000D02*
X10710000Y-9010000D01*
X10710000Y-8970000D02*
X10670000Y-9010000D01*
X10680000Y-12098764D02*
X10720000Y-12138764D01*
X10720000Y-12098764D02*
X10680000Y-12138764D01*
X10690000Y-11840000D02*
X10730000Y-11880000D01*
X10730000Y-11840000D02*
X10690000Y-11880000D01*
X10700000Y-9450000D02*
X10740000Y-9490000D01*
X10740000Y-9450000D02*
X10700000Y-9490000D01*
X10720000Y-11200000D02*
X10760000Y-11240000D01*
X10760000Y-11200000D02*
X10720000Y-11240000D01*
X10731128Y-6672374D02*
X10771128Y-6712374D01*
X10771128Y-6672374D02*
X10731128Y-6712374D01*
X10740000Y-8640000D02*
X10780000Y-8680000D01*
X10780000Y-8640000D02*
X10740000Y-8680000D01*
X10742550Y-8870000D02*
X10782550Y-8910000D01*
X10782550Y-8870000D02*
X10742550Y-8910000D01*
X10757450Y-9722367D02*
X10797450Y-9762367D01*
X10797450Y-9722367D02*
X10757450Y-9762367D01*
X10757450Y-9955322D02*
X10797450Y-9995322D01*
X10797450Y-9955322D02*
X10757450Y-9995322D01*
X10780000Y-10250000D02*
X10820000Y-10290000D01*
X10820000Y-10250000D02*
X10780000Y-10290000D01*
X10790000Y-11350000D02*
X10830000Y-11390000D01*
X10830000Y-11350000D02*
X10790000Y-11390000D01*
X10800000Y-8320000D02*
X10840000Y-8360000D01*
X10840000Y-8320000D02*
X10800000Y-8360000D01*
X10825787Y-8610000D02*
X10865787Y-8650000D01*
X10865787Y-8610000D02*
X10825787Y-8650000D01*
X10836006Y-9907450D02*
X10876006Y-9947450D01*
X10876006Y-9907450D02*
X10836006Y-9947450D01*
X10866453Y-9786368D02*
X10906453Y-9826368D01*
X10906453Y-9786368D02*
X10866453Y-9826368D01*
X10870000Y-11160000D02*
X10910000Y-11200000D01*
X10910000Y-11160000D02*
X10870000Y-11200000D01*
X10870000Y-11470000D02*
X10910000Y-11510000D01*
X10910000Y-11470000D02*
X10870000Y-11510000D01*
X10890000Y-8540000D02*
X10930000Y-8580000D01*
X10930000Y-8540000D02*
X10890000Y-8580000D01*
X10897450Y-8247345D02*
X10937450Y-8287345D01*
X10937450Y-8247345D02*
X10897450Y-8287345D01*
X10947450Y-8325530D02*
X10987450Y-8365530D01*
X10987450Y-8325530D02*
X10947450Y-8365530D01*
X10990000Y-12100000D02*
X11030000Y-12140000D01*
X11030000Y-12100000D02*
X10990000Y-12140000D01*
X11003020Y-8542550D02*
X11043020Y-8582550D01*
X11043020Y-8542550D02*
X11003020Y-8582550D01*
X11005960Y-9577450D02*
X11045960Y-9617450D01*
X11045960Y-9577450D02*
X11005960Y-9617450D01*
X11010000Y-10310000D02*
X11050000Y-10350000D01*
X11050000Y-10310000D02*
X11010000Y-10350000D01*
X11020000Y-9450000D02*
X11060000Y-9490000D01*
X11060000Y-9450000D02*
X11020000Y-9490000D01*
X11027550Y-11249708D02*
X11067550Y-11289708D01*
X11067550Y-11249708D02*
X11027550Y-11289708D01*
X11040000Y-8340000D02*
X11080000Y-8380000D01*
X11080000Y-8340000D02*
X11040000Y-8380000D01*
X11060000Y-10670000D02*
X11100000Y-10710000D01*
X11100000Y-10670000D02*
X11060000Y-10710000D01*
X11060000Y-10880000D02*
X11100000Y-10920000D01*
X11100000Y-10880000D02*
X11060000Y-10920000D01*
X11069983Y-8802550D02*
X11109983Y-8842550D01*
X11109983Y-8802550D02*
X11069983Y-8842550D01*
X11076622Y-12152450D02*
X11116622Y-12192450D01*
X11116622Y-12152450D02*
X11076622Y-12192450D01*
X11080000Y-11710000D02*
X11120000Y-11750000D01*
X11120000Y-11710000D02*
X11080000Y-11750000D01*
X11130000Y-10200000D02*
X11170000Y-10240000D01*
X11170000Y-10200000D02*
X11130000Y-10240000D01*
X11130000Y-10510000D02*
X11170000Y-10550000D01*
X11170000Y-10510000D02*
X11130000Y-10550000D01*
X11130000Y-10950000D02*
X11170000Y-10990000D01*
X11170000Y-10950000D02*
X11130000Y-10990000D01*
X11140000Y-12060000D02*
X11180000Y-12100000D01*
X11180000Y-12060000D02*
X11140000Y-12100000D01*
X11163464Y-9811918D02*
X11203463Y-9851918D01*
X11203463Y-9811918D02*
X11163464Y-9851918D01*
X11170000Y-8320000D02*
X11210000Y-8360000D01*
X11210000Y-8320000D02*
X11170000Y-8360000D01*
X11180000Y-9240000D02*
X11220000Y-9280000D01*
X11220000Y-9240000D02*
X11180000Y-9280000D01*
X11240000Y-9407400D02*
X11280000Y-9447400D01*
X11280000Y-9407400D02*
X11240000Y-9447400D01*
X11240000Y-12070000D02*
X11280000Y-12110000D01*
X11280000Y-12070000D02*
X11240000Y-12110000D01*
X11260000Y-11020000D02*
X11300000Y-11060000D01*
X11300000Y-11020000D02*
X11260000Y-11060000D01*
X11276225Y-10521799D02*
X11316225Y-10561799D01*
X11316225Y-10521799D02*
X11276225Y-10561799D01*
X11276908Y-8917450D02*
X11316908Y-8957450D01*
X11316908Y-8917450D02*
X11276908Y-8957450D01*
X11293659Y-11878390D02*
X11333659Y-11918390D01*
X11333659Y-11878390D02*
X11293659Y-11918390D01*
X11340000Y-10850000D02*
X11380000Y-10890000D01*
X11380000Y-10850000D02*
X11340000Y-10890000D01*
X11350000Y-12140000D02*
X11390000Y-12180000D01*
X11390000Y-12140000D02*
X11350000Y-12180000D01*
X11380000Y-9727450D02*
X11420000Y-9767450D01*
X11420000Y-9727450D02*
X11380000Y-9767450D01*
X11380000Y-11530000D02*
X11420000Y-11570000D01*
X11420000Y-11530000D02*
X11380000Y-11570000D01*
X11380000Y-11620000D02*
X11420000Y-11660000D01*
X11420000Y-11620000D02*
X11380000Y-11660000D01*
X11444973Y-8917450D02*
X11484973Y-8957450D01*
X11484973Y-8917450D02*
X11444973Y-8957450D01*
X11450000Y-9390000D02*
X11490000Y-9430000D01*
X11490000Y-9390000D02*
X11450000Y-9430000D01*
X11500000Y-10850000D02*
X11540000Y-10890000D01*
X11540000Y-10850000D02*
X11500000Y-10890000D01*
X11550000Y-8460000D02*
X11590000Y-8500000D01*
X11590000Y-8460000D02*
X11550000Y-8500000D01*
X11550000Y-9200000D02*
X11590000Y-9240000D01*
X11590000Y-9200000D02*
X11550000Y-9240000D01*
X11560000Y-8330000D02*
X11600000Y-8370000D01*
X11600000Y-8330000D02*
X11560000Y-8370000D01*
X11610000Y-9670000D02*
X11650000Y-9710000D01*
X11650000Y-9670000D02*
X11610000Y-9710000D01*
X11620000Y-10510000D02*
X11660000Y-10550000D01*
X11660000Y-10510000D02*
X11620000Y-10550000D01*
X11630000Y-8667450D02*
X11670000Y-8707450D01*
X11670000Y-8667450D02*
X11630000Y-8707450D01*
X11630000Y-10890000D02*
X11670000Y-10930000D01*
X11670000Y-10890000D02*
X11630000Y-10930000D01*
X11670000Y-6490000D02*
X11710000Y-6530000D01*
X11710000Y-6490000D02*
X11670000Y-6530000D01*
X11670000Y-6600000D02*
X11710000Y-6640000D01*
X11710000Y-6600000D02*
X11670000Y-6640000D01*
X11670000Y-11160000D02*
X11710000Y-11200000D01*
X11710000Y-11160000D02*
X11670000Y-11200000D01*
X11670000Y-11520000D02*
X11710000Y-11560000D01*
X11710000Y-11520000D02*
X11670000Y-11560000D01*
X11680000Y-9770000D02*
X11720000Y-9810000D01*
X11720000Y-9770000D02*
X11680000Y-9810000D01*
X11690000Y-6940000D02*
X11730000Y-6980000D01*
X11730000Y-6940000D02*
X11690000Y-6980000D01*
X11690000Y-8810000D02*
X11730000Y-8850000D01*
X11730000Y-8810000D02*
X11690000Y-8850000D01*
X11700000Y-9380000D02*
X11740000Y-9420000D01*
X11740000Y-9380000D02*
X11700000Y-9420000D01*
X11770000Y-5920000D02*
X11810000Y-5960000D01*
X11810000Y-5920000D02*
X11770000Y-5960000D01*
X11780000Y-6180000D02*
X11820000Y-6220000D01*
X11820000Y-6180000D02*
X11780000Y-6220000D01*
X11790000Y-11020000D02*
X11830000Y-11060000D01*
X11830000Y-11020000D02*
X11790000Y-11060000D01*
X11790000Y-11520000D02*
X11830000Y-11560000D01*
X11830000Y-11520000D02*
X11790000Y-11560000D01*
X11840000Y-8740000D02*
X11880000Y-8780000D01*
X11880000Y-8740000D02*
X11840000Y-8780000D01*
X11840000Y-9570000D02*
X11880000Y-9610000D01*
X11880000Y-9570000D02*
X11840000Y-9610000D01*
X11910000Y-10990000D02*
X11950000Y-11030000D01*
X11950000Y-10990000D02*
X11910000Y-11030000D01*
X11910000Y-11740000D02*
X11950000Y-11780000D01*
X11950000Y-11740000D02*
X11910000Y-11780000D01*
X11960000Y-12545000D02*
X12000000Y-12585000D01*
X12000000Y-12545000D02*
X11960000Y-12585000D01*
X12000000Y-11980000D02*
X12040000Y-12020000D01*
X12040000Y-11980000D02*
X12000000Y-12020000D01*
X12140000Y-8532550D02*
X12180000Y-8572550D01*
X12180000Y-8532550D02*
X12140000Y-8572550D01*
X12140000Y-10060000D02*
X12180000Y-10100000D01*
X12180000Y-10060000D02*
X12140000Y-10100000D01*
X12230000Y-8490000D02*
X12270000Y-8530000D01*
X12270000Y-8490000D02*
X12230000Y-8530000D01*
X12230000Y-10150000D02*
X12270000Y-10190000D01*
X12270000Y-10150000D02*
X12230000Y-10190000D01*
X14340000Y-9910000D02*
X14380000Y-9950000D01*
X14380000Y-9910000D02*
X14340000Y-9950000D01*
X14370000Y-10570000D02*
X14410000Y-10610000D01*
X14410000Y-10570000D02*
X14370000Y-10610000D01*
X14400000Y-8710000D02*
X14440000Y-8750000D01*
X14440000Y-8710000D02*
X14400000Y-8750000D01*
X14410000Y-8870000D02*
X14450000Y-8910000D01*
X14450000Y-8870000D02*
X14410000Y-8910000D01*
X14600000Y-10290000D02*
X14640000Y-10330000D01*
X14640000Y-10290000D02*
X14600000Y-10330000D01*
X14780000Y-10600000D02*
X14820000Y-10640000D01*
X14820000Y-10600000D02*
X14780000Y-10640000D01*
X14890000Y-10360000D02*
X14930000Y-10400000D01*
X14930000Y-10360000D02*
X14890000Y-10400000D01*
X15010000Y-10190000D02*
X15050000Y-10230000D01*
X15050000Y-10190000D02*
X15010000Y-10230000D01*
X15020000Y-8920000D02*
X15060000Y-8960000D01*
X15060000Y-8920000D02*
X15020000Y-8960000D01*
D13*
X7485000Y-10587500D02*
G75*
G03*
X7485000Y-10587500I-25000J0D01*
G01*
X7485000Y-10712500D02*
G75*
G03*
X7485000Y-10712500I-25000J0D01*
G01*
D14*
X8130000Y-6710000D02*
X8130000Y-6770000D01*
X8100000Y-6740000D02*
X8160000Y-6740000D01*
X8963232Y-10730000D02*
X8963232Y-10790000D01*
X8933232Y-10760000D02*
X8993232Y-10760000D01*
X8963232Y-10980000D02*
X8963232Y-11040000D01*
X8933232Y-11010000D02*
X8993232Y-11010000D01*
D15*
X8824749Y-12214749D02*
X8824749Y-12165251D01*
X8775251Y-12165251D01*
X8775251Y-12214749D01*
X8824749Y-12214749D01*
X9074749Y-12214749D02*
X9074749Y-12165251D01*
X9025251Y-12165251D01*
X9025251Y-12214749D01*
X9074749Y-12214749D01*
X9324749Y-12214749D02*
X9324749Y-12165251D01*
X9275251Y-12165251D01*
X9275251Y-12214749D01*
X9324749Y-12214749D01*
D16*
X10860000Y-12325000D02*
X10905000Y-12280000D01*
X10860000Y-12235000D01*
X10815000Y-12280000D01*
X10860000Y-12325000D01*
X11360000Y-12325000D02*
X11405000Y-12280000D01*
X11360000Y-12235000D01*
X11315000Y-12280000D01*
X11360000Y-12325000D01*
D10*
X7710000Y-8366768D02*
X7810000Y-8466768D01*
X7810000Y-8366768D02*
X7710000Y-8466768D01*
X7810000Y-8416768D02*
G75*
G03*
X7810000Y-8416768I-50000J0D01*
G01*
X7710000Y-8866768D02*
X7810000Y-8966768D01*
X7810000Y-8866768D02*
X7710000Y-8966768D01*
X7810000Y-8916768D02*
G75*
G03*
X7810000Y-8916768I-50000J0D01*
G01*
X7896768Y-7140000D02*
X7996768Y-7240000D01*
X7996768Y-7140000D02*
X7896768Y-7240000D01*
X7996768Y-7190000D02*
G75*
G03*
X7996768Y-7190000I-50000J0D01*
G01*
X7920000Y-11134500D02*
X8020000Y-11234500D01*
X8020000Y-11134500D02*
X7920000Y-11234500D01*
X8020000Y-11184500D02*
G75*
G03*
X8020000Y-11184500I-50000J0D01*
G01*
X7920000Y-11388500D02*
X8020000Y-11488500D01*
X8020000Y-11388500D02*
X7920000Y-11488500D01*
X8020000Y-11438500D02*
G75*
G03*
X8020000Y-11438500I-50000J0D01*
G01*
X7920000Y-11642500D02*
X8020000Y-11742500D01*
X8020000Y-11642500D02*
X7920000Y-11742500D01*
X8020000Y-11692500D02*
G75*
G03*
X8020000Y-11692500I-50000J0D01*
G01*
X8396768Y-7140000D02*
X8496768Y-7240000D01*
X8496768Y-7140000D02*
X8396768Y-7240000D01*
X8496768Y-7190000D02*
G75*
G03*
X8496768Y-7190000I-50000J0D01*
G01*
X8400000Y-8742500D02*
X8500000Y-8842500D01*
X8500000Y-8742500D02*
X8400000Y-8842500D01*
X8500000Y-8792500D02*
G75*
G03*
X8500000Y-8792500I-50000J0D01*
G01*
X8400000Y-8996500D02*
X8500000Y-9096500D01*
X8500000Y-8996500D02*
X8400000Y-9096500D01*
X8500000Y-9046500D02*
G75*
G03*
X8500000Y-9046500I-50000J0D01*
G01*
X8400000Y-9250500D02*
X8500000Y-9350500D01*
X8500000Y-9250500D02*
X8400000Y-9350500D01*
X8500000Y-9300500D02*
G75*
G03*
X8500000Y-9300500I-50000J0D01*
G01*
X8400000Y-9504500D02*
X8500000Y-9604500D01*
X8500000Y-9504500D02*
X8400000Y-9604500D01*
X8500000Y-9554500D02*
G75*
G03*
X8500000Y-9554500I-50000J0D01*
G01*
X8400000Y-9758500D02*
X8500000Y-9858500D01*
X8500000Y-9758500D02*
X8400000Y-9858500D01*
X8500000Y-9808500D02*
G75*
G03*
X8500000Y-9808500I-50000J0D01*
G01*
X8400000Y-10012500D02*
X8500000Y-10112500D01*
X8500000Y-10012500D02*
X8400000Y-10112500D01*
X8500000Y-10062500D02*
G75*
G03*
X8500000Y-10062500I-50000J0D01*
G01*
X8400000Y-10266500D02*
X8500000Y-10366500D01*
X8500000Y-10266500D02*
X8400000Y-10366500D01*
X8500000Y-10316500D02*
G75*
G03*
X8500000Y-10316500I-50000J0D01*
G01*
X8400000Y-10520500D02*
X8500000Y-10620500D01*
X8500000Y-10520500D02*
X8400000Y-10620500D01*
X8500000Y-10570500D02*
G75*
G03*
X8500000Y-10570500I-50000J0D01*
G01*
X8830000Y-9460000D02*
X8930000Y-9560000D01*
X8930000Y-9460000D02*
X8830000Y-9560000D01*
X8930000Y-9510000D02*
G75*
G03*
X8930000Y-9510000I-50000J0D01*
G01*
X8913232Y-10230000D02*
X9013232Y-10330000D01*
X9013232Y-10230000D02*
X8913232Y-10330000D01*
X9013232Y-10280000D02*
G75*
G03*
X9013232Y-10280000I-50000J0D01*
G01*
X9084000Y-9460000D02*
X9184000Y-9560000D01*
X9184000Y-9460000D02*
X9084000Y-9560000D01*
X9184000Y-9510000D02*
G75*
G03*
X9184000Y-9510000I-50000J0D01*
G01*
X9338000Y-9460000D02*
X9438000Y-9560000D01*
X9438000Y-9460000D02*
X9338000Y-9560000D01*
X9438000Y-9510000D02*
G75*
G03*
X9438000Y-9510000I-50000J0D01*
G01*
X9413232Y-10230000D02*
X9513232Y-10330000D01*
X9513232Y-10230000D02*
X9413232Y-10330000D01*
X9513232Y-10280000D02*
G75*
G03*
X9513232Y-10280000I-50000J0D01*
G01*
X9592000Y-9460000D02*
X9692000Y-9560000D01*
X9692000Y-9460000D02*
X9592000Y-9560000D01*
X9692000Y-9510000D02*
G75*
G03*
X9692000Y-9510000I-50000J0D01*
G01*
X9602000Y-8980000D02*
X9702000Y-9080000D01*
X9702000Y-8980000D02*
X9602000Y-9080000D01*
X9702000Y-9030000D02*
G75*
G03*
X9702000Y-9030000I-50000J0D01*
G01*
X9732000Y-8480000D02*
X9832000Y-8580000D01*
X9832000Y-8480000D02*
X9732000Y-8580000D01*
X9832000Y-8530000D02*
G75*
G03*
X9832000Y-8530000I-50000J0D01*
G01*
X9846000Y-9460000D02*
X9946000Y-9560000D01*
X9946000Y-9460000D02*
X9846000Y-9560000D01*
X9946000Y-9510000D02*
G75*
G03*
X9946000Y-9510000I-50000J0D01*
G01*
X9856000Y-8980000D02*
X9956000Y-9080000D01*
X9956000Y-8980000D02*
X9856000Y-9080000D01*
X9956000Y-9030000D02*
G75*
G03*
X9956000Y-9030000I-50000J0D01*
G01*
X9986000Y-8480000D02*
X10086000Y-8580000D01*
X10086000Y-8480000D02*
X9986000Y-8580000D01*
X10086000Y-8530000D02*
G75*
G03*
X10086000Y-8530000I-50000J0D01*
G01*
X10100000Y-9460000D02*
X10200000Y-9560000D01*
X10200000Y-9460000D02*
X10100000Y-9560000D01*
X10200000Y-9510000D02*
G75*
G03*
X10200000Y-9510000I-50000J0D01*
G01*
X10110000Y-8980000D02*
X10210000Y-9080000D01*
X10210000Y-8980000D02*
X10110000Y-9080000D01*
X10210000Y-9030000D02*
G75*
G03*
X10210000Y-9030000I-50000J0D01*
G01*
X10240000Y-8480000D02*
X10340000Y-8580000D01*
X10340000Y-8480000D02*
X10240000Y-8580000D01*
X10340000Y-8530000D02*
G75*
G03*
X10340000Y-8530000I-50000J0D01*
G01*
X10354000Y-9460000D02*
X10454000Y-9560000D01*
X10454000Y-9460000D02*
X10354000Y-9560000D01*
X10454000Y-9510000D02*
G75*
G03*
X10454000Y-9510000I-50000J0D01*
G01*
X10364000Y-8980000D02*
X10464000Y-9080000D01*
X10464000Y-8980000D02*
X10364000Y-9080000D01*
X10464000Y-9030000D02*
G75*
G03*
X10464000Y-9030000I-50000J0D01*
G01*
D17*
X10700000Y-12490000D02*
X10820000Y-12610000D01*
X10820000Y-12490000D02*
X10700000Y-12610000D01*
X10760000Y-12490000D02*
X10760000Y-12610000D01*
X10700000Y-12550000D02*
X10820000Y-12550000D01*
X11400000Y-12490000D02*
X11520000Y-12610000D01*
X11520000Y-12490000D02*
X11400000Y-12610000D01*
X11460000Y-12490000D02*
X11460000Y-12610000D01*
X11400000Y-12550000D02*
X11520000Y-12550000D01*
D11*
X7102619Y-13017524D02*
X7102619Y-12817524D01*
X7102619Y-12817524D02*
X7150238Y-12817524D01*
X7150238Y-12817524D02*
X7178809Y-12827048D01*
X7178809Y-12827048D02*
X7197857Y-12846095D01*
X7197857Y-12846095D02*
X7207381Y-12865143D01*
X7207381Y-12865143D02*
X7216905Y-12903238D01*
X7216905Y-12903238D02*
X7216905Y-12931809D01*
X7216905Y-12931809D02*
X7207381Y-12969905D01*
X7207381Y-12969905D02*
X7197857Y-12988952D01*
X7197857Y-12988952D02*
X7178809Y-13008000D01*
X7178809Y-13008000D02*
X7150238Y-13017524D01*
X7150238Y-13017524D02*
X7102619Y-13017524D01*
X7302619Y-13017524D02*
X7302619Y-12884190D01*
X7302619Y-12922286D02*
X7312143Y-12903238D01*
X7312143Y-12903238D02*
X7321667Y-12893714D01*
X7321667Y-12893714D02*
X7340714Y-12884190D01*
X7340714Y-12884190D02*
X7359762Y-12884190D01*
X7426428Y-13017524D02*
X7426428Y-12884190D01*
X7426428Y-12817524D02*
X7416905Y-12827048D01*
X7416905Y-12827048D02*
X7426428Y-12836571D01*
X7426428Y-12836571D02*
X7435952Y-12827048D01*
X7435952Y-12827048D02*
X7426428Y-12817524D01*
X7426428Y-12817524D02*
X7426428Y-12836571D01*
X7550238Y-13017524D02*
X7531190Y-13008000D01*
X7531190Y-13008000D02*
X7521667Y-12988952D01*
X7521667Y-12988952D02*
X7521667Y-12817524D01*
X7655000Y-13017524D02*
X7635952Y-13008000D01*
X7635952Y-13008000D02*
X7626428Y-12988952D01*
X7626428Y-12988952D02*
X7626428Y-12817524D01*
X7883571Y-13017524D02*
X7883571Y-12817524D01*
X7883571Y-12817524D02*
X7950238Y-12960381D01*
X7950238Y-12960381D02*
X8016905Y-12817524D01*
X8016905Y-12817524D02*
X8016905Y-13017524D01*
X8197857Y-13017524D02*
X8197857Y-12912762D01*
X8197857Y-12912762D02*
X8188333Y-12893714D01*
X8188333Y-12893714D02*
X8169286Y-12884190D01*
X8169286Y-12884190D02*
X8131190Y-12884190D01*
X8131190Y-12884190D02*
X8112143Y-12893714D01*
X8197857Y-13008000D02*
X8178809Y-13017524D01*
X8178809Y-13017524D02*
X8131190Y-13017524D01*
X8131190Y-13017524D02*
X8112143Y-13008000D01*
X8112143Y-13008000D02*
X8102619Y-12988952D01*
X8102619Y-12988952D02*
X8102619Y-12969905D01*
X8102619Y-12969905D02*
X8112143Y-12950857D01*
X8112143Y-12950857D02*
X8131190Y-12941333D01*
X8131190Y-12941333D02*
X8178809Y-12941333D01*
X8178809Y-12941333D02*
X8197857Y-12931809D01*
X8293095Y-12884190D02*
X8293095Y-13084190D01*
X8293095Y-12893714D02*
X8312143Y-12884190D01*
X8312143Y-12884190D02*
X8350238Y-12884190D01*
X8350238Y-12884190D02*
X8369286Y-12893714D01*
X8369286Y-12893714D02*
X8378809Y-12903238D01*
X8378809Y-12903238D02*
X8388333Y-12922286D01*
X8388333Y-12922286D02*
X8388333Y-12979428D01*
X8388333Y-12979428D02*
X8378809Y-12998476D01*
X8378809Y-12998476D02*
X8369286Y-13008000D01*
X8369286Y-13008000D02*
X8350238Y-13017524D01*
X8350238Y-13017524D02*
X8312143Y-13017524D01*
X8312143Y-13017524D02*
X8293095Y-13008000D01*
X8474048Y-12998476D02*
X8483571Y-13008000D01*
X8483571Y-13008000D02*
X8474048Y-13017524D01*
X8474048Y-13017524D02*
X8464524Y-13008000D01*
X8464524Y-13008000D02*
X8474048Y-12998476D01*
X8474048Y-12998476D02*
X8474048Y-13017524D01*
X8474048Y-12893714D02*
X8483571Y-12903238D01*
X8483571Y-12903238D02*
X8474048Y-12912762D01*
X8474048Y-12912762D02*
X8464524Y-12903238D01*
X8464524Y-12903238D02*
X8474048Y-12893714D01*
X8474048Y-12893714D02*
X8474048Y-12912762D01*
D12*
X6815000Y-13325000D02*
X6855000Y-13365000D01*
X6855000Y-13325000D02*
X6815000Y-13365000D01*
D11*
X7140714Y-13237524D02*
X7159762Y-13237524D01*
X7159762Y-13237524D02*
X7178809Y-13247048D01*
X7178809Y-13247048D02*
X7188333Y-13256571D01*
X7188333Y-13256571D02*
X7197857Y-13275619D01*
X7197857Y-13275619D02*
X7207381Y-13313714D01*
X7207381Y-13313714D02*
X7207381Y-13361333D01*
X7207381Y-13361333D02*
X7197857Y-13399428D01*
X7197857Y-13399428D02*
X7188333Y-13418476D01*
X7188333Y-13418476D02*
X7178809Y-13428000D01*
X7178809Y-13428000D02*
X7159762Y-13437524D01*
X7159762Y-13437524D02*
X7140714Y-13437524D01*
X7140714Y-13437524D02*
X7121667Y-13428000D01*
X7121667Y-13428000D02*
X7112143Y-13418476D01*
X7112143Y-13418476D02*
X7102619Y-13399428D01*
X7102619Y-13399428D02*
X7093095Y-13361333D01*
X7093095Y-13361333D02*
X7093095Y-13313714D01*
X7093095Y-13313714D02*
X7102619Y-13275619D01*
X7102619Y-13275619D02*
X7112143Y-13256571D01*
X7112143Y-13256571D02*
X7121667Y-13247048D01*
X7121667Y-13247048D02*
X7140714Y-13237524D01*
X7293095Y-13418476D02*
X7302619Y-13428000D01*
X7302619Y-13428000D02*
X7293095Y-13437524D01*
X7293095Y-13437524D02*
X7283571Y-13428000D01*
X7283571Y-13428000D02*
X7293095Y-13418476D01*
X7293095Y-13418476D02*
X7293095Y-13437524D01*
X7474048Y-13304190D02*
X7474048Y-13437524D01*
X7426428Y-13228000D02*
X7378809Y-13370857D01*
X7378809Y-13370857D02*
X7502619Y-13370857D01*
X7616905Y-13237524D02*
X7635952Y-13237524D01*
X7635952Y-13237524D02*
X7655000Y-13247048D01*
X7655000Y-13247048D02*
X7664524Y-13256571D01*
X7664524Y-13256571D02*
X7674048Y-13275619D01*
X7674048Y-13275619D02*
X7683571Y-13313714D01*
X7683571Y-13313714D02*
X7683571Y-13361333D01*
X7683571Y-13361333D02*
X7674048Y-13399428D01*
X7674048Y-13399428D02*
X7664524Y-13418476D01*
X7664524Y-13418476D02*
X7655000Y-13428000D01*
X7655000Y-13428000D02*
X7635952Y-13437524D01*
X7635952Y-13437524D02*
X7616905Y-13437524D01*
X7616905Y-13437524D02*
X7597857Y-13428000D01*
X7597857Y-13428000D02*
X7588333Y-13418476D01*
X7588333Y-13418476D02*
X7578809Y-13399428D01*
X7578809Y-13399428D02*
X7569286Y-13361333D01*
X7569286Y-13361333D02*
X7569286Y-13313714D01*
X7569286Y-13313714D02*
X7578809Y-13275619D01*
X7578809Y-13275619D02*
X7588333Y-13256571D01*
X7588333Y-13256571D02*
X7597857Y-13247048D01*
X7597857Y-13247048D02*
X7616905Y-13237524D01*
X7807381Y-13237524D02*
X7826429Y-13237524D01*
X7826429Y-13237524D02*
X7845476Y-13247048D01*
X7845476Y-13247048D02*
X7855000Y-13256571D01*
X7855000Y-13256571D02*
X7864524Y-13275619D01*
X7864524Y-13275619D02*
X7874048Y-13313714D01*
X7874048Y-13313714D02*
X7874048Y-13361333D01*
X7874048Y-13361333D02*
X7864524Y-13399428D01*
X7864524Y-13399428D02*
X7855000Y-13418476D01*
X7855000Y-13418476D02*
X7845476Y-13428000D01*
X7845476Y-13428000D02*
X7826429Y-13437524D01*
X7826429Y-13437524D02*
X7807381Y-13437524D01*
X7807381Y-13437524D02*
X7788333Y-13428000D01*
X7788333Y-13428000D02*
X7778809Y-13418476D01*
X7778809Y-13418476D02*
X7769286Y-13399428D01*
X7769286Y-13399428D02*
X7759762Y-13361333D01*
X7759762Y-13361333D02*
X7759762Y-13313714D01*
X7759762Y-13313714D02*
X7769286Y-13275619D01*
X7769286Y-13275619D02*
X7778809Y-13256571D01*
X7778809Y-13256571D02*
X7788333Y-13247048D01*
X7788333Y-13247048D02*
X7807381Y-13237524D01*
X7959762Y-13437524D02*
X7959762Y-13304190D01*
X7959762Y-13323238D02*
X7969286Y-13313714D01*
X7969286Y-13313714D02*
X7988333Y-13304190D01*
X7988333Y-13304190D02*
X8016905Y-13304190D01*
X8016905Y-13304190D02*
X8035952Y-13313714D01*
X8035952Y-13313714D02*
X8045476Y-13332762D01*
X8045476Y-13332762D02*
X8045476Y-13437524D01*
X8045476Y-13332762D02*
X8055000Y-13313714D01*
X8055000Y-13313714D02*
X8074048Y-13304190D01*
X8074048Y-13304190D02*
X8102619Y-13304190D01*
X8102619Y-13304190D02*
X8121667Y-13313714D01*
X8121667Y-13313714D02*
X8131190Y-13332762D01*
X8131190Y-13332762D02*
X8131190Y-13437524D01*
X8226429Y-13437524D02*
X8226429Y-13304190D01*
X8226429Y-13323238D02*
X8235952Y-13313714D01*
X8235952Y-13313714D02*
X8255000Y-13304190D01*
X8255000Y-13304190D02*
X8283571Y-13304190D01*
X8283571Y-13304190D02*
X8302619Y-13313714D01*
X8302619Y-13313714D02*
X8312143Y-13332762D01*
X8312143Y-13332762D02*
X8312143Y-13437524D01*
X8312143Y-13332762D02*
X8321667Y-13313714D01*
X8321667Y-13313714D02*
X8340714Y-13304190D01*
X8340714Y-13304190D02*
X8369286Y-13304190D01*
X8369286Y-13304190D02*
X8388333Y-13313714D01*
X8388333Y-13313714D02*
X8397857Y-13332762D01*
X8397857Y-13332762D02*
X8397857Y-13437524D01*
X8788333Y-13228000D02*
X8616905Y-13485143D01*
X9045476Y-13237524D02*
X9064524Y-13237524D01*
X9064524Y-13237524D02*
X9083572Y-13247048D01*
X9083572Y-13247048D02*
X9093095Y-13256571D01*
X9093095Y-13256571D02*
X9102619Y-13275619D01*
X9102619Y-13275619D02*
X9112143Y-13313714D01*
X9112143Y-13313714D02*
X9112143Y-13361333D01*
X9112143Y-13361333D02*
X9102619Y-13399428D01*
X9102619Y-13399428D02*
X9093095Y-13418476D01*
X9093095Y-13418476D02*
X9083572Y-13428000D01*
X9083572Y-13428000D02*
X9064524Y-13437524D01*
X9064524Y-13437524D02*
X9045476Y-13437524D01*
X9045476Y-13437524D02*
X9026429Y-13428000D01*
X9026429Y-13428000D02*
X9016905Y-13418476D01*
X9016905Y-13418476D02*
X9007381Y-13399428D01*
X9007381Y-13399428D02*
X8997857Y-13361333D01*
X8997857Y-13361333D02*
X8997857Y-13313714D01*
X8997857Y-13313714D02*
X9007381Y-13275619D01*
X9007381Y-13275619D02*
X9016905Y-13256571D01*
X9016905Y-13256571D02*
X9026429Y-13247048D01*
X9026429Y-13247048D02*
X9045476Y-13237524D01*
X9197857Y-13418476D02*
X9207381Y-13428000D01*
X9207381Y-13428000D02*
X9197857Y-13437524D01*
X9197857Y-13437524D02*
X9188334Y-13428000D01*
X9188334Y-13428000D02*
X9197857Y-13418476D01*
X9197857Y-13418476D02*
X9197857Y-13437524D01*
X9331191Y-13237524D02*
X9350238Y-13237524D01*
X9350238Y-13237524D02*
X9369286Y-13247048D01*
X9369286Y-13247048D02*
X9378810Y-13256571D01*
X9378810Y-13256571D02*
X9388334Y-13275619D01*
X9388334Y-13275619D02*
X9397857Y-13313714D01*
X9397857Y-13313714D02*
X9397857Y-13361333D01*
X9397857Y-13361333D02*
X9388334Y-13399428D01*
X9388334Y-13399428D02*
X9378810Y-13418476D01*
X9378810Y-13418476D02*
X9369286Y-13428000D01*
X9369286Y-13428000D02*
X9350238Y-13437524D01*
X9350238Y-13437524D02*
X9331191Y-13437524D01*
X9331191Y-13437524D02*
X9312143Y-13428000D01*
X9312143Y-13428000D02*
X9302619Y-13418476D01*
X9302619Y-13418476D02*
X9293095Y-13399428D01*
X9293095Y-13399428D02*
X9283572Y-13361333D01*
X9283572Y-13361333D02*
X9283572Y-13313714D01*
X9283572Y-13313714D02*
X9293095Y-13275619D01*
X9293095Y-13275619D02*
X9302619Y-13256571D01*
X9302619Y-13256571D02*
X9312143Y-13247048D01*
X9312143Y-13247048D02*
X9331191Y-13237524D01*
X9588334Y-13437524D02*
X9474048Y-13437524D01*
X9531191Y-13437524D02*
X9531191Y-13237524D01*
X9531191Y-13237524D02*
X9512143Y-13266095D01*
X9512143Y-13266095D02*
X9493095Y-13285143D01*
X9493095Y-13285143D02*
X9474048Y-13294667D01*
X9769286Y-13237524D02*
X9674048Y-13237524D01*
X9674048Y-13237524D02*
X9664524Y-13332762D01*
X9664524Y-13332762D02*
X9674048Y-13323238D01*
X9674048Y-13323238D02*
X9693095Y-13313714D01*
X9693095Y-13313714D02*
X9740715Y-13313714D01*
X9740715Y-13313714D02*
X9759762Y-13323238D01*
X9759762Y-13323238D02*
X9769286Y-13332762D01*
X9769286Y-13332762D02*
X9778810Y-13351809D01*
X9778810Y-13351809D02*
X9778810Y-13399428D01*
X9778810Y-13399428D02*
X9769286Y-13418476D01*
X9769286Y-13418476D02*
X9759762Y-13428000D01*
X9759762Y-13428000D02*
X9740715Y-13437524D01*
X9740715Y-13437524D02*
X9693095Y-13437524D01*
X9693095Y-13437524D02*
X9674048Y-13428000D01*
X9674048Y-13428000D02*
X9664524Y-13418476D01*
X9845476Y-13237524D02*
X9978810Y-13237524D01*
X9978810Y-13237524D02*
X9893095Y-13437524D01*
X10045476Y-13237524D02*
X10045476Y-13275619D01*
X10121667Y-13237524D02*
X10121667Y-13275619D01*
X10416905Y-13513714D02*
X10407381Y-13504190D01*
X10407381Y-13504190D02*
X10388334Y-13475619D01*
X10388334Y-13475619D02*
X10378810Y-13456571D01*
X10378810Y-13456571D02*
X10369286Y-13428000D01*
X10369286Y-13428000D02*
X10359762Y-13380381D01*
X10359762Y-13380381D02*
X10359762Y-13342286D01*
X10359762Y-13342286D02*
X10369286Y-13294667D01*
X10369286Y-13294667D02*
X10378810Y-13266095D01*
X10378810Y-13266095D02*
X10388334Y-13247048D01*
X10388334Y-13247048D02*
X10407381Y-13218476D01*
X10407381Y-13218476D02*
X10416905Y-13208952D01*
X10597857Y-13437524D02*
X10483572Y-13437524D01*
X10540715Y-13437524D02*
X10540715Y-13237524D01*
X10540715Y-13237524D02*
X10521667Y-13266095D01*
X10521667Y-13266095D02*
X10502619Y-13285143D01*
X10502619Y-13285143D02*
X10483572Y-13294667D01*
X10664524Y-13237524D02*
X10788334Y-13237524D01*
X10788334Y-13237524D02*
X10721667Y-13313714D01*
X10721667Y-13313714D02*
X10750238Y-13313714D01*
X10750238Y-13313714D02*
X10769286Y-13323238D01*
X10769286Y-13323238D02*
X10778810Y-13332762D01*
X10778810Y-13332762D02*
X10788334Y-13351809D01*
X10788334Y-13351809D02*
X10788334Y-13399428D01*
X10788334Y-13399428D02*
X10778810Y-13418476D01*
X10778810Y-13418476D02*
X10769286Y-13428000D01*
X10769286Y-13428000D02*
X10750238Y-13437524D01*
X10750238Y-13437524D02*
X10693096Y-13437524D01*
X10693096Y-13437524D02*
X10674048Y-13428000D01*
X10674048Y-13428000D02*
X10664524Y-13418476D01*
X10959762Y-13237524D02*
X10921667Y-13237524D01*
X10921667Y-13237524D02*
X10902619Y-13247048D01*
X10902619Y-13247048D02*
X10893096Y-13256571D01*
X10893096Y-13256571D02*
X10874048Y-13285143D01*
X10874048Y-13285143D02*
X10864524Y-13323238D01*
X10864524Y-13323238D02*
X10864524Y-13399428D01*
X10864524Y-13399428D02*
X10874048Y-13418476D01*
X10874048Y-13418476D02*
X10883572Y-13428000D01*
X10883572Y-13428000D02*
X10902619Y-13437524D01*
X10902619Y-13437524D02*
X10940715Y-13437524D01*
X10940715Y-13437524D02*
X10959762Y-13428000D01*
X10959762Y-13428000D02*
X10969286Y-13418476D01*
X10969286Y-13418476D02*
X10978810Y-13399428D01*
X10978810Y-13399428D02*
X10978810Y-13351809D01*
X10978810Y-13351809D02*
X10969286Y-13332762D01*
X10969286Y-13332762D02*
X10959762Y-13323238D01*
X10959762Y-13323238D02*
X10940715Y-13313714D01*
X10940715Y-13313714D02*
X10902619Y-13313714D01*
X10902619Y-13313714D02*
X10883572Y-13323238D01*
X10883572Y-13323238D02*
X10874048Y-13332762D01*
X10874048Y-13332762D02*
X10864524Y-13351809D01*
X11216905Y-13437524D02*
X11216905Y-13237524D01*
X11302619Y-13437524D02*
X11302619Y-13332762D01*
X11302619Y-13332762D02*
X11293096Y-13313714D01*
X11293096Y-13313714D02*
X11274048Y-13304190D01*
X11274048Y-13304190D02*
X11245476Y-13304190D01*
X11245476Y-13304190D02*
X11226429Y-13313714D01*
X11226429Y-13313714D02*
X11216905Y-13323238D01*
X11426429Y-13437524D02*
X11407381Y-13428000D01*
X11407381Y-13428000D02*
X11397857Y-13418476D01*
X11397857Y-13418476D02*
X11388334Y-13399428D01*
X11388334Y-13399428D02*
X11388334Y-13342286D01*
X11388334Y-13342286D02*
X11397857Y-13323238D01*
X11397857Y-13323238D02*
X11407381Y-13313714D01*
X11407381Y-13313714D02*
X11426429Y-13304190D01*
X11426429Y-13304190D02*
X11455000Y-13304190D01*
X11455000Y-13304190D02*
X11474048Y-13313714D01*
X11474048Y-13313714D02*
X11483572Y-13323238D01*
X11483572Y-13323238D02*
X11493096Y-13342286D01*
X11493096Y-13342286D02*
X11493096Y-13399428D01*
X11493096Y-13399428D02*
X11483572Y-13418476D01*
X11483572Y-13418476D02*
X11474048Y-13428000D01*
X11474048Y-13428000D02*
X11455000Y-13437524D01*
X11455000Y-13437524D02*
X11426429Y-13437524D01*
X11607381Y-13437524D02*
X11588334Y-13428000D01*
X11588334Y-13428000D02*
X11578810Y-13408952D01*
X11578810Y-13408952D02*
X11578810Y-13237524D01*
X11759762Y-13428000D02*
X11740715Y-13437524D01*
X11740715Y-13437524D02*
X11702619Y-13437524D01*
X11702619Y-13437524D02*
X11683572Y-13428000D01*
X11683572Y-13428000D02*
X11674048Y-13408952D01*
X11674048Y-13408952D02*
X11674048Y-13332762D01*
X11674048Y-13332762D02*
X11683572Y-13313714D01*
X11683572Y-13313714D02*
X11702619Y-13304190D01*
X11702619Y-13304190D02*
X11740715Y-13304190D01*
X11740715Y-13304190D02*
X11759762Y-13313714D01*
X11759762Y-13313714D02*
X11769286Y-13332762D01*
X11769286Y-13332762D02*
X11769286Y-13351809D01*
X11769286Y-13351809D02*
X11674048Y-13370857D01*
X11845477Y-13428000D02*
X11864524Y-13437524D01*
X11864524Y-13437524D02*
X11902619Y-13437524D01*
X11902619Y-13437524D02*
X11921667Y-13428000D01*
X11921667Y-13428000D02*
X11931191Y-13408952D01*
X11931191Y-13408952D02*
X11931191Y-13399428D01*
X11931191Y-13399428D02*
X11921667Y-13380381D01*
X11921667Y-13380381D02*
X11902619Y-13370857D01*
X11902619Y-13370857D02*
X11874048Y-13370857D01*
X11874048Y-13370857D02*
X11855000Y-13361333D01*
X11855000Y-13361333D02*
X11845477Y-13342286D01*
X11845477Y-13342286D02*
X11845477Y-13332762D01*
X11845477Y-13332762D02*
X11855000Y-13313714D01*
X11855000Y-13313714D02*
X11874048Y-13304190D01*
X11874048Y-13304190D02*
X11902619Y-13304190D01*
X11902619Y-13304190D02*
X11921667Y-13313714D01*
X11997858Y-13513714D02*
X12007381Y-13504190D01*
X12007381Y-13504190D02*
X12026429Y-13475619D01*
X12026429Y-13475619D02*
X12035953Y-13456571D01*
X12035953Y-13456571D02*
X12045477Y-13428000D01*
X12045477Y-13428000D02*
X12055000Y-13380381D01*
X12055000Y-13380381D02*
X12055000Y-13342286D01*
X12055000Y-13342286D02*
X12045477Y-13294667D01*
X12045477Y-13294667D02*
X12035953Y-13266095D01*
X12035953Y-13266095D02*
X12026429Y-13247048D01*
X12026429Y-13247048D02*
X12007381Y-13218476D01*
X12007381Y-13218476D02*
X11997858Y-13208952D01*
D13*
X6855000Y-13609000D02*
G75*
G03*
X6855000Y-13609000I-25000J0D01*
G01*
D11*
X7140714Y-13501524D02*
X7159762Y-13501524D01*
X7159762Y-13501524D02*
X7178809Y-13511048D01*
X7178809Y-13511048D02*
X7188333Y-13520571D01*
X7188333Y-13520571D02*
X7197857Y-13539619D01*
X7197857Y-13539619D02*
X7207381Y-13577714D01*
X7207381Y-13577714D02*
X7207381Y-13625333D01*
X7207381Y-13625333D02*
X7197857Y-13663428D01*
X7197857Y-13663428D02*
X7188333Y-13682476D01*
X7188333Y-13682476D02*
X7178809Y-13692000D01*
X7178809Y-13692000D02*
X7159762Y-13701524D01*
X7159762Y-13701524D02*
X7140714Y-13701524D01*
X7140714Y-13701524D02*
X7121667Y-13692000D01*
X7121667Y-13692000D02*
X7112143Y-13682476D01*
X7112143Y-13682476D02*
X7102619Y-13663428D01*
X7102619Y-13663428D02*
X7093095Y-13625333D01*
X7093095Y-13625333D02*
X7093095Y-13577714D01*
X7093095Y-13577714D02*
X7102619Y-13539619D01*
X7102619Y-13539619D02*
X7112143Y-13520571D01*
X7112143Y-13520571D02*
X7121667Y-13511048D01*
X7121667Y-13511048D02*
X7140714Y-13501524D01*
X7293095Y-13682476D02*
X7302619Y-13692000D01*
X7302619Y-13692000D02*
X7293095Y-13701524D01*
X7293095Y-13701524D02*
X7283571Y-13692000D01*
X7283571Y-13692000D02*
X7293095Y-13682476D01*
X7293095Y-13682476D02*
X7293095Y-13701524D01*
X7483571Y-13501524D02*
X7388333Y-13501524D01*
X7388333Y-13501524D02*
X7378809Y-13596762D01*
X7378809Y-13596762D02*
X7388333Y-13587238D01*
X7388333Y-13587238D02*
X7407381Y-13577714D01*
X7407381Y-13577714D02*
X7455000Y-13577714D01*
X7455000Y-13577714D02*
X7474048Y-13587238D01*
X7474048Y-13587238D02*
X7483571Y-13596762D01*
X7483571Y-13596762D02*
X7493095Y-13615809D01*
X7493095Y-13615809D02*
X7493095Y-13663428D01*
X7493095Y-13663428D02*
X7483571Y-13682476D01*
X7483571Y-13682476D02*
X7474048Y-13692000D01*
X7474048Y-13692000D02*
X7455000Y-13701524D01*
X7455000Y-13701524D02*
X7407381Y-13701524D01*
X7407381Y-13701524D02*
X7388333Y-13692000D01*
X7388333Y-13692000D02*
X7378809Y-13682476D01*
X7616905Y-13501524D02*
X7635952Y-13501524D01*
X7635952Y-13501524D02*
X7655000Y-13511048D01*
X7655000Y-13511048D02*
X7664524Y-13520571D01*
X7664524Y-13520571D02*
X7674048Y-13539619D01*
X7674048Y-13539619D02*
X7683571Y-13577714D01*
X7683571Y-13577714D02*
X7683571Y-13625333D01*
X7683571Y-13625333D02*
X7674048Y-13663428D01*
X7674048Y-13663428D02*
X7664524Y-13682476D01*
X7664524Y-13682476D02*
X7655000Y-13692000D01*
X7655000Y-13692000D02*
X7635952Y-13701524D01*
X7635952Y-13701524D02*
X7616905Y-13701524D01*
X7616905Y-13701524D02*
X7597857Y-13692000D01*
X7597857Y-13692000D02*
X7588333Y-13682476D01*
X7588333Y-13682476D02*
X7578809Y-13663428D01*
X7578809Y-13663428D02*
X7569286Y-13625333D01*
X7569286Y-13625333D02*
X7569286Y-13577714D01*
X7569286Y-13577714D02*
X7578809Y-13539619D01*
X7578809Y-13539619D02*
X7588333Y-13520571D01*
X7588333Y-13520571D02*
X7597857Y-13511048D01*
X7597857Y-13511048D02*
X7616905Y-13501524D01*
X7807381Y-13501524D02*
X7826429Y-13501524D01*
X7826429Y-13501524D02*
X7845476Y-13511048D01*
X7845476Y-13511048D02*
X7855000Y-13520571D01*
X7855000Y-13520571D02*
X7864524Y-13539619D01*
X7864524Y-13539619D02*
X7874048Y-13577714D01*
X7874048Y-13577714D02*
X7874048Y-13625333D01*
X7874048Y-13625333D02*
X7864524Y-13663428D01*
X7864524Y-13663428D02*
X7855000Y-13682476D01*
X7855000Y-13682476D02*
X7845476Y-13692000D01*
X7845476Y-13692000D02*
X7826429Y-13701524D01*
X7826429Y-13701524D02*
X7807381Y-13701524D01*
X7807381Y-13701524D02*
X7788333Y-13692000D01*
X7788333Y-13692000D02*
X7778809Y-13682476D01*
X7778809Y-13682476D02*
X7769286Y-13663428D01*
X7769286Y-13663428D02*
X7759762Y-13625333D01*
X7759762Y-13625333D02*
X7759762Y-13577714D01*
X7759762Y-13577714D02*
X7769286Y-13539619D01*
X7769286Y-13539619D02*
X7778809Y-13520571D01*
X7778809Y-13520571D02*
X7788333Y-13511048D01*
X7788333Y-13511048D02*
X7807381Y-13501524D01*
X7959762Y-13701524D02*
X7959762Y-13568190D01*
X7959762Y-13587238D02*
X7969286Y-13577714D01*
X7969286Y-13577714D02*
X7988333Y-13568190D01*
X7988333Y-13568190D02*
X8016905Y-13568190D01*
X8016905Y-13568190D02*
X8035952Y-13577714D01*
X8035952Y-13577714D02*
X8045476Y-13596762D01*
X8045476Y-13596762D02*
X8045476Y-13701524D01*
X8045476Y-13596762D02*
X8055000Y-13577714D01*
X8055000Y-13577714D02*
X8074048Y-13568190D01*
X8074048Y-13568190D02*
X8102619Y-13568190D01*
X8102619Y-13568190D02*
X8121667Y-13577714D01*
X8121667Y-13577714D02*
X8131190Y-13596762D01*
X8131190Y-13596762D02*
X8131190Y-13701524D01*
X8226429Y-13701524D02*
X8226429Y-13568190D01*
X8226429Y-13587238D02*
X8235952Y-13577714D01*
X8235952Y-13577714D02*
X8255000Y-13568190D01*
X8255000Y-13568190D02*
X8283571Y-13568190D01*
X8283571Y-13568190D02*
X8302619Y-13577714D01*
X8302619Y-13577714D02*
X8312143Y-13596762D01*
X8312143Y-13596762D02*
X8312143Y-13701524D01*
X8312143Y-13596762D02*
X8321667Y-13577714D01*
X8321667Y-13577714D02*
X8340714Y-13568190D01*
X8340714Y-13568190D02*
X8369286Y-13568190D01*
X8369286Y-13568190D02*
X8388333Y-13577714D01*
X8388333Y-13577714D02*
X8397857Y-13596762D01*
X8397857Y-13596762D02*
X8397857Y-13701524D01*
X8788333Y-13492000D02*
X8616905Y-13749143D01*
X9045476Y-13501524D02*
X9064524Y-13501524D01*
X9064524Y-13501524D02*
X9083572Y-13511048D01*
X9083572Y-13511048D02*
X9093095Y-13520571D01*
X9093095Y-13520571D02*
X9102619Y-13539619D01*
X9102619Y-13539619D02*
X9112143Y-13577714D01*
X9112143Y-13577714D02*
X9112143Y-13625333D01*
X9112143Y-13625333D02*
X9102619Y-13663428D01*
X9102619Y-13663428D02*
X9093095Y-13682476D01*
X9093095Y-13682476D02*
X9083572Y-13692000D01*
X9083572Y-13692000D02*
X9064524Y-13701524D01*
X9064524Y-13701524D02*
X9045476Y-13701524D01*
X9045476Y-13701524D02*
X9026429Y-13692000D01*
X9026429Y-13692000D02*
X9016905Y-13682476D01*
X9016905Y-13682476D02*
X9007381Y-13663428D01*
X9007381Y-13663428D02*
X8997857Y-13625333D01*
X8997857Y-13625333D02*
X8997857Y-13577714D01*
X8997857Y-13577714D02*
X9007381Y-13539619D01*
X9007381Y-13539619D02*
X9016905Y-13520571D01*
X9016905Y-13520571D02*
X9026429Y-13511048D01*
X9026429Y-13511048D02*
X9045476Y-13501524D01*
X9197857Y-13682476D02*
X9207381Y-13692000D01*
X9207381Y-13692000D02*
X9197857Y-13701524D01*
X9197857Y-13701524D02*
X9188334Y-13692000D01*
X9188334Y-13692000D02*
X9197857Y-13682476D01*
X9197857Y-13682476D02*
X9197857Y-13701524D01*
X9331191Y-13501524D02*
X9350238Y-13501524D01*
X9350238Y-13501524D02*
X9369286Y-13511048D01*
X9369286Y-13511048D02*
X9378810Y-13520571D01*
X9378810Y-13520571D02*
X9388334Y-13539619D01*
X9388334Y-13539619D02*
X9397857Y-13577714D01*
X9397857Y-13577714D02*
X9397857Y-13625333D01*
X9397857Y-13625333D02*
X9388334Y-13663428D01*
X9388334Y-13663428D02*
X9378810Y-13682476D01*
X9378810Y-13682476D02*
X9369286Y-13692000D01*
X9369286Y-13692000D02*
X9350238Y-13701524D01*
X9350238Y-13701524D02*
X9331191Y-13701524D01*
X9331191Y-13701524D02*
X9312143Y-13692000D01*
X9312143Y-13692000D02*
X9302619Y-13682476D01*
X9302619Y-13682476D02*
X9293095Y-13663428D01*
X9293095Y-13663428D02*
X9283572Y-13625333D01*
X9283572Y-13625333D02*
X9283572Y-13577714D01*
X9283572Y-13577714D02*
X9293095Y-13539619D01*
X9293095Y-13539619D02*
X9302619Y-13520571D01*
X9302619Y-13520571D02*
X9312143Y-13511048D01*
X9312143Y-13511048D02*
X9331191Y-13501524D01*
X9588334Y-13701524D02*
X9474048Y-13701524D01*
X9531191Y-13701524D02*
X9531191Y-13501524D01*
X9531191Y-13501524D02*
X9512143Y-13530095D01*
X9512143Y-13530095D02*
X9493095Y-13549143D01*
X9493095Y-13549143D02*
X9474048Y-13558667D01*
X9683572Y-13701524D02*
X9721667Y-13701524D01*
X9721667Y-13701524D02*
X9740715Y-13692000D01*
X9740715Y-13692000D02*
X9750238Y-13682476D01*
X9750238Y-13682476D02*
X9769286Y-13653905D01*
X9769286Y-13653905D02*
X9778810Y-13615809D01*
X9778810Y-13615809D02*
X9778810Y-13539619D01*
X9778810Y-13539619D02*
X9769286Y-13520571D01*
X9769286Y-13520571D02*
X9759762Y-13511048D01*
X9759762Y-13511048D02*
X9740715Y-13501524D01*
X9740715Y-13501524D02*
X9702619Y-13501524D01*
X9702619Y-13501524D02*
X9683572Y-13511048D01*
X9683572Y-13511048D02*
X9674048Y-13520571D01*
X9674048Y-13520571D02*
X9664524Y-13539619D01*
X9664524Y-13539619D02*
X9664524Y-13587238D01*
X9664524Y-13587238D02*
X9674048Y-13606286D01*
X9674048Y-13606286D02*
X9683572Y-13615809D01*
X9683572Y-13615809D02*
X9702619Y-13625333D01*
X9702619Y-13625333D02*
X9740715Y-13625333D01*
X9740715Y-13625333D02*
X9759762Y-13615809D01*
X9759762Y-13615809D02*
X9769286Y-13606286D01*
X9769286Y-13606286D02*
X9778810Y-13587238D01*
X9845476Y-13501524D02*
X9978810Y-13501524D01*
X9978810Y-13501524D02*
X9893095Y-13701524D01*
X10045476Y-13501524D02*
X10045476Y-13539619D01*
X10121667Y-13501524D02*
X10121667Y-13539619D01*
X10416905Y-13777714D02*
X10407381Y-13768190D01*
X10407381Y-13768190D02*
X10388334Y-13739619D01*
X10388334Y-13739619D02*
X10378810Y-13720571D01*
X10378810Y-13720571D02*
X10369286Y-13692000D01*
X10369286Y-13692000D02*
X10359762Y-13644381D01*
X10359762Y-13644381D02*
X10359762Y-13606286D01*
X10359762Y-13606286D02*
X10369286Y-13558667D01*
X10369286Y-13558667D02*
X10378810Y-13530095D01*
X10378810Y-13530095D02*
X10388334Y-13511048D01*
X10388334Y-13511048D02*
X10407381Y-13482476D01*
X10407381Y-13482476D02*
X10416905Y-13472952D01*
X10483572Y-13520571D02*
X10493096Y-13511048D01*
X10493096Y-13511048D02*
X10512143Y-13501524D01*
X10512143Y-13501524D02*
X10559762Y-13501524D01*
X10559762Y-13501524D02*
X10578810Y-13511048D01*
X10578810Y-13511048D02*
X10588334Y-13520571D01*
X10588334Y-13520571D02*
X10597857Y-13539619D01*
X10597857Y-13539619D02*
X10597857Y-13558667D01*
X10597857Y-13558667D02*
X10588334Y-13587238D01*
X10588334Y-13587238D02*
X10474048Y-13701524D01*
X10474048Y-13701524D02*
X10597857Y-13701524D01*
X10835953Y-13701524D02*
X10835953Y-13501524D01*
X10921667Y-13701524D02*
X10921667Y-13596762D01*
X10921667Y-13596762D02*
X10912143Y-13577714D01*
X10912143Y-13577714D02*
X10893096Y-13568190D01*
X10893096Y-13568190D02*
X10864524Y-13568190D01*
X10864524Y-13568190D02*
X10845477Y-13577714D01*
X10845477Y-13577714D02*
X10835953Y-13587238D01*
X11045477Y-13701524D02*
X11026429Y-13692000D01*
X11026429Y-13692000D02*
X11016905Y-13682476D01*
X11016905Y-13682476D02*
X11007381Y-13663428D01*
X11007381Y-13663428D02*
X11007381Y-13606286D01*
X11007381Y-13606286D02*
X11016905Y-13587238D01*
X11016905Y-13587238D02*
X11026429Y-13577714D01*
X11026429Y-13577714D02*
X11045477Y-13568190D01*
X11045477Y-13568190D02*
X11074048Y-13568190D01*
X11074048Y-13568190D02*
X11093096Y-13577714D01*
X11093096Y-13577714D02*
X11102619Y-13587238D01*
X11102619Y-13587238D02*
X11112143Y-13606286D01*
X11112143Y-13606286D02*
X11112143Y-13663428D01*
X11112143Y-13663428D02*
X11102619Y-13682476D01*
X11102619Y-13682476D02*
X11093096Y-13692000D01*
X11093096Y-13692000D02*
X11074048Y-13701524D01*
X11074048Y-13701524D02*
X11045477Y-13701524D01*
X11226429Y-13701524D02*
X11207381Y-13692000D01*
X11207381Y-13692000D02*
X11197857Y-13672952D01*
X11197857Y-13672952D02*
X11197857Y-13501524D01*
X11378810Y-13692000D02*
X11359762Y-13701524D01*
X11359762Y-13701524D02*
X11321667Y-13701524D01*
X11321667Y-13701524D02*
X11302619Y-13692000D01*
X11302619Y-13692000D02*
X11293096Y-13672952D01*
X11293096Y-13672952D02*
X11293096Y-13596762D01*
X11293096Y-13596762D02*
X11302619Y-13577714D01*
X11302619Y-13577714D02*
X11321667Y-13568190D01*
X11321667Y-13568190D02*
X11359762Y-13568190D01*
X11359762Y-13568190D02*
X11378810Y-13577714D01*
X11378810Y-13577714D02*
X11388334Y-13596762D01*
X11388334Y-13596762D02*
X11388334Y-13615809D01*
X11388334Y-13615809D02*
X11293096Y-13634857D01*
X11464524Y-13692000D02*
X11483572Y-13701524D01*
X11483572Y-13701524D02*
X11521667Y-13701524D01*
X11521667Y-13701524D02*
X11540715Y-13692000D01*
X11540715Y-13692000D02*
X11550238Y-13672952D01*
X11550238Y-13672952D02*
X11550238Y-13663428D01*
X11550238Y-13663428D02*
X11540715Y-13644381D01*
X11540715Y-13644381D02*
X11521667Y-13634857D01*
X11521667Y-13634857D02*
X11493096Y-13634857D01*
X11493096Y-13634857D02*
X11474048Y-13625333D01*
X11474048Y-13625333D02*
X11464524Y-13606286D01*
X11464524Y-13606286D02*
X11464524Y-13596762D01*
X11464524Y-13596762D02*
X11474048Y-13577714D01*
X11474048Y-13577714D02*
X11493096Y-13568190D01*
X11493096Y-13568190D02*
X11521667Y-13568190D01*
X11521667Y-13568190D02*
X11540715Y-13577714D01*
X11616905Y-13777714D02*
X11626429Y-13768190D01*
X11626429Y-13768190D02*
X11645477Y-13739619D01*
X11645477Y-13739619D02*
X11655000Y-13720571D01*
X11655000Y-13720571D02*
X11664524Y-13692000D01*
X11664524Y-13692000D02*
X11674048Y-13644381D01*
X11674048Y-13644381D02*
X11674048Y-13606286D01*
X11674048Y-13606286D02*
X11664524Y-13558667D01*
X11664524Y-13558667D02*
X11655000Y-13530095D01*
X11655000Y-13530095D02*
X11645477Y-13511048D01*
X11645477Y-13511048D02*
X11626429Y-13482476D01*
X11626429Y-13482476D02*
X11616905Y-13472952D01*
D14*
X6825000Y-13843000D02*
X6825000Y-13903000D01*
X6795000Y-13873000D02*
X6855000Y-13873000D01*
D11*
X7140714Y-13765524D02*
X7159762Y-13765524D01*
X7159762Y-13765524D02*
X7178809Y-13775048D01*
X7178809Y-13775048D02*
X7188333Y-13784571D01*
X7188333Y-13784571D02*
X7197857Y-13803619D01*
X7197857Y-13803619D02*
X7207381Y-13841714D01*
X7207381Y-13841714D02*
X7207381Y-13889333D01*
X7207381Y-13889333D02*
X7197857Y-13927428D01*
X7197857Y-13927428D02*
X7188333Y-13946476D01*
X7188333Y-13946476D02*
X7178809Y-13956000D01*
X7178809Y-13956000D02*
X7159762Y-13965524D01*
X7159762Y-13965524D02*
X7140714Y-13965524D01*
X7140714Y-13965524D02*
X7121667Y-13956000D01*
X7121667Y-13956000D02*
X7112143Y-13946476D01*
X7112143Y-13946476D02*
X7102619Y-13927428D01*
X7102619Y-13927428D02*
X7093095Y-13889333D01*
X7093095Y-13889333D02*
X7093095Y-13841714D01*
X7093095Y-13841714D02*
X7102619Y-13803619D01*
X7102619Y-13803619D02*
X7112143Y-13784571D01*
X7112143Y-13784571D02*
X7121667Y-13775048D01*
X7121667Y-13775048D02*
X7140714Y-13765524D01*
X7293095Y-13946476D02*
X7302619Y-13956000D01*
X7302619Y-13956000D02*
X7293095Y-13965524D01*
X7293095Y-13965524D02*
X7283571Y-13956000D01*
X7283571Y-13956000D02*
X7293095Y-13946476D01*
X7293095Y-13946476D02*
X7293095Y-13965524D01*
X7474048Y-13765524D02*
X7435952Y-13765524D01*
X7435952Y-13765524D02*
X7416905Y-13775048D01*
X7416905Y-13775048D02*
X7407381Y-13784571D01*
X7407381Y-13784571D02*
X7388333Y-13813143D01*
X7388333Y-13813143D02*
X7378809Y-13851238D01*
X7378809Y-13851238D02*
X7378809Y-13927428D01*
X7378809Y-13927428D02*
X7388333Y-13946476D01*
X7388333Y-13946476D02*
X7397857Y-13956000D01*
X7397857Y-13956000D02*
X7416905Y-13965524D01*
X7416905Y-13965524D02*
X7455000Y-13965524D01*
X7455000Y-13965524D02*
X7474048Y-13956000D01*
X7474048Y-13956000D02*
X7483571Y-13946476D01*
X7483571Y-13946476D02*
X7493095Y-13927428D01*
X7493095Y-13927428D02*
X7493095Y-13879809D01*
X7493095Y-13879809D02*
X7483571Y-13860762D01*
X7483571Y-13860762D02*
X7474048Y-13851238D01*
X7474048Y-13851238D02*
X7455000Y-13841714D01*
X7455000Y-13841714D02*
X7416905Y-13841714D01*
X7416905Y-13841714D02*
X7397857Y-13851238D01*
X7397857Y-13851238D02*
X7388333Y-13860762D01*
X7388333Y-13860762D02*
X7378809Y-13879809D01*
X7616905Y-13765524D02*
X7635952Y-13765524D01*
X7635952Y-13765524D02*
X7655000Y-13775048D01*
X7655000Y-13775048D02*
X7664524Y-13784571D01*
X7664524Y-13784571D02*
X7674048Y-13803619D01*
X7674048Y-13803619D02*
X7683571Y-13841714D01*
X7683571Y-13841714D02*
X7683571Y-13889333D01*
X7683571Y-13889333D02*
X7674048Y-13927428D01*
X7674048Y-13927428D02*
X7664524Y-13946476D01*
X7664524Y-13946476D02*
X7655000Y-13956000D01*
X7655000Y-13956000D02*
X7635952Y-13965524D01*
X7635952Y-13965524D02*
X7616905Y-13965524D01*
X7616905Y-13965524D02*
X7597857Y-13956000D01*
X7597857Y-13956000D02*
X7588333Y-13946476D01*
X7588333Y-13946476D02*
X7578809Y-13927428D01*
X7578809Y-13927428D02*
X7569286Y-13889333D01*
X7569286Y-13889333D02*
X7569286Y-13841714D01*
X7569286Y-13841714D02*
X7578809Y-13803619D01*
X7578809Y-13803619D02*
X7588333Y-13784571D01*
X7588333Y-13784571D02*
X7597857Y-13775048D01*
X7597857Y-13775048D02*
X7616905Y-13765524D01*
X7807381Y-13765524D02*
X7826429Y-13765524D01*
X7826429Y-13765524D02*
X7845476Y-13775048D01*
X7845476Y-13775048D02*
X7855000Y-13784571D01*
X7855000Y-13784571D02*
X7864524Y-13803619D01*
X7864524Y-13803619D02*
X7874048Y-13841714D01*
X7874048Y-13841714D02*
X7874048Y-13889333D01*
X7874048Y-13889333D02*
X7864524Y-13927428D01*
X7864524Y-13927428D02*
X7855000Y-13946476D01*
X7855000Y-13946476D02*
X7845476Y-13956000D01*
X7845476Y-13956000D02*
X7826429Y-13965524D01*
X7826429Y-13965524D02*
X7807381Y-13965524D01*
X7807381Y-13965524D02*
X7788333Y-13956000D01*
X7788333Y-13956000D02*
X7778809Y-13946476D01*
X7778809Y-13946476D02*
X7769286Y-13927428D01*
X7769286Y-13927428D02*
X7759762Y-13889333D01*
X7759762Y-13889333D02*
X7759762Y-13841714D01*
X7759762Y-13841714D02*
X7769286Y-13803619D01*
X7769286Y-13803619D02*
X7778809Y-13784571D01*
X7778809Y-13784571D02*
X7788333Y-13775048D01*
X7788333Y-13775048D02*
X7807381Y-13765524D01*
X7959762Y-13965524D02*
X7959762Y-13832190D01*
X7959762Y-13851238D02*
X7969286Y-13841714D01*
X7969286Y-13841714D02*
X7988333Y-13832190D01*
X7988333Y-13832190D02*
X8016905Y-13832190D01*
X8016905Y-13832190D02*
X8035952Y-13841714D01*
X8035952Y-13841714D02*
X8045476Y-13860762D01*
X8045476Y-13860762D02*
X8045476Y-13965524D01*
X8045476Y-13860762D02*
X8055000Y-13841714D01*
X8055000Y-13841714D02*
X8074048Y-13832190D01*
X8074048Y-13832190D02*
X8102619Y-13832190D01*
X8102619Y-13832190D02*
X8121667Y-13841714D01*
X8121667Y-13841714D02*
X8131190Y-13860762D01*
X8131190Y-13860762D02*
X8131190Y-13965524D01*
X8226429Y-13965524D02*
X8226429Y-13832190D01*
X8226429Y-13851238D02*
X8235952Y-13841714D01*
X8235952Y-13841714D02*
X8255000Y-13832190D01*
X8255000Y-13832190D02*
X8283571Y-13832190D01*
X8283571Y-13832190D02*
X8302619Y-13841714D01*
X8302619Y-13841714D02*
X8312143Y-13860762D01*
X8312143Y-13860762D02*
X8312143Y-13965524D01*
X8312143Y-13860762D02*
X8321667Y-13841714D01*
X8321667Y-13841714D02*
X8340714Y-13832190D01*
X8340714Y-13832190D02*
X8369286Y-13832190D01*
X8369286Y-13832190D02*
X8388333Y-13841714D01*
X8388333Y-13841714D02*
X8397857Y-13860762D01*
X8397857Y-13860762D02*
X8397857Y-13965524D01*
X8788333Y-13756000D02*
X8616905Y-14013143D01*
X9045476Y-13765524D02*
X9064524Y-13765524D01*
X9064524Y-13765524D02*
X9083572Y-13775048D01*
X9083572Y-13775048D02*
X9093095Y-13784571D01*
X9093095Y-13784571D02*
X9102619Y-13803619D01*
X9102619Y-13803619D02*
X9112143Y-13841714D01*
X9112143Y-13841714D02*
X9112143Y-13889333D01*
X9112143Y-13889333D02*
X9102619Y-13927428D01*
X9102619Y-13927428D02*
X9093095Y-13946476D01*
X9093095Y-13946476D02*
X9083572Y-13956000D01*
X9083572Y-13956000D02*
X9064524Y-13965524D01*
X9064524Y-13965524D02*
X9045476Y-13965524D01*
X9045476Y-13965524D02*
X9026429Y-13956000D01*
X9026429Y-13956000D02*
X9016905Y-13946476D01*
X9016905Y-13946476D02*
X9007381Y-13927428D01*
X9007381Y-13927428D02*
X8997857Y-13889333D01*
X8997857Y-13889333D02*
X8997857Y-13841714D01*
X8997857Y-13841714D02*
X9007381Y-13803619D01*
X9007381Y-13803619D02*
X9016905Y-13784571D01*
X9016905Y-13784571D02*
X9026429Y-13775048D01*
X9026429Y-13775048D02*
X9045476Y-13765524D01*
X9197857Y-13946476D02*
X9207381Y-13956000D01*
X9207381Y-13956000D02*
X9197857Y-13965524D01*
X9197857Y-13965524D02*
X9188334Y-13956000D01*
X9188334Y-13956000D02*
X9197857Y-13946476D01*
X9197857Y-13946476D02*
X9197857Y-13965524D01*
X9331191Y-13765524D02*
X9350238Y-13765524D01*
X9350238Y-13765524D02*
X9369286Y-13775048D01*
X9369286Y-13775048D02*
X9378810Y-13784571D01*
X9378810Y-13784571D02*
X9388334Y-13803619D01*
X9388334Y-13803619D02*
X9397857Y-13841714D01*
X9397857Y-13841714D02*
X9397857Y-13889333D01*
X9397857Y-13889333D02*
X9388334Y-13927428D01*
X9388334Y-13927428D02*
X9378810Y-13946476D01*
X9378810Y-13946476D02*
X9369286Y-13956000D01*
X9369286Y-13956000D02*
X9350238Y-13965524D01*
X9350238Y-13965524D02*
X9331191Y-13965524D01*
X9331191Y-13965524D02*
X9312143Y-13956000D01*
X9312143Y-13956000D02*
X9302619Y-13946476D01*
X9302619Y-13946476D02*
X9293095Y-13927428D01*
X9293095Y-13927428D02*
X9283572Y-13889333D01*
X9283572Y-13889333D02*
X9283572Y-13841714D01*
X9283572Y-13841714D02*
X9293095Y-13803619D01*
X9293095Y-13803619D02*
X9302619Y-13784571D01*
X9302619Y-13784571D02*
X9312143Y-13775048D01*
X9312143Y-13775048D02*
X9331191Y-13765524D01*
X9474048Y-13784571D02*
X9483572Y-13775048D01*
X9483572Y-13775048D02*
X9502619Y-13765524D01*
X9502619Y-13765524D02*
X9550238Y-13765524D01*
X9550238Y-13765524D02*
X9569286Y-13775048D01*
X9569286Y-13775048D02*
X9578810Y-13784571D01*
X9578810Y-13784571D02*
X9588334Y-13803619D01*
X9588334Y-13803619D02*
X9588334Y-13822667D01*
X9588334Y-13822667D02*
X9578810Y-13851238D01*
X9578810Y-13851238D02*
X9464524Y-13965524D01*
X9464524Y-13965524D02*
X9588334Y-13965524D01*
X9655000Y-13765524D02*
X9778810Y-13765524D01*
X9778810Y-13765524D02*
X9712143Y-13841714D01*
X9712143Y-13841714D02*
X9740715Y-13841714D01*
X9740715Y-13841714D02*
X9759762Y-13851238D01*
X9759762Y-13851238D02*
X9769286Y-13860762D01*
X9769286Y-13860762D02*
X9778810Y-13879809D01*
X9778810Y-13879809D02*
X9778810Y-13927428D01*
X9778810Y-13927428D02*
X9769286Y-13946476D01*
X9769286Y-13946476D02*
X9759762Y-13956000D01*
X9759762Y-13956000D02*
X9740715Y-13965524D01*
X9740715Y-13965524D02*
X9683572Y-13965524D01*
X9683572Y-13965524D02*
X9664524Y-13956000D01*
X9664524Y-13956000D02*
X9655000Y-13946476D01*
X9950238Y-13765524D02*
X9912143Y-13765524D01*
X9912143Y-13765524D02*
X9893095Y-13775048D01*
X9893095Y-13775048D02*
X9883572Y-13784571D01*
X9883572Y-13784571D02*
X9864524Y-13813143D01*
X9864524Y-13813143D02*
X9855000Y-13851238D01*
X9855000Y-13851238D02*
X9855000Y-13927428D01*
X9855000Y-13927428D02*
X9864524Y-13946476D01*
X9864524Y-13946476D02*
X9874048Y-13956000D01*
X9874048Y-13956000D02*
X9893095Y-13965524D01*
X9893095Y-13965524D02*
X9931191Y-13965524D01*
X9931191Y-13965524D02*
X9950238Y-13956000D01*
X9950238Y-13956000D02*
X9959762Y-13946476D01*
X9959762Y-13946476D02*
X9969286Y-13927428D01*
X9969286Y-13927428D02*
X9969286Y-13879809D01*
X9969286Y-13879809D02*
X9959762Y-13860762D01*
X9959762Y-13860762D02*
X9950238Y-13851238D01*
X9950238Y-13851238D02*
X9931191Y-13841714D01*
X9931191Y-13841714D02*
X9893095Y-13841714D01*
X9893095Y-13841714D02*
X9874048Y-13851238D01*
X9874048Y-13851238D02*
X9864524Y-13860762D01*
X9864524Y-13860762D02*
X9855000Y-13879809D01*
X10045476Y-13765524D02*
X10045476Y-13803619D01*
X10121667Y-13765524D02*
X10121667Y-13803619D01*
X10416905Y-14041714D02*
X10407381Y-14032190D01*
X10407381Y-14032190D02*
X10388334Y-14003619D01*
X10388334Y-14003619D02*
X10378810Y-13984571D01*
X10378810Y-13984571D02*
X10369286Y-13956000D01*
X10369286Y-13956000D02*
X10359762Y-13908381D01*
X10359762Y-13908381D02*
X10359762Y-13870286D01*
X10359762Y-13870286D02*
X10369286Y-13822667D01*
X10369286Y-13822667D02*
X10378810Y-13794095D01*
X10378810Y-13794095D02*
X10388334Y-13775048D01*
X10388334Y-13775048D02*
X10407381Y-13746476D01*
X10407381Y-13746476D02*
X10416905Y-13736952D01*
X10474048Y-13765524D02*
X10597857Y-13765524D01*
X10597857Y-13765524D02*
X10531191Y-13841714D01*
X10531191Y-13841714D02*
X10559762Y-13841714D01*
X10559762Y-13841714D02*
X10578810Y-13851238D01*
X10578810Y-13851238D02*
X10588334Y-13860762D01*
X10588334Y-13860762D02*
X10597857Y-13879809D01*
X10597857Y-13879809D02*
X10597857Y-13927428D01*
X10597857Y-13927428D02*
X10588334Y-13946476D01*
X10588334Y-13946476D02*
X10578810Y-13956000D01*
X10578810Y-13956000D02*
X10559762Y-13965524D01*
X10559762Y-13965524D02*
X10502619Y-13965524D01*
X10502619Y-13965524D02*
X10483572Y-13956000D01*
X10483572Y-13956000D02*
X10474048Y-13946476D01*
X10835953Y-13965524D02*
X10835953Y-13765524D01*
X10921667Y-13965524D02*
X10921667Y-13860762D01*
X10921667Y-13860762D02*
X10912143Y-13841714D01*
X10912143Y-13841714D02*
X10893096Y-13832190D01*
X10893096Y-13832190D02*
X10864524Y-13832190D01*
X10864524Y-13832190D02*
X10845477Y-13841714D01*
X10845477Y-13841714D02*
X10835953Y-13851238D01*
X11045477Y-13965524D02*
X11026429Y-13956000D01*
X11026429Y-13956000D02*
X11016905Y-13946476D01*
X11016905Y-13946476D02*
X11007381Y-13927428D01*
X11007381Y-13927428D02*
X11007381Y-13870286D01*
X11007381Y-13870286D02*
X11016905Y-13851238D01*
X11016905Y-13851238D02*
X11026429Y-13841714D01*
X11026429Y-13841714D02*
X11045477Y-13832190D01*
X11045477Y-13832190D02*
X11074048Y-13832190D01*
X11074048Y-13832190D02*
X11093096Y-13841714D01*
X11093096Y-13841714D02*
X11102619Y-13851238D01*
X11102619Y-13851238D02*
X11112143Y-13870286D01*
X11112143Y-13870286D02*
X11112143Y-13927428D01*
X11112143Y-13927428D02*
X11102619Y-13946476D01*
X11102619Y-13946476D02*
X11093096Y-13956000D01*
X11093096Y-13956000D02*
X11074048Y-13965524D01*
X11074048Y-13965524D02*
X11045477Y-13965524D01*
X11226429Y-13965524D02*
X11207381Y-13956000D01*
X11207381Y-13956000D02*
X11197857Y-13936952D01*
X11197857Y-13936952D02*
X11197857Y-13765524D01*
X11378810Y-13956000D02*
X11359762Y-13965524D01*
X11359762Y-13965524D02*
X11321667Y-13965524D01*
X11321667Y-13965524D02*
X11302619Y-13956000D01*
X11302619Y-13956000D02*
X11293096Y-13936952D01*
X11293096Y-13936952D02*
X11293096Y-13860762D01*
X11293096Y-13860762D02*
X11302619Y-13841714D01*
X11302619Y-13841714D02*
X11321667Y-13832190D01*
X11321667Y-13832190D02*
X11359762Y-13832190D01*
X11359762Y-13832190D02*
X11378810Y-13841714D01*
X11378810Y-13841714D02*
X11388334Y-13860762D01*
X11388334Y-13860762D02*
X11388334Y-13879809D01*
X11388334Y-13879809D02*
X11293096Y-13898857D01*
X11464524Y-13956000D02*
X11483572Y-13965524D01*
X11483572Y-13965524D02*
X11521667Y-13965524D01*
X11521667Y-13965524D02*
X11540715Y-13956000D01*
X11540715Y-13956000D02*
X11550238Y-13936952D01*
X11550238Y-13936952D02*
X11550238Y-13927428D01*
X11550238Y-13927428D02*
X11540715Y-13908381D01*
X11540715Y-13908381D02*
X11521667Y-13898857D01*
X11521667Y-13898857D02*
X11493096Y-13898857D01*
X11493096Y-13898857D02*
X11474048Y-13889333D01*
X11474048Y-13889333D02*
X11464524Y-13870286D01*
X11464524Y-13870286D02*
X11464524Y-13860762D01*
X11464524Y-13860762D02*
X11474048Y-13841714D01*
X11474048Y-13841714D02*
X11493096Y-13832190D01*
X11493096Y-13832190D02*
X11521667Y-13832190D01*
X11521667Y-13832190D02*
X11540715Y-13841714D01*
X11616905Y-14041714D02*
X11626429Y-14032190D01*
X11626429Y-14032190D02*
X11645477Y-14003619D01*
X11645477Y-14003619D02*
X11655000Y-13984571D01*
X11655000Y-13984571D02*
X11664524Y-13956000D01*
X11664524Y-13956000D02*
X11674048Y-13908381D01*
X11674048Y-13908381D02*
X11674048Y-13870286D01*
X11674048Y-13870286D02*
X11664524Y-13822667D01*
X11664524Y-13822667D02*
X11655000Y-13794095D01*
X11655000Y-13794095D02*
X11645477Y-13775048D01*
X11645477Y-13775048D02*
X11626429Y-13746476D01*
X11626429Y-13746476D02*
X11616905Y-13736952D01*
D15*
X6844749Y-14161749D02*
X6844749Y-14112251D01*
X6795251Y-14112251D01*
X6795251Y-14161749D01*
X6844749Y-14161749D01*
D11*
X7140714Y-14029524D02*
X7159762Y-14029524D01*
X7159762Y-14029524D02*
X7178809Y-14039048D01*
X7178809Y-14039048D02*
X7188333Y-14048571D01*
X7188333Y-14048571D02*
X7197857Y-14067619D01*
X7197857Y-14067619D02*
X7207381Y-14105714D01*
X7207381Y-14105714D02*
X7207381Y-14153333D01*
X7207381Y-14153333D02*
X7197857Y-14191428D01*
X7197857Y-14191428D02*
X7188333Y-14210476D01*
X7188333Y-14210476D02*
X7178809Y-14220000D01*
X7178809Y-14220000D02*
X7159762Y-14229524D01*
X7159762Y-14229524D02*
X7140714Y-14229524D01*
X7140714Y-14229524D02*
X7121667Y-14220000D01*
X7121667Y-14220000D02*
X7112143Y-14210476D01*
X7112143Y-14210476D02*
X7102619Y-14191428D01*
X7102619Y-14191428D02*
X7093095Y-14153333D01*
X7093095Y-14153333D02*
X7093095Y-14105714D01*
X7093095Y-14105714D02*
X7102619Y-14067619D01*
X7102619Y-14067619D02*
X7112143Y-14048571D01*
X7112143Y-14048571D02*
X7121667Y-14039048D01*
X7121667Y-14039048D02*
X7140714Y-14029524D01*
X7293095Y-14210476D02*
X7302619Y-14220000D01*
X7302619Y-14220000D02*
X7293095Y-14229524D01*
X7293095Y-14229524D02*
X7283571Y-14220000D01*
X7283571Y-14220000D02*
X7293095Y-14210476D01*
X7293095Y-14210476D02*
X7293095Y-14229524D01*
X7369286Y-14029524D02*
X7502619Y-14029524D01*
X7502619Y-14029524D02*
X7416905Y-14229524D01*
X7616905Y-14029524D02*
X7635952Y-14029524D01*
X7635952Y-14029524D02*
X7655000Y-14039048D01*
X7655000Y-14039048D02*
X7664524Y-14048571D01*
X7664524Y-14048571D02*
X7674048Y-14067619D01*
X7674048Y-14067619D02*
X7683571Y-14105714D01*
X7683571Y-14105714D02*
X7683571Y-14153333D01*
X7683571Y-14153333D02*
X7674048Y-14191428D01*
X7674048Y-14191428D02*
X7664524Y-14210476D01*
X7664524Y-14210476D02*
X7655000Y-14220000D01*
X7655000Y-14220000D02*
X7635952Y-14229524D01*
X7635952Y-14229524D02*
X7616905Y-14229524D01*
X7616905Y-14229524D02*
X7597857Y-14220000D01*
X7597857Y-14220000D02*
X7588333Y-14210476D01*
X7588333Y-14210476D02*
X7578809Y-14191428D01*
X7578809Y-14191428D02*
X7569286Y-14153333D01*
X7569286Y-14153333D02*
X7569286Y-14105714D01*
X7569286Y-14105714D02*
X7578809Y-14067619D01*
X7578809Y-14067619D02*
X7588333Y-14048571D01*
X7588333Y-14048571D02*
X7597857Y-14039048D01*
X7597857Y-14039048D02*
X7616905Y-14029524D01*
X7807381Y-14029524D02*
X7826429Y-14029524D01*
X7826429Y-14029524D02*
X7845476Y-14039048D01*
X7845476Y-14039048D02*
X7855000Y-14048571D01*
X7855000Y-14048571D02*
X7864524Y-14067619D01*
X7864524Y-14067619D02*
X7874048Y-14105714D01*
X7874048Y-14105714D02*
X7874048Y-14153333D01*
X7874048Y-14153333D02*
X7864524Y-14191428D01*
X7864524Y-14191428D02*
X7855000Y-14210476D01*
X7855000Y-14210476D02*
X7845476Y-14220000D01*
X7845476Y-14220000D02*
X7826429Y-14229524D01*
X7826429Y-14229524D02*
X7807381Y-14229524D01*
X7807381Y-14229524D02*
X7788333Y-14220000D01*
X7788333Y-14220000D02*
X7778809Y-14210476D01*
X7778809Y-14210476D02*
X7769286Y-14191428D01*
X7769286Y-14191428D02*
X7759762Y-14153333D01*
X7759762Y-14153333D02*
X7759762Y-14105714D01*
X7759762Y-14105714D02*
X7769286Y-14067619D01*
X7769286Y-14067619D02*
X7778809Y-14048571D01*
X7778809Y-14048571D02*
X7788333Y-14039048D01*
X7788333Y-14039048D02*
X7807381Y-14029524D01*
X7959762Y-14229524D02*
X7959762Y-14096190D01*
X7959762Y-14115238D02*
X7969286Y-14105714D01*
X7969286Y-14105714D02*
X7988333Y-14096190D01*
X7988333Y-14096190D02*
X8016905Y-14096190D01*
X8016905Y-14096190D02*
X8035952Y-14105714D01*
X8035952Y-14105714D02*
X8045476Y-14124762D01*
X8045476Y-14124762D02*
X8045476Y-14229524D01*
X8045476Y-14124762D02*
X8055000Y-14105714D01*
X8055000Y-14105714D02*
X8074048Y-14096190D01*
X8074048Y-14096190D02*
X8102619Y-14096190D01*
X8102619Y-14096190D02*
X8121667Y-14105714D01*
X8121667Y-14105714D02*
X8131190Y-14124762D01*
X8131190Y-14124762D02*
X8131190Y-14229524D01*
X8226429Y-14229524D02*
X8226429Y-14096190D01*
X8226429Y-14115238D02*
X8235952Y-14105714D01*
X8235952Y-14105714D02*
X8255000Y-14096190D01*
X8255000Y-14096190D02*
X8283571Y-14096190D01*
X8283571Y-14096190D02*
X8302619Y-14105714D01*
X8302619Y-14105714D02*
X8312143Y-14124762D01*
X8312143Y-14124762D02*
X8312143Y-14229524D01*
X8312143Y-14124762D02*
X8321667Y-14105714D01*
X8321667Y-14105714D02*
X8340714Y-14096190D01*
X8340714Y-14096190D02*
X8369286Y-14096190D01*
X8369286Y-14096190D02*
X8388333Y-14105714D01*
X8388333Y-14105714D02*
X8397857Y-14124762D01*
X8397857Y-14124762D02*
X8397857Y-14229524D01*
X8788333Y-14020000D02*
X8616905Y-14277143D01*
X9045476Y-14029524D02*
X9064524Y-14029524D01*
X9064524Y-14029524D02*
X9083572Y-14039048D01*
X9083572Y-14039048D02*
X9093095Y-14048571D01*
X9093095Y-14048571D02*
X9102619Y-14067619D01*
X9102619Y-14067619D02*
X9112143Y-14105714D01*
X9112143Y-14105714D02*
X9112143Y-14153333D01*
X9112143Y-14153333D02*
X9102619Y-14191428D01*
X9102619Y-14191428D02*
X9093095Y-14210476D01*
X9093095Y-14210476D02*
X9083572Y-14220000D01*
X9083572Y-14220000D02*
X9064524Y-14229524D01*
X9064524Y-14229524D02*
X9045476Y-14229524D01*
X9045476Y-14229524D02*
X9026429Y-14220000D01*
X9026429Y-14220000D02*
X9016905Y-14210476D01*
X9016905Y-14210476D02*
X9007381Y-14191428D01*
X9007381Y-14191428D02*
X8997857Y-14153333D01*
X8997857Y-14153333D02*
X8997857Y-14105714D01*
X8997857Y-14105714D02*
X9007381Y-14067619D01*
X9007381Y-14067619D02*
X9016905Y-14048571D01*
X9016905Y-14048571D02*
X9026429Y-14039048D01*
X9026429Y-14039048D02*
X9045476Y-14029524D01*
X9197857Y-14210476D02*
X9207381Y-14220000D01*
X9207381Y-14220000D02*
X9197857Y-14229524D01*
X9197857Y-14229524D02*
X9188334Y-14220000D01*
X9188334Y-14220000D02*
X9197857Y-14210476D01*
X9197857Y-14210476D02*
X9197857Y-14229524D01*
X9331191Y-14029524D02*
X9350238Y-14029524D01*
X9350238Y-14029524D02*
X9369286Y-14039048D01*
X9369286Y-14039048D02*
X9378810Y-14048571D01*
X9378810Y-14048571D02*
X9388334Y-14067619D01*
X9388334Y-14067619D02*
X9397857Y-14105714D01*
X9397857Y-14105714D02*
X9397857Y-14153333D01*
X9397857Y-14153333D02*
X9388334Y-14191428D01*
X9388334Y-14191428D02*
X9378810Y-14210476D01*
X9378810Y-14210476D02*
X9369286Y-14220000D01*
X9369286Y-14220000D02*
X9350238Y-14229524D01*
X9350238Y-14229524D02*
X9331191Y-14229524D01*
X9331191Y-14229524D02*
X9312143Y-14220000D01*
X9312143Y-14220000D02*
X9302619Y-14210476D01*
X9302619Y-14210476D02*
X9293095Y-14191428D01*
X9293095Y-14191428D02*
X9283572Y-14153333D01*
X9283572Y-14153333D02*
X9283572Y-14105714D01*
X9283572Y-14105714D02*
X9293095Y-14067619D01*
X9293095Y-14067619D02*
X9302619Y-14048571D01*
X9302619Y-14048571D02*
X9312143Y-14039048D01*
X9312143Y-14039048D02*
X9331191Y-14029524D01*
X9474048Y-14048571D02*
X9483572Y-14039048D01*
X9483572Y-14039048D02*
X9502619Y-14029524D01*
X9502619Y-14029524D02*
X9550238Y-14029524D01*
X9550238Y-14029524D02*
X9569286Y-14039048D01*
X9569286Y-14039048D02*
X9578810Y-14048571D01*
X9578810Y-14048571D02*
X9588334Y-14067619D01*
X9588334Y-14067619D02*
X9588334Y-14086667D01*
X9588334Y-14086667D02*
X9578810Y-14115238D01*
X9578810Y-14115238D02*
X9464524Y-14229524D01*
X9464524Y-14229524D02*
X9588334Y-14229524D01*
X9655000Y-14029524D02*
X9788334Y-14029524D01*
X9788334Y-14029524D02*
X9702619Y-14229524D01*
X9950238Y-14029524D02*
X9912143Y-14029524D01*
X9912143Y-14029524D02*
X9893095Y-14039048D01*
X9893095Y-14039048D02*
X9883572Y-14048571D01*
X9883572Y-14048571D02*
X9864524Y-14077143D01*
X9864524Y-14077143D02*
X9855000Y-14115238D01*
X9855000Y-14115238D02*
X9855000Y-14191428D01*
X9855000Y-14191428D02*
X9864524Y-14210476D01*
X9864524Y-14210476D02*
X9874048Y-14220000D01*
X9874048Y-14220000D02*
X9893095Y-14229524D01*
X9893095Y-14229524D02*
X9931191Y-14229524D01*
X9931191Y-14229524D02*
X9950238Y-14220000D01*
X9950238Y-14220000D02*
X9959762Y-14210476D01*
X9959762Y-14210476D02*
X9969286Y-14191428D01*
X9969286Y-14191428D02*
X9969286Y-14143809D01*
X9969286Y-14143809D02*
X9959762Y-14124762D01*
X9959762Y-14124762D02*
X9950238Y-14115238D01*
X9950238Y-14115238D02*
X9931191Y-14105714D01*
X9931191Y-14105714D02*
X9893095Y-14105714D01*
X9893095Y-14105714D02*
X9874048Y-14115238D01*
X9874048Y-14115238D02*
X9864524Y-14124762D01*
X9864524Y-14124762D02*
X9855000Y-14143809D01*
X10045476Y-14029524D02*
X10045476Y-14067619D01*
X10121667Y-14029524D02*
X10121667Y-14067619D01*
X10416905Y-14305714D02*
X10407381Y-14296190D01*
X10407381Y-14296190D02*
X10388334Y-14267619D01*
X10388334Y-14267619D02*
X10378810Y-14248571D01*
X10378810Y-14248571D02*
X10369286Y-14220000D01*
X10369286Y-14220000D02*
X10359762Y-14172381D01*
X10359762Y-14172381D02*
X10359762Y-14134286D01*
X10359762Y-14134286D02*
X10369286Y-14086667D01*
X10369286Y-14086667D02*
X10378810Y-14058095D01*
X10378810Y-14058095D02*
X10388334Y-14039048D01*
X10388334Y-14039048D02*
X10407381Y-14010476D01*
X10407381Y-14010476D02*
X10416905Y-14000952D01*
X10474048Y-14029524D02*
X10597857Y-14029524D01*
X10597857Y-14029524D02*
X10531191Y-14105714D01*
X10531191Y-14105714D02*
X10559762Y-14105714D01*
X10559762Y-14105714D02*
X10578810Y-14115238D01*
X10578810Y-14115238D02*
X10588334Y-14124762D01*
X10588334Y-14124762D02*
X10597857Y-14143809D01*
X10597857Y-14143809D02*
X10597857Y-14191428D01*
X10597857Y-14191428D02*
X10588334Y-14210476D01*
X10588334Y-14210476D02*
X10578810Y-14220000D01*
X10578810Y-14220000D02*
X10559762Y-14229524D01*
X10559762Y-14229524D02*
X10502619Y-14229524D01*
X10502619Y-14229524D02*
X10483572Y-14220000D01*
X10483572Y-14220000D02*
X10474048Y-14210476D01*
X10835953Y-14229524D02*
X10835953Y-14029524D01*
X10921667Y-14229524D02*
X10921667Y-14124762D01*
X10921667Y-14124762D02*
X10912143Y-14105714D01*
X10912143Y-14105714D02*
X10893096Y-14096190D01*
X10893096Y-14096190D02*
X10864524Y-14096190D01*
X10864524Y-14096190D02*
X10845477Y-14105714D01*
X10845477Y-14105714D02*
X10835953Y-14115238D01*
X11045477Y-14229524D02*
X11026429Y-14220000D01*
X11026429Y-14220000D02*
X11016905Y-14210476D01*
X11016905Y-14210476D02*
X11007381Y-14191428D01*
X11007381Y-14191428D02*
X11007381Y-14134286D01*
X11007381Y-14134286D02*
X11016905Y-14115238D01*
X11016905Y-14115238D02*
X11026429Y-14105714D01*
X11026429Y-14105714D02*
X11045477Y-14096190D01*
X11045477Y-14096190D02*
X11074048Y-14096190D01*
X11074048Y-14096190D02*
X11093096Y-14105714D01*
X11093096Y-14105714D02*
X11102619Y-14115238D01*
X11102619Y-14115238D02*
X11112143Y-14134286D01*
X11112143Y-14134286D02*
X11112143Y-14191428D01*
X11112143Y-14191428D02*
X11102619Y-14210476D01*
X11102619Y-14210476D02*
X11093096Y-14220000D01*
X11093096Y-14220000D02*
X11074048Y-14229524D01*
X11074048Y-14229524D02*
X11045477Y-14229524D01*
X11226429Y-14229524D02*
X11207381Y-14220000D01*
X11207381Y-14220000D02*
X11197857Y-14200952D01*
X11197857Y-14200952D02*
X11197857Y-14029524D01*
X11378810Y-14220000D02*
X11359762Y-14229524D01*
X11359762Y-14229524D02*
X11321667Y-14229524D01*
X11321667Y-14229524D02*
X11302619Y-14220000D01*
X11302619Y-14220000D02*
X11293096Y-14200952D01*
X11293096Y-14200952D02*
X11293096Y-14124762D01*
X11293096Y-14124762D02*
X11302619Y-14105714D01*
X11302619Y-14105714D02*
X11321667Y-14096190D01*
X11321667Y-14096190D02*
X11359762Y-14096190D01*
X11359762Y-14096190D02*
X11378810Y-14105714D01*
X11378810Y-14105714D02*
X11388334Y-14124762D01*
X11388334Y-14124762D02*
X11388334Y-14143809D01*
X11388334Y-14143809D02*
X11293096Y-14162857D01*
X11464524Y-14220000D02*
X11483572Y-14229524D01*
X11483572Y-14229524D02*
X11521667Y-14229524D01*
X11521667Y-14229524D02*
X11540715Y-14220000D01*
X11540715Y-14220000D02*
X11550238Y-14200952D01*
X11550238Y-14200952D02*
X11550238Y-14191428D01*
X11550238Y-14191428D02*
X11540715Y-14172381D01*
X11540715Y-14172381D02*
X11521667Y-14162857D01*
X11521667Y-14162857D02*
X11493096Y-14162857D01*
X11493096Y-14162857D02*
X11474048Y-14153333D01*
X11474048Y-14153333D02*
X11464524Y-14134286D01*
X11464524Y-14134286D02*
X11464524Y-14124762D01*
X11464524Y-14124762D02*
X11474048Y-14105714D01*
X11474048Y-14105714D02*
X11493096Y-14096190D01*
X11493096Y-14096190D02*
X11521667Y-14096190D01*
X11521667Y-14096190D02*
X11540715Y-14105714D01*
X11616905Y-14305714D02*
X11626429Y-14296190D01*
X11626429Y-14296190D02*
X11645477Y-14267619D01*
X11645477Y-14267619D02*
X11655000Y-14248571D01*
X11655000Y-14248571D02*
X11664524Y-14220000D01*
X11664524Y-14220000D02*
X11674048Y-14172381D01*
X11674048Y-14172381D02*
X11674048Y-14134286D01*
X11674048Y-14134286D02*
X11664524Y-14086667D01*
X11664524Y-14086667D02*
X11655000Y-14058095D01*
X11655000Y-14058095D02*
X11645477Y-14039048D01*
X11645477Y-14039048D02*
X11626429Y-14010476D01*
X11626429Y-14010476D02*
X11616905Y-14000952D01*
D16*
X6810000Y-14446000D02*
X6855000Y-14401000D01*
X6810000Y-14356000D01*
X6765000Y-14401000D01*
X6810000Y-14446000D01*
D11*
X7140714Y-14293524D02*
X7159762Y-14293524D01*
X7159762Y-14293524D02*
X7178809Y-14303048D01*
X7178809Y-14303048D02*
X7188333Y-14312571D01*
X7188333Y-14312571D02*
X7197857Y-14331619D01*
X7197857Y-14331619D02*
X7207381Y-14369714D01*
X7207381Y-14369714D02*
X7207381Y-14417333D01*
X7207381Y-14417333D02*
X7197857Y-14455428D01*
X7197857Y-14455428D02*
X7188333Y-14474476D01*
X7188333Y-14474476D02*
X7178809Y-14484000D01*
X7178809Y-14484000D02*
X7159762Y-14493524D01*
X7159762Y-14493524D02*
X7140714Y-14493524D01*
X7140714Y-14493524D02*
X7121667Y-14484000D01*
X7121667Y-14484000D02*
X7112143Y-14474476D01*
X7112143Y-14474476D02*
X7102619Y-14455428D01*
X7102619Y-14455428D02*
X7093095Y-14417333D01*
X7093095Y-14417333D02*
X7093095Y-14369714D01*
X7093095Y-14369714D02*
X7102619Y-14331619D01*
X7102619Y-14331619D02*
X7112143Y-14312571D01*
X7112143Y-14312571D02*
X7121667Y-14303048D01*
X7121667Y-14303048D02*
X7140714Y-14293524D01*
X7293095Y-14474476D02*
X7302619Y-14484000D01*
X7302619Y-14484000D02*
X7293095Y-14493524D01*
X7293095Y-14493524D02*
X7283571Y-14484000D01*
X7283571Y-14484000D02*
X7293095Y-14474476D01*
X7293095Y-14474476D02*
X7293095Y-14493524D01*
X7397857Y-14493524D02*
X7435952Y-14493524D01*
X7435952Y-14493524D02*
X7455000Y-14484000D01*
X7455000Y-14484000D02*
X7464524Y-14474476D01*
X7464524Y-14474476D02*
X7483571Y-14445905D01*
X7483571Y-14445905D02*
X7493095Y-14407809D01*
X7493095Y-14407809D02*
X7493095Y-14331619D01*
X7493095Y-14331619D02*
X7483571Y-14312571D01*
X7483571Y-14312571D02*
X7474048Y-14303048D01*
X7474048Y-14303048D02*
X7455000Y-14293524D01*
X7455000Y-14293524D02*
X7416905Y-14293524D01*
X7416905Y-14293524D02*
X7397857Y-14303048D01*
X7397857Y-14303048D02*
X7388333Y-14312571D01*
X7388333Y-14312571D02*
X7378809Y-14331619D01*
X7378809Y-14331619D02*
X7378809Y-14379238D01*
X7378809Y-14379238D02*
X7388333Y-14398286D01*
X7388333Y-14398286D02*
X7397857Y-14407809D01*
X7397857Y-14407809D02*
X7416905Y-14417333D01*
X7416905Y-14417333D02*
X7455000Y-14417333D01*
X7455000Y-14417333D02*
X7474048Y-14407809D01*
X7474048Y-14407809D02*
X7483571Y-14398286D01*
X7483571Y-14398286D02*
X7493095Y-14379238D01*
X7616905Y-14293524D02*
X7635952Y-14293524D01*
X7635952Y-14293524D02*
X7655000Y-14303048D01*
X7655000Y-14303048D02*
X7664524Y-14312571D01*
X7664524Y-14312571D02*
X7674048Y-14331619D01*
X7674048Y-14331619D02*
X7683571Y-14369714D01*
X7683571Y-14369714D02*
X7683571Y-14417333D01*
X7683571Y-14417333D02*
X7674048Y-14455428D01*
X7674048Y-14455428D02*
X7664524Y-14474476D01*
X7664524Y-14474476D02*
X7655000Y-14484000D01*
X7655000Y-14484000D02*
X7635952Y-14493524D01*
X7635952Y-14493524D02*
X7616905Y-14493524D01*
X7616905Y-14493524D02*
X7597857Y-14484000D01*
X7597857Y-14484000D02*
X7588333Y-14474476D01*
X7588333Y-14474476D02*
X7578809Y-14455428D01*
X7578809Y-14455428D02*
X7569286Y-14417333D01*
X7569286Y-14417333D02*
X7569286Y-14369714D01*
X7569286Y-14369714D02*
X7578809Y-14331619D01*
X7578809Y-14331619D02*
X7588333Y-14312571D01*
X7588333Y-14312571D02*
X7597857Y-14303048D01*
X7597857Y-14303048D02*
X7616905Y-14293524D01*
X7807381Y-14293524D02*
X7826429Y-14293524D01*
X7826429Y-14293524D02*
X7845476Y-14303048D01*
X7845476Y-14303048D02*
X7855000Y-14312571D01*
X7855000Y-14312571D02*
X7864524Y-14331619D01*
X7864524Y-14331619D02*
X7874048Y-14369714D01*
X7874048Y-14369714D02*
X7874048Y-14417333D01*
X7874048Y-14417333D02*
X7864524Y-14455428D01*
X7864524Y-14455428D02*
X7855000Y-14474476D01*
X7855000Y-14474476D02*
X7845476Y-14484000D01*
X7845476Y-14484000D02*
X7826429Y-14493524D01*
X7826429Y-14493524D02*
X7807381Y-14493524D01*
X7807381Y-14493524D02*
X7788333Y-14484000D01*
X7788333Y-14484000D02*
X7778809Y-14474476D01*
X7778809Y-14474476D02*
X7769286Y-14455428D01*
X7769286Y-14455428D02*
X7759762Y-14417333D01*
X7759762Y-14417333D02*
X7759762Y-14369714D01*
X7759762Y-14369714D02*
X7769286Y-14331619D01*
X7769286Y-14331619D02*
X7778809Y-14312571D01*
X7778809Y-14312571D02*
X7788333Y-14303048D01*
X7788333Y-14303048D02*
X7807381Y-14293524D01*
X7959762Y-14493524D02*
X7959762Y-14360190D01*
X7959762Y-14379238D02*
X7969286Y-14369714D01*
X7969286Y-14369714D02*
X7988333Y-14360190D01*
X7988333Y-14360190D02*
X8016905Y-14360190D01*
X8016905Y-14360190D02*
X8035952Y-14369714D01*
X8035952Y-14369714D02*
X8045476Y-14388762D01*
X8045476Y-14388762D02*
X8045476Y-14493524D01*
X8045476Y-14388762D02*
X8055000Y-14369714D01*
X8055000Y-14369714D02*
X8074048Y-14360190D01*
X8074048Y-14360190D02*
X8102619Y-14360190D01*
X8102619Y-14360190D02*
X8121667Y-14369714D01*
X8121667Y-14369714D02*
X8131190Y-14388762D01*
X8131190Y-14388762D02*
X8131190Y-14493524D01*
X8226429Y-14493524D02*
X8226429Y-14360190D01*
X8226429Y-14379238D02*
X8235952Y-14369714D01*
X8235952Y-14369714D02*
X8255000Y-14360190D01*
X8255000Y-14360190D02*
X8283571Y-14360190D01*
X8283571Y-14360190D02*
X8302619Y-14369714D01*
X8302619Y-14369714D02*
X8312143Y-14388762D01*
X8312143Y-14388762D02*
X8312143Y-14493524D01*
X8312143Y-14388762D02*
X8321667Y-14369714D01*
X8321667Y-14369714D02*
X8340714Y-14360190D01*
X8340714Y-14360190D02*
X8369286Y-14360190D01*
X8369286Y-14360190D02*
X8388333Y-14369714D01*
X8388333Y-14369714D02*
X8397857Y-14388762D01*
X8397857Y-14388762D02*
X8397857Y-14493524D01*
X8788333Y-14284000D02*
X8616905Y-14541143D01*
X9045476Y-14293524D02*
X9064524Y-14293524D01*
X9064524Y-14293524D02*
X9083572Y-14303048D01*
X9083572Y-14303048D02*
X9093095Y-14312571D01*
X9093095Y-14312571D02*
X9102619Y-14331619D01*
X9102619Y-14331619D02*
X9112143Y-14369714D01*
X9112143Y-14369714D02*
X9112143Y-14417333D01*
X9112143Y-14417333D02*
X9102619Y-14455428D01*
X9102619Y-14455428D02*
X9093095Y-14474476D01*
X9093095Y-14474476D02*
X9083572Y-14484000D01*
X9083572Y-14484000D02*
X9064524Y-14493524D01*
X9064524Y-14493524D02*
X9045476Y-14493524D01*
X9045476Y-14493524D02*
X9026429Y-14484000D01*
X9026429Y-14484000D02*
X9016905Y-14474476D01*
X9016905Y-14474476D02*
X9007381Y-14455428D01*
X9007381Y-14455428D02*
X8997857Y-14417333D01*
X8997857Y-14417333D02*
X8997857Y-14369714D01*
X8997857Y-14369714D02*
X9007381Y-14331619D01*
X9007381Y-14331619D02*
X9016905Y-14312571D01*
X9016905Y-14312571D02*
X9026429Y-14303048D01*
X9026429Y-14303048D02*
X9045476Y-14293524D01*
X9197857Y-14474476D02*
X9207381Y-14484000D01*
X9207381Y-14484000D02*
X9197857Y-14493524D01*
X9197857Y-14493524D02*
X9188334Y-14484000D01*
X9188334Y-14484000D02*
X9197857Y-14474476D01*
X9197857Y-14474476D02*
X9197857Y-14493524D01*
X9331191Y-14293524D02*
X9350238Y-14293524D01*
X9350238Y-14293524D02*
X9369286Y-14303048D01*
X9369286Y-14303048D02*
X9378810Y-14312571D01*
X9378810Y-14312571D02*
X9388334Y-14331619D01*
X9388334Y-14331619D02*
X9397857Y-14369714D01*
X9397857Y-14369714D02*
X9397857Y-14417333D01*
X9397857Y-14417333D02*
X9388334Y-14455428D01*
X9388334Y-14455428D02*
X9378810Y-14474476D01*
X9378810Y-14474476D02*
X9369286Y-14484000D01*
X9369286Y-14484000D02*
X9350238Y-14493524D01*
X9350238Y-14493524D02*
X9331191Y-14493524D01*
X9331191Y-14493524D02*
X9312143Y-14484000D01*
X9312143Y-14484000D02*
X9302619Y-14474476D01*
X9302619Y-14474476D02*
X9293095Y-14455428D01*
X9293095Y-14455428D02*
X9283572Y-14417333D01*
X9283572Y-14417333D02*
X9283572Y-14369714D01*
X9283572Y-14369714D02*
X9293095Y-14331619D01*
X9293095Y-14331619D02*
X9302619Y-14312571D01*
X9302619Y-14312571D02*
X9312143Y-14303048D01*
X9312143Y-14303048D02*
X9331191Y-14293524D01*
X9464524Y-14293524D02*
X9588334Y-14293524D01*
X9588334Y-14293524D02*
X9521667Y-14369714D01*
X9521667Y-14369714D02*
X9550238Y-14369714D01*
X9550238Y-14369714D02*
X9569286Y-14379238D01*
X9569286Y-14379238D02*
X9578810Y-14388762D01*
X9578810Y-14388762D02*
X9588334Y-14407809D01*
X9588334Y-14407809D02*
X9588334Y-14455428D01*
X9588334Y-14455428D02*
X9578810Y-14474476D01*
X9578810Y-14474476D02*
X9569286Y-14484000D01*
X9569286Y-14484000D02*
X9550238Y-14493524D01*
X9550238Y-14493524D02*
X9493095Y-14493524D01*
X9493095Y-14493524D02*
X9474048Y-14484000D01*
X9474048Y-14484000D02*
X9464524Y-14474476D01*
X9769286Y-14293524D02*
X9674048Y-14293524D01*
X9674048Y-14293524D02*
X9664524Y-14388762D01*
X9664524Y-14388762D02*
X9674048Y-14379238D01*
X9674048Y-14379238D02*
X9693095Y-14369714D01*
X9693095Y-14369714D02*
X9740715Y-14369714D01*
X9740715Y-14369714D02*
X9759762Y-14379238D01*
X9759762Y-14379238D02*
X9769286Y-14388762D01*
X9769286Y-14388762D02*
X9778810Y-14407809D01*
X9778810Y-14407809D02*
X9778810Y-14455428D01*
X9778810Y-14455428D02*
X9769286Y-14474476D01*
X9769286Y-14474476D02*
X9759762Y-14484000D01*
X9759762Y-14484000D02*
X9740715Y-14493524D01*
X9740715Y-14493524D02*
X9693095Y-14493524D01*
X9693095Y-14493524D02*
X9674048Y-14484000D01*
X9674048Y-14484000D02*
X9664524Y-14474476D01*
X9950238Y-14360190D02*
X9950238Y-14493524D01*
X9902619Y-14284000D02*
X9855000Y-14426857D01*
X9855000Y-14426857D02*
X9978810Y-14426857D01*
X10045476Y-14293524D02*
X10045476Y-14331619D01*
X10121667Y-14293524D02*
X10121667Y-14331619D01*
X10416905Y-14569714D02*
X10407381Y-14560190D01*
X10407381Y-14560190D02*
X10388334Y-14531619D01*
X10388334Y-14531619D02*
X10378810Y-14512571D01*
X10378810Y-14512571D02*
X10369286Y-14484000D01*
X10369286Y-14484000D02*
X10359762Y-14436381D01*
X10359762Y-14436381D02*
X10359762Y-14398286D01*
X10359762Y-14398286D02*
X10369286Y-14350667D01*
X10369286Y-14350667D02*
X10378810Y-14322095D01*
X10378810Y-14322095D02*
X10388334Y-14303048D01*
X10388334Y-14303048D02*
X10407381Y-14274476D01*
X10407381Y-14274476D02*
X10416905Y-14264952D01*
X10483572Y-14312571D02*
X10493096Y-14303048D01*
X10493096Y-14303048D02*
X10512143Y-14293524D01*
X10512143Y-14293524D02*
X10559762Y-14293524D01*
X10559762Y-14293524D02*
X10578810Y-14303048D01*
X10578810Y-14303048D02*
X10588334Y-14312571D01*
X10588334Y-14312571D02*
X10597857Y-14331619D01*
X10597857Y-14331619D02*
X10597857Y-14350667D01*
X10597857Y-14350667D02*
X10588334Y-14379238D01*
X10588334Y-14379238D02*
X10474048Y-14493524D01*
X10474048Y-14493524D02*
X10597857Y-14493524D01*
X10835953Y-14493524D02*
X10835953Y-14293524D01*
X10921667Y-14493524D02*
X10921667Y-14388762D01*
X10921667Y-14388762D02*
X10912143Y-14369714D01*
X10912143Y-14369714D02*
X10893096Y-14360190D01*
X10893096Y-14360190D02*
X10864524Y-14360190D01*
X10864524Y-14360190D02*
X10845477Y-14369714D01*
X10845477Y-14369714D02*
X10835953Y-14379238D01*
X11045477Y-14493524D02*
X11026429Y-14484000D01*
X11026429Y-14484000D02*
X11016905Y-14474476D01*
X11016905Y-14474476D02*
X11007381Y-14455428D01*
X11007381Y-14455428D02*
X11007381Y-14398286D01*
X11007381Y-14398286D02*
X11016905Y-14379238D01*
X11016905Y-14379238D02*
X11026429Y-14369714D01*
X11026429Y-14369714D02*
X11045477Y-14360190D01*
X11045477Y-14360190D02*
X11074048Y-14360190D01*
X11074048Y-14360190D02*
X11093096Y-14369714D01*
X11093096Y-14369714D02*
X11102619Y-14379238D01*
X11102619Y-14379238D02*
X11112143Y-14398286D01*
X11112143Y-14398286D02*
X11112143Y-14455428D01*
X11112143Y-14455428D02*
X11102619Y-14474476D01*
X11102619Y-14474476D02*
X11093096Y-14484000D01*
X11093096Y-14484000D02*
X11074048Y-14493524D01*
X11074048Y-14493524D02*
X11045477Y-14493524D01*
X11226429Y-14493524D02*
X11207381Y-14484000D01*
X11207381Y-14484000D02*
X11197857Y-14464952D01*
X11197857Y-14464952D02*
X11197857Y-14293524D01*
X11378810Y-14484000D02*
X11359762Y-14493524D01*
X11359762Y-14493524D02*
X11321667Y-14493524D01*
X11321667Y-14493524D02*
X11302619Y-14484000D01*
X11302619Y-14484000D02*
X11293096Y-14464952D01*
X11293096Y-14464952D02*
X11293096Y-14388762D01*
X11293096Y-14388762D02*
X11302619Y-14369714D01*
X11302619Y-14369714D02*
X11321667Y-14360190D01*
X11321667Y-14360190D02*
X11359762Y-14360190D01*
X11359762Y-14360190D02*
X11378810Y-14369714D01*
X11378810Y-14369714D02*
X11388334Y-14388762D01*
X11388334Y-14388762D02*
X11388334Y-14407809D01*
X11388334Y-14407809D02*
X11293096Y-14426857D01*
X11464524Y-14484000D02*
X11483572Y-14493524D01*
X11483572Y-14493524D02*
X11521667Y-14493524D01*
X11521667Y-14493524D02*
X11540715Y-14484000D01*
X11540715Y-14484000D02*
X11550238Y-14464952D01*
X11550238Y-14464952D02*
X11550238Y-14455428D01*
X11550238Y-14455428D02*
X11540715Y-14436381D01*
X11540715Y-14436381D02*
X11521667Y-14426857D01*
X11521667Y-14426857D02*
X11493096Y-14426857D01*
X11493096Y-14426857D02*
X11474048Y-14417333D01*
X11474048Y-14417333D02*
X11464524Y-14398286D01*
X11464524Y-14398286D02*
X11464524Y-14388762D01*
X11464524Y-14388762D02*
X11474048Y-14369714D01*
X11474048Y-14369714D02*
X11493096Y-14360190D01*
X11493096Y-14360190D02*
X11521667Y-14360190D01*
X11521667Y-14360190D02*
X11540715Y-14369714D01*
X11616905Y-14569714D02*
X11626429Y-14560190D01*
X11626429Y-14560190D02*
X11645477Y-14531619D01*
X11645477Y-14531619D02*
X11655000Y-14512571D01*
X11655000Y-14512571D02*
X11664524Y-14484000D01*
X11664524Y-14484000D02*
X11674048Y-14436381D01*
X11674048Y-14436381D02*
X11674048Y-14398286D01*
X11674048Y-14398286D02*
X11664524Y-14350667D01*
X11664524Y-14350667D02*
X11655000Y-14322095D01*
X11655000Y-14322095D02*
X11645477Y-14303048D01*
X11645477Y-14303048D02*
X11626429Y-14274476D01*
X11626429Y-14274476D02*
X11616905Y-14264952D01*
D10*
X6755000Y-14615000D02*
X6855000Y-14715000D01*
X6855000Y-14615000D02*
X6755000Y-14715000D01*
X6855000Y-14665000D02*
G75*
G03*
X6855000Y-14665000I-50000J0D01*
G01*
D11*
X7207381Y-14757524D02*
X7093095Y-14757524D01*
X7150238Y-14757524D02*
X7150238Y-14557524D01*
X7150238Y-14557524D02*
X7131190Y-14586095D01*
X7131190Y-14586095D02*
X7112143Y-14605143D01*
X7112143Y-14605143D02*
X7093095Y-14614667D01*
X7293095Y-14738476D02*
X7302619Y-14748000D01*
X7302619Y-14748000D02*
X7293095Y-14757524D01*
X7293095Y-14757524D02*
X7283571Y-14748000D01*
X7283571Y-14748000D02*
X7293095Y-14738476D01*
X7293095Y-14738476D02*
X7293095Y-14757524D01*
X7426428Y-14557524D02*
X7445476Y-14557524D01*
X7445476Y-14557524D02*
X7464524Y-14567048D01*
X7464524Y-14567048D02*
X7474048Y-14576571D01*
X7474048Y-14576571D02*
X7483571Y-14595619D01*
X7483571Y-14595619D02*
X7493095Y-14633714D01*
X7493095Y-14633714D02*
X7493095Y-14681333D01*
X7493095Y-14681333D02*
X7483571Y-14719428D01*
X7483571Y-14719428D02*
X7474048Y-14738476D01*
X7474048Y-14738476D02*
X7464524Y-14748000D01*
X7464524Y-14748000D02*
X7445476Y-14757524D01*
X7445476Y-14757524D02*
X7426428Y-14757524D01*
X7426428Y-14757524D02*
X7407381Y-14748000D01*
X7407381Y-14748000D02*
X7397857Y-14738476D01*
X7397857Y-14738476D02*
X7388333Y-14719428D01*
X7388333Y-14719428D02*
X7378809Y-14681333D01*
X7378809Y-14681333D02*
X7378809Y-14633714D01*
X7378809Y-14633714D02*
X7388333Y-14595619D01*
X7388333Y-14595619D02*
X7397857Y-14576571D01*
X7397857Y-14576571D02*
X7407381Y-14567048D01*
X7407381Y-14567048D02*
X7426428Y-14557524D01*
X7616905Y-14557524D02*
X7635952Y-14557524D01*
X7635952Y-14557524D02*
X7655000Y-14567048D01*
X7655000Y-14567048D02*
X7664524Y-14576571D01*
X7664524Y-14576571D02*
X7674048Y-14595619D01*
X7674048Y-14595619D02*
X7683571Y-14633714D01*
X7683571Y-14633714D02*
X7683571Y-14681333D01*
X7683571Y-14681333D02*
X7674048Y-14719428D01*
X7674048Y-14719428D02*
X7664524Y-14738476D01*
X7664524Y-14738476D02*
X7655000Y-14748000D01*
X7655000Y-14748000D02*
X7635952Y-14757524D01*
X7635952Y-14757524D02*
X7616905Y-14757524D01*
X7616905Y-14757524D02*
X7597857Y-14748000D01*
X7597857Y-14748000D02*
X7588333Y-14738476D01*
X7588333Y-14738476D02*
X7578809Y-14719428D01*
X7578809Y-14719428D02*
X7569286Y-14681333D01*
X7569286Y-14681333D02*
X7569286Y-14633714D01*
X7569286Y-14633714D02*
X7578809Y-14595619D01*
X7578809Y-14595619D02*
X7588333Y-14576571D01*
X7588333Y-14576571D02*
X7597857Y-14567048D01*
X7597857Y-14567048D02*
X7616905Y-14557524D01*
X7807381Y-14557524D02*
X7826429Y-14557524D01*
X7826429Y-14557524D02*
X7845476Y-14567048D01*
X7845476Y-14567048D02*
X7855000Y-14576571D01*
X7855000Y-14576571D02*
X7864524Y-14595619D01*
X7864524Y-14595619D02*
X7874048Y-14633714D01*
X7874048Y-14633714D02*
X7874048Y-14681333D01*
X7874048Y-14681333D02*
X7864524Y-14719428D01*
X7864524Y-14719428D02*
X7855000Y-14738476D01*
X7855000Y-14738476D02*
X7845476Y-14748000D01*
X7845476Y-14748000D02*
X7826429Y-14757524D01*
X7826429Y-14757524D02*
X7807381Y-14757524D01*
X7807381Y-14757524D02*
X7788333Y-14748000D01*
X7788333Y-14748000D02*
X7778809Y-14738476D01*
X7778809Y-14738476D02*
X7769286Y-14719428D01*
X7769286Y-14719428D02*
X7759762Y-14681333D01*
X7759762Y-14681333D02*
X7759762Y-14633714D01*
X7759762Y-14633714D02*
X7769286Y-14595619D01*
X7769286Y-14595619D02*
X7778809Y-14576571D01*
X7778809Y-14576571D02*
X7788333Y-14567048D01*
X7788333Y-14567048D02*
X7807381Y-14557524D01*
X7959762Y-14757524D02*
X7959762Y-14624190D01*
X7959762Y-14643238D02*
X7969286Y-14633714D01*
X7969286Y-14633714D02*
X7988333Y-14624190D01*
X7988333Y-14624190D02*
X8016905Y-14624190D01*
X8016905Y-14624190D02*
X8035952Y-14633714D01*
X8035952Y-14633714D02*
X8045476Y-14652762D01*
X8045476Y-14652762D02*
X8045476Y-14757524D01*
X8045476Y-14652762D02*
X8055000Y-14633714D01*
X8055000Y-14633714D02*
X8074048Y-14624190D01*
X8074048Y-14624190D02*
X8102619Y-14624190D01*
X8102619Y-14624190D02*
X8121667Y-14633714D01*
X8121667Y-14633714D02*
X8131190Y-14652762D01*
X8131190Y-14652762D02*
X8131190Y-14757524D01*
X8226429Y-14757524D02*
X8226429Y-14624190D01*
X8226429Y-14643238D02*
X8235952Y-14633714D01*
X8235952Y-14633714D02*
X8255000Y-14624190D01*
X8255000Y-14624190D02*
X8283571Y-14624190D01*
X8283571Y-14624190D02*
X8302619Y-14633714D01*
X8302619Y-14633714D02*
X8312143Y-14652762D01*
X8312143Y-14652762D02*
X8312143Y-14757524D01*
X8312143Y-14652762D02*
X8321667Y-14633714D01*
X8321667Y-14633714D02*
X8340714Y-14624190D01*
X8340714Y-14624190D02*
X8369286Y-14624190D01*
X8369286Y-14624190D02*
X8388333Y-14633714D01*
X8388333Y-14633714D02*
X8397857Y-14652762D01*
X8397857Y-14652762D02*
X8397857Y-14757524D01*
X8788333Y-14548000D02*
X8616905Y-14805143D01*
X9045476Y-14557524D02*
X9064524Y-14557524D01*
X9064524Y-14557524D02*
X9083572Y-14567048D01*
X9083572Y-14567048D02*
X9093095Y-14576571D01*
X9093095Y-14576571D02*
X9102619Y-14595619D01*
X9102619Y-14595619D02*
X9112143Y-14633714D01*
X9112143Y-14633714D02*
X9112143Y-14681333D01*
X9112143Y-14681333D02*
X9102619Y-14719428D01*
X9102619Y-14719428D02*
X9093095Y-14738476D01*
X9093095Y-14738476D02*
X9083572Y-14748000D01*
X9083572Y-14748000D02*
X9064524Y-14757524D01*
X9064524Y-14757524D02*
X9045476Y-14757524D01*
X9045476Y-14757524D02*
X9026429Y-14748000D01*
X9026429Y-14748000D02*
X9016905Y-14738476D01*
X9016905Y-14738476D02*
X9007381Y-14719428D01*
X9007381Y-14719428D02*
X8997857Y-14681333D01*
X8997857Y-14681333D02*
X8997857Y-14633714D01*
X8997857Y-14633714D02*
X9007381Y-14595619D01*
X9007381Y-14595619D02*
X9016905Y-14576571D01*
X9016905Y-14576571D02*
X9026429Y-14567048D01*
X9026429Y-14567048D02*
X9045476Y-14557524D01*
X9197857Y-14738476D02*
X9207381Y-14748000D01*
X9207381Y-14748000D02*
X9197857Y-14757524D01*
X9197857Y-14757524D02*
X9188334Y-14748000D01*
X9188334Y-14748000D02*
X9197857Y-14738476D01*
X9197857Y-14738476D02*
X9197857Y-14757524D01*
X9331191Y-14557524D02*
X9350238Y-14557524D01*
X9350238Y-14557524D02*
X9369286Y-14567048D01*
X9369286Y-14567048D02*
X9378810Y-14576571D01*
X9378810Y-14576571D02*
X9388334Y-14595619D01*
X9388334Y-14595619D02*
X9397857Y-14633714D01*
X9397857Y-14633714D02*
X9397857Y-14681333D01*
X9397857Y-14681333D02*
X9388334Y-14719428D01*
X9388334Y-14719428D02*
X9378810Y-14738476D01*
X9378810Y-14738476D02*
X9369286Y-14748000D01*
X9369286Y-14748000D02*
X9350238Y-14757524D01*
X9350238Y-14757524D02*
X9331191Y-14757524D01*
X9331191Y-14757524D02*
X9312143Y-14748000D01*
X9312143Y-14748000D02*
X9302619Y-14738476D01*
X9302619Y-14738476D02*
X9293095Y-14719428D01*
X9293095Y-14719428D02*
X9283572Y-14681333D01*
X9283572Y-14681333D02*
X9283572Y-14633714D01*
X9283572Y-14633714D02*
X9293095Y-14595619D01*
X9293095Y-14595619D02*
X9302619Y-14576571D01*
X9302619Y-14576571D02*
X9312143Y-14567048D01*
X9312143Y-14567048D02*
X9331191Y-14557524D01*
X9464524Y-14557524D02*
X9588334Y-14557524D01*
X9588334Y-14557524D02*
X9521667Y-14633714D01*
X9521667Y-14633714D02*
X9550238Y-14633714D01*
X9550238Y-14633714D02*
X9569286Y-14643238D01*
X9569286Y-14643238D02*
X9578810Y-14652762D01*
X9578810Y-14652762D02*
X9588334Y-14671809D01*
X9588334Y-14671809D02*
X9588334Y-14719428D01*
X9588334Y-14719428D02*
X9578810Y-14738476D01*
X9578810Y-14738476D02*
X9569286Y-14748000D01*
X9569286Y-14748000D02*
X9550238Y-14757524D01*
X9550238Y-14757524D02*
X9493095Y-14757524D01*
X9493095Y-14757524D02*
X9474048Y-14748000D01*
X9474048Y-14748000D02*
X9464524Y-14738476D01*
X9683572Y-14757524D02*
X9721667Y-14757524D01*
X9721667Y-14757524D02*
X9740715Y-14748000D01*
X9740715Y-14748000D02*
X9750238Y-14738476D01*
X9750238Y-14738476D02*
X9769286Y-14709905D01*
X9769286Y-14709905D02*
X9778810Y-14671809D01*
X9778810Y-14671809D02*
X9778810Y-14595619D01*
X9778810Y-14595619D02*
X9769286Y-14576571D01*
X9769286Y-14576571D02*
X9759762Y-14567048D01*
X9759762Y-14567048D02*
X9740715Y-14557524D01*
X9740715Y-14557524D02*
X9702619Y-14557524D01*
X9702619Y-14557524D02*
X9683572Y-14567048D01*
X9683572Y-14567048D02*
X9674048Y-14576571D01*
X9674048Y-14576571D02*
X9664524Y-14595619D01*
X9664524Y-14595619D02*
X9664524Y-14643238D01*
X9664524Y-14643238D02*
X9674048Y-14662286D01*
X9674048Y-14662286D02*
X9683572Y-14671809D01*
X9683572Y-14671809D02*
X9702619Y-14681333D01*
X9702619Y-14681333D02*
X9740715Y-14681333D01*
X9740715Y-14681333D02*
X9759762Y-14671809D01*
X9759762Y-14671809D02*
X9769286Y-14662286D01*
X9769286Y-14662286D02*
X9778810Y-14643238D01*
X9950238Y-14624190D02*
X9950238Y-14757524D01*
X9902619Y-14548000D02*
X9855000Y-14690857D01*
X9855000Y-14690857D02*
X9978810Y-14690857D01*
X10045476Y-14557524D02*
X10045476Y-14595619D01*
X10121667Y-14557524D02*
X10121667Y-14595619D01*
X10416905Y-14833714D02*
X10407381Y-14824190D01*
X10407381Y-14824190D02*
X10388334Y-14795619D01*
X10388334Y-14795619D02*
X10378810Y-14776571D01*
X10378810Y-14776571D02*
X10369286Y-14748000D01*
X10369286Y-14748000D02*
X10359762Y-14700381D01*
X10359762Y-14700381D02*
X10359762Y-14662286D01*
X10359762Y-14662286D02*
X10369286Y-14614667D01*
X10369286Y-14614667D02*
X10378810Y-14586095D01*
X10378810Y-14586095D02*
X10388334Y-14567048D01*
X10388334Y-14567048D02*
X10407381Y-14538476D01*
X10407381Y-14538476D02*
X10416905Y-14528952D01*
X10474048Y-14557524D02*
X10597857Y-14557524D01*
X10597857Y-14557524D02*
X10531191Y-14633714D01*
X10531191Y-14633714D02*
X10559762Y-14633714D01*
X10559762Y-14633714D02*
X10578810Y-14643238D01*
X10578810Y-14643238D02*
X10588334Y-14652762D01*
X10588334Y-14652762D02*
X10597857Y-14671809D01*
X10597857Y-14671809D02*
X10597857Y-14719428D01*
X10597857Y-14719428D02*
X10588334Y-14738476D01*
X10588334Y-14738476D02*
X10578810Y-14748000D01*
X10578810Y-14748000D02*
X10559762Y-14757524D01*
X10559762Y-14757524D02*
X10502619Y-14757524D01*
X10502619Y-14757524D02*
X10483572Y-14748000D01*
X10483572Y-14748000D02*
X10474048Y-14738476D01*
X10788334Y-14757524D02*
X10674048Y-14757524D01*
X10731191Y-14757524D02*
X10731191Y-14557524D01*
X10731191Y-14557524D02*
X10712143Y-14586095D01*
X10712143Y-14586095D02*
X10693096Y-14605143D01*
X10693096Y-14605143D02*
X10674048Y-14614667D01*
X11026429Y-14757524D02*
X11026429Y-14557524D01*
X11112143Y-14757524D02*
X11112143Y-14652762D01*
X11112143Y-14652762D02*
X11102619Y-14633714D01*
X11102619Y-14633714D02*
X11083572Y-14624190D01*
X11083572Y-14624190D02*
X11055000Y-14624190D01*
X11055000Y-14624190D02*
X11035953Y-14633714D01*
X11035953Y-14633714D02*
X11026429Y-14643238D01*
X11235953Y-14757524D02*
X11216905Y-14748000D01*
X11216905Y-14748000D02*
X11207381Y-14738476D01*
X11207381Y-14738476D02*
X11197857Y-14719428D01*
X11197857Y-14719428D02*
X11197857Y-14662286D01*
X11197857Y-14662286D02*
X11207381Y-14643238D01*
X11207381Y-14643238D02*
X11216905Y-14633714D01*
X11216905Y-14633714D02*
X11235953Y-14624190D01*
X11235953Y-14624190D02*
X11264524Y-14624190D01*
X11264524Y-14624190D02*
X11283572Y-14633714D01*
X11283572Y-14633714D02*
X11293096Y-14643238D01*
X11293096Y-14643238D02*
X11302619Y-14662286D01*
X11302619Y-14662286D02*
X11302619Y-14719428D01*
X11302619Y-14719428D02*
X11293096Y-14738476D01*
X11293096Y-14738476D02*
X11283572Y-14748000D01*
X11283572Y-14748000D02*
X11264524Y-14757524D01*
X11264524Y-14757524D02*
X11235953Y-14757524D01*
X11416905Y-14757524D02*
X11397857Y-14748000D01*
X11397857Y-14748000D02*
X11388334Y-14728952D01*
X11388334Y-14728952D02*
X11388334Y-14557524D01*
X11569286Y-14748000D02*
X11550238Y-14757524D01*
X11550238Y-14757524D02*
X11512143Y-14757524D01*
X11512143Y-14757524D02*
X11493096Y-14748000D01*
X11493096Y-14748000D02*
X11483572Y-14728952D01*
X11483572Y-14728952D02*
X11483572Y-14652762D01*
X11483572Y-14652762D02*
X11493096Y-14633714D01*
X11493096Y-14633714D02*
X11512143Y-14624190D01*
X11512143Y-14624190D02*
X11550238Y-14624190D01*
X11550238Y-14624190D02*
X11569286Y-14633714D01*
X11569286Y-14633714D02*
X11578810Y-14652762D01*
X11578810Y-14652762D02*
X11578810Y-14671809D01*
X11578810Y-14671809D02*
X11483572Y-14690857D01*
X11655000Y-14748000D02*
X11674048Y-14757524D01*
X11674048Y-14757524D02*
X11712143Y-14757524D01*
X11712143Y-14757524D02*
X11731191Y-14748000D01*
X11731191Y-14748000D02*
X11740715Y-14728952D01*
X11740715Y-14728952D02*
X11740715Y-14719428D01*
X11740715Y-14719428D02*
X11731191Y-14700381D01*
X11731191Y-14700381D02*
X11712143Y-14690857D01*
X11712143Y-14690857D02*
X11683572Y-14690857D01*
X11683572Y-14690857D02*
X11664524Y-14681333D01*
X11664524Y-14681333D02*
X11655000Y-14662286D01*
X11655000Y-14662286D02*
X11655000Y-14652762D01*
X11655000Y-14652762D02*
X11664524Y-14633714D01*
X11664524Y-14633714D02*
X11683572Y-14624190D01*
X11683572Y-14624190D02*
X11712143Y-14624190D01*
X11712143Y-14624190D02*
X11731191Y-14633714D01*
X11807381Y-14833714D02*
X11816905Y-14824190D01*
X11816905Y-14824190D02*
X11835953Y-14795619D01*
X11835953Y-14795619D02*
X11845477Y-14776571D01*
X11845477Y-14776571D02*
X11855000Y-14748000D01*
X11855000Y-14748000D02*
X11864524Y-14700381D01*
X11864524Y-14700381D02*
X11864524Y-14662286D01*
X11864524Y-14662286D02*
X11855000Y-14614667D01*
X11855000Y-14614667D02*
X11845477Y-14586095D01*
X11845477Y-14586095D02*
X11835953Y-14567048D01*
X11835953Y-14567048D02*
X11816905Y-14538476D01*
X11816905Y-14538476D02*
X11807381Y-14528952D01*
D17*
X6735000Y-14869000D02*
X6855000Y-14989000D01*
X6855000Y-14869000D02*
X6735000Y-14989000D01*
X6795000Y-14869000D02*
X6795000Y-14989000D01*
X6735000Y-14929000D02*
X6855000Y-14929000D01*
D11*
X7207381Y-15021524D02*
X7093095Y-15021524D01*
X7150238Y-15021524D02*
X7150238Y-14821524D01*
X7150238Y-14821524D02*
X7131190Y-14850095D01*
X7131190Y-14850095D02*
X7112143Y-14869143D01*
X7112143Y-14869143D02*
X7093095Y-14878667D01*
X7293095Y-15002476D02*
X7302619Y-15012000D01*
X7302619Y-15012000D02*
X7293095Y-15021524D01*
X7293095Y-15021524D02*
X7283571Y-15012000D01*
X7283571Y-15012000D02*
X7293095Y-15002476D01*
X7293095Y-15002476D02*
X7293095Y-15021524D01*
X7378809Y-14840571D02*
X7388333Y-14831048D01*
X7388333Y-14831048D02*
X7407381Y-14821524D01*
X7407381Y-14821524D02*
X7455000Y-14821524D01*
X7455000Y-14821524D02*
X7474048Y-14831048D01*
X7474048Y-14831048D02*
X7483571Y-14840571D01*
X7483571Y-14840571D02*
X7493095Y-14859619D01*
X7493095Y-14859619D02*
X7493095Y-14878667D01*
X7493095Y-14878667D02*
X7483571Y-14907238D01*
X7483571Y-14907238D02*
X7369286Y-15021524D01*
X7369286Y-15021524D02*
X7493095Y-15021524D01*
X7616905Y-14821524D02*
X7635952Y-14821524D01*
X7635952Y-14821524D02*
X7655000Y-14831048D01*
X7655000Y-14831048D02*
X7664524Y-14840571D01*
X7664524Y-14840571D02*
X7674048Y-14859619D01*
X7674048Y-14859619D02*
X7683571Y-14897714D01*
X7683571Y-14897714D02*
X7683571Y-14945333D01*
X7683571Y-14945333D02*
X7674048Y-14983428D01*
X7674048Y-14983428D02*
X7664524Y-15002476D01*
X7664524Y-15002476D02*
X7655000Y-15012000D01*
X7655000Y-15012000D02*
X7635952Y-15021524D01*
X7635952Y-15021524D02*
X7616905Y-15021524D01*
X7616905Y-15021524D02*
X7597857Y-15012000D01*
X7597857Y-15012000D02*
X7588333Y-15002476D01*
X7588333Y-15002476D02*
X7578809Y-14983428D01*
X7578809Y-14983428D02*
X7569286Y-14945333D01*
X7569286Y-14945333D02*
X7569286Y-14897714D01*
X7569286Y-14897714D02*
X7578809Y-14859619D01*
X7578809Y-14859619D02*
X7588333Y-14840571D01*
X7588333Y-14840571D02*
X7597857Y-14831048D01*
X7597857Y-14831048D02*
X7616905Y-14821524D01*
X7807381Y-14821524D02*
X7826429Y-14821524D01*
X7826429Y-14821524D02*
X7845476Y-14831048D01*
X7845476Y-14831048D02*
X7855000Y-14840571D01*
X7855000Y-14840571D02*
X7864524Y-14859619D01*
X7864524Y-14859619D02*
X7874048Y-14897714D01*
X7874048Y-14897714D02*
X7874048Y-14945333D01*
X7874048Y-14945333D02*
X7864524Y-14983428D01*
X7864524Y-14983428D02*
X7855000Y-15002476D01*
X7855000Y-15002476D02*
X7845476Y-15012000D01*
X7845476Y-15012000D02*
X7826429Y-15021524D01*
X7826429Y-15021524D02*
X7807381Y-15021524D01*
X7807381Y-15021524D02*
X7788333Y-15012000D01*
X7788333Y-15012000D02*
X7778809Y-15002476D01*
X7778809Y-15002476D02*
X7769286Y-14983428D01*
X7769286Y-14983428D02*
X7759762Y-14945333D01*
X7759762Y-14945333D02*
X7759762Y-14897714D01*
X7759762Y-14897714D02*
X7769286Y-14859619D01*
X7769286Y-14859619D02*
X7778809Y-14840571D01*
X7778809Y-14840571D02*
X7788333Y-14831048D01*
X7788333Y-14831048D02*
X7807381Y-14821524D01*
X7959762Y-15021524D02*
X7959762Y-14888190D01*
X7959762Y-14907238D02*
X7969286Y-14897714D01*
X7969286Y-14897714D02*
X7988333Y-14888190D01*
X7988333Y-14888190D02*
X8016905Y-14888190D01*
X8016905Y-14888190D02*
X8035952Y-14897714D01*
X8035952Y-14897714D02*
X8045476Y-14916762D01*
X8045476Y-14916762D02*
X8045476Y-15021524D01*
X8045476Y-14916762D02*
X8055000Y-14897714D01*
X8055000Y-14897714D02*
X8074048Y-14888190D01*
X8074048Y-14888190D02*
X8102619Y-14888190D01*
X8102619Y-14888190D02*
X8121667Y-14897714D01*
X8121667Y-14897714D02*
X8131190Y-14916762D01*
X8131190Y-14916762D02*
X8131190Y-15021524D01*
X8226429Y-15021524D02*
X8226429Y-14888190D01*
X8226429Y-14907238D02*
X8235952Y-14897714D01*
X8235952Y-14897714D02*
X8255000Y-14888190D01*
X8255000Y-14888190D02*
X8283571Y-14888190D01*
X8283571Y-14888190D02*
X8302619Y-14897714D01*
X8302619Y-14897714D02*
X8312143Y-14916762D01*
X8312143Y-14916762D02*
X8312143Y-15021524D01*
X8312143Y-14916762D02*
X8321667Y-14897714D01*
X8321667Y-14897714D02*
X8340714Y-14888190D01*
X8340714Y-14888190D02*
X8369286Y-14888190D01*
X8369286Y-14888190D02*
X8388333Y-14897714D01*
X8388333Y-14897714D02*
X8397857Y-14916762D01*
X8397857Y-14916762D02*
X8397857Y-15021524D01*
X8788333Y-14812000D02*
X8616905Y-15069143D01*
X9045476Y-14821524D02*
X9064524Y-14821524D01*
X9064524Y-14821524D02*
X9083572Y-14831048D01*
X9083572Y-14831048D02*
X9093095Y-14840571D01*
X9093095Y-14840571D02*
X9102619Y-14859619D01*
X9102619Y-14859619D02*
X9112143Y-14897714D01*
X9112143Y-14897714D02*
X9112143Y-14945333D01*
X9112143Y-14945333D02*
X9102619Y-14983428D01*
X9102619Y-14983428D02*
X9093095Y-15002476D01*
X9093095Y-15002476D02*
X9083572Y-15012000D01*
X9083572Y-15012000D02*
X9064524Y-15021524D01*
X9064524Y-15021524D02*
X9045476Y-15021524D01*
X9045476Y-15021524D02*
X9026429Y-15012000D01*
X9026429Y-15012000D02*
X9016905Y-15002476D01*
X9016905Y-15002476D02*
X9007381Y-14983428D01*
X9007381Y-14983428D02*
X8997857Y-14945333D01*
X8997857Y-14945333D02*
X8997857Y-14897714D01*
X8997857Y-14897714D02*
X9007381Y-14859619D01*
X9007381Y-14859619D02*
X9016905Y-14840571D01*
X9016905Y-14840571D02*
X9026429Y-14831048D01*
X9026429Y-14831048D02*
X9045476Y-14821524D01*
X9197857Y-15002476D02*
X9207381Y-15012000D01*
X9207381Y-15012000D02*
X9197857Y-15021524D01*
X9197857Y-15021524D02*
X9188334Y-15012000D01*
X9188334Y-15012000D02*
X9197857Y-15002476D01*
X9197857Y-15002476D02*
X9197857Y-15021524D01*
X9331191Y-14821524D02*
X9350238Y-14821524D01*
X9350238Y-14821524D02*
X9369286Y-14831048D01*
X9369286Y-14831048D02*
X9378810Y-14840571D01*
X9378810Y-14840571D02*
X9388334Y-14859619D01*
X9388334Y-14859619D02*
X9397857Y-14897714D01*
X9397857Y-14897714D02*
X9397857Y-14945333D01*
X9397857Y-14945333D02*
X9388334Y-14983428D01*
X9388334Y-14983428D02*
X9378810Y-15002476D01*
X9378810Y-15002476D02*
X9369286Y-15012000D01*
X9369286Y-15012000D02*
X9350238Y-15021524D01*
X9350238Y-15021524D02*
X9331191Y-15021524D01*
X9331191Y-15021524D02*
X9312143Y-15012000D01*
X9312143Y-15012000D02*
X9302619Y-15002476D01*
X9302619Y-15002476D02*
X9293095Y-14983428D01*
X9293095Y-14983428D02*
X9283572Y-14945333D01*
X9283572Y-14945333D02*
X9283572Y-14897714D01*
X9283572Y-14897714D02*
X9293095Y-14859619D01*
X9293095Y-14859619D02*
X9302619Y-14840571D01*
X9302619Y-14840571D02*
X9312143Y-14831048D01*
X9312143Y-14831048D02*
X9331191Y-14821524D01*
X9569286Y-14888190D02*
X9569286Y-15021524D01*
X9521667Y-14812000D02*
X9474048Y-14954857D01*
X9474048Y-14954857D02*
X9597857Y-14954857D01*
X9655000Y-14821524D02*
X9788334Y-14821524D01*
X9788334Y-14821524D02*
X9702619Y-15021524D01*
X9855000Y-14840571D02*
X9864524Y-14831048D01*
X9864524Y-14831048D02*
X9883572Y-14821524D01*
X9883572Y-14821524D02*
X9931191Y-14821524D01*
X9931191Y-14821524D02*
X9950238Y-14831048D01*
X9950238Y-14831048D02*
X9959762Y-14840571D01*
X9959762Y-14840571D02*
X9969286Y-14859619D01*
X9969286Y-14859619D02*
X9969286Y-14878667D01*
X9969286Y-14878667D02*
X9959762Y-14907238D01*
X9959762Y-14907238D02*
X9845476Y-15021524D01*
X9845476Y-15021524D02*
X9969286Y-15021524D01*
X10045476Y-14821524D02*
X10045476Y-14859619D01*
X10121667Y-14821524D02*
X10121667Y-14859619D01*
X10416905Y-15097714D02*
X10407381Y-15088190D01*
X10407381Y-15088190D02*
X10388334Y-15059619D01*
X10388334Y-15059619D02*
X10378810Y-15040571D01*
X10378810Y-15040571D02*
X10369286Y-15012000D01*
X10369286Y-15012000D02*
X10359762Y-14964381D01*
X10359762Y-14964381D02*
X10359762Y-14926286D01*
X10359762Y-14926286D02*
X10369286Y-14878667D01*
X10369286Y-14878667D02*
X10378810Y-14850095D01*
X10378810Y-14850095D02*
X10388334Y-14831048D01*
X10388334Y-14831048D02*
X10407381Y-14802476D01*
X10407381Y-14802476D02*
X10416905Y-14792952D01*
X10483572Y-14840571D02*
X10493096Y-14831048D01*
X10493096Y-14831048D02*
X10512143Y-14821524D01*
X10512143Y-14821524D02*
X10559762Y-14821524D01*
X10559762Y-14821524D02*
X10578810Y-14831048D01*
X10578810Y-14831048D02*
X10588334Y-14840571D01*
X10588334Y-14840571D02*
X10597857Y-14859619D01*
X10597857Y-14859619D02*
X10597857Y-14878667D01*
X10597857Y-14878667D02*
X10588334Y-14907238D01*
X10588334Y-14907238D02*
X10474048Y-15021524D01*
X10474048Y-15021524D02*
X10597857Y-15021524D01*
X10835953Y-15021524D02*
X10835953Y-14821524D01*
X10921667Y-15021524D02*
X10921667Y-14916762D01*
X10921667Y-14916762D02*
X10912143Y-14897714D01*
X10912143Y-14897714D02*
X10893096Y-14888190D01*
X10893096Y-14888190D02*
X10864524Y-14888190D01*
X10864524Y-14888190D02*
X10845477Y-14897714D01*
X10845477Y-14897714D02*
X10835953Y-14907238D01*
X11045477Y-15021524D02*
X11026429Y-15012000D01*
X11026429Y-15012000D02*
X11016905Y-15002476D01*
X11016905Y-15002476D02*
X11007381Y-14983428D01*
X11007381Y-14983428D02*
X11007381Y-14926286D01*
X11007381Y-14926286D02*
X11016905Y-14907238D01*
X11016905Y-14907238D02*
X11026429Y-14897714D01*
X11026429Y-14897714D02*
X11045477Y-14888190D01*
X11045477Y-14888190D02*
X11074048Y-14888190D01*
X11074048Y-14888190D02*
X11093096Y-14897714D01*
X11093096Y-14897714D02*
X11102619Y-14907238D01*
X11102619Y-14907238D02*
X11112143Y-14926286D01*
X11112143Y-14926286D02*
X11112143Y-14983428D01*
X11112143Y-14983428D02*
X11102619Y-15002476D01*
X11102619Y-15002476D02*
X11093096Y-15012000D01*
X11093096Y-15012000D02*
X11074048Y-15021524D01*
X11074048Y-15021524D02*
X11045477Y-15021524D01*
X11226429Y-15021524D02*
X11207381Y-15012000D01*
X11207381Y-15012000D02*
X11197857Y-14992952D01*
X11197857Y-14992952D02*
X11197857Y-14821524D01*
X11378810Y-15012000D02*
X11359762Y-15021524D01*
X11359762Y-15021524D02*
X11321667Y-15021524D01*
X11321667Y-15021524D02*
X11302619Y-15012000D01*
X11302619Y-15012000D02*
X11293096Y-14992952D01*
X11293096Y-14992952D02*
X11293096Y-14916762D01*
X11293096Y-14916762D02*
X11302619Y-14897714D01*
X11302619Y-14897714D02*
X11321667Y-14888190D01*
X11321667Y-14888190D02*
X11359762Y-14888190D01*
X11359762Y-14888190D02*
X11378810Y-14897714D01*
X11378810Y-14897714D02*
X11388334Y-14916762D01*
X11388334Y-14916762D02*
X11388334Y-14935809D01*
X11388334Y-14935809D02*
X11293096Y-14954857D01*
X11464524Y-15012000D02*
X11483572Y-15021524D01*
X11483572Y-15021524D02*
X11521667Y-15021524D01*
X11521667Y-15021524D02*
X11540715Y-15012000D01*
X11540715Y-15012000D02*
X11550238Y-14992952D01*
X11550238Y-14992952D02*
X11550238Y-14983428D01*
X11550238Y-14983428D02*
X11540715Y-14964381D01*
X11540715Y-14964381D02*
X11521667Y-14954857D01*
X11521667Y-14954857D02*
X11493096Y-14954857D01*
X11493096Y-14954857D02*
X11474048Y-14945333D01*
X11474048Y-14945333D02*
X11464524Y-14926286D01*
X11464524Y-14926286D02*
X11464524Y-14916762D01*
X11464524Y-14916762D02*
X11474048Y-14897714D01*
X11474048Y-14897714D02*
X11493096Y-14888190D01*
X11493096Y-14888190D02*
X11521667Y-14888190D01*
X11521667Y-14888190D02*
X11540715Y-14897714D01*
X11616905Y-15097714D02*
X11626429Y-15088190D01*
X11626429Y-15088190D02*
X11645477Y-15059619D01*
X11645477Y-15059619D02*
X11655000Y-15040571D01*
X11655000Y-15040571D02*
X11664524Y-15012000D01*
X11664524Y-15012000D02*
X11674048Y-14964381D01*
X11674048Y-14964381D02*
X11674048Y-14926286D01*
X11674048Y-14926286D02*
X11664524Y-14878667D01*
X11664524Y-14878667D02*
X11655000Y-14850095D01*
X11655000Y-14850095D02*
X11645477Y-14831048D01*
X11645477Y-14831048D02*
X11626429Y-14802476D01*
X11626429Y-14802476D02*
X11616905Y-14792952D01*
M02*
