%TF.GenerationSoftware,KiCad,Pcbnew,7.0.6-7.0.6~ubuntu22.04.1*%
%TF.CreationDate,2023-07-22T15:20:46-06:00*%
%TF.ProjectId,gps-tracker,6770732d-7472-4616-936b-65722e6b6963,rev?*%
%TF.SameCoordinates,Original*%
%TF.FileFunction,Legend,Bot*%
%TF.FilePolarity,Positive*%
%FSLAX46Y46*%
G04 Gerber Fmt 4.6, Leading zero omitted, Abs format (unit mm)*
G04 Created by KiCad (PCBNEW 7.0.6-7.0.6~ubuntu22.04.1) date 2023-07-22 15:20:46*
%MOMM*%
%LPD*%
G01*
G04 APERTURE LIST*
G04 Aperture macros list*
%AMRoundRect*
0 Rectangle with rounded corners*
0 $1 Rounding radius*
0 $2 $3 $4 $5 $6 $7 $8 $9 X,Y pos of 4 corners*
0 Add a 4 corners polygon primitive as box body*
4,1,4,$2,$3,$4,$5,$6,$7,$8,$9,$2,$3,0*
0 Add four circle primitives for the rounded corners*
1,1,$1+$1,$2,$3*
1,1,$1+$1,$4,$5*
1,1,$1+$1,$6,$7*
1,1,$1+$1,$8,$9*
0 Add four rect primitives between the rounded corners*
20,1,$1+$1,$2,$3,$4,$5,0*
20,1,$1+$1,$4,$5,$6,$7,0*
20,1,$1+$1,$6,$7,$8,$9,0*
20,1,$1+$1,$8,$9,$2,$3,0*%
G04 Aperture macros list end*
%ADD10C,0.150000*%
%ADD11C,0.250000*%
%ADD12C,0.200000*%
%ADD13C,0.127000*%
%ADD14C,0.010000*%
%ADD15C,0.120000*%
%ADD16C,0.100000*%
%ADD17C,1.408000*%
%ADD18C,1.800000*%
%ADD19RoundRect,0.050000X-0.838200X-0.406400X0.838200X-0.406400X0.838200X0.406400X-0.838200X0.406400X0*%
%ADD20RoundRect,0.185000X-0.185000X0.135000X-0.185000X-0.135000X0.185000X-0.135000X0.185000X0.135000X0*%
%ADD21RoundRect,0.050000X-0.850000X-0.850000X0.850000X-0.850000X0.850000X0.850000X-0.850000X0.850000X0*%
%ADD22O,1.800000X1.800000*%
%ADD23C,3.300000*%
%ADD24RoundRect,0.250000X-0.275000X0.200000X-0.275000X-0.200000X0.275000X-0.200000X0.275000X0.200000X0*%
%ADD25RoundRect,0.050000X-1.000000X-1.000000X1.000000X-1.000000X1.000000X1.000000X-1.000000X1.000000X0*%
%ADD26C,2.100000*%
%ADD27RoundRect,0.275000X0.225000X0.250000X-0.225000X0.250000X-0.225000X-0.250000X0.225000X-0.250000X0*%
%ADD28RoundRect,0.190000X-0.140000X-0.170000X0.140000X-0.170000X0.140000X0.170000X-0.140000X0.170000X0*%
%ADD29RoundRect,0.190000X0.170000X-0.140000X0.170000X0.140000X-0.170000X0.140000X-0.170000X-0.140000X0*%
%ADD30RoundRect,0.050000X0.500000X-0.500000X0.500000X0.500000X-0.500000X0.500000X-0.500000X-0.500000X0*%
%ADD31C,1.100000*%
%ADD32RoundRect,0.268750X0.256250X-0.218750X0.256250X0.218750X-0.256250X0.218750X-0.256250X-0.218750X0*%
%ADD33RoundRect,0.050000X-0.850000X0.850000X-0.850000X-0.850000X0.850000X-0.850000X0.850000X0.850000X0*%
%ADD34C,1.600000*%
%ADD35RoundRect,0.275000X-0.250000X0.225000X-0.250000X-0.225000X0.250000X-0.225000X0.250000X0.225000X0*%
%ADD36RoundRect,0.300000X-0.650000X0.325000X-0.650000X-0.325000X0.650000X-0.325000X0.650000X0.325000X0*%
%ADD37RoundRect,0.185000X0.185000X-0.135000X0.185000X0.135000X-0.185000X0.135000X-0.185000X-0.135000X0*%
%ADD38RoundRect,0.200000X-0.512500X-0.150000X0.512500X-0.150000X0.512500X0.150000X-0.512500X0.150000X0*%
%ADD39RoundRect,0.050000X-1.000000X-0.750000X1.000000X-0.750000X1.000000X0.750000X-1.000000X0.750000X0*%
%ADD40RoundRect,0.293750X0.243750X0.456250X-0.243750X0.456250X-0.243750X-0.456250X0.243750X-0.456250X0*%
%ADD41RoundRect,0.190000X0.140000X0.170000X-0.140000X0.170000X-0.140000X-0.170000X0.140000X-0.170000X0*%
%ADD42RoundRect,0.250000X0.275000X-0.200000X0.275000X0.200000X-0.275000X0.200000X-0.275000X-0.200000X0*%
%ADD43RoundRect,0.250000X0.200000X0.275000X-0.200000X0.275000X-0.200000X-0.275000X0.200000X-0.275000X0*%
%ADD44RoundRect,0.200000X0.675000X0.150000X-0.675000X0.150000X-0.675000X-0.150000X0.675000X-0.150000X0*%
%ADD45RoundRect,0.050000X1.350000X1.900000X-1.350000X1.900000X-1.350000X-1.900000X1.350000X-1.900000X0*%
%ADD46RoundRect,0.081500X0.173500X0.143500X-0.173500X0.143500X-0.173500X-0.143500X0.173500X-0.143500X0*%
%ADD47RoundRect,0.081500X0.143500X-0.173500X0.143500X0.173500X-0.143500X0.173500X-0.143500X-0.173500X0*%
%ADD48RoundRect,0.185000X-0.135000X-0.185000X0.135000X-0.185000X0.135000X0.185000X-0.135000X0.185000X0*%
%ADD49RoundRect,0.268750X0.218750X0.256250X-0.218750X0.256250X-0.218750X-0.256250X0.218750X-0.256250X0*%
%ADD50RoundRect,0.190000X-0.170000X0.140000X-0.170000X-0.140000X0.170000X-0.140000X0.170000X0.140000X0*%
%ADD51RoundRect,0.050000X1.000000X-1.000000X1.000000X1.000000X-1.000000X1.000000X-1.000000X-1.000000X0*%
%ADD52RoundRect,0.300000X-0.325000X-0.650000X0.325000X-0.650000X0.325000X0.650000X-0.325000X0.650000X0*%
%ADD53RoundRect,0.185000X0.135000X0.185000X-0.135000X0.185000X-0.135000X-0.185000X0.135000X-0.185000X0*%
%ADD54RoundRect,0.275000X-0.225000X-0.250000X0.225000X-0.250000X0.225000X0.250000X-0.225000X0.250000X0*%
%ADD55RoundRect,0.300000X-0.650000X1.000000X-0.650000X-1.000000X0.650000X-1.000000X0.650000X1.000000X0*%
%ADD56RoundRect,0.300000X0.300000X0.300000X-0.300000X0.300000X-0.300000X-0.300000X0.300000X-0.300000X0*%
%ADD57RoundRect,0.300000X-0.300000X0.300000X-0.300000X-0.300000X0.300000X-0.300000X0.300000X0.300000X0*%
%ADD58RoundRect,0.275000X0.250000X-0.225000X0.250000X0.225000X-0.250000X0.225000X-0.250000X-0.225000X0*%
%ADD59RoundRect,0.175000X0.125000X-0.625000X0.125000X0.625000X-0.125000X0.625000X-0.125000X-0.625000X0*%
%ADD60RoundRect,0.175000X0.625000X-0.125000X0.625000X0.125000X-0.625000X0.125000X-0.625000X-0.125000X0*%
%ADD61RoundRect,0.050000X0.850000X-0.850000X0.850000X0.850000X-0.850000X0.850000X-0.850000X-0.850000X0*%
%ADD62RoundRect,0.050000X1.000000X1.000000X-1.000000X1.000000X-1.000000X-1.000000X1.000000X-1.000000X0*%
%ADD63RoundRect,0.300000X0.300000X-0.300000X0.300000X0.300000X-0.300000X0.300000X-0.300000X-0.300000X0*%
%ADD64RoundRect,0.050000X0.150000X-0.700000X0.150000X0.700000X-0.150000X0.700000X-0.150000X-0.700000X0*%
%ADD65RoundRect,0.250000X-0.200000X-0.275000X0.200000X-0.275000X0.200000X0.275000X-0.200000X0.275000X0*%
%ADD66RoundRect,0.200000X0.150000X-0.512500X0.150000X0.512500X-0.150000X0.512500X-0.150000X-0.512500X0*%
%ADD67RoundRect,0.300000X0.325000X0.650000X-0.325000X0.650000X-0.325000X-0.650000X0.325000X-0.650000X0*%
%ADD68RoundRect,0.050000X-0.200000X-0.675000X0.200000X-0.675000X0.200000X0.675000X-0.200000X0.675000X0*%
%ADD69C,1.508000*%
%ADD70RoundRect,0.050000X0.750000X0.775000X-0.750000X0.775000X-0.750000X-0.775000X0.750000X-0.775000X0*%
%ADD71C,1.900000*%
G04 APERTURE END LIST*
D10*
X108700000Y-67000000D02*
X143700000Y-67000000D01*
X143700000Y-117000000D01*
X108700000Y-117000000D01*
X108700000Y-67000000D01*
X82063220Y-93569819D02*
X82063220Y-92569819D01*
X82063220Y-92569819D02*
X81825125Y-92569819D01*
X81825125Y-92569819D02*
X81682268Y-92617438D01*
X81682268Y-92617438D02*
X81587030Y-92712676D01*
X81587030Y-92712676D02*
X81539411Y-92807914D01*
X81539411Y-92807914D02*
X81491792Y-92998390D01*
X81491792Y-92998390D02*
X81491792Y-93141247D01*
X81491792Y-93141247D02*
X81539411Y-93331723D01*
X81539411Y-93331723D02*
X81587030Y-93426961D01*
X81587030Y-93426961D02*
X81682268Y-93522200D01*
X81682268Y-93522200D02*
X81825125Y-93569819D01*
X81825125Y-93569819D02*
X82063220Y-93569819D01*
X80491792Y-93474580D02*
X80539411Y-93522200D01*
X80539411Y-93522200D02*
X80682268Y-93569819D01*
X80682268Y-93569819D02*
X80777506Y-93569819D01*
X80777506Y-93569819D02*
X80920363Y-93522200D01*
X80920363Y-93522200D02*
X81015601Y-93426961D01*
X81015601Y-93426961D02*
X81063220Y-93331723D01*
X81063220Y-93331723D02*
X81110839Y-93141247D01*
X81110839Y-93141247D02*
X81110839Y-92998390D01*
X81110839Y-92998390D02*
X81063220Y-92807914D01*
X81063220Y-92807914D02*
X81015601Y-92712676D01*
X81015601Y-92712676D02*
X80920363Y-92617438D01*
X80920363Y-92617438D02*
X80777506Y-92569819D01*
X80777506Y-92569819D02*
X80682268Y-92569819D01*
X80682268Y-92569819D02*
X80539411Y-92617438D01*
X80539411Y-92617438D02*
X80491792Y-92665057D01*
X86341541Y-92130180D02*
X86960588Y-92130180D01*
X86960588Y-92130180D02*
X86627255Y-91749228D01*
X86627255Y-91749228D02*
X86770112Y-91749228D01*
X86770112Y-91749228D02*
X86865350Y-91701609D01*
X86865350Y-91701609D02*
X86912969Y-91653990D01*
X86912969Y-91653990D02*
X86960588Y-91558752D01*
X86960588Y-91558752D02*
X86960588Y-91320657D01*
X86960588Y-91320657D02*
X86912969Y-91225419D01*
X86912969Y-91225419D02*
X86865350Y-91177800D01*
X86865350Y-91177800D02*
X86770112Y-91130180D01*
X86770112Y-91130180D02*
X86484398Y-91130180D01*
X86484398Y-91130180D02*
X86389160Y-91177800D01*
X86389160Y-91177800D02*
X86341541Y-91225419D01*
X87246303Y-92130180D02*
X87579636Y-91130180D01*
X87579636Y-91130180D02*
X87912969Y-92130180D01*
X88151065Y-92130180D02*
X88770112Y-92130180D01*
X88770112Y-92130180D02*
X88436779Y-91749228D01*
X88436779Y-91749228D02*
X88579636Y-91749228D01*
X88579636Y-91749228D02*
X88674874Y-91701609D01*
X88674874Y-91701609D02*
X88722493Y-91653990D01*
X88722493Y-91653990D02*
X88770112Y-91558752D01*
X88770112Y-91558752D02*
X88770112Y-91320657D01*
X88770112Y-91320657D02*
X88722493Y-91225419D01*
X88722493Y-91225419D02*
X88674874Y-91177800D01*
X88674874Y-91177800D02*
X88579636Y-91130180D01*
X88579636Y-91130180D02*
X88293922Y-91130180D01*
X88293922Y-91130180D02*
X88198684Y-91177800D01*
X88198684Y-91177800D02*
X88151065Y-91225419D01*
X91830180Y-92958458D02*
X91830180Y-92339411D01*
X91830180Y-92339411D02*
X91449228Y-92672744D01*
X91449228Y-92672744D02*
X91449228Y-92529887D01*
X91449228Y-92529887D02*
X91401609Y-92434649D01*
X91401609Y-92434649D02*
X91353990Y-92387030D01*
X91353990Y-92387030D02*
X91258752Y-92339411D01*
X91258752Y-92339411D02*
X91020657Y-92339411D01*
X91020657Y-92339411D02*
X90925419Y-92387030D01*
X90925419Y-92387030D02*
X90877800Y-92434649D01*
X90877800Y-92434649D02*
X90830180Y-92529887D01*
X90830180Y-92529887D02*
X90830180Y-92815601D01*
X90830180Y-92815601D02*
X90877800Y-92910839D01*
X90877800Y-92910839D02*
X90925419Y-92958458D01*
X91830180Y-92053696D02*
X90830180Y-91720363D01*
X90830180Y-91720363D02*
X91830180Y-91387030D01*
X91830180Y-91148934D02*
X91830180Y-90529887D01*
X91830180Y-90529887D02*
X91449228Y-90863220D01*
X91449228Y-90863220D02*
X91449228Y-90720363D01*
X91449228Y-90720363D02*
X91401609Y-90625125D01*
X91401609Y-90625125D02*
X91353990Y-90577506D01*
X91353990Y-90577506D02*
X91258752Y-90529887D01*
X91258752Y-90529887D02*
X91020657Y-90529887D01*
X91020657Y-90529887D02*
X90925419Y-90577506D01*
X90925419Y-90577506D02*
X90877800Y-90625125D01*
X90877800Y-90625125D02*
X90830180Y-90720363D01*
X90830180Y-90720363D02*
X90830180Y-91006077D01*
X90830180Y-91006077D02*
X90877800Y-91101315D01*
X90877800Y-91101315D02*
X90925419Y-91148934D01*
X96315895Y-93310839D02*
X96315895Y-92834649D01*
X96030180Y-93406077D02*
X97030180Y-93072744D01*
X97030180Y-93072744D02*
X96030180Y-92739411D01*
X96030180Y-91882268D02*
X96030180Y-92453696D01*
X96030180Y-92167982D02*
X97030180Y-92167982D01*
X97030180Y-92167982D02*
X96887323Y-92263220D01*
X96887323Y-92263220D02*
X96792085Y-92358458D01*
X96792085Y-92358458D02*
X96744466Y-92453696D01*
X104091792Y-83269819D02*
X104425125Y-82793628D01*
X104663220Y-83269819D02*
X104663220Y-82269819D01*
X104663220Y-82269819D02*
X104282268Y-82269819D01*
X104282268Y-82269819D02*
X104187030Y-82317438D01*
X104187030Y-82317438D02*
X104139411Y-82365057D01*
X104139411Y-82365057D02*
X104091792Y-82460295D01*
X104091792Y-82460295D02*
X104091792Y-82603152D01*
X104091792Y-82603152D02*
X104139411Y-82698390D01*
X104139411Y-82698390D02*
X104187030Y-82746009D01*
X104187030Y-82746009D02*
X104282268Y-82793628D01*
X104282268Y-82793628D02*
X104663220Y-82793628D01*
X103663220Y-82746009D02*
X103329887Y-82746009D01*
X103187030Y-83269819D02*
X103663220Y-83269819D01*
X103663220Y-83269819D02*
X103663220Y-82269819D01*
X103663220Y-82269819D02*
X103187030Y-82269819D01*
X102234649Y-82317438D02*
X102329887Y-82269819D01*
X102329887Y-82269819D02*
X102472744Y-82269819D01*
X102472744Y-82269819D02*
X102615601Y-82317438D01*
X102615601Y-82317438D02*
X102710839Y-82412676D01*
X102710839Y-82412676D02*
X102758458Y-82507914D01*
X102758458Y-82507914D02*
X102806077Y-82698390D01*
X102806077Y-82698390D02*
X102806077Y-82841247D01*
X102806077Y-82841247D02*
X102758458Y-83031723D01*
X102758458Y-83031723D02*
X102710839Y-83126961D01*
X102710839Y-83126961D02*
X102615601Y-83222200D01*
X102615601Y-83222200D02*
X102472744Y-83269819D01*
X102472744Y-83269819D02*
X102377506Y-83269819D01*
X102377506Y-83269819D02*
X102234649Y-83222200D01*
X102234649Y-83222200D02*
X102187030Y-83174580D01*
X102187030Y-83174580D02*
X102187030Y-82841247D01*
X102187030Y-82841247D02*
X102377506Y-82841247D01*
X77944173Y-114437200D02*
X76801316Y-114437200D01*
X96863220Y-87988866D02*
X96101316Y-87988866D01*
X96482268Y-88369819D02*
X96482268Y-87607914D01*
X81829887Y-105746009D02*
X81687030Y-105793628D01*
X81687030Y-105793628D02*
X81639411Y-105841247D01*
X81639411Y-105841247D02*
X81591792Y-105936485D01*
X81591792Y-105936485D02*
X81591792Y-106079342D01*
X81591792Y-106079342D02*
X81639411Y-106174580D01*
X81639411Y-106174580D02*
X81687030Y-106222200D01*
X81687030Y-106222200D02*
X81782268Y-106269819D01*
X81782268Y-106269819D02*
X82163220Y-106269819D01*
X82163220Y-106269819D02*
X82163220Y-105269819D01*
X82163220Y-105269819D02*
X81829887Y-105269819D01*
X81829887Y-105269819D02*
X81734649Y-105317438D01*
X81734649Y-105317438D02*
X81687030Y-105365057D01*
X81687030Y-105365057D02*
X81639411Y-105460295D01*
X81639411Y-105460295D02*
X81639411Y-105555533D01*
X81639411Y-105555533D02*
X81687030Y-105650771D01*
X81687030Y-105650771D02*
X81734649Y-105698390D01*
X81734649Y-105698390D02*
X81829887Y-105746009D01*
X81829887Y-105746009D02*
X82163220Y-105746009D01*
X80687030Y-106269819D02*
X81163220Y-106269819D01*
X81163220Y-106269819D02*
X81163220Y-105269819D01*
X80353696Y-106269819D02*
X80353696Y-105269819D01*
X79782268Y-106269819D02*
X80210839Y-105698390D01*
X79782268Y-105269819D02*
X80353696Y-105841247D01*
X103877800Y-99610839D02*
X103830180Y-99467982D01*
X103830180Y-99467982D02*
X103830180Y-99229887D01*
X103830180Y-99229887D02*
X103877800Y-99134649D01*
X103877800Y-99134649D02*
X103925419Y-99087030D01*
X103925419Y-99087030D02*
X104020657Y-99039411D01*
X104020657Y-99039411D02*
X104115895Y-99039411D01*
X104115895Y-99039411D02*
X104211133Y-99087030D01*
X104211133Y-99087030D02*
X104258752Y-99134649D01*
X104258752Y-99134649D02*
X104306371Y-99229887D01*
X104306371Y-99229887D02*
X104353990Y-99420363D01*
X104353990Y-99420363D02*
X104401609Y-99515601D01*
X104401609Y-99515601D02*
X104449228Y-99563220D01*
X104449228Y-99563220D02*
X104544466Y-99610839D01*
X104544466Y-99610839D02*
X104639704Y-99610839D01*
X104639704Y-99610839D02*
X104734942Y-99563220D01*
X104734942Y-99563220D02*
X104782561Y-99515601D01*
X104782561Y-99515601D02*
X104830180Y-99420363D01*
X104830180Y-99420363D02*
X104830180Y-99182268D01*
X104830180Y-99182268D02*
X104782561Y-99039411D01*
X103830180Y-98610839D02*
X104830180Y-98610839D01*
X104830180Y-98610839D02*
X104830180Y-98372744D01*
X104830180Y-98372744D02*
X104782561Y-98229887D01*
X104782561Y-98229887D02*
X104687323Y-98134649D01*
X104687323Y-98134649D02*
X104592085Y-98087030D01*
X104592085Y-98087030D02*
X104401609Y-98039411D01*
X104401609Y-98039411D02*
X104258752Y-98039411D01*
X104258752Y-98039411D02*
X104068276Y-98087030D01*
X104068276Y-98087030D02*
X103973038Y-98134649D01*
X103973038Y-98134649D02*
X103877800Y-98229887D01*
X103877800Y-98229887D02*
X103830180Y-98372744D01*
X103830180Y-98372744D02*
X103830180Y-98610839D01*
X104115895Y-97658458D02*
X104115895Y-97182268D01*
X103830180Y-97753696D02*
X104830180Y-97420363D01*
X104830180Y-97420363D02*
X103830180Y-97087030D01*
X81491792Y-103869819D02*
X81825125Y-103393628D01*
X82063220Y-103869819D02*
X82063220Y-102869819D01*
X82063220Y-102869819D02*
X81682268Y-102869819D01*
X81682268Y-102869819D02*
X81587030Y-102917438D01*
X81587030Y-102917438D02*
X81539411Y-102965057D01*
X81539411Y-102965057D02*
X81491792Y-103060295D01*
X81491792Y-103060295D02*
X81491792Y-103203152D01*
X81491792Y-103203152D02*
X81539411Y-103298390D01*
X81539411Y-103298390D02*
X81587030Y-103346009D01*
X81587030Y-103346009D02*
X81682268Y-103393628D01*
X81682268Y-103393628D02*
X82063220Y-103393628D01*
X81110839Y-103822200D02*
X80967982Y-103869819D01*
X80967982Y-103869819D02*
X80729887Y-103869819D01*
X80729887Y-103869819D02*
X80634649Y-103822200D01*
X80634649Y-103822200D02*
X80587030Y-103774580D01*
X80587030Y-103774580D02*
X80539411Y-103679342D01*
X80539411Y-103679342D02*
X80539411Y-103584104D01*
X80539411Y-103584104D02*
X80587030Y-103488866D01*
X80587030Y-103488866D02*
X80634649Y-103441247D01*
X80634649Y-103441247D02*
X80729887Y-103393628D01*
X80729887Y-103393628D02*
X80920363Y-103346009D01*
X80920363Y-103346009D02*
X81015601Y-103298390D01*
X81015601Y-103298390D02*
X81063220Y-103250771D01*
X81063220Y-103250771D02*
X81110839Y-103155533D01*
X81110839Y-103155533D02*
X81110839Y-103060295D01*
X81110839Y-103060295D02*
X81063220Y-102965057D01*
X81063220Y-102965057D02*
X81015601Y-102917438D01*
X81015601Y-102917438D02*
X80920363Y-102869819D01*
X80920363Y-102869819D02*
X80682268Y-102869819D01*
X80682268Y-102869819D02*
X80539411Y-102917438D01*
X80253696Y-102869819D02*
X79682268Y-102869819D01*
X79967982Y-103869819D02*
X79967982Y-102869819D01*
X82201316Y-102592200D02*
X79687030Y-102592200D01*
X81591792Y-95874580D02*
X81639411Y-95922200D01*
X81639411Y-95922200D02*
X81782268Y-95969819D01*
X81782268Y-95969819D02*
X81877506Y-95969819D01*
X81877506Y-95969819D02*
X82020363Y-95922200D01*
X82020363Y-95922200D02*
X82115601Y-95826961D01*
X82115601Y-95826961D02*
X82163220Y-95731723D01*
X82163220Y-95731723D02*
X82210839Y-95541247D01*
X82210839Y-95541247D02*
X82210839Y-95398390D01*
X82210839Y-95398390D02*
X82163220Y-95207914D01*
X82163220Y-95207914D02*
X82115601Y-95112676D01*
X82115601Y-95112676D02*
X82020363Y-95017438D01*
X82020363Y-95017438D02*
X81877506Y-94969819D01*
X81877506Y-94969819D02*
X81782268Y-94969819D01*
X81782268Y-94969819D02*
X81639411Y-95017438D01*
X81639411Y-95017438D02*
X81591792Y-95065057D01*
X81210839Y-95922200D02*
X81067982Y-95969819D01*
X81067982Y-95969819D02*
X80829887Y-95969819D01*
X80829887Y-95969819D02*
X80734649Y-95922200D01*
X80734649Y-95922200D02*
X80687030Y-95874580D01*
X80687030Y-95874580D02*
X80639411Y-95779342D01*
X80639411Y-95779342D02*
X80639411Y-95684104D01*
X80639411Y-95684104D02*
X80687030Y-95588866D01*
X80687030Y-95588866D02*
X80734649Y-95541247D01*
X80734649Y-95541247D02*
X80829887Y-95493628D01*
X80829887Y-95493628D02*
X81020363Y-95446009D01*
X81020363Y-95446009D02*
X81115601Y-95398390D01*
X81115601Y-95398390D02*
X81163220Y-95350771D01*
X81163220Y-95350771D02*
X81210839Y-95255533D01*
X81210839Y-95255533D02*
X81210839Y-95160295D01*
X81210839Y-95160295D02*
X81163220Y-95065057D01*
X81163220Y-95065057D02*
X81115601Y-95017438D01*
X81115601Y-95017438D02*
X81020363Y-94969819D01*
X81020363Y-94969819D02*
X80782268Y-94969819D01*
X80782268Y-94969819D02*
X80639411Y-95017438D01*
X93853990Y-92629887D02*
X93806371Y-92487030D01*
X93806371Y-92487030D02*
X93758752Y-92439411D01*
X93758752Y-92439411D02*
X93663514Y-92391792D01*
X93663514Y-92391792D02*
X93520657Y-92391792D01*
X93520657Y-92391792D02*
X93425419Y-92439411D01*
X93425419Y-92439411D02*
X93377800Y-92487030D01*
X93377800Y-92487030D02*
X93330180Y-92582268D01*
X93330180Y-92582268D02*
X93330180Y-92963220D01*
X93330180Y-92963220D02*
X94330180Y-92963220D01*
X94330180Y-92963220D02*
X94330180Y-92629887D01*
X94330180Y-92629887D02*
X94282561Y-92534649D01*
X94282561Y-92534649D02*
X94234942Y-92487030D01*
X94234942Y-92487030D02*
X94139704Y-92439411D01*
X94139704Y-92439411D02*
X94044466Y-92439411D01*
X94044466Y-92439411D02*
X93949228Y-92487030D01*
X93949228Y-92487030D02*
X93901609Y-92534649D01*
X93901609Y-92534649D02*
X93853990Y-92629887D01*
X93853990Y-92629887D02*
X93853990Y-92963220D01*
X93615895Y-92010839D02*
X93615895Y-91534649D01*
X93330180Y-92106077D02*
X94330180Y-91772744D01*
X94330180Y-91772744D02*
X93330180Y-91439411D01*
X94330180Y-91248934D02*
X94330180Y-90677506D01*
X93330180Y-90963220D02*
X94330180Y-90963220D01*
D11*
X142494428Y-116064098D02*
X142637285Y-115921241D01*
X142637285Y-115921241D02*
X142780142Y-115635527D01*
X142780142Y-115635527D02*
X142780142Y-114921241D01*
X142780142Y-114921241D02*
X142637285Y-114635527D01*
X142637285Y-114635527D02*
X142494428Y-114492669D01*
X142494428Y-114492669D02*
X142208714Y-114349812D01*
X142208714Y-114349812D02*
X141923000Y-114349812D01*
X141923000Y-114349812D02*
X141494428Y-114492669D01*
X141494428Y-114492669D02*
X139780142Y-116206955D01*
X139780142Y-116206955D02*
X139780142Y-114349812D01*
X140637285Y-113206955D02*
X140637285Y-111778384D01*
X139780142Y-113492669D02*
X142780142Y-112492669D01*
X142780142Y-112492669D02*
X139780142Y-111492669D01*
X139780142Y-110492669D02*
X142780142Y-110492669D01*
X139780142Y-109206955D02*
X141351571Y-109206955D01*
X141351571Y-109206955D02*
X141637285Y-109349812D01*
X141637285Y-109349812D02*
X141780142Y-109635526D01*
X141780142Y-109635526D02*
X141780142Y-110064097D01*
X141780142Y-110064097D02*
X141637285Y-110349812D01*
X141637285Y-110349812D02*
X141494428Y-110492669D01*
X141351571Y-104492669D02*
X141208714Y-104064097D01*
X141208714Y-104064097D02*
X141065857Y-103921240D01*
X141065857Y-103921240D02*
X140780142Y-103778383D01*
X140780142Y-103778383D02*
X140351571Y-103778383D01*
X140351571Y-103778383D02*
X140065857Y-103921240D01*
X140065857Y-103921240D02*
X139923000Y-104064097D01*
X139923000Y-104064097D02*
X139780142Y-104349812D01*
X139780142Y-104349812D02*
X139780142Y-105492669D01*
X139780142Y-105492669D02*
X142780142Y-105492669D01*
X142780142Y-105492669D02*
X142780142Y-104492669D01*
X142780142Y-104492669D02*
X142637285Y-104206955D01*
X142637285Y-104206955D02*
X142494428Y-104064097D01*
X142494428Y-104064097D02*
X142208714Y-103921240D01*
X142208714Y-103921240D02*
X141923000Y-103921240D01*
X141923000Y-103921240D02*
X141637285Y-104064097D01*
X141637285Y-104064097D02*
X141494428Y-104206955D01*
X141494428Y-104206955D02*
X141351571Y-104492669D01*
X141351571Y-104492669D02*
X141351571Y-105492669D01*
X140637285Y-102635526D02*
X140637285Y-101206955D01*
X139780142Y-102921240D02*
X142780142Y-101921240D01*
X142780142Y-101921240D02*
X139780142Y-100921240D01*
X142780142Y-100349811D02*
X142780142Y-98635526D01*
X139780142Y-99492668D02*
X142780142Y-99492668D01*
X142780142Y-98064097D02*
X142780142Y-96349812D01*
X139780142Y-97206954D02*
X142780142Y-97206954D01*
X141351571Y-95349812D02*
X141351571Y-94349812D01*
X139780142Y-93921240D02*
X139780142Y-95349812D01*
X139780142Y-95349812D02*
X142780142Y-95349812D01*
X142780142Y-95349812D02*
X142780142Y-93921240D01*
X139780142Y-90921240D02*
X141208714Y-91921240D01*
X139780142Y-92635526D02*
X142780142Y-92635526D01*
X142780142Y-92635526D02*
X142780142Y-91492669D01*
X142780142Y-91492669D02*
X142637285Y-91206954D01*
X142637285Y-91206954D02*
X142494428Y-91064097D01*
X142494428Y-91064097D02*
X142208714Y-90921240D01*
X142208714Y-90921240D02*
X141780142Y-90921240D01*
X141780142Y-90921240D02*
X141494428Y-91064097D01*
X141494428Y-91064097D02*
X141351571Y-91206954D01*
X141351571Y-91206954D02*
X141208714Y-91492669D01*
X141208714Y-91492669D02*
X141208714Y-92635526D01*
X141208714Y-89064097D02*
X139780142Y-89064097D01*
X142780142Y-90064097D02*
X141208714Y-89064097D01*
X141208714Y-89064097D02*
X142780142Y-88064097D01*
D10*
X101877800Y-99510839D02*
X101830180Y-99367982D01*
X101830180Y-99367982D02*
X101830180Y-99129887D01*
X101830180Y-99129887D02*
X101877800Y-99034649D01*
X101877800Y-99034649D02*
X101925419Y-98987030D01*
X101925419Y-98987030D02*
X102020657Y-98939411D01*
X102020657Y-98939411D02*
X102115895Y-98939411D01*
X102115895Y-98939411D02*
X102211133Y-98987030D01*
X102211133Y-98987030D02*
X102258752Y-99034649D01*
X102258752Y-99034649D02*
X102306371Y-99129887D01*
X102306371Y-99129887D02*
X102353990Y-99320363D01*
X102353990Y-99320363D02*
X102401609Y-99415601D01*
X102401609Y-99415601D02*
X102449228Y-99463220D01*
X102449228Y-99463220D02*
X102544466Y-99510839D01*
X102544466Y-99510839D02*
X102639704Y-99510839D01*
X102639704Y-99510839D02*
X102734942Y-99463220D01*
X102734942Y-99463220D02*
X102782561Y-99415601D01*
X102782561Y-99415601D02*
X102830180Y-99320363D01*
X102830180Y-99320363D02*
X102830180Y-99082268D01*
X102830180Y-99082268D02*
X102782561Y-98939411D01*
X101925419Y-97939411D02*
X101877800Y-97987030D01*
X101877800Y-97987030D02*
X101830180Y-98129887D01*
X101830180Y-98129887D02*
X101830180Y-98225125D01*
X101830180Y-98225125D02*
X101877800Y-98367982D01*
X101877800Y-98367982D02*
X101973038Y-98463220D01*
X101973038Y-98463220D02*
X102068276Y-98510839D01*
X102068276Y-98510839D02*
X102258752Y-98558458D01*
X102258752Y-98558458D02*
X102401609Y-98558458D01*
X102401609Y-98558458D02*
X102592085Y-98510839D01*
X102592085Y-98510839D02*
X102687323Y-98463220D01*
X102687323Y-98463220D02*
X102782561Y-98367982D01*
X102782561Y-98367982D02*
X102830180Y-98225125D01*
X102830180Y-98225125D02*
X102830180Y-98129887D01*
X102830180Y-98129887D02*
X102782561Y-97987030D01*
X102782561Y-97987030D02*
X102734942Y-97939411D01*
X101830180Y-97034649D02*
X101830180Y-97510839D01*
X101830180Y-97510839D02*
X102830180Y-97510839D01*
X104691792Y-88274580D02*
X104739411Y-88322200D01*
X104739411Y-88322200D02*
X104882268Y-88369819D01*
X104882268Y-88369819D02*
X104977506Y-88369819D01*
X104977506Y-88369819D02*
X105120363Y-88322200D01*
X105120363Y-88322200D02*
X105215601Y-88226961D01*
X105215601Y-88226961D02*
X105263220Y-88131723D01*
X105263220Y-88131723D02*
X105310839Y-87941247D01*
X105310839Y-87941247D02*
X105310839Y-87798390D01*
X105310839Y-87798390D02*
X105263220Y-87607914D01*
X105263220Y-87607914D02*
X105215601Y-87512676D01*
X105215601Y-87512676D02*
X105120363Y-87417438D01*
X105120363Y-87417438D02*
X104977506Y-87369819D01*
X104977506Y-87369819D02*
X104882268Y-87369819D01*
X104882268Y-87369819D02*
X104739411Y-87417438D01*
X104739411Y-87417438D02*
X104691792Y-87465057D01*
X103787030Y-88369819D02*
X104263220Y-88369819D01*
X104263220Y-88369819D02*
X104263220Y-87369819D01*
X103453696Y-88369819D02*
X103453696Y-87369819D01*
X102882268Y-88369819D02*
X103310839Y-87798390D01*
X102882268Y-87369819D02*
X103453696Y-87941247D01*
X97929887Y-82746009D02*
X97787030Y-82793628D01*
X97787030Y-82793628D02*
X97739411Y-82841247D01*
X97739411Y-82841247D02*
X97691792Y-82936485D01*
X97691792Y-82936485D02*
X97691792Y-83079342D01*
X97691792Y-83079342D02*
X97739411Y-83174580D01*
X97739411Y-83174580D02*
X97787030Y-83222200D01*
X97787030Y-83222200D02*
X97882268Y-83269819D01*
X97882268Y-83269819D02*
X98263220Y-83269819D01*
X98263220Y-83269819D02*
X98263220Y-82269819D01*
X98263220Y-82269819D02*
X97929887Y-82269819D01*
X97929887Y-82269819D02*
X97834649Y-82317438D01*
X97834649Y-82317438D02*
X97787030Y-82365057D01*
X97787030Y-82365057D02*
X97739411Y-82460295D01*
X97739411Y-82460295D02*
X97739411Y-82555533D01*
X97739411Y-82555533D02*
X97787030Y-82650771D01*
X97787030Y-82650771D02*
X97834649Y-82698390D01*
X97834649Y-82698390D02*
X97929887Y-82746009D01*
X97929887Y-82746009D02*
X98263220Y-82746009D01*
X97310839Y-82984104D02*
X96834649Y-82984104D01*
X97406077Y-83269819D02*
X97072744Y-82269819D01*
X97072744Y-82269819D02*
X96739411Y-83269819D01*
X96548934Y-82269819D02*
X95977506Y-82269819D01*
X96263220Y-83269819D02*
X96263220Y-82269819D01*
X101863220Y-88369819D02*
X101863220Y-87369819D01*
X101196554Y-87369819D02*
X101006078Y-87369819D01*
X101006078Y-87369819D02*
X100910840Y-87417438D01*
X100910840Y-87417438D02*
X100815602Y-87512676D01*
X100815602Y-87512676D02*
X100767983Y-87703152D01*
X100767983Y-87703152D02*
X100767983Y-88036485D01*
X100767983Y-88036485D02*
X100815602Y-88226961D01*
X100815602Y-88226961D02*
X100910840Y-88322200D01*
X100910840Y-88322200D02*
X101006078Y-88369819D01*
X101006078Y-88369819D02*
X101196554Y-88369819D01*
X101196554Y-88369819D02*
X101291792Y-88322200D01*
X101291792Y-88322200D02*
X101387030Y-88226961D01*
X101387030Y-88226961D02*
X101434649Y-88036485D01*
X101434649Y-88036485D02*
X101434649Y-87703152D01*
X101434649Y-87703152D02*
X101387030Y-87512676D01*
X101387030Y-87512676D02*
X101291792Y-87417438D01*
X101291792Y-87417438D02*
X101196554Y-87369819D01*
X101291792Y-110374580D02*
X101339411Y-110422200D01*
X101339411Y-110422200D02*
X101482268Y-110469819D01*
X101482268Y-110469819D02*
X101577506Y-110469819D01*
X101577506Y-110469819D02*
X101720363Y-110422200D01*
X101720363Y-110422200D02*
X101815601Y-110326961D01*
X101815601Y-110326961D02*
X101863220Y-110231723D01*
X101863220Y-110231723D02*
X101910839Y-110041247D01*
X101910839Y-110041247D02*
X101910839Y-109898390D01*
X101910839Y-109898390D02*
X101863220Y-109707914D01*
X101863220Y-109707914D02*
X101815601Y-109612676D01*
X101815601Y-109612676D02*
X101720363Y-109517438D01*
X101720363Y-109517438D02*
X101577506Y-109469819D01*
X101577506Y-109469819D02*
X101482268Y-109469819D01*
X101482268Y-109469819D02*
X101339411Y-109517438D01*
X101339411Y-109517438D02*
X101291792Y-109565057D01*
X100863220Y-110469819D02*
X100863220Y-109469819D01*
X100863220Y-109946009D02*
X100291792Y-109946009D01*
X100291792Y-110469819D02*
X100291792Y-109469819D01*
X99863220Y-110184104D02*
X99387030Y-110184104D01*
X99958458Y-110469819D02*
X99625125Y-109469819D01*
X99625125Y-109469819D02*
X99291792Y-110469819D01*
X98387030Y-110469819D02*
X98720363Y-109993628D01*
X98958458Y-110469819D02*
X98958458Y-109469819D01*
X98958458Y-109469819D02*
X98577506Y-109469819D01*
X98577506Y-109469819D02*
X98482268Y-109517438D01*
X98482268Y-109517438D02*
X98434649Y-109565057D01*
X98434649Y-109565057D02*
X98387030Y-109660295D01*
X98387030Y-109660295D02*
X98387030Y-109803152D01*
X98387030Y-109803152D02*
X98434649Y-109898390D01*
X98434649Y-109898390D02*
X98482268Y-109946009D01*
X98482268Y-109946009D02*
X98577506Y-109993628D01*
X98577506Y-109993628D02*
X98958458Y-109993628D01*
X97434649Y-109517438D02*
X97529887Y-109469819D01*
X97529887Y-109469819D02*
X97672744Y-109469819D01*
X97672744Y-109469819D02*
X97815601Y-109517438D01*
X97815601Y-109517438D02*
X97910839Y-109612676D01*
X97910839Y-109612676D02*
X97958458Y-109707914D01*
X97958458Y-109707914D02*
X98006077Y-109898390D01*
X98006077Y-109898390D02*
X98006077Y-110041247D01*
X98006077Y-110041247D02*
X97958458Y-110231723D01*
X97958458Y-110231723D02*
X97910839Y-110326961D01*
X97910839Y-110326961D02*
X97815601Y-110422200D01*
X97815601Y-110422200D02*
X97672744Y-110469819D01*
X97672744Y-110469819D02*
X97577506Y-110469819D01*
X97577506Y-110469819D02*
X97434649Y-110422200D01*
X97434649Y-110422200D02*
X97387030Y-110374580D01*
X97387030Y-110374580D02*
X97387030Y-110041247D01*
X97387030Y-110041247D02*
X97577506Y-110041247D01*
X96958458Y-109946009D02*
X96625125Y-109946009D01*
X96482268Y-110469819D02*
X96958458Y-110469819D01*
X96958458Y-110469819D02*
X96958458Y-109469819D01*
X96958458Y-109469819D02*
X96482268Y-109469819D01*
X100882561Y-82539411D02*
X100930180Y-82634649D01*
X100930180Y-82634649D02*
X100930180Y-82777506D01*
X100930180Y-82777506D02*
X100882561Y-82920363D01*
X100882561Y-82920363D02*
X100787323Y-83015601D01*
X100787323Y-83015601D02*
X100692085Y-83063220D01*
X100692085Y-83063220D02*
X100501609Y-83110839D01*
X100501609Y-83110839D02*
X100358752Y-83110839D01*
X100358752Y-83110839D02*
X100168276Y-83063220D01*
X100168276Y-83063220D02*
X100073038Y-83015601D01*
X100073038Y-83015601D02*
X99977800Y-82920363D01*
X99977800Y-82920363D02*
X99930180Y-82777506D01*
X99930180Y-82777506D02*
X99930180Y-82682268D01*
X99930180Y-82682268D02*
X99977800Y-82539411D01*
X99977800Y-82539411D02*
X100025419Y-82491792D01*
X100025419Y-82491792D02*
X100358752Y-82491792D01*
X100358752Y-82491792D02*
X100358752Y-82682268D01*
X99930180Y-82063220D02*
X100930180Y-82063220D01*
X100930180Y-82063220D02*
X100930180Y-81682268D01*
X100930180Y-81682268D02*
X100882561Y-81587030D01*
X100882561Y-81587030D02*
X100834942Y-81539411D01*
X100834942Y-81539411D02*
X100739704Y-81491792D01*
X100739704Y-81491792D02*
X100596847Y-81491792D01*
X100596847Y-81491792D02*
X100501609Y-81539411D01*
X100501609Y-81539411D02*
X100453990Y-81587030D01*
X100453990Y-81587030D02*
X100406371Y-81682268D01*
X100406371Y-81682268D02*
X100406371Y-82063220D01*
X99977800Y-81110839D02*
X99930180Y-80967982D01*
X99930180Y-80967982D02*
X99930180Y-80729887D01*
X99930180Y-80729887D02*
X99977800Y-80634649D01*
X99977800Y-80634649D02*
X100025419Y-80587030D01*
X100025419Y-80587030D02*
X100120657Y-80539411D01*
X100120657Y-80539411D02*
X100215895Y-80539411D01*
X100215895Y-80539411D02*
X100311133Y-80587030D01*
X100311133Y-80587030D02*
X100358752Y-80634649D01*
X100358752Y-80634649D02*
X100406371Y-80729887D01*
X100406371Y-80729887D02*
X100453990Y-80920363D01*
X100453990Y-80920363D02*
X100501609Y-81015601D01*
X100501609Y-81015601D02*
X100549228Y-81063220D01*
X100549228Y-81063220D02*
X100644466Y-81110839D01*
X100644466Y-81110839D02*
X100739704Y-81110839D01*
X100739704Y-81110839D02*
X100834942Y-81063220D01*
X100834942Y-81063220D02*
X100882561Y-81015601D01*
X100882561Y-81015601D02*
X100930180Y-80920363D01*
X100930180Y-80920363D02*
X100930180Y-80682268D01*
X100930180Y-80682268D02*
X100882561Y-80539411D01*
X99834942Y-80348935D02*
X99834942Y-79587030D01*
X100025419Y-78777506D02*
X99977800Y-78825125D01*
X99977800Y-78825125D02*
X99930180Y-78967982D01*
X99930180Y-78967982D02*
X99930180Y-79063220D01*
X99930180Y-79063220D02*
X99977800Y-79206077D01*
X99977800Y-79206077D02*
X100073038Y-79301315D01*
X100073038Y-79301315D02*
X100168276Y-79348934D01*
X100168276Y-79348934D02*
X100358752Y-79396553D01*
X100358752Y-79396553D02*
X100501609Y-79396553D01*
X100501609Y-79396553D02*
X100692085Y-79348934D01*
X100692085Y-79348934D02*
X100787323Y-79301315D01*
X100787323Y-79301315D02*
X100882561Y-79206077D01*
X100882561Y-79206077D02*
X100930180Y-79063220D01*
X100930180Y-79063220D02*
X100930180Y-78967982D01*
X100930180Y-78967982D02*
X100882561Y-78825125D01*
X100882561Y-78825125D02*
X100834942Y-78777506D01*
X99930180Y-77872744D02*
X99930180Y-78348934D01*
X99930180Y-78348934D02*
X100930180Y-78348934D01*
X99930180Y-77539410D02*
X100930180Y-77539410D01*
X99930180Y-76967982D02*
X100501609Y-77396553D01*
X100930180Y-76967982D02*
X100358752Y-77539410D01*
X82163220Y-101169819D02*
X82163220Y-100169819D01*
X82163220Y-100169819D02*
X81829887Y-100884104D01*
X81829887Y-100884104D02*
X81496554Y-100169819D01*
X81496554Y-100169819D02*
X81496554Y-101169819D01*
X80829887Y-100169819D02*
X80639411Y-100169819D01*
X80639411Y-100169819D02*
X80544173Y-100217438D01*
X80544173Y-100217438D02*
X80448935Y-100312676D01*
X80448935Y-100312676D02*
X80401316Y-100503152D01*
X80401316Y-100503152D02*
X80401316Y-100836485D01*
X80401316Y-100836485D02*
X80448935Y-101026961D01*
X80448935Y-101026961D02*
X80544173Y-101122200D01*
X80544173Y-101122200D02*
X80639411Y-101169819D01*
X80639411Y-101169819D02*
X80829887Y-101169819D01*
X80829887Y-101169819D02*
X80925125Y-101122200D01*
X80925125Y-101122200D02*
X81020363Y-101026961D01*
X81020363Y-101026961D02*
X81067982Y-100836485D01*
X81067982Y-100836485D02*
X81067982Y-100503152D01*
X81067982Y-100503152D02*
X81020363Y-100312676D01*
X81020363Y-100312676D02*
X80925125Y-100217438D01*
X80925125Y-100217438D02*
X80829887Y-100169819D01*
X80020363Y-101122200D02*
X79877506Y-101169819D01*
X79877506Y-101169819D02*
X79639411Y-101169819D01*
X79639411Y-101169819D02*
X79544173Y-101122200D01*
X79544173Y-101122200D02*
X79496554Y-101074580D01*
X79496554Y-101074580D02*
X79448935Y-100979342D01*
X79448935Y-100979342D02*
X79448935Y-100884104D01*
X79448935Y-100884104D02*
X79496554Y-100788866D01*
X79496554Y-100788866D02*
X79544173Y-100741247D01*
X79544173Y-100741247D02*
X79639411Y-100693628D01*
X79639411Y-100693628D02*
X79829887Y-100646009D01*
X79829887Y-100646009D02*
X79925125Y-100598390D01*
X79925125Y-100598390D02*
X79972744Y-100550771D01*
X79972744Y-100550771D02*
X80020363Y-100455533D01*
X80020363Y-100455533D02*
X80020363Y-100360295D01*
X80020363Y-100360295D02*
X79972744Y-100265057D01*
X79972744Y-100265057D02*
X79925125Y-100217438D01*
X79925125Y-100217438D02*
X79829887Y-100169819D01*
X79829887Y-100169819D02*
X79591792Y-100169819D01*
X79591792Y-100169819D02*
X79448935Y-100217438D01*
X79020363Y-101169819D02*
X79020363Y-100169819D01*
X77944173Y-116812200D02*
X76801316Y-116812200D01*
X77372744Y-117383628D02*
X77372744Y-116240771D01*
D12*
X126493971Y-125454136D02*
X127208257Y-125954136D01*
X126493971Y-126311279D02*
X127993971Y-126311279D01*
X127993971Y-126311279D02*
X127993971Y-125739850D01*
X127993971Y-125739850D02*
X127922542Y-125596993D01*
X127922542Y-125596993D02*
X127851114Y-125525564D01*
X127851114Y-125525564D02*
X127708257Y-125454136D01*
X127708257Y-125454136D02*
X127493971Y-125454136D01*
X127493971Y-125454136D02*
X127351114Y-125525564D01*
X127351114Y-125525564D02*
X127279685Y-125596993D01*
X127279685Y-125596993D02*
X127208257Y-125739850D01*
X127208257Y-125739850D02*
X127208257Y-126311279D01*
X127279685Y-124811279D02*
X127279685Y-124311279D01*
X126493971Y-124096993D02*
X126493971Y-124811279D01*
X126493971Y-124811279D02*
X127993971Y-124811279D01*
X127993971Y-124811279D02*
X127993971Y-124096993D01*
X126565400Y-123525564D02*
X126493971Y-123311279D01*
X126493971Y-123311279D02*
X126493971Y-122954136D01*
X126493971Y-122954136D02*
X126565400Y-122811279D01*
X126565400Y-122811279D02*
X126636828Y-122739850D01*
X126636828Y-122739850D02*
X126779685Y-122668421D01*
X126779685Y-122668421D02*
X126922542Y-122668421D01*
X126922542Y-122668421D02*
X127065400Y-122739850D01*
X127065400Y-122739850D02*
X127136828Y-122811279D01*
X127136828Y-122811279D02*
X127208257Y-122954136D01*
X127208257Y-122954136D02*
X127279685Y-123239850D01*
X127279685Y-123239850D02*
X127351114Y-123382707D01*
X127351114Y-123382707D02*
X127422542Y-123454136D01*
X127422542Y-123454136D02*
X127565400Y-123525564D01*
X127565400Y-123525564D02*
X127708257Y-123525564D01*
X127708257Y-123525564D02*
X127851114Y-123454136D01*
X127851114Y-123454136D02*
X127922542Y-123382707D01*
X127922542Y-123382707D02*
X127993971Y-123239850D01*
X127993971Y-123239850D02*
X127993971Y-122882707D01*
X127993971Y-122882707D02*
X127922542Y-122668421D01*
X127279685Y-122025565D02*
X127279685Y-121525565D01*
X126493971Y-121311279D02*
X126493971Y-122025565D01*
X126493971Y-122025565D02*
X127993971Y-122025565D01*
X127993971Y-122025565D02*
X127993971Y-121311279D01*
X127993971Y-120882707D02*
X127993971Y-120025565D01*
X126493971Y-120454136D02*
X127993971Y-120454136D01*
D10*
X82110839Y-98522200D02*
X81967982Y-98569819D01*
X81967982Y-98569819D02*
X81729887Y-98569819D01*
X81729887Y-98569819D02*
X81634649Y-98522200D01*
X81634649Y-98522200D02*
X81587030Y-98474580D01*
X81587030Y-98474580D02*
X81539411Y-98379342D01*
X81539411Y-98379342D02*
X81539411Y-98284104D01*
X81539411Y-98284104D02*
X81587030Y-98188866D01*
X81587030Y-98188866D02*
X81634649Y-98141247D01*
X81634649Y-98141247D02*
X81729887Y-98093628D01*
X81729887Y-98093628D02*
X81920363Y-98046009D01*
X81920363Y-98046009D02*
X82015601Y-97998390D01*
X82015601Y-97998390D02*
X82063220Y-97950771D01*
X82063220Y-97950771D02*
X82110839Y-97855533D01*
X82110839Y-97855533D02*
X82110839Y-97760295D01*
X82110839Y-97760295D02*
X82063220Y-97665057D01*
X82063220Y-97665057D02*
X82015601Y-97617438D01*
X82015601Y-97617438D02*
X81920363Y-97569819D01*
X81920363Y-97569819D02*
X81682268Y-97569819D01*
X81682268Y-97569819D02*
X81539411Y-97617438D01*
X80539411Y-98474580D02*
X80587030Y-98522200D01*
X80587030Y-98522200D02*
X80729887Y-98569819D01*
X80729887Y-98569819D02*
X80825125Y-98569819D01*
X80825125Y-98569819D02*
X80967982Y-98522200D01*
X80967982Y-98522200D02*
X81063220Y-98426961D01*
X81063220Y-98426961D02*
X81110839Y-98331723D01*
X81110839Y-98331723D02*
X81158458Y-98141247D01*
X81158458Y-98141247D02*
X81158458Y-97998390D01*
X81158458Y-97998390D02*
X81110839Y-97807914D01*
X81110839Y-97807914D02*
X81063220Y-97712676D01*
X81063220Y-97712676D02*
X80967982Y-97617438D01*
X80967982Y-97617438D02*
X80825125Y-97569819D01*
X80825125Y-97569819D02*
X80729887Y-97569819D01*
X80729887Y-97569819D02*
X80587030Y-97617438D01*
X80587030Y-97617438D02*
X80539411Y-97665057D01*
X80110839Y-98569819D02*
X80110839Y-97569819D01*
X79539411Y-98569819D02*
X79967982Y-97998390D01*
X79539411Y-97569819D02*
X80110839Y-98141247D01*
X90082561Y-92439411D02*
X90130180Y-92534649D01*
X90130180Y-92534649D02*
X90130180Y-92677506D01*
X90130180Y-92677506D02*
X90082561Y-92820363D01*
X90082561Y-92820363D02*
X89987323Y-92915601D01*
X89987323Y-92915601D02*
X89892085Y-92963220D01*
X89892085Y-92963220D02*
X89701609Y-93010839D01*
X89701609Y-93010839D02*
X89558752Y-93010839D01*
X89558752Y-93010839D02*
X89368276Y-92963220D01*
X89368276Y-92963220D02*
X89273038Y-92915601D01*
X89273038Y-92915601D02*
X89177800Y-92820363D01*
X89177800Y-92820363D02*
X89130180Y-92677506D01*
X89130180Y-92677506D02*
X89130180Y-92582268D01*
X89130180Y-92582268D02*
X89177800Y-92439411D01*
X89177800Y-92439411D02*
X89225419Y-92391792D01*
X89225419Y-92391792D02*
X89558752Y-92391792D01*
X89558752Y-92391792D02*
X89558752Y-92582268D01*
X89130180Y-91963220D02*
X90130180Y-91963220D01*
X90130180Y-91963220D02*
X89130180Y-91391792D01*
X89130180Y-91391792D02*
X90130180Y-91391792D01*
X89130180Y-90915601D02*
X90130180Y-90915601D01*
X90130180Y-90915601D02*
X90130180Y-90677506D01*
X90130180Y-90677506D02*
X90082561Y-90534649D01*
X90082561Y-90534649D02*
X89987323Y-90439411D01*
X89987323Y-90439411D02*
X89892085Y-90391792D01*
X89892085Y-90391792D02*
X89701609Y-90344173D01*
X89701609Y-90344173D02*
X89558752Y-90344173D01*
X89558752Y-90344173D02*
X89368276Y-90391792D01*
X89368276Y-90391792D02*
X89273038Y-90439411D01*
X89273038Y-90439411D02*
X89177800Y-90534649D01*
X89177800Y-90534649D02*
X89130180Y-90677506D01*
X89130180Y-90677506D02*
X89130180Y-90915601D01*
X99263220Y-87988866D02*
X98501316Y-87988866D01*
X98815895Y-93310839D02*
X98815895Y-92834649D01*
X98530180Y-93406077D02*
X99530180Y-93072744D01*
X99530180Y-93072744D02*
X98530180Y-92739411D01*
X99434942Y-92453696D02*
X99482561Y-92406077D01*
X99482561Y-92406077D02*
X99530180Y-92310839D01*
X99530180Y-92310839D02*
X99530180Y-92072744D01*
X99530180Y-92072744D02*
X99482561Y-91977506D01*
X99482561Y-91977506D02*
X99434942Y-91929887D01*
X99434942Y-91929887D02*
X99339704Y-91882268D01*
X99339704Y-91882268D02*
X99244466Y-91882268D01*
X99244466Y-91882268D02*
X99101609Y-91929887D01*
X99101609Y-91929887D02*
X98530180Y-92501315D01*
X98530180Y-92501315D02*
X98530180Y-91882268D01*
X88539411Y-86317438D02*
X88634649Y-86269819D01*
X88634649Y-86269819D02*
X88777506Y-86269819D01*
X88777506Y-86269819D02*
X88920363Y-86317438D01*
X88920363Y-86317438D02*
X89015601Y-86412676D01*
X89015601Y-86412676D02*
X89063220Y-86507914D01*
X89063220Y-86507914D02*
X89110839Y-86698390D01*
X89110839Y-86698390D02*
X89110839Y-86841247D01*
X89110839Y-86841247D02*
X89063220Y-87031723D01*
X89063220Y-87031723D02*
X89015601Y-87126961D01*
X89015601Y-87126961D02*
X88920363Y-87222200D01*
X88920363Y-87222200D02*
X88777506Y-87269819D01*
X88777506Y-87269819D02*
X88682268Y-87269819D01*
X88682268Y-87269819D02*
X88539411Y-87222200D01*
X88539411Y-87222200D02*
X88491792Y-87174580D01*
X88491792Y-87174580D02*
X88491792Y-86841247D01*
X88491792Y-86841247D02*
X88682268Y-86841247D01*
X88063220Y-87269819D02*
X88063220Y-86269819D01*
X88063220Y-86269819D02*
X87491792Y-87269819D01*
X87491792Y-87269819D02*
X87491792Y-86269819D01*
X87015601Y-87269819D02*
X87015601Y-86269819D01*
X87015601Y-86269819D02*
X86777506Y-86269819D01*
X86777506Y-86269819D02*
X86634649Y-86317438D01*
X86634649Y-86317438D02*
X86539411Y-86412676D01*
X86539411Y-86412676D02*
X86491792Y-86507914D01*
X86491792Y-86507914D02*
X86444173Y-86698390D01*
X86444173Y-86698390D02*
X86444173Y-86841247D01*
X86444173Y-86841247D02*
X86491792Y-87031723D01*
X86491792Y-87031723D02*
X86539411Y-87126961D01*
X86539411Y-87126961D02*
X86634649Y-87222200D01*
X86634649Y-87222200D02*
X86777506Y-87269819D01*
X86777506Y-87269819D02*
X87015601Y-87269819D01*
X72911133Y-107363220D02*
X72911133Y-106601316D01*
X72911133Y-106163220D02*
X72911133Y-105401316D01*
X72530180Y-105782268D02*
X73292085Y-105782268D01*
D13*
%TO.C,U7*%
X90700000Y-75924000D02*
X90700000Y-75670000D01*
X90700000Y-75924000D02*
X104670000Y-75924000D01*
X90700000Y-71606000D02*
X90700000Y-67542000D01*
X90700000Y-57128000D02*
X90700000Y-55858000D01*
X90700000Y-55858000D02*
X104670000Y-55858000D01*
X104670000Y-75924000D02*
X104670000Y-75670000D01*
X104670000Y-71606000D02*
X104670000Y-67542000D01*
X104670000Y-55858000D02*
X104670000Y-57128000D01*
D14*
X102892000Y-74908000D02*
X100352000Y-74908000D01*
X100352000Y-72368000D01*
X102892000Y-72368000D01*
X102892000Y-74908000D01*
G36*
X102892000Y-74908000D02*
G01*
X100352000Y-74908000D01*
X100352000Y-72368000D01*
X102892000Y-72368000D01*
X102892000Y-74908000D01*
G37*
D15*
%TO.C,R9*%
X107620000Y-115646359D02*
X107620000Y-115953641D01*
X108380000Y-115646359D02*
X108380000Y-115953641D01*
%TO.C,R13*%
X113522500Y-90962742D02*
X113522500Y-91437258D01*
X112477500Y-90962742D02*
X112477500Y-91437258D01*
%TO.C,C16*%
X86652677Y-105675000D02*
X87652677Y-105675000D01*
X87152677Y-106175000D02*
X87152677Y-105175000D01*
X92132323Y-107880000D02*
X92132323Y-97720000D01*
X92172323Y-107880000D02*
X92172323Y-97720000D01*
X92212323Y-107880000D02*
X92212323Y-97720000D01*
X92252323Y-107879000D02*
X92252323Y-97721000D01*
X92292323Y-107878000D02*
X92292323Y-97722000D01*
X92332323Y-107877000D02*
X92332323Y-97723000D01*
X92372323Y-107875000D02*
X92372323Y-97725000D01*
X92412323Y-107873000D02*
X92412323Y-97727000D01*
X92452323Y-107870000D02*
X92452323Y-97730000D01*
X92492323Y-107868000D02*
X92492323Y-97732000D01*
X92532323Y-107865000D02*
X92532323Y-97735000D01*
X92572323Y-107862000D02*
X92572323Y-97738000D01*
X92612323Y-107858000D02*
X92612323Y-97742000D01*
X92652323Y-107854000D02*
X92652323Y-97746000D01*
X92692323Y-107850000D02*
X92692323Y-97750000D01*
X92732323Y-107845000D02*
X92732323Y-97755000D01*
X92772323Y-107840000D02*
X92772323Y-97760000D01*
X92812323Y-107835000D02*
X92812323Y-97765000D01*
X92853323Y-107830000D02*
X92853323Y-97770000D01*
X92893323Y-107824000D02*
X92893323Y-97776000D01*
X92933323Y-107818000D02*
X92933323Y-97782000D01*
X92973323Y-107811000D02*
X92973323Y-97789000D01*
X93013323Y-107804000D02*
X93013323Y-97796000D01*
X93053323Y-107797000D02*
X93053323Y-97803000D01*
X93093323Y-107790000D02*
X93093323Y-97810000D01*
X93133323Y-107782000D02*
X93133323Y-97818000D01*
X93173323Y-107774000D02*
X93173323Y-97826000D01*
X93213323Y-107765000D02*
X93213323Y-97835000D01*
X93253323Y-107756000D02*
X93253323Y-97844000D01*
X93293323Y-107747000D02*
X93293323Y-97853000D01*
X93333323Y-107738000D02*
X93333323Y-97862000D01*
X93373323Y-107728000D02*
X93373323Y-97872000D01*
X93413323Y-101559000D02*
X93413323Y-97882000D01*
X93413323Y-107718000D02*
X93413323Y-104041000D01*
X93453323Y-101559000D02*
X93453323Y-97893000D01*
X93453323Y-107707000D02*
X93453323Y-104041000D01*
X93493323Y-101559000D02*
X93493323Y-97903000D01*
X93493323Y-107697000D02*
X93493323Y-104041000D01*
X93533323Y-101559000D02*
X93533323Y-97915000D01*
X93533323Y-107685000D02*
X93533323Y-104041000D01*
X93573323Y-101559000D02*
X93573323Y-97926000D01*
X93573323Y-107674000D02*
X93573323Y-104041000D01*
X93613323Y-101559000D02*
X93613323Y-97938000D01*
X93613323Y-107662000D02*
X93613323Y-104041000D01*
X93653323Y-101559000D02*
X93653323Y-97950000D01*
X93653323Y-107650000D02*
X93653323Y-104041000D01*
X93693323Y-101559000D02*
X93693323Y-97963000D01*
X93693323Y-107637000D02*
X93693323Y-104041000D01*
X93733323Y-101559000D02*
X93733323Y-97976000D01*
X93733323Y-107624000D02*
X93733323Y-104041000D01*
X93773323Y-101559000D02*
X93773323Y-97989000D01*
X93773323Y-107611000D02*
X93773323Y-104041000D01*
X93813323Y-101559000D02*
X93813323Y-98003000D01*
X93813323Y-107597000D02*
X93813323Y-104041000D01*
X93853323Y-101559000D02*
X93853323Y-98017000D01*
X93853323Y-107583000D02*
X93853323Y-104041000D01*
X93893323Y-101559000D02*
X93893323Y-98032000D01*
X93893323Y-107568000D02*
X93893323Y-104041000D01*
X93933323Y-101559000D02*
X93933323Y-98046000D01*
X93933323Y-107554000D02*
X93933323Y-104041000D01*
X93973323Y-101559000D02*
X93973323Y-98062000D01*
X93973323Y-107538000D02*
X93973323Y-104041000D01*
X94013323Y-101559000D02*
X94013323Y-98077000D01*
X94013323Y-107523000D02*
X94013323Y-104041000D01*
X94053323Y-101559000D02*
X94053323Y-98093000D01*
X94053323Y-107507000D02*
X94053323Y-104041000D01*
X94093323Y-101559000D02*
X94093323Y-98110000D01*
X94093323Y-107490000D02*
X94093323Y-104041000D01*
X94133323Y-101559000D02*
X94133323Y-98126000D01*
X94133323Y-107474000D02*
X94133323Y-104041000D01*
X94173323Y-101559000D02*
X94173323Y-98143000D01*
X94173323Y-107457000D02*
X94173323Y-104041000D01*
X94213323Y-101559000D02*
X94213323Y-98161000D01*
X94213323Y-107439000D02*
X94213323Y-104041000D01*
X94253323Y-101559000D02*
X94253323Y-98179000D01*
X94253323Y-107421000D02*
X94253323Y-104041000D01*
X94293323Y-101559000D02*
X94293323Y-98197000D01*
X94293323Y-107403000D02*
X94293323Y-104041000D01*
X94333323Y-101559000D02*
X94333323Y-98216000D01*
X94333323Y-107384000D02*
X94333323Y-104041000D01*
X94373323Y-101559000D02*
X94373323Y-98236000D01*
X94373323Y-107364000D02*
X94373323Y-104041000D01*
X94413323Y-101559000D02*
X94413323Y-98255000D01*
X94413323Y-107345000D02*
X94413323Y-104041000D01*
X94453323Y-101559000D02*
X94453323Y-98275000D01*
X94453323Y-107325000D02*
X94453323Y-104041000D01*
X94493323Y-101559000D02*
X94493323Y-98296000D01*
X94493323Y-107304000D02*
X94493323Y-104041000D01*
X94533323Y-101559000D02*
X94533323Y-98317000D01*
X94533323Y-107283000D02*
X94533323Y-104041000D01*
X94573323Y-101559000D02*
X94573323Y-98338000D01*
X94573323Y-107262000D02*
X94573323Y-104041000D01*
X94613323Y-101559000D02*
X94613323Y-98360000D01*
X94613323Y-107240000D02*
X94613323Y-104041000D01*
X94653323Y-101559000D02*
X94653323Y-98383000D01*
X94653323Y-107217000D02*
X94653323Y-104041000D01*
X94693323Y-101559000D02*
X94693323Y-98405000D01*
X94693323Y-107195000D02*
X94693323Y-104041000D01*
X94733323Y-101559000D02*
X94733323Y-98429000D01*
X94733323Y-107171000D02*
X94733323Y-104041000D01*
X94773323Y-101559000D02*
X94773323Y-98453000D01*
X94773323Y-107147000D02*
X94773323Y-104041000D01*
X94813323Y-101559000D02*
X94813323Y-98477000D01*
X94813323Y-107123000D02*
X94813323Y-104041000D01*
X94853323Y-101559000D02*
X94853323Y-98502000D01*
X94853323Y-107098000D02*
X94853323Y-104041000D01*
X94893323Y-101559000D02*
X94893323Y-98527000D01*
X94893323Y-107073000D02*
X94893323Y-104041000D01*
X94933323Y-101559000D02*
X94933323Y-98553000D01*
X94933323Y-107047000D02*
X94933323Y-104041000D01*
X94973323Y-101559000D02*
X94973323Y-98579000D01*
X94973323Y-107021000D02*
X94973323Y-104041000D01*
X95013323Y-101559000D02*
X95013323Y-98606000D01*
X95013323Y-106994000D02*
X95013323Y-104041000D01*
X95053323Y-101559000D02*
X95053323Y-98634000D01*
X95053323Y-106966000D02*
X95053323Y-104041000D01*
X95093323Y-101559000D02*
X95093323Y-98662000D01*
X95093323Y-106938000D02*
X95093323Y-104041000D01*
X95133323Y-101559000D02*
X95133323Y-98690000D01*
X95133323Y-106910000D02*
X95133323Y-104041000D01*
X95173323Y-101559000D02*
X95173323Y-98720000D01*
X95173323Y-106880000D02*
X95173323Y-104041000D01*
X95213323Y-101559000D02*
X95213323Y-98750000D01*
X95213323Y-106850000D02*
X95213323Y-104041000D01*
X95253323Y-101559000D02*
X95253323Y-98780000D01*
X95253323Y-106820000D02*
X95253323Y-104041000D01*
X95293323Y-101559000D02*
X95293323Y-98811000D01*
X95293323Y-106789000D02*
X95293323Y-104041000D01*
X95333323Y-101559000D02*
X95333323Y-98843000D01*
X95333323Y-106757000D02*
X95333323Y-104041000D01*
X95373323Y-101559000D02*
X95373323Y-98875000D01*
X95373323Y-106725000D02*
X95373323Y-104041000D01*
X95413323Y-101559000D02*
X95413323Y-98908000D01*
X95413323Y-106692000D02*
X95413323Y-104041000D01*
X95453323Y-101559000D02*
X95453323Y-98942000D01*
X95453323Y-106658000D02*
X95453323Y-104041000D01*
X95493323Y-101559000D02*
X95493323Y-98976000D01*
X95493323Y-106624000D02*
X95493323Y-104041000D01*
X95533323Y-101559000D02*
X95533323Y-99011000D01*
X95533323Y-106589000D02*
X95533323Y-104041000D01*
X95573323Y-101559000D02*
X95573323Y-99047000D01*
X95573323Y-106553000D02*
X95573323Y-104041000D01*
X95613323Y-101559000D02*
X95613323Y-99084000D01*
X95613323Y-106516000D02*
X95613323Y-104041000D01*
X95653323Y-101559000D02*
X95653323Y-99121000D01*
X95653323Y-106479000D02*
X95653323Y-104041000D01*
X95693323Y-101559000D02*
X95693323Y-99160000D01*
X95693323Y-106440000D02*
X95693323Y-104041000D01*
X95733323Y-101559000D02*
X95733323Y-99199000D01*
X95733323Y-106401000D02*
X95733323Y-104041000D01*
X95773323Y-101559000D02*
X95773323Y-99239000D01*
X95773323Y-106361000D02*
X95773323Y-104041000D01*
X95813323Y-101559000D02*
X95813323Y-99280000D01*
X95813323Y-106320000D02*
X95813323Y-104041000D01*
X95853323Y-101559000D02*
X95853323Y-99322000D01*
X95853323Y-106278000D02*
X95853323Y-104041000D01*
X95893323Y-106236000D02*
X95893323Y-99364000D01*
X95933323Y-106192000D02*
X95933323Y-99408000D01*
X95973323Y-106147000D02*
X95973323Y-99453000D01*
X96013323Y-106101000D02*
X96013323Y-99499000D01*
X96053323Y-106054000D02*
X96053323Y-99546000D01*
X96093323Y-106006000D02*
X96093323Y-99594000D01*
X96133323Y-105956000D02*
X96133323Y-99644000D01*
X96173323Y-105906000D02*
X96173323Y-99694000D01*
X96213323Y-105854000D02*
X96213323Y-99746000D01*
X96253323Y-105800000D02*
X96253323Y-99800000D01*
X96293323Y-105745000D02*
X96293323Y-99855000D01*
X96333323Y-105689000D02*
X96333323Y-99911000D01*
X96373323Y-105630000D02*
X96373323Y-99970000D01*
X96413323Y-105570000D02*
X96413323Y-100030000D01*
X96453323Y-105509000D02*
X96453323Y-100091000D01*
X96493323Y-105445000D02*
X96493323Y-100155000D01*
X96533323Y-105379000D02*
X96533323Y-100221000D01*
X96573323Y-105310000D02*
X96573323Y-100290000D01*
X96613323Y-105239000D02*
X96613323Y-100361000D01*
X96653323Y-105165000D02*
X96653323Y-100435000D01*
X96693323Y-105089000D02*
X96693323Y-100511000D01*
X96733323Y-105009000D02*
X96733323Y-100591000D01*
X96773323Y-104925000D02*
X96773323Y-100675000D01*
X96813323Y-104837000D02*
X96813323Y-100763000D01*
X96853323Y-104744000D02*
X96853323Y-100856000D01*
X96893323Y-104646000D02*
X96893323Y-100954000D01*
X96933323Y-104542000D02*
X96933323Y-101058000D01*
X96973323Y-104430000D02*
X96973323Y-101170000D01*
X97013323Y-104310000D02*
X97013323Y-101290000D01*
X97053323Y-104178000D02*
X97053323Y-101422000D01*
X97093323Y-104030000D02*
X97093323Y-101570000D01*
X97133323Y-103862000D02*
X97133323Y-101738000D01*
X97173323Y-103662000D02*
X97173323Y-101938000D01*
X97213323Y-103399000D02*
X97213323Y-102201000D01*
X97252323Y-102800000D02*
G75*
G03*
X97252323Y-102800000I-5120000J0D01*
G01*
%TO.C,C34*%
X82315580Y-66210000D02*
X82034420Y-66210000D01*
X82315580Y-65190000D02*
X82034420Y-65190000D01*
%TO.C,C4*%
X114297164Y-105040000D02*
X114512836Y-105040000D01*
X114297164Y-105760000D02*
X114512836Y-105760000D01*
%TO.C,C30*%
X88840000Y-59907836D02*
X88840000Y-59692164D01*
X89560000Y-59907836D02*
X89560000Y-59692164D01*
%TO.C,J7*%
X78600000Y-109000000D02*
X73600000Y-109000000D01*
X73600000Y-109000000D02*
X73600000Y-104000000D01*
X73600000Y-104000000D02*
X78600000Y-104000000D01*
X78600000Y-104000000D02*
X78600000Y-109000000D01*
%TO.C,D6*%
X97965000Y-113585000D02*
X97965000Y-111300000D01*
X99435000Y-113585000D02*
X97965000Y-113585000D01*
X99435000Y-111300000D02*
X99435000Y-113585000D01*
%TO.C,J5*%
X105470000Y-88970000D02*
X105470000Y-91630000D01*
X97790000Y-88970000D02*
X105470000Y-88970000D01*
X97790000Y-88970000D02*
X97790000Y-91630000D01*
X96520000Y-88970000D02*
X95190000Y-88970000D01*
X95190000Y-88970000D02*
X95190000Y-90300000D01*
X97790000Y-91630000D02*
X105470000Y-91630000D01*
D10*
%TO.C,SW6*%
X95000000Y-121000000D02*
X86000000Y-121000000D01*
X86000000Y-121000000D02*
X86000000Y-127000000D01*
X86000000Y-127000000D02*
X95000000Y-127000000D01*
X95000000Y-127000000D02*
X95000000Y-121000000D01*
D15*
%TO.C,R4*%
X108680000Y-117646359D02*
X108680000Y-117953641D01*
X107920000Y-117646359D02*
X107920000Y-117953641D01*
%TO.C,C1*%
X117472164Y-116040000D02*
X117687836Y-116040000D01*
X117472164Y-116760000D02*
X117687836Y-116760000D01*
%TO.C,C12*%
X106710000Y-111284420D02*
X106710000Y-111565580D01*
X105690000Y-111284420D02*
X105690000Y-111565580D01*
%TO.C,C15*%
X99910000Y-123388748D02*
X99910000Y-124811252D01*
X98090000Y-123388748D02*
X98090000Y-124811252D01*
%TO.C,C5*%
X114565580Y-108210000D02*
X114284420Y-108210000D01*
X114565580Y-107190000D02*
X114284420Y-107190000D01*
%TO.C,C25*%
X87740000Y-59907836D02*
X87740000Y-59692164D01*
X88460000Y-59907836D02*
X88460000Y-59692164D01*
%TO.C,R2*%
X111020000Y-113343641D02*
X111020000Y-113036359D01*
X111780000Y-113343641D02*
X111780000Y-113036359D01*
%TO.C,C24*%
X117440000Y-65827836D02*
X117440000Y-65612164D01*
X118160000Y-65827836D02*
X118160000Y-65612164D01*
%TO.C,R24*%
X88620000Y-63563641D02*
X88620000Y-63256359D01*
X89380000Y-63563641D02*
X89380000Y-63256359D01*
%TO.C,C32*%
X114297164Y-106040000D02*
X114512836Y-106040000D01*
X114297164Y-106760000D02*
X114512836Y-106760000D01*
%TO.C,U9*%
X82762500Y-61590000D02*
X81962500Y-61590000D01*
X82762500Y-61590000D02*
X83562500Y-61590000D01*
X82762500Y-64710000D02*
X80962500Y-64710000D01*
X82762500Y-64710000D02*
X83562500Y-64710000D01*
D10*
%TO.C,SW2*%
X119000000Y-122000000D02*
X119000000Y-124800000D01*
X119200000Y-126000000D02*
X124000000Y-126000000D01*
X124000000Y-120800000D02*
X119200000Y-120800000D01*
X124200000Y-124800000D02*
X124200000Y-122000000D01*
D15*
%TO.C,C7*%
X88710000Y-89184420D02*
X88710000Y-89465580D01*
X87690000Y-89184420D02*
X87690000Y-89465580D01*
%TO.C,TH1*%
X86621078Y-120510000D02*
X86103922Y-120510000D01*
X86621078Y-119090000D02*
X86103922Y-119090000D01*
%TO.C,C20*%
X147367836Y-86260000D02*
X147152164Y-86260000D01*
X147367836Y-85540000D02*
X147152164Y-85540000D01*
%TO.C,U4*%
X101362500Y-104990000D02*
X100562500Y-104990000D01*
X101362500Y-104990000D02*
X102162500Y-104990000D01*
X101362500Y-108110000D02*
X99562500Y-108110000D01*
X101362500Y-108110000D02*
X102162500Y-108110000D01*
%TO.C,C14*%
X103640000Y-107107836D02*
X103640000Y-106892164D01*
X104360000Y-107107836D02*
X104360000Y-106892164D01*
%TO.C,R17*%
X104077500Y-111662258D02*
X104077500Y-111187742D01*
X105122500Y-111662258D02*
X105122500Y-111187742D01*
%TO.C,J2*%
X105370000Y-93770000D02*
X105370000Y-96430000D01*
X90070000Y-93770000D02*
X105370000Y-93770000D01*
X90070000Y-93770000D02*
X90070000Y-96430000D01*
X88800000Y-93770000D02*
X87470000Y-93770000D01*
X87470000Y-93770000D02*
X87470000Y-95100000D01*
X90070000Y-96430000D02*
X105370000Y-96430000D01*
%TO.C,R12*%
X97337258Y-98222500D02*
X96862742Y-98222500D01*
X97337258Y-97177500D02*
X96862742Y-97177500D01*
%TO.C,R16*%
X103522500Y-111137742D02*
X103522500Y-111612258D01*
X102477500Y-111137742D02*
X102477500Y-111612258D01*
%TO.C,U8*%
X103225000Y-121055000D02*
X105175000Y-121055000D01*
X103225000Y-121055000D02*
X101275000Y-121055000D01*
X103225000Y-115935000D02*
X106675000Y-115935000D01*
X103225000Y-115935000D02*
X101275000Y-115935000D01*
D13*
%TO.C,U5*%
X149590000Y-86600000D02*
X147490000Y-86600000D01*
X147490000Y-89200000D02*
X149590000Y-89200000D01*
D16*
X150190000Y-86900000D02*
G75*
G03*
X150190000Y-86900000I-50000J0D01*
G01*
D15*
%TO.C,R11*%
X147446359Y-106820000D02*
X147753641Y-106820000D01*
X147446359Y-107580000D02*
X147753641Y-107580000D01*
%TO.C,R18*%
X99280000Y-114446359D02*
X99280000Y-114753641D01*
X98520000Y-114446359D02*
X98520000Y-114753641D01*
%TO.C,D2*%
X146497500Y-107935000D02*
X144212500Y-107935000D01*
X146497500Y-106465000D02*
X146497500Y-107935000D01*
X144212500Y-106465000D02*
X146497500Y-106465000D01*
%TO.C,C17*%
X147000000Y-87472164D02*
X147000000Y-87687836D01*
X146280000Y-87472164D02*
X146280000Y-87687836D01*
%TO.C,C19*%
X80475000Y-92147323D02*
X80475000Y-91147323D01*
X80975000Y-91647323D02*
X79975000Y-91647323D01*
X82680000Y-86667677D02*
X72520000Y-86667677D01*
X82680000Y-86627677D02*
X72520000Y-86627677D01*
X82680000Y-86587677D02*
X72520000Y-86587677D01*
X82679000Y-86547677D02*
X72521000Y-86547677D01*
X82678000Y-86507677D02*
X72522000Y-86507677D01*
X82677000Y-86467677D02*
X72523000Y-86467677D01*
X82675000Y-86427677D02*
X72525000Y-86427677D01*
X82673000Y-86387677D02*
X72527000Y-86387677D01*
X82670000Y-86347677D02*
X72530000Y-86347677D01*
X82668000Y-86307677D02*
X72532000Y-86307677D01*
X82665000Y-86267677D02*
X72535000Y-86267677D01*
X82662000Y-86227677D02*
X72538000Y-86227677D01*
X82658000Y-86187677D02*
X72542000Y-86187677D01*
X82654000Y-86147677D02*
X72546000Y-86147677D01*
X82650000Y-86107677D02*
X72550000Y-86107677D01*
X82645000Y-86067677D02*
X72555000Y-86067677D01*
X82640000Y-86027677D02*
X72560000Y-86027677D01*
X82635000Y-85987677D02*
X72565000Y-85987677D01*
X82630000Y-85946677D02*
X72570000Y-85946677D01*
X82624000Y-85906677D02*
X72576000Y-85906677D01*
X82618000Y-85866677D02*
X72582000Y-85866677D01*
X82611000Y-85826677D02*
X72589000Y-85826677D01*
X82604000Y-85786677D02*
X72596000Y-85786677D01*
X82597000Y-85746677D02*
X72603000Y-85746677D01*
X82590000Y-85706677D02*
X72610000Y-85706677D01*
X82582000Y-85666677D02*
X72618000Y-85666677D01*
X82574000Y-85626677D02*
X72626000Y-85626677D01*
X82565000Y-85586677D02*
X72635000Y-85586677D01*
X82556000Y-85546677D02*
X72644000Y-85546677D01*
X82547000Y-85506677D02*
X72653000Y-85506677D01*
X82538000Y-85466677D02*
X72662000Y-85466677D01*
X82528000Y-85426677D02*
X72672000Y-85426677D01*
X76359000Y-85386677D02*
X72682000Y-85386677D01*
X82518000Y-85386677D02*
X78841000Y-85386677D01*
X76359000Y-85346677D02*
X72693000Y-85346677D01*
X82507000Y-85346677D02*
X78841000Y-85346677D01*
X76359000Y-85306677D02*
X72703000Y-85306677D01*
X82497000Y-85306677D02*
X78841000Y-85306677D01*
X76359000Y-85266677D02*
X72715000Y-85266677D01*
X82485000Y-85266677D02*
X78841000Y-85266677D01*
X76359000Y-85226677D02*
X72726000Y-85226677D01*
X82474000Y-85226677D02*
X78841000Y-85226677D01*
X76359000Y-85186677D02*
X72738000Y-85186677D01*
X82462000Y-85186677D02*
X78841000Y-85186677D01*
X76359000Y-85146677D02*
X72750000Y-85146677D01*
X82450000Y-85146677D02*
X78841000Y-85146677D01*
X76359000Y-85106677D02*
X72763000Y-85106677D01*
X82437000Y-85106677D02*
X78841000Y-85106677D01*
X76359000Y-85066677D02*
X72776000Y-85066677D01*
X82424000Y-85066677D02*
X78841000Y-85066677D01*
X76359000Y-85026677D02*
X72789000Y-85026677D01*
X82411000Y-85026677D02*
X78841000Y-85026677D01*
X76359000Y-84986677D02*
X72803000Y-84986677D01*
X82397000Y-84986677D02*
X78841000Y-84986677D01*
X76359000Y-84946677D02*
X72817000Y-84946677D01*
X82383000Y-84946677D02*
X78841000Y-84946677D01*
X76359000Y-84906677D02*
X72832000Y-84906677D01*
X82368000Y-84906677D02*
X78841000Y-84906677D01*
X76359000Y-84866677D02*
X72846000Y-84866677D01*
X82354000Y-84866677D02*
X78841000Y-84866677D01*
X76359000Y-84826677D02*
X72862000Y-84826677D01*
X82338000Y-84826677D02*
X78841000Y-84826677D01*
X76359000Y-84786677D02*
X72877000Y-84786677D01*
X82323000Y-84786677D02*
X78841000Y-84786677D01*
X76359000Y-84746677D02*
X72893000Y-84746677D01*
X82307000Y-84746677D02*
X78841000Y-84746677D01*
X76359000Y-84706677D02*
X72910000Y-84706677D01*
X82290000Y-84706677D02*
X78841000Y-84706677D01*
X76359000Y-84666677D02*
X72926000Y-84666677D01*
X82274000Y-84666677D02*
X78841000Y-84666677D01*
X76359000Y-84626677D02*
X72943000Y-84626677D01*
X82257000Y-84626677D02*
X78841000Y-84626677D01*
X76359000Y-84586677D02*
X72961000Y-84586677D01*
X82239000Y-84586677D02*
X78841000Y-84586677D01*
X76359000Y-84546677D02*
X72979000Y-84546677D01*
X82221000Y-84546677D02*
X78841000Y-84546677D01*
X76359000Y-84506677D02*
X72997000Y-84506677D01*
X82203000Y-84506677D02*
X78841000Y-84506677D01*
X76359000Y-84466677D02*
X73016000Y-84466677D01*
X82184000Y-84466677D02*
X78841000Y-84466677D01*
X76359000Y-84426677D02*
X73036000Y-84426677D01*
X82164000Y-84426677D02*
X78841000Y-84426677D01*
X76359000Y-84386677D02*
X73055000Y-84386677D01*
X82145000Y-84386677D02*
X78841000Y-84386677D01*
X76359000Y-84346677D02*
X73075000Y-84346677D01*
X82125000Y-84346677D02*
X78841000Y-84346677D01*
X76359000Y-84306677D02*
X73096000Y-84306677D01*
X82104000Y-84306677D02*
X78841000Y-84306677D01*
X76359000Y-84266677D02*
X73117000Y-84266677D01*
X82083000Y-84266677D02*
X78841000Y-84266677D01*
X76359000Y-84226677D02*
X73138000Y-84226677D01*
X82062000Y-84226677D02*
X78841000Y-84226677D01*
X76359000Y-84186677D02*
X73160000Y-84186677D01*
X82040000Y-84186677D02*
X78841000Y-84186677D01*
X76359000Y-84146677D02*
X73183000Y-84146677D01*
X82017000Y-84146677D02*
X78841000Y-84146677D01*
X76359000Y-84106677D02*
X73205000Y-84106677D01*
X81995000Y-84106677D02*
X78841000Y-84106677D01*
X76359000Y-84066677D02*
X73229000Y-84066677D01*
X81971000Y-84066677D02*
X78841000Y-84066677D01*
X76359000Y-84026677D02*
X73253000Y-84026677D01*
X81947000Y-84026677D02*
X78841000Y-84026677D01*
X76359000Y-83986677D02*
X73277000Y-83986677D01*
X81923000Y-83986677D02*
X78841000Y-83986677D01*
X76359000Y-83946677D02*
X73302000Y-83946677D01*
X81898000Y-83946677D02*
X78841000Y-83946677D01*
X76359000Y-83906677D02*
X73327000Y-83906677D01*
X81873000Y-83906677D02*
X78841000Y-83906677D01*
X76359000Y-83866677D02*
X73353000Y-83866677D01*
X81847000Y-83866677D02*
X78841000Y-83866677D01*
X76359000Y-83826677D02*
X73379000Y-83826677D01*
X81821000Y-83826677D02*
X78841000Y-83826677D01*
X76359000Y-83786677D02*
X73406000Y-83786677D01*
X81794000Y-83786677D02*
X78841000Y-83786677D01*
X76359000Y-83746677D02*
X73434000Y-83746677D01*
X81766000Y-83746677D02*
X78841000Y-83746677D01*
X76359000Y-83706677D02*
X73462000Y-83706677D01*
X81738000Y-83706677D02*
X78841000Y-83706677D01*
X76359000Y-83666677D02*
X73490000Y-83666677D01*
X81710000Y-83666677D02*
X78841000Y-83666677D01*
X76359000Y-83626677D02*
X73520000Y-83626677D01*
X81680000Y-83626677D02*
X78841000Y-83626677D01*
X76359000Y-83586677D02*
X73550000Y-83586677D01*
X81650000Y-83586677D02*
X78841000Y-83586677D01*
X76359000Y-83546677D02*
X73580000Y-83546677D01*
X81620000Y-83546677D02*
X78841000Y-83546677D01*
X76359000Y-83506677D02*
X73611000Y-83506677D01*
X81589000Y-83506677D02*
X78841000Y-83506677D01*
X76359000Y-83466677D02*
X73643000Y-83466677D01*
X81557000Y-83466677D02*
X78841000Y-83466677D01*
X76359000Y-83426677D02*
X73675000Y-83426677D01*
X81525000Y-83426677D02*
X78841000Y-83426677D01*
X76359000Y-83386677D02*
X73708000Y-83386677D01*
X81492000Y-83386677D02*
X78841000Y-83386677D01*
X76359000Y-83346677D02*
X73742000Y-83346677D01*
X81458000Y-83346677D02*
X78841000Y-83346677D01*
X76359000Y-83306677D02*
X73776000Y-83306677D01*
X81424000Y-83306677D02*
X78841000Y-83306677D01*
X76359000Y-83266677D02*
X73811000Y-83266677D01*
X81389000Y-83266677D02*
X78841000Y-83266677D01*
X76359000Y-83226677D02*
X73847000Y-83226677D01*
X81353000Y-83226677D02*
X78841000Y-83226677D01*
X76359000Y-83186677D02*
X73884000Y-83186677D01*
X81316000Y-83186677D02*
X78841000Y-83186677D01*
X76359000Y-83146677D02*
X73921000Y-83146677D01*
X81279000Y-83146677D02*
X78841000Y-83146677D01*
X76359000Y-83106677D02*
X73960000Y-83106677D01*
X81240000Y-83106677D02*
X78841000Y-83106677D01*
X76359000Y-83066677D02*
X73999000Y-83066677D01*
X81201000Y-83066677D02*
X78841000Y-83066677D01*
X76359000Y-83026677D02*
X74039000Y-83026677D01*
X81161000Y-83026677D02*
X78841000Y-83026677D01*
X76359000Y-82986677D02*
X74080000Y-82986677D01*
X81120000Y-82986677D02*
X78841000Y-82986677D01*
X76359000Y-82946677D02*
X74122000Y-82946677D01*
X81078000Y-82946677D02*
X78841000Y-82946677D01*
X81036000Y-82906677D02*
X74164000Y-82906677D01*
X80992000Y-82866677D02*
X74208000Y-82866677D01*
X80947000Y-82826677D02*
X74253000Y-82826677D01*
X80901000Y-82786677D02*
X74299000Y-82786677D01*
X80854000Y-82746677D02*
X74346000Y-82746677D01*
X80806000Y-82706677D02*
X74394000Y-82706677D01*
X80756000Y-82666677D02*
X74444000Y-82666677D01*
X80706000Y-82626677D02*
X74494000Y-82626677D01*
X80654000Y-82586677D02*
X74546000Y-82586677D01*
X80600000Y-82546677D02*
X74600000Y-82546677D01*
X80545000Y-82506677D02*
X74655000Y-82506677D01*
X80489000Y-82466677D02*
X74711000Y-82466677D01*
X80430000Y-82426677D02*
X74770000Y-82426677D01*
X80370000Y-82386677D02*
X74830000Y-82386677D01*
X80309000Y-82346677D02*
X74891000Y-82346677D01*
X80245000Y-82306677D02*
X74955000Y-82306677D01*
X80179000Y-82266677D02*
X75021000Y-82266677D01*
X80110000Y-82226677D02*
X75090000Y-82226677D01*
X80039000Y-82186677D02*
X75161000Y-82186677D01*
X79965000Y-82146677D02*
X75235000Y-82146677D01*
X79889000Y-82106677D02*
X75311000Y-82106677D01*
X79809000Y-82066677D02*
X75391000Y-82066677D01*
X79725000Y-82026677D02*
X75475000Y-82026677D01*
X79637000Y-81986677D02*
X75563000Y-81986677D01*
X79544000Y-81946677D02*
X75656000Y-81946677D01*
X79446000Y-81906677D02*
X75754000Y-81906677D01*
X79342000Y-81866677D02*
X75858000Y-81866677D01*
X79230000Y-81826677D02*
X75970000Y-81826677D01*
X79110000Y-81786677D02*
X76090000Y-81786677D01*
X78978000Y-81746677D02*
X76222000Y-81746677D01*
X78830000Y-81706677D02*
X76370000Y-81706677D01*
X78662000Y-81666677D02*
X76538000Y-81666677D01*
X78462000Y-81626677D02*
X76738000Y-81626677D01*
X78199000Y-81586677D02*
X77001000Y-81586677D01*
X82720000Y-86667677D02*
G75*
G03*
X82720000Y-86667677I-5120000J0D01*
G01*
%TO.C,C22*%
X119610000Y-65634420D02*
X119610000Y-65915580D01*
X118590000Y-65634420D02*
X118590000Y-65915580D01*
D10*
%TO.C,J4*%
X78400000Y-116925000D02*
X78400000Y-118225000D01*
X78400000Y-118225000D02*
X79700000Y-118225000D01*
X81200000Y-111430000D02*
X80600000Y-111430000D01*
X81200000Y-112260000D02*
X80600000Y-112260000D01*
X81200000Y-113970000D02*
X80600000Y-113970000D01*
X81200000Y-114800000D02*
X80600000Y-114800000D01*
X81200000Y-116510000D02*
X80700000Y-116510000D01*
X81200000Y-117340000D02*
X80700000Y-117340000D01*
D15*
X81230000Y-118295000D02*
X91230000Y-118295000D01*
X91230000Y-118295000D02*
X91230000Y-110475000D01*
X91230000Y-110475000D02*
X81230000Y-110475000D01*
X81230000Y-110475000D02*
X81230000Y-118295000D01*
%TO.C,C18*%
X148567836Y-90160000D02*
X148352164Y-90160000D01*
X148567836Y-89440000D02*
X148352164Y-89440000D01*
%TO.C,C26*%
X103188748Y-102390000D02*
X104611252Y-102390000D01*
X103188748Y-104210000D02*
X104611252Y-104210000D01*
%TO.C,C33*%
X107860000Y-119772164D02*
X107860000Y-119987836D01*
X107140000Y-119772164D02*
X107140000Y-119987836D01*
%TO.C,R1*%
X76643641Y-102480000D02*
X76336359Y-102480000D01*
X76643641Y-101720000D02*
X76336359Y-101720000D01*
%TO.C,R25*%
X117720000Y-119343641D02*
X117720000Y-119036359D01*
X118480000Y-119343641D02*
X118480000Y-119036359D01*
%TO.C,C23*%
X87659420Y-61090000D02*
X87940580Y-61090000D01*
X87659420Y-62110000D02*
X87940580Y-62110000D01*
%TO.C,R15*%
X100653641Y-104580000D02*
X100346359Y-104580000D01*
X100653641Y-103820000D02*
X100346359Y-103820000D01*
%TO.C,D9*%
X97650000Y-113590000D02*
X97650000Y-119100000D01*
X94350000Y-113590000D02*
X97650000Y-113590000D01*
X94350000Y-113590000D02*
X94350000Y-119100000D01*
%TO.C,D8*%
X84310000Y-79500000D02*
X80450000Y-79500000D01*
X84310000Y-77500000D02*
X84310000Y-79500000D01*
X84310000Y-77500000D02*
X80450000Y-77500000D01*
%TO.C,D3*%
X94000000Y-116190000D02*
X94000000Y-120050000D01*
X92000000Y-116190000D02*
X94000000Y-116190000D01*
X92000000Y-116190000D02*
X92000000Y-120050000D01*
%TO.C,C2*%
X98090000Y-120340580D02*
X98090000Y-120059420D01*
X99110000Y-120340580D02*
X99110000Y-120059420D01*
%TO.C,C6*%
X112740000Y-116087836D02*
X112740000Y-115872164D01*
X113460000Y-116087836D02*
X113460000Y-115872164D01*
%TO.C,C36*%
X85140000Y-63707836D02*
X85140000Y-63492164D01*
X85860000Y-63707836D02*
X85860000Y-63492164D01*
%TO.C,D5*%
X106010000Y-101900000D02*
X102150000Y-101900000D01*
X106010000Y-99900000D02*
X106010000Y-101900000D01*
X106010000Y-99900000D02*
X102150000Y-99900000D01*
%TO.C,R8*%
X107946359Y-101320000D02*
X108253641Y-101320000D01*
X107946359Y-102080000D02*
X108253641Y-102080000D01*
%TO.C,C21*%
X105715580Y-122610000D02*
X105434420Y-122610000D01*
X105715580Y-121590000D02*
X105434420Y-121590000D01*
%TO.C,R21*%
X117922500Y-71837742D02*
X117922500Y-72312258D01*
X116877500Y-71837742D02*
X116877500Y-72312258D01*
%TO.C,R3*%
X145536359Y-101620000D02*
X145843641Y-101620000D01*
X145536359Y-102380000D02*
X145843641Y-102380000D01*
%TO.C,C11*%
X105810000Y-106559420D02*
X105810000Y-106840580D01*
X104790000Y-106559420D02*
X104790000Y-106840580D01*
%TO.C,C9*%
X88972164Y-77340000D02*
X89187836Y-77340000D01*
X88972164Y-78060000D02*
X89187836Y-78060000D01*
%TO.C,R19*%
X100580000Y-114446359D02*
X100580000Y-114753641D01*
X99820000Y-114446359D02*
X99820000Y-114753641D01*
%TO.C,R5*%
X119680000Y-119056359D02*
X119680000Y-119363641D01*
X118920000Y-119056359D02*
X118920000Y-119363641D01*
%TO.C,C10*%
X98910000Y-106634420D02*
X98910000Y-106915580D01*
X97890000Y-106634420D02*
X97890000Y-106915580D01*
%TO.C,C27*%
X117540000Y-69227836D02*
X117540000Y-69012164D01*
X118260000Y-69227836D02*
X118260000Y-69012164D01*
%TO.C,D7*%
X99665000Y-113585000D02*
X99665000Y-111300000D01*
X101135000Y-113585000D02*
X99665000Y-113585000D01*
X101135000Y-111300000D02*
X101135000Y-113585000D01*
%TO.C,U1*%
X110790000Y-103310000D02*
X111090000Y-103310000D01*
X117710000Y-103310000D02*
X117710000Y-104625000D01*
X118010000Y-103310000D02*
X117710000Y-103310000D01*
X110790000Y-103010000D02*
X110790000Y-103310000D01*
X118010000Y-103010000D02*
X118010000Y-103310000D01*
X110790000Y-96390000D02*
X110790000Y-96090000D01*
X118010000Y-96390000D02*
X118010000Y-96090000D01*
X110790000Y-96090000D02*
X111090000Y-96090000D01*
X118010000Y-96090000D02*
X117710000Y-96090000D01*
%TO.C,R6*%
X103143641Y-122180000D02*
X102836359Y-122180000D01*
X103143641Y-121420000D02*
X102836359Y-121420000D01*
%TO.C,R22*%
X79020000Y-65853641D02*
X79020000Y-65546359D01*
X79780000Y-65853641D02*
X79780000Y-65546359D01*
%TO.C,R7*%
X97580000Y-112036359D02*
X97580000Y-112343641D01*
X96820000Y-112036359D02*
X96820000Y-112343641D01*
%TO.C,C8*%
X86540000Y-89427836D02*
X86540000Y-89212164D01*
X87260000Y-89427836D02*
X87260000Y-89212164D01*
%TO.C,C35*%
X144830000Y-88265580D02*
X144830000Y-87984420D01*
X145850000Y-88265580D02*
X145850000Y-87984420D01*
%TO.C,J6*%
X96490000Y-86630000D02*
X96490000Y-83970000D01*
X101630000Y-86630000D02*
X96490000Y-86630000D01*
X101630000Y-86630000D02*
X101630000Y-83970000D01*
X102900000Y-86630000D02*
X104230000Y-86630000D01*
X104230000Y-86630000D02*
X104230000Y-85300000D01*
X101630000Y-83970000D02*
X96490000Y-83970000D01*
%TO.C,C3*%
X87447323Y-69025000D02*
X86447323Y-69025000D01*
X86947323Y-68525000D02*
X86947323Y-69525000D01*
X81967677Y-66820000D02*
X81967677Y-76980000D01*
X81927677Y-66820000D02*
X81927677Y-76980000D01*
X81887677Y-66820000D02*
X81887677Y-76980000D01*
X81847677Y-66821000D02*
X81847677Y-76979000D01*
X81807677Y-66822000D02*
X81807677Y-76978000D01*
X81767677Y-66823000D02*
X81767677Y-76977000D01*
X81727677Y-66825000D02*
X81727677Y-76975000D01*
X81687677Y-66827000D02*
X81687677Y-76973000D01*
X81647677Y-66830000D02*
X81647677Y-76970000D01*
X81607677Y-66832000D02*
X81607677Y-76968000D01*
X81567677Y-66835000D02*
X81567677Y-76965000D01*
X81527677Y-66838000D02*
X81527677Y-76962000D01*
X81487677Y-66842000D02*
X81487677Y-76958000D01*
X81447677Y-66846000D02*
X81447677Y-76954000D01*
X81407677Y-66850000D02*
X81407677Y-76950000D01*
X81367677Y-66855000D02*
X81367677Y-76945000D01*
X81327677Y-66860000D02*
X81327677Y-76940000D01*
X81287677Y-66865000D02*
X81287677Y-76935000D01*
X81246677Y-66870000D02*
X81246677Y-76930000D01*
X81206677Y-66876000D02*
X81206677Y-76924000D01*
X81166677Y-66882000D02*
X81166677Y-76918000D01*
X81126677Y-66889000D02*
X81126677Y-76911000D01*
X81086677Y-66896000D02*
X81086677Y-76904000D01*
X81046677Y-66903000D02*
X81046677Y-76897000D01*
X81006677Y-66910000D02*
X81006677Y-76890000D01*
X80966677Y-66918000D02*
X80966677Y-76882000D01*
X80926677Y-66926000D02*
X80926677Y-76874000D01*
X80886677Y-66935000D02*
X80886677Y-76865000D01*
X80846677Y-66944000D02*
X80846677Y-76856000D01*
X80806677Y-66953000D02*
X80806677Y-76847000D01*
X80766677Y-66962000D02*
X80766677Y-76838000D01*
X80726677Y-66972000D02*
X80726677Y-76828000D01*
X80686677Y-73141000D02*
X80686677Y-76818000D01*
X80686677Y-66982000D02*
X80686677Y-70659000D01*
X80646677Y-73141000D02*
X80646677Y-76807000D01*
X80646677Y-66993000D02*
X80646677Y-70659000D01*
X80606677Y-73141000D02*
X80606677Y-76797000D01*
X80606677Y-67003000D02*
X80606677Y-70659000D01*
X80566677Y-73141000D02*
X80566677Y-76785000D01*
X80566677Y-67015000D02*
X80566677Y-70659000D01*
X80526677Y-73141000D02*
X80526677Y-76774000D01*
X80526677Y-67026000D02*
X80526677Y-70659000D01*
X80486677Y-73141000D02*
X80486677Y-76762000D01*
X80486677Y-67038000D02*
X80486677Y-70659000D01*
X80446677Y-73141000D02*
X80446677Y-76750000D01*
X80446677Y-67050000D02*
X80446677Y-70659000D01*
X80406677Y-73141000D02*
X80406677Y-76737000D01*
X80406677Y-67063000D02*
X80406677Y-70659000D01*
X80366677Y-73141000D02*
X80366677Y-76724000D01*
X80366677Y-67076000D02*
X80366677Y-70659000D01*
X80326677Y-73141000D02*
X80326677Y-76711000D01*
X80326677Y-67089000D02*
X80326677Y-70659000D01*
X80286677Y-73141000D02*
X80286677Y-76697000D01*
X80286677Y-67103000D02*
X80286677Y-70659000D01*
X80246677Y-73141000D02*
X80246677Y-76683000D01*
X80246677Y-67117000D02*
X80246677Y-70659000D01*
X80206677Y-73141000D02*
X80206677Y-76668000D01*
X80206677Y-67132000D02*
X80206677Y-70659000D01*
X80166677Y-73141000D02*
X80166677Y-76654000D01*
X80166677Y-67146000D02*
X80166677Y-70659000D01*
X80126677Y-73141000D02*
X80126677Y-76638000D01*
X80126677Y-67162000D02*
X80126677Y-70659000D01*
X80086677Y-73141000D02*
X80086677Y-76623000D01*
X80086677Y-67177000D02*
X80086677Y-70659000D01*
X80046677Y-73141000D02*
X80046677Y-76607000D01*
X80046677Y-67193000D02*
X80046677Y-70659000D01*
X80006677Y-73141000D02*
X80006677Y-76590000D01*
X80006677Y-67210000D02*
X80006677Y-70659000D01*
X79966677Y-73141000D02*
X79966677Y-76574000D01*
X79966677Y-67226000D02*
X79966677Y-70659000D01*
X79926677Y-73141000D02*
X79926677Y-76557000D01*
X79926677Y-67243000D02*
X79926677Y-70659000D01*
X79886677Y-73141000D02*
X79886677Y-76539000D01*
X79886677Y-67261000D02*
X79886677Y-70659000D01*
X79846677Y-73141000D02*
X79846677Y-76521000D01*
X79846677Y-67279000D02*
X79846677Y-70659000D01*
X79806677Y-73141000D02*
X79806677Y-76503000D01*
X79806677Y-67297000D02*
X79806677Y-70659000D01*
X79766677Y-73141000D02*
X79766677Y-76484000D01*
X79766677Y-67316000D02*
X79766677Y-70659000D01*
X79726677Y-73141000D02*
X79726677Y-76464000D01*
X79726677Y-67336000D02*
X79726677Y-70659000D01*
X79686677Y-73141000D02*
X79686677Y-76445000D01*
X79686677Y-67355000D02*
X79686677Y-70659000D01*
X79646677Y-73141000D02*
X79646677Y-76425000D01*
X79646677Y-67375000D02*
X79646677Y-70659000D01*
X79606677Y-73141000D02*
X79606677Y-76404000D01*
X79606677Y-67396000D02*
X79606677Y-70659000D01*
X79566677Y-73141000D02*
X79566677Y-76383000D01*
X79566677Y-67417000D02*
X79566677Y-70659000D01*
X79526677Y-73141000D02*
X79526677Y-76362000D01*
X79526677Y-67438000D02*
X79526677Y-70659000D01*
X79486677Y-73141000D02*
X79486677Y-76340000D01*
X79486677Y-67460000D02*
X79486677Y-70659000D01*
X79446677Y-73141000D02*
X79446677Y-76317000D01*
X79446677Y-67483000D02*
X79446677Y-70659000D01*
X79406677Y-73141000D02*
X79406677Y-76295000D01*
X79406677Y-67505000D02*
X79406677Y-70659000D01*
X79366677Y-73141000D02*
X79366677Y-76271000D01*
X79366677Y-67529000D02*
X79366677Y-70659000D01*
X79326677Y-73141000D02*
X79326677Y-76247000D01*
X79326677Y-67553000D02*
X79326677Y-70659000D01*
X79286677Y-73141000D02*
X79286677Y-76223000D01*
X79286677Y-67577000D02*
X79286677Y-70659000D01*
X79246677Y-73141000D02*
X79246677Y-76198000D01*
X79246677Y-67602000D02*
X79246677Y-70659000D01*
X79206677Y-73141000D02*
X79206677Y-76173000D01*
X79206677Y-67627000D02*
X79206677Y-70659000D01*
X79166677Y-73141000D02*
X79166677Y-76147000D01*
X79166677Y-67653000D02*
X79166677Y-70659000D01*
X79126677Y-73141000D02*
X79126677Y-76121000D01*
X79126677Y-67679000D02*
X79126677Y-70659000D01*
X79086677Y-73141000D02*
X79086677Y-76094000D01*
X79086677Y-67706000D02*
X79086677Y-70659000D01*
X79046677Y-73141000D02*
X79046677Y-76066000D01*
X79046677Y-67734000D02*
X79046677Y-70659000D01*
X79006677Y-73141000D02*
X79006677Y-76038000D01*
X79006677Y-67762000D02*
X79006677Y-70659000D01*
X78966677Y-73141000D02*
X78966677Y-76010000D01*
X78966677Y-67790000D02*
X78966677Y-70659000D01*
X78926677Y-73141000D02*
X78926677Y-75980000D01*
X78926677Y-67820000D02*
X78926677Y-70659000D01*
X78886677Y-73141000D02*
X78886677Y-75950000D01*
X78886677Y-67850000D02*
X78886677Y-70659000D01*
X78846677Y-73141000D02*
X78846677Y-75920000D01*
X78846677Y-67880000D02*
X78846677Y-70659000D01*
X78806677Y-73141000D02*
X78806677Y-75889000D01*
X78806677Y-67911000D02*
X78806677Y-70659000D01*
X78766677Y-73141000D02*
X78766677Y-75857000D01*
X78766677Y-67943000D02*
X78766677Y-70659000D01*
X78726677Y-73141000D02*
X78726677Y-75825000D01*
X78726677Y-67975000D02*
X78726677Y-70659000D01*
X78686677Y-73141000D02*
X78686677Y-75792000D01*
X78686677Y-68008000D02*
X78686677Y-70659000D01*
X78646677Y-73141000D02*
X78646677Y-75758000D01*
X78646677Y-68042000D02*
X78646677Y-70659000D01*
X78606677Y-73141000D02*
X78606677Y-75724000D01*
X78606677Y-68076000D02*
X78606677Y-70659000D01*
X78566677Y-73141000D02*
X78566677Y-75689000D01*
X78566677Y-68111000D02*
X78566677Y-70659000D01*
X78526677Y-73141000D02*
X78526677Y-75653000D01*
X78526677Y-68147000D02*
X78526677Y-70659000D01*
X78486677Y-73141000D02*
X78486677Y-75616000D01*
X78486677Y-68184000D02*
X78486677Y-70659000D01*
X78446677Y-73141000D02*
X78446677Y-75579000D01*
X78446677Y-68221000D02*
X78446677Y-70659000D01*
X78406677Y-73141000D02*
X78406677Y-75540000D01*
X78406677Y-68260000D02*
X78406677Y-70659000D01*
X78366677Y-73141000D02*
X78366677Y-75501000D01*
X78366677Y-68299000D02*
X78366677Y-70659000D01*
X78326677Y-73141000D02*
X78326677Y-75461000D01*
X78326677Y-68339000D02*
X78326677Y-70659000D01*
X78286677Y-73141000D02*
X78286677Y-75420000D01*
X78286677Y-68380000D02*
X78286677Y-70659000D01*
X78246677Y-73141000D02*
X78246677Y-75378000D01*
X78246677Y-68422000D02*
X78246677Y-70659000D01*
X78206677Y-68464000D02*
X78206677Y-75336000D01*
X78166677Y-68508000D02*
X78166677Y-75292000D01*
X78126677Y-68553000D02*
X78126677Y-75247000D01*
X78086677Y-68599000D02*
X78086677Y-75201000D01*
X78046677Y-68646000D02*
X78046677Y-75154000D01*
X78006677Y-68694000D02*
X78006677Y-75106000D01*
X77966677Y-68744000D02*
X77966677Y-75056000D01*
X77926677Y-68794000D02*
X77926677Y-75006000D01*
X77886677Y-68846000D02*
X77886677Y-74954000D01*
X77846677Y-68900000D02*
X77846677Y-74900000D01*
X77806677Y-68955000D02*
X77806677Y-74845000D01*
X77766677Y-69011000D02*
X77766677Y-74789000D01*
X77726677Y-69070000D02*
X77726677Y-74730000D01*
X77686677Y-69130000D02*
X77686677Y-74670000D01*
X77646677Y-69191000D02*
X77646677Y-74609000D01*
X77606677Y-69255000D02*
X77606677Y-74545000D01*
X77566677Y-69321000D02*
X77566677Y-74479000D01*
X77526677Y-69390000D02*
X77526677Y-74410000D01*
X77486677Y-69461000D02*
X77486677Y-74339000D01*
X77446677Y-69535000D02*
X77446677Y-74265000D01*
X77406677Y-69611000D02*
X77406677Y-74189000D01*
X77366677Y-69691000D02*
X77366677Y-74109000D01*
X77326677Y-69775000D02*
X77326677Y-74025000D01*
X77286677Y-69863000D02*
X77286677Y-73937000D01*
X77246677Y-69956000D02*
X77246677Y-73844000D01*
X77206677Y-70054000D02*
X77206677Y-73746000D01*
X77166677Y-70158000D02*
X77166677Y-73642000D01*
X77126677Y-70270000D02*
X77126677Y-73530000D01*
X77086677Y-70390000D02*
X77086677Y-73410000D01*
X77046677Y-70522000D02*
X77046677Y-73278000D01*
X77006677Y-70670000D02*
X77006677Y-73130000D01*
X76966677Y-70838000D02*
X76966677Y-72962000D01*
X76926677Y-71038000D02*
X76926677Y-72762000D01*
X76886677Y-71301000D02*
X76886677Y-72499000D01*
X87087677Y-71900000D02*
G75*
G03*
X87087677Y-71900000I-5120000J0D01*
G01*
%TO.C,D4*%
X95500000Y-125210000D02*
X95500000Y-121350000D01*
X97500000Y-125210000D02*
X95500000Y-125210000D01*
X97500000Y-125210000D02*
X97500000Y-121350000D01*
%TO.C,C37*%
X88110000Y-64088748D02*
X88110000Y-65511252D01*
X86290000Y-64088748D02*
X86290000Y-65511252D01*
D10*
%TO.C,U2*%
X109025000Y-119075000D02*
X109325000Y-119075000D01*
X109025000Y-119075000D02*
X109025000Y-115725000D01*
X112150000Y-119075000D02*
X112150000Y-120300000D01*
X112375000Y-119075000D02*
X112150000Y-119075000D01*
X112375000Y-119075000D02*
X112375000Y-115725000D01*
X109025000Y-115725000D02*
X109325000Y-115725000D01*
X112375000Y-115725000D02*
X112075000Y-115725000D01*
D15*
%TO.C,R20*%
X105462742Y-114377500D02*
X105937258Y-114377500D01*
X105462742Y-115422500D02*
X105937258Y-115422500D01*
%TO.C,D1*%
X113390000Y-119262500D02*
X113390000Y-120062500D01*
X113390000Y-119262500D02*
X113390000Y-118462500D01*
X116510000Y-119262500D02*
X116510000Y-121062500D01*
X116510000Y-119262500D02*
X116510000Y-118462500D01*
%TO.C,R14*%
X100412258Y-98222500D02*
X99937742Y-98222500D01*
X100412258Y-97177500D02*
X99937742Y-97177500D01*
%TO.C,C28*%
X121611252Y-70510000D02*
X120188748Y-70510000D01*
X121611252Y-68690000D02*
X120188748Y-68690000D01*
D13*
%TO.C,J1*%
X116350000Y-126950000D02*
X106600000Y-126950000D01*
X114600000Y-127600000D02*
X114600000Y-127650000D01*
X114600000Y-126750000D02*
X114600000Y-127600000D01*
X114200000Y-127600000D02*
X114200000Y-127300000D01*
X114200000Y-127300000D02*
X113900000Y-127300000D01*
X113500000Y-127700000D02*
X108800000Y-127700000D01*
X108000000Y-127600000D02*
X108000000Y-127300000D01*
X108000000Y-127300000D02*
X108300000Y-127300000D01*
X107600000Y-127600000D02*
X107600000Y-127650000D01*
X107600000Y-126750000D02*
X107600000Y-127650000D01*
X107600000Y-126750000D02*
X107600000Y-127600000D01*
X114600000Y-127600000D02*
G75*
G03*
X115100000Y-128100000I500001J1D01*
G01*
X114200000Y-127600000D02*
G75*
G03*
X115000000Y-128400000I800001J1D01*
G01*
X113500000Y-127700000D02*
G75*
G03*
X113900000Y-127300000I1J399999D01*
G01*
X108300000Y-127300000D02*
G75*
G03*
X108700000Y-127700000I400000J0D01*
G01*
X107200000Y-128400000D02*
G75*
G03*
X108000000Y-127600000I0J800000D01*
G01*
X107100000Y-128100000D02*
G75*
G03*
X107600000Y-127600000I0J500000D01*
G01*
D15*
%TO.C,R23*%
X88620000Y-65553641D02*
X88620000Y-65246359D01*
X89380000Y-65553641D02*
X89380000Y-65246359D01*
%TO.C,R10*%
X115222500Y-90962742D02*
X115222500Y-91437258D01*
X114177500Y-90962742D02*
X114177500Y-91437258D01*
%TD*%
D17*
%TO.C,J1*%
X113600000Y-122800000D03*
X108600000Y-122800000D03*
D18*
X114600000Y-125500000D03*
X107600000Y-125500000D03*
%TD*%
%LPC*%
D19*
%TO.C,U7*%
X90700000Y-74908000D03*
X90700000Y-73638000D03*
X90700000Y-72368000D03*
X90700000Y-66780000D03*
X90700000Y-65510000D03*
X90700000Y-64240000D03*
X90700000Y-62970000D03*
X90700000Y-61700000D03*
X90700000Y-60430000D03*
X90700000Y-59160000D03*
X90700000Y-57890000D03*
X104670000Y-57890000D03*
X104670000Y-59160000D03*
X104670000Y-60430000D03*
X104670000Y-61700000D03*
X104670000Y-62970000D03*
X104670000Y-64240000D03*
X104670000Y-65510000D03*
X104670000Y-66780000D03*
X104670000Y-72368000D03*
X104670000Y-73638000D03*
X104670000Y-74908000D03*
%TD*%
D20*
%TO.C,R9*%
X108000000Y-115290000D03*
X108000000Y-116310000D03*
%TD*%
D21*
%TO.C,J3*%
X84500000Y-87925000D03*
D22*
X84500000Y-90465000D03*
X84500000Y-93005000D03*
X84500000Y-95545000D03*
X84500000Y-98085000D03*
X84500000Y-100625000D03*
X84500000Y-103165000D03*
X84500000Y-105705000D03*
%TD*%
D23*
%TO.C,H3*%
X140300000Y-123300000D03*
%TD*%
%TO.C,H2*%
X81700000Y-123300000D03*
%TD*%
%TO.C,H1*%
X84900000Y-56000000D03*
%TD*%
D24*
%TO.C,R13*%
X113000000Y-90375000D03*
X113000000Y-92025000D03*
%TD*%
D25*
%TO.C,C16*%
X89632323Y-102800000D03*
D26*
X94632323Y-102800000D03*
%TD*%
D27*
%TO.C,C34*%
X82950000Y-65700000D03*
X81400000Y-65700000D03*
%TD*%
D28*
%TO.C,C4*%
X113925000Y-105400000D03*
X114885000Y-105400000D03*
%TD*%
D29*
%TO.C,C30*%
X89200000Y-60280000D03*
X89200000Y-59320000D03*
%TD*%
D30*
%TO.C,J7*%
X74600000Y-107125000D03*
D31*
X74600000Y-105875000D03*
%TD*%
D32*
%TO.C,D6*%
X98700000Y-112887500D03*
X98700000Y-111312500D03*
%TD*%
D33*
%TO.C,J5*%
X96520000Y-90300000D03*
D22*
X99060000Y-90300000D03*
X101600000Y-90300000D03*
X104140000Y-90300000D03*
%TD*%
D34*
%TO.C,SW6*%
X93000000Y-121900000D03*
X90500000Y-121900000D03*
X88000000Y-121900000D03*
%TD*%
D20*
%TO.C,R4*%
X108300000Y-117290000D03*
X108300000Y-118310000D03*
%TD*%
D28*
%TO.C,C1*%
X117100000Y-116400000D03*
X118060000Y-116400000D03*
%TD*%
D35*
%TO.C,C12*%
X106200000Y-110650000D03*
X106200000Y-112200000D03*
%TD*%
D36*
%TO.C,C15*%
X99000000Y-122625000D03*
X99000000Y-125575000D03*
%TD*%
D27*
%TO.C,C5*%
X115200000Y-107700000D03*
X113650000Y-107700000D03*
%TD*%
D29*
%TO.C,C25*%
X88100000Y-60280000D03*
X88100000Y-59320000D03*
%TD*%
D37*
%TO.C,R2*%
X111400000Y-113700000D03*
X111400000Y-112680000D03*
%TD*%
D29*
%TO.C,C24*%
X117800000Y-66200000D03*
X117800000Y-65240000D03*
%TD*%
D37*
%TO.C,R24*%
X89000000Y-63920000D03*
X89000000Y-62900000D03*
%TD*%
D28*
%TO.C,C32*%
X113925000Y-106400000D03*
X114885000Y-106400000D03*
%TD*%
D38*
%TO.C,U9*%
X81625000Y-64100000D03*
X81625000Y-63150000D03*
X81625000Y-62200000D03*
X83900000Y-62200000D03*
X83900000Y-64100000D03*
%TD*%
D39*
%TO.C,SW2*%
X118100000Y-125650000D03*
X125100000Y-125650000D03*
X118100000Y-121150000D03*
X125100000Y-121150000D03*
%TD*%
D35*
%TO.C,C7*%
X88200000Y-88550000D03*
X88200000Y-90100000D03*
%TD*%
D40*
%TO.C,TH1*%
X87300000Y-119800000D03*
X85425000Y-119800000D03*
%TD*%
D41*
%TO.C,C20*%
X147740000Y-85900000D03*
X146780000Y-85900000D03*
%TD*%
D38*
%TO.C,U4*%
X100225000Y-107500000D03*
X100225000Y-106550000D03*
X100225000Y-105600000D03*
X102500000Y-105600000D03*
X102500000Y-107500000D03*
%TD*%
D29*
%TO.C,C14*%
X104000000Y-107480000D03*
X104000000Y-106520000D03*
%TD*%
D42*
%TO.C,R17*%
X104600000Y-112250000D03*
X104600000Y-110600000D03*
%TD*%
D33*
%TO.C,J2*%
X88800000Y-95100000D03*
D22*
X91340000Y-95100000D03*
X93880000Y-95100000D03*
X96420000Y-95100000D03*
X98960000Y-95100000D03*
X101500000Y-95100000D03*
X104040000Y-95100000D03*
%TD*%
D43*
%TO.C,R12*%
X97925000Y-97700000D03*
X96275000Y-97700000D03*
%TD*%
D24*
%TO.C,R16*%
X103000000Y-110550000D03*
X103000000Y-112200000D03*
%TD*%
D44*
%TO.C,U8*%
X105850000Y-116590000D03*
X105850000Y-117860000D03*
X105850000Y-119130000D03*
X105850000Y-120400000D03*
X100600000Y-120400000D03*
X100600000Y-119130000D03*
X100600000Y-117860000D03*
X100600000Y-116590000D03*
D45*
X103225000Y-118495000D03*
%TD*%
D46*
%TO.C,U5*%
X149300000Y-87150000D03*
X149300000Y-87650000D03*
X149300000Y-88150000D03*
X149300000Y-88650000D03*
D47*
X148790000Y-88660000D03*
X148290000Y-88660000D03*
D46*
X147780000Y-88650000D03*
X147780000Y-88150000D03*
X147780000Y-87650000D03*
X147780000Y-87150000D03*
D47*
X148290000Y-87140000D03*
X148790000Y-87140000D03*
%TD*%
D48*
%TO.C,R11*%
X147090000Y-107200000D03*
X148110000Y-107200000D03*
%TD*%
D20*
%TO.C,R18*%
X98900000Y-114090000D03*
X98900000Y-115110000D03*
%TD*%
D49*
%TO.C,D2*%
X145800000Y-107200000D03*
X144225000Y-107200000D03*
%TD*%
D50*
%TO.C,C17*%
X146640000Y-87100000D03*
X146640000Y-88060000D03*
%TD*%
D51*
%TO.C,C19*%
X77600000Y-89167677D03*
D26*
X77600000Y-84167677D03*
%TD*%
D35*
%TO.C,C22*%
X119100000Y-65000000D03*
X119100000Y-66550000D03*
%TD*%
D21*
%TO.C,J4*%
X79700000Y-116925000D03*
D18*
X79700000Y-114385000D03*
X79700000Y-111845000D03*
%TD*%
D41*
%TO.C,C18*%
X148940000Y-89800000D03*
X147980000Y-89800000D03*
%TD*%
D52*
%TO.C,C26*%
X102425000Y-103300000D03*
X105375000Y-103300000D03*
%TD*%
D50*
%TO.C,C33*%
X107500000Y-119400000D03*
X107500000Y-120360000D03*
%TD*%
D53*
%TO.C,R1*%
X77000000Y-102100000D03*
X75980000Y-102100000D03*
%TD*%
D37*
%TO.C,R25*%
X118100000Y-119700000D03*
X118100000Y-118680000D03*
%TD*%
D54*
%TO.C,C23*%
X87025000Y-61600000D03*
X88575000Y-61600000D03*
%TD*%
D53*
%TO.C,R15*%
X101010000Y-104200000D03*
X99990000Y-104200000D03*
%TD*%
D55*
%TO.C,D9*%
X96000000Y-115100000D03*
X96000000Y-119100000D03*
%TD*%
D56*
%TO.C,D8*%
X83500000Y-78500000D03*
X80700000Y-78500000D03*
%TD*%
D57*
%TO.C,D3*%
X93000000Y-117000000D03*
X93000000Y-119800000D03*
%TD*%
D58*
%TO.C,C2*%
X98600000Y-120975000D03*
X98600000Y-119425000D03*
%TD*%
D29*
%TO.C,C6*%
X113100000Y-116460000D03*
X113100000Y-115500000D03*
%TD*%
%TO.C,C36*%
X85500000Y-64080000D03*
X85500000Y-63120000D03*
%TD*%
D56*
%TO.C,D5*%
X105200000Y-100900000D03*
X102400000Y-100900000D03*
%TD*%
D48*
%TO.C,R8*%
X107590000Y-101700000D03*
X108610000Y-101700000D03*
%TD*%
D27*
%TO.C,C21*%
X106350000Y-122100000D03*
X104800000Y-122100000D03*
%TD*%
D24*
%TO.C,R21*%
X117400000Y-71250000D03*
X117400000Y-72900000D03*
%TD*%
D48*
%TO.C,R3*%
X145180000Y-102000000D03*
X146200000Y-102000000D03*
%TD*%
D35*
%TO.C,C11*%
X105300000Y-105925000D03*
X105300000Y-107475000D03*
%TD*%
D28*
%TO.C,C9*%
X88600000Y-77700000D03*
X89560000Y-77700000D03*
%TD*%
D20*
%TO.C,R19*%
X100200000Y-114090000D03*
X100200000Y-115110000D03*
%TD*%
%TO.C,R5*%
X119300000Y-118700000D03*
X119300000Y-119720000D03*
%TD*%
D35*
%TO.C,C10*%
X98400000Y-106000000D03*
X98400000Y-107550000D03*
%TD*%
D29*
%TO.C,C27*%
X117900000Y-69600000D03*
X117900000Y-68640000D03*
%TD*%
D32*
%TO.C,D7*%
X100400000Y-112887500D03*
X100400000Y-111312500D03*
%TD*%
D59*
%TO.C,U1*%
X117200000Y-103875000D03*
X116400000Y-103875000D03*
X115600000Y-103875000D03*
X114800000Y-103875000D03*
X114000000Y-103875000D03*
X113200000Y-103875000D03*
X112400000Y-103875000D03*
X111600000Y-103875000D03*
D60*
X110225000Y-102500000D03*
X110225000Y-101700000D03*
X110225000Y-100900000D03*
X110225000Y-100100000D03*
X110225000Y-99300000D03*
X110225000Y-98500000D03*
X110225000Y-97700000D03*
X110225000Y-96900000D03*
D59*
X111600000Y-95525000D03*
X112400000Y-95525000D03*
X113200000Y-95525000D03*
X114000000Y-95525000D03*
X114800000Y-95525000D03*
X115600000Y-95525000D03*
X116400000Y-95525000D03*
X117200000Y-95525000D03*
D60*
X118575000Y-96900000D03*
X118575000Y-97700000D03*
X118575000Y-98500000D03*
X118575000Y-99300000D03*
X118575000Y-100100000D03*
X118575000Y-100900000D03*
X118575000Y-101700000D03*
X118575000Y-102500000D03*
%TD*%
D53*
%TO.C,R6*%
X103500000Y-121800000D03*
X102480000Y-121800000D03*
%TD*%
D37*
%TO.C,R22*%
X79400000Y-66210000D03*
X79400000Y-65190000D03*
%TD*%
D20*
%TO.C,R7*%
X97200000Y-111680000D03*
X97200000Y-112700000D03*
%TD*%
D29*
%TO.C,C8*%
X86900000Y-89800000D03*
X86900000Y-88840000D03*
%TD*%
D58*
%TO.C,C35*%
X145340000Y-88900000D03*
X145340000Y-87350000D03*
%TD*%
D61*
%TO.C,J6*%
X102900000Y-85300000D03*
D22*
X100360000Y-85300000D03*
X97820000Y-85300000D03*
%TD*%
D62*
%TO.C,C3*%
X84467677Y-71900000D03*
D26*
X79467677Y-71900000D03*
%TD*%
D63*
%TO.C,D4*%
X96500000Y-124400000D03*
X96500000Y-121600000D03*
%TD*%
D36*
%TO.C,C37*%
X87200000Y-63325000D03*
X87200000Y-66275000D03*
%TD*%
D64*
%TO.C,U2*%
X111700000Y-119600000D03*
X111200000Y-119600000D03*
X110700000Y-119600000D03*
X110200000Y-119600000D03*
X109700000Y-119600000D03*
X109700000Y-115200000D03*
X110200000Y-115200000D03*
X110700000Y-115200000D03*
X111200000Y-115200000D03*
X111700000Y-115200000D03*
%TD*%
D65*
%TO.C,R20*%
X104875000Y-114900000D03*
X106525000Y-114900000D03*
%TD*%
D66*
%TO.C,D1*%
X115900000Y-120400000D03*
X114950000Y-120400000D03*
X114000000Y-120400000D03*
X114000000Y-118125000D03*
X114950000Y-118125000D03*
X115900000Y-118125000D03*
%TD*%
D43*
%TO.C,R14*%
X101000000Y-97700000D03*
X99350000Y-97700000D03*
%TD*%
D67*
%TO.C,C28*%
X122375000Y-69600000D03*
X119425000Y-69600000D03*
%TD*%
D68*
%TO.C,J1*%
X112400000Y-122825000D03*
X111750000Y-122825000D03*
X111100000Y-122825000D03*
X110450000Y-122825000D03*
X109800000Y-122825000D03*
D69*
X113600000Y-122800000D03*
X108600000Y-122800000D03*
D70*
X112100000Y-125500000D03*
X110100000Y-125500000D03*
D71*
X114600000Y-125500000D03*
D70*
X114150000Y-125500000D03*
X108050000Y-125500000D03*
D71*
X107600000Y-125500000D03*
%TD*%
D37*
%TO.C,R23*%
X89000000Y-65910000D03*
X89000000Y-64890000D03*
%TD*%
D24*
%TO.C,R10*%
X114700000Y-90375000D03*
X114700000Y-92025000D03*
%TD*%
%LPD*%
M02*
